<svg width="692" height="233" viewBox="0 0 692 233" fill="none" xmlns="http://www.w3.org/2000/svg">
<mask id="mask0_203_640" style="mask-type:luminance" maskUnits="userSpaceOnUse" x="0" y="0" width="770" height="233">
<path d="M769.792 0H0V233H769.792V0Z" fill="white"/>
</mask>
<g mask="url(#mask0_203_640)">
<path d="M828.134 263.543H-58.3418V-30.5427H828.134L828.134 263.543ZM-57.196 262.936H826.988V-29.9359H-57.196V262.936Z" fill="#B3B3B3"/>
<path d="M827.562 218.914H-57.7676V219.521H827.562V218.914Z" fill="#B3B3B3"/>
<path d="M827.562 204.24H-57.7676V204.847H827.562V204.24Z" fill="#B3B3B3"/>
<path d="M827.562 189.566H-57.7676V190.173H827.562V189.566Z" fill="#B3B3B3"/>
<path d="M827.562 174.892H-57.7676V175.499H827.562V174.892Z" fill="#B3B3B3"/>
<path d="M827.562 160.218H-57.7676V160.825H827.562V160.218Z" fill="#B3B3B3"/>
<path d="M827.562 145.544H-57.7676V146.151H827.562V145.544Z" fill="#B3B3B3"/>
<path d="M827.562 130.871H-57.7676V131.477H827.562V130.871Z" fill="#B3B3B3"/>
<path d="M827.562 116.197H-57.7676V116.803H827.562V116.197Z" fill="#B3B3B3"/>
<path d="M827.562 101.523H-57.7676V102.129H827.562V101.523Z" fill="#B3B3B3"/>
<path d="M827.562 86.8486H-57.7676V87.4554H827.562V86.8486Z" fill="#B3B3B3"/>
<path d="M827.562 72.1746H-57.7676V72.7813H827.562V72.1746Z" fill="#B3B3B3"/>
<path d="M827.562 57.5007H-57.7676V58.1075H827.562V57.5007Z" fill="#B3B3B3"/>
<path d="M827.562 42.8269H-57.7676V43.4337H827.562V42.8269Z" fill="#B3B3B3"/>
<path d="M827.562 28.1528H-57.7676V28.7596H827.562V28.1528Z" fill="#B3B3B3"/>
<path d="M827.562 13.479H-57.7676V14.0858H827.562V13.479Z" fill="#B3B3B3"/>
<path d="M667.163 -30.2393H666.018V263.239H667.163V-30.2393Z" fill="#B3B3B3"/>
<path d="M640.337 -30.2393H639.191V263.239H640.337V-30.2393Z" fill="#B3B3B3"/>
<path d="M613.509 -30.2393H612.363V263.239H613.509V-30.2393Z" fill="#B3B3B3"/>
<path d="M586.681 -30.2393H585.535V263.239H586.681V-30.2393Z" fill="#B3B3B3"/>
<path d="M559.853 -30.2393H558.707V263.239H559.853V-30.2393Z" fill="#B3B3B3"/>
<path d="M533.024 -30.2393H531.879V263.239H533.024V-30.2393Z" fill="#B3B3B3"/>
<path d="M506.194 -30.2393H505.049V263.239H506.194V-30.2393Z" fill="#B3B3B3"/>
<path d="M479.366 -30.2393H478.221V263.239H479.366V-30.2393Z" fill="#B3B3B3"/>
<path d="M452.538 -30.2393H451.393V263.239H452.538V-30.2393Z" fill="#B3B3B3"/>
<path d="M425.71 -30.2393H424.564V263.239H425.71V-30.2393Z" fill="#B3B3B3"/>
<path d="M398.882 -30.2393H397.736V263.239H398.882V-30.2393Z" fill="#B3B3B3"/>
<path d="M372.054 -30.2393H370.908V263.239H372.054V-30.2393Z" fill="#B3B3B3"/>
<path d="M345.228 -30.2393H344.082V263.239H345.228V-30.2393Z" fill="#B3B3B3"/>
<path d="M318.399 -30.2393H317.254V263.239H318.399V-30.2393Z" fill="#B3B3B3"/>
<path d="M291.569 -30.2393H290.424V263.239H291.569V-30.2393Z" fill="#B3B3B3"/>
<path d="M264.741 -30.2393H263.596V263.239H264.741V-30.2393Z" fill="#B3B3B3"/>
<path d="M237.913 -30.2393H236.768V263.239H237.913V-30.2393Z" fill="#B3B3B3"/>
<path d="M211.087 -30.2393H209.941V263.239H211.087V-30.2393Z" fill="#B3B3B3"/>
<path d="M184.259 -30.2393H183.113V263.239H184.259V-30.2393Z" fill="#B3B3B3"/>
<path d="M157.431 -30.2393H156.285V263.239H157.431V-30.2393Z" fill="#B3B3B3"/>
<path d="M130.603 -30.2393H129.457V263.239H130.603V-30.2393Z" fill="#B3B3B3"/>
<path d="M103.774 -30.2393H102.629V263.239H103.774V-30.2393Z" fill="#B3B3B3"/>
<path d="M76.9463 -30.2393H75.8008V263.239H76.9463V-30.2393Z" fill="#B3B3B3"/>
<path d="M50.1182 -30.2393H48.9727V263.239H50.1182V-30.2393Z" fill="#B3B3B3"/>
<path d="M23.2881 -30.2393H22.1426V263.239H23.2881V-30.2393Z" fill="#B3B3B3"/>
</g>
</svg>
