<svg width="41" height="27" viewBox="0 0 41 27" fill="none" xmlns="http://www.w3.org/2000/svg">
<path d="M10.0662 0C15.6208 0 19.6311 4.18803 19.6311 10.3899C19.5963 19.3996 12.1792 25.7698 1.47868 26.9927C0.487405 27.107 0.104809 25.8492 1.01782 25.4791C5.12203 23.8116 7.19675 21.6961 7.46457 19.6029C7.66456 18.0385 6.73416 16.6679 5.56376 16.4106C2.53255 15.7452 0.501317 12.2973 0.501317 8.73498C0.501317 6.41832 1.50905 4.19654 3.30281 2.55842C5.09658 0.92029 7.52945 0 10.0662 0ZM30.9351 0C36.4897 0 40.5 4.18803 40.5 10.3899C40.4652 19.3996 33.0481 25.7698 22.3476 26.9927C21.3563 27.107 20.9737 25.8492 21.8867 25.4791C25.9909 23.8116 28.0656 21.6961 28.3334 19.6029C28.5334 18.0385 27.603 16.6679 26.4326 16.4106C23.4014 15.7452 21.3702 12.2973 21.3702 8.73498C21.3702 6.41832 22.3779 4.19654 24.1717 2.55842C25.9655 0.92029 28.3983 0 30.9351 0Z" fill="currentColor"/>
</svg>
