<svg width="41" height="27" viewBox="0 0 41 27" fill="currentColor" xmlns="http://www.w3.org/2000/svg">
<path d="M30.9338 27C25.3792 27 21.3689 22.812 21.3689 16.6101C21.4037 7.6004 28.8208 1.23022 39.5213 0.0073204C40.5126 -0.107029 40.8952 1.15081 39.9822 1.52085C35.878 3.18844 33.8033 5.30389 33.5354 7.39711C33.3354 8.96147 34.2658 10.3321 35.4362 10.5894C38.4674 11.2548 40.4987 14.7027 40.4987 18.265C40.4987 20.5817 39.491 22.8035 37.6972 24.4416C35.9034 26.0797 33.4705 27 30.9338 27ZM10.0649 27C4.5103 27 0.5 22.812 0.5 16.6101C0.534782 7.6004 7.95193 1.23022 18.6524 0.0073204C19.6437 -0.107029 20.0263 1.15081 19.1133 1.52085C15.0091 3.18844 12.9344 5.30389 12.6666 7.39711C12.4666 8.96147 13.397 10.3321 14.5674 10.5894C17.5986 11.2548 19.6298 14.7027 19.6298 18.265C19.6298 20.5817 18.6221 22.8035 16.8283 24.4416C15.0345 26.0797 12.6017 27 10.0649 27Z" fill="currentColor"/>
</svg>
