<?xml version="1.0" encoding="UTF-8"?>
<svg id="Calque_2" data-name="Calque 2" xmlns="http://www.w3.org/2000/svg" viewBox="0 0 248.14 261.8" fill="var(--primary-color, black)">
  <g id="Calque_1-2" data-name="Calque 1">
    <g>
      <path d="M152.53,172.18c5.06-16.79-2.15-35.68-20.84-54.63-3.74-3.79-7.77-7.17-11.67-10.43-7.37-6.17-14.33-12.01-18.04-19.54-1.02-2.07-1.8-4.35-2.33-6.77-2.38-10.98-.97-20.25,4.33-28.36,9.52-14.58,32.21-25.87,65.61-32.64,5.41-1.1,8.91-6.38,7.81-11.79-1.1-5.41-6.38-8.91-11.79-7.81-39.32,7.97-65.69,21.87-78.39,41.31-8.26,12.65-10.66,27.29-7.13,43.54.87,4.01,2.2,7.84,3.94,11.37,5.58,11.32,14.9,19.13,23.13,26.03,3.7,3.1,7.2,6.04,10.28,9.15,7.56,7.66,19.68,22.36,15.93,34.81-3.07,10.18-8.65,18.68-16.13,24.58-33.33,26.25-74.02,45.29-108.85,50.94-5.45.88-9.15,6.02-8.27,11.47.8,4.91,5.04,8.4,9.86,8.4.53,0,1.07-.04,1.61-.13,38.02-6.17,82.14-26.72,118.02-54.97,10.73-8.45,18.65-20.39,22.91-34.52Z"/>
      <path d="M248.13,180.79c-.59-32.31-23.13-52.47-43.01-70.25-2.17-1.94-4.33-3.87-6.45-5.81-5.87-5.36-12.06-11.23-17.49-17.74-2.13-2.56-4.41-5.55-5.12-8.34-2.09-8.27,5.25-20.44,20.69-34.27,12.98-11.63,27.76-20.21,42.74-24.82,5.28-1.62,8.24-7.22,6.62-12.5-1.62-5.28-7.22-8.25-12.5-6.62-17.72,5.45-35.08,15.49-50.2,29.04-21.87,19.59-30.86,37.78-26.73,54.08,1.69,6.66,5.57,11.94,9.14,16.23,6.2,7.43,12.97,13.86,19.37,19.71,2.18,1.99,4.39,3.97,6.61,5.95,18.47,16.52,35.92,32.13,36.35,55.71.44,24.14-11.37,49.29-29.4,62.6-4.44,3.28-5.39,9.54-2.11,13.98,1.96,2.66,4.99,4.06,8.05,4.06,2.06,0,4.14-.64,5.93-1.96,23-16.97,38.08-48.74,37.52-79.05Z"/>
      <path d="M131.46,240.96c-3.02,1.96-6.21,3.88-9.49,5.72-3.13,1.76-4.25,5.72-2.49,8.85,1.19,2.12,3.4,3.32,5.67,3.32,1.08,0,2.17-.27,3.17-.83,3.52-1.98,6.96-4.05,10.21-6.16,3.01-1.95,3.87-5.98,1.91-8.99-1.96-3.01-5.98-3.87-8.99-1.91Z"/>
      <path d="M134.14,47.4c-2.65-2.42-6.77-2.22-9.18.43-5.29,5.81-7.97,12.27-7.97,19.21,0,1.02.06,2.06.18,3.09.21,1.82.6,3.68,1.17,5.52.87,2.79,3.43,4.57,6.21,4.57.64,0,1.29-.1,1.93-.29,3.43-1.07,5.34-4.71,4.28-8.14-.33-1.06-.56-2.11-.67-3.12-.06-.55-.09-1.1-.09-1.63,0-3.65,1.5-7.08,4.58-10.46,2.42-2.65,2.22-6.77-.43-9.18Z"/>
      <path d="M145.75,112.96l1.96,2.11c1.28,1.38,3.02,2.08,4.77,2.08,1.58,0,3.16-.57,4.42-1.73,2.63-2.44,2.79-6.55.35-9.19l-1.97-2.12c-4.5-4.84-9.15-9.85-13.36-14.94-2.29-2.76-6.39-3.15-9.15-.86-2.76,2.29-3.15,6.39-.86,9.15,4.45,5.38,9.23,10.52,13.85,15.5Z"/>
      <path d="M183.21,164.76c-3.59,0-6.5,2.91-6.5,6.5v.11c0,6.98-1.15,13.95-3.41,20.73-1.13,3.41.71,7.09,4.11,8.22.68.23,1.37.33,2.06.33,2.72,0,5.26-1.72,6.17-4.45,2.7-8.11,4.07-16.47,4.07-24.84v-.11c0-3.59-2.91-6.5-6.5-6.5Z"/>
      <path d="M173.11,150.64c.96,2.64,3.45,4.29,6.11,4.29.74,0,1.48-.13,2.21-.39,3.38-1.22,5.12-4.95,3.9-8.33-2.08-5.74-4.89-11.21-8.36-16.26-1.26-1.84-2.64-3.74-4.09-5.63-2.18-2.85-6.26-3.39-9.11-1.2s-3.39,6.27-1.2,9.11c1.31,1.71,2.56,3.42,3.69,5.07,2.84,4.15,5.15,8.63,6.86,13.34Z"/>
      <path d="M172.63,209.52c-2.94-2.06-7-1.34-9.05,1.6-3.97,5.68-8.85,11.18-14.48,16.33-2.65,2.42-2.84,6.53-.42,9.18,1.28,1.4,3.04,2.12,4.8,2.12,1.57,0,3.14-.56,4.38-1.7,6.34-5.79,11.85-12.01,16.37-18.48,2.06-2.94,1.34-6.99-1.6-9.05Z"/>
      <path d="M162.07,40.12c3.26-1.5,4.68-5.36,3.18-8.62-1.5-3.26-5.37-4.68-8.62-3.18-.79.36-1.61.74-2.47,1.13-2.46,1.12-5.25,2.39-8.11,3.8-3.22,1.59-4.54,5.49-2.95,8.71,1.13,2.29,3.44,3.62,5.83,3.62.97,0,1.95-.22,2.87-.67,2.67-1.32,5.37-2.55,7.74-3.63.88-.4,1.72-.78,2.53-1.16Z"/>
    </g>
  </g>
</svg>