<?xml version="1.0" encoding="UTF-8"?>
<svg id="Calque_2" data-name="Calque 2" xmlns="http://www.w3.org/2000/svg" viewBox="0 0 245.84 346.09" fill="white" fill="var(--primary-color, black)">
  <g id="Calque_1-2" data-name="Calque 1">
    <g>
      <path d="M245.78,176.86c-.55-10.06-5.22-25.33-24.36-40.97-4.28-3.5-10.58-2.86-14.07,1.42-3.49,4.28-2.86,10.58,1.42,14.07,10.53,8.6,16.58,18.04,17.04,26.57.35,6.53-2.57,10.24-3.84,11.54l-47.01,47.78c-2.95,3-5.33,6.46-7.07,10.29l-31.47,69.27c-3.05,6.71-10.22,10.39-17.44,8.94l-45.37-9.04c-7.58-1.51-15.59-.49-22.56,2.88l-7.93,3.83c-5.48,2.65-12.07,1.88-16.8-1.95l-.45-.37c-5.43-4.41-7.31-11.72-4.68-18.2l16.49-40.51c.22-.55.48-1.1.77-1.62l12.33-22.54c7.06-12.9,5.41-29.11-4.11-40.32l-14.23-16.76c-2.01-2.37-3.27-5.25-3.64-8.34l-5.8-48.63c-.4-3.32.25-6.62,1.88-9.54l27-48.5c4.08-7.33,6.12-8.1,9.78-8.1,5.52,0,10-4.48,10-10s-4.48-10-10-10c-15,0-22.2,9.29-27.25,18.37L7.42,104.95c-3.69,6.62-5.16,14.11-4.26,21.64l5.8,48.63c.83,7,3.69,13.54,8.25,18.91l14.23,16.76c4.2,4.94,4.93,12.09,1.81,17.78l-12.33,22.54c-.65,1.19-1.24,2.43-1.75,3.69l-16.48,40.5c-5.98,14.69-1.72,31.28,10.61,41.27l.45.37c10.72,8.69,25.68,10.42,38.1,4.42l7.93-3.83c3.07-1.48,6.6-1.93,9.95-1.27l45.37,9.04c2.37.47,4.74.7,7.08.7,13.81,0,26.56-7.98,32.47-20.99l31.47-69.27c.77-1.69,1.82-3.22,3.12-4.54l47.01-47.78c6.63-6.74,10.11-16.45,9.55-26.65Z"/>
      <path d="M86.6,113.7l52.33,80.88c.1.22.19.45.31.67,1.75,3.22,5.12,5.22,8.78,5.22h.16c3.67,0,7.04-2.01,8.79-5.23.12-.21.2-.44.3-.66l52.33-80.88c.39-.61.72-1.25.96-1.91,7.12-11.55,10.88-24.79,10.88-38.44C221.45,32.9,188.55,0,148.11,0s-73.34,32.9-73.34,73.34c0,13.65,3.75,26.89,10.88,38.44.25.66.57,1.31.97,1.92ZM148.11,20c29.41,0,53.34,23.93,53.34,53.34,0,10.51-3.05,20.68-8.83,29.4-.41.62-.74,1.27-1,1.94l-43.51,67.25-43.51-67.25c-.26-.67-.59-1.33-1-1.94-5.78-8.73-8.83-18.89-8.83-29.4,0-29.41,23.93-53.34,53.34-53.34Z"/>
      <path d="M148.11,104.8c16.09,0,29.19-13.09,29.19-29.19s-13.09-29.19-29.19-29.19-29.19,13.09-29.19,29.19,13.09,29.19,29.19,29.19ZM148.11,66.43c5.07,0,9.19,4.12,9.19,9.19s-4.12,9.19-9.19,9.19-9.19-4.12-9.19-9.19,4.12-9.19,9.19-9.19Z"/>
    </g>
  </g>
</svg>