<?xml version="1.0" encoding="UTF-8"?>
<svg id="Calque_2" data-name="Calque 2" xmlns="http://www.w3.org/2000/svg" viewBox="0 0 243.64 357.25" fill="white" fill="var(--primary-color, black)">
  <g id="Calque_1-2" data-name="Calque 1">
    <g>
      <path d="M239.18,197.51c-3.42-2.28-7.9-2.22-11.27.13-3.83,2.68-8.1,5.02-12.69,6.96-9.25,3.92-18.96,5.79-26.64,5.13-5.91-.5-9.26-2.4-9.96-4.05-1.55-3.66,5.51-16.75,26.25-25.53,9.47-4.01,19.36-5.86,27.13-5.08,3.12.31,6.22-.86,8.35-3.17,2.13-2.31,3.05-5.49,2.49-8.58-3.27-17.94-9.52-38.7-17.6-58.46-1.27-3.11-4.02-5.37-7.32-6.03-3.3-.65-6.7.39-9.06,2.79-3.59,3.64-8.63,6.93-14.19,9.29-14.84,6.29-25.53,3.35-26.62.76-1.1-2.59,4.23-12.3,19.08-18.59,5.25-2.22,10.62-3.5,15.53-3.7,3.44-.14,6.57-2.04,8.28-5.03,1.71-2.99,1.76-6.65.13-9.69C196.1,46.79,164.72,0,122.73,0c-23.94,0-48.1,15.63-69.87,45.19-2.13,2.89-2.54,6.69-1.09,9.97,1.45,3.28,4.54,5.53,8.11,5.9,3.4.35,7.01,1.31,10.44,2.76,5.88,2.49,10.9,6.29,13.78,10.42,1.86,2.68,2.63,5.27,2,6.77-.63,1.5-3.03,2.75-6.25,3.28-4.97.81-11.19-.15-17.07-2.64-4.91-2.08-9.26-5.09-12.25-8.49-2.17-2.46-5.4-3.71-8.66-3.33-3.26.38-6.12,2.33-7.67,5.22-10,18.69-18.56,39.57-24.78,60.38-.91,3.05-.31,6.36,1.61,8.9,1.93,2.54,4.95,4,8.14,3.96,8.28-.15,17.96,1.96,27.29,5.92,21.6,9.15,32.2,24.01,29.74,29.82-1.13,2.66-5.72,4.65-11.99,5.18-8.71.75-19.69-1.36-30.12-5.78-6.48-2.74-12.54-6.29-17.53-10.26-2.89-2.3-6.82-2.82-10.21-1.35-3.39,1.48-5.69,4.7-5.98,8.39-.24,3.01-.36,5.89-.36,8.56,0,54.63,49.24,99.63,111.82,104.36v54.11c0,5.52,4.48,10,10,10s10-4.48,10-10v-53.98c55.24-3.47,101.42-38.27,111.59-85.31.87-4.02-.81-8.16-4.24-10.44ZM131.82,273.22v-80.95c0-5.52-4.48-10-10-10s-10,4.48-10,10v80.8c-47.32-4.14-85.15-34.89-91.03-73.73,1.79.88,3.62,1.72,5.49,2.51,13.53,5.73,27.59,8.32,39.62,7.29,19.3-1.65,26.27-11.55,28.71-17.31,7.97-18.83-9.38-42.92-40.36-56.04-7.31-3.09-14.7-5.27-21.88-6.45,3.97-11.56,8.66-23,13.88-33.85,2.72,1.74,5.64,3.27,8.72,4.58,9.4,3.98,19.37,5.39,28.09,3.96,10.24-1.67,18.06-7.22,21.45-15.22,3.39-8,1.93-17.47-4-25.99-5.01-7.2-12.89-13.35-22.21-17.33,11.91-13.34,27.42-25.49,44.42-25.49,20.68,0,43.54,18.8,63.81,52.07-2.42.73-4.84,1.6-7.22,2.61-23.53,9.96-36.29,29.22-29.69,44.81,6.6,15.58,29.31,19.82,52.84,9.86,3.15-1.33,6.16-2.87,8.99-4.58,3.75,10.39,6.89,20.79,9.24,30.59-7.67.88-15.75,3.05-23.64,6.39-28.41,12.03-44.26,34.28-36.87,51.75,2.28,5.39,8.78,14.66,26.68,16.18,8.64.74,18.44-.57,28.23-3.71-15.55,26.37-46.95,44.62-83.29,47.25Z"/>
      <path d="M89.77,113.39c-11.7-4.58-22.7-2.44-25.6,4.97-2.9,7.41,3.73,16.45,15.43,21.03,4.14,1.62,8.2,2.4,11.84,2.4,6.64,0,11.89-2.59,13.76-7.37,2.9-7.41-3.73-16.45-15.43-21.03ZM83.24,130.08c-7.23-2.83-9.89-7.13-9.77-8.04.31-.44,1.89-1.04,4.43-1.04,2.13,0,4.94.42,8.23,1.71,7.15,2.8,9.83,7.03,9.75,8.07-.65.82-5.5,2.11-12.64-.69Z"/>
      <path d="M159.39,170.25c10.46-6.04,15.32-15.85,11.3-22.81-2.13-3.69-6.4-5.76-11.71-5.7-4.35.05-9.22,1.5-13.69,4.08s-8.17,6.07-10.38,9.82c-2.71,4.57-3.04,9.31-.92,13,2.19,3.79,6.42,5.73,11.52,5.72,4.26,0,9.12-1.35,13.89-4.11ZM142.64,163.63c-.13-.23-.1-1.28.86-2.9,1.34-2.26,3.81-4.54,6.78-6.25s6.18-2.72,8.81-2.75c.04,0,.08,0,.12,0,1.8,0,2.69.48,2.82.71.51.88-1.39,5.54-7.64,9.15-6.26,3.61-11.24,2.92-11.75,2.04Z"/>
      <path d="M81.54,220.41c-11.34-6.55-23.16-5.84-27.48,1.65-4.32,7.49.97,18.08,12.31,24.63,5.2,3,10.49,4.48,15.12,4.48,5.48,0,10.02-2.07,12.37-6.13,4.32-7.49-.97-18.08-12.31-24.63ZM85.19,240.04c-.89,1.54-6.96,1.95-13.82-2.01-6.86-3.96-9.54-9.43-8.65-10.97.38-.65,1.69-1.1,3.59-1.1,2.59,0,6.28.83,10.23,3.11,6.86,3.96,9.54,9.43,8.65,10.97Z"/>
      <path d="M154.94,232.96c-9.84,3.85-15.29,12.64-12.41,20.01,1.5,3.83,5.05,6.59,9.75,7.59,1.3.28,2.67.41,4.07.41,2.9,0,5.95-.59,8.88-1.73,4.34-1.7,8.04-4.48,10.41-7.82,2.77-3.92,3.5-8.36,2.01-12.19-2.88-7.37-12.85-10.12-22.69-6.27ZM167.46,245.63c-1.23,1.74-3.38,3.3-5.89,4.29-2.51.98-5.15,1.29-7.23.85-1.3-.28-2.26-.83-2.5-1.45-.53-1.35,1.63-5.05,6.74-7.05s9.21-.75,9.74.6c.24.62-.09,1.68-.86,2.76Z"/>
      <path d="M139.46,93.78c4.06-.5,8.26-2.44,11.82-5.46,8.05-6.84,10.35-16.93,5.23-22.96-5.12-6.03-15.44-5.39-23.5,1.46-8.05,6.84-10.35,16.93-5.23,22.95,2.27,2.68,5.71,4.13,9.64,4.13.67,0,1.35-.04,2.04-.13ZM135.39,83.3h0c-.94-1.1-.1-5.3,4.08-8.86,2.76-2.34,5.56-3.21,7.42-3.21.96,0,1.67.23,1.98.61.94,1.1.1,5.3-4.08,8.86-2.05,1.75-4.45,2.9-6.56,3.16-1.32.17-2.41-.05-2.84-.55Z"/>
    </g>
  </g>
</svg>