<svg xmlns="http://www.w3.org/2000/svg" viewBox="0 0 334.54 359.05" fill="white">
  <g>
    <path d="M293.4,198.87v-63.36h31.14c3.64,0,6.99-1.98,8.75-5.16,1.76-3.19,1.65-7.08-.28-10.16l-42.34-67.42c-1.83-2.91-5.03-4.68-8.47-4.68h-43.75L173.04,1.84c-3.46-2.45-8.09-2.45-11.55,0l-65.41,46.26h-43.75c-3.44,0-6.64,1.77-8.47,4.68L1.53,120.2c-1.94,3.08-2.04,6.97-.28,10.16,1.76,3.18,5.11,5.16,8.75,5.16h31.14v63.36L1.53,261.95c-1.94,3.08-2.04,6.97-.28,10.16,1.76,3.18,5.11,5.16,8.75,5.16h31.14v71.79c0,5.52,4.48,10,10,10h232.26c5.52,0,10-4.48,10-10v-71.79h31.14c3.64,0,6.99-1.98,8.75-5.16,1.76-3.19,1.65-7.08-.28-10.16l-39.61-63.07ZM57.86,68.1h31.4v22.9c0,5.52,4.48,10,10,10s10-4.48,10-10v-27.72l58-41.02,58.01,41.02v27.72c0,5.52,4.48,10,10,10s10-4.48,10-10v-22.9h31.4l29.78,47.42H28.09l29.78-47.42ZM273.4,135.52v54.33h-16.92v-4.85c0-18.18-15.1-32.98-33.67-32.98s-33.67,14.79-33.67,32.98v4.85h-43.75v-4.85c0-18.18-15.1-32.98-33.67-32.98s-33.67,14.79-33.67,32.98v4.85h-16.92v-54.33h212.26ZM240.48,189.85h-35.34v-4.85c0-9.36,7.93-16.98,17.67-16.98s17.67,7.62,17.67,16.98v4.85ZM129.39,189.85h-35.33v-4.85c0-9.36,7.93-16.98,17.67-16.98s17.67,7.62,17.67,16.98v4.85ZM184.94,339.05h-35.34v-20.97c0-9.36,7.93-16.98,17.67-16.98s17.67,7.62,17.67,16.98v20.97ZM273.4,339.05h-72.46v-20.97c0-18.18-15.1-32.98-33.67-32.98s-33.67,14.79-33.67,32.98v20.97H61.14v-61.79h212.26v61.79ZM28.09,257.27l29.78-47.42h218.81l29.78,47.42H28.09Z"/>
    <path d="M167.27,44.4c-18.56,0-33.67,14.79-33.67,32.98v13.61c0,4.42,3.58,8,8,8h51.34c4.42,0,8-3.58,8-8v-13.61c0-18.18-15.1-32.98-33.67-32.98ZM184.94,82.99h-35.34v-5.61c0-9.36,7.93-16.98,17.67-16.98s17.67,7.62,17.67,16.98v5.61Z"/>
  </g>
</svg>
