<?xml version="1.0" encoding="UTF-8"?>
<svg id="Calque_2" data-name="Calque 2" xmlns="http://www.w3.org/2000/svg" viewBox="0 0 137.32 189.1" fill="var(--primary-color, black)">

  <g id="Header">
    <path class="cls-1" d="M118.04,20.91C105.15,7.62,87.15,0,68.63,0,43.64,0,20.12,13.99,8.16,35.93,1.39,48.33-1.23,62.71.53,76.72c2.15,17.11,11.41,31.12,20.62,45.18,10,15.24,20.07,30.43,30.23,45.57,3.05,4.54,6.1,9.07,9.16,13.6.44.65,2.58,3.37,4.55,6.09,1.92,2.65,5.91,2.56,7.72-.17l23.13-34.91c8.66-13.07,18.25-25.9,26.38-39.46,3.29-5.49,6.36-11.12,9.03-16.94.69-1.5,1.35-3.02,1.99-4.55,2.75-6.63,3.8-13.83,3.95-21.02.36-18.15-6.61-36.15-19.26-49.2ZM68.66,92.7c-13.02,0-23.58-10.56-23.58-23.58s10.56-23.58,23.58-23.58,23.58,10.56,23.58,23.58-10.56,23.58-23.58,23.58Z"/>
  </g>
</svg>