<?xml version="1.0" encoding="UTF-8"?>
<svg id="Calque_2" data-name="Calque 2" xmlns="http://www.w3.org/2000/svg" viewBox="0 0 1044.54 1018.14">
  <defs>
    <style>
      .cls-1 {
        fill: #567b34;
      }

      .cls-2 {
        fill: #dd9341;
      }

      .cls-3 {
        fill: #ffc69f;
      }

      .cls-4 {
        fill: #35541b;
      }

      .cls-5 {
        fill: #add67d;
      }
    </style>
  </defs>
  <g id="Illu">
    <path class="cls-2" d="M677,847.65c.03.12.06.24.09.36,2.86,10.71,19.14,17.19,29.02,13.9,13.87-4.61,14.78-21.64,17.79-33.96,8.16-33.32,16.05-67.61,30.16-99.67,14.34-32.56,44.03-72.71,81.94-75.82,34.13-2.81,59.51,12.15,86.6,31.91,17.27,12.6,36.45,20.74,27.9-9.18-5.67-19.82-26.36-30.32-43.35-38.51-14.74-7.11-30.16-11.1-46.93-12.26-12.55-.87-30.1,4.62-38.72-6.92-20.63-27.64,71.13-34.83,87.24-36.79,13.9-1.69,50.79-7.49,33.88-26.4-10.84-12.12-41.63-6.41-54.89-4.71-32.24,4.14-65.27,9.06-94,25.18-4.27,2.39-8.69,5.3-10.46,9.86-1.33,3.43-.93,7.25-.47,10.9,1.63,12.71,8.96,30.26,4.71,42.86-3.63,10.77-10.44,20.13-17.15,29.3-11.67,15.96-23.34,31.92-35.01,47.88-2.38,3.25-5,6.69-8.84,7.95-13.81,4.52-19.23-29.59-19.57-37.77-.91-21.65,3.94-43.36,9.11-64.22,12.26-49.48,29.8-99.9,22.9-151.6-.75-5.64-3.15-12.55-8.81-13.01-2.23-.18-4.4.79-6.3,1.99-20.95,13.21-15.23,44.24-16.64,65.1-1.58,23.37-6.44,45.31-13.76,67.53-14.53,44.13-26.1,81.91-8.69,127,11.6,30.05,20.98,63.8,8.48,95.12-3.93,9.85-18.83,22.79-16.23,34Z"/>
    <g>
      <path class="cls-1" d="M477.54,118.05c-18.24,4.43-31.87,16.1-49.24,22.52-20.69,7.65-40.83,8.85-62.43,11.11-18.52,1.94-33.95,6.6-47.81,19.16,15.58-14.13,24.34-32.38,34.56-50.31,23.18-40.64,53.19-74.19,82.91-109.97,1.18-1.42,7.03-7.34,6.92-8.35-.48-4.63-8.32-.76-10.47.23-27.27,12.52-50.02,36.84-71.69,57.01-17.29,16.1-31.49,35.14-44.44,54.81-9.88,15-25.88,32.75-32.1,49.55,18.66-50.42,31.35-102.79,44.45-154.98-13.25,15.43-25.63,36.93-35.24,54.84-12.92,24.09-19.05,49.51-27.4,75.21-8.25,25.37-21.38,75.94-21.38,75.93.19-24.23-.1-48.61-.8-72.95,0-.36-.02-.71-.02-1.04,0-.35-.02-.72-.04-1.1-.76-25.72-1.96-51.39-3.52-76.8-.19-3.13.62-10.62-3.39-10.53l-3.03,13.73s-17.87,64.61-19.84,91.83c-1.97,27.22-2.6,73.97-1.65,98.39.59,15.03,3.4,34.37-2.81,48.44-16.8-40.9-17.5-89.64-14.74-133.14.85-13.33,4.01-26.55,3.2-39.97-2.43-.44-4.34,2.15-5.12,4.15-.48,1.99-.95,3.97-1.42,5.96-18.63,79.52-25.96,158.16-13.76,239.66-6.61-22.36-19.74-60.85-21.1-63.08-.91-1.49-9.4-25.34-18.22-50.4-4.53-16.42-8.99-32.87-13.14-49.38-4.85-19.32-8.52-38.92-13.27-58.17-1.18.78-2.29,1.49-2.72,2.89-.88,2.85.34,11.81.58,15.38,2.71,40.8,6.06,83.45,10.43,124.09,1.15,10.71,2.67,20.87,4.48,30.71.72,12.73,1.82,25.57,3.5,35.48,5.09,29.91,28.27,114.84,28.27,114.84,0,0-10.67-34.24-10.67-34.24-9.66-23.72-18.04-48.04-28.82-71.25-9.65-20.77-21.16-40.57-32.04-60.7-10.23-18.93-16.53-40.71-28.4-58.47-.35-.52-2.52-3.73-3.13-3.23-1.35,7.99.58,16.73,2.09,24.68,9.4,49.43,18.39,99.09,33.17,147.27,7.06,23,16.26,44.75,25.54,66.82,8.86,21.06,13.71,43.72,20.88,65.37-8.45-11.01-11.3-24.86-19.07-36.24-9.19-13.45-19.25-26.29-29.1-39.26-11.69-15.38-23.29-30.95-32.87-47.76-9.77-17.14-15.61-35.96-25.31-53.09-2.22-6.15-4.53-12.13-7.19-16.83-.79-1.39-2.09-2.64-3-3.98-.54.27-.75.55-.94,1.11-2.38,7.06,7.44,48.77,9.72,58.56,4.81,20.61,11.43,44.55,19.44,68.25,2.47,8.66,5.24,17.31,8.41,26.05,11.38,31.33,26.54,62.16,42.25,91.64,6.31,11.85,12.96,23.61,19.77,35.16,3.54,6.01,9.88,12.41,9.46,19.43-9.73-5.42-16.67-18.57-22.67-27.43-10.6-15.66-21.74-30.94-31.69-46.96-8.02-15.31-15.8-30.75-23.43-46.26-4.2-9.42-8.46-18.82-13.45-27.85-3.39-6.15-9.87-24.08-16.97-35.07-.72-1.49-1.43-2.98-2.15-4.47-2.56-5.32-9.64-25.05-14.76-26.72-1.09-.36-.83.4-.97,1.14-1.3,7.02,4.49,31.62,6.07,40.07.48,2.54.96,5.1,1.44,7.67,4.7,24.88,9.96,50.65,18.45,74.33,18.59,51.83,46.79,90.81,80.81,133.79,10.91,13.78,24.11,27.59,34.29,41.6,6.17,8.49,10.39,20.08,15.16,29.51,1.33,2.63,4.67,7,5.51,9.21,1.95,5.2,2.63,18.92,3.83,25.4,1.45,7.82,4.64,25,9.47,31,4.3,5.33,8.6,1.03,9.42-4.16,1.62-10.22-4.88-29.88-7.07-40.7-2.94-14.49-5.14-29.32-5.68-43.99,5.33-25.47,14.24-60.66,24.78-73.12,23.01-27.17,53.28-43.85,80.65-65.75,32.67-26.14,62.28-58.37,81.82-95.56,1.12-2.14,6.56-13.37,4.99-14.84-5.95,1.44-9.44,7.59-13.8,11.57-25.51,23.3-56.92,41.76-86.75,60.85-10.6,5.07-21.82,10.56-32.48,16.04-25.41,13.04-39.83,29.64-46.5,39.02,23.62-37.08,47.4-66.96,83.36-92.68,20.34-14.55,41.62-27.98,60.24-44.77,19.67-17.72,35.98-39.6,53.24-59.62.18-2.99-8.55,1.98-9.36,2.43-8.97,4.95-17.83,11.48-26.72,16.7-27.94,16.4-57.99,31.02-85.38,48.71-46.56,27.07-71.28,57.82-71.28,57.82,0,0,4.62-21.38,21.24-38.9,2.1-1.91,4.28-3.8,6.53-5.68,24.79-19.03,89.96-51.46,105.54-69.17,0-.01.02-.02.03-.03,11.39-8.32,22.03-17.59,31.27-28.59,4.15-4.94,16.37-20.09,17.73-25.47.3-1.2.3-2.48.53-3.69-6.39,1.15-10.65,6.19-15.83,9.52-11.96,7.7-25.1,15.75-37.72,23.07-10.45,4.38-22.87,9.75-36.64,16-41.51,18.84-85.52,51.36-79.89,42,5.64-9.36,28.65-26.98,50.14-40.33,16.66-10.35,38.18-25.67,57.41-38.89,5.47-3.46,10.82-7.04,15.99-10.81,2.55-1.68,5.05-3.61,7.5-5.69,18.06-14.13,39.53-33.91,49.96-51.72,1.72-2.94,3.18-5.95,3.33-9.4-.31-.46-5.53,1.75-6.24,2.11-12.12,6.11-25.17,18.54-36.85,26.33-2.97,1.98-6,3.88-9.07,5.71-18,7.89-39.92,16.79-56.44,21.2-33.55,8.95-51.97,31.4-51.97,31.4,3.27-8.46,7.45-16.73,12.19-24.46,8.92-14.54,16.85-21.05,31.95-28.5,33.32-16.43,66.44-33.73,96.42-55.84,17.34-12.78,33.95-27.64,43.48-46.95-30.86,3.69-54.68,28.77-83.98,39.14-22.26,7.88-47.26,14.6-77.51,34.98,10.77-13.07,5.21-14.25,36.49-39.56,9.66-7.82,21.68-10.5,33.21-14.89,24.75-9.41,49.36-21.74,72.06-35.34,34.99-20.97,66.99-49.46,83.62-86.71-8.65,3.51-14.6,11.36-21.06,18.1-20.91,21.79-49.95,33.71-78.75,42.81-14.1,4.45-28.36,8.37-42.42,12.96-14.02,4.58-27.85,12.87-41.8,16.54,4.41-19.91,28.85-25.93,45.28-31.48,22.37-7.56,45.24-14.1,66.02-25.58,30.58-16.9,57.94-39.64,79.97-66.76-.98.19-1.94.4-2.89.63Z"/>
      <path class="cls-1" d="M129.62,409.88c.07.17.14.35.21.52.04-.24-.08-.55-.21-.52Z"/>
    </g>
    <g>
      <path class="cls-4" d="M925.22,587.32c-11.16,18.88-28.86,30.15-41.95,47.37-15.6,20.52-23.8,42.63-33.69,66.01-8.48,20.05-18.94,35.71-37.71,46.92,21.1-12.61,44.49-16.18,68.02-21.5,53.34-12.07,101.07-34.19,151.19-55.23,2-.84,10.6-5.36,11.69-4.89,5.01,2.12-1.99,9.56-3.82,11.63-23.29,26.23-58.23,43.37-88.16,60.73-23.89,13.85-50.01,23.23-76.42,31.02-20.14,5.94-45.43,17.78-66.33,19,62.73-3.68,125.6-.03,188.41,3.1-21.76,9.56-50.02,16.08-73.32,20.71-31.33,6.23-61.84,4.43-93.43,5.01-31.18.57-92.18-1.97-92.17-1.96,27.16,8.04,54.31,16.68,81.29,25.74.4.13.79.26,1.16.38.39.13.8.27,1.22.42,28.5,9.61,56.79,19.7,84.66,30.1,3.44,1.28,12.08,2.93,10.62,7.38l-16.39-1.29s-78.33-2.04-109.43-9.11c-31.1-7.07-83.59-22.29-110.56-31.68-16.6-5.78-37.26-15.52-55.11-13.36,40,32.71,94.26,50.1,143.83,61.84,15.19,3.59,31.05,4.57,45.78,10.04-.34,2.87-3.88,4.12-6.38,4.31-2.38-.14-4.77-.29-7.15-.45-95.25-6.26-185.66-24.86-272.63-66.27,22.74,15.01,61.31,42.8,63.34,45.08,1.35,1.52,25.12,19.14,50.14,37.54,16.82,10.66,33.68,21.25,50.73,31.51,19.94,12.01,40.61,22.79,60.51,34.66-1.27,1.05-2.45,2.05-4.16,2.05-3.49.01-13.09-4.41-17-5.89-44.69-16.93-91.23-35.2-135.18-53.94-11.58-4.94-22.42-10.09-32.81-15.48-13.99-5.14-27.97-10.74-38.48-16.01-31.71-15.88-118.77-70.73-118.77-70.73,0,0,34.64,23.59,34.64,23.59,23.22,18.88,47.57,36.53,69.84,56.49,19.93,17.86,38.15,37.48,56.95,56.5,17.68,17.89,39.88,32.35,55.7,51.68.46.57,3.32,4.08,2.54,4.6-9.39-1.22-18.51-6.35-26.87-10.75-52.05-27.35-104.52-54.32-153.34-87.25-23.31-15.73-44.5-33.42-66.01-51.32-20.53-17.08-44.21-30.22-65.98-45.62,9.43,13.19,23.95,21.1,34.02,33.67,11.91,14.86,22.83,30.47,33.97,45.91,13.22,18.31,26.67,36.58,42.2,53.02,15.83,16.76,34.89,29.71,50.73,46.38,6.12,4.58,12.02,9.2,16.37,13.77,1.29,1.36,2.23,3.24,3.42,4.71-.48.51-.87.65-1.55.67-8.71.25-51.99-24.93-62.16-30.82-21.41-12.41-45.91-27.95-69.69-44.98-8.84-5.71-17.57-11.75-26.26-18.28-31.15-23.4-60.45-50.85-88.06-78.45-11.1-11.09-21.98-22.53-32.57-34.08-5.51-6.01-10.5-15.27-18.5-17.19,2.74,12.72,15.08,24.97,22.94,34.69,13.89,17.19,27.18,34.84,41.7,51.43,14.38,14.18,29,28.14,43.74,41.96,9.11,7.9,18.15,15.87,26.56,24.52,5.72,5.89,23.56,19.24,33.43,30.92,1.42,1.31,2.85,2.62,4.27,3.92,5.08,4.67,24.72,19.32,24.85,25.6.03,1.34-.73.79-1.6.69-8.29-.94-33.82-15.8-42.73-20.44-2.68-1.4-5.37-2.8-8.08-4.22-26.22-13.73-53.23-28.39-76.81-45.95-51.62-38.45-85.59-83.25-122.04-135.93-11.69-16.89-22.63-36.35-34.83-52.52-7.39-9.8-18.91-18.46-27.82-27.01-2.48-2.38-6.23-7.61-8.43-9.3-5.15-3.95-20.25-9.39-27.09-12.94-8.25-4.28-26.37-13.7-31.43-21.15-4.5-6.62,1.78-9.96,7.86-9.11,11.97,1.67,31.75,15.63,43.09,21.77,15.2,8.22,31.03,15.74,47.24,21.34,30.29,2.72,72.67,4.75,90.19-2.8,38.21-16.47,67.18-44.63,100.98-67.77,40.36-27.62,86.47-49.75,134.71-58.92,2.78-.53,17.19-2.78,18.29-.53-3.63,6.16-11.71,7.97-17.64,11.49-34.74,20.58-66.08,49.41-97.59,76.26-9.28,10.12-19.24,20.79-28.99,30.85-23.23,23.96-46.71,34.43-59.47,38.7,49.5-13.77,91.01-30.19,132.02-61.62,23.19-17.78,45.47-36.99,70.57-52.1,26.51-15.95,56.53-26.73,84.79-39.21,3.4.82-5.13,8.88-5.91,9.64-8.59,8.34-18.91,16.02-27.77,24.18-27.86,25.65-54.44,54.27-83.54,78.86-46.13,42.84-88.92,59.99-88.92,59.99,0,0,25.48,2.12,50.73-10.49,2.85-1.7,5.7-3.49,8.57-5.36,29.73-21.23,88.18-83.04,113.29-94.42.02,0,.03-.01.05-.02,13.19-9.9,27.17-18.64,42.62-25.22,6.94-2.96,28.04-11.46,34.52-11.14,1.44.07,2.87.51,4.3.66-3.47,6.75-10.55,9.8-16.04,14.45-12.68,10.75-26.15,22.7-38.65,34.32-8.46,10.19-18.69,22.25-30.37,35.52-35.2,39.99-86.56,78.12-74.17,75.01,12.38-3.11,39.93-22.84,62.17-42.32,17.24-15.1,41.71-33.93,63.04-50.93,5.73-4.94,11.56-9.7,17.53-14.2,2.75-2.28,5.76-4.42,8.92-6.44,21.95-15.38,51.38-32.64,74.84-38.24,3.87-.92,7.73-1.53,11.65-.52.41.51-3.84,5.59-4.48,6.26-10.97,11.47-29.3,21.82-41.99,32.23-3.23,2.65-6.38,5.39-9.47,8.19-14.96,17.43-32.37,38.91-42.93,55.88-21.44,34.46-52.81,47.41-52.81,47.41,10.58-.78,21.25-2.63,31.5-5.3,19.29-5.02,29.27-11.66,42.74-26.01,29.72-31.66,60.35-62.79,95.28-88.78,20.2-15.03,42.47-28.54,67.31-32.62-14.64,33.24-50.8,51.33-72.37,80.55-16.39,22.2-32.43,47.86-65.51,74.73,18.28-7.59,17.71-.96,56.66-27.31,12.03-8.14,19.13-20.66,27.96-32.05,18.95-24.47,41.12-47.78,64.06-68.52,35.36-31.98,78.12-58.05,125.44-63.95-6.87,8.48-17.67,12.45-27.41,17.38-31.49,15.95-54.71,44.36-74.7,73.46-9.78,14.24-19.02,28.86-28.94,43.01-9.9,14.12-23.87,26.76-32.74,41.1,23.77,1.85,38.82-23.42,50.63-39.9,16.07-22.44,31.18-45.78,51.09-65.1,29.31-28.43,64.05-51.27,101.88-66.67-.55,1.03-1.11,2.04-1.69,3.02Z"/>
      <path class="cls-4" d="M480.42,876.86c-.17-.14-.34-.28-.51-.42.28.04.59.28.51.42Z"/>
    </g>
    <path class="cls-5" d="M648.55,852.76c.08-4.18-12.22-10.1-15.02-13.08-9.32-9.95-17.34-23.52-21.2-36.43-3.99-13.34-9.02-73.77,22.14-57.28,10.1,5.34,14.77,18.18,18.29,28.14,3.27,9.26,5.16,18.93,7.88,28.34,2.83,9.78,5.21,29.82,12.35,36.74,20.98,20.33,78.22-13.85,88.08-33.07,7.09-13.81,5.34-18.15-7.75-22.57-21.84-7.37-38.42-18.68-52.35-37.84-8.74-12.02-27.75-49.28,1.74-40.47,32.85,9.82,54.36,78.98,95.93,59.11,23.41-11.19,51.38-58.36,44.4-84.05-1.62-5.98,1.79-3.78-3.85-6.94-6.8-3.81-24.4,4.69-31.61,5.49-15.42,1.7-30.44-4.48-40.9-16.41-21.63-24.66,4.57-29.72,24.89-23.87,14.62,4.21,34.12,15.7,49.71,9.95,35.4-13.04,32.79-96.29,12.44-119.37-10.06,12.66-15.78,26.42-30.46,36.59-15.9,11.01-45.73,28.49-65.77,26.76-22.03-1.9-10.72-25.39-1.31-36.23,12.11-13.95,38.48-25.98,56.39-32.49-2.61-6.29-12.73-11.06-19.02-14.13-19.67-9.61-42.87-19.21-65.06-14.41-19.32,4.17-30.1,23.13-36.19,40.34-7.04,19.91-8.38,54.29-32.01,61.57-23.42,7.21-25.32-24.69-24.5-41.47,1.04-21.49,4.09-33.76,27.63-48.23,5.98-3.68,21.7-10.24,24.37-18.72,0,0-8.95-4.98-15.49-6.39-16.15-3.48-35.43-1.91-50.75,2.67-16.58,4.95-37.4,14.84-51.43,24.72-33.51,23.59-5.19,75.95,4.87,103.72,4.41,12.17,14.8,37.36,7.15,49.73-10.81,17.47-29.92,4.36-39.32-6.41-15.25-17.48-21.88-39.09-21.21-62.12.25-8.53,12.62-41.8,1.69-44.83-11-3.05-27.63,23.87-32.11,30.93-7.74,12.2-15.42,26.81-20.26,40.49-9.63,27.22-15.08,54.89,1.48,80.54,21.49,33.28,56.01,27.94,89.81,23.55-29.17,29.11-56.73,63.7-89.67,88.93,2.68,10.84-2.34,38.5,7.07,35.62,11.91-3.65,34.21-37.18,38.11-46.56,5.88-14.14,11.65-27.2,20.63-39.56,7.83-10.77,47.28-48.52,38.43-11.94-7.86,32.52-27.74,53.14.64,83.65,13.33,14.33,32.28,24.13,51.69,23.77,3.87-.07,19.3.13,19.43-6.47ZM665.7,713.68c-6.24-2.35-9.18-14.59-9.28-20.6-.07-4.23,2.17-9.15,7.17-6.67,2.09,1.04,4.14,2.48,5.96,4.18,2.29,2.14,4.22,4.7,5.42,7.39,2.78,6.24.16,19.23-9.26,15.69ZM732.86,643.78c5.06.46,10.78,3.28,15.22,7.23,2.18,1.94,4.26,4.33,5.69,6.88,1.13,2.01,1.81,4.36,1.43,6.64-.31,1.89-1.31,3.61-2.56,5.06-8.64,10.07-19.44-1.51-24.04-9.82-3.46-6.25-6.56-16.96,4.25-15.99ZM592.26,713.94c-9.75,1.38-14.04,6.8-20.09,9.22,5.76-5.58,11.51-11.16,17.27-16.74-25.48,1.51-51.25-2.05-75.36-10.42-6.88-2.39-13.9-5.36-18.61-10.91-5.57-6.57-7.01-15.94-5.42-24.41,1.59-8.47,5.87-16.19,10.7-23.33-2.19,7.92-4.4,16.28-2.4,24.26,5.07,20.24,30.43,26.67,48.06,29.9,23.88,4.38,66.95,7.69,82.96-15.19,1.54-2.2,2.7-4.83,2.45-7.5-.68-7.17-12.23-13.73-16.82-18.78-6.22-6.84-11.51-14.52-15.71-22.75-8.26-16.17-12.27-34.49-11.12-52.64.69-10.77,3.53-22.18,11.62-29.33.26,6.57-1.9,12.04-2.51,18.5-.98,10.75,1.27,21.88,5.1,31.86,6.59,17.16,15.1,35.26,26.8,49.6,11.67,14.31,22.39,16.61,36.1,5.99,6.54-5.06,13.63-9.41,21.1-12.94,6.24-2.95,13.6-4.73,16.55-11.75,1.97-4.68.4-14.39-.07-19.45-1.24-13.47,1.88-26.68,8.34-38.49,7.44-13.59,25.29-34.41,42.43-34.64-6.87.09-17.93,17.51-21.22,22.39-6.82,10.13-12.6,23.28-12.66,35.65-.04,7.91,3.45,18.14,11.15,21.67,3.27,1.5,6.9,1.98,10.49,2.24,12.83.94,26.88-2.86,39.43-.36-16.66,7.29-37.23,9.96-54.9,14.58-4.81,1.26-9.75,2.57-13.77,5.52-16.38,12.01.1,32.85,10.04,43.1,8.18,8.44,18.23,14.7,29.18,18.89,11.21,4.29,23.68,4.1,34.61,7.96-15.11,3.65-28.08,4.58-37.65,1.84-13.62-3.9-20.58-9.48-30.57-19.54-8.07-8.14-14.9-24.98-25.38-30.31-10.87-5.53-28.64,7.51-38.01,14.61-12.01,9.1-15.42,18.63-10.95,34.35,10.38,36.55,30.12,72.59,63.08,91.5-6.6,4.5-15.6.16-21.67-5.04-9.01-7.71-16.23-17.3-22.5-27.36-10.51-16.89-18.51-35.35-23.65-54.57-1.12-4.2-5.74-17.54-10.08-17.4-1.43.05-2.75.73-4.01,1.39-7.39,3.89-14.93,7.88-20.71,13.91-7.39,7.7-8.9,26.32-10.47,36.88-1.57,10.56-.95,21.31-.33,31.97-6.75-21.69-11-43.63-.81-63.92ZM672.95,615.97c.47-5.49,2.72-13.81,6.85-17.69.97-.91,2.18-1.65,3.51-1.67,6.37-.11,7.66,9.49,6.64,13.9-.24,1.05-.58,2.08-.98,3.08-1.14,2.83-2.82,5.46-4.56,7.99-.86,1.25-1.77,2.52-3.04,3.35-5.93,3.84-8.79-4.66-8.42-8.95ZM653.76,634.97c-2.71,1.05-7.13,1.16-9.74-.26-4.68-2.55-8.98-8.66-9.82-13.95-.64-4.04,1.25-9.07,5.9-9.33,4.29-.24,8.72,3.58,11.16,6.73,1.29,1.66,3.55,5.36,4.63,8.91,1.04,3.42.97,6.7-2.12,7.89ZM610.42,723.5c.12-8.59,9.4-17.39,16.06-8.39,2.04,2.76,3.54,6.38,3.83,9.84.4,4.68-1.4,9.07-7.02,10.6-8.42,2.3-12.98-4.19-12.87-12.04Z"/>
    <path class="cls-5" d="M420.02,628.04c.07.11.15.21.22.32,7.04,10.94-5.04,27.93-10.69,35.49-1.09,1.46-11.44,13.97-11.55,13.69.16.38.3.76.43,1.16,6.84-3.58,14.88-3.42,21.88-1.1,4.64,1.54,17.43,7.83,17.1,15.56-.36,8.52-16.4,11.37-21.25,11.79-9.71.84-19.59-1.45-28.77-4.97-.47.27-.93.54-1.38.81,13.74,11.5,15.48,30.41-5.62,37.22-14.54,4.69-23.87-5.85-33.79-15.92-.04.02-.08.04-.12.06,13.5,15.96,17.95,38.6-8.35,40.57-9.11.68-21.47-5.41-32.11-13.16,11.51,13.06,17.94,27.5-5.52,34.47-11.1,3.3-31.12-12.98-42.13-22.04,5.02,5.68,15.76,27.7,5.97,34.64-1.92,1.37-4.23,1.56-6.42,1.46-7.71-.34-14.77-4.04-20.81-9.73-2.94-2.78-5.61-5.97-7.97-9.49-.94-1.4-1.97-3.98-3.06-6.42,1.43,8.67-8.01,20.99-14.54,20.89-7.57-.11-16.37-7.14-18.58-16.29-.28-1.18-.45-2.41-.85-3.54-2.91-8.12-7.66-3.41-13.23-1.29-5.7,2.17-11.47,4.07-17.3,5.58-15.27,3.94-29.53,12.23-44.83,16.3-11.97,3.18-24.46,4.21-36.31.91-.21-3.31-.41-6.62-.62-9.93-.06-.9-.1-1.88.32-2.63.58-1.04,1.76-1.18,2.77-1.17,6.51.11,12.85,2.39,19.34,2.91,7.03.57,14.1-.94,20.97-3.04,12.55-3.83,24.8-9.08,37-14.4,6.11-2.66,12.21-5.36,18.35-7.91,1.86-.77,12.66-2.86,13.32-5.48,3.7-14.77,6.69-30.99,15.64-42.56,2.13-2.75,4.61-5.19,7.49-6.5,8.06-3.68,24.7,5.08,20.06,18.14,5.85-16.49,12.15-39.92,24.91-44.28,15.61-5.34,20.99,3.37,21.07,16.08,5.81-16.62,14.04-31.57,27.81-37.43,22.54-9.58,20.29,11.25,12.95,31.94,11.64-25.44,27.16-55.24,45.29-57.15,11.87-1.25,9.1,18.49,10.19,25.7-.75-5.06,10.48-15.91,12.98-18.98,5.98-7.34,12.17-13.27,20.91-13.79,3.21-.19,6.75.57,8.84,3.5ZM206.1,776.93c7.16,5.65,8.8-5.88,3.81-9.97l-.39-1.44c-2.32-3.15-9.17,6.87-3.42,11.41ZM234.23,763.96c.29.47.9,1.04,1.46,1.45l-.55-.08c1.38,2.84,11.96,14.45,14.37,7.36,2.8-8.25-12.75-8.46-15.28-8.72ZM371.97,712.78c1.34-10.98-14.94-14.21-20.03-8.61-1.56,1.72,18.27,22.94,20.03,8.61ZM279.06,756.22l-2.11-1.02c3.91,6.03,15.1,10.9,20.93,6.74-1.55-4.83-6.9-7.84-10.97-8.66-2.46-.49-9.31-.21-7.85,2.93ZM212.41,739.83c-.27.44-.58,1.16.03.65-.02-.19-.03-.41-.03-.65.03-.04.05-.09.08-.12l1.09.17c2.99-1.92,16.37-13.89,8.29-18.68-7.22-4.28-9.63,12.91-9.46,18.63ZM315.63,733.52c2.86,4.62,25.14,17.54,25.04,5.39-.1-11.42-19.47-8.04-23.47-4.46l-1.56-.93ZM258.04,718.19c2.64-1.91,4.79-5.34,6.98-8.11,1.04-1.31,2.1-2.67,2.64-4.38,2.46-7.82-6.9-7.89-9.79-3.61-1.55,2.3-1.5,17.3.17,16.1ZM305.67,682.16c-7.44.2-12.1,14.04-6.73,20.38.25.29.54.58.88.58.42,0,.77-.39,1.06-.76,2.48-3.14,15.5-20.49,4.78-20.21ZM396.58,692.79l-.08.68c.02-.22.06-.44.11-.65,3.64,4.45,14.43,3.07,18.87.14-1.79-5.28-17.26-7.04-18.87-.14,0-.01-.02-.02-.03-.03ZM348.31,681.71c3.59.13,14.72-11.23,9.1-15.72-4.28-3.42-10.69,3.25-12.07,8.19-.83,2.97.24,6.93,2.71,7.5.08.02.17.03.26.03ZM385.64,670.82c4.17-2.22,18.89-13.04,15.76-20.22-3.45-7.92-17.84,12.97-15.76,20.22Z"/>
    <path class="cls-3" d="M642.58,660.28c4.64-11.12,6.03-24.1,6.22-36.32.54-34.08-5.16-68.25-16.75-100.31-1.97-5.45-4.38-11.19-9.24-14.35-7.93-5.16-18.54-1.25-26.56,3.77-31.76,19.88-53.28,55.72-88.77,67.71-12.85,4.34-26.64,5.04-40,2.98-13.69-2.11-26.88-6.94-39.16-13.26-7.61-3.92-14.8-8.52-21.99-13.15-1.26-.81-2.55-1.65-3.45-2.85-.07-.1-.15-.22-.12-.34.03-.15.2-.22.35-.26,1.51-.46,3.02-.54,4.56-.74,1.83-.24,3.68-.4,5.53-.49,3.73-.18,7.47-.1,11.19.13,7.28.43,14.51,1.38,21.78,1.91,9.07.66,18.26.84,27.21-1.01,27.07-5.6,46.68-28.14,67.32-46.52,21.98-19.58,48.48-37.45,57.4-65.5,7.59-23.86.49-49.78-8.48-73.16-9.29-24.22-21.25-48.52-41.55-64.67-20.3-16.15-50.81-21.92-72.32-7.42-26.33,17.75-28.36,54.86-29.81,86.58-.71,15.64-1.99,31.26-4.12,46.78-2.13,15.56-5.12,31.02-9.29,46.17-4.13,14.99-9.42,29.68-16.18,43.69-2.46,5.1-5.11,10.11-7.96,15-1.45,2.49-2.95,4.94-4.5,7.37-1.23,1.92-2.34,4.01-3.99,5.61-1.2,1.17-4.37,3.57-5.65,1.71-.95-1.38-1.5-3.01-1.86-4.64-.72-3.34-.63-6.82-.4-10.21.39-5.67,1.9-11.22,3.78-16.56,3.81-10.85,9.49-20.87,13.78-31.51.05-.13.11-.27.16-.4,7.86-19.77,11.22-39.07,12.34-60.36,1.3-24.76-5.61-46-.57-70.7,4.73-23.19,17.91-41.5,26.67-62.97,6.65-16.3,19.36-51.81,5.31-66.39-23.92-24.83-53.99,22.62-65.74,37.02-16.8,20.59-32.38,41.82-35.66,69.05-3.44,28.52,5.65,55.73,2.76,84.24-3.07,30.24-18.15,61.96-7.07,91.59,5.39,14.42,12.68,25.41,25.51,34.7,3.43,2.49,7.36,4.17,11.31,5.66.95.36,1.91.71,2.87,1.06.84.3,2.44.55,3.11,1.13.24.21.41.35.33.66-3.11.45-7.05-.63-10.08-1.36-3.29-.79-6.51-1.89-9.6-3.25-6.27-2.75-12.04-6.57-17.19-11.08-10.1-8.83-17.93-20.27-22.9-32.71-10.08-25.23-10.07-53.19-9.7-80.36.37-27.16.84-55.05-8.45-80.58-8.1-22.27-32.72-29.49-53.59-21.37-10.66,4.15-19.89,11.23-28.66,18.57-29.52,24.72-60.53,59.53-55.44,101.02,1.32,10.8,10.96,18.85,21.11,22.78,10.14,3.93,21.2,4.87,31.59,8.07,20.63,6.36,38.19,22.03,46.83,41.82,7.86,18,9.13,39.75,23,53.66,12.05,12.09,31.07,14.87,47.77,11.35,16.37-3.45,30.8-12.12,45.08-20.45.39-.23.79-.45,1.19-.68-.38,7.34-3.92,14.91-7.68,21.08-3.98,6.53-8.99,12.39-14.51,17.67-.11.1-.21.2-.32.31-4.4,4.18-9.14,8-14.09,11.53-17.44,12.45-37.07,21.92-52.97,36.29-34.92,31.54-46.3,80.81-69.16,121.94-4.28,7.71-7.9,19.58,0,23.47,8.37,4.12,15.54-7.4,17.76-16.47,10.15-41.48,19.38-86.42,50.59-115.55,18.09-16.88,41.68-26.44,62.17-40.31,7.11-4.81,13.78-10.34,19.27-16.98,4.15-5.02,7.56-10.63,10.31-16.52,2.6-5.57,5.17-11.73,5.96-17.87.31-2.41.53-4.83,1-7.21-.11.62,2.69,2.49,3.13,2.85,1.97,1.58,3.85,3.24,5.69,4.97,4.67,4.4,8.67,9.32,12.98,14.04,4.37,4.8,8.89,9.46,13.35,14.18,11.67,11.97,23.88,23.42,36.77,34.08,12.78,10.57,26.23,20.36,40.38,29.03,14.11,8.64,28.91,16.16,44.32,22.19,1.7.67,3.41,1.32,5.13,1.95,22.39,8.22,49.88,12.42,68.12-2.95,5.67-4.78,9.69-10.84,12.5-17.59ZM411,273.81c3.34-6.47,22.23-31.97,23.89-12.11,1.16,13.85-11.24,30.23-17.29,42.02-6.66,12.98-12.26,27.75-15.27,41.55l-.49-.52c-2.88-23.38-1.99-49.33,9.15-70.95ZM376.01,453.98c2.71-13.55,3.34-26.25,2.73-40.08-.52-11.75-4.44-22.49-5.85-34.08-1.11-9.16-.43-27.3,7.8-33.65,11.09-8.56,11.39,14.91,12.23,21.6,1.84,14.55,1.47,29.71,2.67,44.45.98,12.07.92,24.64-2.22,36.34-2.95,10.97-7.54,21.51-11.35,32.2-3.52,9.88-4.65,23.29-8.57,32.52-6.21-19.99-1.45-39.33,2.54-59.3ZM267.02,457.51c-1.78-8.77-15.54-20.67-23.47-23.8-8.11-3.2-31.92.78-37.28-6.26-9.36-12.29,17.83-16.89,24.12-16.16,26.78,3.1,32.52,26.92,37.54,49.27l-.92-3.04ZM314.38,524.94c-12.68-21.68-19.8-43.18-24.95-67.56-4.75-22.51-21.92-60.82-5.27-82.15,13.2,2.45,13.55,29.11,14.49,38.71,2.77,28.31,5.12,60.62,14.23,87.56,3.52,10.4,9.77,20.71,15.32,30.05,4.84,8.14,10.21,10.45,16.13,17.07-10.53-.29-24.42-14.21-29.95-23.68ZM541.75,372.78c4.22,1.72,2.04,13.1,1.56,16.48-1.76,12.29-7.06,25.36-10.07,37.54-6.48,26.21-11.65,53.27-34.23,71.21-15.78,12.55-35.09,20.58-53.56,28.35,18.34-9.99,38.55-27.9,46.83-47.64,7.06-16.82,6.79-34.67,11.24-52,4.4-17.11,14.94-31.59,26.41-44.67,2.07-2.36,7.69-10.96,11.81-9.28ZM432.54,520.98c18.3-8.37,24.58-38.47,28.71-55.96,8.23-34.82,5.5-71.08,16.55-105.59,2.58-8.07,12.78-32.57,24.27-31.43,9.29.92-3.14,32.42-6.04,39.91-5.37,13.87-12.88,27.3-15.17,42.17-2.52,16.38-2.55,33.2-5.77,49.42-2.67,13.49-8.79,25.2-16.84,36-4.06,5.44-18.38,25.87-25.7,25.49ZM547.68,606.6c-13.7,1.82-27.89,4.47-41.78,2.4-8.73-1.3-16.51-4.68-24.53-7.52-2.78-.63-5.56-1.46-8.33-2.49l2.5.57c1.97.58,3.91,1.24,5.84,1.92,18.66,4.26,37.18-.36,53.36-11.9,12.07-8.62,22.62-19.25,34.78-27.73,8.99-6.27,20.24-16.47,31.16-18.6,10.14-1.98,19.86,4.65,19.23,15.49-.6,10.38-8.98,19.17-16.32,25.45-7.94,6.79-14.49,13.3-24.37,17.3-10.33,4.18-20.61,3.67-31.52,5.11ZM604.2,656.1c-10.41-3.33-20.36-7.44-30.41-11.78-10.59-4.58-20.79-9.42-30.26-15.19,12.98,2.25,26.59,3.3,40,4.3,12.28.92,34.38,1.59,40.77,15.19,5.88,12.53-13.18,9.7-20.1,7.48Z"/>
    <path class="cls-2" d="M516.92,419.84c1.46-.72,2.88-1.48,4.26-2.27,14.12-8.11,31.24-29.29,41.64-4.36,13.51,32.4-25.5,31.95-46.94,34.39-25.29,2.87-54.73,8.62-75.61,24.26-15.78,11.82-41.64,59.69-2,43.04,17.44-7.32,26.26-26.79,46.99-27.12,14.95-.24,28.52,12.13,22.87,29.12-6.42,19.29-16.97,5.4-29.58,3.34-18.56-3.04-35.81,12.96-52.7,18.18-31.96,9.89-59.72,12.16-87.49,33.27-23.2,17.64-37.77,44.08-53.29,68.13-15.86,24.58-32.17,54.97-59,68.57-39.43,19.98-65.89-3.88-92.96-31.61-12.24-12.55-24.45-23.66-40.53-31.14-13.24-6.16-26.57-8.42-21.54-28.14,5.79-22.68,18.58-18.75,28.23-3.79,9.58,14.86,19.87,19.5,34.94,28.96,15.5,9.73,24.92,22.63,36.92,36.28,15.29,17.4,22.95,20.24,42.95,7.02,19.93-13.17,35.15-39.71,45.83-61.26,17.44-35.22-12.1-55.32-26.83-83.85-13.37-25.88-12.76-84.22,31.77-72.28,8.67,2.32,30.55,17.72,26.52,28.32-6.1,16.03-26.6-14.13-39.97-4.56-14.18,10.15.63,32.43,6.84,43.03,10.25,17.49,22.56,27.74,43.89,22.92,18.5-4.18,44.2-16.76,59.36-27.25,16.74-11.57,30.8-31.22,43.86-46.02,16.32-18.49,17.98-28.78,40.72-37.93,12.35-4.97,24.8-9.68,37.24-14.45,10.82-4.15,23.03-7.59,33.6-12.83Z"/>
  </g>
</svg>