<?xml version="1.0" encoding="UTF-8"?>
<svg id="Calque_2" data-name="Calque 2" xmlns="http://www.w3.org/2000/svg" xmlns:xlink="http://www.w3.org/1999/xlink" viewBox="0 0 565.78 695.36">
  <defs>
    <style>
      .cls-1, .cls-2 {
        fill: none;
      }

      .cls-3 {
        fill: #e08044;
      }

      .cls-4 {
        fill: #ffc69f;
      }

      .cls-5 {
        clip-path: url(#clippath-1);
      }

      .cls-2 {
        stroke: #fff;
        stroke-linecap: round;
        stroke-linejoin: round;
        stroke-width: 20px;
      }

      .cls-6 {
        fill: #c26b47;
      }

      .cls-7 {
        clip-path: url(#clippath);
      }
    </style>
    <clipPath id="clippath">
      <path class="cls-1" d="M404.01,246.71c-.83-18.33-41.65-93.3-50.81-104.37-9.16-11.07-68.31-86.39-77.47-91.39-9.16-5-62.48-31.65-62.48-31.65l-6.74-3.37s-3.26.04-11.59,0c-8.33-.04-22.18-5.93-22.18-5.93-3.2,1.72-14.92,6.87-28.5,11.82-.55.2-1.1.4-1.66.6-12.92,4.64-27.26,8.97-37.49,9.97-8.25,1.23-11.43-.05-21.08-.06-8.92,1.63-13.56,6.17-13.56,6.17t0,0c-2.07,3.1-4.66,5.36-7.51,6.49h-9.86c-.33.49-.72,1.03-1.12,1.57l-8.85,12.27h0s-2.22,4.08-2.22,4.08l-6.96,12.79s-.04.1-.06.15c-.04.43-.73,8.09-2.64,12.07l-3.25,14.87s0,.02,0,.03l2.22-2.47.59-1.16c.34-.19.66-.39.99-.58l10.67-11.83s0,0,0,0h0c2.4-5.22,10.16,7.66,12.57,18.19.76,2.31,1.11,4.64.78,6.82-.06.37-.17.7-.26,1.04-.02.13-.04.26-.07.38-.03.13-.08.25-.12.38-.02.05-.03.11-.05.17-.15.41-.35.8-.54,1.18-1.86,3.64-5.68,6.01-9.59,8.48-4.59,3.37-9.32,7.17-11.14,12.28-.63,2.52-.71,4.96-.5,7.33.49,2.51.87,4.76,1.18,6.8,1.3,5.84,2.69,11.39-.55,16.94-1.57,2.7-4.06,4.05-6.84,4.82-2.87,1.69-6.64,1.26-9.95,1.4-2.45.34-4.57.89-5.9,2.21-.62.74-1.11,1.7-1.4,3.02,0,0,0,0,0,0,0,.03-.01.06-.02.1-.03.3-.05.61-.05.94,0,9.71,12.03,18.75,18.13,28.32.01.02.03.04.04.05,3.14,4.18,3.88,8.07,3.93,12.86.15,3.35-.12,6.65-.28,9.71-.17,6.21.88,9.48,2.42,12.11.68,1.02,1.56,2.3,2.61,3.78.16.23.32.45.49.69.03.04.06.08.09.13.1.14.21.3.35.49,4.08,5.51,26.19,31.88,31.12,36.85.16.17.31.31.44.43.07.06.13.12.2.19.18.17.35.33.52.5,2.26,2.13,4.5,4.08,6.66,5.78,3.31,2.35,7.42,4.39,12.02,4.45,5.01-.31,9.63-3.14,14.05-6.43,3.06-2.97,6.11-5.23,9.11-6.91,2.88-1.97,5.72-3.47,8.59-3.84,1.85-.24,3.86-.36,5.92-.38,2.26-.1,4.44.04,6.53.35,6.14.7,12.31,2.5,17.03,5.82.02,0,.04.02.06.03,5.86,2.72,8.37,8.62,8.31,15.47.18,5.03-1.37,9.66-3.17,14.05-1.1,2.8-1.93,4.94-2.57,6.76-.17.47-.32.93-.46,1.37-1.32,4.07-1.72,7-2.48,14.07-.03.24-.06.51-.08.75-.04.37-.08.74-.12,1.13-1.26,11.42-3.45,29.61,1.31,40.45.07.14.14.29.2.44.13.27.26.53.39.79.23.47.46.93.72,1.39,3.98,7.18,10.74,13.56,16.6,18.5,2.08,1.7,4.35,3.54,6.87,5.62,0,0,0,0,0,0,2.45,2,4.22,3.96,5.73,6.31,3.86,5.59,5.82,12,7.94,18.13,5.36,13.81,8.76,16.25,12.27,19.18h0c4.56,2.72,7.54-.17,12.78-.99,0,0,0,0,0,0,4.43-1.17,4.23-1.88,10.56,2.52.24.16.46.32.72.5.43.3.87.63,1.31.98.01.01.03.02.04.03,7.37,5.87,13.85,15.82,13.85,15.82,0,0,7.22,0,15.49,1.8.01,0,.03,0,.04,0,9.35,1.45,8.92-.1,16.17,6.7.01.01.03.03.04.04.87.68,1.69,1.43,2.49,2.22,3.96,3.32,3.64,2.19,10.28,14.64.48.9,1,1.87,1.55,2.92,0,.02.02.03.03.05,9.65,18.17,11.7,20.49,16.21,24.07h0s0,0,0,0c2.88,1.63,5.64,2.14,7.79,2.19,2.42-.03,4.28-.49,4.28-.49,0,0,1.49-2.15,3.43-4.94,1-2.02,2.31-3.87,3.81-5.5.03-.03.06-.07.09-.1,1.23-1.76,2.39-3.43,3.28-4.7,3.37-4.8,11.14-19.75,11.14-19.75h0s17.62-10.16,17.62-10.16h1.3l19.95-10.16h0s9.07-16.08,9.07-16.08h0s1.81-5.93,7.53-10.24c5.72-4.31,20.82-64.97,24.16-77.47,3.33-12.5-11.66-97.46-12.5-115.79Z"/>
    </clipPath>
    <clipPath id="clippath-1">
      <path class="cls-2" d="M404.01,246.71c-.83-18.33-41.65-93.3-50.81-104.37-9.16-11.07-68.31-86.39-77.47-91.39-9.16-5-62.48-31.65-62.48-31.65l-6.74-3.37s-3.26.04-11.59,0c-8.33-.04-22.18-5.93-22.18-5.93-3.2,1.72-14.92,6.87-28.5,11.82-.55.2-1.1.4-1.66.6-12.92,4.64-27.26,8.97-37.49,9.97-8.25,1.23-11.43-.05-21.08-.06-8.92,1.63-13.56,6.17-13.56,6.17t0,0c-2.07,3.1-4.66,5.36-7.51,6.49h-9.86c-.33.49-.72,1.03-1.12,1.57l-8.85,12.27h0s-2.22,4.08-2.22,4.08l-6.96,12.79s-.04.1-.06.15c-.04.43-.73,8.09-2.64,12.07l-3.25,14.87s0,.02,0,.03l2.22-2.47.59-1.16c.34-.19.66-.39.99-.58l10.67-11.83s0,0,0,0h0c2.4-5.22,10.16,7.66,12.57,18.19.76,2.31,1.11,4.64.78,6.82-.06.37-.17.7-.26,1.04-.02.13-.04.26-.07.38-.03.13-.08.25-.12.38-.02.05-.03.11-.05.17-.15.41-.35.8-.54,1.18-1.86,3.64-5.68,6.01-9.59,8.48-4.59,3.37-9.32,7.17-11.14,12.28-.63,2.52-.71,4.96-.5,7.33.49,2.51.87,4.76,1.18,6.8,1.3,5.84,2.69,11.39-.55,16.94-1.57,2.7-4.06,4.05-6.84,4.82-2.87,1.69-6.64,1.26-9.95,1.4-2.45.34-4.57.89-5.9,2.21-.62.74-1.11,1.7-1.4,3.02,0,0,0,0,0,0,0,.03-.01.06-.02.1-.03.3-.05.61-.05.94,0,9.71,12.03,18.75,18.13,28.32.01.02.03.04.04.05,3.14,4.18,3.88,8.07,3.93,12.86.15,3.35-.12,6.65-.28,9.71-.17,6.21.88,9.48,2.42,12.11.68,1.02,1.56,2.3,2.61,3.78.16.23.32.45.49.69.03.04.06.08.09.13.1.14.21.3.35.49,4.08,5.51,26.19,31.88,31.12,36.85.16.17.31.31.44.43.07.06.13.12.2.19.18.17.35.33.52.5,2.26,2.13,4.5,4.08,6.66,5.78,3.31,2.35,7.42,4.39,12.02,4.45,5.01-.31,9.63-3.14,14.05-6.43,3.06-2.97,6.11-5.23,9.11-6.91,2.88-1.97,5.72-3.47,8.59-3.84,1.85-.24,3.86-.36,5.92-.38,2.26-.1,4.44.04,6.53.35,6.14.7,12.31,2.5,17.03,5.82.02,0,.04.02.06.03,5.86,2.72,8.37,8.62,8.31,15.47.18,5.03-1.37,9.66-3.17,14.05-1.1,2.8-1.93,4.94-2.57,6.76-.17.47-.32.93-.46,1.37-1.32,4.07-1.72,7-2.48,14.07-.03.24-.06.51-.08.75-.04.37-.08.74-.12,1.13-1.26,11.42-3.45,29.61,1.31,40.45.07.14.14.29.2.44.13.27.26.53.39.79.23.47.46.93.72,1.39,3.98,7.18,10.74,13.56,16.6,18.5,2.08,1.7,4.35,3.54,6.87,5.62,0,0,0,0,0,0,2.45,2,4.22,3.96,5.73,6.31,3.86,5.59,5.82,12,7.94,18.13,5.36,13.81,8.76,16.25,12.27,19.18h0c4.56,2.72,7.54-.17,12.78-.99,0,0,0,0,0,0,4.43-1.17,4.23-1.88,10.56,2.52.24.16.46.32.72.5.43.3.87.63,1.31.98.01.01.03.02.04.03,7.37,5.87,13.85,15.82,13.85,15.82,0,0,7.22,0,15.49,1.8.01,0,.03,0,.04,0,9.35,1.45,8.92-.1,16.17,6.7.01.01.03.03.04.04.87.68,1.69,1.43,2.49,2.22,3.96,3.32,3.64,2.19,10.28,14.64.48.9,1,1.87,1.55,2.92,0,.02.02.03.03.05,9.65,18.17,11.7,20.49,16.21,24.07h0s0,0,0,0c2.88,1.63,5.64,2.14,7.79,2.19,2.42-.03,4.28-.49,4.28-.49,0,0,1.49-2.15,3.43-4.94,1-2.02,2.31-3.87,3.81-5.5.03-.03.06-.07.09-.1,1.23-1.76,2.39-3.43,3.28-4.7,3.37-4.8,11.14-19.75,11.14-19.75h0s17.62-10.16,17.62-10.16h1.3l19.95-10.16h0s9.07-16.08,9.07-16.08h0s1.81-5.93,7.53-10.24c5.72-4.31,20.82-64.97,24.16-77.47,3.33-12.5-11.66-97.46-12.5-115.79Z"/>
    </clipPath>
  </defs>
  <g id="Header">
    <g id="EP5">
      <path class="cls-3" d="M404.01,246.71c-.83-18.33-41.65-93.3-50.81-104.37-9.16-11.07-68.31-86.39-77.47-91.39-9.16-5-62.48-31.65-62.48-31.65l-6.74-3.37s-3.26.04-11.59,0c-8.33-.04-22.18-5.93-22.18-5.93-3.2,1.72-14.92,6.87-28.5,11.82-.55.2-1.1.4-1.66.6-12.92,4.64-27.26,8.97-37.49,9.97-8.25,1.23-11.43-.05-21.08-.06-8.92,1.63-13.56,6.17-13.56,6.17t0,0c-2.07,3.1-4.66,5.36-7.51,6.49h-9.86c-.33.49-.72,1.03-1.12,1.57l-8.85,12.27h0s-2.22,4.08-2.22,4.08l-6.96,12.79s-.04.1-.06.15c-.04.43-.73,8.09-2.64,12.07l-3.25,14.87s0,.02,0,.03l2.22-2.47.59-1.16c.34-.19.66-.39.99-.58l10.67-11.83s0,0,0,0h0c2.4-5.22,10.16,7.66,12.57,18.19.76,2.31,1.11,4.64.78,6.82-.06.37-.17.7-.26,1.04-.02.13-.04.26-.07.38-.03.13-.08.25-.12.38-.02.05-.03.11-.05.17-.15.41-.35.8-.54,1.18-1.86,3.64-5.68,6.01-9.59,8.48-4.59,3.37-9.32,7.17-11.14,12.28-.63,2.52-.71,4.96-.5,7.33.49,2.51.87,4.76,1.18,6.8,1.3,5.84,2.69,11.39-.55,16.94-1.57,2.7-4.06,4.05-6.84,4.82-2.87,1.69-6.64,1.26-9.95,1.4-2.45.34-4.57.89-5.9,2.21-.62.74-1.11,1.7-1.4,3.02,0,0,0,0,0,0,0,.03-.01.06-.02.1-.03.3-.05.61-.05.94,0,9.71,12.03,18.75,18.13,28.32.01.02.03.04.04.05,3.14,4.18,3.88,8.07,3.93,12.86.15,3.35-.12,6.65-.28,9.71-.17,6.21.88,9.48,2.42,12.11.68,1.02,1.56,2.3,2.61,3.78.16.23.32.45.49.69.03.04.06.08.09.13.1.14.21.3.35.49,4.08,5.51,26.19,31.88,31.12,36.85.16.17.31.31.44.43.07.06.13.12.2.19.18.17.35.33.52.5,2.26,2.13,4.5,4.08,6.66,5.78,3.31,2.35,7.42,4.39,12.02,4.45,5.01-.31,9.63-3.14,14.05-6.43,3.06-2.97,6.11-5.23,9.11-6.91,2.88-1.97,5.72-3.47,8.59-3.84,1.85-.24,3.86-.36,5.92-.38,2.26-.1,4.44.04,6.53.35,6.14.7,12.31,2.5,17.03,5.82.02,0,.04.02.06.03,5.86,2.72,8.37,8.62,8.31,15.47.18,5.03-1.37,9.66-3.17,14.05-1.1,2.8-1.93,4.94-2.57,6.76-.17.47-.32.93-.46,1.37-1.32,4.07-1.72,7-2.48,14.07-.03.24-.06.51-.08.75-.04.37-.08.74-.12,1.13-1.26,11.42-3.45,29.61,1.31,40.45.07.14.14.29.2.44.13.27.26.53.39.79.23.47.46.93.72,1.39,3.98,7.18,10.74,13.56,16.6,18.5,2.08,1.7,4.35,3.54,6.87,5.62,0,0,0,0,0,0,2.45,2,4.22,3.96,5.73,6.31,3.86,5.59,5.82,12,7.94,18.13,5.36,13.81,8.76,16.25,12.27,19.18h0c4.56,2.72,7.54-.17,12.78-.99,0,0,0,0,0,0,4.43-1.17,4.23-1.88,10.56,2.52.24.16.46.32.72.5.43.3.87.63,1.31.98.01.01.03.02.04.03,7.37,5.87,13.85,15.82,13.85,15.82,0,0,7.22,0,15.49,1.8.01,0,.03,0,.04,0,9.35,1.45,8.92-.1,16.17,6.7.01.01.03.03.04.04.87.68,1.69,1.43,2.49,2.22,3.96,3.32,3.64,2.19,10.28,14.64.48.9,1,1.87,1.55,2.92,0,.02.02.03.03.05,9.65,18.17,11.7,20.49,16.21,24.07h0s0,0,0,0c2.88,1.63,5.64,2.14,7.79,2.19,2.42-.03,4.28-.49,4.28-.49,0,0,1.49-2.15,3.43-4.94,1-2.02,2.31-3.87,3.81-5.5.03-.03.06-.07.09-.1,1.23-1.76,2.39-3.43,3.28-4.7,3.37-4.8,11.14-19.75,11.14-19.75h0s17.62-10.16,17.62-10.16h1.3l19.95-10.16h0s9.07-16.08,9.07-16.08h0s1.81-5.93,7.53-10.24c5.72-4.31,20.82-64.97,24.16-77.47,3.33-12.5-11.66-97.46-12.5-115.79Z"/>
      <g class="cls-7">
        <g>
          <path class="cls-6" d="M57.57,351.23c-6.78-4-17.95,1.03-17.55,9.38.45,8.03,9.83,10.51,16.41,12.55,2.74.78,5.87,1.41,8.69,1.96,4.14.9,8.89-.37,7.73-5.55-.82-3.77-4.12-6.77-6.56-9.75-2.54-3.24-5.03-6.59-8.72-8.58h0ZM57.57,351.23c5.43,3.12,9,8.36,13.84,12.26,9.99,9.66,2.33,18.64-10.07,15.88-8.37-1.45-18-4.14-22.67-12.04-2.26-4.16-1.45-9.5,1.55-13,4.42-4.43,11.78-6.27,17.35-3.09h0Z"/>
          <path class="cls-6" d="M340.68,115.2c-1.44,3.25-3.49,11.37.61,13.19,4.89,1.93,10.45-2.25,12.53-6.52.98-2.79.95-6.41-1.07-8.74-3.5-3.93-9.79-2.78-12.07,2.07h0ZM340.68,115.2c3.04-6.89,13.15-7.52,16.77-.71,5.09,9.01-3.82,19.48-13.45,17.9-2.88-.52-6.13-2.76-6.21-5.92.04-3.98,1.36-7.71,2.88-11.28h0Z"/>
          <path class="cls-6" d="M335.86,421.72c-6.61,4.91-4.51,10.53.37,15.77,2.79,3.39,8.27,8.74,10.9,2.38,1.15-2.47,1.14-5.51,1.42-8.29.24-3.07.48-6.24.3-9.21-.14-2.75-2.03-5.82-5.16-5.55-3.15.28-5.27,3.31-7.84,4.9h0ZM335.86,421.72c2.73-1.73,4.43-4.79,7.73-5.59,3.63-.91,6.85,2.41,7.76,5.74,1.71,7.7,4.28,19.76-3.69,24.76-5.96,3.46-11.53-3.34-13.53-7.72-3.64-6.34-5.14-12.33,1.72-17.18h0Z"/>
          <path class="cls-6" d="M17.01,34.99c-.43,6.56,3.74,11.63,10.33,11.54,5.19-.28,8.33-6.29,8.21-10.87-.26-4.56-3.53-10.83-8.3-11.84-2.57-.44-5.62.68-7.69,2.75-2.21,2.09-2.57,5.43-2.55,8.41h0ZM17.01,34.99c-.36-4.71,1.14-9.68,5.53-12.11,4.72-3.25,10.58-1.2,14.02,2.92,6.57,6.75,4.84,18.91-4.09,22.68-4.88,2.12-10.62-.75-13.39-4.64-1.96-2.61-2.05-5.86-2.07-8.85h0Z"/>
          <path class="cls-6" d="M255.77,237.38c-6.67-1.45-15.91.84-17.74,8.17-1.65,8.08,10.4,14.51,17.22,13.13,5.1-1.9,14.63-9.29,12.41-15.51-2.2-4.11-7.77-4.67-11.89-5.79h0ZM255.77,237.38c4.4,1.18,9.9,1.27,12.85,5.26,3.34,6.49-2.96,14.03-7.68,18.1-8.92,8.28-26.75-1.13-26.09-12.87,1.04-9.75,12.89-12.33,20.91-10.49h0Z"/>
          <path class="cls-6" d="M324.14,410.94c-2.78,3.05-4.51,6.88-5.64,10.8-2.08,7.63-3.37,16.63,1.75,23.29,4.74,6.84,12.73,9.8,19.76,13.61,8.7,5.26,20.23,16.29,30.06,8.37,5.22-4.95,5.18-13.82,2.77-20.39,0,0-4.52-11.35-4.52-11.35-4.5-10.91-9.84-23.26-21.44-28.07-7.45-2.96-17.05-2.5-22.75,3.74h0ZM324.14,410.94c8.91-9.52,25.06-6.45,33.55,2.18,7.52,7.22,12.11,17.01,16.57,26.26.77,1.72,1.93,3.85,2.66,5.64,8.75,21.93-8.65,38.84-29.03,24.06-4.39-3.06-7.9-6.45-12.27-9.1-6.38-3.52-12.78-7.74-16.63-14.11-4.81-7.32-3.04-16.39-.67-24.18,1.2-3.92,3-7.74,5.82-10.75h0Z"/>
          <path class="cls-6" d="M314.48,402.94c-10.25,8.77-19.1,21.45-18.53,35.41.83,14.16,12.94,24.04,24.46,30.53,5.95,3.41,12.19,6.43,18.16,10.19,12.48,7.19,27.2,26.46,42.12,24.44,17.01-4.55,10.59-51.1,6.68-64.15-3.36-13.12-7.82-26.55-17.06-36.73-14.94-16.51-39.99-13.18-55.83.32h0ZM314.48,402.94c15.89-13.74,41.22-17.35,56.98-1.44,9.99,10.04,15.23,23.65,19.28,36.93,5.52,16,13.29,64.48-8.97,69.93-18,2.68-31.86-17.62-45.12-26.4-11.23-7.8-24.76-13.42-33.62-24.4-15.89-18.09-4.84-41.27,11.44-54.62h0Z"/>
          <path class="cls-6" d="M220.65,241.28c2.45,12.12,8.98,24.93,20.56,30.35.98.36,2.27.9,3.23,1.26,8.62,3.05,28.81,16.68,36.38,9.02,4.83-6.68,2.41-16.86.38-24.67-1.39-5.53-3.15-11.49-3.56-17.41-.43-5.33-.67-11.22-3.38-15.86-3.44-5.68-10.17-7.73-16.49-9.3-19.07-4.36-40.18,3.84-37.12,26.61h0ZM220.65,241.28c-3.38-22.91,17.95-32.06,37.57-29.12,10.13,1.32,20.06,5.67,22.48,16.61,1.24,4.56,1.45,9.33,2.18,13.92,1.83,10.81,7.08,21.76,5.17,33.16-4.73,25.2-31.46,4.85-44.21-1.57,0,0-3.17-1.46-3.17-1.46-11.35-6.23-17.66-19.24-20.01-31.53h0Z"/>
          <path class="cls-6" d="M198.46,232.39c-9.75,18.05-1.43,31.3,13.8,42.22,6.82,4.73,14.73,7.74,21.52,12.58,10.34,6.69,19.82,15.2,30.9,20.41,11.17,4.98,23.94-.51,30.54-10.23,13.25-17.95,6.13-38.75,7.53-59.25.58-16.2,12.75-46.44-3.28-57.15-13.67-7.6-33.06-1.59-47.17,2.81-23.75,7.8-43.24,26.07-53.82,48.6h0ZM198.46,232.39c10.51-22.67,29.78-41.24,53.28-50.11,14.81-5.26,34.5-12.07,49.51-4.3,21.63,13.22,3.45,51.6,6.45,72.66.59,12.25,2.19,25.95-2.72,37.91-5.95,16.88-23.68,30.09-41.5,21.8-11.32-5.81-20.35-14.67-30.61-21.86-6.63-5.06-14.29-8.4-21.02-13.31-6.7-4.9-12.69-11.15-16.01-18.84-3.57-7.85-1.2-16.67,2.63-23.95h0Z"/>
          <path class="cls-6" d="M316.69,125.72c2.17,15.89,22.98,22.12,35.95,15.69,3.4-1.54,6.04-3.88,8.62-6.6,5.09-5.22,9.42-11.22,11.18-18.32.93-3.51,1.01-7.11,1.03-10.75-.02-5.16.06-10.88-2.41-15.28-3.08-3.96-8.4-3.67-13.04-1.6-10.5,4.53-17.18,14.37-26.05,21.45-5.33,4.7-15.74,6.75-15.3,15.42h0ZM316.69,125.72c-.62-8.58,9.86-11.01,14.84-15.97,8.49-7.69,14.4-18.54,24.96-24.12,5.62-3.32,14.05-3.6,18.36,2.08,3.67,5.43,3.55,12.01,3.7,18.07-.08,3.98-.29,8.08-1.39,11.97-2.2,7.85-7.47,14.41-13.46,19.62-2.83,2.56-6.31,5.09-10.09,6.37-14.25,5.26-34.61-1.79-36.92-18.02h0Z"/>
          <path class="cls-6" d="M315.07,107.53c-7.05,5.53-13.26,13.53-10.29,22.96,1.51,5.73,5.05,10.91,9.86,14.34,2.38,1.66,5.1,3.08,7.68,4.53,7.68,3.86,15.84,8.64,24.61,7.37,8.56-1.7,14.93-8.28,20.53-14.75,11.38-13.37,19.5-29.6,23.39-46.69,6.62-33.46-8.98-42.32-37.39-25.2-15.79,9.09-24.43,26.13-38.38,37.44h0ZM315.07,107.53c9.26-7.79,16.17-17.65,23.99-26.77,9.52-10.69,24.23-21.12,38.92-22.21,3.19-.1,6.6.51,9.53,2.3,11.08,7.53,10.16,23.82,8.12,35.42-4.79,22.73-18.94,48.17-39.22,60.39-11.94,7.2-24.39.48-34.89-5.93-9.43-5.06-17.45-13.37-17.73-24.63-.27-7.89,5.52-13.97,11.28-18.56h0Z"/>
          <path class="cls-6" d="M319.59,79.63c16.84-19.63,37.64-39.19,64.64-41.63,13.6-1.32,27.33,1.74,34.47,14.52,2.31,3.79,3.91,7.95,5.24,12.14,2.69,8.38,4.35,17.49,2.11,26.21-2.06,8.7-7.04,16.28-11.87,23.62-9.73,14.72-22.05,27.57-35.26,39.19-12.85,11.57-28.46,20.69-38.44,34.88-14.67,22.32-9.9,50.5-14.87,75.73-3.94,17.43-8.34,34.72-17.76,50.17-4.78,7.64-11.36,14.71-19.91,18.71-8.5,3.84-18.67,5.21-27.47,1.57-8.54-3.49-15.34-9.6-22.03-15.57-6.43-5.98-13-11.32-20.29-16.15-14.39-9.96-30.84-18.07-41.78-32.37-20.72-27.03-13.96-63.15,12.9-83.11,17.5-13.36,39.23-19.77,56.66-33.15,13.48-11.17,23.09-26.32,36.27-37.89,7.95-7.53,16.31-14.62,23.96-22.46,2.98-3.24,10.4-11.13,13.43-14.42h0ZM319.59,79.63c-3.1,3.32-10.42,11.29-13.38,14.47-7.62,7.86-15.96,14.99-23.88,22.55-13.18,11.67-22.48,26.93-35.95,38.3-17.35,13.66-38.75,20.48-55.99,34.06-17.18,13.22-27.03,35.17-22.16,56.7,6.14,28.51,30.1,39.16,52.35,53.69,7.38,4.77,14.5,10.41,20.96,16.31,13.75,12.27,25.78,21.45,44.27,12.97,22.35-11.23,29.57-42.73,35.01-65.31,6.83-39.25-1.91-68.62,35.48-95.79,21-15.63,41.3-32.49,56.17-54.23,4.87-7.12,9.88-14.43,12.04-22.85,2.31-8.43.85-17.24-1.64-25.5-1.24-4.16-2.74-8.28-4.93-12.02-11.46-20.79-40.73-16.31-58.68-7.25-15.85,7.83-28.06,20.9-39.67,33.91h0Z"/>
          <path class="cls-6" d="M440.53-12.38c-1.21,6.89-4.92,12.96-7.33,19.41-8.35,22.07,5.18,39.28,11.32,59.49,11,40.27-21.98,83.25-49.79,109.29-15.13,13.98-31.57,27.37-38.1,47.47-2.31,6.42-4.03,13.08-5.56,19.8-3,13.47-6.06,26.94-7.46,40.66-2.49,26.24-2.3,56.7,16.73,77.01,9.44,9.63,21.8,16.2,32.74,25.21,10.99,9,19.19,21.04,25.54,33.64,12.86,25.22,15.12,55.66,6.53,82.69-3.41,10.16-9.43,20.16-18.31,26.5-6.06,4.22-13.54,6.24-20.84,6.67-17.95.53-35.37-5.83-50.65-14.87-24.09-15.06-41.17-38.94-53.44-64.13-3-6.33-5.74-12.79-8.17-19.37-4.89-13.46-6.26-27.49-9.26-40.81-2.97-13.08-7.76-26.24-16.49-36.55-13.33-15.49-33.5-23.67-50.85-34.31-24.84-14.3-42.99-37.25-51.74-64.53-4.18-13.48-6.26-28.06-2.61-41.97,3.24-10.18,7.6-20.11,14.98-27.96,7.45-7.45,16.39-12.76,23.63-20.41,19.41-19.38,37.01-41.44,47.97-66.76,14.33-35.57,19.48-87.52-7.25-118.42,23.68,26.6,22.97,66.38,15.34,99.23-4.66,20.46-14.71,39.34-26.94,56.23-10.3,14.06-21.74,27.32-34.78,38.95-5.25,4.48-11.01,8.37-15.72,13.33-6.86,7.38-11.03,17.18-13.97,26.69-4.79,19.95,1.64,40.97,11.06,58.67,13.55,26.2,34.97,40.12,60.3,53.41,12.25,6.81,24.69,14.08,34,24.92,9.3,10.93,14.4,24.68,17.57,38.45,3.1,13.69,4.53,27.51,9.2,40.2,2.4,6.42,5.09,12.73,8.04,18.91,11.93,24.3,28.47,47.45,51.75,61.93,16.71,9.6,38.12,17.77,57.39,12.52,3.04-.84,6.07-2.36,8.67-4.09,1.07-.62,2.69-2.22,3.73-3.01,0,0,1.7-1.78,1.7-1.78,14.35-15.79,16.58-38.87,15.78-59.37-1.52-23.57-12.13-46.54-27.66-64.23-11.83-12.73-27.76-19.7-40.36-32.51-10.11-10.36-15.26-24.47-17.37-38.49-4.16-27.99,1.28-55.93,7.78-83.05,3.26-13.57,7.2-27.51,15.7-38.91,8.45-11.39,19.32-20.33,29.48-29.65,10.22-9.25,19.56-19.46,27.77-30.52,15.83-21.59,29.95-49,22.66-76.32-3.57-13.32-11.39-25.54-13.06-39.42-.57-6.94.04-14.09,2.68-20.56,2.55-6.45,6.35-12.41,7.68-19.27h0Z"/>
          <path class="cls-6" d="M255.15-1.87c5.85-.55,10.01,22.42,10.68,27.34.43,3.34.15,6.95-.06,10.31-1.25,13.62-4.84,26.76-8.16,39.78-1.52,6.26-3.02,12.9-2.64,19.25,1.48,16.56,20.67-.79,26.22-6.5,14.59-14.08,24.9-32.24,41.01-44.91,8.24-6.33,17.55-10.95,27.2-14.59,19.98-7.64,48.4-14.83,56.16-37.15,2.05-6.31,1.81-13.21.46-19.79,4.43,13.72.82,27.88-10,37.53-15.24,13.96-36.02,18.77-54.16,27.4-5.93,2.89-11.58,6.33-16.7,10.4-15.37,12.33-25.88,30.87-40.48,44.63-4.94,4.75-10,9.51-16.64,12.73-5.35,2.73-13.69,2.87-16.26-3.76-3.08-8.69-.02-18.07,2.02-26.25,3.67-12.91,7.7-25.74,9.52-39.03.38-3.23.84-6.59.62-9.86-.36-4.69-3.29-27.87-8.78-27.52h0Z"/>
          <path class="cls-6" d="M279.16-7.87c1.89,3.45,1.7,7.63,1.45,11.44-.47,5.77-1.67,11.39-2.02,17.1.06,6,.89,15.72,7.24,17.88,10.56,1.86,25.2-9.97,33.45-16.35,6.05-4.69,12.22-9.61,19.28-13.35,10.41-5.47,21.49-8.08,30.82-14.91,7.09-5.62,20.27-17.35,16.36-27.33,6.81,12.03-14.02,31.91-24.22,36.47-6.92,3.72-14.2,6.34-20.68,10.01-13.33,7.41-23.94,19.39-38.05,26.08-6.98,3.49-18.27,7.3-23.75-.8-4.41-7.44-4.07-15.77-2.32-23.73,1.31-7.4,4.74-15.04,2.44-22.5h0Z"/>
          <path class="cls-6" d="M301.68-6.37c-6.33,2.45-3.76,15.01.35,18.46,8.78,8.15,22.03-10.33,22.91-18.46,2.74,11.23-9.74,29.8-22.49,24.69-2.99-1.41-5.06-3.88-6.45-6.75-2.33-5.6-2.23-17.41,5.67-17.95h0Z"/>
          <path class="cls-6" d="M467.55-5.62c-11.38-10.29-16.92,17.43-14.49,24.63,1.36,5.93,4.29,11.35,7.17,16.79,5.98,10.91,10.45,23,10.98,35.58.3,18.73-3.02,37.61-10.48,54.89-9.92,23.16-28.11,41.33-45.86,58.5-12.9,12.9-26.85,25.22-35.6,41.31-8.3,15.15-11.17,35.37.17,49.65,9.9,11.97,27.26,14.57,36.99,27.08,0,0,3.01,3.73,3.01,3.73l2.66,4c14.13,22.09,8.33,49.11,6.89,73.6-.93,12.2,1.87,24.19,5.67,35.71,1.95,5.78,4.25,11.47,7.03,16.89,5.35,10.99,14.42,19.75,24.4,26.64,10.04,6.65,22.18,12.15,34.48,9.85-18.46,3.91-36.97-8.08-49.81-20.34-9.12-8.69-14.58-20.4-18.8-32.09-2.11-5.87-3.84-11.87-5.05-18.02-2.76-12.27-1.11-24.97-.36-37.32,1.31-17.83,1.71-36.96-8.38-52.45,0,0-2.49-3.68-2.49-3.68l-2.84-3.44c-9.89-12.03-27.39-14.64-37.27-27.04-17.08-21.61-6.4-52.23,10.04-70.75,23.68-28.07,56.1-49.21,71.56-83.42,7.51-16.51,11.13-35.02,11.18-53.18-.33-12.21-4.34-23.96-9.83-34.83-2.71-5.51-5.56-11.18-6.78-17.37-2.37-8.16,4.55-35.73,15.8-24.91h0Z"/>
          <path class="cls-6" d="M354.18,295.02c-2.46,13.15,3.06,26.37,9.45,37.61,6.7,11.46,17.28,19.72,26.46,29.02,3,2.87,6.19,5.84,9.8,7.62,1.69.81,3.33,1.15,4.33.62,5.92-3.95,5.89-21.63,3.96-28.1-3.19-12.62-12.06-22.91-21.74-31.31-4.75-3.37-29.3-26.51-32.28-15.45h0ZM354.18,295.02c2.28-8.86,18.31,4,22.39,6.61,21.05,13.81,42.12,31.67,36.91,59.68-.92,7.34-4.89,16.33-13.92,13.11-5.19-1.93-9.09-6.19-12.54-9.68-8.84-9.9-18.85-19.36-24.72-31.38-5.6-11.78-10.67-25.16-8.12-38.34h0Z"/>
          <path class="cls-6" d="M363.51,302.74c-.75,2.34-.29,4.84.08,7.21,1.22,7.16,4.46,13.85,8.97,19.47,3.59,4.53,18.39,21.32,21.56,9.6,0,0,.14-.62.14-.62l-.02-.68c-.48-6.56-5.76-12.33-9.86-17.33,0,0-9.81-10.83-9.81-10.83-2.51-2.63-5.09-5.24-8.05-7.37-.96-.75-2.58-.83-3.02.53h0ZM363.51,302.74c.47-1.38,2.03-1.33,3.05-.58,3,2.09,5.79,4.46,8.52,6.9,2.71,2.45,8.28,7.22,11.11,9.53,6.06,5.33,15.79,14.39,12.18,23.6-1.19,3.08-3.97,5.68-7.41,5.94-9.21.09-16.27-10.39-20.49-17.3-3.75-6.44-6.19-13.49-7.05-20.85-.26-2.39-.69-4.92.09-7.24h0Z"/>
          <path class="cls-6" d="M375.17,320.1c.8,2.55,2.45,3.88,4.16,5.16,1.32.88,2.79,1.88,4.28,2.2-.22-.12-1.23.45-1.38.96-.1.24-.15.4-.14.56-1.09-3.33-3.46-6.6-6.92-8.88h0ZM375.17,320.1c4.92-1.11,9.98,2.76,11.69,7.34.57,1.48.26,3.76-1.4,4.62-5.53,2.44-13.3-6.95-10.29-11.96h0Z"/>
          <path class="cls-6" d="M486.32,130.98c-9.46-2.98-17.84,8.09-23.77,14.03-9.94,9.55-16.93,21.19-23.96,33-8.02,13.66-19.16,25.12-29.65,36.85-5.32,5.76-10.65,11.41-14.3,17.89-3.69,6.37-4.63,13.97-3.03,20.95,1.69,7.2,7.13,12.32,13.54,15.81,9.96,5.67,22.19,8.81,31.69,16.07,16.25,13.28,19.21,36.73,15.79,56.23-1.09,7.71-2.01,15.42.08,22.58,3.2,11.52,13.5,22.63,26.32,19.74,6.73-1.47,10.84-7.62,13.69-13.54,1.74-3.49,3.21-7.14,4.83-10.71-1.39,3.67-2.61,7.39-4.14,11.03-3.23,8.09-9.02,15.54-18.52,15.65-16.91.43-27.62-18.05-27.1-33.33.02-7.91,1.69-15.68,1.85-23.45.19-11.17-2.34-22.95-8.5-32.28-8.68-13.64-25.14-15.88-38.53-23.59-7.3-3.93-14.01-10.63-15.85-19.06-5.31-22.89,13.61-36.61,26.91-51.62,8.03-8.48,15.84-17.11,22.09-27.01,7.37-11.52,15.1-23.3,25.59-32.35,6.43-5.88,15.29-16.5,24.93-12.9h0Z"/>
          <path class="cls-6" d="M488.57,403.43c-9.13,1.97-18.94.18-27.52-3.47-6.05-2.68-18.16-9.2-19.41,1.23-1.22,11.42,3.45,23.26,10.59,32.14,3.17,3.95,6.89,7.55,11.13,10.34,5.7,2.9,12.71,3.86,19.07,3.21,2.84-.35,5.82-1.23,7.36-3.51,1.65-2.48.64-5.82-.47-8.42.82,1.3,1.59,2.66,2.03,4.21,2.51,12.95-19.76,11.97-27.55,9.11-6.11-2.26-10.96-7.13-15.28-11.87-4.18-4.88-7.39-10.59-9.54-16.68-2.48-8.23-5.82-24.25,4.74-28.12,7.22-1.67,13.06,2.4,18.75,5.36,8.03,4.23,16.88,6.76,26.1,6.46h0Z"/>
          <path class="cls-6" d="M483.31,418.44c-5.44-4.27-13.15-5.32-19.84-4.98-6.55.54-9.98,3.2-6.33,9.64,4.86,6.32,21.19,9.47,27.8,4.3,3.01-2.62.66-6.7-1.63-8.96h0ZM483.31,418.44c7.93,7.72.35,12.63-7.69,14.06-7.39,1.27-16.15.56-21.65-5.26-4.65-5.29-4.24-14.73,3.81-16.16,5.59-.99,11.08.74,16.19,2.51,3.26,1.28,6.69,2.5,9.34,4.85h0Z"/>
          <path class="cls-6" d="M488.57,149.74c-15.73-.73-23.93,29.12-32.84,39.47-5.37,7.39-11.7,13.9-17.7,20.49-5.62,6.44-12.4,12.32-15.02,20.69-3.95,11.18-1.35,26.71,10.49,31.8,7.83,3.39,16.89,1.22,24.96-.87,9.03-2.49,17.95-5.89,25.83-11,1.24-.92,2.79-1.99,3.89-3.08,1.7-1.43,3.04-3.21,4.14-5.18-3.61,8.47-12.49,13.23-20.28,17.33-11.83,5.17-27.25,11.89-40.25,6.91-14.46-5.65-18.29-24.05-13.59-37.52,2.86-9,10.13-15.63,16.34-22.37,6.26-6.45,12.53-12.76,18.06-19.6,9.1-10.07,19.8-39.68,35.97-37.07h0Z"/>
          <path class="cls-6" d="M484.06,183.52c-9.25,16.54-30.77,21.61-40.88,37.18-7.51,12.35-6.55,21.13,9.87,20.42,11.56.07,46.68-10.46,42.27-26.08,3.33,6.24-1.92,12.87-6.54,16.77-10.09,8.18-22.52,12.94-35.49,14.11-20.28,1.41-24.56-12.35-14.11-27.88,11.27-16.34,32.59-19.48,44.87-34.53h0Z"/>
          <path class="cls-6" d="M484.06,204.53c-8.53-2.36-24.14,10.32-19.25,19.06,3.64,4.92,26.85-10.83,23-16.06,2.78,2.27.18,6.45-1.23,8.82-4.51,6.43-14.6,15.68-23.17,12.46-3.52-1.58-4.61-5.88-4.5-9.13.31-10.36,16.03-20.66,25.15-15.15h0Z"/>
          <path class="cls-6" d="M492.32,287.84c-7.5-4.1-12.65-14.17-22.49-9.52-10.24,5.68-2.53,22.83-1.01,31.79,2.6,12.09-.12,24.52,1.59,36.48.96,4.97,4.3,7.68,8.99,6.01,7.46-3.47,12.37-16.27,12.92-24.22.73,6.2-.95,12.49-3.49,18.16-2.02,4.22-5.51,9.34-10.7,10.08-8.47,1.77-12.55-6.74-12.88-13.87-.72-10.73.53-21.3-1.31-31.77-1.08-5.9-3.23-12-3.49-18.22-.56-6.4,1.12-15.07,8.06-17.49,3.17-1.21,6.87-1.32,10.02-.02,6.18,2.48,8.8,8.8,13.78,12.58h0Z"/>
          <path class="cls-6" d="M487.07,491.24c-9.4-6.72-24.69-16.49-35.29-7.98-5.67,5.43-7.06,13.47-9.17,21.04-1.59,5.94-3.52,12.42-7.15,17.83-2.7,4.17-6.85,7.23-10.05,10.75-7.8,8.24-.59,12.24,8.01,11.33,2.67-.24,5.36-.8,7.88-1.93-2.25,1.61-4.91,2.68-7.65,3.32-5.61,1.48-14.38.88-14.83-6.67-.26-6.16,5.59-10.69,9.19-14.85,9.63-10.13,8.87-24.95,15.26-37.11,10.23-19.85,32.88-8.39,43.82,4.27h0Z"/>
          <path class="cls-6" d="M463.05,537.03c-14.46-2.42-18.55-20.7-9.97-31.41,3.43-4.41,7.17-10.41,13.45-10.79,7.92.74,19.16,13.92,20.25,21.54.07.91,0,1.88-.46,2.64.66-6.16-12.91-16.78-18.19-19.03-3.05-1.41-5.91,2.5-7.93,4.68-9.94,10.01-10.8,25.15,2.85,32.37h0Z"/>
          <path class="cls-6" d="M471.3,533.27c-8.57-2.17-7.84-16.94.91-18.52,7.92-.18,10.98,10.94,12.6,17.02-3.82-3.27-6.22-7.51-9.72-10.72-1.01-.94-2.06-1.39-2.32-1.26-4.42,2.21-5.12,9.48-1.47,13.47h0Z"/>
          <path class="cls-6" d="M313.6,323.67c-1.87,9.43-9.52,15.98-15.47,22.96-9.05,10.35-16.75,22.59-18.68,36.26-.89,6.93,1.34,11.69,8.94,10.47,6.63-1.84,9.24-8.14,15-12.7,5.86-4.91,14.21-3.31,20.84-5.54,12.45-3.41,9.81-17.58,8.42-27.69-.62-4.66-1.03-9.34-1.41-14-.53-3.99-.31-10-1.75-13.77-5.05-13.82-14.71-8.14-15.89,4h0ZM313.6,323.67c1.04-12.49,10.95-18.01,16.56-4.25,1.63,3.77,1.86,9.8,2.61,13.84.69,4.62,1.46,9.21,2.4,13.76,2.82,12.18,5.63,27.26-9.36,32.49-6.05,2.66-14.59,1.08-19.3,5.15-5.02,3.93-9.63,12.07-17.24,13.26-19.18,1.76-14.31-18.18-8.44-29.11,4.23-8.57,10.34-15.9,16.78-22.65,6.31-6.69,14.01-13.06,15.99-22.49h0Z"/>
          <path class="cls-6" d="M314.35,343.96c-3,1.74-5.05,4.59-7.27,7.2-2.28,2.6-4.58,5.15-6.49,7.92-1.54,2.25-5.49,8.16-2.75,10.16,1.95.51,5.46-1.02,7.49-2.08,5.27-3.19,12.06-6.46,13.85-12.81,1.21-3.79,1.71-13.64-4.83-10.39h0ZM314.35,343.96c6.44-3.4,6.69,6.59,6.34,10.65-.64,7.5-7.09,12.85-12.9,16.79-3.54,2.03-7.79,4-11.98,2.29-2.56-1.23-3.65-4.15-3.24-6.75,1.69-7.57,8.79-11.48,14.02-16.27,2.52-2.28,4.77-5.01,7.76-6.72h0Z"/>
          <path class="cls-6" d="M25.59,345.53c-.39,2.63-1.37,9.28-1.75,11.82-2.54,12.78,4.39,23.48,16.41,27.78,8.62,3.4,18.2,4.16,26.9,7.57,7.09,2.47,22.8,17.43,29.19,11.47,2.81-2.88,2.66-8.05,1.34-12.75-2.69-9.87-8.57-18.83-14.11-27.5-11.09-16.8-24.74-36.19-44.38-43.19-11.83-1.88-11.36,17.05-13.59,24.8h0ZM25.59,345.53c2.19-8.11,1.49-27.11,13.71-25.5,20.53,6.14,35.63,24.79,47.89,41.43,6.1,8.7,12.3,17.77,15.39,28.67,2.12,6.96,1.29,17.95-7.4,20-4.66.89-9.16-1.36-12.88-3.45-4.78-2.78-8.93-6.21-13.22-9.12-8.97-5.74-19.9-6.36-29.47-10.98-11.96-5.14-18.69-16.3-15.92-29.25.4-2.52,1.48-9.21,1.89-11.8h0Z"/>
          <path class="cls-6" d="M14.97,320.12c0,22.36-12.37,46.78-.13,67.73,7.52,13.49,24.13,15.15,37.53,19.51,12.14,3.99,23.52,10.18,34.09,17.25,5.05,3.21,9.76,7.56,15.54,9.34,20.31,5.31,16.52-29.04,12.96-40.67-2.14-7.93-5.15-15.6-9.35-22.68-8.31-14.41-18.17-28.04-29.71-40.11-5.86-6.07-11.46-12.37-17.07-18.62-5.71-6.09-10.97-12.82-17.57-17.93-8.64-7.23-21.68-1.97-26.07,7.53-2.55,5.99-.82,12.46-.21,18.65h0ZM14.97,320.12c-.66-6.19-2.45-12.68.08-18.7,2.56-5.82,8.43-9.88,14.55-11.2,4.25-.86,8.61.69,12.06,3.15,6.83,5.04,12.36,11.47,18.33,17.42,5.85,6.05,11.66,12.11,17.71,17.92,12.14,11.82,22.74,25.21,31.67,39.68,8.95,14.78,14.25,31.92,13.38,49.4-.65,12.34-7.74,25.42-22.16,20.75-6.34-2.05-11.2-6.66-16.6-10.32-13.53-9.88-28.35-17.49-44.54-21.91-18.94-5.36-29.7-15.79-30.57-36.13-.49-17.02,5.8-33.17,6.09-50.05h0Z"/>
          <path class="cls-6" d="M-1.09,305.8c.32,6.34-2.26,12.14-4.55,17.89-2.03,5.86-3.19,11.99-4,18.13-2.11,21.73-2.27,53.89,12.5,71.2,8.24,9.39,20.96,12.33,32.66,15.29,12.27,2.86,23.65,9.07,33.7,16.54,10.08,7.42,19.39,15.77,29.3,22.82,4.89,3.34,10.41,5.94,16.06,6.85,12.52,2.34,20.97-7.16,22.99-18.93,1.68-8.76.99-18-.53-26.86-1.49-9.09-3.43-18.13-5.97-26.97-3.38-11.76-7.81-23.26-14.04-33.71-4.73-7.88-10.45-15.56-14.64-23.91-6.63-14.1-11.86-28.77-18.55-42.75-10.42-20.89-24.37-47.23-50.63-48.45-12.32-.45-24.76,6.04-31.22,16.57-3.12,5.35-4.61,11.58-4.74,17.76-.03,6.21,1.54,12.31,1.66,18.53h0ZM-1.09,305.8c-.15-6.21-1.75-12.29-1.75-18.53.1-6.2,1.55-12.45,4.67-17.85,6.49-10.71,18.87-17.47,31.41-17.19,26.75.69,41.81,27.02,52.91,48.04,7.06,13.85,12.65,28.35,19.57,42.16,4.38,8.21,10.12,15.34,15.07,23.35,6.64,10.8,11.45,22.58,14.99,34.63,4.76,18.25,10.11,37.18,6.69,56.17-5.15,25.53-27.2,28.6-46.44,14.67-19.8-14.78-36.48-34.29-61.15-40.49-5.97-1.66-12.04-3.31-17.83-5.82-19.35-7.41-25.8-26.89-27.39-45.94-1.07-12.38-1.1-24.88.51-37.21.85-6.15,2.03-12.28,4.1-18.14,2.33-5.74,4.93-11.52,4.64-17.85h0Z"/>
          <path class="cls-6" d="M186.22,403.79c3.33,5.17,6.45,10.53,8.7,16.26,2.35,5.49,6.9,10.09,12.42,12.18,5.25,2.15,11.22.22,14.62-4.02,3.28-3.85.99-9.37-2.56-13.82-7.39-9.72-19.65-15.3-25.13-26.64-1.62-2.55-3.13-5.19-5.86-5.92-2.96-.95-5.2,1.83-5.87,4.51-1.62,5.99.58,12.28,3.68,17.46h0ZM186.22,403.79c-3.79-6.27-7.26-15.4-2.28-21.97,4.25-4.22,9.94.71,12.44,4.48,4.31,6.35,10.35,10.75,16.59,15.04,6.51,4.97,12.83,10.75,15.03,19.1,2.84,11.58-12.37,19.59-21.67,14.1-5.76-2.96-9.98-8.25-12.06-14.22-1.85-5.94-4.78-11.28-8.05-16.53h0Z"/>
          <path class="cls-6" d="M197.64,410.27c-.29,8.58,6.93,10.54,13.92,11.24.48.05.91.02,1.16-.03.29-.05.16-.18-.12.07-.24.24-.17.38-.21.09-.68-4.64-1.33-9.48-4.86-12.7-3.37-2.97-9.38-5.44-9.9,1.33h0ZM197.64,410.27c.27-6.86,6.69-5.39,11.31-3.46,4.8,2.09,7.65,7.64,8.25,12.6,1.38,7.52-4.73,7.95-9.96,4.94-5.75-2.15-10.23-7.81-9.6-14.08h0Z"/>
          <path class="cls-6" d="M150.21,381.69c8.35,8.46,18.35,15.68,23.76,26.6,8.06,16.91,11.58,32.96,28.37,43.57,6.96,4.55,15.61,7.25,22.94,2.86,10.61-7.2,15.82-25.13,13.59-37.45-1.74-11.47-9.84-20.42-19.31-26.76-9.79-6.65-20.86-11.38-31.1-17.43-7.45-4.94-15.9-8.3-24.97-7.69-8.01,0-20.91,7.58-13.29,16.31h0ZM150.21,381.69c-7.76-8.76,5.21-16.42,13.27-16.74,9.09-.86,18.04,2.17,25.77,6.72,10.61,5.53,21.88,9.64,32.21,15.89,11.65,6.78,20.88,17.3,22.68,31.15,1.13,11.79-2.08,23.86-9.2,33.46-14.37,18.93-36.96,4.73-47.34-10.57-6.99-10.05-9.25-22.1-14.25-33-4.95-11.03-14.91-18.44-23.13-26.91h0Z"/>
          <path class="cls-6" d="M149.32,351.37c-4.04-.19-8.63.61-11.17,4.05-2.73,3.1-4.35,7.09-4.73,11.19-.62,8.3,2.68,16.29,6.42,23.52,7.74,14.69,20.39,26.17,27.91,41.04,7.88,14.24,14.76,29.61,27.13,40.42,8.6,7.62,20.11,13.96,31.42,9.99,19.16-7.77,24.26-31.09,24.67-49.94.11-8.08-.4-16.34-2.09-24.18-3.73-15.57-13.45-30.41-27.7-38.22-7.19-3.94-15.48-5.43-23.46-7.13-8.11-1.58-16.25-3.2-24.19-5.57-7.94-2.27-15.95-4.52-24.21-5.17h0ZM149.32,351.37c8.27.58,16.31,2.77,24.27,4.98,7.96,2.28,16.11,3.64,24.26,5.06,8.16,1.54,16.54,2.62,24.07,6.41,19.09,9.6,30.68,30.39,32.63,51.26,2.75,24.16-.78,56.78-26.58,67.2-13.09,4.7-26.7-2.61-36.03-11.46-12.51-11.61-18.94-27.65-26.42-42.44-5.29-11.27-13.17-20.85-20.1-31.11-6.48-10.36-13.02-22.05-12.2-34.66,1.04-8.71,6.54-16.27,16.09-15.22h0Z"/>
          <path class="cls-6" d="M345.21,563.3c-5.5-7.94-13.71-13.15-21.43-18.68-7.78-5.6-14.73-12.26-21.34-19.16-13.63-13.59-24.13-30.18-30.5-48.37-6.38-18.19-7.54-37.72-8.85-56.71-1.33-19.73-7.09-36.4-22.57-49.3-28.59-26.15-63.79-17.35-97.09-29.8-24.91-9.29-33.98-29.22-42.05-52.52-3.3-8.76-6.7-17.46-12.27-25-5.32-7.49-12.87-13.05-21.09-17.13-16.19-7.87-35.42-14.18-53.45-10.5-8.71,2.17-16.45,7.92-22.26,14.73-6.24,7.39-10.58,16.57-10.92,26.1-.02,3.12-.25,9.31-.29,12.52-.36,14.39-.97,28.78-3.16,43.07-1.41,9.49-3.82,18.74-5.44,28.16-4.49,26.6-8.45,58.76,9.97,80.99,12.36,14.07,29.75,23.49,48.23,27.09,4.64,1,9.36,1.9,14.02,3.17,33.24,9.46,53.02,42.22,64.81,72.55-3.68-8.8-7.82-17.42-12.79-25.55-9.71-16.16-22.54-31.17-39.43-39.95-8.3-4.5-17.73-5.99-27.11-7.78-18.97-3.43-37.08-12.9-50.14-27.41-19.58-22.99-16.1-56.12-11.75-83.85,1.53-9.4,3.94-18.67,5.29-28.07,1.38-9.34,2.11-18.78,2.5-28.27.44-9.37.4-19.29.79-28.67,1.88-19.93,17.32-38.21,36.49-43.55,9.81-2.36,19.83-1.25,29.49.81,14.27,3.39,28.21,8.77,39.97,17.76,1.69,1.54,4.06,3.39,5.49,5.1,8.56,8.86,13.44,20.62,17.58,31.99,6.1,17.51,13.15,35.86,29.9,45.41,34.49,19.56,73.62,4.58,107.29,35.69,16.05,13.76,22.04,31.39,23.16,51.95,1.09,18.99,1.98,38.05,8.01,56.17,5.9,18.01,15.96,34.59,29.13,48.24,6.44,7,13.21,13.74,20.81,19.46,7.56,5.72,15.72,11.22,20.98,19.29h0Z"/>
          <path class="cls-6" d="M135.81,539.28c-7.44,2.5-18.32-21.26-17.85-27.45-1.41-15.26,12.92-18.07,24.11-22.06,5.06-2.02,8.67-5.96,11.04-10.75,3.99-8.08,10.24-7.25,17.44-3.94,14.31,5.58,17.75,22.77,28.43,31.96,6.13,4.96,14.93,4.73,22.29,2.75,5.35-1.4,8.95-5.1,12.55-9.24,7.24-9.87,22.68-16.62,32.02-5.48,9.74,11.95,9.46,38.1-.93,49.46,1.83-2.21,3.03-4.83,3.91-7.51,5.04-13.56,1.86-49.29-19.23-43.14-8.46,2.26-12.12,10.7-18.62,16.04-9.02,7.42-25.8,8.53-35.13,1.03-11.24-8.92-14.36-26.56-27.34-31.54-2.35-1.15-4.98-2.1-7.1-2.1-2.25-.02-3.25,2.12-4.46,3.97-6.95,13.64-17.67,12.08-29.37,17.69-11.04,5.48-7.13,19.89-2.67,28.72,1.97,3.7,5.89,12.56,10.93,11.59h0Z"/>
          <path class="cls-6" d="M155.32,543.03c-14.57-9.53-17.94-45.57,3.85-48.33,18.23-.33,24.67,34.38,23.17,48.33-1.89-12.33-7.76-34.31-17.9-41.85-3.24-2.22-6.89-1.65-10.04.46-10.55,7.91-7.79,32.63.93,41.39h0Z"/>
          <path class="cls-6" d="M164.33,536.28c-4.29-4.55-7.32-12.24-3.97-18.43,1.13-2.39,4.24-3.71,6.58-1.89,7.01,6.81,6.77,18.48,4.15,27.07-1.61-7.9-2.47-16.8-7.01-22.99.34.22,1.02-.29.66-.05-3.29,4.75-1.61,10.56-.41,16.28h0Z"/>
          <path class="cls-6" d="M228.12,536.28c.8-9.96,8.3-23.49,16.84-29.1,6.9-4.55,14.55.23,15.76,7.94,1.53,9.75-1.86,19.93-8.13,27.38-2.47,2.74-6.38,5.51-10.21,4.3,11.03-.24,17.5-27.13,11.7-34.56-7.08-8.9-24.14,17.84-25.96,24.05h0Z"/>
          <path class="cls-6" d="M-68.34,418.44c15.25-11.48,32.64,22.91,38.35,33.6,6.36,12.24,14.36,23.2,27.74,27.35,21.81,7.22,47.57,8.22,65.44,24.41,7.01,6.52,13,14.67,14.84,24.27,1.82,9.2-1.63,21.61-12.77,21.73,10.24-1.17,12.7-12.75,10.32-21.22-2.23-8.67-8.31-16.04-15.01-21.79-6.91-5.93-15.33-9.39-23.94-12.07-8.7-2.74-17.78-4.55-26.88-6.73-9.19-2.34-18.95-4.7-26.54-10.89-7.68-6.04-12.55-14.7-16.71-23.23-5.31-10.48-19.67-44.86-34.84-35.41h0Z"/>
          <path class="cls-6" d="M-63.09,483.74c-2.68-14.25,14.79-13.27,23.54-9,9.43,4.23,15.21,14.53,23.09,19.87,5.27,3.72,11.71,4.45,18.07,4.96,6.61.59,13.49.57,20.46,1.98,13.58,2.09,30.01,16.2,21.44,30.83-3.9,6.2-11.15,8.79-18.04,9.16,0,0,2.46-.65,2.46-.65,1.48-.23,3.3-1.22,4.71-1.69,0,0,2.16-1.22,2.16-1.22,12.42-7.57,9.08-21.52-2.54-27.78-9.37-5.56-20.27-4.67-31.06-5.57-6.99-.61-14.61-1.7-20.43-6.1-8.34-5.98-12.92-15.81-21.81-20.82-7.66-4.31-22.75-7.16-22.06,6.04h0Z"/>
          <path class="cls-6" d="M-.79,532.52c-3.16-7.39-.87-18.16,5.52-23.39,5.56-4.35,12.31.31,14.89,5.7,5.48,13.06-6.01,25.76-10.66,37.21.22-5.59,3.28-13.05,4.91-18.41,1.49-5.25,3.58-11.6,1.21-16.54-7.72-14.38-17.2,7.18-15.87,15.43h0Z"/>
          <path class="cls-6" d="M9.27,11.66C4.79,17,.19,23.67,1.39,30.97c.48,3.54,2.24,6.7,3.66,10.06,2.38,6.68,6.46,12.68,11.33,17.79,5.93,6.46,17.11,14.74,24.22,5.8,4.71-4.68,7.43-11.06,7.59-17.8.29-13.71-7.28-28.04-18.98-35.59-5.95-3.94-14.45-4.89-19.93.44h0ZM9.27,11.66c12.54-10.86,28.95,2.96,36.19,13.95,4.04,6.2,6.87,13.47,7.1,21.23.38,9.8-4.66,20.08-13.19,25.15-5.73,3.23-13.07.64-17.62-2.9-8.99-7.08-15.12-16.72-18.13-27.52C-1.76,28.9.4,21.82,9.27,11.66h0Z"/>
          <path class="cls-6" d="M-12.02,8.66c-9.42,17.9-2.46,37.65,9.44,52.45,3.76,5.03,8.03,9.6,12.07,14.53,7.7,8.86,21.76,28.31,34.97,23.57,10.77-5.32,13.79-18.93,13.76-30.16-.28-21.42,2.96-44.56-8.86-63.67-4.65-7.83-12.05-14.8-21.36-15.91-2.99-.48-6.3-.27-9.29.17C5.96-8.79-6.07-3.37-12.02,8.66h0ZM-12.02,8.66C-5.27-5.55,10.96-11.09,25.73-11.84c10.81-.06,20.11,7.09,25.79,15.84,13.31,19.52,11.36,42.69,11.69,65.07.21,13.03-3.9,28.69-17.05,34.45-10.5,3.89-20.1-4.32-26.72-11.43-8.45-9.63-15.71-19.77-23.3-30.05C-14.9,46.71-21.59,26.33-12.02,8.66h0Z"/>
          <path class="cls-6" d="M-64.59,7.14c2.3,4.15,6.29,6.83,9.57,10.22,16.06,17.49,18.93,42.91,31.48,62.44,12.71,19.59,35.78,35.37,59.9,31.06,28.23-5.67,28.41-23.88,30-48.53,1.76-18.44,4.27-37.13.78-55.34-3.26-19.02-16.24-32.61-36.09-32.24-4.52.03-9.14.68-13.84,1.14-18.57,1.06-37.46,1.53-55.46,6.87-8.78,2.75-35.91,11.77-26.32,24.37h0ZM-64.59,7.14c-10.51-12.62,16.84-23.02,25.73-26.2,15.64-5.24,32.35-7.06,48.79-7.96,7.06-.32,13.79-1.89,21.02-2.14,21.97-1.03,37.05,14.28,40.89,35.19,3.79,18.81,1.27,38.02-.43,56.74-1.6,26.61-3.28,46.8-34.25,52.68-25.85,4.44-50.41-12.65-63.41-33.96-12.43-20.1-13.99-45.29-29.33-63.62-3.02-3.48-6.94-6.46-9.01-10.73h0Z"/>
          <path class="cls-6" d="M130.61,79.5c.53,10.13,6.79,18.75,17.63,17.97,8.85-.15,12.27-7.51,9.38-15.24-2.27-5.42-4.87-10.79-7.45-16.04-1.98-3.63-3.94-8.61-8.2-9.43-8.77.04-12.12,15.67-11.36,22.75h0ZM130.61,79.5c-.95-8.65,2.87-30.23,15.63-24.17,3.47,1.97,5.72,5.57,7.74,8.7,2.93,4.75,5.48,9.61,7.68,14.7.49,1.17.96,2.62,1.26,3.87,2.37,9.94-4.29,18.77-14.76,17.4-11.42-.87-17.01-9.93-17.55-20.49h0Z"/>
          <path class="cls-6" d="M140.86,82.24c.28,1.53,1.22,3.02,2.54,3.72,2.45,1.36,5.12-.94,4.45-3.3-.2-.98-.62-1.75-1.37-3.24-.97-1.99-1.73-3.76-3.06-5.28-.47-.43-1.15.67-1.53,1.28-1.05,2.06-1.36,4.53-1.03,6.83h0ZM140.86,82.24c-.21-3.25-1.99-9.87,2.26-11.16,5.9-.73,11.9,10.23,7.76,14.88-3.81,4.3-9.4,1.22-10.02-3.71h0Z"/>
          <path class="cls-6" d="M143.19,42.26c8.85,2.13,16.3,8.11,23.04,14,13.73,12.36,23.91,33.53,11.01,50.07-6.31,7.52-15.8,11.92-25.64,12.2-15.16-.51-25.88-13.35-32.01-25.97-3.98-8.28-6.96-17.69-5.38-26.96,2.22-13.11,15.01-26.14,28.99-23.34h0ZM143.19,42.26c-13.8-2.72-26.22,10.55-27.47,23.54-.97,13.25,6.44,25.96,14.58,35.83,5.46,6.12,12.95,11.76,21.28,11.82,10.13-.22,21.12-5.75,25.81-15.04,6.82-14.56-1.13-30.99-11.66-41.65-6.39-6.18-13.75-12.3-22.55-14.5h0Z"/>
          <path class="cls-6" d="M99.83,34.94c-7.3,11.82-5.69,27.07-.82,39.5,1.95,5.63,7.06,12.59,10.28,17.61,7.44,11.24,15.16,22.77,25.44,31.5,7.95,6.74,16.26,9.93,26.54,7.15,19.71-5.76,30.77-29.87,32.46-49.05-.52-15.41-10.71-28.81-21.58-39.14-11.62-11.13-26.72-18.9-42.96-19.67-10.94-.72-23.01,2.52-29.35,12.09h0ZM99.83,34.94c7.91-12.03,23.87-13.94,37.07-11.89,20.77,2.88,38.77,16.28,51.23,32.73,5.43,7.36,9.82,16.37,10.16,25.84-.84,18.19-10.01,39.23-25.79,49.28-6.2,3.97-13.66,5.69-21.04,5.11-7.37-.84-13.73-5.03-19.01-9.84-10.23-9.53-17.43-21.45-24.51-33.27-3.01-5.23-7.76-12.47-9.59-18.2-4.47-12.66-5.92-27.94,1.48-39.76h0Z"/>
          <path class="cls-6" d="M134.35-2.26c36.44,4.51,69.08,37.05,78,72.09,10.94,40.38-10.76,87.53-58.04,80.93-27.32-4.44-50.82-24.07-62.85-48.59-8.28-17-11.74-36.01-11.32-54.82.78-18.39,9.95-37.97,26.82-46.58,8.5-4.1,18.21-4.23,27.39-3.02h0ZM134.35-2.26c-9.17-1.14-18.87-.95-27.31,3.2-16.56,8.66-25.21,28.37-25.3,46.45.2,18.3,4.22,36.97,12.83,53.17,12.31,22.79,34.62,41,60.48,45.18,43.69,6.31,63.66-37.96,54.84-75.34C201.99,35.01,171.03,2.53,134.35-2.26h0Z"/>
          <path class="cls-6" d="M176.34-14.63c-9.56,10.99,17.45,22.83,23.44,29.78,4.94,4.63,9.19,9.86,13.42,15.1,3.48,4.66,4.99,10.48,8.52,14.96,1.3,1.55,2.11,2.31,3.58,2.36,1.31.1,2.31-.34,2.82-1.65,1.2-3.62.34-7.62-.46-11.62-.94-4.11-2.23-8.27-4.01-12.09-2.7-5.47-7.4-9.08-11.62-13.57-2.53-2.7-4.93-5.81-5.92-9.45-2.08-5.9-2.78-16.02-11.02-15.32,10.67-2.05,10.88,12.86,15.77,18.72,4.52,5.47,10.94,9.17,15.14,15.15,3.11,4.65,4.83,10.08,6.33,15.43,1.11,4.73,2.1,9.77.42,14.6-1.29,3.75-5.71,5.69-9.47,4.6-2.72-.76-4.27-2.53-5.51-4.07-3.6-4.61-5.34-10.6-8.33-15.14-1.8-2.4-3.77-4.98-5.64-7.31-3.29-4.04-6.65-8.04-10.5-11.51-6.45-5.62-27.58-19.71-16.98-28.97h0Z"/>
          <path class="cls-6" d="M105.56,245.72c14.31,7.44,12.36,18.53,18.48,30.91,1.53,2.83,3.88,5.05,6.82,5.3.76,0,1.24-.21,1.73-.61,5.89-7.38-4.41-23.85-8.62-30.89-2.74-3.9-5.44-8.43-9.45-11.12-2.09-1.21-4.86-.7-6.91.44-2.1,1.01-4.16,3.98-2.04,5.97h0ZM105.56,245.72c-2.15-1.97-.11-5.01,1.95-6.12,2.14-1.3,4.93-2.08,7.33-.92,4.53,2.48,7.69,6.52,11.17,10.22,6.47,7.92,13.43,16.95,13.43,27.75-.24,7.52-6.34,12.87-13.37,8.26-4.96-3.32-6.21-9.03-7.2-14.28-1.55-11.11-2.66-19.18-13.3-24.91h0Z"/>
          <path class="cls-6" d="M102.93,218.38c17.66-5.57,29.33,15.85,34.67,29.53,3.86,10.37,5.67,21.34,10.13,31.45,3.88,7.04,9.35,13.75,13.5,20.87,2.21,3.84,4.59,7.83,5.03,12.53.13,3.68-1.61,7.69-5.05,9.39-4.82,2.19-10.08-.15-14.13-2.2-10.03-5.62-18.6-13.26-26.01-21.98-8.18-11.44-14.77-23.73-21.06-36.24-2.04-4.42-5.5-10.58-6.89-15.23-3.62-10.39-2.35-24.49,9.81-28.13h0ZM102.93,218.38c-12.14,3.89-13.14,17.57-9.13,27.9,1.5,4.49,5.37,10.46,7.63,14.7,2.75,4.81,5.58,9.58,8.52,14.26,5.97,9.16,11.67,18.61,19.93,25.9,4.5,4.12,28.58,25.11,31.31,13.23.42-1.59-.09-2.99-.62-4.67-4.02-10.75-12.53-20.07-16.79-30.94-3.24-9.93-4.7-20.39-7.69-30.34-4.45-14.02-15.31-35.36-33.16-30.04h0Z"/>
          <path class="cls-6" d="M-60.84,353.14c4.69,2.77,9.06-3.54,11.67-6.72,9.56-11.87,11.4-27.15,11.05-41.97.54-25.37-3.8-55.87,13.41-76.95,20.73-23.11,53.88-10.45,79.9-7.05,24.42,2.37,31.59-21.58,22.58-40.71-6.49-13-20.5-20.08-34.03-23.74-23.73-5.99-50.06-6.59-67.86,12.83-3.43,3.45-6.26,7.58-8.98,11.61-5.66,8.18-11.32,16.48-18.05,23.92-6.03,6.53-16.65,16.92-25.45,9.17,14.8,11.74,34.46-24.3,41.43-34.47,10.78-18.48,28.1-30.29,49.85-30.61,27.78-.78,65.68,8.57,71.1,40.42,3.82,18.7-6.67,36.86-27.04,36.73-5.16.1-10.27-1.08-15.29-1.99-18.66-3.37-39.26-9.54-56.77.19-25.76,15.44-21.01,54.63-22.32,80.68-.18,14.87-2.75,30.82-12.93,42.4-2.9,3.23-7.62,9.23-12.27,6.25h0Z"/>
          <path class="cls-6" d="M62.36,144.19c18.69,2.73,27.25,16.46,35.07,32.11,4.68,10.29,11.37,23.57,24.45,21.68,1.05-.25,2.67-.5,3.66-.94,2.39-.78,4.76-2.11,6.87-3.46,3.09-1.97,6.42-5.1,8.96-7.75,3.68-4.21,10.53-8.93,10.57-14.65-.16-2.11-1.54-4.01-3.09-5.56-5.69-5.29-13.39-8.67-20.57-11.62-7.58-2.78-16.44-5.69-22.3-11.94-9.13-9.91-18.93-21.35-33.85-19.15-5.24.81-11.02,2.92-13.78,7.76-3.04,4.82-2.06,11.81,4.01,13.52h0ZM62.36,144.19c-6.09-1.61-7.21-8.74-4.17-13.61,4.39-7.39,14.21-9.4,22.22-8.58,11.55,1.29,19.7,10.45,27.68,17.89,6.05,5.67,13.78,7.4,21.68,10,9.34,3.61,19.66,7.27,25.6,15.91,5.68,9.31-4.57,17.54-10.57,23.38-5.13,5-11.09,9.74-18.11,11.64-11.26,3.28-20.35-2.61-25.61-12.41-6.58-13.38-10.8-29.12-23.47-38.26-4.44-3.4-9.9-4.75-15.25-5.95h0Z"/>
          <path class="cls-6" d="M83.91,146.7c1.35,2.23,4.39,1.94,6.38,3.32,2.16,1.19,3.99,2.93,5.65,4.72,3.26,3.65,7.04,6.72,10.68,10.02l5.48,4.88c2.72,2.78,12.91,8.89,8.7.2-1.41-2.77-4.07-5.93-6.07-8.52-3.6-4.8-7.34-9.46-11.88-13.39-1.81-1.58-3.74-2.94-5.82-4.2-3.15-1.68-6.03-4.36-9.62-4.99-4.36-.68-5.22,4.99-3.5,7.95h0ZM83.91,146.7c-1.77-3.11-1.01-8.73,3.53-8.38,1.27.05,2.5.45,3.62.97,4.44,2.19,9.13,3.86,13.31,6.59,6.21,3.83,11.66,9.74,16.41,15.22,2.53,3.06,5.26,6.4,5.97,10.68.65,6.98-6.05,9.07-11.19,5.53-4.09-2.34-7.71-7.31-10.73-10.76,0,0-4.77-5.6-4.77-5.6-3.35-3.53-5.68-8.1-9.85-10.77-1.92-1.47-4.98-1.25-6.29-3.48h0Z"/>
          <path class="cls-6" d="M-62.34,72.43c1.66,11.41,23.28,18.55,32.54,24.02,13.27,8.24,40.06,19,30.42,38.89-6.74,10.43-19.87,11.01-30.44,14.79-11.22,3.57-21.44,6.3-30.68-3.12-2.63-2.38-5.05-4.88-7.84-7.04,16.9,11.13,16.68,14.15,37.24,6.4,2.91-1.14,7.12-2.55,10.04-3.44,6.01-1.98,13.04-4.08,16.76-9.18,9.41-15.28-17.77-26.66-27.5-33.91-9.01-5.84-30.48-15.14-30.53-27.42h0Z"/>
          <path class="cls-6" d="M-56.33,229.3c3.37-.72,4.58-3.98,5.68-6.86,1.28-2.92,2.69-5.72,4.11-8.55,5.8-11.3,12.49-22.43,22.21-30.9,9.75-8.59,22.05-13.2,34.25-17.1,17.39-5.91,33.4-3.72,45.02,11.73,5.02,6.52,6.02,16.09.31,22.63-3.95,4.65-9.56,8.02-15.64,8.83-9.85,1.37-19.56-2.6-28.66-4.72-5.97-1.43-12.03-2.32-17.72-1-11.89,2.87-23.41,8.44-31.59,17.73-8.41,9.27-12.8,21.49-14.97,33.73,1.08-12.51,4.99-25.18,13.08-35.34,8.12-10.17,20.11-16.6,32.53-19.96,6.49-1.74,13.3-.92,19.68.51,11.54,2.35,23.97,8.06,34.73,1.25,4.38-2.86,8.28-7.74,7.35-13.25-2.12-10.9-14.25-19.56-25.05-20.36-8.9-.7-18.14,2.49-26.69,5.31-8.77,2.86-17.3,6.74-24.49,12.55-9.66,7.78-16.82,18.38-23.16,29-1.57,2.71-3.16,5.46-4.59,8.22-1.28,2.77-2.97,6.14-6.37,6.54h0Z"/>
          <path class="cls-6" d="M21.64,176.68c6.57-.91,14.5,2.74,16.01,9.74.67,4-2.29,7.75-5.56,9.61-6.55,3.85-15.25,2.89-20.64-2.51-3.6-3.21-9.12-9.75-4.42-14.23,4.21-3.3,9.73-1.66,14.61-2.61h0ZM21.64,176.68c-4.46.87-10.25.03-13.51,3.68-.9,1.13-.89,2.4-.3,3.6,1.28,2.54,3.93,4.47,6.31,6.08,2.46,1.57,4.74,2.99,7.7,3.2,4.87.4,12.43-.9,13.29-6.67-.09-6.43-7.48-10.86-13.48-9.89h0Z"/>
        </g>
      </g>
      <g>
        <g class="cls-5">
          <path class="cls-4" d="M136.59,129.7c.17-.15.33-.32.47-.5,1.76-2.14,2.29-5.01,3.6-7.45,2.04-3.78,5.85-6.29,9.8-7.97,3.95-1.68,8.15-2.7,12.09-4.41,2.14-.93,4.46-2.44,4.64-4.76.21-2.77-2.69-4.67-5.24-5.77-5.2-2.24-10.76-3.97-15.09-7.62-2.83-2.39-5.02-5.88-5.45-9.61-.14-1.2-.32-4.36.87-5.17,1.56-1.05,2.73,1.53,3.6,2.4.95.95,2.06,1.73,3.2,2.44,3.94,2.45,7.97,4.87,12.63,5.57,4.59.69,9.17-.33,13.44-2.02,5.98-2.36,11.45-3.59,17.79-3.77,2.83-.08,6.8.22,8.76-2.54,2.02-2.84-.13-8.57-.87-11.68-.88-3.71-2.19-8.1-5.67-10.21-.86-.52-1.88-.93-3.1-1.2-5.41-1.21-10.46,2.17-14.64,5.16-3.71,2.66-7.68,4.92-11.55,7.34-3.28,2.05-6.05,4.29-9.88,5.31-2.84.76-5.78,1.04-8.71,1.33-1.24.12-2.6.28-3.83.16,1.57.15,4.13-3.55,5.08-4.58,1.26-1.36,2.61-2.63,4.02-3.84,2.76-2.38,5.73-4.51,8.69-6.64,5.84-4.2,11.85-8.48,15.99-14.47,1.33-1.92,2.48-4.32,1.71-6.53-.85-2.43-3.61-3.54-6.1-4.18-9.99-2.58-20.46-2.27-30.76-1.95-2.52.08-5.33.29-7.03,2.15-2.32,2.55-1.22,6.64.51,9.62,1.73,2.98,4.05,5.97,3.84,9.4-.19,3.19-2.55,5.84-3.32,8.94-.71,2.87.08,6.06,2.03,8.28-5.44-.26-9.4-5.56-10.64-10.86-1.24-5.3-.57-10.86-1.19-16.27-.41-3.61-1.5-7.32-4.1-9.86-2.6-2.54-7.02-3.45-9.92-1.27-2.88,2.17-3.27,6.42-2.42,9.93.85,3.51,2.64,6.76,3.23,10.33.66,3.98-.22,8.04-.31,12.08-.09,4.04.87,8.51,4.15,10.86,3.25,2.33,7.69,1.84,11.55.82,3.86-1.02,7.8-2.5,11.73-1.82-6.17,1.91-11.52,6.52-17.97,6.98-4.11.29-8.32-1.28-11.23-4.2-1.27-1.27-2.3-2.77-3.63-3.97-1.33-1.2-3.11-2.1-4.88-1.8-2.37.41-3.86,2.75-4.84,4.94-2.45,5.47-3.65,11.48-3.5,17.47.07,2.98.81,6.44,3.5,7.71,2.42,1.15,5.36-.09,7.3-1.94,1.94-1.85,3.26-4.26,5.14-6.17,3.81-3.9,9.38-5.34,14.4-7.46,5.85-2.47,11.22-6.04,15.76-10.48-3.38,5.05-2.07,12.22,1.81,16.89,3.88,4.67,9.78,7.21,15.68,8.63,1.65.4,3.74,1.29,3.52,2.97-.12.92-.96,1.56-1.76,2.02-5.13,2.91-11.53,2.62-16.86,5.15-5.51,2.62-9.4,8.37-9.77,14.46-.06,1-.02,2.05.46,2.92s1.55,1.49,2.5,1.18c.29-.09.54-.26.76-.46ZM146.62,57.79s.03-.07.05-.11c-.74-2.34-1.75-4.56-3-6.69-1.77-3.01-5.08-6.07-5.36-9.73-.18-2.31,1.71-4.86,4.15-3.77,2.09.94,3.69,4.25,4.36,6.27,1.25,3.74,1.48,10.2-.15,13.92.03.1.06.19.09.29l-.14-.18ZM146.84,68.1c.29-2.79,1.88-5.73,2.78-8.44,1.37-4.11,1.36-8.64,2.85-12.77,2.25-6.2,10.13-9.22,15.88-5.66,6.15,3.8-1.65,7.67-4.87,9.42-4.21,2.29-7.99,5.25-11.23,8.82-2.32,2.55-4.01,5.5-5.41,8.63ZM121.12,59.88c-.5-2.25-.42-4.58-.77-6.86-.37-2.39-1.09-4.71-1.49-7.11-.26-1.57-1.04-4.12-.38-5.65,1.06-2.41,3.17-.46,4.09.94,1.48,2.24,1.37,5.28,1.28,7.85-.11,3.14-.26,6.26-.06,9.43.25,3.9,1.61,9.62,5.5,11.56.13.02.26.04.39.06l.14.18c-.18-.07-.36-.15-.53-.24-4.56-.81-7.27-6.12-8.17-10.15ZM117.92,70.52c-.31-.28-.53-.6-.58-.97-.23-1.56,1.61-1.8,2.65-1.23,1.06.58,1.86,1.53,2.81,2.27.86.67,1.92,1.11,3.02.89-1.65.13-3.27.52-4.93.27-.77-.11-2.17-.53-2.96-1.24ZM195.2,73.93c-.72,1.55-3.33,2.25-4.81,2.69-2.87.86-5.87,1.19-8.84,1.39-2.75.19-6.16.8-8.84.35,3.33-1.45,6.74-2.71,10.17-3.88,3.08-1.04,6.47-2.9,9.75-3.15,1.66-.13,3.47.65,2.57,2.59ZM153.78,76.64c7.76,3.66,16.8-6.6,22.43-10.41,1.87-1.26,4.52-2.97,6.9-2.44,3.13.7,2.13,3.67.07,5.01-3.96,2.57-9.19,4.91-13.67,6.57-3.44,1.27-7.1,2.33-10.81,1.95-1.59-.16-3.35-1.16-4.91-.68ZM100.06,95.56c-2.32.06-1.8-1.95-.75-3.36,1.68-2.25,5.18-4.17,8.04-3.86l.51-.26c-1.21,2.75-4.46,7.39-7.8,7.48ZM114.4,83.69c-3.45.42-10.7,1.8-13.36-1.18-1.22-1.37-.81-3.15.74-4.15,1.86-1.2,4.13.12,5.67,1.27,1.25.93,2.35,2.04,3.6,2.97.73.54,1.57,1.04,2.47.99.32-.02.59-.04.88.09Z"/>
          <path class="cls-4" d="M342.37,141.63c-1.14-2.57-3.12-4.89-5.17-6.88-5.7-5.56-12.41-10.07-19.71-13.25-1.24-.54-2.6-1.05-3.92-.73-2.15.52-3.18,2.95-3.62,5.11-1.72,8.58.91,17.98-2.75,25.93-1.33,2.88-3.42,5.33-5.91,7.27-2.55,1.99-5.49,3.45-8.53,4.52-1.89.66-3.82,1.15-5.76,1.62-.34.08-.69.17-1.04.13-.03,0-.06,0-.08-.03-.02-.03,0-.07.01-.1.16-.33.39-.6.61-.89.25-.35.52-.69.8-1.02.57-.66,1.18-1.28,1.82-1.88,1.24-1.17,2.56-2.24,3.82-3.39,1.57-1.43,3.07-2.96,4.19-4.78,3.39-5.49,2.71-12.43,2.9-18.89.2-6.87,1.42-14.23-1.91-20.25-2.83-5.11-8.37-8.07-13.78-10.3-5.6-2.31-11.64-4.17-17.64-3.32-6,.85-11.87,5.11-12.86,11.08-1.21,7.32,4.76,13.61,9.91,18.94,2.54,2.63,4.99,5.35,7.28,8.2,2.3,2.86,4.44,5.84,6.35,8.98,1.88,3.1,3.53,6.36,4.82,9.75.47,1.24.9,2.49,1.27,3.76.19.64.37,1.29.53,1.95.13.52.31,1.04.31,1.58,0,.39-.1,1.31-.62,1.23-.39-.06-.75-.23-1.09-.43-.68-.41-1.26-.99-1.8-1.57-.9-.98-1.6-2.12-2.21-3.3-1.23-2.39-2.02-4.96-3.14-7.39-.01-.03-.03-.06-.04-.09-2.09-4.51-4.83-8.17-8.26-11.77-3.99-4.19-8.71-6.43-12.09-11.24-3.18-4.52-4.17-9.7-6.41-14.63-1.7-3.74-5.69-11.59-10.42-11.55-8.05.08-4.82,12.79-4.26,17.1.8,6.15,1.9,12.2,6,17.13,4.29,5.16,10.36,7.98,14.74,13.04,4.64,5.37,7.61,13.02,14.41,15.89,3.31,1.4,6.35,1.92,9.98,1.24.97-.18,1.89-.58,2.77-1.01.21-.1.43-.21.64-.32.19-.09.48-.33.69-.35.07,0,.12-.01.16.05-.42.6-1.24,1.1-1.85,1.49-.66.43-1.36.8-2.09,1.11-1.47.62-3.05.99-4.64,1.14-3.12.3-6.32-.21-9.22-1.36-5.9-2.34-10.64-6.82-15.19-11.24-4.55-4.42-9.21-8.97-15.03-11.49-5.08-2.2-10.25.82-12.22,5.67-1,2.47-1.28,5.18-1.44,7.84-.54,8.98.4,19.82,8.25,25.61,2.05,1.51,4.96,1.16,7.25.07,2.29-1.09,4.23-2.82,6.44-4.07,4.39-2.48,9.86-2.95,14.61-1.24,4.32,1.55,8.21,4.83,12.8,4.7,3.98-.11,7.51-2.89,9.59-6.29,2.04-3.33,2.88-7.17,3.76-10.93.02-.1.05-.21.07-.31,1.19,1.24,1.9,3.06,2.35,4.68.47,1.72.66,3.51.67,5.3,0,.03,0,.07,0,.1,0,1.42-.11,2.84-.3,4.24-.69,4.96-2.23,9.81-2.34,14.81-.25,10.98,6.29,20.82,9.6,31.29.62,1.96,2.06,4.48,3.99,3.76,2.04-.76,1.24-3.83.05-5.66-5.41-8.38-11.56-17.15-11.5-27.12.04-5.78,2.2-11.31,3.13-17.02.32-1.98.46-4,.21-5.99-.19-1.51-.59-2.99-1.15-4.4-.53-1.34-1.16-2.76-2.08-3.88-.36-.44-.73-.86-1.06-1.33.09.12.85-.06.99-.08.58-.08,1.17-.13,1.76-.17,1.49-.09,2.97.02,4.46.05,1.52.03,3.03,0,4.55,0,3.9-.06,7.81-.3,11.68-.77,3.84-.47,7.66-1.19,11.4-2.2,3.73-1.01,7.38-2.32,10.87-3.96.39-.18.77-.37,1.15-.56,4.99-2.48,10.11-6.47,10.42-12.03.1-1.73-.29-3.38-.98-4.94ZM239.63,118.95c-.56-1.6-1.86-8.9,1.78-6,2.54,2.02,3.33,6.76,4.36,9.67,1.14,3.21,2.74,6.53,4.6,9.26h-.17c-4.43-3.26-8.69-7.57-10.57-12.93ZM264.6,153.78c-1.86-2.63-3.92-4.78-6.36-6.89-2.08-1.8-4.53-2.85-6.72-4.47-1.73-1.28-4.7-4.31-4.46-6.72.33-3.25,4.36.46,5.63,1.39,2.77,2.02,5.28,4.51,7.97,6.67,2.21,1.77,4.33,3.8,5.81,6.21,1.39,2.26,2.44,4.73,3.65,7.09,1.11,2.18,3.21,4.52,4.15,6.67-4.39-2.15-6.91-6.06-9.66-9.94ZM247.72,172.84c-1.77-1.1-6-.68-7.8.17-1.84.86-4.99,5.54-7.04,5.32-3.59-.38,0-5.73,1.13-6.69,4.82-4.05,9.78-1.2,14.38,1.53l-.66-.33ZM266.76,175.62c-5.71-1.33-10.5-3.57-15.47-6.6-4.58-2.8-13.84-6.03-14.79-12.28,2.53-1.85,7.11,2.37,8.89,3.75,5.25,4.07,11.11,8.85,17.14,11.63,2.33,1.07,5.08,1.66,7.56,2.22,2.16.48,3.41-.06,5.49,0-1.74,1.74-6.33,1.86-8.82,1.29ZM277.4,112.63c.97-.44,2.55,1.75,3.05,2.38,1.8,2.27,3.17,5.27,4.76,7.73,3.41,5.3,7.17,10.52,6.6,17.23-.4,4.69-2.13,9.26-3.78,13.64,1.25-4.72,1.45-11.02-.57-15.59-1.72-3.89-4.8-6.71-7.02-10.25-2.2-3.49-2.96-7.6-3.35-11.65-.07-.73-.63-3.06.32-3.49ZM285.04,154.93c1.51-4.45-2.59-10.34-4.89-13.85-4.59-6.98-11.18-12.33-15.27-19.74-.95-1.73-3.48-7.39-1.44-9.16,1.64-1.43,5,5.73,5.8,7.43,1.49,3.14,2.57,6.56,4.72,9.34,2.38,3.06,5.22,5.76,7.46,8.91,1.86,2.62,2.87,5.53,3.41,8.63.27,1.56,1.44,7.27.2,8.45ZM318.04,149.12c-1.89,2.62-3.71,5.45-6.29,7.48-1.62,1.27-3.44,2.05-5.21,2.96-.55.37-1.14.71-1.76,1.01l.5-.33c.42-.24.84-.47,1.26-.68,3.72-2.48,5.9-6.37,6.54-10.96.47-3.43.36-6.93.87-10.35.38-2.53.45-6.08,1.84-8.27,1.29-2.04,3.97-2.62,5.71-.78,1.67,1.77,1.81,4.6,1.7,6.85-.12,2.44-.07,4.59-.97,6.91-.95,2.42-2.68,4.09-4.19,6.17ZM335.5,147.47c-2.24,1.23-4.53,2.26-6.88,3.27-2.48,1.06-4.93,2.02-7.43,2.7,2.46-1.84,4.82-3.98,7.15-6.1,2.12-1.94,5.78-5.58,9.12-4.48,3.07,1.01-.47,3.79-1.95,4.61Z"/>
          <path class="cls-4" d="M495.28,418.8c-1.14-2.57-3.12-4.89-5.17-6.88-5.7-5.56-12.41-10.07-19.71-13.25-1.24-.54-2.6-1.05-3.92-.73-2.15.52-3.18,2.95-3.62,5.11-1.72,8.58.91,17.98-2.75,25.93-1.33,2.88-3.42,5.33-5.91,7.27-2.55,1.99-5.49,3.45-8.53,4.52-1.89.66-3.82,1.15-5.76,1.62-.34.08-.69.17-1.04.13-.03,0-.06,0-.08-.03-.02-.03,0-.07.01-.1.16-.33.39-.6.61-.89.25-.35.52-.69.8-1.02.57-.66,1.18-1.28,1.82-1.88,1.24-1.17,2.56-2.24,3.82-3.39,1.57-1.43,3.07-2.96,4.19-4.78,3.39-5.49,2.71-12.43,2.9-18.89.2-6.87,1.42-14.23-1.91-20.25-2.83-5.11-8.37-8.07-13.78-10.3-5.6-2.31-11.64-4.17-17.64-3.32-6,.85-11.87,5.11-12.86,11.08-1.21,7.32,4.76,13.61,9.91,18.94,2.54,2.63,4.99,5.35,7.28,8.2,2.3,2.86,4.44,5.84,6.35,8.98,1.88,3.1,3.53,6.36,4.82,9.75.47,1.24.9,2.49,1.27,3.76.19.64.37,1.29.53,1.95.13.52.31,1.04.31,1.58,0,.39-.1,1.31-.62,1.23-.39-.06-.75-.23-1.09-.43-.68-.41-1.26-.99-1.8-1.57-.9-.98-1.6-2.12-2.21-3.3-1.23-2.39-2.02-4.96-3.14-7.39-.01-.03-.03-.06-.04-.09-2.09-4.51-4.83-8.17-8.26-11.77-3.99-4.19-8.71-6.43-12.09-11.24-3.18-4.52-4.17-9.7-6.41-14.63-1.7-3.74-5.69-11.59-10.42-11.55-8.05.08-4.82,12.79-4.26,17.1.8,6.15,1.9,12.2,6,17.13,4.29,5.16,10.36,7.98,14.74,13.04,4.64,5.37,7.61,13.02,14.41,15.89,3.31,1.4,6.35,1.92,9.98,1.24.97-.18,1.89-.58,2.77-1.01.21-.1.43-.21.64-.32.19-.09.48-.33.69-.35.07,0,.12-.01.16.05-.42.6-1.24,1.1-1.85,1.49-.66.43-1.36.8-2.09,1.11-1.47.62-3.05.99-4.64,1.14-3.12.3-6.32-.21-9.22-1.36-5.9-2.34-10.64-6.82-15.19-11.24-4.55-4.42-9.21-8.97-15.03-11.49-5.08-2.2-10.25.82-12.22,5.67-1,2.47-1.28,5.18-1.44,7.84-.54,8.98.4,19.82,8.25,25.61,2.05,1.51,4.96,1.16,7.25.07,2.29-1.09,4.23-2.82,6.44-4.07,4.39-2.48,9.86-2.95,14.61-1.24,4.32,1.55,8.21,4.83,12.8,4.7,3.98-.11,7.51-2.89,9.59-6.29,2.04-3.33,2.88-7.17,3.76-10.93.02-.1.05-.21.07-.31,1.19,1.24,1.9,3.06,2.35,4.68.47,1.72.66,3.51.67,5.3,0,.03,0,.07,0,.1,0,1.42-.11,2.84-.3,4.24-.69,4.96-2.23,9.81-2.34,14.81-.25,10.98,6.29,20.82,9.6,31.29.62,1.96,2.06,4.48,3.99,3.76,2.04-.76,1.24-3.83.05-5.66-5.41-8.38-11.56-17.15-11.5-27.12.04-5.78,2.2-11.31,3.13-17.02.32-1.98.46-4,.21-5.99-.19-1.51-.59-2.99-1.15-4.4-.53-1.34-1.16-2.76-2.08-3.88-.36-.44-.73-.86-1.06-1.33.09.12.85-.06.99-.08.58-.08,1.17-.13,1.76-.17,1.49-.09,2.97.02,4.46.05,1.52.03,3.03,0,4.55,0,3.9-.06,7.81-.3,11.68-.77,3.84-.47,7.66-1.19,11.4-2.2,3.73-1.01,7.38-2.32,10.87-3.96.39-.18.77-.37,1.15-.56,4.99-2.48,10.11-6.47,10.42-12.03.1-1.73-.29-3.38-.98-4.94ZM392.54,396.12c-.56-1.6-1.86-8.9,1.78-6,2.54,2.02,3.33,6.76,4.36,9.67,1.14,3.21,2.74,6.53,4.6,9.26h-.17c-4.43-3.26-8.69-7.57-10.57-12.93ZM417.51,430.96c-1.86-2.63-3.92-4.78-6.36-6.89-2.08-1.8-4.53-2.85-6.72-4.47-1.73-1.28-4.7-4.31-4.46-6.72.33-3.25,4.36.46,5.63,1.39,2.77,2.02,5.28,4.51,7.97,6.67,2.21,1.77,4.33,3.8,5.81,6.21,1.39,2.26,2.44,4.73,3.65,7.09,1.11,2.18,3.21,4.52,4.15,6.67-4.39-2.15-6.91-6.06-9.66-9.94ZM400.63,450.02c-1.77-1.1-6-.68-7.8.17-1.84.86-4.99,5.54-7.04,5.32-3.59-.38,0-5.73,1.13-6.69,4.82-4.05,9.78-1.2,14.38,1.53l-.66-.33ZM419.67,452.8c-5.71-1.33-10.5-3.57-15.47-6.6-4.58-2.8-13.84-6.03-14.79-12.28,2.53-1.85,7.11,2.37,8.89,3.75,5.25,4.07,11.11,8.85,17.14,11.63,2.33,1.07,5.08,1.66,7.56,2.22,2.16.48,3.41-.06,5.49,0-1.74,1.74-6.33,1.86-8.82,1.29ZM430.31,389.8c.97-.44,2.55,1.75,3.05,2.38,1.8,2.27,3.17,5.27,4.76,7.73,3.41,5.3,7.17,10.52,6.6,17.23-.4,4.69-2.13,9.26-3.78,13.64,1.25-4.72,1.45-11.02-.57-15.59-1.72-3.89-4.8-6.71-7.02-10.25-2.2-3.49-2.96-7.6-3.35-11.65-.07-.73-.63-3.06.32-3.49ZM437.95,432.11c1.51-4.45-2.59-10.34-4.89-13.85-4.59-6.98-11.18-12.33-15.27-19.74-.95-1.73-3.48-7.39-1.44-9.16,1.64-1.43,5,5.73,5.8,7.43,1.49,3.14,2.57,6.56,4.72,9.34,2.38,3.06,5.22,5.76,7.46,8.91,1.86,2.62,2.87,5.53,3.41,8.63.27,1.56,1.44,7.27.2,8.45ZM470.95,426.3c-1.89,2.62-3.71,5.45-6.29,7.48-1.62,1.27-3.44,2.05-5.21,2.96-.55.37-1.14.71-1.76,1.01l.5-.33c.42-.24.84-.47,1.26-.68,3.72-2.48,5.9-6.37,6.54-10.96.47-3.43.36-6.93.87-10.35.38-2.53.45-6.08,1.84-8.27,1.29-2.04,3.97-2.62,5.71-.78,1.67,1.77,1.81,4.6,1.7,6.85-.12,2.44-.07,4.59-.97,6.91-.95,2.42-2.68,4.09-4.19,6.17ZM488.41,424.64c-2.24,1.23-4.53,2.26-6.88,3.27-2.48,1.06-4.93,2.02-7.43,2.7,2.46-1.84,4.82-3.98,7.15-6.1,2.12-1.94,5.78-5.58,9.12-4.48,3.07,1.01-.47,3.79-1.95,4.61Z"/>
          <path class="cls-4" d="M269.49,485.75c.19-.17.36-.36.52-.55,1.95-2.36,2.53-5.54,3.98-8.24,2.25-4.18,6.47-6.95,10.83-8.81,4.36-1.86,9.01-2.99,13.37-4.87,2.37-1.02,4.93-2.69,5.13-5.27.23-3.07-2.97-5.16-5.8-6.38-5.74-2.48-11.9-4.39-16.68-8.43-3.13-2.64-5.55-6.5-6.02-10.62-.15-1.33-.36-4.82.96-5.71,1.72-1.16,3.02,1.69,3.98,2.65,1.06,1.05,2.27,1.92,3.53,2.7,4.35,2.71,8.81,5.38,13.96,6.16,5.08.76,10.14-.37,14.86-2.23,6.61-2.61,12.66-3.97,19.66-4.16,3.13-.09,7.51.24,9.68-2.8,2.23-3.13-.15-9.48-.97-12.91-.98-4.11-2.42-8.96-6.27-11.29-.95-.58-2.08-1.03-3.42-1.33-5.98-1.34-11.56,2.39-16.19,5.7-4.1,2.94-8.49,5.44-12.77,8.11-3.63,2.26-6.69,4.74-10.92,5.87-3.14.84-6.39,1.15-9.63,1.47-1.37.13-2.87.31-4.23.17,1.73.17,4.57-3.92,5.62-5.06,1.39-1.51,2.89-2.91,4.44-4.25,3.05-2.63,6.33-4.99,9.61-7.34,6.45-4.64,13.1-9.37,17.68-16,1.47-2.13,2.74-4.78,1.89-7.22-.94-2.69-3.99-3.92-6.74-4.63-11.04-2.85-22.61-2.51-34.01-2.15-2.79.09-5.89.32-7.77,2.38-2.56,2.82-1.35,7.34.56,10.63,1.91,3.29,4.48,6.59,4.25,10.39-.21,3.53-2.82,6.45-3.67,9.88-.78,3.17.08,6.7,2.24,9.15-6.01-.28-10.4-6.14-11.76-12.01-1.37-5.86-.63-12-1.32-17.98-.45-3.99-1.66-8.1-4.53-10.9s-7.76-3.82-10.96-1.4c-3.19,2.4-3.61,7.1-2.68,10.98s2.92,7.48,3.57,11.42c.73,4.4-.24,8.89-.34,13.35-.1,4.46.96,9.41,4.59,12.01,3.59,2.57,8.5,2.03,12.77.9,4.27-1.13,8.62-2.76,12.97-2.01-6.82,2.11-12.74,7.21-19.86,7.71-4.55.32-9.2-1.42-12.42-4.64-1.4-1.4-2.54-3.06-4.01-4.38-1.47-1.33-3.44-2.32-5.39-1.98-2.62.45-4.26,3.04-5.35,5.46-2.7,6.04-4.04,12.7-3.87,19.32.08,3.29.9,7.12,3.87,8.53,2.68,1.27,5.93-.1,8.07-2.15,2.14-2.04,3.61-4.7,5.68-6.82,4.21-4.31,10.37-5.9,15.92-8.25,6.46-2.73,12.4-6.68,17.42-11.58-3.73,5.58-2.29,13.51,2,18.67,4.29,5.16,10.81,7.97,17.34,9.54,1.82.44,4.14,1.43,3.89,3.28-.14,1.02-1.06,1.72-1.95,2.23-5.67,3.22-12.75,2.89-18.63,5.69-6.09,2.9-10.39,9.25-10.8,15.99-.07,1.1-.03,2.26.51,3.22s1.71,1.65,2.76,1.31c.32-.1.59-.29.84-.51ZM280.58,406.26s.03-.08.05-.12c-.82-2.59-1.93-5.04-3.31-7.4-1.96-3.33-5.61-6.71-5.93-10.76-.2-2.55,1.89-5.38,4.59-4.16,2.31,1.04,4.08,4.7,4.82,6.93,1.38,4.14,1.63,11.28-.17,15.39.03.11.07.21.1.32l-.15-.2ZM280.82,417.66c.32-3.09,2.08-6.34,3.08-9.33,1.51-4.54,1.5-9.55,3.15-14.11,2.49-6.86,11.2-10.19,17.56-6.26,6.8,4.2-1.82,8.48-5.39,10.41-4.66,2.53-8.83,5.8-12.42,9.75-2.56,2.82-4.43,6.08-5.98,9.54ZM252.39,408.57c-.56-2.49-.46-5.07-.86-7.58-.41-2.64-1.21-5.21-1.64-7.86-.29-1.73-1.16-4.55-.42-6.24,1.17-2.67,3.5-.51,4.52,1.03,1.63,2.48,1.51,5.84,1.41,8.68-.12,3.47-.28,6.93-.06,10.42.28,4.32,1.78,10.63,6.08,12.77.14.02.28.05.43.06l.15.2c-.2-.08-.39-.17-.58-.26-5.04-.89-8.04-6.77-9.04-11.22ZM248.85,420.32c-.34-.31-.58-.66-.64-1.07-.25-1.73,1.78-1.99,2.93-1.36,1.17.64,2.05,1.7,3.11,2.51.95.74,2.12,1.22,3.34.98-1.82.15-3.62.58-5.46.3-.85-.13-2.4-.58-3.28-1.37ZM334.29,424.1c-.79,1.71-3.68,2.48-5.32,2.98-3.17.95-6.48,1.32-9.78,1.54-3.04.21-6.82.88-9.78.39,3.68-1.6,7.45-3,11.24-4.29,3.4-1.15,7.15-3.21,10.78-3.48,1.83-.14,3.84.72,2.85,2.87ZM288.49,427.09c8.58,4.05,18.58-7.3,24.8-11.51,2.06-1.4,5-3.28,7.63-2.69,3.46.78,2.35,4.06.08,5.53-4.38,2.85-10.16,5.43-15.11,7.26-3.81,1.41-7.85,2.58-11.96,2.16-1.75-.18-3.7-1.28-5.43-.75ZM229.11,448.01c-2.56.07-1.99-2.15-.83-3.71,1.85-2.49,5.73-4.61,8.89-4.27l.57-.29c-1.33,3.04-4.93,8.17-8.63,8.27ZM244.97,434.89c-3.81.47-11.82,1.99-14.77-1.31-1.35-1.51-.89-3.48.82-4.59,2.06-1.33,4.56.13,6.26,1.41,1.38,1.03,2.6,2.26,3.98,3.29.8.6,1.73,1.15,2.73,1.1.35-.02.65-.05.97.1Z"/>
          <path class="cls-4" d="M410.94,320.21s.05-.03.08-.05c2.41-1.63,2.61-6.23.95-8.39-2.34-3.04-6.64-1.8-9.95-1.49-8.96.85-18.15,1.84-27.31,1.1-9.31-.75-21.82-4.66-25.86-13.79-3.64-8.22-2.11-15.8.45-24.22,1.64-5.37,2-10.83-4.68-6.13-4.43,3.11-5.25,9.15-5.82,14.07-.49,4.27-.15,8.44,1,12.69.87,3.19,3.74,7.07,1.62,10.2-5.08,7.5-14.76-14.64-16.64-18.46-1.62-3.3-6.23-11.95-9.46-6.13-2.07,3.73,2,10.88,3.56,14.02,3.8,7.64,7.87,15.41,14.34,21.14.96.85,2.06,1.7,3.34,1.75.96.03,1.88-.39,2.74-.82,3.01-1.5,6.73-4.83,10.22-4.86,2.98-.03,5.89.85,8.74,1.73,4.96,1.52,9.93,3.04,14.89,4.56,1.01.31,2.09.66,2.73,1.51,2.31,3.03-5.68,7.32-7.68,8.11-5.29,2.09-11.09,2.76-16.71,3.27-13.32,1.22-27.34,1.21-39.56,7.38-1.33.67-2.84,1.86-2.47,3.31.15.57.58,1.02,1.04,1.39,5.08,4.06,12.28-.03,17.58-1.48,5.93-1.62,11.79-2.3,17.93-2.4,12.19-.2,22.56-.58,32.24-8.78,6.45-5.46,14.01-10.7,22.86-10.29,2.78.13,7.27,2.71,9.83,1.1Z"/>
          <path class="cls-4" d="M153.98,163.88c.37-.32.73-.65,1.08-.98,3.53-3.43,6.97-10.9,11.87-4.38,6.37,8.48-5.09,11.26-11.19,13.57-7.19,2.72-15.39,6.6-20.34,12.73-3.74,4.64-7.75,20.58,2.62,12.75,4.56-3.44,5.7-9.8,11.74-11.44,4.36-1.18,9.26,1.43,8.87,6.83-.44,6.13-4.57,2.85-8.41,3.18-5.66.49-9.52,6.46-14.08,9.25-8.62,5.27-16.58,8.01-23.14,16.26-5.48,6.89-7.78,15.72-10.53,23.92-2.82,8.38-5.33,18.49-12.17,24.47-10.06,8.79-19.58,3.77-29.58-2.34-4.52-2.76-8.92-5.11-14.19-6.1-4.34-.82-8.41-.49-8.4-6.64,0-7.07,4.05-6.88,7.99-3.21,3.91,3.64,7.27,4.23,12.39,5.88,5.26,1.7,8.98,4.77,13.51,7.88,5.77,3.96,8.23,4.22,13.1-1.14,4.85-5.34,7.34-14.25,8.86-21.35,2.49-11.61-7.66-15.3-14.1-22.56-5.84-6.58-10.01-23.71,3.92-23.53,2.71.04,10.27,2.92,9.87,6.32-.59,5.15-8.84-2.16-12.04,1.64-3.4,4.03,2.6,9.45,5.21,12.09,4.31,4.36,8.67,6.44,14.56,3.44,5.11-2.6,11.7-8.2,15.36-12.4,4.04-4.64,6.69-11.44,9.42-16.74,3.4-6.63,3.12-9.77,9.1-14.14,3.25-2.37,6.54-4.68,9.83-7,2.86-2.02,6.18-3.94,8.88-6.26Z"/>
          <path class="cls-4" d="M257.66,300.37c-1.7-1.05-1.75-2.43-3.22.07-.66,1.13-.24,3.43-.71,4.75-1.22,3.38-3.95,5.67-5.79,8.65-1.94,3.16-3.1,6.51-4.15,10.04-1.27,4.25-5.48,16.94-12.13,14.36-5.64-2.19-1.47-14.04-.63-18.09.89-4.28.93-7.35-1.56-11.1-1.82-2.73-9.54-8.64-15.35-9.95,3.96-1.52,8.56-2.18,10.16-2.54,3.09-.69,6.5-.85,9.46-1.95,3.42-1.27,4.84-3.59,7.27-6.02,4.1-4.12,9.73-6.43,13.36-10.99,3.69-4.63,4.74-13.02.09-17.43-3.78-3.58-10-3.37-14.78-4.09-4.42-.66-8.88-4.67-13.26-4.37-11.65.81-8.09,19.09-8.09,26.5,0,4.95-.66,10.01-2.82,14.54-.94,1.97-1.89,3.16-3.54,5.38-.07-3.41.5-7.14.8-10.26.46-4.83,2.67-10.27.77-15.01-4.72-11.76-14.8-1.95-22.94-2.21-4.47-.14-8.75-5.01-13.4-2.81-3.58,1.69-4.58,7.23-3.57,10.68,2.37,8.12,15,12.96,22.44,14.07,3.63.55,8.47-.12,11.75,1.7,2.15,1.19,2.73,2.93,3.43,4.65,0,0,0,0,0,0-.03,0-.05,0-.07,0-1.64.03-4.25,1.4-5.77,2.04-2.27.95-4.55,1.98-7.02,2.26-4.62.54-9.55.06-14.04-1.22-5.86-1.66-10.51-4.65-15.27-8.21-4.28-3.21-8.49-6.69-14.26-5.45-7.17,1.54-6.89,7.83-6.28,13.59.83,7.93-4.02,13.71-6.7,20.58-3.56,9.13,3.86,11.77,11.52,9.48,4.82-1.44,8.66-4.96,12.76-7.72,4.29-2.9,9.28-4.38,14.36-5.11,7.99-1.15,13.41-1.59,20.27-6.14,2.74-1.82,5.61-3.46,8.02-5.73,1.24-1.17,1.49-2.2,2.08-3.84.21-.57.55-1.81.71-3.19.02-.01.04-.02.06-.03.69,3.17,1.26,6.46.61,9.74-1.9,9.58-10.93,13.41-18.67,17.27-9.18,4.57-19.04,9.41-17.93,21.07.86,9.05,11.62,11.7,18.98,6.91,4.64-3.02,4.68-7.9,6.96-12.24,2.96-5.65,8.18-8.2,12.23-12.82,3.67-4.18,4.55-9.52,3.47-14.74-.89-4.33-1.88-11.49-4.77-15.31,9.7,4.2,15.5,11.61,13.05,23.85-1.37,6.82-6.52,14.35.53,19.87,4.68,3.66,12.3,2.31,16.75-1.19,5.29-4.15,4.01-11.6,6.17-17.45,2.62-7.09,8.61-11.24,12.23-17.64,2.14-3.78-.34-5.21-3.55-7.19ZM232.31,285.28c2.22-2.94,3.56-4.59,4.55-8.15.84-3.02,1.26-6.2,2.49-9.1,1.42-3.34,4.2-5.34,7.78-4.04,10.29,3.75-1.31,12.96-5.84,15.5-1.84,1.03-3.57,2.2-5.37,3.3-1.35.83-2.87,2.7-4.26,3.17l.66-.68ZM219.12,291.7s.1-.07.15-.11c2.66-3.69,3.45-8.18,3.01-12.69-.44-4.57-2.29-13.61,2.05-16.85,1.37-1.03,3.13-1.47,4.63-.52,3.36,2.13,1.18,5.96.46,9.03-.99,4.17.91,8.43-1.24,12.35-1.8,3.27-5.88,6.45-8.91,8.68-.1.14-.19.28-.3.41l.15-.3ZM201.45,288.59s0-.02-.01-.03c-.49-.39-1.21-.53-1.84-.69-1.99-.52-3.97-1.04-5.98-1.55-2.83-.72-6.61-1.33-8.59-3.61-1.5-1.72-2.84-4.58-1.57-6.72,1.13-1.9,3.2-2.37,5.15-1.59,2.71,1.08,4.23,4.97,6.28,7.01,2.22,2.22,5.13,4.33,6.54,7.15.2.16.37.36.47.63l-.45-.6ZM208.23,282.04c-.29,1.94-.44,2.79-.29,4.74-.07.19-.36,1.87-.45,1.81-.63-3.3-1.82-4.75-3.53-7.47-1.09-1.72-1.79-4.25-.84-6.19.92-1.86,3.59-2.97,4.84-.86,1.26,2.12.63,5.6.27,7.97ZM168.41,317.62c-1.94,1.03-3.61,2.33-5.48,3.51-3.29,2.08-7.02,5.42-11.14,5.44-5.35.02-3.5-5.65-1.05-8.31,2.84-3.07,6.95-4.36,11.01-3.89,2.69.31,5.33.94,8.12,1.02,1.17.04,2.29-.34,3.36,0-1.45,1.01-3.26,1.39-4.83,2.23ZM185.34,311.93c-7.87,1.35-16.49.83-23.44-3.44-1.77-1.09-4.22-2.76-4.37-5.04-.19-2.87,3.38-5.27,5.84-5.7,4.27-.75,8.65,2.1,12.3,3.92,3.41,1.7,6.62,3.25,10.44,3.89,5.38.9,13.79,2.42,18.53-.57-5.52,4.31-12.42,5.77-19.3,6.95ZM198.4,340.82c-.7,1.67-6.26,13.65-8.75,9.33-1.13-1.96,1.68-5.26,2.88-6.5,2.46-2.55,6.06-4.99,7.69-8.15v-.15c.86.33-1.44,4.58-1.81,5.48ZM208.95,321.79s0,0,0,0c-.95,1.67-3.58,4.02-4.28,4.72-2.63,2.64-5.59,4.66-8.5,7-1.89,1.52-3.27,3.48-4.47,5.54-1.1,1.89-2.06,4.46-3.85,5.8-1.52,1.14-4.3,1.92-5.51-.07-1.05-1.73-.04-4.76.9-6.35,1.33-2.26,3.59-3.48,5.78-4.75,2.15-1.24,4.15-2.7,6.37-3.77,4.88-2.37,9.4-4.58,13.57-8.12,0,0,0,0,0,0h0Z"/>
          <path class="cls-4" d="M68.22,143.66s.05-.03.08-.05c2.41-1.63,2.61-6.23.95-8.39-2.34-3.04-6.64-1.8-9.95-1.49-8.96.85-18.15,1.84-27.31,1.1-9.31-.75-21.82-4.66-25.86-13.79-3.64-8.22-2.11-15.8.45-24.22,1.64-5.37,2-10.83-4.68-6.13-4.43,3.11-5.25,9.15-5.82,14.07-.49,4.27-.15,8.44,1,12.69.87,3.19,3.74,7.07,1.62,10.2-5.08,7.5-14.76-14.64-16.64-18.46-1.62-3.3-6.23-11.95-9.46-6.13-2.07,3.73,2,10.88,3.56,14.02,3.8,7.64,7.87,15.41,14.34,21.14.96.85,2.06,1.7,3.34,1.75.96.03,1.88-.39,2.74-.82,3.01-1.5,6.73-4.83,10.22-4.86,2.98-.03,5.89.85,8.74,1.73,4.96,1.52,9.93,3.04,14.89,4.56,1.01.31,2.09.66,2.73,1.51,2.31,3.03-5.68,7.32-7.68,8.11-5.29,2.09-11.09,2.76-16.71,3.27-13.32,1.22-27.34,1.21-39.56,7.38-1.33.67-2.84,1.86-2.47,3.31.15.57.58,1.02,1.04,1.39,5.08,4.06,12.28-.03,17.58-1.48,5.93-1.62,11.79-2.3,17.93-2.4,12.19-.2,22.56-.58,32.24-8.78,6.45-5.46,14.01-10.7,22.86-10.29,2.78.13,7.27,2.71,9.83,1.1Z"/>
        </g>
        <path class="cls-2" d="M404.01,246.71c-.83-18.33-41.65-93.3-50.81-104.37-9.16-11.07-68.31-86.39-77.47-91.39-9.16-5-62.48-31.65-62.48-31.65l-6.74-3.37s-3.26.04-11.59,0c-8.33-.04-22.18-5.93-22.18-5.93-3.2,1.72-14.92,6.87-28.5,11.82-.55.2-1.1.4-1.66.6-12.92,4.64-27.26,8.97-37.49,9.97-8.25,1.23-11.43-.05-21.08-.06-8.92,1.63-13.56,6.17-13.56,6.17t0,0c-2.07,3.1-4.66,5.36-7.51,6.49h-9.86c-.33.49-.72,1.03-1.12,1.57l-8.85,12.27h0s-2.22,4.08-2.22,4.08l-6.96,12.79s-.04.1-.06.15c-.04.43-.73,8.09-2.64,12.07l-3.25,14.87s0,.02,0,.03l2.22-2.47.59-1.16c.34-.19.66-.39.99-.58l10.67-11.83s0,0,0,0h0c2.4-5.22,10.16,7.66,12.57,18.19.76,2.31,1.11,4.64.78,6.82-.06.37-.17.7-.26,1.04-.02.13-.04.26-.07.38-.03.13-.08.25-.12.38-.02.05-.03.11-.05.17-.15.41-.35.8-.54,1.18-1.86,3.64-5.68,6.01-9.59,8.48-4.59,3.37-9.32,7.17-11.14,12.28-.63,2.52-.71,4.96-.5,7.33.49,2.51.87,4.76,1.18,6.8,1.3,5.84,2.69,11.39-.55,16.94-1.57,2.7-4.06,4.05-6.84,4.82-2.87,1.69-6.64,1.26-9.95,1.4-2.45.34-4.57.89-5.9,2.21-.62.74-1.11,1.7-1.4,3.02,0,0,0,0,0,0,0,.03-.01.06-.02.1-.03.3-.05.61-.05.94,0,9.71,12.03,18.75,18.13,28.32.01.02.03.04.04.05,3.14,4.18,3.88,8.07,3.93,12.86.15,3.35-.12,6.65-.28,9.71-.17,6.21.88,9.48,2.42,12.11.68,1.02,1.56,2.3,2.61,3.78.16.23.32.45.49.69.03.04.06.08.09.13.1.14.21.3.35.49,4.08,5.51,26.19,31.88,31.12,36.85.16.17.31.31.44.43.07.06.13.12.2.19.18.17.35.33.52.5,2.26,2.13,4.5,4.08,6.66,5.78,3.31,2.35,7.42,4.39,12.02,4.45,5.01-.31,9.63-3.14,14.05-6.43,3.06-2.97,6.11-5.23,9.11-6.91,2.88-1.97,5.72-3.47,8.59-3.84,1.85-.24,3.86-.36,5.92-.38,2.26-.1,4.44.04,6.53.35,6.14.7,12.31,2.5,17.03,5.82.02,0,.04.02.06.03,5.86,2.72,8.37,8.62,8.31,15.47.18,5.03-1.37,9.66-3.17,14.05-1.1,2.8-1.93,4.94-2.57,6.76-.17.47-.32.93-.46,1.37-1.32,4.07-1.72,7-2.48,14.07-.03.24-.06.51-.08.75-.04.37-.08.74-.12,1.13-1.26,11.42-3.45,29.61,1.31,40.45.07.14.14.29.2.44.13.27.26.53.39.79.23.47.46.93.72,1.39,3.98,7.18,10.74,13.56,16.6,18.5,2.08,1.7,4.35,3.54,6.87,5.62,0,0,0,0,0,0,2.45,2,4.22,3.96,5.73,6.31,3.86,5.59,5.82,12,7.94,18.13,5.36,13.81,8.76,16.25,12.27,19.18h0c4.56,2.72,7.54-.17,12.78-.99,0,0,0,0,0,0,4.43-1.17,4.23-1.88,10.56,2.52.24.16.46.32.72.5.43.3.87.63,1.31.98.01.01.03.02.04.03,7.37,5.87,13.85,15.82,13.85,15.82,0,0,7.22,0,15.49,1.8.01,0,.03,0,.04,0,9.35,1.45,8.92-.1,16.17,6.7.01.01.03.03.04.04.87.68,1.69,1.43,2.49,2.22,3.96,3.32,3.64,2.19,10.28,14.64.48.9,1,1.87,1.55,2.92,0,.02.02.03.03.05,9.65,18.17,11.7,20.49,16.21,24.07h0s0,0,0,0c2.88,1.63,5.64,2.14,7.79,2.19,2.42-.03,4.28-.49,4.28-.49,0,0,1.49-2.15,3.43-4.94,1-2.02,2.31-3.87,3.81-5.5.03-.03.06-.07.09-.1,1.23-1.76,2.39-3.43,3.28-4.7,3.37-4.8,11.14-19.75,11.14-19.75h0s17.62-10.16,17.62-10.16h1.3l19.95-10.16h0s9.07-16.08,9.07-16.08h0s1.81-5.93,7.53-10.24c5.72-4.31,20.82-64.97,24.16-77.47,3.33-12.5-11.66-97.46-12.5-115.79Z"/>
      </g>
    </g>
    <path class="cls-3" d="M550.74,665.28c-6.92,0-12.73,4.68-14.48,11.04H251.01v-132.1c6.36-1.75,11.04-7.57,11.04-14.48,0-8.3-6.73-15.04-15.04-15.04s-15.04,6.73-15.04,15.04c0,6.92,4.68,12.73,11.04,14.48v136.1c0,2.21,1.79,4,4,4h289.25c1.75,6.36,7.57,11.04,14.48,11.04,8.3,0,15.04-6.73,15.04-15.04s-6.73-15.04-15.04-15.04Z"/>
  </g>
</svg>