<?xml version="1.0" encoding="UTF-8"?>
<svg id="Calque_2" data-name="Calque 2" xmlns="http://www.w3.org/2000/svg" xmlns:xlink="http://www.w3.org/1999/xlink" viewBox="0 0 193.24 242.98">
  <defs>
    <style>
      .cls-1 {
        fill: none;
      }

      .cls-2 {
        fill: #567d55;
      }

      .cls-3, .cls-4 {
        opacity: .3;
      }

      .cls-3, .cls-5 {
        fill: #fff;
      }

      .cls-4, .cls-6 {
        fill: #a8be9b;
      }

      .cls-7 {
        clip-path: url(#clippath);
      }
    </style>
    <clipPath id="clippath">
      <path id="H-2" data-name="H" class="cls-1" d="M105.87,46.39c-.8-.47-1.21-1.14-1.21-1.14,0,0,0,0,0,0,0,0-.9.35-1.46.82-.56.47-.93,1.59-2.15,2.48-1.21.89-2.15-.24-3.92,0-1.78.24-3.18,1.54-4.3,3.31s-3.46,2.62-3.46,2.62c0,0-2.71,1.59-4.11,2.34-1.4.75-3.64.93-5.42.84-1.78-.09-2.71-1.03-3.92-1.4-1.21-.37-4.67-.84-5.89.19-1.21,1.03-3.46,1.96-2.34,4.93,1.12,2.97,4.2,4.04,7.01,5.44,2.8,1.4,2.52.47,4.02,3.08,1.5,2.62,2.62,3.27,5.14,3.27s2.52-1.21,3.92-2.15c1.4-.93,1.68,1.96,3.74,2.9,2.06.93,3.64-2.71,4.77-1.87,2.41,1.81.65,2.8,1.21,5.33.56,2.52,3.27,2.06,4.77,1.57,1.5-.48,2.43,1.04,3.64.48s.37-1.78.75-2.71c.37-.93,1.4-.84,2.52-2.24,1.12-1.4-.47-2.8-.47-3.85s1.03-3.53,2.06-6.46c1.03-2.93-1.68-4.45-2.21-5.39-.53-.93-.87-1.5-.22-1.96.65-.47-.28-2.24-1.11-2.99-.83-.75-3.47-1.31-4.4-1.59-.93-.28-.93-1.4-.37-2.37.56-.97,4.22-3,4.22-3,0,0,0,0,0,0-.27-.14-.54-.3-.79-.47h0Z"/>
    </clipPath>
  </defs>
  <g id="Header">
    <g>
      <g>
        <g>
          <path id="H" class="cls-6" d="M105.87,46.39c-.8-.47-1.21-1.14-1.21-1.14,0,0,0,0,0,0,0,0-.9.35-1.46.82-.56.47-.93,1.59-2.15,2.48-1.21.89-2.15-.24-3.92,0-1.78.24-3.18,1.54-4.3,3.31s-3.46,2.62-3.46,2.62c0,0-2.71,1.59-4.11,2.34-1.4.75-3.64.93-5.42.84-1.78-.09-2.71-1.03-3.92-1.4-1.21-.37-4.67-.84-5.89.19-1.21,1.03-3.46,1.96-2.34,4.93,1.12,2.97,4.2,4.04,7.01,5.44,2.8,1.4,2.52.47,4.02,3.08,1.5,2.62,2.62,3.27,5.14,3.27s2.52-1.21,3.92-2.15c1.4-.93,1.68,1.96,3.74,2.9,2.06.93,3.64-2.71,4.77-1.87,2.41,1.81.65,2.8,1.21,5.33.56,2.52,3.27,2.06,4.77,1.57,1.5-.48,2.43,1.04,3.64.48s.37-1.78.75-2.71c.37-.93,1.4-.84,2.52-2.24,1.12-1.4-.47-2.8-.47-3.85s1.03-3.53,2.06-6.46c1.03-2.93-1.68-4.45-2.21-5.39-.53-.93-.87-1.5-.22-1.96.65-.47-.28-2.24-1.11-2.99-.83-.75-3.47-1.31-4.4-1.59-.93-.28-.93-1.4-.37-2.37.56-.97,4.22-3,4.22-3,0,0,0,0,0,0-.27-.14-.54-.3-.79-.47h0Z"/>
          <g class="cls-7">
            <path class="cls-2" d="M71.33,63.49c.39-.08.78-.1,1.17-.11.39-.02.78.06,1.17.07.26,0,.52,0,.78-.03,1.04-.1,2.09-.1,3.12.11v.03c-.26.04-.52.06-.78.07-.78.05-1.56.02-2.34-.06-.26-.03-.52-.04-.78-.03-.39.02-.78.1-1.17.08-.39,0-.78-.03-1.17-.11v-.03h0Z"/>
            <path class="cls-2" d="M75.98,59.12c-.07-.07-.08-.32-.19-.21-.21.2-.47.77-.53.83.28-2.16.23-1.92.41-2.84.17-.92.39-2.38.3-3.35-.28-.08-.31-.06-.58-.2-.36.87-.51,1.87-.64,2.82-.11.82-.21.8-.3,1.38.03-.59-.16-1.06-.16-1.06,0,0-.23-.16-.24-.03-.02.19.21,2.13.21,2.33,0,1.57-.34,3.52-.62,4.7l.87.05c.14-.99,1.66-4.33,1.48-4.42ZM74.48,60.75c0,.14,0,.27-.04.4-.03.16-.08.31-.11.47-.03.19-.05.52-.14.67,0-.31.03-.6.06-.9.02-.16.05-.31.08-.47.03-.12.08-.26.09-.38l.06-.16s0,.25,0,.37ZM75.03,55.84c.03-.25.07-.5.11-.74.04-.19.11-.41.12-.61l.08-.26s0,.4,0,.59c0,.22-.01.43-.05.63-.05.25-.11.49-.15.75-.05.31-.07.83-.2,1.08,0-.49.04-.96.09-1.44ZM74.58,59.34c-.07-.11-.03-.34-.03-.47,0-.17.03-.34.05-.51.03-.21.02-.65.17-.81h.01c-.05.19-.02.43-.03.63-.02.17-.03.35-.06.52-.03.21-.1.44-.12.64ZM75.15,58.48c0,.22-.01.43-.05.63-.05.25-.11.49-.15.75-.05.31-.07.83-.2,1.08,0-.49.04-.96.09-1.44.03-.25.07-.5.11-.74.04-.19.11-.41.12-.61l.08-.26s0,.4,0,.59Z"/>
            <path class="cls-2" d="M82.95,66.31c.39-.08.78-.1,1.17-.11.39-.02.78.06,1.17.07.26,0,.52,0,.78-.03,1.04-.1,2.09-.1,3.12.11v.03c-.26.04-.52.06-.78.07-.78.05-1.56.02-2.34-.06-.26-.03-.52-.04-.78-.03-.39.02-.78.1-1.17.08-.39,0-.78-.03-1.17-.11v-.03h0Z"/>
            <path class="cls-2" d="M87.6,61.94c-.07-.07-.08-.32-.19-.21-.21.2-.47.77-.53.83.28-2.16.23-1.92.41-2.84.17-.92.39-2.38.3-3.35-.28-.08-.31-.06-.58-.2-.36.87-.51,1.87-.64,2.82-.11.82-.21.8-.3,1.38.03-.59-.16-1.06-.16-1.06,0,0-.23-.16-.24-.03-.02.19.21,2.13.21,2.33,0,1.57-.34,3.52-.62,4.7l.87.05c.14-.99,1.66-4.33,1.48-4.42ZM86.09,63.57c0,.14,0,.27-.04.4-.03.16-.08.31-.11.47-.03.19-.05.52-.14.67,0-.31.03-.6.06-.9.02-.16.05-.31.08-.47.03-.12.08-.26.09-.38l.06-.16s0,.25,0,.37ZM86.65,58.66c.03-.25.07-.5.11-.74.04-.19.11-.41.12-.61l.08-.26s0,.4,0,.59c0,.22-.01.43-.05.63-.05.25-.11.49-.15.75-.05.31-.07.83-.2,1.08,0-.49.04-.96.09-1.44ZM86.19,62.16c-.07-.11-.03-.34-.03-.47,0-.17.03-.34.05-.51.03-.21.02-.65.17-.81h.01c-.05.19-.02.43-.03.63-.02.17-.03.35-.06.52-.03.21-.1.44-.12.64ZM86.76,61.3c0,.22-.01.43-.05.63-.05.25-.11.49-.15.75-.05.31-.07.83-.2,1.08,0-.49.04-.96.09-1.44.03-.25.07-.5.11-.74.04-.19.11-.41.12-.61l.08-.26s0,.4,0,.59Z"/>
            <path class="cls-2" d="M91.98,57.71c.39-.08.78-.1,1.17-.11.39-.02.78.06,1.17.07.26,0,.52,0,.78-.03,1.04-.1,2.09-.1,3.12.11v.03c-.26.04-.52.06-.78.07-.78.05-1.56.02-2.34-.06-.26-.03-.52-.04-.78-.03-.39.02-.78.1-1.17.08-.39,0-.78-.03-1.17-.11v-.03h0Z"/>
            <path class="cls-2" d="M96.63,53.34c-.07-.07-.08-.32-.19-.21-.21.2-.47.77-.53.83.28-2.16.23-1.92.41-2.84.17-.92.39-2.38.3-3.35-.28-.08-.31-.06-.58-.2-.36.87-.51,1.87-.64,2.82-.11.82-.21.8-.3,1.38.03-.59-.16-1.06-.16-1.06,0,0-.23-.16-.24-.03-.02.19.21,2.13.21,2.33,0,1.57-.34,3.52-.62,4.7l.87.05c.14-.99,1.66-4.33,1.48-4.42ZM95.12,54.97c0,.14,0,.27-.04.4-.03.16-.08.31-.11.47-.03.19-.05.52-.14.67,0-.31.03-.6.06-.9.02-.16.05-.31.08-.47.03-.12.08-.26.09-.38l.06-.16s0,.25,0,.37ZM95.68,50.06c.03-.25.07-.5.11-.74.04-.19.11-.41.12-.61l.08-.26s0,.4,0,.59c0,.22-.01.43-.05.63-.05.25-.11.49-.15.75-.05.31-.07.83-.2,1.08,0-.49.04-.96.09-1.44ZM95.23,53.56c-.07-.11-.03-.34-.03-.47,0-.17.03-.34.05-.51.03-.21.02-.65.17-.81h.01c-.05.19-.02.43-.03.63-.02.17-.03.35-.06.52-.03.21-.1.44-.12.64ZM95.79,52.69c0,.22-.01.43-.05.63-.05.25-.11.49-.15.75-.05.31-.07.83-.2,1.08,0-.49.04-.96.09-1.44.03-.25.07-.5.11-.74.04-.19.11-.41.12-.61l.08-.26s0,.4,0,.59Z"/>
            <path class="cls-2" d="M99.09,75.77c.39-.08.78-.1,1.17-.11.39-.02.78.06,1.17.07.26,0,.52,0,.78-.03,1.04-.1,2.09-.1,3.12.11v.03c-.26.04-.52.06-.78.07-.78.05-1.56.02-2.34-.06-.26-.03-.52-.04-.78-.03-.39.02-.78.1-1.17.08-.39,0-.78-.03-1.17-.11v-.03h0Z"/>
            <path class="cls-2" d="M103.74,71.4c-.07-.07-.08-.32-.19-.21-.21.2-.47.77-.53.83.28-2.16.23-1.92.41-2.84.17-.92.39-2.38.3-3.35-.28-.08-.31-.06-.58-.2-.36.87-.51,1.87-.64,2.82-.11.82-.21.8-.3,1.38.03-.59-.16-1.06-.16-1.06,0,0-.23-.16-.24-.03-.02.19.21,2.13.21,2.33,0,1.57-.34,3.52-.62,4.7l.87.05c.14-.99,1.66-4.33,1.48-4.42ZM102.23,73.03c0,.14,0,.27-.04.4-.03.16-.08.31-.11.47-.03.19-.05.52-.14.67,0-.31.03-.6.06-.9.02-.16.05-.31.08-.47.03-.12.08-.26.09-.38l.06-.16s0,.25,0,.37ZM102.79,68.12c.03-.25.07-.5.11-.74.04-.19.11-.41.12-.61l.08-.26s0,.4,0,.59c0,.22-.01.43-.05.63-.05.25-.11.49-.15.75-.05.31-.07.83-.2,1.08,0-.49.04-.96.09-1.44ZM102.34,71.62c-.07-.11-.03-.34-.03-.47,0-.17.03-.34.05-.51.03-.21.02-.65.17-.81h.01c-.05.19-.02.43-.03.63-.02.17-.03.35-.06.52-.03.21-.1.44-.12.64ZM102.9,70.75c0,.22-.01.43-.05.63-.05.25-.11.49-.15.75-.05.31-.07.83-.2,1.08,0-.49.04-.96.09-1.44.03-.25.07-.5.11-.74.04-.19.11-.41.12-.61l.08-.26s0,.4,0,.59Z"/>
            <path class="cls-2" d="M91.98,70.75c.39-.08.78-.1,1.17-.11.39-.02.78.06,1.17.07.26,0,.52,0,.78-.03,1.04-.1,2.09-.1,3.12.11v.03c-.26.04-.52.06-.78.07-.78.05-1.56.02-2.34-.06-.26-.03-.52-.04-.78-.03-.39.02-.78.1-1.17.08-.39,0-.78-.03-1.17-.11v-.03h0Z"/>
            <path class="cls-2" d="M96.63,66.38c-.07-.07-.08-.32-.19-.21-.21.2-.47.77-.53.83.28-2.16.23-1.92.41-2.84.17-.92.39-2.38.3-3.35-.28-.08-.31-.06-.58-.2-.36.87-.51,1.87-.64,2.82-.11.82-.21.8-.3,1.38.03-.59-.16-1.06-.16-1.06,0,0-.23-.16-.24-.03-.02.19.21,2.13.21,2.33,0,1.57-.34,3.52-.62,4.7l.87.05c.14-.99,1.66-4.33,1.48-4.42ZM95.12,68.01c0,.14,0,.27-.04.4-.03.16-.08.31-.11.47-.03.19-.05.52-.14.67,0-.31.03-.6.06-.9.02-.16.05-.31.08-.47.03-.12.08-.26.09-.38l.06-.16s0,.25,0,.37ZM95.68,63.1c.03-.25.07-.5.11-.74.04-.19.11-.41.12-.61l.08-.26s0,.4,0,.59c0,.22-.01.43-.05.63-.05.25-.11.49-.15.75-.05.31-.07.83-.2,1.08,0-.49.04-.96.09-1.44ZM95.23,66.6c-.07-.11-.03-.34-.03-.47,0-.17.03-.34.05-.51.03-.21.02-.65.17-.81h.01c-.05.19-.02.43-.03.63-.02.17-.03.35-.06.52-.03.21-.1.44-.12.64ZM95.79,65.74c0,.22-.01.43-.05.63-.05.25-.11.49-.15.75-.05.31-.07.83-.2,1.08,0-.49.04-.96.09-1.44.03-.25.07-.5.11-.74.04-.19.11-.41.12-.61l.08-.26s0,.4,0,.59Z"/>
            <path class="cls-2" d="M98.19,62.24c.39-.08.78-.1,1.17-.11.39-.02.78.06,1.17.07.26,0,.52,0,.78-.03,1.04-.1,2.09-.1,3.12.11v.03c-.26.04-.52.06-.78.07-.78.05-1.56.02-2.34-.06-.26-.03-.52-.04-.78-.03-.39.02-.78.1-1.17.08-.39,0-.78-.03-1.17-.11v-.03h0Z"/>
            <path class="cls-2" d="M102.84,57.87c-.07-.07-.08-.32-.19-.21-.21.2-.47.77-.53.83.28-2.16.23-1.92.41-2.84.17-.92.39-2.38.3-3.35-.28-.08-.31-.06-.58-.2-.36.87-.51,1.87-.64,2.82-.11.82-.21.8-.3,1.38.03-.59-.16-1.06-.16-1.06,0,0-.23-.16-.24-.03-.02.19.21,2.13.21,2.33,0,1.57-.34,3.52-.62,4.7l.87.05c.14-.99,1.66-4.33,1.48-4.42ZM101.33,59.5c0,.14,0,.27-.04.4-.03.16-.08.31-.11.47-.03.19-.05.52-.14.67,0-.31.03-.6.06-.9.02-.16.05-.31.08-.47.03-.12.08-.26.09-.38l.06-.16s0,.25,0,.37ZM101.89,54.59c.03-.25.07-.5.11-.74.04-.19.11-.41.12-.61l.08-.26s0,.4,0,.59c0,.22-.01.43-.05.63-.05.25-.11.49-.15.75-.05.31-.07.83-.2,1.08,0-.49.04-.96.09-1.44ZM101.44,58.09c-.07-.11-.03-.34-.03-.47,0-.17.03-.34.05-.51.03-.21.02-.65.17-.81h.01c-.05.19-.02.43-.03.63-.02.17-.03.35-.06.52-.03.21-.1.44-.12.64ZM102,57.22c0,.22-.01.43-.05.63-.05.25-.11.49-.15.75-.05.31-.07.83-.2,1.08,0-.49.04-.96.09-1.44.03-.25.07-.5.11-.74.04-.19.11-.41.12-.61l.08-.26s0,.4,0,.59Z"/>
            <path class="cls-2" d="M105.85,66.91c1.41-.42,2.91-.27,4.36-.25.19,0,.43,0,.62,0,.67,0,1.33.13,2,.16.33.02.66.02.98-.08-.07.04-.15.08-.23.11-.56.19-1.17.16-1.76.15-.33,0-.67-.03-.98-.01-.21,0-.42.01-.63.01-1.46,0-2.9-.22-4.36-.1h0Z"/>
            <path class="cls-2" d="M107.94,61.05c.55-.14,1.12-.19,1.68-.21.57-.02,1.14,0,1.69.13-.97.24-2.4.32-3.38.08h0Z"/>
            <path class="cls-2" d="M90.25,60.56c.55-.17,1.11-.38,1.69-.32.2.03.41.09.56.24-.19-.01-.37,0-.55.04-.52.08-1.19.27-1.7.04h0Z"/>
            <path class="cls-2" d="M76.87,61.15c.93.19,1.85-.04,2.79-.09.24-.01.48-.02.72,0,.71.06,1.4.08,2.11.17-.47.09-.94.13-1.41.16-.35.02-.7,0-1.05.01-.98.03-2.26.26-3.16-.25h0Z"/>
            <path class="cls-2" d="M105.33,56.4c.93.19,1.85-.04,2.79-.09.24-.01.48-.02.72,0,.71.06,1.4.08,2.11.17-.47.09-.94.13-1.41.16-.35.02-.7,0-1.05.01-.98.03-2.26.26-3.16-.25h0Z"/>
            <path class="cls-2" d="M80.33,64.6c.61-.32,1.56-.33,2.17,0-.57.15-1.6.15-2.17,0h0Z"/>
            <path class="cls-2" d="M69.16,59.19c.61-.32,1.56-.33,2.17,0-.57.15-1.6.15-2.17,0h0Z"/>
            <path class="cls-2" d="M76.67,68.68c.46-.23,1-.28,1.51-.29.63-.01,1.25.07,1.87.01.74-.07,1.99-.37,2.65.03-.25-.07-.5-.05-.74-.03-.25.03-.49.08-.74.13-.37.08-.75.16-1.13.21-.26.03-.53.03-.79.02-.88-.04-1.76-.24-2.63-.09h0Z"/>
            <path class="cls-2" d="M82.79,70.79c.46-.23,1-.28,1.51-.29.63-.01,1.25.07,1.87.01.74-.07,1.99-.37,2.65.03-.25-.07-.5-.05-.74-.03-.25.03-.49.08-.74.13-.37.08-.75.16-1.13.21-.26.03-.53.03-.79.02-.88-.04-1.76-.24-2.63-.09h0Z"/>
            <path class="cls-2" d="M87.68,72.7c.42-.27,1.08-.26,1.57-.26.52.02,1.03,0,1.56.02.35.02.72.04,1.05.15-.75.07-1.48.22-2.23.18-.25,0-.66-.06-.91-.08-.35-.03-.68-.07-1.03-.02h0Z"/>
          </g>
        </g>
        <g id="H-3" data-name="H">
          <path class="cls-5" d="M105.34,79.87c-.46,0-.88-.19-1.27-.36-.55-.24-1.08-.47-1.72-.27-1.15.37-2.76.67-3.93,0-.64-.37-1.06-.97-1.24-1.81-.22-1-.1-1.79,0-2.43.16-1.06.26-1.7-1.09-2.72-.28-.21-.71.14-1.39.74-.89.78-1.99,1.76-3.31,1.16-1.02-.46-1.62-1.35-2.11-2.06-.66-.96-.87-1.17-1.32-.87-.41.27-.69.57-.97.87-.65.69-1.26,1.34-3.13,1.34-2.68,0-3.89-.77-5.41-3.43-1.01-1.76-1.11-1.8-2.08-2.17-.41-.16-.98-.37-1.8-.78-.4-.2-.8-.39-1.2-.58-2.44-1.16-4.96-2.36-5.96-5.03-1.03-2.73.61-3.93,1.81-4.81.22-.16.44-.32.62-.48.74-.63,2.13-.72,3.16-.69,1.21.04,2.39.25,3.03.45.46.14.86.35,1.29.57.73.37,1.48.76,2.55.82,1.65.09,3.89-.08,5.25-.8,1.38-.74,4.07-2.31,4.1-2.33.02,0,.03-.02.05-.02.02,0,2.25-.83,3.3-2.49,1.3-2.06,2.83-3.23,4.52-3.46.82-.11,1.47.05,2.03.19.71.18,1.17.29,1.75-.13.7-.51,1.1-1.1,1.45-1.62.23-.34.44-.64.69-.85.56-.46,1.39-.8,1.55-.87h0s.02,0,.03-.01c.14-.04.28.02.36.14,0,0,.39.61,1.11,1.04,0,0,.01,0,.02.01.23.16.49.31.76.45,0,0,.02,0,.02.01.07.04.12.11.14.19.04.14-.03.29-.15.36-1.44.8-3.72,2.23-4.1,2.88-.32.55-.42,1.12-.27,1.5.08.21.23.34.46.41.19.06.44.12.74.2,1.22.32,3.06.81,3.79,1.46.72.64,1.48,1.95,1.44,2.79-.02.38-.2.59-.35.7-.35.25-.31.44.26,1.46l.05.08c.11.19.35.43.62.72.98,1,2.46,2.52,1.61,4.93-.25.72-.5,1.41-.74,2.05-.7,1.91-1.3,3.56-1.3,4.3,0,.29.17.66.36,1.06.4.85.9,1.92.04,2.99-.6.75-1.17,1.1-1.63,1.37-.42.25-.7.42-.84.79-.11.28-.09.62-.06.97.05.65.11,1.46-.85,1.91-.24.11-.47.15-.69.15ZM102.85,78.53c.56,0,1.04.21,1.47.4.6.26.99.41,1.44.21.54-.25.53-.61.48-1.28-.03-.39-.06-.84.1-1.26.23-.56.65-.82,1.1-1.1.44-.27.94-.57,1.47-1.23.61-.76.26-1.52-.12-2.32-.22-.46-.42-.9-.42-1.33,0-.85.59-2.47,1.34-4.52.24-.65.49-1.33.74-2.05.72-2.04-.54-3.33-1.46-4.28-.31-.32-.58-.59-.72-.85l-.05-.08c-.51-.9-.95-1.67-.08-2.29.02-.01.08-.05.09-.22.03-.57-.58-1.7-1.23-2.28-.61-.55-2.43-1.03-3.52-1.31-.3-.08-.57-.15-.76-.21-.42-.13-.72-.4-.87-.78-.22-.56-.1-1.33.31-2.05.48-.83,2.79-2.23,3.85-2.84-.11-.07-.22-.14-.32-.21-.57-.34-.95-.76-1.15-1.02-.29.13-.8.38-1.15.67-.18.15-.36.42-.57.72-.36.53-.81,1.19-1.6,1.77-.81.6-1.52.42-2.28.23-.54-.13-1.09-.27-1.79-.18-1.5.2-2.87,1.27-4.07,3.17-1.11,1.76-3.3,2.63-3.59,2.73-.27.16-2.78,1.62-4.1,2.33-1.86.99-4.74.92-5.59.88-1.21-.06-2.06-.5-2.81-.89-.4-.21-.78-.4-1.19-.53-1.35-.42-4.55-.75-5.59.13-.2.17-.42.33-.65.5-1.2.89-2.45,1.8-1.59,4.08.92,2.43,3.21,3.52,5.64,4.68.41.19.81.39,1.21.59.79.4,1.34.61,1.74.76,1.11.42,1.32.54,2.41,2.45,1.41,2.47,2.41,3.11,4.86,3.11,1.6,0,2.07-.5,2.67-1.14.29-.3.61-.65,1.08-.96,1.03-.68,1.65.23,2.2,1.04.46.68.99,1.45,1.84,1.84.94.43,1.8-.33,2.63-1.06.73-.64,1.48-1.31,2.2-.78,1.66,1.25,1.51,2.21,1.34,3.32-.09.61-.2,1.31,0,2.19.15.66.45,1.12.94,1.4,1.02.58,2.58.21,3.42-.06.25-.08.48-.11.7-.11Z"/>
        </g>
      </g>
      <path class="cls-4" d="M191.19,91.9c-.1-2.29-5.21-11.66-6.35-13.05s-8.54-10.8-9.69-11.43c-1.15-.62-7.81-3.96-7.81-3.96l-.84-.42s-.41,0-1.45,0-2.77-.74-2.77-.74c-.4.21-1.87.86-3.56,1.48-.07.03-.14.05-.21.07-1.62.58-3.41,1.12-4.69,1.25-1.03.15-1.43,0-2.64,0-1.11.2-1.7.77-1.7.77,0,0,0,0,0,0-.26.39-.58.67-.94.81h-1.23c-.04.06-.09.13-.14.2l-1.11,1.53h0s-.28.51-.28.51l-.87,1.6s0,.01,0,.02c0,.05-.09,1.01-.33,1.51l-.41,1.86s0,0,0,0l.28-.31.07-.15s.08-.05.12-.07l1.33-1.48s0,0,0,0c0,0,0,0,0,0h0c.3-.65,1.27.96,1.57,2.27.1.29.14.58.1.85,0,.05-.02.09-.03.13,0,.02,0,.03,0,.05,0,.02-.01.03-.02.05,0,0,0,.01,0,.02-.02.05-.04.1-.07.15-.23.45-.71.75-1.2,1.06-.57.42-1.17.9-1.39,1.53-.08.31-.09.62-.06.92.06.31.11.6.15.85.16.73.34,1.42-.07,2.12-.2.34-.51.51-.86.6-.36.21-.83.16-1.24.18-.31.04-.57.11-.74.28-.08.09-.14.21-.18.38,0,0,0,0,0,0,0,0,0,0,0,.01,0,.04,0,.08,0,.12,0,1.21,1.5,2.34,2.27,3.54,0,0,0,0,0,0,.39.52.49,1.01.49,1.61.02.42-.02.83-.04,1.21-.02.78.11,1.18.3,1.51.08.13.2.29.33.47.02.03.04.06.06.09,0,0,0,.01.01.02.01.02.03.04.04.06.51.69,3.27,3.99,3.89,4.61.02.02.04.04.05.05,0,0,.02.02.02.02.02.02.04.04.07.06.28.27.56.51.83.72.41.29.93.55,1.5.56.63-.04,1.2-.39,1.76-.8.38-.37.76-.65,1.14-.86.36-.25.71-.43,1.07-.48.23-.03.48-.04.74-.05.28-.01.56,0,.82.04.77.09,1.54.31,2.13.73,0,0,0,0,0,0,.73.34,1.05,1.08,1.04,1.93.02.63-.17,1.21-.4,1.76-.14.35-.24.62-.32.85-.02.06-.04.12-.06.17-.17.51-.22.87-.31,1.76,0,.03,0,.06-.01.09,0,.05-.01.09-.02.14-.16,1.43-.43,3.7.16,5.06,0,.02.02.04.03.05.02.03.03.07.05.1.03.06.06.12.09.17.5.9,1.34,1.7,2.08,2.31.26.21.54.44.86.7,0,0,0,0,0,0,.31.25.53.5.72.79.48.7.73,1.5.99,2.27.67,1.73,1.09,2.03,1.53,2.4h0c.57.34.94-.02,1.6-.12,0,0,0,0,0,0,.55-.15.53-.23,1.32.31.03.02.06.04.09.06.05.04.11.08.16.12,0,0,0,0,0,0,.92.73,1.73,1.98,1.73,1.98,0,0,.9,0,1.94.23,0,0,0,0,0,0,1.17.18,1.11-.01,2.02.84,0,0,0,0,0,0,.11.08.21.18.31.28.49.42.46.27,1.29,1.83.06.11.12.23.19.36,0,0,0,0,0,0,1.21,2.27,1.46,2.56,2.03,3.01h0s0,0,0,0c.36.2.7.27.97.27.3,0,.53-.06.53-.06,0,0,.19-.27.43-.62.13-.25.29-.48.48-.69,0,0,0,0,.01-.01.15-.22.3-.43.41-.59.42-.6,1.39-2.47,1.39-2.47h0s2.2-1.27,2.2-1.27h.16l2.49-1.27h0s1.13-2.01,1.13-2.01h0s.23-.74.94-1.28c.71-.54,2.6-8.12,3.02-9.69.42-1.56-1.46-12.18-1.56-14.48Z"/>
      <path class="cls-4" d="M108.23,232.62c.69-.72,2.52-2.07,2.52-2.07,1.47-.49,5.77-2.94,6.63-3.5.87-.57,1.81-2.98,2.71-3.58.9-.6,3.43-2.94,4.75-4.3,1.32-1.36,2.37-3.99,3.01-5.58.64-1.58.23-4.52.45-5.54s.68-1.85,1.36-3.09,1.88-4.45,2.56-5.73c.68-1.28,5.31-11.46,6.93-14.47,1.62-3.01.94-4.11.79-6.11-.15-2-2.71-4.37-3.2-4.97-.49-.6-.15-1.32.83-2.79.98-1.47,3.13-1.88,4.3-2.22,1.17-.34,3.2.23,4.33,0,1.13-.23,1.55-1.66,2.37-2.64.83-.98,1.58-.9,2.68-1.88,1.09-.98,2.3-4.41,2.9-5.09.6-.68,8.52-13.53,9.38-14.77.87-1.24,2.86-6.26,3.35-7.24,0,0,1.66-.4,2.11-.83.45-.43.74-1.54.86-1.99.12-.45.45-.82.45-.82q.24-.39,1.37-1.11c1.13-.72,1.55-2.3,1.92-3.73.38-1.43-3.28-3.5-3.84-3.99s-1.55-1.51-2.22-2.75c-.68-1.24-2.64-1.55-3.66-1.7-1.02-.15-2.11-2.07-2.94-3.24-.83-1.17-3.35-3.54-4.97-4.52-1.62-.98-1.39-1.28-1.43-2.49-.04-1.21.6-2.11.38-3.66s-4.67-2.64-5.99-3.47c-1.32-.83-4.15-3.05-4.97-3.99s-3.92-6.11-4.52-6.75c-.6-.64-4.11-1.21-4.67-1.36s-3.24-1.39-3.43-2.26c-.19-.87.3-1.81.3-1.81,0,0,2.94-5.16,3.17-6.37.23-1.21-.75-2.41-.94-3.58-.19-1.17,2.3-4.18,2.3-4.18.39-.5.16-1.79.16-1.79l1.21.23-2.07-.39s-2.97.39-3.49-1.03c-.52-1.42-1.38-1.81-2.31-1.94-.92-.13-1.48,1.03-2.62-.52-1.14-1.55.92-1.83.53-2.85-.39-1.02,0-2.1,0-2.79s0-1.02,0-1.02c0,0-1.94.2-2.45-2.12-.52-2.33.9-2.2.39-3.49-.52-1.29-1.81-1.55-2.33-.78s-1.81,4.14-3.23,2.71c-1.42-1.42-1.18-6.85-2.14-6.85s-2,.26-3.16,0c-1.16-.26-2.07-1.42-4.14-1.81-1.02-.19-2.45-.51-3.71-1.15,0,0-3.66,2.03-4.22,3-.56.97-.56,2.09.37,2.37.93.28,3.57.84,4.4,1.59.83.75,1.77,2.52,1.11,2.99-.65.47-.31,1.03.22,1.96.53.93,3.24,2.46,2.21,5.39-1.03,2.93-2.06,5.41-2.06,6.46s1.59,2.45.47,3.85c-1.12,1.4-2.15,1.31-2.52,2.24-.37.93.47,2.15-.75,2.71s-2.15-.97-3.64-.48c-1.5.48-4.2.95-4.77-1.57-.56-2.52,1.19-3.52-1.21-5.33-1.12-.84-2.71,2.8-4.77,1.87-2.06-.93-2.34-3.83-3.74-2.9-1.4.93-1.4,2.15-3.92,2.15s-3.64-.65-5.14-3.27c-1.5-2.62-1.21-1.68-4.02-3.08-2.8-1.4-5.89-2.47-7.01-5.44-1.12-2.97,1.12-3.91,2.34-4.93,1.21-1.03,4.67-.56,5.89-.19s2.15,1.31,3.92,1.4c1.78.09,4.02-.09,5.42-.84,1.4-.75,4.11-2.34,4.11-2.34,0,0,2.34-.84,3.46-2.62,1.12-1.78,2.52-3.07,4.3-3.31,1.78-.24,2.71.89,3.92,0,1.21-.89,1.59-2.01,2.15-2.48.56-.47,1.46-.82,1.46-.82-.35-.46-.61-1-.74-1.63-.65-3.1.65-2.63.65-4.29s-.59-2.58-.59-2.58c-.29.8-.64,1.43-1.25,1.13-1.08-.53-.86-1.29-.86-1.29,0,0,.38-1.77-.27-2.39-.65-.62-1.83-1.06-2.37-.46s-.59,3.44-2,3.02c-1.4-.42-1.84-.96-1.62-1.61s1.03-2.43,0-3.56c-1.03-1.13-.97-.65-1.83-.81-.86-.16-1.62.27-3.02-1.51-1.4-1.78-1.4-1.73-2.81-2.16-1.4-.43-2.37-1.18-3.24-.83s-1.24,1.91-2.32,1.48c-1.08-.43-4.86-3.83-6.31-4.05-1.46-.22-2.53-.16-3.26-.59-.73-.43-2.46-1.41-2.46-1.41-.07.11-.15.19-.23.26-.76.62-4.21,2.69-5.11,3.93-.9,1.24-2.28,5.32-5.11,5.87-2.83.55-5.04.14-5.87,0s-7.73-2.97-8.35-3.24c-.62-.28-3.73-1.52-4.42-.76-.69.76-1.1,3.66-2.76,3.93-1.66.28-2.69-.41-3.31.35s-.35,1.93-1.73,2.14c-1.38.2-2.26-1.05-2.26-1.05.15,1.04-1.19,1.78-3.11,2.82-1.93,1.04-5.63,3.68-7.11,5.99-1.48,2.31-4.59,7.94-6.22,8.9-1.63.96-3.56,4.07-4,6.59-.44,2.52,0,2.63-.74,5.02-.74,2.39-1.33,5.65-.89,7.58.44,1.93,2.37,4.89,2.82,7.56.44,2.67-.44,14.22.15,15.71s3.11,5.36,3.11,7.79-1.78,4.21-.89,5.84c.89,1.63,3.41,4.3,3.26,6.37-.15,2.07-.89,5.48,1.19,8.3,2.07,2.82,5.33,6.96,6.22,7.41.89.44,7.14,4.3,8.09,5.63.95,1.33,5.1,7.11,5.54,8.15.44,1.04.89,2.52.74,4-.15,1.48.65,3.56.03,4.74-.62,1.19-.98,4.03-2.02,5.81-1.04,1.78-2.03,5.89-3.96,8.02-1.08,1.19-5.85,5.6-6.3,5.3-.24-.16-1.45-1.64-2.54-3l-.09.12-3.08,2.26c-.26.46-.36.85-.36,1.09-.06.6-.32.99-.78,1.23-.68.25-1.1.6-1.23,1.06-.16.64-.16,1.13-.03,1.52.36.28.52.49.49.71h2.07c.19.28.45.6.75.88.23.95.06,1.66-.42,2.12-.42,1.8-.42,3.42-.03,4.8.13.46.26.92.39,1.38.62.53.91.88.87,1.13-.03.49-.19.88-.52,1.13-.91.67-1.62,1.27-2.17,1.91.49,1.8.49,3.63,0,5.43-.16.78-.32,1.27-.42,1.45v2.12c-.97.88-1.65,1.55-2.04,2.05-.62.53-1.13,1.02-1.52,1.52-.1,1.02.03,1.91.36,2.65-.68,1.09-1.59,2.01-2.75,2.68-.42.53-.65.81-.68.81-.26.71-.39,1.23-.32,1.66-.23.81-.62,1.34-1.17,1.59-.29.6-.52.92-.65,1.02-.39.85-.62,1.62-.78,2.29-.23.88-.36,1.38-.42,1.48l-3.27,2.05-2.24,1.91c-1-.11-1.46.04-1.36.35-.49-.53-.91-.6-1.3-.14.06.6-.16,1.52-.62,2.79-.26.49-.58.88-.94,1.09.23.28.36.6.42.95l-.06.07v.6c-.1.6-.13,1.2-.13,1.8-.03.74-.03,1.52-.06,2.26-.03.64,0,1.2.1,1.8.03.04.06.07.1.11v.21l.23.18c.26.32.52.64.81.92,1.13,1.23,2.56,2.12,4.24,2.61.36-.11.55-.21.65-.25.23-.07.45-.04.65.07h2.66l.23.18c.1.11.13.25.16.32l.55.71c.19.39.39.71.65.95l1.04,1.2-.06.07.23.14.49.6c.19.04.29.11.32.14h1.62c.45,0,.84,0,1.17-.07.19,0,.42-.07.62-.18.62-.25,1.23-.39,1.91-.42.45-.04.94-.11,1.39-.18h.84c.13,0,.26.07.36.14.16.18.26.28.32.28l.55.78v.14l.84,1.66.1.11.29.49h.29l.45.42h.52l2.88-.6c.13-.11.23-.18.32-.21l.91-.92.58-1.55.1-.32.03-.07v-.11l.1-.35c.13-.28.23-.53.23-.88.19-.39.39-.6.55-.56.36.04.58.04.65.04l.91.53h2.53c.62-.11,1.17-.46,1.62-1.02.06-.04.1-.11.13-.14l.1-.07,1.13-1.31c.16-.28.26-.56.29-.85.1-.18.19-.32.26-.46l3.56-2.5h.32l1.88-1.06c.49-.18,1.04-.28,1.56-.32.13-.04.23-.07.32-.18.23-.32.42-.71.55-1.09v-1.91l.29-.35.78-.71h3.92l.06.11.42,2.54v.49l.32.49v.21c.06.18.13.39.19.64.16.07.36.18.55.28.13.11.23.18.32.21l.39.07c1.3.46,2.66.67,4.08.56h.03l1.39.21c.45.18.91.28,1.39.28l2.69.71c.45.14.91.28,1.39.46.87.28,1.72.46,2.56.49l.75.32c.42.07.81.04,1.17-.11.23-.07.45-.21.62-.39.03,0,.06-.04.06-.07.26-.04.49-.11.75-.21.39-.11.75-.32,1.04-.64l1.1-.92c.49-.28.94-.64,1.33-.99.26-.28.52-.49.81-.71.03-.11.1-.18.13-.25l2.46-2.05h.03c.42.35.81.78,1.2,1.23.23.39.42.78.58,1.16.13.28.26.49.42.67.13.18.26.32.39.39.16.11.32.18.52.21.75.14,1.49.28,2.27.39.39.14.78.28,1.17.49.1.14.16.28.16.46v.28l-1.43,3.03-.36.46c-.03.18-.06.32-.1.39,0,0-.49.49-.49.49-.35.35-.32.97-.31,1.43,0,.02,0,.03,0,.05.01.02.03.03.05.04.84.4,2.11.29,2.77-.42.36-.21.68-.42.97-.74l.42-.28h.75l1.26.81c.13.04.29.07.45.07.19.07.42.11.62.11.42,0,.84-.04,1.26-.11.71-.07,1.39-.25,2.04-.56.23-.07.45-.14.68-.21.42-.07.84-.25,1.23-.46.53,0,1.05,0,1.58,0-.03.22.17.39.35.52,1.1.78,2.12,1.65,3.15,2.51.48.4.86.91,1.49,1.09.68.19,1.42.08,2.1-.02.01-.07.02-.14.03-.21.46-.26.87-.64,1.24-1.03.28-.3.57-.61.85-.91h.49c.19-.04.36.04.55.18h1.46c.19.04.39-.04.55-.18.36-.18.62-.42.78-.67.05-.1.1-.19.15-.28l-2.14-1.41s.92-2.98,1.61-3.7Z"/>
      <path class="cls-4" d="M142.57,72.2s0,0,0,0c-.18-.14-.33-.32-.46-.49-.34-.37-.69-.76-.69-.76,0,0-.03.41-.94.57-.04,0-.08.01-.12.02-1.25.17-3.03-.73-3.03-.73l-1.21-.23s.23,1.3-.16,1.79c0,0-2.49,3.01-2.3,4.18.19,1.17,1.17,2.37.94,3.58-.23,1.21-3.17,6.37-3.17,6.37,0,0-.49.94-.3,1.81.19.87,2.86,2.11,3.43,2.26s4.07.72,4.67,1.36c.6.64,3.69,5.8,4.52,6.75s3.66,3.17,4.97,3.99c1.32.83,5.77,1.92,5.99,3.47.23,1.55-.41,2.45-.38,3.66s-.19,1.51,1.43,2.49c1.62.98,4.15,3.35,4.97,4.52.83,1.17,1.92,3.09,2.94,3.24,1.02.15,2.98.45,3.66,1.7.68,1.24,1.66,2.26,2.22,2.75s4.22,2.56,3.84,3.99c-.38,1.43-.79,3.01-1.92,3.73q-1.13.72-1.37,1.11s1.13.82,1.92,1.41c.34.26.62.47.7.56.29.29.98.84.98.84.84-1.72,2.45-2.12,2.99-2.52,1.34-.99,1.02-1.55,2.24-2.68,1.22-1.13,1.56-.97,1.84-2.47.28-1.5.09-1.92-.03-2.13-.08-.14-.35-.12-.53-.09-.1.01-.17.03-.17.03,0,0-.21.07-.53.06-.31,0-.69-.05-.97-.27-.38-.22-.78-.6-1.13-1.24-.32-.61-.61-1.21-.91-1.77-.06-.12-.13-.25-.19-.36-.39-.72-.8-1.35-1.29-1.83-.09-.07-.19-.16-.31-.28-.17-.13-.34-.25-.53-.34-.47-.24-1-.4-1.5-.5-1.17-.18-1.94-.23-1.94-.23,0,0-.89-1.3-1.73-1.98,0,0,0,0,0,0-.08-.07-.17-.13-.25-.19-.28-.18-.56-.31-.82-.33-.19-.02-.35,0-.5.02-.58.15-1.16.49-1.6.12-.18-.11-.38-.28-.61-.56-.44-.52-.69-1.17-.92-1.84-.43-1.1-.66-1.75-.99-2.26-.19-.28-.43-.55-.72-.79-.24-.19-.54-.43-.86-.7-.94-.77-1.54-1.32-2.08-2.31-.03-.06-.06-.12-.09-.17-.02-.03-.03-.07-.05-.1,0-.01-.01-.03-.02-.04,0,0,0,0,0-.01-.03-.06-.06-.13-.09-.2-.54-1.21-.3-2.64-.19-3.91.08-.95.21-1.91.45-2.84.25-.97.77-1.85.78-2.88,0-.22-.04-.45-.11-.68-.16-.54-.5-.95-.93-1.25-.52-.24-1.26-.6-2.13-.73-.28-.03-.55-.05-.82-.04-.57.03-1.18.17-1.81.53-.37.26-.75.57-1.14.86-.62.6-1.22.81-1.76.8-.44.03-.91-.1-1.41-.48-.03-.02-.06-.05-.09-.07-.36-.26-.65-.55-.83-.72-.02-.02-.04-.04-.07-.06,0,0-.01,0-.01-.01,0,0,0,0,0,0-.02-.01-.03-.03-.05-.05-1.49-1.43-3.04-3.43-3.89-4.61-.02-.02-.03-.04-.04-.06,0,0,0,0-.01-.02-.02-.03-.04-.06-.06-.09-.12-.16-.23-.31-.33-.47-.05-.07-.08-.13-.11-.18-.21-.34-.22-.81-.19-1.34.01-.46.04-.86.04-1.21-.02-.4-.08-.81-.26-1.2-.06-.14-.15-.28-.23-.42-.63-.83-2.48-2.59-2.26-3.66,0,0,0,0,0-.01.02-.16.08-.29.18-.38.18-.21.44-.26.74-.28.39-.05.84-.06,1.24-.18.66-.39,1.28-.34.92-2.72-.06-.28-.12-.56-.15-.85-.07-.34-.03-.64.06-.91,0-.02,0-.05.02-.07.2-.71.8-1.1,1.38-1.46.5-.37.99-.7,1.2-1.06.02-.05.05-.1.07-.15,0,0,0-.01,0-.02.01-.03.02-.06.02-.1.05-.27.02-.61-.06-.98-.38-1.14-1.57-2.27-1.57-2.27-.28.61-.69,1.06-1.22,1.4-.13.13-.25.26-.35.35l-1.86-1.47Z"/>
      <path class="cls-4" d="M173.93,136.22l-1.74-1.36-1.86-1.45h0s-.33.37-.45.82c-.12.45-.41,1.56-.86,1.99-.45.43-2.11.83-2.11.83-.49.98-2.49,5.99-3.35,7.24-.87,1.24-8.78,14.09-9.38,14.77-.6.68-1.81,4.11-2.9,5.09-1.09.98-1.85.9-2.68,1.88-.83.98-1.24,2.41-2.37,2.64-1.13.23-3.17-.34-4.33,0-1.17.34-3.32.75-4.3,2.22-.98,1.47-1.32,2.19-.83,2.79.49.6,3.05,2.98,3.2,4.97.15,2,.83,3.09-.79,6.11-1.62,3.01-6.26,13.19-6.93,14.47-.68,1.28-1.88,4.48-2.56,5.73s-1.13,2.07-1.36,3.09.19,3.96-.45,5.54c-.64,1.58-1.7,4.22-3.01,5.58-1.32,1.36-3.84,3.69-4.75,4.3-.9.6-1.85,3.01-2.71,3.58-.87.57-5.16,3.01-6.63,3.5,0,0-1.84,1.35-2.52,2.07-.69.72-1.61,3.7-1.61,3.7l2.14,1.41,1.91,1.26s2.85-4.07,3.79-5.01,3.48-2.37,4.6-2.44c1.13-.06,3.76-.3,4.2-1.08.44-.78,2.52-4.08,3.52-4.9s2.29-1.73,2.57-2.82c.28-1.09,3.03-4.83,3.25-5.55.22-.72,1.06-3.38,1.22-5.42.16-2.03,1.94-1.79,2.44-3.38.5-1.59,1.72-5.78,2.44-7.31s2.53-4.29,3.25-5.01c.72-.72,2.92-3.08,3.38-4.33.47-1.25-1.36-3.8-1.01-4.58.34-.78,2.97-3.97,3.06-5.53.09-1.56-.94-3.69-.56-4.69s1.91-3.38,1.91-3.38c0,0,.16-1.28.5-1.59.34-.31,3.28-.59,3.97-1.28.69-.69,7.17-10.66,7.83-12.41.66-1.75,4.88-7.17,5.8-8.5.42-.6,1.43-2.8,1.75-3.37.33-.57,2.86-4.11,3.64-4.72s1.71-5.45,1.71-5.45c0,0,0,0,0,0Z"/>
      <path class="cls-4" d="M39.61,146.93c.15-1.48-.3-2.96-.74-4-.44-1.04-4.59-6.82-5.54-8.15-.95-1.33-7.2-5.19-8.09-5.63-.89-.44-4.15-4.59-6.22-7.41-2.07-2.82-1.33-6.22-1.19-8.3.15-2.07-2.37-4.74-3.26-6.37-.89-1.63.89-3.41.89-5.84s-2.52-6.31-3.11-7.79.3-13.04-.15-15.71c-.44-2.67-2.37-5.63-2.82-7.56-.44-1.93.15-5.19.89-7.58.74-2.39.3-2.5.74-5.02.44-2.52,2.37-5.63,4-6.59,1.63-.96,4.74-6.6,6.22-8.9,1.48-2.31,5.19-4.95,7.11-5.99,1.93-1.04,3.26-1.78,3.11-2.82l-1.58-1.39-4.64-4.09s-1.19,2.07-2.82,4.24c-1.63,2.17-4.74,3.32-6.52,5.92-1.78,2.6-3.41,4.22-4.59,6.88-1.19,2.67-5.78,6.82-6.82,8.89-1.04,2.07-2.37,8.74-2.22,12.62.15,3.88,1.48,9.01,2.22,11.38.74,2.37-.59,12.6-.15,16.73.44,4.13,1.93,7.72,2.27,9.5s.54,5.04.79,7.11c.25,2.07.34,5.33,3.9,12.45,3.56,7.11,7.85,10.08,10.52,12,2.67,1.93,3.11,1.63,6.82,7.41,3.7,5.78,2.15,9.47.34,14.66-2.06,5.9-5.99,7.92-5.99,7.92,0,0,.86,1.1,1.83,2.3,1.09,1.36,2.3,2.84,2.54,3,.44.3,5.22-4.11,6.3-5.3,1.93-2.13,2.92-6.25,3.96-8.02,1.04-1.78,1.4-4.63,2.02-5.81.62-1.19-.18-3.26-.03-4.74Z"/>
      <path class="cls-4" d="M161.47,60.16c-.9-.98-6.2-5.35-7.64-6.9-1.44-1.55-11.23-8.92-13.3-9.82-2.07-.9-15.38-8.79-17.19-9.45-1.81-.66-13.7-6.71-13.7-6.71l-2.33-.69s.08.99.07,2.14c0,.11,0,.23,0,.35,0,.17,0,.35,0,.54,0,.92-.12,1.51-.34,1.96-.09.23-.19.42-.33.53-.02.02-.04.04-.06.05-.22.25-.46.47-.72.73-.16.2-.31.4-.45.61-.57.97-1.15,2.52-1.31,2.96-.01.04-.03.08-.04.12,0,0,.59.93.59,2.58s-1.29,1.19-.65,4.29c.13.63.39,1.17.74,1.63h0c.34.45.75.82,1.21,1.14.66.39.77.46.79.47,1.27.65,2.7.96,3.72,1.16,2.07.39,2.97,1.55,4.14,1.81,1.16.26,2.2,0,3.16,0s.72,5.43,2.14,6.85c1.42,1.42,2.71-1.94,3.23-2.71s1.81-.52,2.33.78c.52,1.29-.9,1.16-.39,3.49.52,2.33,2.45,2.12,2.45,2.12,0,0,0,.33,0,1.02s-.39,1.77,0,2.79c.39,1.02-1.68,1.3-.53,2.85,1.14,1.55,1.7.39,2.62.52.92.13,1.79.52,2.31,1.94.52,1.42,3.49,1.03,3.49,1.03l2.07.39s2,.87,3.03.73h0s.08-.01.12-.02c.33-.06.61-.21.8-.47.05-.06.09-.09.14-.1.18-.02.38.36.69.76.17.18.33.36.46.49h0s0,0,0,0c0,0,0,0,0,0,.42.34.98.52,1.79.13,0,0,0,0,0,0,.07-.32.15-.62.23-.91.1-.29.21-.58.32-.86h0s0-.02,0-.02h0c.18-.46.36-.91.58-1.34.06-.53.36-1.02.87-1.34,0,0,0,0,0,0l.94-1.16h0s1.23,0,1.23,0c0,0,.32-.53.92-.98.43-.32,1.01-.61,1.71-.61,0,0,0,0,0,0,.46-.08,1.01-.11,1.66,0,.27.05.6.04.98,0,.39-.06.86-.16,1.5-.33,1.71-.45,2.39-.63,3.19-.92.07-.02.14-.05.21-.07.24-.09.51-.19.82-.32,1.46-.58,2.74-1.16,2.74-1.16.9-.49-.13-1.07-1.03-2.05Z"/>
      <path class="cls-4" d="M107.47,28.95c-.02-1.45-.06-2.13-.06-2.13,0,0-6.42-4.26-7.45-4.97-1.03-.7-15.76-5.18-17.81-5.29-2.05-.11-9.09-1.95-9.09-1.95,0,.37-.69,1.47-1.07,2.37-.1.33-.2.69-.29,1.09-.07.4-.17.95-.3,1.51-.2.82-.46,1.68-.79,2.16,0,0,1.73.98,2.46,1.41.73.43,1.8.38,3.26.59,1.46.22,5.24,3.62,6.31,4.05,1.08.43,1.46-1.13,2.32-1.48s1.83.4,3.24.83c1.4.43,1.4.38,2.81,2.16,1.4,1.78,2.16,1.35,3.02,1.51.86.16.81-.32,1.83.81,1.03,1.13.22,2.91,0,3.56s.22,1.19,1.62,1.61c1.4.42,1.46-2.42,2-3.02s1.73-.16,2.37.46c.65.62.27,2.39.27,2.39,0,0-.22.76.86,1.29.61.3.97-.33,1.25-1.13h0s.02-.04.04-.12c.2-.58.37-1.22.59-1.65.24-.48.46-.91.71-1.3.15-.26.3-.47.45-.61h0c.21-.25.44-.49.72-.73.15-.17.28-.36.39-.58.23-.61.31-1.58.33-2.49,0-.12,0-.24,0-.36Z"/>
      <path class="cls-4" d="M68.56,11.46c-1.24-.55-12.91-6.01-14.56-6.56-1.66-.55-5.32-2.62-7.73-3.18-2.42-.55-5.94-2.07-8.77-.83-2.83,1.24-3.73,4.21-4.24,8.84-.52,4.62-1.07,7.94-1.62,10.56-.55,2.62-3.84,5.25-3.84,5.25l-2.51,2.24s3.04,2.22,4.87,3.89c.76.69,1.31,1.29,1.35,1.59,0,0,.88,1.25,2.26,1.05,1.38-.2,1.11-1.38,1.73-2.14.62-.76,1.66-.07,3.31-.35,1.66-.28,2.07-3.18,2.76-3.93.69-.76,3.8.48,4.42.76.62.28,7.52,3.11,8.35,3.24.83.14,3.04.55,5.87,0,2.83-.55,4.21-4.62,5.11-5.87.9-1.24,4.35-3.31,5.11-3.93.08-.06.15-.15.23-.26h0s.33-.79.73-2.21c.12-.43.24-.91.37-1.45,0,0,0,0,0,0,.02-.14.04-.26.06-.36.03-.21.12-.46.24-.73.5-1.59,1.07-2.37,1.07-2.37,0-.48-3.31-2.69-4.56-3.24Z"/>
      <path class="cls-5" d="M192.25,96.92c-.32-2.26-.6-4.21-.63-5.04-.11-2.42-5.19-11.78-6.45-13.3-.22-.26-.68-.84-1.26-1.56-4.53-5.66-7.72-9.51-8.55-9.97-1.14-.62-7.55-3.83-7.82-3.96l-.93-.47h-.1s-.41,0-1.44,0c-.55,0-1.33-.24-1.9-.44.06-.09.1-.2.11-.31.07-.5-.35-.9-.89-1.41-.2-.19-.4-.38-.6-.6-.42-.45-1.67-1.54-3.12-2.8-1.75-1.53-3.74-3.26-4.52-4.1-1.54-1.66-11.32-9-13.44-9.92-.93-.41-4.25-2.3-7.77-4.3-4.15-2.36-8.44-4.8-9.45-5.16-1.77-.64-13.54-6.63-13.65-6.69l-2.82-.85c-1.65-1.09-5.99-3.98-6.81-4.54-1.24-.85-16.07-5.26-18.03-5.36-1.8-.09-7.7-1.6-8.82-1.89-.22-.28-.71-.73-1.81-1.5-1.05-.73-2.18-1.41-2.81-1.69-.3-.13-1.19-.54-2.42-1.11-4.08-1.88-10.9-5.03-12.18-5.46-.61-.2-1.51-.63-2.56-1.11-1.72-.81-3.68-1.72-5.21-2.07-.48-.11-1.01-.26-1.57-.42-2.26-.64-5.06-1.44-7.46-.38-3.04,1.33-3.97,4.5-4.49,9.18-.45,4.06-.98,7.5-1.62,10.52-.51,2.44-3.66,4.98-3.69,5-.51.4-.98.86-1.47,1.29-.44.39-1,.77-1.32,1.26-.45.68-.84,1.4-1.3,2.08-.43.66-.88,1.3-1.35,1.93-.72.95-1.76,1.71-2.86,2.52-1.32.96-2.68,1.96-3.68,3.42-.57.84-1.13,1.57-1.67,2.28-1.1,1.45-2.14,2.82-2.96,4.67-.62,1.4-2.32,3.33-3.81,5.03-1.29,1.47-2.51,2.86-3,3.84-1.09,2.19-2.42,8.93-2.27,12.83.15,3.88,1.48,9.05,2.24,11.49.37,1.19.17,4.76-.02,8.21-.18,3.18-.36,6.47-.15,8.44.3,2.82,1.09,5.41,1.66,7.3.27.9.51,1.68.62,2.24.22,1.1.37,2.79.52,4.43.09.97.17,1.89.27,2.66.02.18.04.38.07.58.24,2.17.6,5.46,3.87,12,3.5,7,7.66,10,10.42,11.99l.23.17c.42.3.79.55,1.11.77,1.73,1.18,2.51,1.71,5.6,6.52,3.43,5.36,2.22,8.83.53,13.63l-.23.66c-1.58,4.52-4.47,7-5.79,7.68-.11.06-.19.16-.22.29-.03.12,0,.25.08.35,0,0,.66.84,1.45,1.83l-2.84,2.09s-.09.08-.12.13c-.26.46-.4.91-.41,1.28-.05.43-.21.69-.53.87-.81.3-1.3.75-1.46,1.34-.18.7-.19,1.27-.02,1.76.03.08.07.15.14.2.26.2.32.3.33.33-.01.12.02.23.1.32.08.09.2.15.32.15h1.86c.18.24.37.47.58.67.15.72.04,1.25-.33,1.6-.06.06-.1.13-.12.21-.43,1.85-.44,3.54-.03,5.01l.39,1.38c.02.08.07.15.13.21.61.53.71.73.73.78-.03.39-.14.66-.35.82-1.02.76-1.71,1.36-2.24,1.97-.09.11-.13.25-.09.39.47,1.73.47,3.48,0,5.21,0,0,0,.02,0,.02-.17.82-.32,1.23-.38,1.33-.03.06-.05.13-.05.2v1.93c-.96.87-1.55,1.48-1.92,1.94-.71.61-1.19,1.09-1.55,1.55-.05.06-.08.14-.09.22-.09.98,0,1.87.3,2.64-.65.99-1.49,1.78-2.49,2.36-.05.03-.09.06-.12.1-.23.28-.5.63-.59.73-.07.05-.12.12-.15.2-.29.8-.4,1.33-.36,1.77-.19.64-.49,1.05-.91,1.24-.09.04-.16.11-.21.2-.29.6-.49.84-.54.88-.05.04-.09.09-.12.15-.44.95-.67,1.81-.8,2.36-.13.49-.28,1.08-.35,1.3l-3.16,1.98s-.03.02-.05.04l-2.1,1.79c-.62-.05-1.05,0-1.31.15-.23-.16-.45-.23-.68-.22-.31,0-.6.16-.85.45-.08.09-.11.2-.1.32.05.49-.13,1.3-.58,2.57-.22.42-.5.74-.77.9-.11.06-.18.17-.2.29-.02.12,0,.24.09.34.14.17.23.37.3.59-.02.05-.03.11-.03.16v.57c-.09.55-.13,1.15-.13,1.81-.02.37-.02.76-.03,1.14,0,.38-.02.75-.03,1.11-.03.65,0,1.25.1,1.89.01.07.04.14.09.2v.05c0,.13.06.25.16.33l.19.15c.25.31.51.62.8.91,1.19,1.29,2.68,2.21,4.43,2.72.08.02.16.02.24,0,.28-.08.48-.17.59-.22.03-.01.06-.03.06-.03.11-.03.21-.02.32.04.06.03.13.05.2.05h2.49l.09.05s.03.07.04.1c.01.04.03.07.04.09.01.03.03.06.05.08l.53.67c.17.34.39.71.7,1.02l.86.99s0,.03,0,.04c.02.12.09.24.2.3l.17.1.44.54c.06.08.15.13.25.15.06.01.1.03.11.03.08.07.18.11.29.11h1.62c.46,0,.86,0,1.21-.07.24,0,.5-.08.75-.21.58-.23,1.14-.35,1.77-.39.46-.04.94-.1,1.39-.18h.8s.04.01.08.04c.12.13.22.24.33.3l.4.57h0c0,.07.02.14.05.2l.84,1.66s.04.07.07.09l.07.07.27.46c.08.13.21.21.36.21h.12l.33.31c.08.07.18.11.29.11h.52s.06,0,.09,0l2.88-.6c.07-.01.13-.04.18-.09.04-.03.15-.12.2-.14.06-.02.11-.06.16-.1l.91-.92s.07-.09.1-.15l.58-1.55s0-.02,0-.03l.09-.29.02-.04c.03-.06.04-.12.04-.18v-.05l.07-.26c.12-.27.23-.55.25-.92.07-.14.13-.21.16-.24.18.02.34.03.5.03l.81.47c.06.04.14.06.21.06h2.53s.05,0,.07,0c.69-.12,1.33-.51,1.84-1.13.07-.05.11-.11.14-.15l.05-.03s.05-.04.07-.07l1.13-1.31s.03-.04.05-.07c.17-.3.29-.61.33-.92.02-.04.05-.08.07-.11.04-.07.08-.13.11-.2l3.37-2.37h.19c.07,0,.14-.02.21-.05l1.85-1.04c.42-.15.92-.25,1.41-.28.03,0,.06,0,.08-.01.16-.04.35-.11.53-.3.01-.01.02-.03.03-.04.25-.35.46-.78.61-1.21.01-.04.02-.09.02-.13v-1.75l.18-.21.63-.58h3.45l.37,2.26v.46c0,.08.02.16.07.23l.25.39v.09s0,.1.03.15c.06.16.12.36.18.6.03.13.12.23.24.28.14.06.31.15.48.25.15.12.27.2.42.26.02,0,.05.01.07.02l.36.06c1.38.48,2.79.68,4.2.58l1.31.2c.5.19.98.29,1.45.29l2.62.69c.44.14.9.28,1.39.46.93.3,1.78.47,2.59.51l.68.29s.06.02.1.03c.49.08.95.04,1.38-.12.26-.09.52-.24.72-.43.02-.01.03-.02.05-.03.21-.04.41-.1.65-.2.45-.13.86-.38,1.19-.73l1.05-.88c.46-.27.92-.61,1.37-1.02,0,0,.02-.02.03-.03.21-.23.43-.42.75-.65.07-.05.13-.13.16-.22,0-.01.02-.04.04-.06,0-.01.01-.02.02-.03l2.14-1.78c.33.31.63.65.88.94.21.36.39.72.55,1.1.15.33.3.56.48.76.17.23.33.39.5.48.21.14.43.22.66.26.72.14,1.47.28,2.24.39.33.12.65.24.97.4.03.06.04.1.04.14v.19l-1.37,2.91-.33.42c-.04.05-.07.12-.08.18-.02.12-.04.19-.05.24-.24.24-.36.36-.42.43-.46.47-.44,1.18-.43,1.7v.04s0,.14.06.24c.08.14.2.2.24.22.94.45,2.38.38,3.22-.47.31-.19.66-.42.98-.75l.27-.18h.49l1.16.74s.08.04.12.05c.18.05.34.08.49.08.21.07.46.11.69.11.44,0,.88-.04,1.32-.11.78-.08,1.48-.27,2.14-.59l.62-.19c.39-.07.79-.22,1.24-.45h.28c.29,0,.58,0,.87,0,.13.22.33.37.42.43,1.02.72,2,1.55,2.95,2.34l.18.15c.12.1.23.2.35.32.34.33.74.7,1.3.85.74.21,1.53.1,2.22,0h.05c.19-.03.33-.18.36-.36v-.02c.38-.25.76-.57,1.16-1l.73-.78h.3s.05,0,.08,0c.03,0,.07-.01.23.1.07.05.16.08.25.08h1.43c.28.04.57-.05.82-.24.41-.22.68-.49.84-.71l1.88,1.23.24-.34s2.84-4.05,3.74-4.95c.89-.89,3.32-2.26,4.33-2.31,1.8-.1,4.04-.41,4.54-1.3.53-.94,2.52-4.05,3.42-4.77.12-.09.24-.19.36-.29.97-.78,2.07-1.65,2.36-2.76.14-.55,1.12-2.06,1.9-3.26.79-1.22,1.24-1.92,1.35-2.27l.04-.13c.29-.93,1.04-3.41,1.19-5.37.07-.93.52-1.26,1.09-1.68.5-.36,1.06-.77,1.33-1.61.1-.3.22-.7.35-1.15.59-1.95,1.49-4.89,2.06-6.1.72-1.54,2.5-4.23,3.17-4.89.03-.03,2.9-2.92,3.48-4.48.31-.84-.15-2-.57-3.03-.2-.5-.53-1.33-.46-1.53.09-.2.43-.7.79-1.22.95-1.38,2.24-3.26,2.31-4.46.05-.79-.16-1.66-.36-2.5-.19-.81-.39-1.65-.23-2.07.35-.95,1.85-3.27,1.87-3.29l.05-.08v-.1c.08-.56.25-1.18.37-1.32.15-.08.73-.2,1.16-.3,1.32-.29,2.37-.55,2.84-1.01.71-.71,7.23-10.73,7.92-12.56.48-1.27,3.06-4.75,4.6-6.83.52-.7.93-1.25,1.15-1.57.28-.4.76-1.38,1.19-2.25.24-.49.47-.95.59-1.16.32-.56,2.84-4.05,3.54-4.6.54-.43.76-1.35.96-1.97.34-1.07.58-2.16.8-3.25.12-.58.16-1.13.62-1.56.43-.4.98-.65,1.5-.91.24-.12.45-.23.61-.34.79-.58,1.07-1.05,1.34-1.51.22-.37.43-.72.94-1.2.3-.27.54-.47.75-.64.7-.56.99-.84,1.22-2.07.29-1.53.12-2.08-.08-2.43-.07-.11-.16-.19-.28-.24l.03-.05c.1-.21.24-.41.42-.6l.04-.05c.15-.22.3-.43.41-.59.37-.53,1.14-1.99,1.36-2.41.29-.17.58-.34.87-.5.35-.2.68-.46,1.07-.6.48-.17.91-.41,1.36-.64.51-.26,1.03-.52,1.54-.78l1.2-2.12.04-.08s.2-.62.79-1.07c.54-.41,1.35-2.88,2.96-9.1.09-.35.16-.62.21-.81.26-.99-.21-4.59-.92-9.56ZM107.03,32.7l.05-.05c.19-.22.33-.44.45-.67l.02-.04c.21-.57.33-1.45.36-2.64v-.36c-.02-.84-.04-1.42-.05-1.76l1.63.49c.84.43,11.93,6.06,13.71,6.71.94.34,5.39,2.87,9.32,5.1,3.54,2.01,6.87,3.91,7.85,4.33,2,.87,11.7,8.15,13.16,9.72.81.88,2.82,2.62,4.59,4.17,1.37,1.19,2.66,2.32,3.05,2.74.22.24.44.45.64.64.24.22.55.53.62.67-.02.02-.05.04-.1.07,0,0-.02.01-.04.02h-.02s-.17.09-.17.09c-.44.2-1.42.62-2.48,1.04-.31.12-.57.22-.81.31l-.2.07c-.75.27-1.4.44-2.97.86l-.19.05c-.59.16-1.06.26-1.44.32-.35.03-.64.03-.86,0-.61-.1-1.2-.1-1.76,0-.68,0-1.33.24-1.94.69-.42.32-.72.67-.88.89h-1.21s-.08.1-.08.1h-.17s-.13.18-.13.18c-.04.06-.08.12-.13.19l-.64.89c-.45.34-.75.82-.86,1.36l-.79,1.44-.05.13v.06c-.03.26-.12,1-.29,1.36l-.02.04v.02c-.55.19-.88.02-1.1-.15-.12-.12-.27-.29-.42-.45-.07-.09-.14-.19-.2-.27-.25-.35-.48-.69-.87-.63-.02,0-.04,0-.07.01l-.26.16-.26.25c-.1.07-.23.12-.38.15-.03,0-.06.01-.1.02-.75.11-2.28-.47-2.8-.69l-2.22-.43h-.07c-.68.1-2.71.15-3.04-.75-.63-1.72-1.74-2.09-2.65-2.21-.41-.06-.75.07-1.03.17-.47.17-.73.27-1.31-.52-.18-.25-.26-.43-.27-.59.06-.16.19-.31.36-.5.23-.26.52-.58.54-1.02.05-.19.04-.41-.05-.65-.23-.61-.14-1.28-.05-1.87.04-.27.08-.53.08-.77,0-.69,0-1.03,0-1.03v-.46s-.46.04-.46.04c-.16.01-1.58.09-2-1.79-.1-.46-.12-.8-.09-1.07.06-.29.17-.49.28-.69.13-.23.27-.48.29-.81.06-.26.05-.58-.11-.98-.33-.83-.99-1.39-1.73-1.47-.55-.06-1.05.17-1.34.62-.11.16-.23.4-.38.67-.39.73-1.11,2.1-1.73,2.2-.1.01-.25,0-.47-.22-.65-.65-.93-2.5-1.16-3.98-.28-1.8-.46-3-1.28-3-.33,0-.67.03-.99.06-.66.06-1.35.11-2.07-.05-.42-.09-.83-.34-1.3-.62-.7-.42-1.57-.95-2.85-1.19-.96-.18-2.37-.49-3.59-1.11l-.77-.46c-.45-.31-.82-.66-1.1-1.04-.33-.44-.55-.93-.66-1.46-.17-.8-.2-1.32-.16-1.71.07-.34.2-.57.33-.79.18-.29.37-.62.43-1.15.03-.16.05-.34.05-.55,0-.72-.11-1.43-.32-2.05-.04-.13-.09-.25-.13-.34.05-.16.1-.31.16-.47.13-.4.25-.79.39-1.06.22-.45.44-.88.7-1.28.18-.3.31-.46.38-.53l.03-.03c.2-.24.42-.46.67-.68ZM101.61,51.8c.17.42.49.71.94.84.19.06.46.13.76.21,1.08.29,2.89.76,3.48,1.29.62.56,1.22,1.66,1.19,2.19,0,.03,0,.11-.04.14-.94.67-.46,1.53.05,2.43l.05.08c.15.27.42.55.74.87.9.92,2.14,2.19,1.44,4.17-.25.71-.5,1.4-.74,2.05-.75,2.06-1.34,3.69-1.34,4.55,0,.46.21.9.43,1.37.44.93.66,1.55.13,2.21-.52.65-1.01.94-1.44,1.2-.47.28-.91.55-1.15,1.15-.18.44-.14.9-.11,1.3.05.7.03.97-.42,1.18-.08.04-.16.06-.24.07-.24-.03-.5-.14-.83-.28-.47-.21-1.04-.45-1.71-.4-.03,0-.06,0-.1,0-.23,0-.47.03-.73.12-.46.15-1.13.32-1.81.36-.45,0-.88-.09-1.24-.3-.46-.26-.75-.7-.89-1.33-.19-.86-.09-1.52,0-2.15.17-1.1.33-2.14-1.38-3.42-.25-.19-.51-.24-.77-.2-.63-.08-1.26.48-1.84.99-.69.61-1.26,1.07-1.84,1.14-.13-.01-.26-.05-.4-.11-.83-.38-1.34-1.13-1.8-1.8-.45-.65-.98-1.44-1.77-1.31-.26-.03-.54.04-.86.25-.48.32-.81.67-1.1.97-.57.6-.99,1.05-2.34,1.1-2.39,0-3.36-.64-4.75-3.06-1.11-1.94-1.33-2.07-2.46-2.5-.4-.15-.94-.36-1.73-.75-.4-.2-.81-.39-1.21-.59-2.41-1.15-4.69-2.23-5.59-4.62-.83-2.2.38-3.09,1.55-3.95.23-.17.46-.34.66-.51.4-.34,1.19-.49,2.07-.52,1.15,0,2.4.19,3.14.42.4.12.77.32,1.17.52.76.39,1.62.83,2.85.9.26.01.7.03,1.25.02,1.27,0,3.26-.16,4.67-.91,1.31-.7,3.78-2.14,4.09-2.33.33-.12,2.52-1,3.63-2.77,1.18-1.87,2.53-2.92,4-3.12.08-.01.17-.02.25-.02.45.01.84.11,1.23.2.41.1.83.21,1.27.17.44.02.89-.07,1.38-.43.8-.59,1.26-1.26,1.62-1.8.2-.3.38-.56.55-.7.25-.21.58-.39.85-.52.23.27.59.61,1.05.89.06.04.11.08.17.11-1.12.65-3.27,1.98-3.74,2.79-.44.75-.56,1.55-.32,2.14ZM72.9,16.09c.21-.4.36-.71.46-.96,1.54.4,6.96,1.76,8.77,1.86,1.99.1,16.7,4.6,17.59,5.22.9.61,5.97,3.98,7.19,4.79.02.39.05,1.02.05,1.72,0,.11,0,.23,0,.36v.53c.01.78-.08,1.34-.29,1.77l-.02.04c-.09.24-.17.32-.2.35l-.11.1c-.14.16-.29.31-.46.47-.08.08-.16.15-.24.24l-.03.03c-.17.2-.32.42-.48.67-.59,1-1.18,2.57-1.34,3.04l-.25.68h.03c-.18.4-.31.51-.38.54,0,0-.03,0-.06,0-.66-.34-.6-.73-.6-.77v-.03c.05-.2.41-2.02-.38-2.79-.29-.27-.7-.55-1.15-.71-.32-.13-.66-.22-1-.21-.4.01-.73.16-.97.42-.25.27-.38.75-.54,1.3-.17.59-.4,1.4-.73,1.59-.05.03-.14.06-.29.01-.17-.05-.32-.1-.45-.15-.51-.22-.69-.42-.75-.53-.03-.07-.07-.16,0-.33.02-.06.05-.14.08-.22.3-.83.92-2.55-.17-3.76-.49-.54-.78-.77-1.06-.86-.22-.11-.42-.12-.66-.11-.13,0-.27.01-.47-.03-.21-.04-.41-.05-.6-.06-.26-.01-.51-.02-.78-.12-.35-.16-.74-.48-1.26-1.13-1.08-1.37-1.38-1.72-2.12-2.01-.23-.1-.51-.19-.87-.3l-.16-.05c-.29-.09-.56-.19-.82-.3-.08-.03-.16-.07-.24-.1-.13-.06-.26-.11-.39-.16-.74-.31-1.4-.53-2.07-.26-.43.18-.75.56-1.02.89-.45.55-.64.7-.94.6-.42-.21-1.25-.83-2.05-1.43-1.6-1.2-2.86-2.11-3.76-2.46-.23-.1-.45-.17-.64-.2-.46-.07-.88-.11-1.26-.15-.64-.06-1.18-.12-1.58-.27-.05-.02-.09-.04-.14-.07-.51-.3-1.53-.88-2.08-1.19.03-.07.06-.15.09-.24.18-.43.36-.99.52-1.67,0-.03.02-.07.02-.1.12-.43.23-.88.33-1.32v-.02c.03-.14.05-.26.06-.36.02-.15.09-.36.21-.63v-.04c.1-.26.18-.49.26-.71.07-.13.14-.27.21-.4ZM28.06,25.86c.24-.19,3.42-2.79,3.98-5.48.64-3.05,1.18-6.52,1.63-10.6.66-5.9,2.02-7.63,3.99-8.49,2.12-.93,4.76-.18,6.89.42.57.16,1.11.32,1.61.43,1.45.33,3.36,1.22,5.04,2.01,1.07.5,1.99.93,2.65,1.15,1.24.41,8.3,3.67,12.1,5.43,1.23.57,2.13.98,2.43,1.12,1.13.5,3.69,2.23,4.23,2.84-.16.26-.43.75-.71,1.47-.11.22-.22.45-.31.67v.04c-.13.37-.23.74-.32,1.12v.02c-.06.34-.16.84-.28,1.37-.01.04-.02.08-.03.13-.14.52-.23,1.09-.51,1.56-.26.44-.81.77-1.22,1.07-1.49,1.08-3.33,2-4.45,3.5-.23.32-.47.78-.76,1.31-.85,1.6-2.12,4.01-4.09,4.39-2.64.52-4.73.17-5.61.02l-.1-.02c-.75-.12-7.53-2.89-8.25-3.21-.65-.29-3.96-1.69-4.9-.66-.28.31-.49.82-.73,1.41-.41,1-.91,2.24-1.79,2.39-.64.11-1.19.06-1.67.01-.72-.07-1.4-.13-1.9.48-.26.32-.39.68-.5,1-.19.56-.31.89-.96.99-.46.07-1.02-.07-1.37-.39-.29-.28-.54-.57-.8-.88-.3-.37-.68-.74-1.04-1.06-1.42-1.3-3.47-2.99-4.37-3.67l2.11-1.89ZM29.38,157.72l.23-.66c1.7-4.84,3.04-8.66-.62-14.36-3.18-4.95-4.01-5.52-5.83-6.76-.32-.22-.68-.47-1.09-.76l-.23-.17c-2.69-1.94-6.75-4.86-10.16-11.68-3.2-6.41-3.55-9.6-3.79-11.72-.02-.21-.04-.4-.07-.59-.09-.76-.18-1.67-.27-2.63-.15-1.66-.31-3.37-.53-4.51-.12-.6-.36-1.4-.64-2.32-.56-1.86-1.33-4.4-1.63-7.14-.2-1.9-.02-5.15.15-8.3.2-3.69.4-7.17-.02-8.51-.75-2.4-2.06-7.48-2.2-11.27-.14-3.72,1.15-10.36,2.18-12.42.44-.89,1.63-2.24,2.88-3.66,1.61-1.83,3.27-3.72,3.95-5.25.78-1.75,1.75-3.03,2.86-4.5.54-.72,1.11-1.46,1.69-2.32.91-1.33,2.22-2.29,3.48-3.21,1.15-.84,2.24-1.64,3.03-2.69,1.18-1.57,2.14-3.11,2.58-3.84l5.57,4.9c-.1.71-1.4,1.41-2.89,2.21-2.11,1.14-5.76,3.79-7.27,6.13-.33.52-.73,1.18-1.2,1.95-1.48,2.44-3.71,6.12-4.88,6.82-1.78,1.05-3.74,4.26-4.2,6.88-.19,1.08-.22,1.72-.25,2.29-.04.75-.06,1.34-.48,2.67-.71,2.3-1.38,5.72-.9,7.8.2.87.68,1.91,1.18,3.02.65,1.42,1.38,3.04,1.63,4.51.2,1.23.11,4.52.03,7.7-.12,4.5-.17,7.29.15,8.09.17.43.49,1.03.85,1.73.94,1.79,2.23,4.25,2.23,5.91,0,.98-.31,1.86-.62,2.7-.42,1.16-.81,2.25-.22,3.34.27.49.66,1.05,1.09,1.65.99,1.4,2.22,3.15,2.12,4.48-.02.29-.05.61-.09.95-.22,2.15-.52,5.09,1.36,7.63.36.49,2.7,3.65,4.51,5.74.84.98,1.59,1.75,1.99,1.95.84.42,6.43,3.88,7.75,5.29.02.02.03.04.05.06l.24.33c3.23,4.52,5,7.13,5.26,7.74.4.94.85,2.36.71,3.79-.06.64.03,1.37.13,2.07.13.95.26,1.93-.05,2.52-.29.54-.5,1.35-.76,2.28-.32,1.19-.69,2.54-1.26,3.51-.39.67-.75,1.6-1.17,2.67-.73,1.86-1.55,3.97-2.74,5.28-1.19,1.32-4.94,4.68-5.85,5.13-.06-.07-.16-.17-.31-.34-.36-.42-.94-1.12-1.9-2.32-.61-.76-1.19-1.5-1.53-1.92,1.11-.72,4.06-3.01,5.76-7.9ZM107.64,238.3s-.06.04-.09.06c-.04.04-.12.09-.2.08-.03,0-.05,0-.08,0h-1.33c-.19-.12-.42-.22-.71-.18h-.45c-.12,0-.23.05-.31.13l-.85.91c-.39.42-.78.74-1.14.95-.08.05-.14.12-.18.2-.56.07-1.13.13-1.63-.01-.36-.1-.63-.36-.94-.65-.12-.12-.25-.24-.39-.35l-.18-.15c-.96-.8-1.95-1.64-3-2.38-.11-.08-.15-.12-.17-.15,0-.11-.03-.22-.1-.3-.08-.09-.2-.14-.33-.15-.39,0-.79,0-1.18,0h-.39c-.07,0-.14.02-.2.05-.4.22-.77.36-1.1.41-.02,0-.04,0-.06.01l-.68.21s-.04.01-.06.02c-.58.28-1.2.45-1.9.52,0,0-.02,0-.03,0-.4.07-.8.1-1.19.1-.16,0-.33-.03-.47-.08-.05-.02-.1-.03-.14-.03-.08,0-.17-.01-.28-.04l-1.21-.77c-.07-.04-.15-.07-.23-.07h-.75c-.08,0-.17.03-.24.07l-.42.28s-.05.04-.08.07c-.24.26-.51.45-.88.66-.04.02-.07.05-.1.08-.49.54-1.44.63-2.1.4,0-.34.01-.73.19-.91l.48-.49s.06-.08.08-.12c.04-.08.07-.2.11-.39l.29-.38s.04-.05.05-.08l1.43-3.03c.03-.06.04-.12.04-.18v-.28c0-.32-.14-.55-.24-.7-.04-.05-.09-.1-.15-.13-.42-.23-.83-.38-1.22-.52-.03-.01-.06-.02-.09-.02-.77-.1-1.52-.25-2.25-.39-.13-.02-.24-.07-.36-.15,0,0-.02-.01-.03-.02-.03-.01-.11-.07-.25-.27,0-.01-.02-.02-.03-.04-.13-.14-.23-.31-.34-.55-.17-.4-.37-.81-.61-1.21-.01-.02-.03-.04-.04-.06-.32-.38-.76-.88-1.25-1.29-.08-.06-.17-.1-.27-.1h-.03c-.1,0-.19.03-.27.1l-2.46,2.05s-.09.09-.11.15c0,.01-.01.02-.02.03-.02.03-.04.07-.07.12-.23.17-.5.39-.76.68-.41.37-.83.68-1.24.92-.02.01-.04.03-.06.04l-1.1.92s-.03.03-.04.04c-.23.25-.51.42-.84.51-.02,0-.03.01-.05.02-.25.1-.44.16-.64.18-.12.02-.22.08-.28.17-.01.01-.02.02-.03.03-.11.12-.27.22-.43.27-.01,0-.02,0-.03.01-.27.11-.57.14-.89.09l-.7-.3s-.1-.03-.15-.03c-.76-.03-1.56-.19-2.43-.47-.49-.18-.96-.32-1.43-.47l-2.69-.71s-.07-.01-.11-.01c-.4,0-.8-.08-1.24-.25-.03-.01-.06-.02-.09-.02l-1.39-.21s-.04,0-.06,0h-.03s-.02,0-.03,0c-1.31.1-2.62-.09-3.91-.54-.02,0-.04-.01-.07-.02l-.34-.06c-.05-.03-.14-.1-.18-.13-.02-.02-.04-.03-.07-.04-.13-.07-.27-.15-.4-.21-.04-.15-.09-.29-.13-.41v-.14c0-.08-.02-.16-.07-.23l-.25-.39v-.37s0-.05,0-.07l-.42-2.54c0-.05-.03-.11-.06-.15l-.06-.11c-.08-.13-.21-.2-.36-.2h-3.92c-.11,0-.21.04-.28.11l-.78.71s-.03.03-.04.04l-.29.35c-.06.08-.1.17-.1.27v1.83c-.11.32-.27.63-.45.89-.01,0-.03.02-.07.03-.56.04-1.14.16-1.63.34-.02,0-.04.02-.06.03l-1.78,1h-.21c-.09,0-.17.03-.24.08l-3.56,2.5c-.06.04-.11.1-.14.17-.03.06-.07.14-.13.22-.04.06-.08.13-.12.21-.03.05-.04.1-.05.16-.02.21-.1.43-.22.65l-1.07,1.24-.06.04s-.04.04-.06.06c-.02.02-.04.05-.07.08-.03.02-.06.05-.08.08-.39.48-.83.77-1.33.87h-2.37l-.81-.47c-.06-.04-.14-.06-.21-.06-.17,0-.37-.01-.59-.03-.54-.1-.88.57-.99.79-.03.06-.04.12-.04.19,0,.27-.08.47-.19.71,0,.02-.02.04-.02.06l-.1.35s-.02.07-.02.11h0s0,.04-.01.05l-.09.3-.55,1.46-.79.8c-.09.04-.17.1-.26.17l-2.74.57h-.31l-.33-.31c-.08-.07-.18-.11-.29-.11h-.05l-.17-.29s-.03-.05-.05-.07l-.06-.06-.77-1.52v-.04c0-.09-.03-.17-.08-.24l-.55-.78c-.05-.07-.12-.12-.19-.15-.04-.04-.11-.11-.16-.17-.02-.02-.04-.04-.06-.06-.2-.15-.41-.22-.61-.22h-.84s-.04,0-.07,0c-.45.07-.92.14-1.35.17-.71.04-1.38.18-2.05.45-.02,0-.03.01-.04.02-.14.08-.3.12-.41.12-.03,0-.06,0-.09,0-.28.06-.65.06-1.08.06h-1.48c-.06-.03-.13-.07-.22-.09l-.4-.49s-.06-.06-.09-.08c-.02-.05-.04-.1-.08-.14l-1.04-1.2s-.02-.02-.03-.03c-.19-.18-.36-.43-.56-.84-.01-.03-.03-.05-.04-.07l-.51-.66c-.03-.09-.09-.25-.22-.39-.02-.02-.03-.03-.05-.05l-.23-.18c-.07-.06-.17-.09-.26-.09h-2.56c-.28-.12-.59-.14-.89-.05-.03.01-.08.03-.13.06-.09.04-.21.09-.37.15-1.55-.48-2.87-1.3-3.93-2.45,0,0-.01-.01-.02-.02-.27-.27-.52-.56-.78-.88-.02-.02-.04-.05-.07-.07,0,0-.06-.05-.06-.05,0-.11-.04-.21-.11-.29h-.01c-.08-.55-.1-1.04-.07-1.6.02-.37.02-.75.03-1.14,0-.38.02-.75.03-1.14,0-.65.04-1.22.12-1.73,0-.02,0-.05,0-.07v-.45c.06-.09.08-.2.06-.3-.05-.29-.14-.54-.27-.78.28-.25.53-.59.74-1,0-.02.02-.04.02-.05.46-1.29.66-2.14.65-2.76.04-.03.07-.05.11-.05.04,0,.18.02.44.31.13.15.35.18.52.08.11-.07.19-.18.21-.3.12-.03.38-.05.9,0,.12.01.23-.02.32-.1l2.21-1.89,3.25-2.03c.06-.03.1-.08.14-.14.09-.15.18-.46.47-1.6.12-.51.33-1.28.72-2.14.21-.22.44-.61.61-.96.59-.32,1.02-.92,1.26-1.79.02-.06.02-.12.01-.18-.04-.29.04-.7.27-1.35.12-.13.3-.35.6-.73,1.15-.68,2.1-1.61,2.83-2.78.07-.12.08-.27.03-.39-.29-.66-.4-1.44-.33-2.31.32-.39.76-.82,1.39-1.36.02-.02.04-.04.06-.06.35-.44.98-1.08,1.99-1.99.09-.08.14-.19.14-.31v-2.02c.13-.29.28-.81.41-1.44.48-1.8.5-3.62.05-5.42.47-.5,1.08-1.03,1.96-1.68.41-.31.64-.79.68-1.43.05-.44-.31-.87-.92-1.4l-.35-1.25c-.37-1.3-.36-2.8.01-4.47.39-.42.75-1.17.45-2.43-.02-.08-.06-.15-.12-.21-.25-.24-.49-.53-.69-.82-.08-.11-.21-.18-.35-.18h-1.74c-.1-.2-.27-.37-.45-.53-.07-.31-.05-.7.07-1.16.09-.31.41-.57.97-.78.02,0,.04-.02.06-.03.59-.32.92-.83,1-1.56,0-.02,0-.03,0-.05,0-.16.07-.45.26-.81l2.79-2.05c.88,1.09,1.42,1.74,1.76,2.12.56.65.67.72.73.77.08.05.15.1.28.1.34,0,1.05-.39,3.15-2.23,1.3-1.14,2.83-2.59,3.42-3.24,1.29-1.43,2.14-3.61,2.9-5.54.39-1,.76-1.95,1.12-2.55.63-1.07,1.01-2.48,1.34-3.72.23-.85.45-1.65.69-2.11.44-.83.29-1.95.14-3.03-.09-.65-.18-1.33-.12-1.87.16-1.61-.33-3.18-.77-4.21-.39-.9-3.24-4.94-5.35-7.9l-.24-.33c-.05-.07-.12-.16-.2-.24-1.22-1.52-7.44-5.31-8.17-5.67-.24-.12-.8-.69-1.55-1.55-1.16-1.35-2.76-3.37-4.39-5.58-1.68-2.28-1.4-5.04-1.19-7.04.04-.34.07-.67.09-.97.12-1.63-1.15-3.44-2.27-5.03-.41-.58-.79-1.13-1.04-1.57-.41-.75-.11-1.59.27-2.65.31-.87.67-1.86.67-2.99,0-1.87-1.34-4.43-2.32-6.3-.36-.68-.66-1.26-.82-1.65-.28-.7-.18-4.45-.09-7.76.09-3.37.18-6.56-.04-7.86-.26-1.58-1.02-3.25-1.69-4.72-.49-1.07-.95-2.08-1.13-2.86-.44-1.91.2-5.16.88-7.36.45-1.44.48-2.11.52-2.88.03-.54.06-1.16.24-2.19.41-2.33,2.26-5.39,3.8-6.3,1.36-.8,3.48-4.3,5.18-7.11.46-.76.86-1.42,1.19-1.93,1.41-2.19,4.98-4.78,6.96-5.85,1.5-.81,2.76-1.49,3.19-2.37.4.32.98.66,1.73.66.12,0,.24,0,.37-.03,1.16-.17,1.42-.93,1.64-1.55.1-.28.19-.54.35-.74.2-.24.46-.24,1.17-.18.5.05,1.13.1,1.88-.02,1.34-.22,1.95-1.71,2.43-2.9.2-.5.39-.97.57-1.16.32-.36,2.38.17,3.93.86.49.22,7.54,3.12,8.45,3.28l.1.02c.93.16,3.12.53,5.92-.02,2.36-.46,3.76-3.09,4.68-4.82.27-.51.5-.94.69-1.21.59-.82,2.51-2.12,3.78-2.97.57-.38,1.02-.69,1.25-.88.03-.02.05-.05.08-.07.57.32,1.47.83,1.95,1.12.11.07.23.12.35.17.54.25,1.19.31,1.98.39.37.04.78.08,1.22.14.09.01.19.04.3.08.89.39,2.35,1.47,3.46,2.3,1.04.78,1.86,1.39,2.34,1.58.02,0,.04.01.06.02.02.01.05.02.07.03.95.38,1.53-.32,1.95-.84.22-.27.45-.55.69-.64.35-.14.79,0,1.34.22.07.03.14.06.21.09.12.05.25.11.38.16.31.13.65.26,1.02.38l.16.05c.26.08.45.14.62.2.51.23.77.55,1.69,1.71.69.88,1.27,1.27,1.77,1.45.44.19.82.21,1.16.22.17,0,.33.01.48.04.3.06.51.05.67.04.07,0,.13,0,.19,0,.13.08.3.24.61.58.75.83.26,2.18,0,2.9-.03.09-.06.17-.09.24-.12.35-.1.68.06.99.2.39.61.7,1.27.96.21.09.44.17.7.25.34.1.66.08.94-.08.65-.35.91-1.28,1.14-2.1.11-.37.24-.84.35-.96.08-.09.2-.14.37-.14.18,0,.39.04.6.12.24.11.47.27.66.45.33.32.29,1.36.15,2-.04.18-.18,1.13,1.09,1.76.05.02.1.04.15.06.17.08.33.11.47.11s.26-.03.35-.07c.19-.08.35-.22.49-.39.09.36.15.82.15,1.36,0,.08,0,.15-.01.22-.05.27-.16.46-.29.67-.19.32-.4.67-.47,1.27-.09.49-.08,1.18.14,2.22.09.44.25.86.47,1.26-.33.15-.91.43-1.33.78-.26.22-.47.52-.71.87-.35.51-.74,1.09-1.42,1.59-.21.16-.41.23-.61.25-.22-.02-.46-.07-.76-.15-.47-.12-1.03-.25-1.71-.22-.2,0-.42,0-.64.04-1.73.23-3.28,1.41-4.6,3.5-1.03,1.63-3.22,2.44-3.24,2.44-.02,0-.05.02-.07.03-.03.02-2.72,1.59-4.1,2.33-1.03.55-2.59.77-4,.81-.32,0-.63,0-.92-.02-1.05-.06-1.79-.44-2.51-.81-.41-.21-.84-.43-1.31-.58-.66-.2-2.24-.5-3.71-.45-1.12,0-2.22.18-2.86.73-.18.15-.39.31-.61.47-1.22.9-2.9,2.13-1.84,4.93,1.02,2.71,3.56,3.92,6.02,5.09.4.19.8.38,1.2.58.83.41,1.39.63,1.81.79.94.36,1.04.4,2.03,2.13,1.54,2.7,2.78,3.48,5.51,3.48.08,0,.16,0,.23,0,.02,0,.03,0,.05,0,1.92,0,2.57-.7,3.21-1.37.27-.29.55-.58.95-.85.04-.03.09-.05.13-.07.17.09.39.35.77.91.49.72,1.11,1.62,2.15,2.09.36.16.7.21,1.03.18,1.06.06,1.98-.74,2.68-1.36.4-.36.74-.64.98-.74,0,0,0,0,0,0,1.31.98,1.21,1.6,1.05,2.61-.1.64-.22,1.45,0,2.46.19.87.63,1.5,1.29,1.88.59.34,1.28.43,1.97.4.82,0,1.65-.18,2.33-.4.11-.03.21-.05.31-.06.36.03.7.18,1.05.33.4.18.83.37,1.31.37.06,0,.11,0,.17,0,.27.02.55-.02.85-.16,1.03-.47.96-1.36.91-2.01-.03-.34-.05-.67.05-.92.13-.32.35-.46.8-.74.47-.28,1.05-.64,1.66-1.4.9-1.12.37-2.27-.02-3.1-.18-.38-.35-.75-.35-1.02,0-.72.6-2.36,1.29-4.26.24-.65.49-1.34.74-2.05.87-2.48-.7-4.08-1.63-5.04-.26-.27-.51-.52-.61-.7l-.05-.09c-.57-1.01-.57-1.13-.29-1.32.17-.12.37-.35.39-.78.05-.87-.74-2.21-1.47-2.87-.68-.61-2.2-1.05-3.83-1.48-.29-.08-.55-.14-.73-.2-.2-.06-.33-.17-.4-.35-.14-.34-.03-.89.27-1.41.35-.6,2.48-1.95,3.87-2.73,1.27.61,2.66.91,3.62,1.09,1.13.21,1.89.67,2.57,1.08.51.31,1,.6,1.55.73.85.19,1.64.12,2.33.06.3-.03.58-.05.85-.05.2.27.38,1.42.51,2.28.26,1.69.55,3.6,1.4,4.45.46.46.9.5,1.2.46,1.04-.16,1.8-1.59,2.35-2.64.13-.26.25-.48.33-.6.16-.25.42-.26.55-.24.33.03.77.3,1.03.94.06.14.08.25.08.35-.03.1-.09.2-.16.34-.16.28-.34.62-.41,1.16-.07.39-.08.9.08,1.58.39,1.77,1.59,2.35,2.44,2.45,0,.16,0,.36,0,.61,0,.18-.03.41-.07.65-.09.65-.21,1.47.1,2.29,0,.02,0,.03.01.04-.05.09-.14.2-.29.37-.23.26-.56.63-.6,1.14-.09.38-.02.84.4,1.4.88,1.2,1.59,1.07,2.29.81.23-.08.42-.15.62-.13.75.1,1.5.38,1.97,1.66.59,1.61,3.32,1.38,3.87,1.32l.29.06c.04.44.02.95-.11,1.12-.44.53-2.6,3.23-2.39,4.52.08.51.29,1,.49,1.48.29.69.57,1.34.45,1.95-.17.93-2.31,4.82-3.13,6.25-.02.04-.56,1.09-.34,2.09.23,1.07,2.76,2.23,3.56,2.52.17.07.31.12.38.14.13.04.38.08.72.15.63.13,2.24.45,3.15.78.19.08.33.16.4.23.26.28,1.19,1.73,2.01,3.02,1.01,1.57,2.05,3.2,2.5,3.72.84.96,3.7,3.21,5.07,4.07.45.28,1.17.57,2.01.9,1.46.58,3.66,1.45,3.78,2.27.12.81-.02,1.41-.17,2.05-.11.48-.23.99-.21,1.55,0,.14,0,.28,0,.4,0,1.08.14,1.54,1.63,2.44,1.55.94,4.05,3.28,4.85,4.41.15.21.3.44.46.68.76,1.13,1.62,2.4,2.56,2.69.13.06.27.1.4.12.47.07,1.21.18,1.9.43.53.22,1,.53,1.25.98.66,1.2,1.63,2.27,2.32,2.87.13.11.36.27.69.49.89.61,3.25,2.22,3.02,3.08-.35,1.33-.75,2.85-1.74,3.47-.34.21-.7.39-1.02.64-.2.16-.41.35-.53.58-.14.26-.09.58-.16.86-.08.32-.23.63-.33.94-.12.36-.23.75-.51,1.02-.05.05-.12.09-.22.14-.41.22-1.18.46-1.7.58l-.19.05-.09.18c-.16.32-.46,1.01-.84,1.89-.14.33-.3.7-.46,1.08-.71,1.64-1.56,3.55-2.02,4.21-.36.52-1.9,2.98-3.69,5.83-2.25,3.6-5.34,8.53-5.67,8.9-.25.28-.53.85-.88,1.58-.05.1-.1.21-.15.32-.48,1.02-1.07,2.26-1.61,2.91-.08.09-.15.17-.23.24-.41.37-.77.57-1.11.76-.05.03-.1.05-.15.08-.47.25-.96.5-1.46,1.09-.22.25-.4.53-.58.81-.06.09-.12.18-.17.28-.13.21-.25.4-.37.58-.3.43-.6.75-1.01.83-.46.09-1.17.03-1.85-.03-.89-.08-1.81-.16-2.52.04-.14.04-.29.08-.46.13-1.01.27-2.44.66-3.45,1.56-.23.21-.44.44-.62.71-.95,1.42-1.51,2.42-.81,3.29.02.03.05.06.08.09.09.1.21.23.35.38.47.5,1.22,1.31,1.81,2.19.46.68.82,1.41.87,2.07.03.42.08.79.14,1.16.19,1.36.35,2.44-.88,4.72-1.01,1.88-3.13,6.42-4.84,10.06-.99,2.11-1.84,3.94-2.1,4.41-.34.64-.79,1.7-1.26,2.82-.41.98-.84,1.99-1.17,2.65-.05.09-.09.18-.13.26-.17.32-.33.61-.48.89-.44.83-.74,1.51-.92,2.31-.05.21-.07.49-.08.81,0,.32,0,.68,0,1.07,0,.82.01,1.78-.1,2.6-.05.37-.13.71-.25,1l-.03.07c-.62,1.53-1.65,4.09-2.9,5.37-.09.09-.17.18-.27.27-1.4,1.41-3.62,3.44-4.41,3.97-.53.36-1.01,1.13-1.51,1.95-.12.2-.26.42-.39.62-.29.45-.58.85-.82,1-.51.33-2.38,1.41-4.06,2.3-.08.04-.17.09-.25.13-.25.13-.49.25-.72.37-.62.3-1.15.55-1.51.67l-.06.02-.05.04c-.08.06-1.87,1.38-2.58,2.12-.74.77-1.61,3.55-1.71,3.87l-.09.3.27.17.03.02,1.78,1.17c-.14.18-.33.33-.55.44ZM171.95,141.34c-.85.67-3.42,4.28-3.75,4.84-.13.23-.35.68-.61,1.2-.39.8-.88,1.79-1.12,2.14-.22.31-.62.86-1.13,1.55-1.67,2.25-4.2,5.66-4.72,7.04-.64,1.7-7.07,11.6-7.73,12.26-.33.32-1.58.6-2.42.78-.91.2-1.33.3-1.54.49-.39.35-.56,1.28-.62,1.76-.28.43-1.54,2.44-1.9,3.38-.25.66-.03,1.58.2,2.56.18.78.37,1.59.33,2.25-.06.97-1.33,2.81-2.17,4.03-.43.63-.74,1.08-.86,1.35-.23.52.07,1.25.44,2.19.34.84.76,1.89.56,2.42-.41,1.08-2.39,3.28-3.29,4.18-.78.78-2.62,3.61-3.33,5.13-.6,1.27-1.5,4.25-2.1,6.22-.14.45-.26.85-.35,1.15-.18.58-.57.86-1.02,1.18-.63.46-1.34.97-1.44,2.3-.14,1.87-.91,4.37-1.16,5.19l-.04.13c-.08.25-.7,1.21-1.25,2.06-1.07,1.65-1.84,2.87-2.01,3.51-.21.83-1.2,1.61-2.07,2.31-.12.1-.25.2-.36.29-1.1.9-3.25,4.35-3.62,5.02-.19.33-1.57.74-3.85.87-1.22.07-3.87,1.55-4.88,2.56-.8.8-2.89,3.73-3.6,4.73l-1.56-1.03s0,0,0,0l-1.87-1.23c.37-1.13,1-2.8,1.42-3.23.07-.08.16-.16.26-.25.69-.64,1.89-1.54,2.16-1.73,1.43-.5,4.86-2.44,6.22-3.25.19-.12.35-.21.44-.27.51-.33.97-1.09,1.46-1.89.41-.67.88-1.44,1.25-1.69.96-.64,3.55-3.05,4.82-4.35,1.36-1.39,2.43-4.05,3.07-5.64l.03-.08c.43-1.07.42-2.65.41-3.92,0-.69-.01-1.35.06-1.68.19-.84.55-1.56,1.08-2.54.08-.14.16-.29.24-.44.36-.66.86-1.84,1.34-2.98.45-1.06.91-2.15,1.23-2.75.26-.5,1.08-2.24,2.11-4.45,1.61-3.44,3.82-8.16,4.82-10.02.25-.47.45-.9.61-1.3.68-1.72.52-2.8.36-3.93-.05-.35-.1-.71-.13-1.1-.14-1.81-1.94-3.74-2.91-4.78-.17-.18-.31-.34-.39-.43-.29-.35-.09-.87.85-2.29.77-1.16,2.4-1.6,3.59-1.92.17-.05.33-.09.47-.13.55-.16,1.39-.08,2.21-.01.78.07,1.51.14,2.09.02.95-.19,1.45-1.01,1.94-1.8.21-.34.43-.69.67-.98.39-.46.75-.65,1.21-.89.3-.16.62-.33.99-.59.14-.1.29-.22.44-.36.67-.6,1.33-1.93,1.92-3.17.04-.08.08-.16.12-.25.35-.73.7-1.48.9-1.71.35-.39,2.6-3.99,5.75-9.02,1.7-2.72,3.31-5.29,3.66-5.8.62-.89,1.75-3.52,2.57-5.44.04-.09.07-.17.11-.26.25-.59.48-1.11.62-1.42.48-.12,1.53-.43,2.01-.81.03-.03.06-.05.09-.08.11-.11.22-.24.31-.4.28-.46.48-1.09.65-1.73v-.06c.03-.05.05-.1.07-.15,0-.02.01-.03.02-.05.01-.03.03-.06.04-.09.32.23.73.53,1.11.82l.94.73c.28.28.88.77,1,.85-.44,2.17-1.11,4.57-1.5,4.88ZM180.39,128.39c-.18.97-.34,1.09-.92,1.56-.21.17-.47.38-.79.67-.61.56-.87,1-1.1,1.39-.25.42-.46.78-1.11,1.26-.1.07-.28.16-.48.27-.63.32-1.63.82-2.35,1.91l-.61-.48c-.07-.07-.24-.21-.73-.58-.1-.08-.21-.16-.33-.24l-1.06-.83c.14-.13.4-.29,1.01-.68,1.27-.8,1.71-2.49,2.1-3.98.35-1.33-1.55-2.75-3.37-3.99-.28-.19-.52-.35-.61-.43-.63-.55-1.53-1.53-2.13-2.63-.4-.73-1.15-1.17-1.93-1.45-.81-.32-1.68-.45-2.23-.54-.02,0-.04,0-.06-.01-.61-.33-1.36-1.44-1.93-2.28-.17-.25-.32-.48-.47-.69-.85-1.2-3.42-3.63-5.1-4.64-1.22-.74-1.22-.92-1.22-1.72,0-.13,0-.27,0-.42-.01-.46.08-.88.19-1.34.15-.66.32-1.4.18-2.37-.19-1.3-2.38-2.17-4.31-2.93-.77-.3-1.49-.59-1.88-.83-1.3-.82-4.09-3.02-4.88-3.92-.41-.47-1.48-2.14-2.42-3.61-1.12-1.75-1.82-2.83-2.11-3.14-.18-.19-.51-.36-.96-.53-.75-.3-1.92-.57-3.44-.88-.3-.06-.56-.11-.67-.14-.05-.01-.11-.03-.18-.06-.92-.38-2.65-1.33-2.75-1.81-.15-.7.26-1.51.26-1.51.3-.53,2.98-5.26,3.21-6.5.16-.86-.18-1.66-.5-2.44-.19-.45-.37-.88-.44-1.29-.11-.67,1.23-2.66,2.21-3.85.31-.39.34-1.04.31-1.53l.54.1c.52.24,1.96.83,3.08.67.05,0,.1-.01.14-.02.41-.07.69-.2.89-.33.1.12.22.25.34.38.18.23.34.4.51.54,0,0,.16-.18.16-.18,0,0-.16.18-.16.18.62.49,1.15.93,1.68,1.51.12.13.31.23.48.17.07-.03.12-.08.18-.12.5-.46,1-.92,1.47-1.42.31.33.58.7.8,1.09.18.33.34.68.33,1.06-.01.62-.54.9-.98,1.23l-.02.02s-.06.04-.09.06l-.05.03s-.07.05-.1.08c-.56.35-1.2.81-1.43,1.62,0,.01,0,.03-.01.05v.02s-.01.02-.01.03c-.11.34-.14.7-.07,1.06.03.32.09.61.15.87.26,1.77-.01,1.91-.46,2.14-.05.03-.11.06-.16.08h-.05s-.03.03-.03.03c-.22.05-.47.08-.71.1-.08,0-.15.02-.23.02-.04,0-.09,0-.13,0h-.04c-.05.01-.11.02-.17.03-.23.03-.48.1-.69.27-.04.03-.08.06-.12.1l-.03.03s-.06.08-.09.12c-.09.12-.14.26-.17.41,0,0,0,.02,0,.03v.06s0,.01-.01.02c-.17,1.03.92,2.29,1.8,3.31.21.25.4.46.53.63.09.14.15.25.2.35.14.29.21.62.22,1.02,0,.21,0,.44-.02.7,0,.16-.01.32-.02.48-.03.55-.03,1.13.25,1.59.03.05.07.11.11.18.09.15.18.28.27.4l.13.19s.03.04.05.07c.48.66,2.18,2.97,3.93,4.66.03.03.05.05.07.07l.14.13c.19.18.47.45.81.69l.1.08c.54.41,1.1.6,1.67.57h.02c.7,0,1.38-.3,2-.9.15-.11.29-.22.43-.33.23-.18.44-.35.66-.49.51-.28,1.05-.44,1.59-.46.25,0,.51.01.75.04.77.11,1.44.43,1.94.66l.04.02c.38.27.63.61.74,1.01.06.19.09.38.09.56,0,.59-.21,1.15-.43,1.74-.02.06-.05.13-.07.2-.08.21-.14.37-.19.52-.02.06-.04.12-.06.18-.15.48-.22.84-.29,1.51-.09.56-.14,1.09-.18,1.54-.01.15-.03.31-.04.47-.12,1.17-.25,2.49.27,3.65.03.07.06.13.09.19v.03s.02.03.04.05l.05.1c.03.06.06.13.1.18.58,1.08,1.24,1.67,2.18,2.44.23.19.44.36.63.52l.23.19c.24.2.45.43.63.69.27.41.48.97.81,1.81l.14.36c.23.68.51,1.39,1,1.98.24.29.47.49.69.63.52.41,1.12.21,1.6.05.11-.04.22-.07.33-.1.13-.02.25-.02.38-.01.17.01.39.1.62.26.08.05.15.11.23.17.78.63,1.64,1.87,1.65,1.89l.12.17h.21s.76.06,1.88.23c.54.12,1,.27,1.39.47.15.08.3.17.45.28.12.11.22.2.3.27.39.39.76.92,1.2,1.72.06.12.13.24.19.36.13.26.27.52.4.79.16.32.33.65.5.98.33.64.76,1.11,1.26,1.4.31.23.73.35,1.2.34.34,0,.59-.05.66-.08.02,0,.06-.01.12-.02.06,0,.11-.01.15-.01.07.18.15.61-.07,1.74ZM192.35,106.26c-.05.19-.12.47-.21.82-1.39,5.36-2.29,8.27-2.65,8.64-.71.54-1,1.25-1.07,1.44l-1.05,1.87c-.45.23-.91.46-1.36.69-.31.16-.6.37-.93.46-.16.04-.28.06-.43.14-.13.08-.25.17-.39.25-.26.15-.52.3-.78.45-.23.13-.45.26-.68.39-.04.02-.28.12-.29.17l-.06.11c-.27.51-1.03,1.95-1.36,2.42-.11.15-.25.36-.4.57-.21.23-.39.48-.52.75l-.31.45c-.07.01-.17.02-.28.02-.26,0-.51-.08-.75-.2-.48-.38-.73-.66-1.89-2.86l-.19-.37c-.75-1.41-.83-1.5-1.25-1.84-.04-.03-.08-.07-.13-.11-.11-.11-.22-.2-.32-.28-.76-.71-.95-.78-1.68-.87-.15-.02-.33-.04-.55-.07-.76-.16-1.45-.21-1.79-.23-.27-.39-.94-1.29-1.7-1.89-.06-.05-.12-.1-.19-.14l-.09-.06c-.76-.53-.95-.58-1.51-.42-.04.01-.09.02-.14.04-.23.04-.42.1-.59.16-.34.11-.47.14-.67.03l-.02-.02c-.39-.32-.75-.63-1.35-2.17l-.08-.23c-.24-.72-.5-1.46-.96-2.12-.22-.34-.46-.61-.8-.89,0,0-.03-.03-.04-.03-.18-.15-.35-.29-.52-.42l-.3-.25c-.61-.52-1.49-1.31-1.98-2.19-.03-.05-.05-.1-.08-.16l-.07-.13c-.53-1.21-.3-3.32-.14-4.72l.04-.35c.01-.11.02-.22.03-.31.06-.41.15-.84.26-1.27.07-.27.16-.54.26-.81.03-.08.07-.17.11-.27.24-.58.45-1.21.43-1.91,0-1.09-.43-1.91-1.26-2.31-.75-.51-1.66-.71-2.28-.78-.3-.04-.6-.06-.88-.05-.28,0-.55.02-.79.05-.38.05-.77.22-1.24.54-.41.23-.81.54-1.19.9-.44.33-.97.67-1.49.7-.39,0-.81-.17-1.23-.47-.25-.2-.52-.43-.8-.7l-.09-.09s-.03-.03-.04-.04c-.59-.59-3.33-3.85-3.85-4.56l-.11-.15c-.12-.18-.23-.33-.31-.45-.14-.24-.26-.56-.24-1.27v-.21c.03-.33.05-.68.04-1.03,0-.57-.08-1.2-.57-1.85-.27-.42-.62-.83-.96-1.22-.6-.7-1.23-1.42-1.23-2.07,0-.02,0-.04,0-.05h0c.01-.07.03-.11.06-.15l.03-.03s0,0,.01-.01c.08-.05.2-.08.3-.1.03,0,.07,0,.12,0h.04s.08-.01.11-.02c.03,0,.07,0,.1,0,.34,0,.72,0,1.06-.17,0,0,.01,0,.02,0h.05s.05-.04.05-.04c0,0,0,0,0,0,.46-.15.79-.4,1-.76.48-.82.29-1.63.13-2.36v-.05c-.05-.25-.1-.53-.16-.83-.02-.26,0-.49.04-.72,0,0,0-.02,0-.03.18-.47.63-.86,1.1-1.21.03-.02.07-.04.1-.07l.14-.1c.42-.27.84-.56,1.12-.98.03-.04.06-.08.08-.13v-.02c.04-.06.08-.13.1-.19v-.03s.03-.06.03-.08c0,0,0,0,0-.01,0,0,0,0,0,0v-.05s.01,0,.01,0h0c.01-.05.03-.1.03-.15.05-.31.01-.66-.11-1.03-.24-.73-.4-1.53-.88-2.15-.33-.42-.89-.83-1.31-.39-.21.22-.58.44-.75.72.06-.28.13-.55.21-.81.1-.28.2-.56.31-.84v-.02c.21-.52.39-.93.57-1.3l.03-.07v-.06s.29-.52.29-.52l.37-.51s.02-.01.03-.02l.1-.06.03-.07.7-.87h.96l.08-.03c.05-.02.11-.05.16-.07h.15s.08-.14.08-.14c.26-.18.51-.42.71-.71.12-.1.6-.47,1.41-.63.42,0,.74.02,1.02.04.5.03.94.06,1.62-.04,1.42-.14,3.38-.77,4.78-1.27l.21-.08c1.48-.54,2.84-1.12,3.44-1.41.49.19,1.84.69,2.75.7.75,0,1.17,0,1.35,0l.75.38c.07.03,6.67,3.34,7.8,3.95.85.46,6.26,7.21,8.3,9.75.61.76,1.04,1.3,1.27,1.57,1.09,1.32,6.16,10.59,6.26,12.8.04.87.32,2.84.64,5.12.5,3.51,1.18,8.33.94,9.23Z"/>
      <path class="cls-3" d="M24.98,242.98h-.52c-.11,0-.21-.04-.29-.11l-.33-.31h-.12c-.15,0-.29-.08-.36-.21l-.27-.46-.07-.07s-.05-.06-.07-.09l-.84-1.66c-.03-.06-.05-.13-.05-.19h0s-.4-.58-.4-.58c-.11-.07-.21-.17-.33-.3-.04-.03-.07-.04-.08-.04h-.8c-.45.07-.93.14-1.39.18-.63.03-1.18.16-1.77.39-.25.13-.51.21-.75.21-.36.07-.76.07-1.21.07h-1.62c-.11,0-.21-.04-.29-.12-.01,0-.05-.02-.11-.03-.1-.02-.19-.07-.25-.15l-.44-.54-.17-.1c-.11-.07-.18-.18-.2-.3,0-.02,0-.03,0-.05l-.86-.99c-.31-.31-.53-.68-.7-1.02l-.53-.67s-.04-.05-.05-.08c-.01-.03-.02-.06-.04-.09-.01-.03-.03-.07-.04-.1l-.09-.05h-2.49c-.07,0-.14-.02-.2-.05-.11-.06-.21-.07-.32-.04,0,0-.03.01-.06.03-.12.05-.31.14-.59.22-.08.02-.16.02-.24,0-1.75-.51-3.24-1.43-4.43-2.72-.29-.29-.55-.6-.8-.91l-.19-.15c-.1-.08-.16-.2-.16-.33v-.05c-.05-.06-.08-.13-.09-.2-.1-.64-.14-1.24-.1-1.89.02-.36.02-.74.03-1.11,0-.38.02-.77.03-1.14,0-.66.04-1.26.13-1.81v-.57c0-.06.01-.11.03-.16-.06-.23-.16-.42-.3-.59-.08-.1-.11-.22-.09-.34.02-.12.09-.23.2-.29.27-.16.54-.48.77-.9.45-1.27.64-2.08.58-2.57-.01-.12.02-.23.1-.32.25-.29.53-.45.85-.45.23-.01.45.07.68.22.27-.15.69-.2,1.31-.15l2.1-1.79s.03-.03.05-.04l3.16-1.98c.07-.21.22-.81.35-1.3.13-.55.36-1.41.8-2.36.03-.06.07-.11.12-.15.05-.04.24-.28.54-.88.04-.09.12-.16.21-.2.42-.19.71-.59.91-1.24-.04-.44.06-.97.36-1.77.03-.08.08-.15.15-.2.09-.1.37-.45.59-.73.03-.04.07-.08.12-.1,1-.57,1.84-1.37,2.49-2.36-.29-.78-.4-1.66-.3-2.64,0-.08.04-.16.09-.22.36-.46.84-.94,1.55-1.55.37-.46.97-1.07,1.92-1.94v-1.93c0-.07.02-.14.05-.2.06-.1.21-.51.38-1.33,0,0,0-.02,0-.02.47-1.73.47-3.48,0-5.21-.04-.14,0-.28.09-.39.52-.6,1.22-1.21,2.24-1.97.21-.16.32-.43.35-.82,0,0,0,0,0,0-.02-.05-.12-.25-.73-.78-.06-.05-.11-.13-.13-.21l-.39-1.38c-.42-1.47-.41-3.16.03-5.01.02-.08.06-.15.12-.21.36-.34.47-.88.33-1.6-.2-.21-.4-.44-.58-.67h-1.86c-.12,0-.24-.05-.32-.15-.08-.09-.11-.21-.1-.32-.01-.03-.07-.12-.33-.33-.06-.05-.11-.12-.14-.2-.16-.48-.15-1.06.02-1.76.17-.59.66-1.04,1.46-1.34.32-.18.48-.45.53-.87,0-.37.15-.82.41-1.28.03-.05.07-.1.12-.13l3.03-2.22,2.36-2.95c.07-.09.18-.15.29-.16.07-.01.34-.09.94-.3.04-.02.09-.02.14-.02h1.23s.06,0,.08,0c.59.12,1.18.16,1.8.12.09-.26.16-.67.13-1.27,0-.17.08-.32.23-.4.1-.05.36-.18.26-.79-.02-.15.04-.31.16-.4.98-.75,1.73-1.76,2.24-2.99.15-1.02.25-2.28.28-3.74,0-.08.02-.15.06-.21.48-.77.77-1.8.9-3.25-.15-.76-.22-1.41-.22-2.03,0-.08.02-.15.06-.22l1.98-3.29v-.76l-1.26-3.3c-.16-.04-.44-.1-.88-.16-.45.11-1.03.17-1.68.17-.06,0-.12-.01-.17-.04-1.02-.46-1.89-1.29-2.65-2.53-.02-.04-.04-.08-.05-.13-.09-.39-.21-.76-.36-1.08-.26-.49-.61-.95-1.02-1.3-.05-.04-.08-.09-.11-.14-.24-.53-.44-1.24-.66-2.35l-1.84-2.1c-.42-.17-.88-.29-1.35-.36-.07,0-.14-.04-.2-.08-.07-.04-.41-.2-.8-.39l-.29-.14s-.09-.05-.13-.09l-1.74-1.86-6.86-6.38c-.09-.08-.14-.19-.14-.31v-.64c-.07-.15-.23-.49-.45-.98l-2.66-2.59s-.02-.02-.03-.03c-.64-.78-.73-2-.28-3.73.03-.13.13-.24.26-.29.85-.33,1.29-.97,1.35-1.95,0-.22,0-.48-.05-.71-.13-.34-.18-.67-.12-1l-1.91-1.01c-.97-.51-1.54-1.35-1.64-2.43-.11-.23-.18-.67-.1-1.75,0-.02,0-.04.01-.07.23-.98.09-1.85-.43-2.63-.05-.07-.07-.15-.07-.23v-3.03s0-.02,0-.02c.06-1.11-.15-2.11-.65-3.04-.14-.13-.36-.45-.75-1.27-.44-.63-.77-1.25-1-1.88l-.28-.58c-.03-.06-.04-.12-.04-.18v-.26c-.36-1.44-.38-2.97-.06-4.57.2-1.34.79-2.61,1.81-3.86l.22-6.3c-.1-.32-.16-.82-.16-1.5-.06-.16-.13-.37-.2-.64-.04-.14-.08-.29-.13-.45,0,0,0-.02,0-.03-.03-.09-.18-.42-.46-.99-.2-.23-.43-.45-.73-.67-1.1-.77-1.75-2.17-1.92-4.15,0-.05,0-.11.02-.16.7-2.31,1.05-4.87,1.05-7.6,0-.05,0-.1.02-.14l1.17-3.31-.06-1.47c0-.07.01-.15.05-.21.74-1.44,1.22-2.21,1.66-2.62l5.6-9.92s.04-.07.07-.09c.36-.36.7-.62,1.02-.81.16-.41.44-.95.81-1.66.06-.13.19-.21.33-.23.81-.09,1.68-.39,2.66-.9.62-.37,1.16-.76,1.75-1.27.24-.47.61-.98,1.1-1.5v-.02c.57-.6,1.14-1.22,1.71-1.88,1.73-1.81,3.72-3,6.1-3.66,0-.01.01-.02.02-.03.11-.16.3-.49.62-1.18.01-.03.03-.06.05-.08.28-.36.48-.86.6-1.48,0-.04.02-.08.04-.12l4.06-7.6v-6.07c0-.09.03-.18.08-.25l.63-.84v-1.34c0-.07.02-.14.05-.21l.36-.63s.01-.02.02-.03c.83-1.21,1.93-2.04,3.26-2.49.11-.04.22-.03.32.02.32.16.68.2,1.12.1.02,0,.03,0,.05,0,.41-.04.8-.04,1.15,0,.02,0,.04,0,.07.01.15.04.31.08.46.18.47.24.92.47,1.44.63.01,0,.02,0,.03.01.25.1.61.27.91.54.12.1.21.16.3.18.09.02.17.06.24.13.36.39.77.66,1.24.82h.49c.17,0,.32.1.38.25h0s.09,0,.13.02c.07.02.14.04.2.06.15.04.3.08.43.15.02.01.05.03.07.05l1.28,1.06v-.59l-.51-.66-1.38-.77c-.06-.03-.11-.08-.15-.14l-.76-1.15-.57-.34c-.1-.03-.17-.05-.23-.08h-.13s-.09,0-.13-.02c-.31-.1-.56-.23-.75-.33h-.44c-.23,0-.42-.19-.42-.42v-.04c-.2-.08-.39-.14-.56-.19-.08-.02-.15-.06-.2-.12-.05-.05-.11-.12-.13-.13-.14-.07-.21-.21-.21-.36v-.42c0-.1.03-.19.1-.27.25-.31.73-.63,1.52-.38.01,0,.03.01.04.02.06.02.11.04.15.06s.08.03.12.05c.41.03.93.23,1.32.92.1.17.25.28.47.32,0,0,.02,0,.03,0,.53.16.9.3,1.23.48h1.09c.11,0,.21.04.29.11l1.04.97.84.32,5.88,1.62s.05.01.07.03l1.2.56s.03.01.04.02c.22.14.42.26.64.38.61.14,1.07.49,1.41,1.07,0,.01.01.03.02.04.14.3.3.54.49.71l1.18,1.07c.12.09.29.16.46.24l.13.06s.02,0,.03.01l1.75.97,5.63,1.94h.54c.12,0,.23.05.31.14.1.1.2.2.32.29l.06.05s.09.06.13.09h.57c.15,0,.29.08.36.21.24.4.52.67.87.81.03.01.05.02.07.04,1.25.85,2.44,1.43,3.64,1.78.76.24,1.46.42,2.09.52,0,0,.01,0,.02,0,.14.03.28.06.4.06.01,0,.03,0,.04,0h.08c.34.04.67.07.98.07.01,0,.02,0,.04,0,.41.03.84.07,1.26.23.21.05.4.17.57.28.2.1.36.22.51.34.03.03.07.05.1.08l1.36.48h.09s.05,0,.08,0l2.66.49s.06.02.09.03l1.05.46h6.81s.05,0,.08,0c.45.08.78.24.98.38.39.11.7.26.97.46h.18c.08,0,.16.02.23.07.09.06.18.08.36.11.06.01.11.03.16.06.12.08.24.16.35.21h.68c.12,0,.24.05.32.14l.87.99s.02.02.03.04l1.04,1.48h.78c.12,0,.23.05.31.14l.33.36s.07,0,.1.02c.08.03.16.06.24.09-.08-.19-.23-.35-.46-.49-.02-.01-.04-.03-.06-.04-.68-.58-1.21-1.23-1.56-1.93-.03-.06-.05-.12-.05-.19v-.63c0-.23.19-.42.42-.42h1.33c.08,0,.16.02.23.07l.76.5,1.89.58c.05.02.11.05.15.08l1.49,1.27s.04.04.06.05c0,0,0,0,0,0,0,0,0,0,0,0,.11.09.14.11.15.11.08.03.15.08.2.15.09.12.25.24.42.37.54.37.92.83,1.13,1.38l1.75,1.77,2.62,1.67c.05.03.1.08.13.14.02.01.11.06.16.1.02,0,.03.02.05.03.02.01.06.03.09.05.07.03.15.07.23.13.02.02.04.04.06.06.1.11.17.2.21.26l.02.03s.06.08.08.13c.01.04.03.07.04.11,0,.02.01.03.02.05.04.03.07.07.09.12.15.3.31.69.19,1.09-.01.05-.04.09-.06.13-.09.12-.11.18-.11.2.03.3.09.48.16.57l.04.03s.04.03.06.04h.19c.15,0,.3.08.37.22.04.07.08.13.11.18.02.02.03.05.05.07l.74.58s.05.04.07.07l2.11,2.61s.03.04.05.07l.24.45.97,1.12c.31.12.59.27.85.46l.05.03c.11.06.26.13.35.3l.66.99c.55.73.77,1.56.62,2.4v.05c-.04.14-.05.22-.03.3,0,.03,0,.05,0,.08,0,.06,0,.12,0,.18h.17s.06,0,.09,0l4.7.99c.05.01.11.03.15.06l2.23,1.51h.42c.1,0,.2.04.28.11l.65.58c.45.16.84.41,1.25.81.03.03.06.07.08.12.28.57.62.99,1.06,1.28.01,0,.03.02.04.03.15.13.3.26.44.43l1.61.66s.03.01.04.02c.12.06.21.13.28.2h.3c.1,0,.2.04.27.1l1.65,1.41s.04.04.06.06l.81,1.06.84.71s.08.08.1.13l.52,1.02c.25.52.52.88.83,1.13.06.05.11.12.14.2.04.14.09.21.1.23.07.08.11.18.11.29v1.34s0,.07-.01.11c-.19.71-.7,1.22-1.47,1.49-.01,0-.02,0-.03.01-.51.13-.95.19-1.37.19-.06,0-.12.02-.19.05-.01,0-.03.01-.04.02-.21.09-.4.2-.56.34-.2.19-.42.38-.65.51-.03.02-.06.04-.09.07l5.16-.82c.18-.21.3-.38.38-.56.06-.12.16-.21.29-.24.04-.17.09-.24.12-.28.21-.27.48-.4.75-.52.17-.15.34-.24.52-.28l.38-.47s.04-.04.06-.06c.07-.06.1-.11.11-.13.02-.04.04-.08.07-.11.03-.03.06-.06.09-.09.06-.06.08-.09.1-.12.04-.09.11-.16.21-.21.18-.09.39-.17.65-.22.01-.01.03-.03.04-.04.06-.1.16-.17.29-.2.07-.01.14-.02.19-.03,0,0,.01,0,.02,0,.08-.04.17-.05.26-.04.15.02.26.05.32.06h.02c.06.01.11.03.17.06l.71.42s.04.03.06.04c.18.15.33.34.5.62.05.07.09.13.13.19.04.06.08.12.12.19.02.04.04.07.06.12.01.04.05.09.07.12.07.08.11.18.11.29v.56l.04.02c.12.06.2.18.22.31l.33,2.45c.02.15-.04.3-.16.4-.52.39-.81.85-.81.86-.08.12-.21.2-.36.2h-1.03l-.81,1.01s-.07.07-.11.1c-.38.23-.62.6-.68,1.03,0,.05-.02.1-.04.14-.18.37-.36.78-.56,1.3,0,0,0,0,0,.01,0,0,0,0,0,.01-.11.28-.21.56-.31.84-.06.2-.12.41-.17.63l.31.27c.18-.2.33-.44.45-.7.05-.13.06-.18.07-.2,0-.05.02-.11.05-.16l.33-.6c0-.27.07-.53.23-.8.03-.05.08-.1.13-.13l.09-.06s.03-.02.05-.03c.03-.09.08-.18.14-.24.02-.03.04-.06.05-.08.09-.26.26-.5.51-.71.23-.39.58-.69.96-.82.05-.02.1-.03.14-.03h.3c.49-.21.99-.35,1.48-.42.47-.05.88.03,1.22.23.07.04.18.08.3.13.09.04.19.08.29.12.62.21,1.22.5,1.84.88.05.03.1.08.13.13.13.19.25.29.46.36.02,0,.03.01.05.02l1.3.6s.04.02.05.03l2.49,1.62s.05.03.07.05l.64.63c.79.44,1.43.95,1.9,1.54.24.23.46.4.68.54.29.11.54.26.82.47.68.48,1.24,1.09,1.65,1.8l1.71,2.56c.05.07.07.15.07.23v.05c.05.08.08.14.1.18.46.44.7.95.71,1.49.04.63.03,1.19-.03,1.7.06.43.18.73.29,1.01.02.05.03.11.03.16v.08l.51,1.12c.03.06.04.12.04.18v.14l.95,1.78s.04.09.05.14c.07.43.19.76.38,1.01.03.05.06.1.07.15l.78,3.17c.26.94.33,1.75.2,2.52-.07.77-.38,1.51-.9,2.15-.06.07-.13.12-.22.14-.27.07-.34.16-.34.18-.01.1-.06.2-.14.26l-1.46,1.27c-.08.07-.18.1-.28.1h-.67c-.1.18-.22.32-.36.43l-1.39,1.16s-.08.05-.12.07c-.58.22-1.05.46-1.43.73-.08.06-.2.16-.32.26-.35.32-.75.52-1.17.61.02.02.05.04.07.06h1.69l.36-.34c.38-1.05,1.09-1.68,2.1-1.87.02,0,.04,0,.06,0,.73-.03,1.45-.12,2.08-.27.52-.15.95-.45,1.28-.89.38-.6.62-1.11.75-1.6,0,0,0-.02,0-.03.1-.3.24-.57.41-.8l.62-1.88c.15-.88.17-1.64.08-2.34-.02-.02-.05-.04-.09-.07-.12-.08-.19-.21-.19-.35v-.57c-.03-.1-.03-.21-.03-.33-.1-.35-.19-.71-.23-1.12-.07-.76-.1-1.58-.1-2.5,0-.19.13-.35.3-.4l.09-5.42c0-.07.02-.14.05-.2l1.13-2.08c.1-.18.31-.26.5-.2l1.3.42s.08.04.12.06l2.04,1.52s.02.02.03.02l2.52,2.26,2.39,1.32c.06.03.1.07.14.12l.68.95s.03.04.04.06l.75,1.52s.03.08.04.12l.36,2.22s0,.04,0,.07v.05c.06.07.17.17.37.31.12.08.19.21.19.35,0,.29.03.59.06.89.02.09.03.17.04.25,0,.06.01.13.03.2,0,.02,0,.04,0,.06.03.61.11,1.26.25,2.1.06.38.16.69.29.99.09.2.18.38.28.56.07.08.11.18.14.29l1.11.78s.05.04.07.06c.05.06.1.11.14.15.56.14.97.52,1.15,1.1,0,.03.02.06.02.08.06.57.02,1.14-.14,1.74-.01.05-.03.09-.06.13l-.54.77v1.3c.07.35.13.72.24,1.05.14.44.33.77.62,1.08.01.01.03.03.04.05l2.66,3.85s.02.03.03.04l.94,1.8c.03.06.05.13.05.2v.28s0,.06,0,.08l-.55,2.7-.42,4.25s-.01.07-.02.1c-.06.16-.12.32-.2.51v.09c0,.07-.02.14-.05.21l-1.13,2.01c-.04.07-.1.13-.18.17l-2.49,1.27c-.06.03-.13.05-.19.05h-.05l-2,1.15c-.22.42-.99,1.88-1.36,2.41-.11.16-.26.37-.41.59-.01.02-.02.03-.04.05-.18.19-.32.39-.42.6,0,.02-.02.04-.03.05l-.19.28c.01.07,0,.15-.02.22-.14.35-.23.7-.27,1.03,0,.04-.01.07-.03.1l-.39.95c-.2.44-.46.82-.79,1.18-.37.41-.79.77-1.2,1.05l-1.32,1.01c-.26.4-.59.84-1,1.32-.49.53-.97.88-1.52,1.11-.02,0-.05.02-.07.02-.12.03-.26.09-.41.15-.48.19-.93.44-1.33.75l-.05.04c-.1.08-.19.16-.28.24v.17s0,.02,0,.04l-.29,3.32c-.01.15-.11.29-.25.35l-3.41,1.51c-.21.13-.42.26-.67.4-.13.12-.25.22-.37.37-.11.21-.22.39-.32.56-.05.08-.09.15-.14.23-.35,1.03-.45,2.12-.29,3.26.08.48.03.98-.16,1.42,0,0,0,.02-.01.02-.24.49-.52,1.01-.96,1.53-.39.46-.75.95-1.05,1.42-.04.23-.18.41-.38.51-.11.1-.2.2-.26.3-.07.1-.12.24-.18.4-.01.03-.02.06-.04.08l-1.1,1.7c-.04.19-.07.38-.07.57,0,.01,0,.03,0,.04-.08.77-.55,1.36-1.34,1.67-.15.13-.31.23-.46.3-.36.34-.65.71-.96,1.16-.11.14-.15.25-.21.4,0,0,0,.01,0,.02-.25.59-.41,1.1-.49,1.59,0,.05-.03.1-.05.14l-.71,1.23s-.01.02-.02.03c-.3.44-.64.84-.96,1.23,0,0-.01.02-.02.02-.07.07-.09.12-.1.16,0,.03-.02.06-.04.09-.37.62-.75,1.35-1.15,2.22-.02.04-.04.07-.06.1l-3.5,4.09s-.03.03-.05.05l-.94.81s-.01.01-.02.02c-.35.26-.74.44-1.19.53-.05.02-.1.05-.15.07-.21.1-.42.21-.65.3-.09.05-.15.09-.18.14-.05.07-.12.12-.2.15-.49.19-.93.48-1.38.9-.33.3-.49.62-.52,1.02,0,.02,0,.03,0,.05-.02.13-.02.25,0,.38.08.52.07,1-.04,1.41-.02.1-.08.18-.16.24-.03.02-.06.04-.09.06-.07.05-.14.1-.21.17,0,0-.01.01-.02.02l-2.09,2c-.58,1.13-.89,2.45-.92,3.92,0,.01.02.03.04.05,0,0,0,0,.01,0,0,0,.02,0,.03,0,.04-.04.1-.09.17-.15,0,0,.01,0,.02-.01.23-.17.45-.47.64-.89.06-.13.17-.22.31-.24.01,0,.04-.03.07-.05.1-.08.23-.11.36-.09.04,0,.07.01.11.02.11.02.24.04.36.11.24.07.45.19.65.3l.12.07c.14.07.22.22.22.37v.05l.21.23s.07.1.09.16l.32,1.02c.04.13.02.26-.06.37,0,.02,0,.06,0,.12.02.12-.02.25-.1.34-.06.08-.15.13-.25.14l-1.34,2.7s-.04.07-.07.1c-.34.37-.75.74-1.1,1.05,0,0-.02.02-.03.02-.54.4-1.02,1.03-1.46,1.93-.04.08-.1.14-.17.18-.56.32-.95.74-1.22,1.32l1.36,1c.12.09.27.21.45.38.09.08.14.19.14.31v.42c0,.11-.04.21-.11.29l-.39.42s-.06.05-.09.07l-3.02,1.87s-.02.09-.03.12c-.02.07-.05.14-.1.19l-1.38,1.5v.93c0,.07-.02.14-.05.21l-.75,1.34s-.05.08-.09.11c-.25.22-.44.49-.55.81-.03.16-.08.29-.13.42l-.04.11s-.01.03-.02.05c-.22.41-.4.88-.59,1.48-.16.58-.28,1.12-.37,1.63.03.55-.05,1.04-.25,1.45l-.73,4.14c-.03.16-.15.3-.31.34-.68.17-1.47.36-2.25.47-.02,0-.04,0-.06,0h-.2c-.03.2-.21.35-.42.35h-.03l-.22.8v.66l.9,1.34s.04.07.05.11c.09.28.09.65.01,1.11,0,.02,0,.03-.01.05-.13.44-.34.88-.66,1.36v2.27c0,.1-.03.19-.09.27l-1.2,1.48s-.04.05-.07.07l-2.52,1.96-.23.43v1.13c0,.14-.07.27-.19.35-.5.33-.93.53-1.37.61-.07.05-.14.1-.21.15-.17.12-.37.26-.59.41-.09.2-.21.42-.35.67l-.05.09c-.03.13-.06.29-.13.43-.14.51-.48.93-.77,1.24l-1.66,1.67c0,.17-.02.31-.04.46v.04s-.02.06-.03.08c-.19.53-.51.84-.96.94-.03,0-.06,0-.09,0h-1.46s-.1,0-.14-.03l-.29-.11s-.06-.03-.09-.04c-.09-.06-.14-.07-.22-.07-.12,0-.27,0-.35.04-.01,0-.03.01-.04.02-.5.16-.89.32-1.24.53,0,0-.02,0-.03.01l-2.56,1.27s-.05.02-.08.03l-1.85.49c-.16.18-.35.31-.57.4l-.16.27c0,.1-.02.2-.04.32l-.02.17c-.04.58-.24,1.05-.6,1.44-.05.06-.12.1-.2.12-.12.03-.2.06-.29.1-.38.14-.65.37-.82.71.02.5-.09,1.02-.31,1.45-.09.19-.2.43-.34.68-.05.09-.1.19-.16.29,0,0-.01.02-.02.03-.15.23-.43.55-.9.79-.25.2-.53.28-.82.24h-1.43c-.09,0-.18-.03-.25-.08-.16-.11-.2-.11-.23-.1-.03,0-.05,0-.08,0h-.3l-1.66,1.77c-.06.07-.14.11-.23.13-.06.17-.21.29-.4.29h-2.27c-.1,0-.19-.03-.27-.09l-3.2-2.58c-.11-.07-.18-.18-.23-.27-.01-.02-.03-.05-.04-.07l-1.32-.91c-.08-.05-.13-.12-.16-.21h-1.08c-.44.23-.85.38-1.24.45l-.62.19c-.66.32-1.36.51-2.14.59-.44.07-.88.11-1.32.11-.23,0-.48-.04-.69-.11-.15,0-.31-.03-.49-.08-.04-.01-.08-.03-.12-.05l-1.16-.74h-.49l-.27.18c-.32.34-.67.56-.98.75-.17.17-.37.29-.55.39-.01,0-.02.01-.03.02-.54.23-1.12.35-1.72.35-.02,0-.04,0-.06,0-.28-.04-.51-.12-.7-.24h-.05c-.14,0-.28-.07-.36-.19-.07-.12-.09-.26-.03-.39h0s0-.04,0-.06c-.01-.06-.02-.13-.02-.2,0-.01,0-.02,0-.04.04-.5.17-.93.38-1.28.02-.03.04-.05.06-.08l.42-.43s.03-.11.05-.24c.01-.07.04-.13.08-.18l.33-.42,1.37-2.91v-.19s0-.08-.04-.14c-.32-.16-.63-.28-.97-.4-.78-.11-1.52-.25-2.24-.39-.23-.04-.44-.13-.66-.27-.16-.09-.32-.25-.5-.48-.18-.2-.33-.44-.48-.76-.16-.37-.34-.74-.55-1.1-.24-.28-.54-.63-.88-.94l-2.14,1.78s-.01.02-.02.03c-.02.02-.03.05-.04.06-.03.09-.08.16-.16.22-.32.23-.54.42-.75.65,0,0-.02.02-.03.03-.45.41-.91.75-1.37,1.02l-1.05.88c-.33.35-.74.6-1.19.73-.24.1-.45.16-.65.2-.02.01-.03.02-.05.03-.2.19-.46.35-.72.43-.42.16-.89.21-1.38.12-.03,0-.07-.01-.1-.03l-.68-.29c-.81-.04-1.66-.21-2.59-.51-.5-.18-.95-.32-1.39-.46l-2.62-.69c-.47,0-.94-.1-1.45-.29l-1.31-.2c-1.4.1-2.82-.09-4.2-.58l-.36-.06s-.05-.01-.07-.02c-.14-.05-.27-.14-.42-.26-.17-.09-.35-.19-.48-.25-.12-.05-.21-.16-.24-.28-.06-.23-.12-.43-.18-.6-.02-.05-.03-.1-.03-.15v-.09l-.25-.39c-.05-.07-.07-.15-.07-.23v-.46l-.37-2.26h-3.45l-.63.58-.18.21v1.75s0,.09-.02.13c-.14.43-.36.86-.61,1.21-.01.01-.02.03-.03.04-.18.19-.36.25-.52.3-.03,0-.05.01-.08.01-.49.03-.99.13-1.41.28l-1.85,1.04c-.06.04-.13.05-.21.05h-.19l-3.37,2.37c-.04.07-.07.13-.11.2-.02.04-.05.08-.07.12-.05.31-.16.62-.33.92-.01.02-.03.05-.05.07l-1.13,1.31s-.04.05-.07.06l-.05.04s-.07.1-.14.15c-.51.62-1.15,1.01-1.84,1.13-.02,0-.05,0-.07,0h-2.53c-.07,0-.15-.02-.21-.06l-.81-.47c-.16,0-.32-.01-.5-.03-.03.04-.09.11-.16.24-.02.37-.13.65-.25.92l-.07.26v.05c0,.06-.01.12-.04.18l-.02.05-.09.29s0,.02,0,.02l-.58,1.55c-.02.06-.05.11-.1.15l-.91.92s-.1.08-.16.1c-.05.02-.16.11-.2.14-.05.04-.12.07-.18.09l-2.88.6s-.06,0-.09,0ZM24.63,242.14h.31l2.74-.57c.09-.07.18-.13.27-.17l.79-.8.55-1.46.09-.3s0-.03.01-.04h0c0-.05,0-.09.02-.13l.1-.35s.01-.04.02-.06c.11-.24.19-.43.19-.71,0-.07.02-.13.04-.19.11-.22.44-.89.99-.79.22.02.41.03.59.03.07,0,.15.02.21.06l.81.47h2.37c.5-.09.94-.39,1.33-.86.02-.03.05-.06.08-.08h0s.04-.06.07-.09c.02-.02.04-.04.06-.06l.06-.04,1.07-1.24c.12-.22.19-.44.22-.65,0-.05.02-.11.05-.16.04-.07.08-.14.12-.21.05-.08.09-.16.12-.22.03-.07.08-.13.14-.17l3.56-2.5c.07-.05.16-.08.24-.08h.21l1.78-1s.04-.02.06-.03c.49-.18,1.06-.3,1.63-.34.04-.01.06-.02.07-.03.18-.26.34-.57.45-.89v-1.83c0-.1.03-.19.1-.27l.29-.35s.03-.03.04-.04l.78-.71c.08-.07.18-.11.28-.11h3.92c.15,0,.28.08.36.2l.06.11s.05.1.06.15l.42,2.54s0,.05,0,.07v.37l.25.39c.05.07.07.15.07.23v.14c.04.12.09.26.13.41.13.06.26.14.4.21.02.01.05.03.07.04.04.03.12.1.18.13l.34.06s.04,0,.07.02c1.29.46,2.6.64,3.91.54.01,0,.02,0,.03,0h.03s.04,0,.06,0l1.39.21s.06.01.09.02c.44.17.84.25,1.24.25.04,0,.07,0,.11.01l2.69.71c.47.14.93.29,1.43.47.88.28,1.68.44,2.43.47.05,0,.1.01.15.03l.7.3c.33.05.62.02.89-.09,0,0,.02,0,.03-.01.16-.05.32-.15.43-.27.01-.01.02-.02.03-.03.07-.09.17-.15.29-.17.2-.03.39-.08.64-.18.02,0,.03-.01.05-.02.32-.09.6-.26.84-.51.01-.01.03-.03.04-.04l1.1-.92s.04-.03.06-.04c.41-.24.83-.55,1.24-.92.27-.29.53-.5.76-.68.02-.05.05-.09.07-.12,0-.01.02-.02.02-.03.03-.06.06-.11.11-.15l2.46-2.05c.08-.06.17-.1.27-.1h.03c.1,0,.2.03.27.1.49.41.93.9,1.25,1.29.02.02.03.04.04.06.24.4.44.81.61,1.21.11.24.22.41.34.55.01.01.02.02.03.04.14.2.22.25.25.27,0,0,.02.01.03.02.12.08.23.13.36.15.73.14,1.48.28,2.25.39.03,0,.06.01.09.02.4.14.81.29,1.22.52.06.03.11.08.15.13.1.15.24.38.24.7v.28c0,.06-.01.12-.04.18l-1.43,3.03s-.03.05-.05.08l-.29.38c-.04.18-.07.3-.11.38-.02.04-.05.09-.08.12l-.45.46c-.13.22-.21.51-.24.84,0,0,0,.03,0,.04,0,0,0,.02,0,.03.01,0,.02.02.03.03.06.05.15.11.37.14.47,0,.92-.1,1.34-.27.17-.1.28-.17.36-.26.03-.03.06-.06.1-.08.36-.22.64-.4.88-.66.02-.02.05-.05.08-.07l.42-.28c.07-.05.15-.07.24-.07h.75c.08,0,.16.02.23.07l1.21.77c.11.03.2.04.28.04.05,0,.1,0,.14.03.14.05.32.08.47.08.4,0,.8-.03,1.19-.1,0,0,.02,0,.03,0,.7-.07,1.32-.24,1.9-.52.02,0,.04-.02.06-.02l.68-.21s.04-.01.06-.01c.33-.05.7-.19,1.1-.41.06-.03.13-.05.2-.05h1.59c.23,0,.42.19.42.42v.06l1.21.83s.08.07.11.11c.04.06.08.12.11.18,0,.01.01.02.02.03l3.1,2.5h1.72c.06-.16.21-.28.4-.28h.14l1.66-1.77c.08-.09.19-.13.31-.13h.45c.29-.04.53.06.71.18h1.33s.05,0,.08,0c.08.01.16-.04.2-.08.03-.02.06-.04.09-.06.25-.12.46-.31.6-.51.05-.09.1-.18.14-.26.12-.24.23-.45.32-.65.17-.34.25-.75.22-1.13,0-.07,0-.13.03-.2.26-.6.71-1.02,1.35-1.25.07-.02.14-.05.23-.08.18-.23.28-.51.3-.86,0,0,0-.02,0-.03l.03-.19c.02-.14.04-.25.04-.32s.02-.15.06-.22l.29-.49c.06-.1.15-.16.25-.19.16-.04.28-.13.39-.27.06-.07.14-.13.23-.15l1.94-.52,2.51-1.24c.39-.23.84-.42,1.38-.59.24-.1.48-.1.66-.1.23,0,.43.06.64.18l.18.06h1.33c.09-.03.19-.11.29-.36h0c.03-.17.05-.3.03-.43s.02-.27.12-.36l1.78-1.8c.33-.35.5-.64.57-.9,0-.03.01-.05.03-.07.04-.08.06-.2.08-.3l.02-.08s.02-.08.04-.11l.07-.13c.15-.27.28-.51.36-.7.03-.08.09-.15.17-.2.25-.16.47-.31.66-.45.11-.08.21-.15.3-.21.05-.04.11-.06.17-.07.29-.04.59-.17.94-.38v-1c0-.07.02-.14.05-.2l.32-.6c.03-.05.07-.1.11-.13l2.55-1.98,1.07-1.33v-2.25c0-.09.03-.17.08-.24.31-.44.5-.81.61-1.19.06-.35.04-.55.02-.65l-.93-1.39c-.05-.07-.07-.15-.07-.24v-.85s0-.08.02-.11l.32-1.16c.05-.17.19-.29.36-.31.05-.14.17-.25.32-.28.15-.03.23-.05.23-.05.04-.02.09-.02.14-.02h.29c.63-.09,1.28-.24,1.86-.38l.7-3.93s.02-.08.04-.12c.15-.3.21-.68.18-1.12,0-.03,0-.07,0-.1.09-.55.22-1.13.4-1.77.2-.65.4-1.16.64-1.62l.04-.09c.04-.11.08-.21.1-.3,0-.02,0-.04.01-.06.15-.44.41-.84.75-1.16l.66-1.18v-.98c0-.11.04-.21.11-.29l1.42-1.54c.04-.17.12-.36.3-.49,0,0,.02-.01.03-.02l3.03-1.87.24-.26v-.07c-.1-.09-.18-.15-.25-.2l-1.62-1.2c-.15-.11-.21-.31-.15-.48.31-.88.84-1.53,1.6-1.99.49-.95,1.02-1.64,1.64-2.11.32-.28.68-.61.99-.94l1.43-2.87c.04-.07.09-.13.16-.17,0-.04.02-.07.03-.1l-.24-.77-.26-.28c-.06-.07-.1-.16-.11-.25-.16-.09-.29-.16-.44-.2-.04-.01-.08-.03-.12-.05-.01,0-.03,0-.05-.01-.02.01-.04.02-.06.03-.24.47-.51.82-.82,1.05-.1.08-.15.14-.17.16-.06.06-.14.11-.22.13-.08.02-.14.03-.2.04-.05,0-.08.01-.1.02-.13.05-.27.03-.38-.05-.45-.3-.54-.63-.54-.84.03-1.65.39-3.13,1.05-4.39.02-.04.05-.08.08-.11l2.13-2.04c.1-.11.2-.18.28-.24.05-.27.04-.58,0-.92-.04-.21-.04-.43,0-.64.04-.61.31-1.14.78-1.57.49-.47.99-.8,1.55-1.03.14-.15.29-.24.41-.3.02-.01.04-.02.06-.03.2-.07.39-.17.59-.27.07-.03.14-.07.21-.1.03-.02.07-.03.11-.04.34-.06.63-.18.88-.37l.9-.78,3.44-4.02c.4-.86.77-1.58,1.14-2.21.05-.15.14-.29.27-.43.31-.38.62-.74.89-1.14l.67-1.15c.09-.53.27-1.09.53-1.7.07-.2.16-.38.31-.59.31-.44.66-.91,1.12-1.33.03-.03.07-.06.12-.08.12-.05.25-.14.38-.25.04-.03.08-.06.13-.08.52-.19.8-.51.86-.97,0-.27.04-.55.11-.82.01-.04.03-.08.05-.12l1.11-1.72c.07-.18.14-.37.26-.54.12-.17.27-.34.46-.5.02-.02.04-.03.06-.04,0-.05.03-.1.05-.14.33-.54.73-1.08,1.17-1.61.36-.42.6-.84.84-1.35.12-.29.15-.63.1-.96-.18-1.3-.06-2.54.34-3.7,0-.03.02-.05.03-.07.06-.1.11-.19.17-.28.11-.18.21-.35.31-.55.01-.02.03-.04.04-.06.19-.25.38-.41.54-.56.02-.02.05-.04.08-.05.25-.14.48-.28.69-.41.02-.01.03-.02.05-.03l3.21-1.42.27-3.05v-.33c0-.11.05-.22.13-.3.14-.14.29-.27.46-.41l.05-.04s0,0,0,0c.47-.37.99-.66,1.54-.87.14-.06.32-.14.51-.19.43-.18.79-.45,1.18-.87.39-.47.71-.89.96-1.28.03-.04.06-.08.1-.11l1.39-1.06s.01,0,.02-.01c.36-.24.72-.56,1.06-.92.27-.3.48-.61.64-.95l.36-.89c.04-.25.1-.51.18-.77-.08-.14-.07-.32.02-.45l.41-.59c.13-.26.31-.52.52-.75.15-.21.29-.41.4-.57.33-.48,1.1-1.91,1.36-2.42.04-.07.09-.13.16-.17l2.2-1.27c.06-.04.14-.06.21-.06h.06l2.29-1.17,1.02-1.8v-.07c0-.06.01-.12.04-.18.08-.18.14-.33.2-.48l.42-4.21s0-.03,0-.04l.54-2.67v-.14l-.88-1.68-2.63-3.8c-.36-.4-.61-.83-.78-1.37-.13-.39-.2-.8-.26-1.17v-.09s-.02-.05-.02-.07v-1.41c0-.09.03-.17.08-.24l.57-.82c.11-.46.15-.89.11-1.32-.11-.3-.32-.47-.65-.52-.15-.02-.27-.12-.33-.25-.02-.02-.05-.06-.09-.1l-1.23-.86c-.11-.08-.18-.21-.18-.35,0-.01,0-.01,0,0-.01-.02-.03-.03-.04-.05-.14-.23-.25-.46-.35-.68-.17-.37-.28-.75-.36-1.2-.15-.86-.23-1.54-.26-2.17-.01-.08-.02-.16-.03-.23,0-.06-.01-.12-.03-.18,0-.02,0-.03,0-.05-.03-.25-.05-.51-.06-.78-.24-.18-.4-.36-.5-.54-.03-.06-.05-.13-.05-.2v-.14l-.34-2.13-.7-1.43-.6-.85-2.35-1.29s-.05-.03-.08-.06l-2.55-2.28-1.97-1.46-.9-.29-.92,1.68-.1,5.72c0,.18-.12.34-.29.39,0,.74.04,1.41.09,2.03.03.35.12.68.21,1.02.01.04.02.07.02.11,0,.06,0,.13,0,.16.02.05.03.1.03.15v.42c.07.05.11.1.15.14.06.06.09.14.11.22.13.83.11,1.74-.07,2.78,0,.02,0,.04-.02.06l-.65,1.98s-.04.09-.07.13c-.13.17-.24.38-.32.61-.16.57-.43,1.15-.86,1.83,0,0-.01.02-.02.02-.44.6-1.03,1.01-1.75,1.21,0,0-.01,0-.02,0-.68.16-1.44.26-2.21.29-.72.15-1.19.6-1.47,1.41-.02.06-.06.12-.11.17l-.55.53c-.08.08-.18.12-.29.12h-2.04c-.12,0-.23-.05-.31-.14-.03-.04-.07-.08-.09-.09-.45-.14-.85-.39-1.19-.74l-.02-.02s-.01-.01-.02-.02c-.05-.05-.1-.11-.15-.17-.1-.13-.13-.3-.06-.45.07-.15.22-.24.38-.24h.19s.08,0,.12.02h.03s.01.01.02.02c.71.25,1.32.14,1.81-.31,0,0,.01-.01.02-.02.14-.11.27-.22.38-.3.43-.3.93-.56,1.55-.8l1.34-1.12s.15-.14.23-.36c.06-.16.22-.27.39-.27h.78l1.24-1.08c.08-.24.29-.5.77-.66.37-.49.59-1.05.64-1.61,0-.01,0-.02,0-.03.11-.65.05-1.34-.18-2.18l-.76-3.11c-.23-.34-.38-.75-.47-1.24l-.97-1.81c-.03-.06-.05-.13-.05-.2v-.15l-.51-1.12c-.03-.06-.04-.12-.04-.18v-.09c-.12-.31-.25-.68-.32-1.19,0-.03,0-.07,0-.1.06-.48.07-1.01.03-1.62,0,0,0-.02,0-.02,0-.4-.26-.72-.48-.92,0,0-.02-.02-.03-.03-.05-.05-.08-.11-.11-.16-.03-.05-.06-.11-.12-.19-.05-.07-.08-.16-.08-.25v-.05l-1.65-2.47s0-.01-.01-.02c-.36-.61-.84-1.14-1.43-1.56-.24-.18-.42-.29-.65-.37-.03,0-.05-.02-.07-.04-.3-.18-.58-.4-.88-.69-.01-.01-.03-.03-.04-.04-.42-.52-.99-.98-1.72-1.38-.03-.02-.07-.04-.09-.07l-.65-.64-2.43-1.58-1.25-.58c-.34-.12-.6-.31-.82-.61-.55-.33-1.08-.58-1.62-.76-.01,0-.03-.01-.04-.02-.09-.04-.18-.08-.26-.11-.13-.05-.27-.11-.41-.18-.2-.12-.42-.16-.69-.13-.43.06-.89.19-1.33.39-.05.02-.11.04-.17.04h-.31c-.19.09-.37.27-.49.49-.03.05-.07.09-.11.13-.16.13-.27.26-.3.41-.02.07-.05.13-.1.18,0,0-.01.01-.02.02-.02.04-.04.07-.06.1-.01.17-.13.32-.28.38-.03.02-.06.04-.1.07h-.01c-.06.12-.07.22-.06.33.01.09,0,.18-.05.26l-.35.64c-.02.07-.05.17-.1.32,0,.01,0,.02-.01.03-.23.5-.54.91-.94,1.26-.16.14-.4.14-.55,0l-.8-.69c-.1-.09-.16-.22-.14-.36,0-.03,0-.06.02-.08.07-.32.15-.62.23-.9,0,0,0-.02,0-.02.1-.28.21-.57.32-.86,0-.02.01-.04.02-.06.2-.51.37-.92.56-1.29.1-.63.46-1.18,1-1.53l.9-1.11c.08-.1.2-.16.33-.16h1.01c.14-.18.37-.46.69-.73l-.27-2c-.06-.04-.12-.09-.18-.16-.07-.08-.11-.18-.11-.29v-.63c-.05-.07-.09-.15-.12-.23-.04-.05-.07-.1-.1-.15-.04-.06-.08-.12-.12-.19,0,0,0-.01-.01-.02-.12-.19-.21-.31-.31-.41l-.61-.36s-.01,0-.02,0c-.03,0-.08-.02-.14-.03-.04.01-.09.02-.14.03,0,0,0,0,0,0-.03.02-.06.06-.1.1-.07.07-.16.12-.25.13-.17.02-.3.06-.44.12-.06.09-.13.15-.18.21,0,0-.02.02-.02.02-.07.12-.16.23-.27.33l-.46.57c-.08.1-.2.16-.33.16-.05,0-.13.05-.23.14-.04.03-.08.06-.12.08-.21.09-.34.15-.43.25,0,.04-.01.12-.01.21,0,.23-.19.42-.42.42h-.04c-.15.26-.34.47-.49.64-.06.07-.15.12-.25.13l-6.42,1.02c-.16.03-.32-.04-.41-.17-.09-.13-.11-.3-.03-.44.18-.34.37-.6.6-.82,0,0,.01-.01.02-.02.04-.03.07-.06.11-.09.09-.08.18-.16.32-.25,0,0,.02-.01.03-.02.15-.08.33-.24.5-.4.23-.2.49-.37.78-.49.19-.1.38-.15.57-.15.34,0,.71-.05,1.14-.16.48-.17.77-.45.9-.85v-1.14c-.05-.08-.1-.17-.13-.28-.37-.33-.67-.75-.96-1.33l-.48-.94-.81-.69s-.04-.04-.06-.06l-.82-1.06-1.5-1.28h-.39c-.14,0-.28-.07-.36-.19-.02-.03-.03-.06-.04-.09,0,0,0,0-.01,0l-1.69-.7c-.07-.03-.13-.08-.18-.14-.1-.13-.23-.25-.37-.37-.53-.36-.96-.88-1.29-1.53-.32-.31-.6-.48-.94-.59-.06-.02-.11-.05-.16-.09l-.59-.53h-.39c-.08,0-.17-.03-.24-.07l-2.26-1.54-4.57-.96h-.73c-.18,0-.33-.11-.4-.27-.06-.17-.01-.35.12-.47.02-.02.05-.08.05-.25-.03-.22,0-.4.03-.56v-.04c.11-.61-.04-1.2-.46-1.75,0,0-.01-.02-.02-.02l-.66-1s-.03-.01-.04-.02c-.03-.01-.06-.03-.09-.05-.02,0-.03-.02-.05-.03-.23-.17-.48-.3-.77-.4-.07-.02-.13-.07-.18-.12l-1.07-1.23s-.04-.05-.05-.08l-.24-.46-2.05-2.54-.77-.61c-.06-.05-.1-.11-.13-.17,0,0-.01-.02-.02-.02,0,0-.01-.02-.02-.03h-.06c-.15,0-.26-.07-.43-.18l-.09-.06s-.06-.04-.08-.07c-.22-.24-.36-.63-.4-1.13,0-.01,0-.02,0-.04,0-.25.11-.46.22-.63,0-.06-.02-.16-.09-.32-.11-.11-.16-.26-.2-.37v-.03s-.02,0-.02-.01c-.03-.04-.07-.09-.12-.15-.02,0-.04-.02-.07-.03-.06-.03-.13-.06-.21-.11-.13-.07-.28-.16-.39-.29l-2.59-1.65s-.05-.04-.07-.06l-1.85-1.87s-.08-.1-.1-.17c-.14-.42-.41-.76-.84-1.05-.12-.09-.25-.18-.36-.28-.06.04-.13.06-.21.06h0c-.23,0-.42-.19-.42-.42v-.16s-1.34-1.14-1.34-1.14l-1.86-.57s-.07-.03-.11-.05l-.7-.46h-.78v.11c.3.56.73,1.09,1.28,1.56.77.48,1.05,1.22.81,2.14-.04.16-.17.28-.33.31-.16.03-.32-.03-.42-.16-.12-.16-.29-.28-.51-.36h-.09c-.12,0-.23-.05-.31-.14l-.33-.36h-.82c-.14,0-.27-.07-.35-.18l-1.15-1.64-.73-.83h-.59c-.06,0-.12-.01-.17-.04-.17-.07-.33-.17-.48-.27-.16-.03-.31-.07-.47-.15h-.21c-.1,0-.2-.04-.27-.1-.22-.18-.47-.31-.84-.41-.05-.01-.1-.04-.14-.07-.1-.07-.32-.2-.67-.27h-6.86c-.06,0-.12-.01-.17-.04l-1.09-.47-2.57-.48h-.12s-.1,0-.14-.02l-1.49-.53s-.07-.03-.11-.06c-.06-.04-.11-.08-.17-.13-.13-.1-.25-.2-.38-.25-.02,0-.04-.02-.05-.03-.12-.08-.26-.17-.34-.19-.02,0-.04-.01-.07-.02-.3-.12-.66-.15-1.03-.18-.34,0-.68-.03-1.04-.06h-.07c-.2,0-.38-.05-.54-.08-.66-.11-1.4-.29-2.19-.54-1.26-.37-2.52-.98-3.83-1.86-.43-.19-.8-.5-1.1-.94h-.45c-.06,0-.13-.01-.18-.04-.11-.05-.22-.12-.35-.21,0,0-.01,0-.02-.01l-.06-.05c-.09-.07-.19-.16-.28-.24h-.44s-.09,0-.14-.02l-5.73-1.98s-.05-.02-.07-.03l-1.88-1.03c-.2-.09-.43-.2-.63-.34-.01,0-.02-.02-.04-.03l-1.2-1.09c-.27-.25-.49-.57-.67-.96-.23-.38-.51-.58-.91-.66-.04,0-.08-.02-.12-.04-.26-.14-.49-.28-.71-.42l-1.14-.54-5.86-1.61s-.02,0-.04-.01l-.94-.35c-.05-.02-.1-.05-.14-.09l-.98-.91h-1.03c-.08,0-.15-.02-.22-.06-.09-.05-.17-.1-.27-.14.02.02.05.05.06.08l.75,1.15,1.37.76c.05.03.09.07.13.11l.65.85c.06.07.09.16.09.26v.92c0,.05-.01.11-.03.16-.15.39-.45.59-.88.59-.1,0-.19-.03-.27-.1l-1.45-1.2c-.05-.02-.14-.04-.22-.07-.05-.01-.11-.03-.17-.05h-.33c-.17,0-.32-.1-.38-.25h-.17s-.08,0-.12-.02c-.61-.18-1.13-.5-1.59-.98-.25-.08-.43-.22-.57-.34-.2-.18-.46-.3-.64-.38-.58-.19-1.08-.44-1.57-.69-.02-.01-.04-.02-.06-.03-.03-.02-.11-.05-.19-.07-.28-.03-.59-.03-.93,0-.55.11-1.03.07-1.47-.11-1.09.4-1.97,1.09-2.67,2.1l-.29.52v1.37c0,.09-.03.18-.08.25l-.63.84v6.03c0,.07-.02.14-.05.2l-4.09,7.64c-.14.7-.38,1.28-.72,1.73-.18.39-.34.7-.47.95,1.02.96,1.2,1.35,1.23,1.61.03.18-.06.35-.22.43-.16.08-.35.06-.48-.05l-1.41-1.24c-2.15.62-3.95,1.72-5.51,3.36-.57.65-1.14,1.28-1.7,1.88v.02c-.47.5-.81.96-1.02,1.38-.02.05-.06.09-.1.13-.66.57-1.25,1.01-1.94,1.42,0,0-.01,0-.02.01-.99.52-1.89.84-2.74.97-.34.66-.6,1.18-.72,1.51-.04.11-.11.2-.21.25-.28.14-.58.37-.92.69l-5.61,9.93s-.06.08-.09.11c-.44.37-.98,1.36-1.47,2.31l.06,1.44c0,.05,0,.11-.02.16l-1.17,3.32c0,2.76-.36,5.35-1.06,7.7.16,1.7.67,2.83,1.56,3.46.39.28.68.55.93.85.02.02.04.05.05.08.38.75.5,1.05.54,1.2h0c.05.17.1.32.14.46.08.28.15.5.2.62.03.06.04.12.04.18,0,.95.1,1.28.13,1.36.02.05.03.11.03.17l-.23,6.53c0,.09-.04.18-.1.26-.98,1.17-1.54,2.33-1.72,3.56,0,0,0,.02,0,.02-.3,1.49-.28,2.92.06,4.25,0,.03.01.07.01.11v.22l.25.51s.01.03.02.04c.21.58.51,1.15.92,1.73.01.02.03.04.04.06.31.65.5.95.57,1.03.05.04.1.09.13.15.61,1.1.87,2.26.8,3.57v2.9c.58.94.75,2,.48,3.15-.07,1.04.02,1.27.03,1.29.05.07.07.13.07.21.05.83.46,1.45,1.2,1.84l2.2,1.16c.19.1.27.32.2.52-.1.27-.09.51.03.78,0,.02.02.05.02.07.08.33.08.68.08.94,0,0,0,.02,0,.02-.07,1.24-.65,2.14-1.68,2.61-.32,1.3-.27,2.23.15,2.76l2.7,2.63s.07.08.09.13c.23.54.4.89.48,1.04l.04.08c.03.06.04.12.04.18v.56l6.73,6.26s.01.01.02.02l1.69,1.81.22.1c.47.22.71.33.84.4.55.08,1.09.23,1.58.44.06.03.11.06.15.11l1.98,2.26c.05.06.08.13.1.2.2,1.03.38,1.71.58,2.19.46.41.86.93,1.16,1.51.17.37.31.77.41,1.19.64,1.02,1.34,1.71,2.16,2.1.73,0,1.19-.09,1.45-.16.05-.02.11-.02.17-.01.54.07,1.18.19,1.38.29.09.05.16.13.19.22l1.36,3.56s.03.1.03.15v.95c0,.08-.02.15-.06.22l-1.98,3.28c0,.55.08,1.13.22,1.81,0,.04.01.08,0,.12-.14,1.55-.45,2.69-.97,3.58-.04,1.47-.13,2.75-.29,3.79,0,.03-.01.07-.03.1-.54,1.31-1.32,2.4-2.34,3.24.04.68-.23,1.06-.5,1.27,0,.68-.1,1.24-.31,1.66-.07.13-.19.22-.34.23-.77.07-1.51.04-2.25-.1h-1.12c-.46.16-.72.24-.87.28l-2.3,2.88s-.05.05-.08.08l-3,2.2c-.19.36-.26.65-.26.81,0,.02,0,.03,0,.05-.08.73-.4,1.24-1,1.56-.02.01-.04.02-.06.03-.55.2-.88.46-.97.78-.12.46-.14.85-.07,1.16.18.15.35.33.45.53h1.74c.14,0,.27.07.35.18.2.29.44.58.69.82.06.06.1.13.12.21.3,1.26-.06,2-.45,2.43-.37,1.67-.38,3.17-.01,4.47l.35,1.25c.61.53.97.96.92,1.41-.04.63-.27,1.11-.68,1.43-.88.65-1.5,1.18-1.96,1.68.45,1.8.43,3.62-.05,5.42-.13.63-.28,1.16-.41,1.44v2.02c0,.12-.05.23-.14.31-1.01.92-1.64,1.55-1.99,1.99-.02.02-.04.04-.06.06-.63.54-1.06.97-1.39,1.36-.07.87.04,1.65.33,2.31.06.13.05.27-.03.39-.73,1.17-1.68,2.11-2.83,2.78-.3.38-.48.6-.6.73-.23.65-.31,1.06-.27,1.35,0,.06,0,.12-.01.18-.24.87-.67,1.47-1.26,1.79-.17.34-.4.74-.61.96-.39.86-.59,1.63-.72,2.14-.29,1.15-.38,1.45-.47,1.6-.03.06-.08.1-.14.14l-3.25,2.03-2.21,1.89c-.09.08-.2.11-.32.1-.51-.05-.78-.03-.9,0-.02.12-.09.24-.21.3-.17.1-.39.06-.52-.08-.27-.29-.41-.31-.44-.31-.03,0-.07.02-.11.05.01.62-.19,1.47-.65,2.76,0,.02-.01.04-.02.05-.21.41-.47.75-.74,1,.13.23.21.49.27.78.02.11,0,.21-.06.3v.45s0,.05,0,.07c-.08.52-.12,1.08-.12,1.73-.02.39-.02.76-.03,1.14,0,.38-.02.76-.03,1.14-.03.56,0,1.05.07,1.59h.01c.07.09.11.19.11.3h0s.06.05.06.05c.03.02.05.04.07.07.26.32.5.62.78.88,0,0,.01.01.02.02,1.06,1.15,2.38,1.98,3.93,2.45.17-.06.28-.11.37-.15.05-.02.1-.04.13-.05.3-.1.61-.08.89.05h2.56c.09,0,.19.03.26.09l.23.18s.04.03.05.05c.13.14.19.3.22.39l.51.66s.03.05.04.07c.2.4.37.65.56.84,0,0,.02.02.03.03l1.04,1.2s.06.09.08.14c.03.02.06.05.09.08l.4.49c.09.03.16.06.22.09h1.48c.43,0,.8,0,1.08-.06.03,0,.06,0,.09,0,.11,0,.27-.05.41-.12.01,0,.03-.01.04-.02.67-.27,1.34-.42,2.05-.45.43-.03.91-.1,1.35-.17.02,0,.04,0,.07,0h.84c.2,0,.4.07.6.22.02.02.04.04.06.06.06.06.12.13.16.17.08.03.14.08.19.15l.55.78c.05.07.08.16.08.24v.04l.77,1.52.06.06s.04.05.05.07l.17.29h.05c.11,0,.21.04.29.11l.33.31ZM13.39,239.67s0,0,0,0c0,0,0,0,0,0ZM21.94,238.54h0,0ZM97.29,237.83s0,0,0,0c0,0,0,0,0,0ZM97.29,237.83h0,0ZM97.28,237.83s0,0,0,0c0,0,0,0,0,0ZM97.28,237.83s0,0,0,0c0,0,0,0,0,0ZM97.27,237.83h0,0ZM97.27,237.83h0,0ZM97.27,237.83h0,0ZM97.27,237.83h0,0ZM36.18,236.16h0s0,0,0,0ZM69.82,232.75h0,0ZM13.56,207.25h0,0ZM13.57,207.25h0,0ZM13.57,207.25s0,0,0,0c0,0,0,0,0,0ZM13.57,207.25h0,0ZM13.57,207.25h0,0ZM13.57,207.25h0,0ZM13.58,207.25h0,0ZM147.09,181.67h0s0,0,0,0ZM27.08,164.35s-.01,0-.02,0c0,0,.02,0,.03,0h0ZM171.85,135.6h0,0ZM183.59,95.49s0,0,0,0c0,0,0,0,0,0ZM8.83,95.44s0,0,0,0c0,0,0,0,0,0ZM171.43,90.54s0,0,0,0c0,0,0,0,0,0ZM7.74,74.5h0s0,0,0,0ZM7.74,74.49h0s0,0,0,0ZM145.96,71.67h0s0,0,0,0ZM144.24,63.35s0,0,0,0c0,0,0,0,0,0ZM144.24,63.35s0,0,0,0c0,0,0,0,0,0ZM146.84,60.7h0s0,0,0,0ZM146.84,60.69h0s0,0,0,0ZM146.85,60.61s0,.05,0,.08c0-.03,0-.06,0-.08ZM147.62,60.35h0s.03,0,.04,0c-.01,0-.03,0-.04,0ZM135.67,54.45s0,0,0,0c0,0,0,0,0,0ZM120.83,43.8s0,0,0,0c0,0,0,0,0,0ZM45.16,8.24h.14c.07,0,.14.02.2.05.14.08.3.17.5.25-.1-.1-.19-.21-.26-.33-.25-.44-.52-.49-.7-.49-.09,0-.17-.03-.24-.08-.02,0-.04-.01-.06-.02-.05-.02-.1-.04-.16-.07-.26-.08-.4-.04-.5.02v.05s.02.02.03.03c.25.07.52.18.81.3.12.05.21.16.24.28ZM44.73,7.57s0,0,0,0c0,0,0,0,0,0Z"/>
    </g>
    <g>
      <path class="cls-2" d="M54.36,37.56c-1.1,0-2-.9-2-2v-10.9c0-1.1.9-2,2-2h10.9c1.1,0,2,.9,2,2s-.9,2-2,2h-8.9v8.9c0,1.1-.9,2-2,2Z"/>
      <path class="cls-2" d="M123.72,37.56c-1.1,0-2-.9-2-2v-8.9h-8.9c-1.1,0-2-.9-2-2s.9-2,2-2h10.9c1.1,0,2,.9,2,2v10.9c0,1.1-.9,2-2,2Z"/>
      <path class="cls-2" d="M65.26,98.03h-10.9c-1.1,0-2-.9-2-2v-10.9c0-1.1.9-2,2-2s2,.9,2,2v8.9h8.9c1.1,0,2,.9,2,2s-.9,2-2,2Z"/>
      <path class="cls-2" d="M123.72,98.03h-10.9c-1.1,0-2-.9-2-2s.9-2,2-2h8.9v-8.9c0-1.1.9-2,2-2s2,.9,2,2v10.9c0,1.1-.9,2-2,2Z"/>
    </g>
  </g>
</svg>