<svg width="1293" height="1223" viewBox="0 0 1293 1223" fill="none" xmlns="http://www.w3.org/2000/svg">
<path d="M1055.98 275.461C1034.08 264.041 1010.46 263.781 987.692 255.101C960.562 244.751 939.582 228.481 916.222 212.001C896.192 197.871 876.872 189.111 852.252 189.541C879.932 189.051 904.422 178.561 930.092 169.671C988.282 149.501 1047.08 142.281 1107.53 132.601C1109.94 132.211 1120.85 131.421 1121.62 130.331C1125.16 125.321 1114.04 122.371 1111.05 121.481C1073.18 110.241 1029.57 114.621 990.622 115.821C959.532 116.781 928.982 123.341 899.092 131.591C876.302 137.881 845.072 141.601 824.352 152.861C886.532 119.091 944.492 78.2105 1002.71 37.8705C976.222 41.6705 945.312 52.2305 920.272 61.6505C886.602 74.3205 858.492 94.1805 827.942 112.411C797.782 130.401 740.942 169.101 740.952 169.091C762.142 145.251 782.982 120.851 803.392 96.1305C803.702 95.7605 803.992 95.4105 804.272 95.0705C804.562 94.7205 804.872 94.3405 805.192 93.9405C826.732 67.8005 847.802 41.3305 868.272 14.8205C870.792 11.5505 878.082 4.84053 874.042 1.45053L859.142 12.4305C859.142 12.4305 785.442 60.9505 759.892 86.2005C734.352 111.461 693.202 157.221 672.982 182.241C660.542 197.641 646.572 219.231 628.222 227.791C647.032 172.721 688.582 123.831 729.022 83.1305C741.412 70.6605 756.002 60.3005 766.832 46.3005C764.802 43.7505 760.672 44.6705 758.162 45.9705C755.962 47.5205 753.782 49.0805 751.592 50.6505C664.212 113.271 588.802 184.821 530.252 276.141C543.082 248.261 563.442 198.761 564.032 195.371C564.422 193.111 576.682 162.131 589.672 129.661C599.422 109.461 609.252 89.3105 619.452 69.3605C631.392 46.0205 644.742 23.4205 656.722 0.23053C654.882 -0.0194698 653.162 -0.26947 651.522 0.74053C648.182 2.80053 641.622 12.7405 638.772 16.4805C606.092 59.2505 572.452 104.391 541.562 148.441C533.422 160.051 526.122 171.421 519.382 182.751C509.052 195.981 499.022 209.651 492.102 220.941C471.222 254.991 420.572 359.201 420.572 359.201L439.682 316.041C450.662 284.171 463.452 252.821 472.892 220.481C481.332 191.551 487.102 161.951 493.772 132.591C500.042 104.971 512.682 77.9405 516.322 50.0505C516.432 49.2305 517.062 44.1705 516.022 44.1405C507.772 50.8805 502.102 61.2205 496.712 70.4005C463.192 127.511 429.042 184.501 401.932 245.031C388.982 273.931 379.242 303.451 369.312 333.361C359.832 361.911 344.992 388.551 333.332 416.211C334.502 397.991 343.692 381.791 345.852 363.781C348.402 342.491 349.572 321.061 351.052 299.671C352.802 274.301 354.812 248.831 359.892 223.871C365.072 198.421 375.592 174.711 380.832 149.341C383.972 141.321 386.862 133.401 388.302 126.441C388.732 124.371 388.512 122.011 388.772 119.901C388.002 119.701 387.562 119.791 386.882 120.181C378.402 125.121 351.982 174.941 345.762 186.621C332.662 211.211 318.472 240.651 305.862 271.081C300.802 281.791 296.042 292.771 291.612 304.171C275.732 345.071 264.032 388.751 254.032 431.571C250.012 448.781 246.402 466.191 243.142 483.531C241.442 492.551 242.182 504.381 235.672 510.971C230.732 497.171 235.252 478.131 236.982 464.151C240.052 439.451 242.262 414.671 246.282 390.171C251.602 368.061 257.282 346.021 263.162 324.041C267.172 311.071 271.082 298.071 273.982 284.791C275.952 275.751 285.072 252.381 287.562 235.341C288.142 233.241 288.732 231.151 289.312 229.051C291.392 221.561 301.472 195.881 297.852 189.791C297.082 188.491 296.682 189.461 295.912 190.081C288.542 195.911 272.952 225.301 267.192 235.041C265.462 237.971 263.722 240.921 261.972 243.891C245.062 272.611 227.942 302.691 215.832 333.511C189.322 400.971 183.472 464.021 179.932 536.071C178.792 559.171 179.902 584.301 177.842 607.011C176.592 620.781 170.732 635.911 167.292 649.381C166.332 653.131 165.862 660.361 164.762 663.281C162.192 670.121 150.972 684.301 146.542 691.761C141.152 700.751 129.422 720.531 129.012 730.661C128.652 739.671 136.642 739.131 141.952 734.701C152.412 725.981 163.022 700.871 170.222 688.261C179.872 671.361 190.532 654.761 202.722 639.761C230.072 619.151 269.402 592.011 290.642 588.811C336.982 581.841 381.432 591.551 427.522 593.581C482.542 596.001 539.802 589.741 591.392 569.831C594.362 568.681 609.482 562.271 609.202 559.461C602.062 555.731 593.262 558.801 585.502 558.961C540.042 559.931 492.922 550.991 446.832 544.051C431.942 539.881 416.062 535.611 400.762 531.781C364.292 522.671 335.622 526.621 320.882 530.131C376.412 513.871 425.872 504.891 483.782 510.571C516.532 513.781 549.262 518.921 582.262 518.441C617.102 517.931 652.222 510.391 686.672 505.521C689.432 502.711 676.482 500.071 675.292 499.821C662.112 496.961 647.682 495.741 634.352 493.211C592.462 485.241 550.022 473.671 507.562 467.461C437.972 453.921 386.852 462.961 386.852 462.961C386.852 462.961 409.962 445.781 441.612 442.831C445.342 442.761 449.142 442.771 453.002 442.861C494.052 445.491 586.712 469.861 617.492 465.811C617.512 465.811 617.532 465.811 617.552 465.811C636.052 467.441 654.612 467.481 673.312 464.591C681.712 463.291 706.942 458.881 712.952 454.721C714.292 453.801 715.402 452.531 716.672 451.531C709.342 447.131 700.752 448.431 692.742 447.241C674.212 444.501 654.232 441.081 635.372 437.401C621.222 432.681 604.272 427.231 585.202 421.491C527.762 404.181 455.972 398.241 469.662 393.851C483.352 389.461 521.422 391.951 554.282 397.361C579.752 401.551 614.352 405.021 644.862 408.591C653.282 409.911 661.682 411.001 670.072 411.741C674.052 412.281 678.202 412.551 682.432 412.601C712.572 414.261 750.982 413.271 776.752 404.671C781.002 403.251 785.062 401.531 788.202 398.241C788.292 397.511 781.212 395.181 780.192 394.921C762.882 390.471 739.202 391.471 720.872 389.061C716.202 388.451 711.562 387.701 706.942 386.851C682.272 379.071 652.852 368.881 632.662 358.931C591.672 338.721 553.962 344.991 553.962 344.991C564.542 339.441 575.852 334.871 587.242 331.331C608.672 324.661 622.172 325.081 643.582 330.791C690.832 343.401 738.632 354.961 787.492 359.051C815.742 361.411 845.072 361.091 871.262 350.231C837.492 327.141 792.162 331.341 754.152 316.221C725.272 304.731 694.682 289.731 647.062 283.691C669.062 280.071 664.572 274.081 717.502 276.121C733.852 276.751 748.082 284.511 763.302 290.161C795.982 302.291 831.032 311.411 865.312 317.611C918.152 327.171 974.542 326.671 1023.3 304.191C1011.69 300.161 998.992 302.791 986.752 303.861C947.152 307.321 908.052 293.961 871.632 278.011C853.802 270.201 836.282 261.721 818.382 254.081C800.522 246.461 779.642 242.681 762.632 234.241C784.262 218.341 813.692 233.561 834.772 242.301C863.482 254.201 891.802 267.541 922.342 274.181C967.272 283.941 1014.08 285.131 1059.42 277.371C1058.29 276.711 1057.15 276.081 1056 275.491L1055.98 275.461Z" fill="#567B34"/>
<path d="M458.412 263.01C458.332 263.24 458.252 263.48 458.172 263.71C458.412 263.51 458.572 263.09 458.412 263.01Z" fill="#567B34"/>
<g clip-path="url(#clip0_265_276)">
<path d="M973.741 734.69C984.053 724.525 991.634 710.767 997.543 697.316C1014.01 659.775 1023.58 619.223 1025.66 578.28C1026.01 571.321 1026 563.834 1022.08 558.07C1015.69 548.667 1002.1 548.059 990.881 549.897C946.409 557.165 905.858 586.892 860.925 583.67C844.648 582.503 829.036 576.855 815.18 568.365C800.982 559.657 788.607 548.159 777.924 535.431C771.305 527.548 765.475 519.101 759.656 510.615C758.637 509.123 757.595 507.603 757.157 505.849C757.119 505.702 757.096 505.538 757.184 505.419C757.291 505.273 757.513 505.268 757.693 505.292C759.581 505.48 761.292 506.106 763.099 506.594C765.24 507.184 767.364 507.863 769.452 508.625C773.668 510.161 777.78 512 781.811 513.971C789.686 517.836 797.256 522.255 805.078 526.228C814.828 531.177 824.938 535.67 835.722 537.776C868.346 544.167 900.585 528.298 932.028 517.508C965.524 506.016 1003.22 498.543 1026.16 471.581C1045.68 448.645 1049.87 416.605 1050.81 386.501C1051.79 355.32 1049.82 322.804 1034.83 295.443C1019.83 268.092 988.675 247.491 958.078 253.553C920.614 260.981 901.101 301.189 884.728 335.694C876.656 352.71 867.969 369.444 858.395 385.657C848.785 401.921 838.282 417.684 826.604 432.534C815.055 447.235 802.342 461.059 788.329 473.451C783.233 477.961 777.954 482.279 772.521 486.384C769.754 488.467 766.95 490.498 764.103 492.463C761.84 494.021 759.641 495.818 757.063 496.83C755.188 497.565 750.559 498.757 750.003 496.089C749.591 494.113 749.74 492.047 750.1 490.076C750.85 486.039 752.579 482.218 754.415 478.564C757.49 472.455 761.743 467.009 766.306 461.949C775.581 451.688 786.545 443.227 796.256 433.423C796.376 433.303 796.497 433.183 796.62 433.053C814.545 414.786 827.242 394.946 838.397 371.866C851.359 345.019 853.583 318.244 870.672 293.188C886.716 269.674 909.843 255.502 929.553 235.772C944.511 220.793 975.13 187.327 966.34 164.617C951.365 125.95 895.943 164.578 876.212 175.081C847.998 190.096 820.838 206.384 804.529 235.054C787.449 265.089 784.855 299.488 768.382 329.76C750.91 361.871 719.41 390.029 717.919 428.047C717.193 446.549 720.148 462.128 730.062 478.406C732.718 482.76 736.284 486.46 739.968 489.946C740.86 490.793 741.757 491.62 742.665 492.451C743.455 493.184 745.114 494.191 745.584 495.15C745.752 495.493 745.871 495.718 745.649 496.037C741.996 495.091 738.124 492.05 735.106 489.844C731.827 487.433 728.774 484.725 725.971 481.78C720.296 475.805 715.673 468.886 712.062 461.492C704.978 447.007 701.617 430.667 701.893 414.568C702.453 381.901 715.481 350.893 728.533 320.937C741.586 290.981 755.084 260.283 756.669 227.647C758.049 199.182 734.108 179.705 707.19 179.015C693.445 178.662 679.91 182.22 666.766 186.273C622.466 199.94 571.88 224.109 558.219 272.488C554.663 285.079 561.603 298.495 571.024 307.577C580.445 316.659 592.265 322.844 602.304 331.236C622.224 347.889 634.4 373.45 634.777 399.408C635.122 423.035 626.401 447.736 635.308 469.614C643.05 488.628 662.848 500.57 683.007 504.436C702.772 508.224 722.809 505.321 742.516 502.745C743.062 502.671 743.604 502.606 744.147 502.542C740.307 510.508 732.867 517.252 725.815 522.347C718.369 527.74 710.074 531.902 701.504 535.186C701.338 535.251 701.172 535.315 701.006 535.379C694.174 537.97 687.138 539.996 680.017 541.61C654.877 547.296 628.698 548.672 604.384 557.203C550.981 575.935 515.429 625.272 470.937 660.248C462.603 666.803 453.062 678.28 460.019 686.287C467.391 694.754 480.704 685.306 487.383 676.291C517.946 635.02 549.091 589.472 597.271 571.688C625.189 561.381 655.798 561.763 684.981 555.919C695.111 553.895 705.076 550.869 714.256 546.067C721.197 542.433 727.584 537.805 733.379 532.546C738.856 527.577 744.579 521.941 748.3 515.496C749.759 512.972 751.141 510.393 752.761 507.959C752.347 508.596 754.58 511.974 754.908 512.576C756.353 515.243 757.676 517.967 758.903 520.735C762.033 527.784 764.184 535.099 766.763 542.346C769.379 549.709 772.224 556.975 774.972 564.284C782.337 582.994 790.556 601.369 799.886 619.184C809.144 636.862 819.494 653.974 831.149 670.166C842.765 686.315 855.698 701.538 869.975 715.404C871.555 716.941 873.144 718.45 874.759 719.946C895.765 739.48 924.297 756.928 951.67 748.379C960.186 745.716 967.457 740.866 973.719 734.693L973.741 734.69ZM896.777 198.328C903.49 192.701 936.309 173.213 928.908 196.016C923.748 211.913 902.375 224.309 890.18 234.579C876.753 245.875 863.668 259.648 853.911 273.547L853.612 272.745C861.296 245.481 874.357 217.106 896.777 198.328ZM774.126 381.838C783.434 368.074 790.043 354.282 795.808 338.664C800.7 325.394 801.354 311.658 805.19 298.149C808.225 287.47 817.419 267.67 829.502 264.454C845.782 260.123 835.194 286.283 833.02 294.098C828.291 311.088 820.835 327.727 815.303 344.638C810.78 358.481 804.867 372.391 795.931 383.906C787.549 394.701 777.559 404.253 768.358 414.339C759.862 423.656 752.363 438.003 743.723 446.419C746.137 421.354 760.413 402.131 774.136 381.841L774.126 381.838ZM651.621 335.032C653.73 324.478 644.002 304.88 636.674 297.711C629.174 290.386 600.92 283.718 598.247 273.421C593.59 255.431 625.881 262.985 632.519 266.723C660.771 282.622 656.054 311.711 651.226 338.832L651.621 335.032ZM672.757 431.853C668.787 401.904 670.897 374.749 676.532 345.323C681.735 318.139 680.528 267.674 708.922 251.762C722.425 260.624 710.404 290.351 706.971 301.442C696.871 334.127 684.432 371.055 682.002 405.159C681.059 418.336 683.194 432.661 685.007 445.613C686.589 456.884 691.462 461.955 694.95 472.051C683.411 466.829 674.49 444.926 672.757 431.853ZM995.713 368.921C999.593 372.79 991.884 384.397 989.773 387.925C982.104 400.735 970.138 412.758 961.126 424.867C941.738 450.915 923.412 478.521 890.022 487.913C866.682 494.482 841.528 494.415 817.437 494.43C842.425 491.886 873.168 481.437 891.548 463.392C907.199 448.028 915.218 428.1 928.222 410.957C941.067 394.027 959.496 382.887 978.299 373.711C981.689 372.058 991.933 365.134 995.725 368.914L995.713 368.921ZM805.638 482.449C829.824 481.678 850.794 451.23 863.523 433.752C888.857 398.968 902.706 357.483 931.015 324.358C937.632 316.611 960.347 294.19 972.563 300.789C982.435 306.13 953.991 335.272 947.291 342.231C934.876 355.111 920.3 366.505 910.842 381.928C900.424 398.919 892.558 417.555 881.445 434.051C872.202 447.772 859.976 457.907 846.007 466.142C838.972 470.291 813.585 486.283 805.641 482.44L805.638 482.449ZM893.482 630.989C877.448 626.624 860.477 622.967 846.034 614.205C836.965 608.701 829.907 601.332 822.336 594.446C819.548 592.446 816.853 590.244 814.252 587.8L816.757 589.598C818.673 591.165 820.518 592.794 822.336 594.446C841.049 607.855 863.745 611.355 887.045 606.08C904.44 602.141 921.078 595.264 938.522 591.507C951.41 588.735 968.639 582.665 981.736 585.382C993.898 587.908 1001.59 599.777 995.849 611.513C990.345 622.746 976.969 628.59 965.914 632.14C953.954 635.98 943.652 640.147 930.833 639.982C917.438 639.819 906.275 634.461 893.504 630.986L893.482 630.989ZM933.117 712.186C923.125 703.641 914.008 694.453 904.877 684.968C895.258 674.958 886.205 664.839 878.384 654.039C891.733 662.583 906.336 670.066 920.745 677.428C933.936 684.157 958.14 695.194 958.888 713.247C959.578 729.881 939.759 717.869 933.117 712.186Z" fill="#FFC69F"/>
</g>
<path d="M1019.1 497.968C1008.36 520.212 989.555 534.512 976.482 555.078C960.902 579.58 953.778 605.164 944.881 632.325C937.252 655.617 926.986 674.179 906.973 688.535C929.472 672.393 955.379 666.193 981.285 658.003C1040.01 639.436 1091.49 610.118 1145.76 581.803C1147.92 580.671 1157.16 574.796 1158.42 575.215C1164.24 577.125 1157.09 586.131 1155.22 588.624C1131.56 620.246 1093.96 642.775 1062 665.067C1036.49 682.854 1008.06 695.845 979.162 707.067C957.121 715.629 929.854 731.286 906.511 734.629C976.561 724.591 1047.46 722.773 1118.24 720.383C1094.72 733.161 1063.62 743.131 1037.91 750.528C1003.33 760.474 968.924 761.316 933.535 764.944C898.602 768.523 829.903 771.413 829.912 771.409C861.143 777.877 892.434 785.011 923.567 792.655C924.035 792.765 924.48 792.873 924.903 792.98C925.348 793.088 925.819 793.207 926.316 793.336C959.197 801.437 991.907 810.095 1024.15 819.15C1028.13 820.265 1037.98 821.299 1036.76 826.435L1018.26 826.534C1018.26 826.534 930.167 831.62 894.594 826.613C859.031 821.602 798.691 809.456 767.534 801.466C748.36 796.549 724.255 787.558 704.426 791.655C752.397 824.606 814.919 839.019 871.66 847.512C889.044 850.117 906.94 849.719 923.982 854.478C923.875 857.725 920.015 859.462 917.226 859.912C914.535 859.975 911.854 860.034 909.157 860.078C801.671 862.016 698.462 849.645 596.968 811.351C623.9 826.055 669.792 853.611 672.285 855.978C673.943 857.554 702.287 875.094 732.087 893.385C751.963 903.768 771.89 914.066 791.983 923.98C815.498 935.575 839.703 945.726 863.161 957.182C861.835 958.477 860.603 959.711 858.681 959.878C854.765 960.221 843.573 956.159 839.057 954.866C787.305 940.068 733.362 923.947 682.281 907.054C668.817 902.601 656.169 897.842 644.01 892.774C627.82 888.322 611.61 883.349 599.319 878.433C562.236 863.597 459.379 810.23 459.379 810.23L500.479 833.447C528.314 852.453 557.295 869.968 584.176 890.278C608.224 908.448 630.522 928.748 653.398 948.322C674.917 966.737 701.195 980.879 720.767 1001.07C721.334 1001.66 724.872 1005.35 724.055 1005.99C713.404 1005.51 702.686 1000.61 692.887 996.455C631.899 970.651 570.482 945.328 512.592 912.962C484.947 897.503 459.513 879.646 433.688 861.573C409.04 844.333 381.228 831.82 355.356 816.591C367.181 830.508 384.214 838.02 396.695 851.168C411.461 866.727 425.186 883.224 439.143 899.496C455.697 918.806 472.513 938.04 491.494 955.026C510.841 972.348 533.44 985.078 552.789 1002.3C560.094 1006.86 567.151 1011.49 572.448 1016.22C574.024 1017.62 575.26 1019.64 576.732 1021.19C576.24 1021.8 575.822 1021.99 575.049 1022.09C565.299 1023.19 514.351 998.999 502.394 993.349C477.203 981.441 448.239 966.299 419.956 949.426C409.501 943.848 399.127 937.89 388.765 931.386C351.614 908.062 316.142 880.007 282.559 851.626C269.056 840.22 255.775 828.408 242.8 816.448C236.05 810.226 229.575 800.296 220.425 798.896C224.697 812.918 239.7 825.489 249.439 835.67C266.645 853.65 283.217 872.217 301.072 889.463C318.541 904.023 336.267 918.314 354.104 932.429C365.066 940.438 375.968 948.537 386.224 957.455C393.204 963.529 414.471 976.832 426.65 989.012C428.37 990.346 430.09 991.68 431.81 993.014C437.947 997.781 461.378 1012.36 462.106 1019.41C462.263 1020.92 461.365 1020.37 460.38 1020.34C450.993 1020.07 420.94 1005.8 410.507 1001.42C407.368 1000.11 404.208 998.779 401.036 997.439C370.319 984.494 338.63 970.587 310.512 953.094C248.971 914.804 206.636 867.717 160.761 812.042C146.053 794.187 131.937 773.371 116.732 756.382C107.517 746.082 93.771 737.438 82.9693 728.692C79.9605 726.257 75.2669 720.742 72.6399 719.047C66.4937 715.096 49.0202 710.418 41.0147 707.073C31.3502 703.04 10.1326 694.175 3.75706 686.293C-1.91393 679.277 4.82163 674.945 11.7214 675.327C25.3202 676.078 48.829 689.883 62.1317 695.701C79.9552 703.502 98.4318 710.45 117.16 715.204C151.405 715.404 199.166 713.694 218.108 703.579C259.438 681.501 289.298 647.176 325.051 618.022C367.746 583.228 417.408 554.058 470.687 539.235C473.752 538.379 489.71 534.496 491.168 536.924C487.675 544.179 478.777 546.971 472.459 551.477C435.413 577.843 402.949 613.147 370.124 646.241C360.67 658.471 350.481 671.385 340.486 683.59C316.67 712.667 291.309 726.627 277.389 732.61C331.639 712.494 376.686 690.167 419.741 651.036C444.091 628.902 467.282 605.245 494.04 585.925C522.291 565.532 554.966 550.604 585.51 533.949C589.404 534.546 580.591 544.402 579.79 545.317C570.932 555.483 560.076 565.08 550.895 575.066C522.046 606.472 494.914 641.086 464.564 671.426C416.831 723.843 370.42 747.112 370.42 747.112C370.42 747.112 399.22 747.096 426.361 730.561C429.4 728.384 432.432 726.113 435.476 723.74C466.833 697.118 526.613 622.255 553.726 607.116C553.745 607.108 553.763 607.1 553.782 607.093C567.647 594.748 582.514 583.623 599.235 574.783C606.747 570.811 629.619 559.287 636.928 559.035C638.55 558.981 640.201 559.337 641.817 559.372C638.561 567.277 630.901 571.363 625.177 577.096C611.95 590.356 597.964 605.023 585.036 619.242C576.501 631.471 566.154 645.965 554.296 661.96C518.555 710.143 464.512 757.767 478.117 753.116C491.718 748.455 520.777 723.735 543.909 699.779C561.834 681.21 587.519 657.778 609.866 636.688C615.831 630.597 621.925 624.712 628.209 619.105C631.083 616.293 634.253 613.597 637.611 611.04C660.796 591.715 692.199 569.575 718.005 561.09C722.262 559.687 726.538 558.644 731.03 559.406C731.543 559.94 727.246 566.035 726.591 566.858C715.362 580.763 695.763 594.105 682.505 606.977C679.132 610.255 675.85 613.625 672.653 617.068C657.506 638.037 639.986 663.785 629.74 683.81C608.925 724.491 574.931 741.988 574.931 741.988C586.732 740.117 598.529 737.035 609.78 733.075C630.952 725.63 641.538 717.238 655.306 699.869C685.687 661.542 717.124 623.731 753.871 591.276C775.124 572.512 798.842 555.26 826.343 548.336C813.046 587.022 774.169 610.715 752.698 645.543C736.391 672.002 720.808 702.306 686.217 735.578C706.019 725.345 705.998 732.831 747.236 699.591C759.97 689.326 766.76 674.605 775.596 660.985C794.56 631.739 817.241 603.5 841.034 578.057C877.711 538.837 923.242 505.564 975.786 494.486C968.875 504.648 957.125 510.123 946.665 516.569C912.829 537.431 889.443 571.503 869.755 606.036C860.114 622.943 851.132 640.216 841.323 657.03C831.539 673.801 817.043 689.307 808.45 706.235C835.296 706.075 849.81 676.299 861.505 656.692C877.434 630 892.183 602.389 912.721 578.834C942.941 544.177 979.78 515.267 1020.78 494.429C1020.26 495.639 1019.72 496.815 1019.16 497.976L1019.1 497.968Z" fill="#35541B"/>
<path d="M547.176 864.758C546.976 864.614 546.77 864.482 546.57 864.338C546.891 864.357 547.264 864.603 547.176 864.758Z" fill="#35541B"/>
<g clip-path="url(#clip1_265_276)">
<path d="M562.84 492.491C562.96 492.582 563.083 492.686 563.197 492.785C574.941 503.019 566.713 526.589 562.732 537.175C561.968 539.221 554.229 557.053 554.005 556.775C554.308 557.152 554.608 557.551 554.884 557.97C561.563 551.573 570.857 549.07 579.691 549.41C585.532 549.632 602.35 552.598 604.556 561.614C606.98 571.539 589.482 580.159 584.034 582.26C573.143 586.455 561.015 587.116 549.279 586.134C548.834 586.596 548.397 587.063 547.966 587.522C567.611 596.159 575.912 617.344 553.913 632.209C538.753 642.442 524.507 633.439 509.732 625.154C509.696 625.191 509.647 625.23 509.611 625.266C530.466 639.127 543.129 663.69 513.529 674.721C503.276 678.543 487.024 675.661 472.201 670.283C489.8 681.466 502.012 695.937 477.342 711.78C465.677 719.28 437.217 707.221 421.53 700.478C429.201 705.338 448.889 727.086 439.954 738.341C438.199 740.551 435.612 741.548 433.055 742.17C424.068 744.348 414.721 742.454 405.874 737.913C401.56 735.702 397.43 732.919 393.537 729.645C391.995 728.35 389.949 725.722 387.883 723.272C392.414 732.77 385.667 750.091 378.116 752.156C369.37 754.55 356.898 749.395 351.315 739.605C350.597 738.347 349.985 736.979 349.157 735.816C343.107 727.453 339.212 734.452 333.515 738.744C327.68 743.138 321.679 747.255 315.477 750.93C299.221 760.554 285.59 774.845 269.347 784.632C256.638 792.285 242.621 797.625 227.881 797.786C226.541 794.042 225.195 790.307 223.855 786.564C223.491 785.549 223.12 784.435 223.344 783.434C223.659 782.039 224.974 781.489 226.136 781.174C233.662 779.128 241.708 779.633 249.357 778.075C257.629 776.386 265.262 772.295 272.469 767.593C285.63 758.993 297.968 748.875 310.236 738.699C316.378 733.598 322.497 728.459 328.707 723.475C330.588 721.968 342.319 715.958 342.201 712.739C341.535 694.514 339.558 674.858 346.007 658.561C347.536 654.686 349.578 651.051 352.457 648.584C360.508 641.661 382.56 646.197 381.577 662.759C382.817 641.837 382.248 612.792 395.47 603.514C411.646 592.166 420.742 600.383 425.065 614.988C426.204 593.929 430.684 573.991 444.575 562.666C467.301 544.131 471.665 568.835 470.112 595.095C475.02 561.948 482.941 522.492 503.156 514.25C516.396 508.855 519.79 532.483 523.453 540.422C520.907 534.85 530.205 518.635 532.063 514.258C536.487 503.818 541.641 494.929 551.514 491.431C555.152 490.142 559.465 489.831 562.851 492.511L562.84 492.491ZM366.408 735.087C376.524 739.203 374.572 725.394 367.461 722.346L366.526 720.815C362.809 717.967 358.265 731.771 366.399 735.081L366.408 735.087ZM394.444 710.787C394.936 711.24 395.825 711.69 396.607 711.974L395.953 712.061C398.491 714.867 414.528 724.694 414.941 715.728C415.41 705.306 397.456 710.236 394.452 710.793L394.444 710.787ZM535.831 605.992C533.722 592.917 513.903 594.632 509.922 602.77C508.696 605.266 538.584 623.072 535.831 605.992ZM443.422 686.929L440.658 686.46C447.168 692.09 461.663 693.968 466.986 687.233C463.59 682.193 456.433 680.513 451.478 680.929C448.482 681.181 440.697 683.786 443.427 686.92L443.422 686.929ZM361.292 690.297C361.134 690.887 361.012 691.823 361.54 691.033C361.458 690.812 361.369 690.563 361.292 690.297C361.308 690.236 361.319 690.183 361.338 690.136L362.654 689.969C365.457 686.76 376.848 668.531 365.963 665.717C356.233 663.203 359.192 683.787 361.3 690.303L361.292 690.297ZM477.933 648.631C482.762 652.995 512.704 660.43 508.526 646.48C504.597 633.374 483.45 643.719 480.035 649.18L477.925 648.625L477.933 648.631ZM406.574 650.199C408.965 647.127 410.307 642.461 411.9 638.544C412.654 636.695 413.422 634.772 413.472 632.63C413.697 622.801 402.899 625.85 401.01 631.736C399.996 634.896 405.052 652.144 406.574 650.199ZM449.354 592.875C440.869 595.583 440.114 613.058 448.412 618.567C448.797 618.819 449.221 619.048 449.625 618.942C450.103 618.812 450.381 618.241 450.595 617.712C452.397 613.275 461.597 588.968 449.368 592.872L449.354 592.875ZM557.473 574.788L557.613 575.597C557.564 575.326 557.539 575.071 557.523 574.821C563.189 578.728 575.149 573.537 579.285 568.69C575.467 563.219 557.078 566.346 557.523 574.821C557.506 574.81 557.49 574.799 557.481 574.794L557.473 574.788ZM498.253 578.128C502.426 577.081 511.448 560.303 503.477 557.016C497.411 554.508 492.263 564.32 492.326 570.454C492.362 574.146 494.91 578.344 497.946 578.178C498.045 578.172 498.151 578.157 498.253 578.128ZM537.558 553.167C541.608 549.22 554.945 531.87 548.948 524.652C542.339 516.687 532.749 545.519 537.558 553.167Z" fill="#ADD67D"/>
</g>
<path d="M937.559 994.755C937.63 989.435 921.941 982.002 918.374 978.235C906.452 965.648 896.155 948.467 891.14 932.068C885.969 915.132 879.106 838.355 918.851 859.074C931.728 865.789 937.778 882.086 942.319 894.715C946.545 906.457 949.026 918.749 952.558 930.69C956.231 943.099 959.411 968.566 968.538 977.307C995.374 1002.99 1067.88 959.096 1080.28 934.586C1089.19 916.979 1086.93 911.462 1070.24 905.941C1042.42 896.729 1021.26 882.484 1003.4 858.233C992.194 843.009 967.738 795.787 1005.3 806.77C1047.14 819 1075.01 906.766 1127.71 881.201C1157.4 866.804 1192.6 806.605 1183.53 774C1181.42 766.407 1185.77 769.18 1178.58 765.209C1169.89 760.411 1147.6 771.36 1138.43 772.424C1118.83 774.698 1099.71 766.954 1086.31 751.871C1058.62 720.681 1091.9 714.046 1117.77 721.332C1136.39 726.574 1161.28 741.028 1181.05 733.608C1225.96 716.755 1222.01 610.926 1195.96 581.738C1183.27 597.907 1176.1 615.452 1157.5 628.5C1137.37 642.623 1099.57 665.074 1074.08 663.028C1046.05 660.773 1060.26 630.832 1072.14 616.973C1087.44 599.142 1120.87 583.644 1143.59 575.239C1140.22 567.261 1127.32 561.278 1119.3 557.419C1094.21 545.349 1064.65 533.322 1036.47 539.587C1011.95 545.035 998.376 569.219 990.773 591.149C981.969 616.521 980.521 660.239 950.545 669.665C920.819 679.014 918.173 638.465 919.075 617.128C920.239 589.798 924.011 574.166 953.834 555.593C961.414 550.87 981.339 542.408 984.668 531.599C984.668 531.599 973.247 525.335 964.924 523.595C944.364 519.301 919.866 521.439 900.42 527.374C879.386 533.794 852.983 546.53 835.215 559.19C792.781 589.444 829.201 655.794 842.2 691.021C847.898 706.456 861.294 738.406 851.666 754.195C838.066 776.488 813.665 759.975 801.626 746.342C782.104 724.231 773.514 696.8 774.184 667.522C774.433 656.678 789.907 614.28 775.988 610.516C761.979 606.743 741.046 641.095 735.41 650.108C725.661 665.677 716.003 684.313 709.957 701.736C697.923 736.416 691.201 771.648 712.455 804.131C740.037 846.278 783.876 839.23 826.828 833.394C789.962 870.627 755.186 914.812 713.498 947.137C716.988 960.899 710.817 996.102 722.765 992.373C737.88 987.645 765.979 944.837 770.858 932.892C778.233 914.868 785.458 898.218 796.789 882.432C806.654 868.677 856.526 820.392 845.563 866.955C835.809 908.364 810.693 934.731 847.01 973.302C864.067 991.421 888.231 1003.73 912.913 1003.13C917.835 1003.01 937.452 1003.15 937.567 994.76L937.559 994.755ZM958.306 817.799C950.353 814.861 946.523 799.32 946.345 791.687C946.221 786.302 949.028 780.03 955.407 783.154C958.075 784.456 960.685 786.278 963.014 788.431C965.938 791.139 968.413 794.368 969.953 797.784C973.541 805.698 970.297 822.234 958.301 817.808L958.306 817.799ZM1043.16 728.407C1049.6 728.952 1056.88 732.497 1062.57 737.492C1065.36 739.949 1068.03 742.968 1069.86 746.194C1071.32 748.739 1072.19 751.723 1071.74 754.621C1071.36 757.024 1070.09 759.214 1068.52 761.072C1057.62 773.944 1043.79 759.306 1037.88 748.758C1033.44 740.833 1029.41 727.25 1043.16 728.399L1043.16 728.407ZM864.927 818.687C852.548 820.52 847.126 827.442 839.453 830.556C846.732 823.415 854.006 816.282 861.285 809.14C828.905 811.25 796.113 806.917 765.389 796.469C756.622 793.488 747.674 789.764 741.634 782.746C734.494 774.438 732.594 762.538 734.554 751.76C736.513 740.982 741.897 731.134 747.975 722.023C745.246 732.11 742.504 742.759 745.107 752.878C751.702 778.582 783.996 786.556 806.432 790.524C836.829 795.907 891.618 799.786 911.787 770.576C913.724 767.766 915.185 764.418 914.845 761.016C913.929 751.896 899.198 743.662 893.311 737.261C885.356 728.614 878.567 718.893 873.155 708.46C862.53 687.968 857.286 664.708 858.623 641.622C859.407 627.919 862.949 613.396 873.176 604.241C873.559 612.596 870.856 619.562 870.129 627.782C868.962 641.455 871.905 655.592 876.857 668.244C885.369 690.013 896.324 712.952 911.306 731.093C926.257 749.19 939.893 752.039 957.246 738.428C965.52 731.941 974.496 726.362 983.978 721.815C991.882 718.019 1001.24 715.702 1004.93 706.755C1007.39 700.785 1005.32 688.458 1004.7 682.033C1003.01 664.919 1006.88 648.092 1015.01 633.03C1024.36 615.694 1046.9 589.091 1068.69 588.668C1059.95 588.832 1046.02 611.068 1041.88 617.298C1033.28 630.226 1026.03 646.991 1026.06 662.723C1026.07 672.776 1030.58 685.752 1040.39 690.188C1044.55 692.069 1049.18 692.65 1053.74 692.963C1070.07 694.059 1087.9 689.115 1103.87 692.203C1082.75 701.599 1056.61 705.155 1034.18 711.154C1028.08 712.787 1021.8 714.502 1016.72 718.276C995.983 733.672 1017.1 760.042 1029.82 773.001C1040.28 783.668 1053.11 791.559 1067.06 796.795C1081.34 802.165 1097.19 801.824 1111.12 806.659C1091.93 811.42 1075.46 812.69 1063.27 809.279C1045.92 804.427 1037.02 797.387 1024.25 784.665C1013.93 774.386 1005.12 753.019 991.761 746.318C977.897 739.368 955.403 756.078 943.541 765.179C928.347 776.843 924.082 788.977 929.879 808.94C943.36 855.333 968.73 901.004 1010.78 924.795C1002.42 930.576 990.946 925.12 983.188 918.552C971.68 908.822 962.423 896.683 954.379 883.939C940.885 862.538 930.575 839.143 923.887 814.743C922.427 809.41 916.454 792.487 910.93 792.7C909.112 792.766 907.439 793.647 905.833 794.499C896.466 799.499 886.92 804.633 879.615 812.338C870.274 822.187 868.498 845.872 866.577 859.314C864.661 872.749 865.527 886.409 866.391 899.961C857.649 872.433 852.073 844.581 864.877 818.691L864.927 818.687ZM966.766 693.507C967.321 686.528 970.117 675.926 975.348 670.967C976.567 669.81 978.108 668.857 979.793 668.814C987.887 668.62 989.608 680.821 988.347 686.428C988.045 687.764 987.627 689.074 987.129 690.345C985.704 693.953 983.58 697.319 981.389 700.548C980.305 702.145 979.159 703.763 977.549 704.826C970.037 709.759 966.343 698.971 966.779 693.504L966.766 693.507ZM942.508 717.813C939.07 719.161 933.446 719.346 930.118 717.555C924.156 714.352 918.635 706.609 917.523 699.887C916.681 694.757 919.044 688.345 924.947 687.982C930.394 687.648 936.065 692.466 939.19 696.463C940.836 698.573 943.743 703.248 945.135 707.755C946.481 712.092 946.429 716.262 942.499 717.808L942.508 717.813ZM888.083 830.704C888.169 819.78 899.897 808.521 908.435 819.908C911.049 823.402 912.981 827.992 913.386 832.393C913.933 838.343 911.677 843.934 904.542 845.92C893.848 848.906 888.003 840.684 888.083 830.704Z" fill="#ADD67D"/>
<defs>
<clipPath id="clip0_265_276">
<rect width="546.44" height="658.53" fill="white" transform="translate(626.023 50) rotate(16.9536)"/>
</clipPath>
<clipPath id="clip1_265_276">
<rect width="200.57" height="438.87" fill="white" transform="translate(458.145 424) rotate(33.1744)"/>
</clipPath>
</defs>
</svg>
