<svg width="1920" height="1920" viewBox="0 0 1920 1920" fill="none" xmlns="http://www.w3.org/2000/svg">
<g clip-path="url(#clip0_123_2357)">
<mask id="mask0_123_2357" style="mask-type:luminance" maskUnits="userSpaceOnUse" x="0" y="0" width="1920" height="1920">
<path d="M1920 0H0V1920H1920V0Z" fill="white"/>
</mask>
<g mask="url(#mask0_123_2357)">
<mask id="mask1_123_2357" style="mask-type:luminance" maskUnits="userSpaceOnUse" x="1879" y="-1712" width="1921" height="1921">
<path d="M3799.04 -1711.43H1879.04V208.57H3799.04V-1711.43Z" fill="white"/>
</mask>
<g mask="url(#mask1_123_2357)">
<path d="M3826.79 -1739.18H1851.29V236.32H3826.79V-1739.18Z" fill="#A8BE9B"/>
<path d="M1906.79 -1739.18H-68.7109V236.32H1906.79V-1739.18Z" fill="#A8BE9B"/>
<path d="M3826.79 180.82H1851.29V2156.32H3826.79V180.82Z" fill="#A8BE9B"/>
<path d="M1906.79 180.82H-68.7109V2156.32H1906.79V180.82Z" fill="#A8BE9B"/>
</g>
<mask id="mask2_123_2357" style="mask-type:luminance" maskUnits="userSpaceOnUse" x="1879" y="208" width="1921" height="1921">
<path d="M3799.04 208.57H1879.04V2128.57H3799.04V208.57Z" fill="white"/>
</mask>
<g mask="url(#mask2_123_2357)">
<path d="M3826.79 -1739.18H1851.29V236.32H3826.79V-1739.18Z" fill="#A8BE9B"/>
<path d="M1906.79 -1739.18H-68.7109V236.32H1906.79V-1739.18Z" fill="#A8BE9B"/>
<path d="M3826.79 180.82H1851.29V2156.32H3826.79V180.82Z" fill="#A8BE9B"/>
<path d="M1837.39 632.219C1863.91 615.479 1904.9 615.71 1935.47 616.08C1968.07 617.55 1999.74 616.569 2032.79 617.599C2054.8 618.579 2077.51 620.049 2098.57 627.189C2051.84 631.669 2006.36 640.649 1959.02 638.669C1943.51 638.149 1917.62 635.079 1901.93 633.609C1880.29 631.669 1859.2 629.06 1837.39 632.21V632.219Z" fill="#567D55"/>
<path d="M1906.79 180.82H-68.7109V2156.32H1906.79V180.82Z" fill="#A8BE9B"/>
<path d="M1645.45 1396.72C1669.56 1391.93 1694.01 1390.4 1718.48 1389.75C1742.94 1388.51 1767.22 1393.45 1791.56 1394.39C1807.8 1394.94 1824.03 1394.05 1840.28 1392.38C1905.14 1386.11 1971 1386.18 2035.11 1399.12L2035.05 1400.85C2018.81 1403.24 2002.55 1404.46 1986.24 1405.41C1937.59 1408.34 1888.76 1406.69 1840.28 1401.85C1824.08 1400.21 1807.85 1399.32 1791.58 1399.97C1767.25 1401.06 1743 1406.19 1718.54 1405.13C1694 1404.65 1669.75 1403.25 1645.45 1398.45V1396.72Z" fill="#567D55"/>
<path d="M1936 1123.73C1931.76 1119.49 1931.08 1103.71 1924.08 1110.5C1911.23 1122.96 1894.72 1158.47 1891 1162.48C1908.5 1027.53 1905.68 1042.52 1916.52 984.81C1927.35 927.12 1940.63 835.92 1934.96 775.56C1917.38 770.27 1915.52 771.52 1898.8 763.16C1876.25 817.7 1867.16 879.89 1858.98 939.48C1851.92 990.95 1845.95 989.7 1840.12 1025.65C1841.71 989.04 1830.13 959.27 1830.13 959.27C1830.13 959.27 1815.71 949.36 1814.86 957.63C1813.62 969.57 1828.13 1090.75 1828.1 1103.38C1827.9 1201.67 1806.94 1323.06 1789.04 1397.13L1843.63 1400C1852.62 1338.23 1947.11 1129.21 1936 1123.74V1123.73ZM1841.9 1225.33C1842.28 1233.86 1841.28 1242.05 1839.52 1250.16C1837.37 1260.09 1834.67 1269.5 1832.93 1279.61C1830.85 1291.66 1829.89 1312.01 1824.06 1321.78C1824.26 1302.63 1825.82 1284.23 1827.95 1265.28C1829.07 1255.33 1831.03 1245.79 1833.04 1236.18C1834.62 1228.58 1837.94 1220.16 1838.4 1212.3L1841.88 1202.02C1842.43 1201.82 1841.55 1217.74 1841.89 1225.33H1841.9ZM1876.71 918.65C1878.28 902.79 1881.03 887.57 1883.83 872.25C1886.05 860.14 1890.69 846.71 1891.34 834.18L1896.21 817.78C1896.98 817.47 1895.75 842.85 1896.23 854.95C1896.76 868.56 1895.36 881.61 1892.9 894.55C1889.89 910.39 1886.12 925.39 1883.67 941.51C1880.75 960.72 1879.42 993.16 1871.26 1008.75C1871.54 978.22 1873.72 948.88 1876.71 918.66V918.65ZM1848.3 1137.38C1843.94 1130.69 1846.5 1115.89 1846.68 1108.02C1846.92 1097.2 1848.3 1086.84 1849.99 1076.33C1852.12 1063.06 1851.28 1035.86 1860.41 1025.78L1861.31 1026.05C1858.24 1037.65 1860.37 1052.72 1859.2 1064.93C1858.17 1075.68 1857.28 1086.58 1855.65 1097.12C1853.61 1110.28 1849.33 1124.62 1848.3 1137.38ZM1883.62 1083.42C1884.15 1097.03 1882.75 1110.08 1880.29 1123.02C1877.28 1138.86 1873.51 1153.86 1871.06 1169.98C1868.14 1189.19 1866.81 1221.63 1858.65 1237.22C1858.93 1206.69 1861.11 1177.35 1864.1 1147.13C1865.67 1131.27 1868.42 1116.05 1871.22 1100.73C1873.44 1088.62 1878.08 1075.19 1878.73 1062.66L1883.61 1046.26C1884.38 1045.95 1883.15 1071.33 1883.63 1083.43L1883.62 1083.42Z" fill="#567D55"/>
<path d="M1591.65 472.27C1679.8 445.87 1773.8 455.46 1864.18 456.6C1876.12 456.73 1890.77 456.82 1902.8 456.68C1944.81 456.9 1986.02 464.79 2027.69 466.94C2048.23 467.91 2068.98 468.44 2088.9 462.23C2084.44 464.99 2079.56 467.09 2074.6 468.96C2039.46 480.71 2001.21 479.07 1964.82 478.46C1944.03 477.96 1923.2 476.71 1903.36 477.54C1890.46 478.09 1876.97 478.44 1863.97 478.41C1772.59 477.93 1682.98 464.74 1591.65 472.27Z" fill="#567D55"/>
<path d="M1693.47 1664.25C1719.99 1647.51 1760.98 1647.74 1791.55 1648.11C1824.15 1649.58 1855.82 1648.6 1888.87 1649.63C1910.88 1650.61 1933.59 1652.08 1954.65 1659.22C1907.92 1663.7 1862.44 1672.68 1815.1 1670.7C1799.59 1670.18 1773.7 1667.11 1758.01 1665.64C1736.37 1663.7 1715.28 1661.09 1693.47 1664.24V1664.25Z" fill="#567D55"/>
</g>
<mask id="mask3_123_2357" style="mask-type:luminance" maskUnits="userSpaceOnUse" x="-41" y="-1712" width="1921" height="1921">
<path d="M1879.04 -1711.43H-40.9609V208.57H1879.04V-1711.43Z" fill="white"/>
</mask>
<g mask="url(#mask3_123_2357)">
<path d="M3826.79 -1739.18H1851.29V236.32H3826.79V-1739.18Z" fill="#A8BE9B"/>
<path d="M1906.79 -1739.18H-68.7109V236.32H1906.79V-1739.18Z" fill="#A8BE9B"/>
<path d="M1318.24 133.231C1342.35 128.441 1366.8 126.911 1391.27 126.261C1415.73 125.021 1440.01 129.961 1464.35 130.901C1480.59 131.451 1496.82 130.561 1513.07 128.891C1577.93 122.621 1643.79 122.691 1707.9 135.631L1707.84 137.361C1691.6 139.751 1675.34 140.971 1659.03 141.921C1610.38 144.851 1561.55 143.201 1513.07 138.361C1496.87 136.721 1480.64 135.831 1464.37 136.481C1440.04 137.571 1415.79 142.701 1391.33 141.641C1366.79 141.161 1342.54 139.761 1318.24 134.961V133.231Z" fill="#567D55"/>
<path d="M250.641 94.1197C274.751 89.3297 299.201 87.7997 323.671 87.1497C348.131 85.9097 372.411 90.8497 396.751 91.7897C412.991 92.3397 429.221 91.4497 445.471 89.7797C510.331 83.5097 576.191 83.5797 640.301 96.5197L640.241 98.2497C624.001 100.64 607.741 101.86 591.431 102.81C542.781 105.74 493.951 104.09 445.471 99.2497C429.271 97.6097 413.041 96.7197 396.771 97.3697C372.441 98.4597 348.191 103.59 323.731 102.53C299.191 102.05 274.941 100.65 250.641 95.8497V94.1197Z" fill="#567D55"/>
<path d="M536.87 -183.129C532.63 -187.369 531.95 -203.149 524.95 -196.359C512.1 -183.899 495.59 -148.389 491.87 -144.379C509.37 -279.329 506.55 -264.339 517.39 -322.049C528.22 -379.739 541.5 -470.939 535.83 -531.299C518.25 -536.589 516.39 -535.339 499.67 -543.699C477.12 -489.159 468.03 -426.969 459.85 -367.379C452.79 -315.909 446.82 -317.159 440.99 -281.209C442.58 -317.819 431 -347.589 431 -347.589C431 -347.589 416.58 -357.499 415.73 -349.229C414.49 -337.289 429 -216.109 428.97 -203.479C428.77 -105.189 407.81 16.2008 389.91 90.2708L444.5 93.1408C453.49 31.3708 547.98 -177.649 536.87 -183.119V-183.129ZM442.77 -81.5292C443.15 -72.9992 442.15 -64.8092 440.39 -56.6992C438.24 -46.7692 435.54 -37.3592 433.8 -27.2492C431.72 -15.1992 430.76 5.15076 424.93 14.9208C425.13 -4.22925 426.69 -22.6292 428.82 -41.5792C429.94 -51.5292 431.9 -61.0692 433.91 -70.6792C435.49 -78.2792 438.81 -86.6992 439.27 -94.5592L442.75 -104.839C443.3 -105.039 442.42 -89.1192 442.76 -81.5292H442.77ZM477.58 -388.199C479.15 -404.059 481.9 -419.279 484.7 -434.599C486.92 -446.709 491.56 -460.139 492.21 -472.669L497.08 -489.069C497.85 -489.379 496.62 -463.999 497.1 -451.899C497.63 -438.289 496.23 -425.239 493.77 -412.299C490.76 -396.459 486.99 -381.459 484.54 -365.339C481.62 -346.129 480.29 -313.689 472.13 -298.099C472.41 -328.629 474.59 -357.969 477.58 -388.189V-388.199ZM449.17 -169.479C444.81 -176.169 447.37 -190.969 447.55 -198.839C447.79 -209.659 449.17 -220.019 450.86 -230.529C452.99 -243.799 452.15 -270.999 461.28 -281.079L462.18 -280.809C459.11 -269.209 461.24 -254.139 460.07 -241.929C459.04 -231.179 458.15 -220.279 456.52 -209.739C454.48 -196.579 450.2 -182.239 449.17 -169.479ZM484.49 -223.439C485.02 -209.829 483.62 -196.779 481.16 -183.839C478.15 -167.999 474.38 -152.999 471.93 -136.879C469.01 -117.669 467.68 -85.2292 459.52 -69.6392C459.8 -100.169 461.98 -129.509 464.97 -159.729C466.54 -175.589 469.29 -190.809 472.09 -206.129C474.31 -218.239 478.95 -231.669 479.6 -244.199L484.48 -260.599C485.25 -260.909 484.02 -235.529 484.5 -223.429L484.49 -223.439Z" fill="#567D55"/>
<path d="M1033 62.3113C1059.52 45.5713 1100.51 45.8013 1131.08 46.1713C1163.68 47.6413 1195.35 46.6613 1228.4 47.6913C1250.41 48.6713 1273.12 50.1413 1294.18 57.2813C1247.45 61.7613 1201.97 70.7413 1154.63 68.7613C1139.12 68.2413 1113.23 65.1713 1097.54 63.7013C1075.9 61.7613 1054.81 59.1513 1033 62.3013V62.3113Z" fill="#567D55"/>
<path d="M3826.79 180.82H1851.29V2156.32H3826.79V180.82Z" fill="#A8BE9B"/>
<path d="M1906.79 180.82H-68.7109V2156.32H1906.79V180.82Z" fill="#A8BE9B"/>
<path d="M937.339 391.291C933.099 387.051 932.419 371.271 925.419 378.061C912.569 390.521 896.059 426.031 892.339 430.041C909.839 295.091 907.019 310.081 917.859 252.371C928.689 194.681 941.969 103.481 936.299 43.1207C918.719 37.8307 916.859 39.0807 900.139 30.7207C877.589 85.2607 868.499 147.451 860.319 207.041C853.259 258.511 847.289 257.261 841.459 293.211C843.049 256.601 831.469 226.831 831.469 226.831C831.469 226.831 817.049 216.921 816.199 225.191C814.959 237.131 829.469 358.311 829.439 370.941C829.239 469.231 808.279 590.621 790.379 664.691L844.969 667.561C853.959 605.791 948.449 396.771 937.339 391.301V391.291ZM843.239 492.891C843.619 501.421 842.619 509.611 840.859 517.721C838.709 527.651 836.009 537.061 834.269 547.171C832.189 559.221 831.229 579.571 825.399 589.341C825.599 570.191 827.159 551.791 829.289 532.841C830.409 522.891 832.369 513.351 834.379 503.741C835.959 496.141 839.279 487.721 839.739 479.861L843.219 469.581C843.769 469.381 842.889 485.301 843.229 492.891H843.239ZM878.049 186.211C879.619 170.351 882.369 155.131 885.169 139.811C887.389 127.701 892.029 114.271 892.679 101.741L897.549 85.3407C898.319 85.0307 897.089 110.411 897.569 122.511C898.099 136.121 896.699 149.171 894.239 162.111C891.229 177.951 887.459 192.951 885.009 209.071C882.089 228.281 880.759 260.721 872.599 276.311C872.879 245.781 875.059 216.441 878.049 186.221V186.211ZM849.649 404.941C845.289 398.251 847.849 383.451 848.029 375.581C848.269 364.761 849.649 354.401 851.339 343.891C853.469 330.621 852.629 303.421 861.759 293.341L862.659 293.611C859.589 305.211 861.719 320.281 860.549 332.491C859.519 343.241 858.629 354.141 856.999 364.681C854.959 377.841 850.679 392.181 849.649 404.941ZM884.959 350.981C885.489 364.591 884.089 377.641 881.629 390.581C878.619 406.421 874.849 421.421 872.399 437.541C869.479 456.751 868.149 489.191 859.989 504.781C860.269 474.251 862.449 444.911 865.439 414.691C867.009 398.831 869.759 383.611 872.559 368.291C874.779 356.181 879.419 342.751 880.069 330.221L884.949 313.821C885.719 313.511 884.489 338.891 884.969 350.991L884.959 350.981Z" fill="#567D55"/>
</g>
<mask id="mask4_123_2357" style="mask-type:luminance" maskUnits="userSpaceOnUse" x="-41" y="208" width="1921" height="1921">
<path d="M1879.04 208.57H-40.9609V2128.57H1879.04V208.57Z" fill="white"/>
</mask>
<g mask="url(#mask4_123_2357)">
<path d="M3826.79 -1739.18H1851.29V236.32H3826.79V-1739.18Z" fill="#A8BE9B"/>
<path d="M1906.79 -1739.18H-68.7109V236.32H1906.79V-1739.18Z" fill="#A8BE9B"/>
<path d="M3826.79 180.82H1851.29V2156.32H3826.79V180.82Z" fill="#A8BE9B"/>
<path d="M1837.39 632.219C1863.91 615.479 1904.9 615.71 1935.47 616.08C1968.07 617.55 1999.74 616.569 2032.79 617.599C2054.8 618.579 2077.51 620.049 2098.57 627.189C2051.84 631.669 2006.36 640.649 1959.02 638.669C1943.51 638.149 1917.62 635.079 1901.93 633.609C1880.29 631.669 1859.2 629.06 1837.39 632.21V632.219Z" fill="#567D55"/>
<path d="M1906.79 180.82H-68.7148V2156.32H1906.79V180.82Z" fill="#A8BE9B"/>
<path d="M154.016 980.491C178.126 975.701 202.576 974.171 227.046 973.521C251.506 972.281 275.786 977.221 300.126 978.161C316.366 978.711 332.596 977.821 348.846 976.151C413.706 969.881 479.566 969.951 543.676 982.891L543.616 984.621C527.376 987.011 511.116 988.231 494.806 989.181C446.156 992.111 397.326 990.461 348.846 985.621C332.646 983.981 316.416 983.091 300.146 983.741C275.816 984.831 251.566 989.961 227.106 988.901C202.566 988.421 178.316 987.021 154.016 982.221V980.491Z" fill="#567D55"/>
<path d="M444.565 707.502C440.325 703.262 439.645 687.482 432.645 694.272C419.795 706.732 403.285 742.242 399.565 746.252C417.065 611.302 414.245 626.292 425.085 568.582C435.915 510.892 449.195 419.692 443.525 359.332C425.945 354.042 424.085 355.292 407.365 346.932C384.815 401.472 375.725 463.662 367.545 523.252C360.485 574.722 354.515 573.472 348.685 609.422C350.275 572.812 338.695 543.042 338.695 543.042C338.695 543.042 324.275 533.132 323.425 541.402C322.185 553.342 336.695 674.522 336.665 687.152C336.465 785.442 315.505 906.832 297.605 980.902L352.195 983.772C361.185 922.002 455.675 712.982 444.565 707.512V707.502ZM350.465 809.102C350.845 817.632 349.845 825.822 348.085 833.932C345.935 843.862 343.235 853.272 341.495 863.382C339.415 875.432 338.455 895.782 332.625 905.552C332.825 886.402 334.385 868.002 336.515 849.052C337.635 839.102 339.595 829.562 341.605 819.952C343.185 812.352 346.505 803.932 346.965 796.072L350.445 785.792C350.995 785.592 350.115 801.512 350.455 809.102H350.465ZM385.265 502.422C386.835 486.562 389.585 471.342 392.385 456.022C394.605 443.912 399.245 430.482 399.895 417.952L404.765 401.552C405.535 401.242 404.305 426.622 404.785 438.722C405.315 452.332 403.915 465.382 401.455 478.322C398.445 494.162 394.675 509.162 392.225 525.282C389.305 544.492 387.975 576.932 379.815 592.522C380.095 561.992 382.275 532.652 385.265 502.432V502.422ZM356.865 721.152C352.505 714.462 355.065 699.662 355.245 691.792C355.485 680.972 356.865 670.612 358.555 660.102C360.685 646.832 359.845 619.632 368.975 609.552L369.875 609.822C366.805 621.422 368.935 636.492 367.765 648.702C366.735 659.452 365.845 670.352 364.215 680.892C362.175 694.052 357.895 708.392 356.865 721.152ZM392.175 667.192C392.705 680.802 391.305 693.852 388.845 706.792C385.835 722.632 382.065 737.632 379.615 753.752C376.695 772.962 375.365 805.402 367.205 820.992C367.485 790.462 369.665 761.122 372.655 730.902C374.225 715.042 376.975 699.822 379.775 684.502C381.995 672.392 386.635 658.962 387.285 646.432L392.165 630.032C392.935 629.722 391.705 655.102 392.185 667.202L392.175 667.192Z" fill="#567D55"/>
<path d="M743.418 1467.85C767.528 1463.06 791.978 1461.53 816.448 1460.88C840.908 1459.64 865.188 1464.58 889.528 1465.52C905.768 1466.07 921.998 1465.18 938.248 1463.51C1003.11 1457.24 1068.97 1457.31 1133.08 1470.25L1133.02 1471.98C1116.78 1474.37 1100.52 1475.59 1084.21 1476.54C1035.56 1479.47 986.728 1477.82 938.248 1472.98C922.048 1471.34 905.818 1470.45 889.548 1471.1C865.218 1472.19 840.968 1477.32 816.508 1476.26C791.968 1475.78 767.718 1474.38 743.418 1469.58V1467.85Z" fill="#567D55"/>
<path d="M1033.97 1194.86C1029.73 1190.62 1029.05 1174.84 1022.05 1181.63C1009.2 1194.09 992.688 1229.6 988.968 1233.61C1006.47 1098.66 1003.65 1113.65 1014.49 1055.94C1025.32 998.251 1038.6 907.051 1032.93 846.691C1015.35 841.401 1013.49 842.651 996.768 834.291C974.218 888.831 965.128 951.021 956.948 1010.61C949.888 1062.08 943.918 1060.83 938.088 1096.78C939.678 1060.17 928.098 1030.4 928.098 1030.4C928.098 1030.4 913.678 1020.49 912.828 1028.76C911.588 1040.7 926.098 1161.88 926.068 1174.51C925.868 1272.8 904.908 1394.19 887.008 1468.26L941.598 1471.13C950.588 1409.36 1045.08 1200.34 1033.97 1194.87V1194.86ZM939.868 1296.46C940.248 1304.99 939.248 1313.18 937.488 1321.29C935.338 1331.22 932.638 1340.63 930.898 1350.74C928.818 1362.79 927.858 1383.14 922.028 1392.91C922.228 1373.76 923.788 1355.36 925.918 1336.41C927.038 1326.46 928.998 1316.92 931.008 1307.31C932.588 1299.71 935.908 1291.29 936.368 1283.43L939.848 1273.15C940.398 1272.95 939.518 1288.87 939.858 1296.46H939.868ZM974.678 989.791C976.248 973.931 978.998 958.711 981.798 943.391C984.018 931.281 988.658 917.851 989.308 905.321L994.178 888.921C994.948 888.611 993.718 913.991 994.198 926.091C994.728 939.701 993.328 952.751 990.868 965.691C987.858 981.531 984.088 996.531 981.638 1012.65C978.718 1031.86 977.388 1064.3 969.228 1079.89C969.508 1049.36 971.688 1020.02 974.678 989.801V989.791ZM946.268 1208.51C941.908 1201.82 944.468 1187.02 944.648 1179.15C944.888 1168.33 946.268 1157.97 947.958 1147.46C950.088 1134.19 949.248 1106.99 958.378 1096.91L959.278 1097.18C956.208 1108.78 958.338 1123.85 957.168 1136.06C956.138 1146.81 955.248 1157.71 953.618 1168.25C951.578 1181.41 947.298 1195.75 946.268 1208.51ZM981.588 1154.55C982.118 1168.16 980.718 1181.21 978.258 1194.15C975.248 1209.99 971.478 1224.99 969.028 1241.11C966.108 1260.32 964.778 1292.76 956.618 1308.35C956.898 1277.82 959.078 1248.48 962.068 1218.26C963.638 1202.4 966.388 1187.18 969.188 1171.86C971.408 1159.75 976.048 1146.32 976.698 1133.79L981.578 1117.39C982.348 1117.08 981.118 1142.46 981.598 1154.56L981.588 1154.55Z" fill="#567D55"/>
<path d="M1346.57 901.01C1370.68 896.22 1395.13 894.69 1419.6 894.04C1444.06 892.8 1468.34 897.74 1492.68 898.68C1508.92 899.23 1525.15 898.34 1541.4 896.67C1606.26 890.4 1672.12 890.47 1736.23 903.41L1736.17 905.14C1719.93 907.53 1703.67 908.75 1687.36 909.7C1638.71 912.63 1589.88 910.98 1541.4 906.14C1525.2 904.5 1508.97 903.61 1492.7 904.26C1468.37 905.35 1444.12 910.48 1419.66 909.42C1395.12 908.94 1370.87 907.54 1346.57 902.74V901.01Z" fill="#567D55"/>
<path d="M1637.11 628.021C1632.87 623.781 1632.19 608.001 1625.19 614.791C1612.34 627.251 1595.83 662.761 1592.11 666.771C1609.61 531.821 1606.79 546.811 1617.63 489.101C1628.46 431.411 1641.74 340.211 1636.07 279.851C1618.49 274.561 1616.63 275.811 1599.91 267.451C1577.36 321.991 1568.27 384.181 1560.09 443.771C1553.03 495.241 1547.06 493.991 1541.23 529.941C1542.82 493.331 1531.24 463.561 1531.24 463.561C1531.24 463.561 1516.82 453.651 1515.97 461.921C1514.73 473.861 1529.24 595.041 1529.21 607.671C1529.01 705.961 1508.05 827.351 1490.15 901.421L1544.74 904.291C1553.73 842.521 1648.22 633.501 1637.11 628.031V628.021ZM1543.01 729.621C1543.39 738.151 1542.39 746.341 1540.63 754.451C1538.48 764.381 1535.78 773.791 1534.04 783.901C1531.96 795.951 1531 816.301 1525.17 826.071C1525.37 806.921 1526.93 788.521 1529.06 769.571C1530.18 759.621 1532.14 750.081 1534.15 740.471C1535.73 732.871 1539.05 724.451 1539.51 716.591L1542.99 706.311C1543.54 706.111 1542.66 722.031 1543 729.621H1543.01ZM1577.82 422.941C1579.39 407.081 1582.14 391.861 1584.94 376.541C1587.16 364.431 1591.8 351.001 1592.45 338.471L1597.32 322.071C1598.09 321.761 1596.86 347.141 1597.34 359.241C1597.87 372.851 1596.47 385.901 1594.01 398.841C1591 414.681 1587.23 429.681 1584.78 445.801C1581.86 465.011 1580.53 497.451 1572.37 513.041C1572.65 482.511 1574.83 453.171 1577.82 422.951V422.941ZM1549.42 641.661C1545.06 634.971 1547.62 620.171 1547.8 612.301C1548.04 601.481 1549.42 591.121 1551.11 580.611C1553.24 567.341 1552.4 540.141 1561.53 530.061L1562.43 530.331C1559.36 541.931 1561.49 557.001 1560.32 569.211C1559.29 579.961 1558.4 590.861 1556.77 601.401C1554.73 614.561 1550.45 628.901 1549.42 641.661ZM1584.73 587.701C1585.26 601.311 1583.86 614.361 1581.4 627.301C1578.39 643.141 1574.62 658.141 1572.17 674.261C1569.25 693.471 1567.92 725.911 1559.76 741.501C1560.04 710.971 1562.22 681.631 1565.21 651.411C1566.78 635.551 1569.53 620.331 1572.33 605.011C1574.55 592.901 1579.19 579.471 1579.84 566.941L1584.72 550.541C1585.49 550.231 1584.26 575.611 1584.74 587.711L1584.73 587.701Z" fill="#567D55"/>
<path d="M646.797 664.28C670.907 659.49 695.357 657.96 719.827 657.31C744.287 656.07 768.567 661.01 792.907 661.95C809.147 662.5 825.377 661.61 841.627 659.94C906.487 653.67 972.347 653.74 1036.46 666.68L1036.4 668.41C1020.16 670.8 1003.9 672.02 987.587 672.97C938.937 675.9 890.107 674.25 841.627 669.41C825.427 667.77 809.197 666.88 792.927 667.53C768.597 668.62 744.347 673.75 719.887 672.69C695.347 672.21 671.097 670.81 646.797 666.01V664.28Z" fill="#567D55"/>
<path d="M937.335 391.291C933.095 387.051 932.415 371.271 925.415 378.061C912.565 390.521 896.055 426.031 892.335 430.041C909.835 295.091 907.015 310.081 917.855 252.371C928.685 194.681 941.965 103.481 936.295 43.1207C918.715 37.8307 916.855 39.0807 900.135 30.7207C877.585 85.2607 868.495 147.451 860.315 207.041C853.255 258.511 847.285 257.261 841.455 293.211C843.045 256.601 831.465 226.831 831.465 226.831C831.465 226.831 817.045 216.921 816.195 225.191C814.955 237.131 829.465 358.311 829.435 370.941C829.235 469.231 808.275 590.621 790.375 664.691L844.965 667.561C853.955 605.791 948.445 396.771 937.335 391.301V391.291ZM843.235 492.891C843.615 501.421 842.615 509.611 840.855 517.721C838.705 527.651 836.005 537.061 834.265 547.171C832.185 559.221 831.225 579.571 825.395 589.341C825.595 570.191 827.155 551.791 829.285 532.841C830.405 522.891 832.365 513.351 834.375 503.741C835.955 496.141 839.275 487.721 839.735 479.861L843.215 469.581C843.765 469.381 842.885 485.301 843.225 492.891H843.235ZM878.045 186.211C879.615 170.351 882.365 155.131 885.165 139.811C887.385 127.701 892.025 114.271 892.675 101.741L897.545 85.3407C898.315 85.0307 897.085 110.411 897.565 122.511C898.095 136.121 896.695 149.171 894.235 162.111C891.225 177.951 887.455 192.951 885.005 209.071C882.085 228.281 880.755 260.721 872.595 276.311C872.875 245.781 875.055 216.441 878.045 186.221V186.211ZM849.645 404.941C845.285 398.251 847.845 383.451 848.025 375.581C848.265 364.761 849.645 354.401 851.335 343.891C853.465 330.621 852.625 303.421 861.755 293.341L862.655 293.611C859.585 305.211 861.715 320.281 860.545 332.491C859.515 343.241 858.625 354.141 856.995 364.681C854.955 377.841 850.675 392.181 849.645 404.941ZM884.955 350.981C885.485 364.591 884.085 377.641 881.625 390.581C878.615 406.421 874.845 421.421 872.395 437.541C869.475 456.751 868.145 489.191 859.985 504.781C860.265 474.251 862.445 444.911 865.435 414.691C867.005 398.831 869.755 383.611 872.555 368.291C874.775 356.181 879.415 342.751 880.065 330.221L884.945 313.821C885.715 313.511 884.485 338.891 884.965 350.991L884.955 350.981Z" fill="#567D55"/>
<path d="M536.866 1736.87C532.626 1732.63 531.946 1716.85 524.946 1723.64C512.096 1736.1 495.586 1771.61 491.866 1775.62C509.366 1640.67 506.546 1655.66 517.386 1597.95C528.216 1540.26 541.496 1449.06 535.826 1388.7C518.246 1383.41 516.386 1384.66 499.666 1376.3C477.116 1430.84 468.026 1493.03 459.846 1552.62C452.786 1604.09 446.816 1602.84 440.986 1638.79C442.576 1602.18 430.996 1572.41 430.996 1572.41C430.996 1572.41 416.576 1562.5 415.726 1570.77C414.486 1582.71 428.996 1703.89 428.966 1716.52C428.766 1814.81 407.806 1936.2 389.906 2010.27L444.496 2013.14C453.486 1951.37 547.976 1742.35 536.866 1736.88V1736.87ZM442.766 1838.47C443.146 1847 442.146 1855.19 440.386 1863.3C438.236 1873.23 435.536 1882.64 433.796 1892.75C431.716 1904.8 430.756 1925.15 424.926 1934.92C425.126 1915.77 426.686 1897.37 428.816 1878.42C429.936 1868.47 431.896 1858.93 433.906 1849.32C435.486 1841.72 438.806 1833.3 439.266 1825.44L442.746 1815.16C443.296 1814.96 442.416 1830.88 442.756 1838.47H442.766ZM477.576 1531.8C479.146 1515.94 481.896 1500.72 484.696 1485.4C486.916 1473.29 491.556 1459.86 492.206 1447.33L497.076 1430.93C497.846 1430.62 496.616 1456 497.096 1468.1C497.626 1481.71 496.226 1494.76 493.766 1507.7C490.756 1523.54 486.986 1538.54 484.536 1554.66C481.616 1573.87 480.286 1606.31 472.126 1621.9C472.406 1591.37 474.586 1562.03 477.576 1531.81V1531.8ZM449.166 1750.52C444.806 1743.83 447.366 1729.03 447.546 1721.16C447.786 1710.34 449.166 1699.98 450.856 1689.47C452.986 1676.2 452.146 1649 461.276 1638.92L462.176 1639.19C459.106 1650.79 461.236 1665.86 460.066 1678.07C459.036 1688.82 458.146 1699.72 456.516 1710.26C454.476 1723.42 450.196 1737.76 449.166 1750.52ZM484.486 1696.56C485.016 1710.17 483.616 1723.22 481.156 1736.16C478.146 1752 474.376 1767 471.926 1783.12C469.006 1802.33 467.676 1834.77 459.516 1850.36C459.796 1819.83 461.976 1790.49 464.966 1760.27C466.536 1744.41 469.286 1729.19 472.086 1713.87C474.306 1701.76 478.946 1688.33 479.596 1675.8L484.476 1659.4C485.246 1659.09 484.016 1684.47 484.496 1696.57L484.486 1696.56Z" fill="#567D55"/>
<path d="M1123.41 1818.1C1147.52 1813.31 1171.97 1811.78 1196.44 1811.13C1220.9 1809.89 1245.18 1814.83 1269.52 1815.77C1285.76 1816.32 1301.99 1815.43 1318.24 1813.76C1383.1 1807.49 1448.96 1807.56 1513.07 1820.5L1513.01 1822.23C1496.77 1824.62 1480.51 1825.84 1464.2 1826.79C1415.55 1829.72 1366.72 1828.07 1318.24 1823.23C1302.04 1821.59 1285.81 1820.7 1269.54 1821.35C1245.21 1822.44 1220.96 1827.57 1196.5 1826.51C1171.96 1826.03 1147.71 1824.63 1123.41 1819.83V1818.1Z" fill="#567D55"/>
<path d="M1413.96 1545.11C1409.72 1540.87 1409.04 1525.09 1402.04 1531.88C1389.19 1544.34 1372.68 1579.85 1368.96 1583.86C1386.46 1448.91 1383.64 1463.9 1394.48 1406.19C1405.31 1348.5 1418.59 1257.3 1412.92 1196.94C1395.34 1191.65 1393.48 1192.9 1376.76 1184.54C1354.21 1239.08 1345.12 1301.27 1336.94 1360.86C1329.88 1412.33 1323.91 1411.08 1318.08 1447.03C1319.67 1410.42 1308.09 1380.65 1308.09 1380.65C1308.09 1380.65 1293.67 1370.74 1292.82 1379.01C1291.58 1390.95 1306.09 1512.13 1306.06 1524.76C1305.86 1623.05 1284.9 1744.44 1267 1818.51L1321.59 1821.38C1330.58 1759.61 1425.07 1550.59 1413.96 1545.12V1545.11ZM1319.86 1646.71C1320.24 1655.24 1319.24 1663.43 1317.48 1671.54C1315.33 1681.47 1312.63 1690.88 1310.89 1700.99C1308.81 1713.04 1307.85 1733.39 1302.02 1743.16C1302.22 1724.01 1303.78 1705.61 1305.91 1686.66C1307.03 1676.71 1308.99 1667.17 1311 1657.56C1312.58 1649.96 1315.9 1641.54 1316.36 1633.68L1319.84 1623.4C1320.39 1623.2 1319.51 1639.12 1319.85 1646.71H1319.86ZM1354.67 1340.03C1356.24 1324.17 1358.99 1308.95 1361.79 1293.63C1364.01 1281.52 1368.65 1268.09 1369.3 1255.56L1374.17 1239.16C1374.94 1238.85 1373.71 1264.23 1374.19 1276.33C1374.72 1289.94 1373.32 1302.99 1370.86 1315.93C1367.85 1331.77 1364.08 1346.77 1361.63 1362.89C1358.71 1382.1 1357.38 1414.54 1349.22 1430.13C1349.5 1399.6 1351.68 1370.26 1354.67 1340.04V1340.03ZM1326.26 1558.75C1321.9 1552.06 1324.46 1537.26 1324.64 1529.39C1324.88 1518.57 1326.26 1508.21 1327.95 1497.7C1330.08 1484.43 1329.24 1457.23 1338.37 1447.15L1339.27 1447.42C1336.2 1459.02 1338.33 1474.09 1337.16 1486.3C1336.13 1497.05 1335.24 1507.95 1333.61 1518.49C1331.57 1531.65 1327.29 1545.99 1326.26 1558.75ZM1361.58 1504.8C1362.11 1518.41 1360.71 1531.46 1358.25 1544.4C1355.24 1560.24 1351.47 1575.24 1349.02 1591.36C1346.1 1610.57 1344.77 1643.01 1336.61 1658.6C1336.89 1628.07 1339.07 1598.73 1342.06 1568.51C1343.63 1552.65 1346.38 1537.43 1349.18 1522.11C1351.4 1510 1356.04 1496.57 1356.69 1484.04L1361.57 1467.64C1362.34 1467.33 1361.11 1492.71 1361.59 1504.81L1361.58 1504.8Z" fill="#567D55"/>
<path d="M1645.45 1396.72C1669.56 1391.93 1694.01 1390.4 1718.48 1389.75C1742.94 1388.51 1767.22 1393.45 1791.56 1394.39C1807.8 1394.94 1824.03 1394.05 1840.28 1392.38C1905.14 1386.11 1971 1386.18 2035.11 1399.12L2035.05 1400.85C2018.81 1403.24 2002.55 1404.46 1986.24 1405.41C1937.59 1408.34 1888.76 1406.69 1840.28 1401.85C1824.08 1400.21 1807.85 1399.32 1791.58 1399.97C1767.25 1401.06 1743 1406.19 1718.54 1405.13C1694 1404.65 1669.75 1403.25 1645.45 1398.45V1396.72Z" fill="#567D55"/>
<path d="M1936 1123.73C1931.76 1119.49 1931.08 1103.71 1924.08 1110.5C1911.23 1122.96 1894.72 1158.47 1891 1162.48C1908.5 1027.53 1905.68 1042.52 1916.52 984.81C1927.35 927.12 1940.63 835.92 1934.96 775.56C1917.38 770.27 1915.52 771.52 1898.8 763.16C1876.25 817.7 1867.16 879.89 1858.98 939.48C1851.92 990.95 1845.95 989.7 1840.12 1025.65C1841.71 989.04 1830.13 959.27 1830.13 959.27C1830.13 959.27 1815.71 949.36 1814.86 957.63C1813.62 969.57 1828.13 1090.75 1828.1 1103.38C1827.9 1201.67 1806.94 1323.06 1789.04 1397.13L1843.63 1400C1852.62 1338.23 1947.11 1129.21 1936 1123.74V1123.73ZM1841.9 1225.33C1842.28 1233.86 1841.28 1242.05 1839.52 1250.16C1837.37 1260.09 1834.67 1269.5 1832.93 1279.61C1830.85 1291.66 1829.89 1312.01 1824.06 1321.78C1824.26 1302.63 1825.82 1284.23 1827.95 1265.28C1829.07 1255.33 1831.03 1245.79 1833.04 1236.18C1834.62 1228.58 1837.94 1220.16 1838.4 1212.3L1841.88 1202.02C1842.43 1201.82 1841.55 1217.74 1841.89 1225.33H1841.9ZM1876.71 918.65C1878.28 902.79 1881.03 887.57 1883.83 872.25C1886.05 860.14 1890.69 846.71 1891.34 834.18L1896.21 817.78C1896.98 817.47 1895.75 842.85 1896.23 854.95C1896.76 868.56 1895.36 881.61 1892.9 894.55C1889.89 910.39 1886.12 925.39 1883.67 941.51C1880.75 960.72 1879.42 993.16 1871.26 1008.75C1871.54 978.22 1873.72 948.88 1876.71 918.66V918.65ZM1848.3 1137.38C1843.94 1130.69 1846.5 1115.89 1846.68 1108.02C1846.92 1097.2 1848.3 1086.84 1849.99 1076.33C1852.12 1063.06 1851.28 1035.86 1860.41 1025.78L1861.31 1026.05C1858.24 1037.65 1860.37 1052.72 1859.2 1064.93C1858.17 1075.68 1857.28 1086.58 1855.65 1097.12C1853.61 1110.28 1849.33 1124.62 1848.3 1137.38ZM1883.62 1083.42C1884.15 1097.03 1882.75 1110.08 1880.29 1123.02C1877.28 1138.86 1873.51 1153.86 1871.06 1169.98C1868.14 1189.19 1866.81 1221.63 1858.65 1237.22C1858.93 1206.69 1861.11 1177.35 1864.1 1147.13C1865.67 1131.27 1868.42 1116.05 1871.22 1100.73C1873.44 1088.62 1878.08 1075.19 1878.73 1062.66L1883.61 1046.26C1884.38 1045.95 1883.15 1071.33 1883.63 1083.43L1883.62 1083.42Z" fill="#567D55"/>
<path d="M1591.65 472.272C1679.8 445.872 1773.8 455.462 1864.18 456.602C1876.12 456.732 1890.77 456.822 1902.8 456.682C1944.81 456.902 1986.02 464.792 2027.69 466.942C2048.23 467.912 2068.98 468.442 2088.9 462.232C2084.44 464.992 2079.56 467.092 2074.6 468.962C2039.46 480.712 2001.21 479.072 1964.82 478.462C1944.03 477.962 1923.2 476.712 1903.36 477.542C1890.46 478.092 1876.97 478.442 1863.97 478.412C1772.59 477.932 1682.98 464.742 1591.65 472.272Z" fill="#567D55"/>
<path d="M1026.24 319.651C1114.39 293.251 1208.39 302.841 1298.77 303.981C1310.71 304.111 1325.36 304.201 1337.39 304.061C1379.4 304.281 1420.61 312.171 1462.28 314.321C1482.82 315.291 1503.57 315.821 1523.49 309.611C1519.03 312.371 1514.15 314.471 1509.19 316.341C1474.05 328.091 1435.8 326.451 1399.41 325.841C1378.62 325.341 1357.79 324.091 1337.95 324.921C1325.05 325.471 1311.56 325.821 1298.56 325.791C1207.18 325.311 1117.57 312.121 1026.24 319.651Z" fill="#567D55"/>
<path d="M1088.25 603.041C1122.62 594.371 1158.06 591.121 1193.35 589.641C1228.69 588.661 1264.64 589.371 1299.21 598.021C1238.4 613.021 1149.05 618.001 1088.25 603.041Z" fill="#567D55"/>
<path d="M557.848 503.36C592.188 492.8 626.898 479.35 663.728 483.25C676.208 484.85 689.598 488.97 698.488 498.34C686.308 497.66 675.498 498.71 663.848 500.57C631.158 505.34 589.718 517.15 557.848 503.36Z" fill="#567D55"/>
<path d="M154.016 1259.03C212.316 1270.97 269.586 1256.54 328.416 1253.61C343.416 1252.74 358.616 1252.39 373.686 1253.49C417.746 1256.95 461.386 1258.5 505.606 1264.06C476.356 1269.48 446.896 1272.42 417.226 1273.82C395.276 1275.13 373.336 1273.83 351.346 1274.52C289.906 1276.09 209.926 1290.73 154.016 1259.04V1259.03Z" fill="#567D55"/>
<path d="M1099.07 1068.75C1157.37 1080.69 1214.64 1066.26 1273.47 1063.33C1288.47 1062.46 1303.67 1062.11 1318.74 1063.21C1362.8 1066.67 1406.44 1068.22 1450.66 1073.78C1421.41 1079.2 1391.95 1082.14 1362.28 1083.54C1340.33 1084.85 1318.39 1083.55 1296.4 1084.24C1234.96 1085.81 1154.98 1100.45 1099.07 1068.76V1068.75Z" fill="#567D55"/>
<path d="M140.246 1562.72C178.416 1542.89 237.686 1542.39 275.856 1562.72C240.136 1572.1 175.746 1572.34 140.246 1562.72Z" fill="#567D55"/>
<path d="M709.457 1722.61C738.317 1707.94 771.937 1705.07 803.777 1704.62C842.977 1703.83 881.817 1709.04 920.787 1705.56C967.057 1701.34 1045.38 1682.34 1086.18 1707.54C1070.72 1703.29 1055.15 1704.25 1039.76 1705.97C1024.36 1707.8 1009.04 1710.76 993.677 1713.91C970.437 1718.66 947.017 1724.04 923.217 1727.15C906.997 1729.21 890.337 1728.91 874.127 1728.11C819.077 1725.57 764.427 1712.83 709.477 1722.61H709.457Z" fill="#567D55"/>
<path d="M47.9766 1796.94C74.4966 1780.2 115.487 1780.43 146.057 1780.8C178.657 1782.27 210.327 1781.29 243.377 1782.32C265.387 1783.3 288.097 1784.77 309.157 1791.91C262.427 1796.39 216.947 1805.37 169.607 1803.39C154.097 1802.87 128.207 1799.8 112.517 1798.33C90.8766 1796.39 69.7866 1793.78 47.9766 1796.93V1796.94Z" fill="#567D55"/>
<path d="M1693.46 1664.25C1719.98 1647.51 1760.97 1647.74 1791.54 1648.11C1824.14 1649.58 1855.81 1648.6 1888.86 1649.63C1910.87 1650.61 1933.58 1652.08 1954.64 1659.22C1907.91 1663.7 1862.43 1672.68 1815.09 1670.7C1799.58 1670.18 1773.69 1667.11 1758 1665.64C1736.36 1663.7 1715.27 1661.09 1693.46 1664.24V1664.25Z" fill="#567D55"/>
<path d="M-82.6133 632.221C-56.0933 615.481 -15.1033 615.711 15.4667 616.081C48.0667 617.551 79.7367 616.571 112.787 617.601C134.797 618.581 157.507 620.051 178.567 627.191C131.837 631.671 86.3567 640.651 39.0167 638.671C23.5067 638.151 -2.38328 635.081 -18.0733 633.611C-39.7133 631.671 -60.8033 629.061 -82.6133 632.211V632.221Z" fill="#567D55"/>
<path d="M-274.551 1396.72C-250.441 1391.93 -225.991 1390.4 -201.521 1389.75C-177.061 1388.51 -152.781 1393.45 -128.441 1394.39C-112.201 1394.94 -95.9708 1394.05 -79.7208 1392.38C-14.8608 1386.11 50.9992 1386.18 115.109 1399.12L115.049 1400.85C98.8092 1403.24 82.5492 1404.46 66.2392 1405.41C17.5892 1408.34 -31.2408 1406.69 -79.7208 1401.85C-95.9208 1400.21 -112.151 1399.32 -128.421 1399.97C-152.751 1401.06 -177.001 1406.19 -201.461 1405.13C-226.001 1404.65 -250.251 1403.25 -274.551 1398.45V1396.72Z" fill="#567D55"/>
<path d="M15.9991 1123.73C11.7591 1119.49 11.0791 1103.71 4.07907 1110.5C-8.77093 1122.96 -25.2809 1158.47 -29.0009 1162.48C-11.5009 1027.53 -14.3209 1042.52 -3.48093 984.81C7.34906 927.12 20.6291 835.92 14.9591 775.56C-2.62093 770.27 -4.48093 771.52 -21.2009 763.16C-43.7509 817.7 -52.8409 879.89 -61.0209 939.48C-68.0809 990.95 -74.0509 989.7 -79.8809 1025.65C-78.2909 989.04 -89.8709 959.27 -89.8709 959.27C-89.8709 959.27 -104.291 949.36 -105.141 957.63C-106.381 969.57 -91.8709 1090.75 -91.9009 1103.38C-92.1009 1201.67 -113.061 1323.06 -130.961 1397.13L-76.3709 1400C-67.3809 1338.23 27.1091 1129.21 15.9991 1123.74V1123.73ZM-78.1009 1225.33C-77.7209 1233.86 -78.7209 1242.05 -80.4809 1250.16C-82.6309 1260.09 -85.3309 1269.5 -87.0709 1279.61C-89.1509 1291.66 -90.1109 1312.01 -95.9409 1321.78C-95.7409 1302.63 -94.1809 1284.23 -92.0509 1265.28C-90.9309 1255.33 -88.9709 1245.79 -86.9609 1236.18C-85.3809 1228.58 -82.0609 1220.16 -81.6009 1212.3L-78.1209 1202.02C-77.5709 1201.82 -78.4509 1217.74 -78.1109 1225.33H-78.1009ZM-43.2909 918.65C-41.7209 902.79 -38.9709 887.57 -36.1709 872.25C-33.9509 860.14 -29.3109 846.71 -28.6609 834.18L-23.7909 817.78C-23.0209 817.47 -24.2509 842.85 -23.7709 854.95C-23.2409 868.56 -24.6409 881.61 -27.1009 894.55C-30.1109 910.39 -33.8809 925.39 -36.3309 941.51C-39.2509 960.72 -40.5809 993.16 -48.7409 1008.75C-48.4609 978.22 -46.2809 948.88 -43.2909 918.66V918.65ZM-71.7009 1137.38C-76.0609 1130.69 -73.5009 1115.89 -73.3209 1108.02C-73.0809 1097.2 -71.7009 1086.84 -70.0109 1076.33C-67.8809 1063.06 -68.7209 1035.86 -59.5909 1025.78L-58.6909 1026.05C-61.7609 1037.65 -59.6309 1052.72 -60.8009 1064.93C-61.8309 1075.68 -62.7209 1086.58 -64.3509 1097.12C-66.3909 1110.28 -70.6709 1124.62 -71.7009 1137.38ZM-36.3809 1083.42C-35.8509 1097.03 -37.2509 1110.08 -39.7109 1123.02C-42.7209 1138.86 -46.4909 1153.86 -48.9409 1169.98C-51.8609 1189.19 -53.1909 1221.63 -61.3509 1237.22C-61.0709 1206.69 -58.8909 1177.35 -55.9009 1147.13C-54.3309 1131.27 -51.5809 1116.05 -48.7809 1100.73C-46.5609 1088.62 -41.9209 1075.19 -41.2709 1062.66L-36.3909 1046.26C-35.6209 1045.95 -36.8509 1071.33 -36.3709 1083.43L-36.3809 1083.42Z" fill="#567D55"/>
<path d="M-328.352 472.27C-240.202 445.87 -146.202 455.46 -55.8216 456.6C-43.8816 456.73 -29.2316 456.82 -17.2016 456.68C24.8084 456.9 66.0184 464.79 107.688 466.94C128.228 467.91 148.978 468.44 168.898 462.23C164.438 464.99 159.558 467.09 154.598 468.96C119.458 480.71 81.2084 479.07 44.8185 478.46C24.0284 477.96 3.19846 476.71 -16.6415 477.54C-29.5415 478.09 -43.0316 478.44 -56.0316 478.41C-147.412 477.93 -237.022 464.74 -328.352 472.27Z" fill="#567D55"/>
<path d="M-226.531 1664.25C-200.011 1647.51 -159.021 1647.74 -128.451 1648.11C-95.8513 1649.58 -64.1813 1648.6 -31.1313 1649.63C-9.12126 1650.61 13.5887 1652.08 34.6487 1659.22C-12.0813 1663.7 -57.5612 1672.68 -104.901 1670.7C-120.411 1670.18 -146.301 1667.11 -161.991 1665.64C-183.631 1663.7 -204.721 1661.09 -226.531 1664.24V1664.25Z" fill="#567D55"/>
</g>
</g>
</g>
<defs>
<clipPath id="clip0_123_2357">
<rect width="1920" height="1920" fill="white"/>
</clipPath>
</defs>
</svg>
