<?xml version="1.0" encoding="UTF-8"?>
<svg id="Calque_2" data-name="Calque 2" xmlns="http://www.w3.org/2000/svg" xmlns:xlink="http://www.w3.org/1999/xlink" viewBox="0 0 1920 1920">
  <defs>
    <style>
      .cls-1 {
        fill: none;
      }

      .cls-2 {
        fill: #567d55;
      }

      .cls-3 {
        clip-path: url(#clippath-1);
      }

      .cls-4 {
        clip-path: url(#clippath-3);
      }

      .cls-5 {
        clip-path: url(#clippath-4);
      }

      .cls-6 {
        clip-path: url(#clippath-2);
      }

      .cls-7 {
        fill: #a8be9b;
      }

      .cls-8 {
        clip-path: url(#clippath);
      }
    </style>
    <clipPath id="clippath">
      <rect class="cls-1" width="1920" height="1920"/>
    </clipPath>
    <clipPath id="clippath-1">
      <rect class="cls-1" x="1879.04" y="-1711.43" width="1920" height="1920"/>
    </clipPath>
    <clipPath id="clippath-2">
      <rect class="cls-1" x="1879.04" y="208.57" width="1920" height="1920"/>
    </clipPath>
    <clipPath id="clippath-3">
      <rect class="cls-1" x="-40.96" y="-1711.43" width="1920" height="1920"/>
    </clipPath>
    <clipPath id="clippath-4">
      <rect class="cls-1" x="-40.96" y="208.57" width="1920" height="1920"/>
    </clipPath>
  </defs>
  <g id="EP8_:_H" data-name="EP8 : H">
    <g class="cls-8">
      <g class="cls-3">
        <rect class="cls-7" x="1851.29" y="-1739.18" width="1975.5" height="1975.5"/>
        <rect class="cls-7" x="-68.71" y="-1739.18" width="1975.5" height="1975.5"/>
        <rect class="cls-7" x="1851.29" y="180.82" width="1975.5" height="1975.5"/>
        <rect class="cls-7" x="-68.71" y="180.82" width="1975.5" height="1975.5"/>
      </g>
      <g class="cls-6">
        <rect class="cls-7" x="1851.29" y="-1739.18" width="1975.5" height="1975.5"/>
        <rect class="cls-7" x="-68.71" y="-1739.18" width="1975.5" height="1975.5"/>
        <g>
          <rect class="cls-7" x="1851.29" y="180.82" width="1975.5" height="1975.5"/>
          <path class="cls-2" d="M1837.39,632.22c26.52-16.74,67.51-16.51,98.08-16.14,32.6,1.47,64.27.49,97.32,1.52,22.01.98,44.72,2.45,65.78,9.59-46.73,4.48-92.21,13.46-139.55,11.48-15.51-.52-41.4-3.59-57.09-5.06-21.64-1.94-42.73-4.55-64.54-1.4h0Z"/>
        </g>
        <g>
          <rect class="cls-7" x="-68.71" y="180.82" width="1975.5" height="1975.5"/>
          <path class="cls-2" d="M1645.45,1396.72c24.11-4.79,48.56-6.32,73.03-6.97,24.46-1.24,48.74,3.7,73.08,4.64,16.24.55,32.47-.34,48.72-2.01,64.86-6.27,130.72-6.2,194.83,6.74,0,0-.06,1.73-.06,1.73-16.24,2.39-32.5,3.61-48.81,4.56-48.65,2.93-97.48,1.28-145.96-3.56-16.2-1.64-32.43-2.53-48.7-1.88-24.33,1.09-48.58,6.22-73.04,5.16-24.54-.48-48.79-1.88-73.09-6.68,0,0,0-1.73,0-1.73h0Z"/>
          <path class="cls-2" d="M1936,1123.73c-4.24-4.24-4.92-20.02-11.92-13.23-12.85,12.46-29.36,47.97-33.08,51.98,17.5-134.95,14.68-119.96,25.52-177.67,10.83-57.69,24.11-148.89,18.44-209.25-17.58-5.29-19.44-4.04-36.16-12.4-22.55,54.54-31.64,116.73-39.82,176.32-7.06,51.47-13.03,50.22-18.86,86.17,1.59-36.61-9.99-66.38-9.99-66.38,0,0-14.42-9.91-15.27-1.64-1.24,11.94,13.27,133.12,13.24,145.75-.2,98.29-21.16,219.68-39.06,293.75l54.59,2.87c8.99-61.77,103.48-270.79,92.37-276.26ZM1841.9,1225.33c.38,8.53-.62,16.72-2.38,24.83-2.15,9.93-4.85,19.34-6.59,29.45-2.08,12.05-3.04,32.4-8.87,42.17.2-19.15,1.76-37.55,3.89-56.5,1.12-9.95,3.08-19.49,5.09-29.1,1.58-7.6,4.9-16.02,5.36-23.88l3.48-10.28c.55-.2-.33,15.72.01,23.31ZM1876.71,918.65c1.57-15.86,4.32-31.08,7.12-46.4,2.22-12.11,6.86-25.54,7.51-38.07l4.87-16.4c.77-.31-.46,25.07.02,37.17.53,13.61-.87,26.66-3.33,39.6-3.01,15.84-6.78,30.84-9.23,46.96-2.92,19.21-4.25,51.65-12.41,67.24.28-30.53,2.46-59.87,5.45-90.09ZM1848.3,1137.38c-4.36-6.69-1.8-21.49-1.62-29.36.24-10.82,1.62-21.18,3.31-31.69,2.13-13.27,1.29-40.47,10.42-50.55l.9.27c-3.07,11.6-.94,26.67-2.11,38.88-1.03,10.75-1.92,21.65-3.55,32.19-2.04,13.16-6.32,27.5-7.35,40.26ZM1883.62,1083.42c.53,13.61-.87,26.66-3.33,39.6-3.01,15.84-6.78,30.84-9.23,46.96-2.92,19.21-4.25,51.65-12.41,67.24.28-30.53,2.46-59.87,5.45-90.09,1.57-15.86,4.32-31.08,7.12-46.4,2.22-12.11,6.86-25.54,7.51-38.07l4.88-16.4c.77-.31-.46,25.07.02,37.17Z"/>
          <path class="cls-2" d="M1591.65,472.27c88.15-26.4,182.15-16.81,272.53-15.67,11.94.13,26.59.22,38.62.08,42.01.22,83.22,8.11,124.89,10.26,20.54.97,41.29,1.5,61.21-4.71-4.46,2.76-9.34,4.86-14.3,6.73-35.14,11.75-73.39,10.11-109.78,9.5-20.79-.5-41.62-1.75-61.46-.92-12.9.55-26.39.9-39.39.87-91.38-.48-180.99-13.67-272.32-6.14h0Z"/>
          <path class="cls-2" d="M1693.47,1664.25c26.52-16.74,67.51-16.51,98.08-16.14,32.6,1.47,64.27.49,97.32,1.52,22.01.98,44.72,2.45,65.78,9.59-46.73,4.48-92.21,13.46-139.55,11.48-15.51-.52-41.4-3.59-57.09-5.06-21.64-1.94-42.73-4.55-64.54-1.4h0Z"/>
        </g>
      </g>
      <g class="cls-4">
        <rect class="cls-7" x="1851.29" y="-1739.18" width="1975.5" height="1975.5"/>
        <g>
          <rect class="cls-7" x="-68.71" y="-1739.18" width="1975.5" height="1975.5"/>
          <path class="cls-2" d="M1318.24,133.23c24.11-4.79,48.56-6.32,73.03-6.97,24.46-1.24,48.74,3.7,73.08,4.64,16.24.55,32.47-.34,48.72-2.01,64.86-6.27,130.72-6.2,194.83,6.74,0,0-.06,1.73-.06,1.73-16.24,2.39-32.5,3.61-48.81,4.56-48.65,2.93-97.48,1.28-145.96-3.56-16.2-1.64-32.43-2.53-48.7-1.88-24.33,1.09-48.58,6.22-73.04,5.16-24.54-.48-48.79-1.88-73.09-6.68,0,0,0-1.73,0-1.73h0Z"/>
          <path class="cls-2" d="M250.64,94.12c24.11-4.79,48.56-6.32,73.03-6.97,24.46-1.24,48.74,3.7,73.08,4.64,16.24.55,32.47-.34,48.72-2.01,64.86-6.27,130.72-6.2,194.83,6.74,0,0-.06,1.73-.06,1.73-16.24,2.39-32.5,3.61-48.81,4.56-48.65,2.93-97.48,1.28-145.96-3.56-16.2-1.64-32.43-2.53-48.7-1.88-24.33,1.09-48.58,6.22-73.04,5.16-24.54-.48-48.79-1.88-73.09-6.68,0,0,0-1.73,0-1.73h0Z"/>
          <path class="cls-2" d="M536.87-183.13c-4.24-4.24-4.92-20.02-11.92-13.23-12.85,12.46-29.36,47.97-33.08,51.98,17.5-134.95,14.68-119.96,25.52-177.67,10.83-57.69,24.11-148.89,18.44-209.25-17.58-5.29-19.44-4.04-36.16-12.4-22.55,54.54-31.64,116.73-39.82,176.32-7.06,51.47-13.03,50.22-18.86,86.17,1.59-36.61-9.99-66.38-9.99-66.38,0,0-14.42-9.91-15.27-1.64-1.24,11.94,13.27,133.12,13.24,145.75-.2,98.29-21.16,219.68-39.06,293.75l54.59,2.87c8.99-61.77,103.48-270.79,92.37-276.26ZM442.77-81.53c.38,8.53-.62,16.72-2.38,24.83-2.15,9.93-4.85,19.34-6.59,29.45-2.08,12.05-3.04,32.4-8.87,42.17.2-19.15,1.76-37.55,3.89-56.5,1.12-9.95,3.08-19.49,5.09-29.1,1.58-7.6,4.9-16.02,5.36-23.88l3.48-10.28c.55-.2-.33,15.72.01,23.31ZM477.58-388.2c1.57-15.86,4.32-31.08,7.12-46.4,2.22-12.11,6.86-25.54,7.51-38.07l4.87-16.4c.77-.31-.46,25.07.02,37.17.53,13.61-.87,26.66-3.33,39.6-3.01,15.84-6.78,30.84-9.23,46.96-2.92,19.21-4.25,51.65-12.41,67.24.28-30.53,2.46-59.87,5.45-90.09ZM449.17-169.48c-4.36-6.69-1.8-21.49-1.62-29.36.24-10.82,1.62-21.18,3.31-31.69,2.13-13.27,1.29-40.47,10.42-50.55l.9.27c-3.07,11.6-.94,26.67-2.11,38.88-1.03,10.75-1.92,21.65-3.55,32.19-2.04,13.16-6.32,27.5-7.35,40.26ZM484.49-223.44c.53,13.61-.87,26.66-3.33,39.6-3.01,15.84-6.78,30.84-9.23,46.96-2.92,19.21-4.25,51.65-12.41,67.24.28-30.53,2.46-59.87,5.45-90.09,1.57-15.86,4.32-31.08,7.12-46.4,2.22-12.11,6.86-25.54,7.51-38.07l4.88-16.4c.77-.31-.46,25.07.02,37.17Z"/>
          <path class="cls-2" d="M1033,62.31c26.52-16.74,67.51-16.51,98.08-16.14,32.6,1.47,64.27.49,97.32,1.52,22.01.98,44.72,2.45,65.78,9.59-46.73,4.48-92.21,13.46-139.55,11.48-15.51-.52-41.4-3.59-57.09-5.06-21.64-1.94-42.73-4.55-64.54-1.4h0Z"/>
        </g>
        <rect class="cls-7" x="1851.29" y="180.82" width="1975.5" height="1975.5"/>
        <g>
          <rect class="cls-7" x="-68.71" y="180.82" width="1975.5" height="1975.5"/>
          <path class="cls-2" d="M937.34,391.29c-4.24-4.24-4.92-20.02-11.92-13.23-12.85,12.46-29.36,47.97-33.08,51.98,17.5-134.95,14.68-119.96,25.52-177.67,10.83-57.69,24.11-148.89,18.44-209.25-17.58-5.29-19.44-4.04-36.16-12.4-22.55,54.54-31.64,116.73-39.82,176.32-7.06,51.47-13.03,50.22-18.86,86.17,1.59-36.61-9.99-66.38-9.99-66.38,0,0-14.42-9.91-15.27-1.64-1.24,11.94,13.27,133.12,13.24,145.75-.2,98.29-21.16,219.68-39.06,293.75l54.59,2.87c8.99-61.77,103.48-270.79,92.37-276.26ZM843.24,492.89c.38,8.53-.62,16.72-2.38,24.83-2.15,9.93-4.85,19.34-6.59,29.45-2.08,12.05-3.04,32.4-8.87,42.17.2-19.15,1.76-37.55,3.89-56.5,1.12-9.95,3.08-19.49,5.09-29.1,1.58-7.6,4.9-16.02,5.36-23.88l3.48-10.28c.55-.2-.33,15.72.01,23.31ZM878.05,186.21c1.57-15.86,4.32-31.08,7.12-46.4,2.22-12.11,6.86-25.54,7.51-38.07l4.87-16.4c.77-.31-.46,25.07.02,37.17.53,13.61-.87,26.66-3.33,39.6-3.01,15.84-6.78,30.84-9.23,46.96-2.92,19.21-4.25,51.65-12.41,67.24.28-30.53,2.46-59.87,5.45-90.09ZM849.65,404.94c-4.36-6.69-1.8-21.49-1.62-29.36.24-10.82,1.62-21.18,3.31-31.69,2.13-13.27,1.29-40.47,10.42-50.55l.9.27c-3.07,11.6-.94,26.67-2.11,38.88-1.03,10.75-1.92,21.65-3.55,32.19-2.04,13.16-6.32,27.5-7.35,40.26ZM884.96,350.98c.53,13.61-.87,26.66-3.33,39.6-3.01,15.84-6.78,30.84-9.23,46.96-2.92,19.21-4.25,51.65-12.41,67.24.28-30.53,2.46-59.87,5.45-90.09,1.57-15.86,4.32-31.08,7.12-46.4,2.22-12.11,6.86-25.54,7.51-38.07l4.88-16.4c.77-.31-.46,25.07.02,37.17Z"/>
        </g>
      </g>
      <g class="cls-5">
        <rect class="cls-7" x="1851.29" y="-1739.18" width="1975.5" height="1975.5"/>
        <rect class="cls-7" x="-68.71" y="-1739.18" width="1975.5" height="1975.5"/>
        <g>
          <rect class="cls-7" x="1851.29" y="180.82" width="1975.5" height="1975.5"/>
          <path class="cls-2" d="M1837.39,632.22c26.52-16.74,67.51-16.51,98.08-16.14,32.6,1.47,64.27.49,97.32,1.52,22.01.98,44.72,2.45,65.78,9.59-46.73,4.48-92.21,13.46-139.55,11.48-15.51-.52-41.4-3.59-57.09-5.06-21.64-1.94-42.73-4.55-64.54-1.4h0Z"/>
        </g>
        <g>
          <rect class="cls-7" x="-68.71" y="180.82" width="1975.5" height="1975.5"/>
          <path class="cls-2" d="M154.02,980.49c24.11-4.79,48.56-6.32,73.03-6.97,24.46-1.24,48.74,3.7,73.08,4.64,16.24.55,32.47-.34,48.72-2.01,64.86-6.27,130.72-6.2,194.83,6.74,0,0-.06,1.73-.06,1.73-16.24,2.39-32.5,3.61-48.81,4.56-48.65,2.93-97.48,1.28-145.96-3.56-16.2-1.64-32.43-2.53-48.7-1.88-24.33,1.09-48.58,6.22-73.04,5.16-24.54-.48-48.79-1.88-73.09-6.68,0,0,0-1.73,0-1.73h0Z"/>
          <path class="cls-2" d="M444.57,707.5c-4.24-4.24-4.92-20.02-11.92-13.23-12.85,12.46-29.36,47.97-33.08,51.98,17.5-134.95,14.68-119.96,25.52-177.67,10.83-57.69,24.11-148.89,18.44-209.25-17.58-5.29-19.44-4.04-36.16-12.4-22.55,54.54-31.64,116.73-39.82,176.32-7.06,51.47-13.03,50.22-18.86,86.17,1.59-36.61-9.99-66.38-9.99-66.38,0,0-14.42-9.91-15.27-1.64-1.24,11.94,13.27,133.12,13.24,145.75-.2,98.29-21.16,219.68-39.06,293.75l54.59,2.87c8.99-61.77,103.48-270.79,92.37-276.26ZM350.47,809.1c.38,8.53-.62,16.72-2.38,24.83-2.15,9.93-4.85,19.34-6.59,29.45-2.08,12.05-3.04,32.4-8.87,42.17.2-19.15,1.76-37.55,3.89-56.5,1.12-9.95,3.08-19.49,5.09-29.1,1.58-7.6,4.9-16.02,5.36-23.88l3.48-10.28c.55-.2-.33,15.72.01,23.31ZM385.27,502.42c1.57-15.86,4.32-31.08,7.12-46.4,2.22-12.11,6.86-25.54,7.51-38.07l4.87-16.4c.77-.31-.46,25.07.02,37.17.53,13.61-.87,26.66-3.33,39.6-3.01,15.84-6.78,30.84-9.23,46.96-2.92,19.21-4.25,51.65-12.41,67.24.28-30.53,2.46-59.87,5.45-90.09ZM356.87,721.15c-4.36-6.69-1.8-21.49-1.62-29.36.24-10.82,1.62-21.18,3.31-31.69,2.13-13.27,1.29-40.47,10.42-50.55l.9.27c-3.07,11.6-.94,26.67-2.11,38.88-1.03,10.75-1.92,21.65-3.55,32.19-2.04,13.16-6.32,27.5-7.35,40.26ZM392.18,667.19c.53,13.61-.87,26.66-3.33,39.6-3.01,15.84-6.78,30.84-9.23,46.96-2.92,19.21-4.25,51.65-12.41,67.24.28-30.53,2.46-59.87,5.45-90.09,1.57-15.86,4.32-31.08,7.12-46.4,2.22-12.11,6.86-25.54,7.51-38.07l4.88-16.4c.77-.31-.46,25.07.02,37.17Z"/>
          <path class="cls-2" d="M743.42,1467.85c24.11-4.79,48.56-6.32,73.03-6.97,24.46-1.24,48.74,3.7,73.08,4.64,16.24.55,32.47-.34,48.72-2.01,64.86-6.27,130.72-6.2,194.83,6.74,0,0-.06,1.73-.06,1.73-16.24,2.39-32.5,3.61-48.81,4.56-48.65,2.93-97.48,1.28-145.96-3.56-16.2-1.64-32.43-2.53-48.7-1.88-24.33,1.09-48.58,6.22-73.04,5.16-24.54-.48-48.79-1.88-73.09-6.68,0,0,0-1.73,0-1.73h0Z"/>
          <path class="cls-2" d="M1033.97,1194.86c-4.24-4.24-4.92-20.02-11.92-13.23-12.85,12.46-29.36,47.97-33.08,51.98,17.5-134.95,14.68-119.96,25.52-177.67,10.83-57.69,24.11-148.89,18.44-209.25-17.58-5.29-19.44-4.04-36.16-12.4-22.55,54.54-31.64,116.73-39.82,176.32-7.06,51.47-13.03,50.22-18.86,86.17,1.59-36.61-9.99-66.38-9.99-66.38,0,0-14.42-9.91-15.27-1.64-1.24,11.94,13.27,133.12,13.24,145.75-.2,98.29-21.16,219.68-39.06,293.75l54.59,2.87c8.99-61.77,103.48-270.79,92.37-276.26ZM939.87,1296.46c.38,8.53-.62,16.72-2.38,24.83-2.15,9.93-4.85,19.34-6.59,29.45-2.08,12.05-3.04,32.4-8.87,42.17.2-19.15,1.76-37.55,3.89-56.5,1.12-9.95,3.08-19.49,5.09-29.1,1.58-7.6,4.9-16.02,5.36-23.88l3.48-10.28c.55-.2-.33,15.72.01,23.31ZM974.68,989.79c1.57-15.86,4.32-31.08,7.12-46.4,2.22-12.11,6.86-25.54,7.51-38.07l4.87-16.4c.77-.31-.46,25.07.02,37.17.53,13.61-.87,26.66-3.33,39.6-3.01,15.84-6.78,30.84-9.23,46.96-2.92,19.21-4.25,51.65-12.41,67.24.28-30.53,2.46-59.87,5.45-90.09ZM946.27,1208.51c-4.36-6.69-1.8-21.49-1.62-29.36.24-10.82,1.62-21.18,3.31-31.69,2.13-13.27,1.29-40.47,10.42-50.55l.9.27c-3.07,11.6-.94,26.67-2.11,38.88-1.03,10.75-1.92,21.65-3.55,32.19-2.04,13.16-6.32,27.5-7.35,40.26ZM981.59,1154.55c.53,13.61-.87,26.66-3.33,39.6-3.01,15.84-6.78,30.84-9.23,46.96-2.92,19.21-4.25,51.65-12.41,67.24.28-30.53,2.46-59.87,5.45-90.09,1.57-15.86,4.32-31.08,7.12-46.4,2.22-12.11,6.86-25.54,7.51-38.07l4.88-16.4c.77-.31-.46,25.07.02,37.17Z"/>
          <path class="cls-2" d="M1346.57,901.01c24.11-4.79,48.56-6.32,73.03-6.97,24.46-1.24,48.74,3.7,73.08,4.64,16.24.55,32.47-.34,48.72-2.01,64.86-6.27,130.72-6.2,194.83,6.74,0,0-.06,1.73-.06,1.73-16.24,2.39-32.5,3.61-48.81,4.56-48.65,2.93-97.48,1.28-145.96-3.56-16.2-1.64-32.43-2.53-48.7-1.88-24.33,1.09-48.58,6.22-73.04,5.16-24.54-.48-48.79-1.88-73.09-6.68,0,0,0-1.73,0-1.73h0Z"/>
          <path class="cls-2" d="M1637.11,628.02c-4.24-4.24-4.92-20.02-11.92-13.23-12.85,12.46-29.36,47.97-33.08,51.98,17.5-134.95,14.68-119.96,25.52-177.67,10.83-57.69,24.11-148.89,18.44-209.25-17.58-5.29-19.44-4.04-36.16-12.4-22.55,54.54-31.64,116.73-39.82,176.32-7.06,51.47-13.03,50.22-18.86,86.17,1.59-36.61-9.99-66.38-9.99-66.38,0,0-14.42-9.91-15.27-1.64-1.24,11.94,13.27,133.12,13.24,145.75-.2,98.29-21.16,219.68-39.06,293.75l54.59,2.87c8.99-61.77,103.48-270.79,92.37-276.26ZM1543.01,729.62c.38,8.53-.62,16.72-2.38,24.83-2.15,9.93-4.85,19.34-6.59,29.45-2.08,12.05-3.04,32.4-8.87,42.17.2-19.15,1.76-37.55,3.89-56.5,1.12-9.95,3.08-19.49,5.09-29.1,1.58-7.6,4.9-16.02,5.36-23.88l3.48-10.28c.55-.2-.33,15.72.01,23.31ZM1577.82,422.94c1.57-15.86,4.32-31.08,7.12-46.4,2.22-12.11,6.86-25.54,7.51-38.07l4.87-16.4c.77-.31-.46,25.07.02,37.17.53,13.61-.87,26.66-3.33,39.6-3.01,15.84-6.78,30.84-9.23,46.96-2.92,19.21-4.25,51.65-12.41,67.24.28-30.53,2.46-59.87,5.45-90.09ZM1549.42,641.66c-4.36-6.69-1.8-21.49-1.62-29.36.24-10.82,1.62-21.18,3.31-31.69,2.13-13.27,1.29-40.47,10.42-50.55l.9.27c-3.07,11.6-.94,26.67-2.11,38.88-1.03,10.75-1.92,21.65-3.55,32.19-2.04,13.16-6.32,27.5-7.35,40.26ZM1584.73,587.7c.53,13.61-.87,26.66-3.33,39.6-3.01,15.84-6.78,30.84-9.23,46.96-2.92,19.21-4.25,51.65-12.41,67.24.28-30.53,2.46-59.87,5.45-90.09,1.57-15.86,4.32-31.08,7.12-46.4,2.22-12.11,6.86-25.54,7.51-38.07l4.88-16.4c.77-.31-.46,25.07.02,37.17Z"/>
          <path class="cls-2" d="M646.8,664.28c24.11-4.79,48.56-6.32,73.03-6.97,24.46-1.24,48.74,3.7,73.08,4.64,16.24.55,32.47-.34,48.72-2.01,64.86-6.27,130.72-6.2,194.83,6.74,0,0-.06,1.73-.06,1.73-16.24,2.39-32.5,3.61-48.81,4.56-48.65,2.93-97.48,1.28-145.96-3.56-16.2-1.64-32.43-2.53-48.7-1.88-24.33,1.09-48.58,6.22-73.04,5.16-24.54-.48-48.79-1.88-73.09-6.68,0,0,0-1.73,0-1.73h0Z"/>
          <path class="cls-2" d="M937.34,391.29c-4.24-4.24-4.92-20.02-11.92-13.23-12.85,12.46-29.36,47.97-33.08,51.98,17.5-134.95,14.68-119.96,25.52-177.67,10.83-57.69,24.11-148.89,18.44-209.25-17.58-5.29-19.44-4.04-36.16-12.4-22.55,54.54-31.64,116.73-39.82,176.32-7.06,51.47-13.03,50.22-18.86,86.17,1.59-36.61-9.99-66.38-9.99-66.38,0,0-14.42-9.91-15.27-1.64-1.24,11.94,13.27,133.12,13.24,145.75-.2,98.29-21.16,219.68-39.06,293.75l54.59,2.87c8.99-61.77,103.48-270.79,92.37-276.26ZM843.24,492.89c.38,8.53-.62,16.72-2.38,24.83-2.15,9.93-4.85,19.34-6.59,29.45-2.08,12.05-3.04,32.4-8.87,42.17.2-19.15,1.76-37.55,3.89-56.5,1.12-9.95,3.08-19.49,5.09-29.1,1.58-7.6,4.9-16.02,5.36-23.88l3.48-10.28c.55-.2-.33,15.72.01,23.31ZM878.05,186.21c1.57-15.86,4.32-31.08,7.12-46.4,2.22-12.11,6.86-25.54,7.51-38.07l4.87-16.4c.77-.31-.46,25.07.02,37.17.53,13.61-.87,26.66-3.33,39.6-3.01,15.84-6.78,30.84-9.23,46.96-2.92,19.21-4.25,51.65-12.41,67.24.28-30.53,2.46-59.87,5.45-90.09ZM849.65,404.94c-4.36-6.69-1.8-21.49-1.62-29.36.24-10.82,1.62-21.18,3.31-31.69,2.13-13.27,1.29-40.47,10.42-50.55l.9.27c-3.07,11.6-.94,26.67-2.11,38.88-1.03,10.75-1.92,21.65-3.55,32.19-2.04,13.16-6.32,27.5-7.35,40.26ZM884.96,350.98c.53,13.61-.87,26.66-3.33,39.6-3.01,15.84-6.78,30.84-9.23,46.96-2.92,19.21-4.25,51.65-12.41,67.24.28-30.53,2.46-59.87,5.45-90.09,1.57-15.86,4.32-31.08,7.12-46.4,2.22-12.11,6.86-25.54,7.51-38.07l4.88-16.4c.77-.31-.46,25.07.02,37.17Z"/>
          <path class="cls-2" d="M536.87,1736.87c-4.24-4.24-4.92-20.02-11.92-13.23-12.85,12.46-29.36,47.97-33.08,51.98,17.5-134.95,14.68-119.96,25.52-177.67,10.83-57.69,24.11-148.89,18.44-209.25-17.58-5.29-19.44-4.04-36.16-12.4-22.55,54.54-31.64,116.73-39.82,176.32-7.06,51.47-13.03,50.22-18.86,86.17,1.59-36.61-9.99-66.38-9.99-66.38,0,0-14.42-9.91-15.27-1.64-1.24,11.94,13.27,133.12,13.24,145.75-.2,98.29-21.16,219.68-39.06,293.75l54.59,2.87c8.99-61.77,103.48-270.79,92.37-276.26ZM442.77,1838.47c.38,8.53-.62,16.72-2.38,24.83-2.15,9.93-4.85,19.34-6.59,29.45-2.08,12.05-3.04,32.4-8.87,42.17.2-19.15,1.76-37.55,3.89-56.5,1.12-9.95,3.08-19.49,5.09-29.1,1.58-7.6,4.9-16.02,5.36-23.88l3.48-10.28c.55-.2-.33,15.72.01,23.31ZM477.58,1531.8c1.57-15.86,4.32-31.08,7.12-46.4,2.22-12.11,6.86-25.54,7.51-38.07l4.87-16.4c.77-.31-.46,25.07.02,37.17.53,13.61-.87,26.66-3.33,39.6-3.01,15.84-6.78,30.84-9.23,46.96-2.92,19.21-4.25,51.65-12.41,67.24.28-30.53,2.46-59.87,5.45-90.09ZM449.17,1750.52c-4.36-6.69-1.8-21.49-1.62-29.36.24-10.82,1.62-21.18,3.31-31.69,2.13-13.27,1.29-40.47,10.42-50.55l.9.27c-3.07,11.6-.94,26.67-2.11,38.88-1.03,10.75-1.92,21.65-3.55,32.19-2.04,13.16-6.32,27.5-7.35,40.26ZM484.49,1696.56c.53,13.61-.87,26.66-3.33,39.6-3.01,15.84-6.78,30.84-9.23,46.96-2.92,19.21-4.25,51.65-12.41,67.24.28-30.53,2.46-59.87,5.45-90.09,1.57-15.86,4.32-31.08,7.12-46.4,2.22-12.11,6.86-25.54,7.51-38.07l4.88-16.4c.77-.31-.46,25.07.02,37.17Z"/>
          <path class="cls-2" d="M1123.41,1818.1c24.11-4.79,48.56-6.32,73.03-6.97,24.46-1.24,48.74,3.7,73.08,4.64,16.24.55,32.47-.34,48.72-2.01,64.86-6.27,130.72-6.2,194.83,6.74,0,0-.06,1.73-.06,1.73-16.24,2.39-32.5,3.61-48.81,4.56-48.65,2.93-97.48,1.28-145.96-3.56-16.2-1.64-32.43-2.53-48.7-1.88-24.33,1.09-48.58,6.22-73.04,5.16-24.54-.48-48.79-1.88-73.09-6.68,0,0,0-1.73,0-1.73h0Z"/>
          <path class="cls-2" d="M1413.96,1545.11c-4.24-4.24-4.92-20.02-11.92-13.23-12.85,12.46-29.36,47.97-33.08,51.98,17.5-134.95,14.68-119.96,25.52-177.67,10.83-57.69,24.11-148.89,18.44-209.25-17.58-5.29-19.44-4.04-36.16-12.4-22.55,54.54-31.64,116.73-39.82,176.32-7.06,51.47-13.03,50.22-18.86,86.17,1.59-36.61-9.99-66.38-9.99-66.38,0,0-14.42-9.91-15.27-1.64-1.24,11.94,13.27,133.12,13.24,145.75-.2,98.29-21.16,219.68-39.06,293.75l54.59,2.87c8.99-61.77,103.48-270.79,92.37-276.26ZM1319.86,1646.71c.38,8.53-.62,16.72-2.38,24.83-2.15,9.93-4.85,19.34-6.59,29.45-2.08,12.05-3.04,32.4-8.87,42.17.2-19.15,1.76-37.55,3.89-56.5,1.12-9.95,3.08-19.49,5.09-29.1,1.58-7.6,4.9-16.02,5.36-23.88l3.48-10.28c.55-.2-.33,15.72.01,23.31ZM1354.67,1340.03c1.57-15.86,4.32-31.08,7.12-46.4,2.22-12.11,6.86-25.54,7.51-38.07l4.87-16.4c.77-.31-.46,25.07.02,37.17.53,13.61-.87,26.66-3.33,39.6-3.01,15.84-6.78,30.84-9.23,46.96-2.92,19.21-4.25,51.65-12.41,67.24.28-30.53,2.46-59.87,5.45-90.09ZM1326.26,1558.75c-4.36-6.69-1.8-21.49-1.62-29.36.24-10.82,1.62-21.18,3.31-31.69,2.13-13.27,1.29-40.47,10.42-50.55l.9.27c-3.07,11.6-.94,26.67-2.11,38.88-1.03,10.75-1.92,21.65-3.55,32.19-2.04,13.16-6.32,27.5-7.35,40.26ZM1361.58,1504.8c.53,13.61-.87,26.66-3.33,39.6-3.01,15.84-6.78,30.84-9.23,46.96-2.92,19.21-4.25,51.65-12.41,67.24.28-30.53,2.46-59.87,5.45-90.09,1.57-15.86,4.32-31.08,7.12-46.4,2.22-12.11,6.86-25.54,7.51-38.07l4.88-16.4c.77-.31-.46,25.07.02,37.17Z"/>
          <path class="cls-2" d="M1645.45,1396.72c24.11-4.79,48.56-6.32,73.03-6.97,24.46-1.24,48.74,3.7,73.08,4.64,16.24.55,32.47-.34,48.72-2.01,64.86-6.27,130.72-6.2,194.83,6.74,0,0-.06,1.73-.06,1.73-16.24,2.39-32.5,3.61-48.81,4.56-48.65,2.93-97.48,1.28-145.96-3.56-16.2-1.64-32.43-2.53-48.7-1.88-24.33,1.09-48.58,6.22-73.04,5.16-24.54-.48-48.79-1.88-73.09-6.68,0,0,0-1.73,0-1.73h0Z"/>
          <path class="cls-2" d="M1936,1123.73c-4.24-4.24-4.92-20.02-11.92-13.23-12.85,12.46-29.36,47.97-33.08,51.98,17.5-134.95,14.68-119.96,25.52-177.67,10.83-57.69,24.11-148.89,18.44-209.25-17.58-5.29-19.44-4.04-36.16-12.4-22.55,54.54-31.64,116.73-39.82,176.32-7.06,51.47-13.03,50.22-18.86,86.17,1.59-36.61-9.99-66.38-9.99-66.38,0,0-14.42-9.91-15.27-1.64-1.24,11.94,13.27,133.12,13.24,145.75-.2,98.29-21.16,219.68-39.06,293.75l54.59,2.87c8.99-61.77,103.48-270.79,92.37-276.26ZM1841.9,1225.33c.38,8.53-.62,16.72-2.38,24.83-2.15,9.93-4.85,19.34-6.59,29.45-2.08,12.05-3.04,32.4-8.87,42.17.2-19.15,1.76-37.55,3.89-56.5,1.12-9.95,3.08-19.49,5.09-29.1,1.58-7.6,4.9-16.02,5.36-23.88l3.48-10.28c.55-.2-.33,15.72.01,23.31ZM1876.71,918.65c1.57-15.86,4.32-31.08,7.12-46.4,2.22-12.11,6.86-25.54,7.51-38.07l4.87-16.4c.77-.31-.46,25.07.02,37.17.53,13.61-.87,26.66-3.33,39.6-3.01,15.84-6.78,30.84-9.23,46.96-2.92,19.21-4.25,51.65-12.41,67.24.28-30.53,2.46-59.87,5.45-90.09ZM1848.3,1137.38c-4.36-6.69-1.8-21.49-1.62-29.36.24-10.82,1.62-21.18,3.31-31.69,2.13-13.27,1.29-40.47,10.42-50.55l.9.27c-3.07,11.6-.94,26.67-2.11,38.88-1.03,10.75-1.92,21.65-3.55,32.19-2.04,13.16-6.32,27.5-7.35,40.26ZM1883.62,1083.42c.53,13.61-.87,26.66-3.33,39.6-3.01,15.84-6.78,30.84-9.23,46.96-2.92,19.21-4.25,51.65-12.41,67.24.28-30.53,2.46-59.87,5.45-90.09,1.57-15.86,4.32-31.08,7.12-46.4,2.22-12.11,6.86-25.54,7.51-38.07l4.88-16.4c.77-.31-.46,25.07.02,37.17Z"/>
          <path class="cls-2" d="M1591.65,472.27c88.15-26.4,182.15-16.81,272.53-15.67,11.94.13,26.59.22,38.62.08,42.01.22,83.22,8.11,124.89,10.26,20.54.97,41.29,1.5,61.21-4.71-4.46,2.76-9.34,4.86-14.3,6.73-35.14,11.75-73.39,10.11-109.78,9.5-20.79-.5-41.62-1.75-61.46-.92-12.9.55-26.39.9-39.39.87-91.38-.48-180.99-13.67-272.32-6.14h0Z"/>
          <path class="cls-2" d="M1026.24,319.65c88.15-26.4,182.15-16.81,272.53-15.67,11.94.13,26.59.22,38.62.08,42.01.22,83.22,8.11,124.89,10.26,20.54.97,41.29,1.5,61.21-4.71-4.46,2.76-9.34,4.86-14.3,6.73-35.14,11.75-73.39,10.11-109.78,9.5-20.79-.5-41.62-1.75-61.46-.92-12.9.55-26.39.9-39.39.87-91.38-.48-180.99-13.67-272.32-6.14h0Z"/>
          <path class="cls-2" d="M1088.25,603.04c34.37-8.67,69.81-11.92,105.1-13.4,35.34-.98,71.29-.27,105.86,8.38-60.81,15-150.16,19.98-210.96,5.02h0Z"/>
          <path class="cls-2" d="M557.85,503.36c34.34-10.56,69.05-24.01,105.88-20.11,12.48,1.6,25.87,5.72,34.76,15.09-12.18-.68-22.99.37-34.64,2.23-32.69,4.77-74.13,16.58-106,2.79h0Z"/>
          <path class="cls-2" d="M154.02,1259.03c58.3,11.94,115.57-2.49,174.4-5.42,15-.87,30.2-1.22,45.27-.12,44.06,3.46,87.7,5.01,131.92,10.57-29.25,5.42-58.71,8.36-88.38,9.76-21.95,1.31-43.89.01-65.88.7-61.44,1.57-141.42,16.21-197.33-15.48h0Z"/>
          <path class="cls-2" d="M1099.07,1068.75c58.3,11.94,115.57-2.49,174.4-5.42,15-.87,30.2-1.22,45.27-.12,44.06,3.46,87.7,5.01,131.92,10.57-29.25,5.42-58.71,8.36-88.38,9.76-21.95,1.31-43.89.01-65.88.7-61.44,1.57-141.42,16.21-197.33-15.48h0Z"/>
          <path class="cls-2" d="M140.25,1562.72c38.17-19.83,97.44-20.33,135.61,0-35.72,9.38-100.11,9.62-135.61,0h0Z"/>
          <path class="cls-2" d="M709.46,1722.61c28.86-14.67,62.48-17.54,94.32-17.99,39.2-.79,78.04,4.42,117.01.94,46.27-4.22,124.59-23.22,165.39,1.98-15.46-4.25-31.03-3.29-46.42-1.57-15.4,1.83-30.72,4.79-46.08,7.94-23.24,4.75-46.66,10.13-70.46,13.24-16.22,2.06-32.88,1.76-49.09.96-55.05-2.54-109.7-15.28-164.65-5.5h0Z"/>
          <path class="cls-2" d="M47.98,1796.94c26.52-16.74,67.51-16.51,98.08-16.14,32.6,1.47,64.27.49,97.32,1.52,22.01.98,44.72,2.45,65.78,9.59-46.73,4.48-92.21,13.46-139.55,11.48-15.51-.52-41.4-3.59-57.09-5.06-21.64-1.94-42.73-4.55-64.54-1.4h0Z"/>
          <path class="cls-2" d="M1693.47,1664.25c26.52-16.74,67.51-16.51,98.08-16.14,32.6,1.47,64.27.49,97.32,1.52,22.01.98,44.72,2.45,65.78,9.59-46.73,4.48-92.21,13.46-139.55,11.48-15.51-.52-41.4-3.59-57.09-5.06-21.64-1.94-42.73-4.55-64.54-1.4h0Z"/>
          <path class="cls-2" d="M-82.61,632.22c26.52-16.74,67.51-16.51,98.08-16.14,32.6,1.47,64.27.49,97.32,1.52,22.01.98,44.72,2.45,65.78,9.59-46.73,4.48-92.21,13.46-139.55,11.48-15.51-.52-41.4-3.59-57.09-5.06-21.64-1.94-42.73-4.55-64.54-1.4h0Z"/>
        </g>
        <g>
          <path class="cls-2" d="M-274.55,1396.72c24.11-4.79,48.56-6.32,73.03-6.97,24.46-1.24,48.74,3.7,73.08,4.64,16.24.55,32.47-.34,48.72-2.01,64.86-6.27,130.72-6.2,194.83,6.74,0,0-.06,1.73-.06,1.73-16.24,2.39-32.5,3.61-48.81,4.56-48.65,2.93-97.48,1.28-145.96-3.56-16.2-1.64-32.43-2.53-48.7-1.88-24.33,1.09-48.58,6.22-73.04,5.16-24.54-.48-48.79-1.88-73.09-6.68,0,0,0-1.73,0-1.73h0Z"/>
          <path class="cls-2" d="M16,1123.73c-4.24-4.24-4.92-20.02-11.92-13.23-12.85,12.46-29.36,47.97-33.08,51.98,17.5-134.95,14.68-119.96,25.52-177.67,10.83-57.69,24.11-148.89,18.44-209.25-17.58-5.29-19.44-4.04-36.16-12.4-22.55,54.54-31.64,116.73-39.82,176.32-7.06,51.47-13.03,50.22-18.86,86.17,1.59-36.61-9.99-66.38-9.99-66.38,0,0-14.42-9.91-15.27-1.64-1.24,11.94,13.27,133.12,13.24,145.75-.2,98.29-21.16,219.68-39.06,293.75l54.59,2.87c8.99-61.77,103.48-270.79,92.37-276.26ZM-78.1,1225.33c.38,8.53-.62,16.72-2.38,24.83-2.15,9.93-4.85,19.34-6.59,29.45-2.08,12.05-3.04,32.4-8.87,42.17.2-19.15,1.76-37.55,3.89-56.5,1.12-9.95,3.08-19.49,5.09-29.1,1.58-7.6,4.9-16.02,5.36-23.88l3.48-10.28c.55-.2-.33,15.72.01,23.31ZM-43.29,918.65c1.57-15.86,4.32-31.08,7.12-46.4,2.22-12.11,6.86-25.54,7.51-38.07l4.87-16.4c.77-.31-.46,25.07.02,37.17.53,13.61-.87,26.66-3.33,39.6-3.01,15.84-6.78,30.84-9.23,46.96-2.92,19.21-4.25,51.65-12.41,67.24.28-30.53,2.46-59.87,5.45-90.09ZM-71.7,1137.38c-4.36-6.69-1.8-21.49-1.62-29.36.24-10.82,1.62-21.18,3.31-31.69,2.13-13.27,1.29-40.47,10.42-50.55l.9.27c-3.07,11.6-.94,26.67-2.11,38.88-1.03,10.75-1.92,21.65-3.55,32.19-2.04,13.16-6.32,27.5-7.35,40.26ZM-36.38,1083.42c.53,13.61-.87,26.66-3.33,39.6-3.01,15.84-6.78,30.84-9.23,46.96-2.92,19.21-4.25,51.65-12.41,67.24.28-30.53,2.46-59.87,5.45-90.09,1.57-15.86,4.32-31.08,7.12-46.4,2.22-12.11,6.86-25.54,7.51-38.07l4.88-16.4c.77-.31-.46,25.07.02,37.17Z"/>
          <path class="cls-2" d="M-328.35,472.27c88.15-26.4,182.15-16.81,272.53-15.67,11.94.13,26.59.22,38.62.08,42.01.22,83.22,8.11,124.89,10.26,20.54.97,41.29,1.5,61.21-4.71-4.46,2.76-9.34,4.86-14.3,6.73-35.14,11.75-73.39,10.11-109.78,9.5-20.79-.5-41.62-1.75-61.46-.92-12.9.55-26.39.9-39.39.87-91.38-.48-180.99-13.67-272.32-6.14h0Z"/>
          <path class="cls-2" d="M-226.53,1664.25c26.52-16.74,67.51-16.51,98.08-16.14,32.6,1.47,64.27.49,97.32,1.52,22.01.98,44.72,2.45,65.78,9.59-46.73,4.48-92.21,13.46-139.55,11.48-15.51-.52-41.4-3.59-57.09-5.06-21.64-1.94-42.73-4.55-64.54-1.4h0Z"/>
        </g>
      </g>
    </g>
  </g>
</svg>