<?xml version="1.0" encoding="UTF-8"?>
<svg id="Calque_2" data-name="Calque 2" xmlns="http://www.w3.org/2000/svg" xmlns:xlink="http://www.w3.org/1999/xlink" viewBox="0 0 1920 1920">
  <defs>
    <style>
      .cls-1 {
        fill: none;
      }

      .cls-2 {
        fill: #9e2128;
      }

      .cls-3 {
        fill: #ffc69f;
      }

      .cls-4 {
        clip-path: url(#clippath-1);
      }

      .cls-5 {
        clip-path: url(#clippath-3);
      }

      .cls-6 {
        clip-path: url(#clippath-4);
      }

      .cls-7 {
        clip-path: url(#clippath-2);
      }

      .cls-8 {
        clip-path: url(#clippath);
      }
    </style>
    <clipPath id="clippath">
      <rect class="cls-1" width="1920" height="1920"/>
    </clipPath>
    <clipPath id="clippath-1">
      <rect class="cls-1" x="1090.82" y="-587.22" width="1920" height="1920"/>
    </clipPath>
    <clipPath id="clippath-2">
      <rect class="cls-1" x="1090.82" y="1332.78" width="1920" height="1920"/>
    </clipPath>
    <clipPath id="clippath-3">
      <rect class="cls-1" x="-829.18" y="-587.22" width="1920" height="1920"/>
    </clipPath>
    <clipPath id="clippath-4">
      <rect class="cls-1" x="-829.18" y="1332.78" width="1920" height="1920"/>
    </clipPath>
  </defs>
  <g id="EP9_:_I" data-name="EP9 : I">
    <g class="cls-8">
      <g class="cls-4">
        <g>
          <rect class="cls-2" x="1059.65" y="-619.66" width="1984.86" height="1984.86"/>
          <path class="cls-3" d="M1302.01,716.22c-6.08-3.79-2.15-14.78,3.92-15.85,7.06-1.24,11.45,6.3,9.25,12.05-1.96,5.14-7.79,7.16-13.17,3.81Z"/>
          <path class="cls-3" d="M1333.25,656.58c-6.08-3.79-2.15-14.78,3.92-15.85,7.06-1.24,11.45,6.3,9.25,12.05-1.96,5.14-7.79,7.16-13.17,3.81Z"/>
          <path class="cls-3" d="M1385.95,695.13c-6.08-3.79-2.15-14.78,3.92-15.85,7.06-1.24,11.45,6.3,9.25,12.05-1.96,5.14-7.79,7.16-13.17,3.81Z"/>
          <path class="cls-3" d="M1279.67-336.49c-9.4,7.06-19.82,48.13-16.72,63.67,2.01,10.05,44.25,15.3,73.86,25.92,42.03,15.07,85.27,31.72,125.5,50.86,55.22,26.27,100.85,70.51,153.62,101.87,57.96,34.45,111.54,75.18,168.77,111.76-11.8,18.64-41.11,35.74-55.39,41.58,15.2,5.52,46.87-3.88,61.94-7.31,13.81-3.14,27.76-3.43,41.75-5.21,15.79,8.84,31.98,17.21,48.74,24.88,45.24,20.72,87.62,44.71,130.8,68.46,41.6,22.88,84.63,39,126.41,57.19,8.94-24.85,11.95-57.69,18.04-80.41,6.23-23.23,19.36-16.87-7.97-35.62-13.25-9.09-34.61-15.19-49.07-21.83-30.02-13.8-63.88-19.46-91.64-36.7-25.09-15.58-42.68-38.09-68.41-53.46-28.99-17.32-56.65-42.28-87.89-55.69-24.53-10.54-54.33-10.75-79.3-21.27-42.41-17.88-111-61.79-137.42-98.73-12.55-17.54-17.25-40.84-29.64-58.91-18.87-27.5-46.51-28.35-68.49-49.33,1.55,26.65,43.23,36.68,42.2,65.22-40.21-8.38-75.19-37.3-116.6-46.05-47.88-10.11-93.07-24.6-138.95-40.4-19.31-6.65-26.09-14.08-44.17-.49ZM1977.13,79.36c39.08,17.81,87.08,35.41,113.89,71.81-35.08-19.5-73.19-31.9-108.8-51.18-30.22-16.36-68.98-31.23-94.83-54.18l7.5,1.18c32.29,7.23,51.38,18.31,82.25,32.38ZM1891.16-28.31c11.44,7.84,22.5,15.51,33.11,24.76,7.97,6.94,16.06,13.98,24.85,19.84,6.5,4.33,17.18,6.68,19.51,14.26-9.13-1.87-17.12-9.44-25.75-13.47-10.72-5-35.34-19.3-45.27-25.79-42.5-27.79-66.78-43.11-94.26-57.07,29.69,9.98,60.88,19.01,87.81,37.47ZM1711.85-74.56c24.38,18.03,66.77,44.35,80.94,67.14.21.16.41.31.61.47l.39,1.2c-.31-.55-.66-1.11-1.01-1.67-35.98-27.84-71.8-51.59-108.53-76.76-17.98-12.32-46.75-21.29-59.53-38.41,30.05-.4,63.68,30.68,87.12,48.03ZM1544.06-222.14c36.67,22.58,70.51,51.96,107.69,73.03-15.51.06-30.58-10.28-43.61-18.19-.64-.39-1.28-.77-1.91-1.15-16.39-9.76-32.08-20.62-48.36-30.57-17.25-10.54-34.68-20.8-52.1-31.06-8.78-5.17-17.57-10.34-26.34-15.54-4.43-2.63-8.85-5.26-13.26-7.91-2.31-1.39-4.62-2.78-6.92-4.17-.84-.51-5.08-3.83-5.87-3.56,28.78-9.73,68.21,25.28,90.68,39.11ZM1472.66-209.16c.41.24.71.48.81.7-.27-.23-.54-.47-.81-.7-2.37-1.39-9.08-3.07-10.56-3.68-3.54-1.47-7.04-3.05-10.52-4.66-7.64-3.54-15.13-7.42-22.42-11.63-2.29-1.32-4.51-2.73-6.69-4.19-6.49-4.34-12.65-9.09-19.35-13.12-5.16-3.11-10.7-5.54-16.31-7.72-2.85-1.11-5.73-2.16-8.6-3.2-1.5-.55-3.01-1.09-4.51-1.64-.7-.26-3.15-1.64-3.81-1.42,25.68-8.49,70.59,23.44,102.76,51.27Z"/>
          <path class="cls-3" d="M1759.94,170.92c-.02-.16-.05-.32-.07-.47-.03-.2-.05-.41-.09-.61-.04-.18-.09-.36-.13-.54-.04-.17-.08-.35-.13-.52-.05-.18-.12-.35-.18-.53-.06-.17-.12-.34-.18-.5-.07-.17-.15-.32-.23-.49-.08-.17-.15-.34-.24-.5-.08-.16-.18-.31-.27-.46-.1-.16-.19-.32-.29-.48-.12-.17-.24-.34-.37-.5-.09-.12-.18-.25-.28-.37-.47-.57-.99-1.09-1.56-1.56-.12-.1-.24-.18-.36-.27-.17-.13-.34-.26-.52-.38-.15-.1-.31-.19-.46-.28-.16-.1-.31-.2-.48-.28-.16-.08-.32-.15-.48-.23-.17-.08-.34-.16-.51-.24-.16-.06-.31-.12-.47-.17-.19-.07-.37-.14-.56-.2-.16-.05-.32-.08-.47-.12-.19-.05-.39-.1-.58-.14-.18-.04-.36-.06-.54-.08-.18-.03-.36-.06-.54-.08-.32-.03-.65-.05-.97-.05-.04,0-.08,0-.13,0h-401.51s-.08,0-.13,0c-.32,0-.65.02-.97.05-.18.02-.36.05-.54.08-.18.03-.36.05-.54.08-.2.04-.39.09-.58.14-.16.04-.32.07-.47.12-.19.06-.37.13-.56.2-.16.06-.32.11-.47.17-.17.07-.34.16-.51.24-.16.08-.32.15-.48.23-.16.09-.32.19-.48.28-.15.09-.31.18-.46.28-.18.12-.35.25-.52.38-.12.09-.24.17-.36.27-.57.47-1.09.99-1.56,1.56-.1.12-.19.25-.28.37-.13.17-.25.33-.37.5-.1.16-.19.32-.29.48-.09.15-.19.3-.27.46-.09.16-.16.33-.24.5-.08.16-.16.32-.23.49-.07.17-.12.33-.18.5-.06.18-.13.35-.18.53-.05.17-.09.34-.13.52-.05.18-.1.36-.13.54-.04.2-.06.4-.09.61-.02.16-.05.31-.07.47-.04.37-.06.74-.06,1.11v401.5c0,.37.02.74.06,1.11.02.16.05.32.07.47.03.2.05.41.09.61.04.18.09.36.13.54.04.17.08.35.13.52.05.18.12.35.18.53.06.17.12.34.18.5.07.17.15.32.23.49.08.17.15.34.24.5.08.16.18.31.27.46.1.16.18.32.29.48.12.17.24.34.37.5.09.12.18.25.28.37.47.57.99,1.09,1.56,1.56.12.1.24.18.36.27.17.13.34.26.51.38.15.1.31.19.46.28.16.09.31.19.47.28.16.09.33.16.49.24.17.08.33.16.5.23.16.07.32.12.49.18.18.07.36.13.54.19.16.05.33.09.5.13.19.05.37.1.56.14.19.04.39.06.58.09.17.02.33.06.5.07.37.04.73.06,1.1.06h401.51c.37,0,.73-.02,1.1-.06.17-.02.33-.05.5-.07.19-.03.39-.05.58-.09.19-.04.37-.09.56-.14.17-.04.33-.08.5-.13.18-.06.36-.13.54-.19.16-.06.33-.11.49-.18.17-.07.33-.15.5-.23.16-.08.33-.15.49-.24.16-.09.32-.19.47-.28.16-.09.31-.18.46-.28.18-.12.34-.25.51-.38.12-.09.25-.18.36-.27.57-.47,1.09-.99,1.56-1.56.1-.12.19-.25.28-.37.13-.17.25-.33.37-.5.1-.16.19-.32.29-.48.09-.15.19-.3.27-.46.09-.16.16-.33.24-.5.08-.16.16-.32.23-.49.07-.17.12-.33.18-.5.06-.18.13-.35.18-.53.05-.17.09-.34.13-.52.05-.18.1-.36.13-.54.04-.2.06-.4.09-.61.02-.16.05-.31.07-.47.04-.37.06-.74.06-1.11V172.03c0-.37-.02-.74-.06-1.11ZM1713.7,520.14c.16.01.12.01,0,0h0ZM1713.5,520.12c-.15-.02-.32-.04-.42-.05-.3-.05-.6-.12-.9-.18-.58-.13-1.14-.3-1.7-.5l-22.27-22.27c.19-.02.37-.04.56-.06,2-.2,3.99-.38,5.99-.53,3.94-.29,7.89-.48,11.84-.6,7.97-.24,15.94-.19,23.91-.12,2.39.02,4.77.04,7.16.06v24.4c-4.21-.86-8.69-.61-12.92-.33-2.64.17-5.29.38-7.94.37-1.11,0-2.21-.09-3.31-.18ZM1434.99,243.9c-.12-17.05-1.13-34.09-1.68-51.12-.1-3.2-.19-6.39-.25-9.59h28.64c.02.14.05.27.07.41.06.37.12.74.18,1.11.03.21.11.48.15.75-.02.04-.02.11,0,.25.02.19.05.38.07.57.05.43.1.85.15,1.28.09.81.17,1.63.23,2.44.14,1.65.24,3.31.32,4.97.3,6.83.12,13.68-.15,20.5-.27,6.79-.65,13.59-.78,20.39-.13,6.96.35,13.9.4,20.86.04,4.8-.05,9.61-.13,14.41l-27.22-27.22ZM1426.48,235.4l-24.37-24.37c.09-9.29,1.2-18.7-.86-27.84h23.43c.34,17.41,1.41,34.8,1.79,52.21ZM1470.28,238.18c.12-13.72,1.45-27.41,1.04-41.14-.14-4.62-.48-9.26-1.16-13.85h26.47c.2.91.37,1.82.51,2.74.04.23.06.47.1.71-.01-.06-.02-.12-.03-.17,0,0,0,0,0,.01.05.4.09.8.13,1.21.1,1.07.18,2.14.24,3.21.1,1.96.13,3.92.12,5.87-.05,7.86-.88,15.7-.9,23.56-.01,4.69.38,9.4.63,14.08.28,5.31.55,10.62.71,15.94.17,5.39.23,10.78.08,16.16-.15,5.32-.32,10.61-.12,15.94.32,8.66,1.12,17.3,1.41,25.96l-29.04-29.04c.06-6.58.25-13.16.26-19.74.01-7.16-.5-14.3-.44-21.46ZM1506.63,286.19c-.28-5.45-.4-10.9-.17-16.35.23-5.36.25-10.73.13-16.1-.12-5.43-.37-10.85-.64-16.28-.26-5.07-.65-10.15-.77-15.22-.18-7.71.67-15.42.85-23.13.11-4.84-.03-9.66-.69-14.46-.07-.49-.14-.97-.22-1.46h24.05c.71,2.28,1.25,4.61,1.68,6.96.1.55.2,1.11.28,1.67.05.3.09.6.14.91.01.07.05.34.08.55.02.19.06.46.07.56.04.31.07.62.11.93.07.62.13,1.24.19,1.87.24,2.58.4,5.16.49,7.75.37,9.93-.16,19.87.1,29.8.16,5.99.57,11.98.85,17.97.3,6.44.58,12.87.75,19.31.35,12.97.24,25.96.49,38.93.22,11.18.49,22.35.61,33.53l-27.07-27.07c.19-10.24-.79-20.45-1.31-30.67ZM1543.45,352.36c-.03-12.43-.32-24.86-.58-37.29-.14-6.58-.26-13.16-.32-19.74-.06-6.52-.02-13.05-.16-19.57-.26-12.97-1-25.92-1.61-38.88-.47-9.86.11-19.74-.11-29.61-.12-5.4-.48-10.77-1.23-16.12-.37-2.67-.87-5.34-1.56-7.96h27.64c.09.61.18,1.22.27,1.82.05.33.1.66.14.99-.13-1.1,0,.03.03.21.19,1.44.36,2.88.52,4.32.62,5.55,1.03,11.12,1.32,16.7.57,11.09.6,22.2.59,33.31-.02,11.2-.09,22.41.27,33.61.33,10.22.81,20.44,1.2,30.66.37,9.88.7,19.76.77,29.64l-22.53,22.53-4.63-4.63ZM1633.37,183.19c.01.15.03.31.04.46.07.82.1,1.64.12,2.46.08,3.21-.1,6.43-.25,9.63-.16,3.25-.24,6.49-.1,9.75.17,4.06.55,8.11.93,12.15.37,3.98.73,7.97.88,11.96.15,4.02-.02,8.02-.22,12.03-.2,4.03-.45,8.05-.59,12.08-.14,4.03-.12,8.06-.12,12.1v5.21l-24.95,24.95c-.08-.96-.14-1.92-.19-2.88-.19-4.33-.06-8.67.17-13,.22-4.36.55-8.72.76-13.08.2-4.2.2-8.37.06-12.57-.34-9.99.21-19.98.56-29.97.16-4.7.35-9.42.23-14.13-.09-3.81-.42-7.61-.76-11.4-.4-4.4-.85-8.79-1.14-13.2-.06-.84-.11-1.69-.15-2.54h24.72ZM1696.1,203.74c.13,1.64.24,3.27.32,4.91l-21.45,21.45c0-.42-.01-.84-.01-1.25,0-4.55.3-9.1.6-13.64.62-9.31,1.42-18.76-.12-28.02-.23-1.36-.54-2.69-.93-3.99h20.44c-.3,6.85.63,13.85,1.16,20.55ZM1722.12,361.43c-8.37-.45-16.77-.37-25.14-.87-14.37-.86-28.75-1.35-43.14-1.62-14.38-.27-28.76-.33-43.15-.31-10.93.01-21.86.06-32.79.1l29.22-29.22c16.13-.11,32.26.71,48.36,1.74,9.56.61,19.12,1.3,28.69,1.91,9.2.59,18.42,1.23,27.64,1.24,4.91,0,9.83-.07,14.74.12,2.44.1,4.88.26,7.31.55.08,0,1.06.11.33.04-.71-.07.5.07.62.09.58.09,1.16.19,1.74.29.37.07.74.15,1.11.22v27.47c-.57-.12-1.14-.24-1.72-.34-4.56-.8-9.2-1.18-13.83-1.43ZM1681.15,255.5c3.86,1.17,7.91,1.75,11.92,2.12,5.04.47,10.11.53,15.17.55,4.82.02,9.64-.03,14.45.28,3.51.22,7.03.16,10.55.35,1.12.06,2.24.14,3.35.25.22.02.43.05.65.07.14.02.29.05.43.08v29.73c-2.29-.32-4.61-.53-6.92-.67-5.02-.3-10.06-.28-15.06-.73-16.08-1.46-32.22-1.82-48.35-2.37-5.08-.17-10.16-.37-15.23-.62l29.04-29.04ZM1644.18,292.46c14.55.93,29.14,1.2,43.71,1.76,8.01.31,16.01.7,24,1.35,2.75.22,5.5.49,8.26.61,2.59.11,5.18.19,7.78.3,1.52.07,3.03.15,4.55.26.71.05,1.41.11,2.12.18.36.04.71.07,1.07.11.19.02.61.08.77.11.41.07.82.13,1.23.21v29.86c-7.26-1.25-14.74-1.21-22.08-1.19-9.18.03-18.32-.43-27.49-.99-19.3-1.19-38.57-2.77-57.9-3.51-4.9-.19-9.8-.32-14.71-.38l28.69-28.69ZM1737.67,250.79c-.47-.05-.93-.1-1.4-.15-3.84-.38-7.71-.35-11.56-.47-4.42-.14-8.82-.35-13.24-.37-5.21-.02-10.42,0-15.61-.34-1.44-.09-2.87-.22-4.3-.38-.27-.03-.54-.06-.81-.1.05,0,.1.02.16.03-.1-.02-.19-.03-.29-.04,0,0,0,0-.01,0-.05,0-.11-.01-.16-.02-.02,0-.05,0-.07,0-.66-.1-1.32-.2-1.98-.32-.1-.02-.2-.04-.3-.06l20.89-20.89c9.56-.45,19.13-1.78,28.69-1.02v24.14ZM1665.67,183.19c.02.05.06.13.09.21.05.12.1.24.12.3.72,1.91,1.19,3.9,1.51,5.92.03.2.06.4.09.59.06.56.13,1.12.18,1.69.1,1.15.17,2.31.22,3.47.09,2.4.07,4.81,0,7.21-.29,9.81-1.64,19.62-1.24,29.44.08,1.96.25,3.93.54,5.88l-24.77,24.77c0-2.08.01-4.15.06-6.23.09-4.04.32-8.08.53-12.11.21-4,.46-8,.42-12.01-.04-4.06-.35-8.11-.71-12.15-.67-7.47-1.47-14.94-1.15-22.45.16-3.6.4-7.2.36-10.81-.01-1.22-.05-2.47-.15-3.71h23.89ZM1600.34,184.33c.22,3.96.61,7.91.97,11.86.36,3.89.73,7.79.92,11.7.21,4.38.1,8.77-.03,13.15-.29,10-.9,20-.75,30.01.07,4.41.3,8.8.14,13.21-.15,4.38-.47,8.75-.73,13.12-.5,8.58-.92,17.48.88,25.95l-22.86,22.86c-.31-16.19-1.14-32.38-1.75-48.56-.84-22.34.11-44.7-.82-67.04-.38-9.16-1.12-18.32-2.4-27.4h26.37c.02.38.04.77.06,1.15ZM1569.52,367.12c11.83-.02,23.66-.08,35.49-.1,14.27-.03,28.54-.01,42.8.2,14.23.21,28.46.62,42.67,1.36,4.78.25,9.55.59,14.33.7,4.29.1,8.57.17,12.86.33,4.46.16,8.92.4,13.35.93.22.03.45.05.67.08.47.07.94.14,1.4.21.91.15,1.82.32,2.71.52.63.14,1.25.3,1.87.48v35.91c-17.92-.19-35.82-1.29-53.69-2.66-19.53-1.5-39.04-3.3-58.59-4.54-11.08-.7-22.17-1.22-33.27-1.4-.55,0-1.08.11-1.59.32l-26.67-26.67,5.65-5.65ZM1651.31,410.8c19.5,1.57,38.99,3.32,58.53,4.37,9.27.5,18.54.83,27.82.93v33.01c-11.76.05-23.51.18-35.27.17-14.94,0-29.88-.21-44.8-1.04-6.62-.37-13.24-.88-19.84-1.57l-39.02-39.02c17.55.5,35.07,1.74,52.58,3.15ZM1677.19,457.38c14.81.36,29.63.3,44.44.2,5.34-.04,10.69-.07,16.03-.09v30.01c-13.96-.09-27.94-.38-41.88.59-4.84.34-9.66.85-14.46,1.51-.16.02-.33.08-.5.15l-33.84-33.84c10.05.8,20.13,1.24,30.21,1.48ZM1737.67,218.26c-1.92-.14-3.85-.19-5.78-.2-4.65,0-9.29.29-13.92.61l19.7-19.7v19.29ZM1704.24,200.82c-.52-5.87-1.13-11.74-.87-17.64h18.5l-17.64,17.64ZM1392.79,183.19c0,.36.04.74.13,1.11.29,1.13.53,2.27.71,3.42,0,.04.03.19.05.34.02.14.06.45.07.52.07.62.13,1.23.18,1.85.19,2.4.23,4.82.2,7.23-.02,1.75-.08,3.49-.15,5.24l-19.71-19.71h18.52ZM1358.49,198.98l173.8,173.8-173.8,173.8V198.98ZM1374.28,562.37l173.8-173.8,173.8,173.8h-347.6ZM1719.71,528.62c1.52-.07,3.02-.19,4.49-.28,2.68-.18,5.36-.35,8.04-.26.69.02,1.38.06,2.07.13.3.03,1.5.24.15,0,.25.04.5.07.74.12.83.14,1.65.34,2.46.59v17.66l-17.95-17.95Z"/>
          <path class="cls-3" d="M1785.77,862.59c-.02-.16-.05-.32-.07-.47-.03-.2-.05-.41-.09-.61-.04-.18-.09-.36-.13-.54-.04-.17-.08-.35-.13-.52-.05-.18-.12-.35-.18-.53-.06-.17-.12-.34-.18-.5-.07-.17-.15-.32-.23-.49-.08-.17-.15-.34-.24-.5-.08-.16-.18-.31-.27-.46-.1-.16-.19-.32-.29-.48-.12-.17-.24-.34-.37-.5-.09-.12-.18-.25-.28-.37-.47-.57-.99-1.09-1.56-1.56-.12-.1-.24-.18-.36-.27-.17-.13-.34-.26-.52-.38-.15-.1-.31-.19-.46-.28-.16-.1-.31-.2-.48-.28-.16-.08-.32-.15-.48-.23-.17-.08-.34-.16-.51-.24-.16-.06-.31-.12-.47-.17-.19-.07-.37-.14-.56-.2-.16-.05-.32-.08-.47-.12-.19-.05-.39-.1-.58-.14-.18-.04-.36-.06-.54-.08-.18-.03-.36-.06-.54-.08-.32-.03-.65-.05-.97-.05-.04,0-.08,0-.13,0h-401.51s-.08,0-.13,0c-.32,0-.65.02-.97.05-.18.02-.36.05-.54.08-.18.03-.36.05-.54.08-.2.04-.39.09-.58.14-.16.04-.32.07-.47.12-.19.06-.37.13-.56.2-.16.06-.32.11-.47.17-.17.07-.34.16-.51.24-.16.08-.32.15-.48.23-.16.09-.32.19-.48.28-.15.09-.31.18-.46.28-.18.12-.35.25-.52.38-.12.09-.24.17-.36.27-.57.47-1.09.99-1.56,1.56-.1.12-.19.25-.28.37-.13.17-.25.33-.37.5-.1.16-.19.32-.29.48-.09.15-.19.3-.27.46-.09.16-.16.33-.24.5-.08.16-.16.32-.23.49-.07.17-.12.33-.18.5-.06.18-.13.35-.18.53-.05.17-.09.34-.13.52-.05.18-.1.36-.13.54-.04.2-.06.4-.09.61-.02.16-.05.31-.07.47-.04.37-.06.74-.06,1.11v401.5c0,.37.02.74.06,1.11.02.16.05.32.07.47.03.2.05.41.09.61.04.18.09.36.13.54.04.17.08.35.13.52.05.18.12.35.18.53.06.17.12.34.18.5.07.17.15.32.23.49.08.17.15.34.24.5.08.16.18.31.27.46.1.16.18.32.29.48.12.17.24.34.37.5.09.12.18.25.28.37.47.57.99,1.09,1.56,1.56.12.1.24.18.36.27.17.13.34.26.51.38.15.1.31.19.46.28.16.09.31.19.47.28.16.09.33.16.49.24.17.08.33.16.5.23.16.07.32.12.49.18.18.07.36.13.54.19.16.05.33.09.5.13.19.05.37.1.56.14.19.04.39.06.58.09.17.02.33.06.5.07.37.04.73.06,1.1.06h401.51c.37,0,.73-.02,1.1-.06.17-.02.33-.05.5-.07.19-.03.39-.05.58-.09.19-.04.37-.09.56-.14.17-.04.33-.08.5-.13.18-.06.36-.13.54-.19.16-.06.33-.11.49-.18.17-.07.33-.15.5-.23.16-.08.33-.15.49-.24.16-.09.32-.19.47-.28.16-.09.31-.18.46-.28.18-.12.34-.25.51-.38.12-.09.25-.18.36-.27.57-.47,1.09-.99,1.56-1.56.1-.12.19-.25.28-.37.13-.17.25-.33.37-.5.1-.16.19-.32.29-.48.09-.15.19-.3.27-.46.09-.16.16-.33.24-.5.08-.16.16-.32.23-.49.07-.17.12-.33.18-.5.06-.18.13-.35.18-.53.05-.17.09-.34.13-.52.05-.18.1-.36.13-.54.04-.2.06-.4.09-.61.02-.16.05-.31.07-.47.04-.37.06-.74.06-1.11v-401.5c0-.37-.02-.74-.06-1.11ZM1739.53,1211.81c.16.01.12.01,0,0h0ZM1739.33,1211.79c-.15-.02-.32-.04-.42-.05-.3-.05-.6-.12-.9-.18-.58-.13-1.14-.3-1.7-.5l-22.27-22.27c.19-.02.37-.04.56-.06,2-.2,3.99-.38,5.99-.53,3.94-.29,7.89-.48,11.84-.6,7.97-.24,15.94-.19,23.91-.12,2.39.02,4.77.04,7.16.06v24.4c-4.21-.86-8.69-.61-12.92-.33-2.64.17-5.29.38-7.94.37-1.11,0-2.21-.09-3.31-.18ZM1460.82,935.57c-.12-17.05-1.13-34.09-1.68-51.12-.1-3.2-.19-6.39-.25-9.59h28.64c.02.14.05.27.07.41.06.37.12.74.18,1.11.03.21.11.48.15.75-.02.04-.02.11,0,.25.02.19.05.38.07.57.05.43.1.85.15,1.28.09.81.17,1.63.23,2.44.14,1.65.24,3.31.32,4.97.3,6.83.12,13.68-.15,20.5-.27,6.79-.65,13.59-.78,20.39-.13,6.96.35,13.9.4,20.86.04,4.8-.05,9.61-.13,14.41l-27.22-27.22ZM1452.31,927.06l-24.37-24.37c.09-9.29,1.2-18.7-.86-27.84h23.43c.34,17.41,1.41,34.8,1.79,52.21ZM1496.11,929.84c.12-13.72,1.45-27.41,1.04-41.14-.14-4.62-.48-9.26-1.16-13.85h26.47c.2.91.37,1.82.51,2.74.04.23.06.47.1.71-.01-.06-.02-.12-.03-.17,0,0,0,0,0,.01.05.4.09.8.13,1.21.1,1.07.18,2.14.24,3.21.1,1.96.13,3.92.12,5.87-.05,7.86-.88,15.7-.9,23.56-.01,4.69.38,9.4.63,14.08.28,5.31.55,10.62.71,15.94.17,5.39.23,10.78.08,16.16-.15,5.32-.32,10.61-.12,15.94.32,8.66,1.12,17.3,1.41,25.96l-29.04-29.04c.06-6.58.25-13.16.26-19.74.01-7.16-.5-14.3-.44-21.46ZM1532.46,977.85c-.28-5.45-.4-10.9-.17-16.35.23-5.36.25-10.73.13-16.1-.12-5.43-.37-10.85-.64-16.28-.26-5.07-.65-10.15-.77-15.22-.18-7.71.67-15.42.85-23.13.11-4.84-.03-9.66-.69-14.46-.07-.49-.14-.97-.22-1.46h24.05c.71,2.28,1.25,4.61,1.68,6.96.1.55.2,1.11.28,1.67.05.3.09.6.14.91.01.07.05.34.08.55.02.19.06.46.07.56.04.31.07.62.11.93.07.62.13,1.24.19,1.87.24,2.58.4,5.16.49,7.75.37,9.93-.16,19.87.1,29.8.16,5.99.57,11.98.85,17.97.3,6.44.58,12.87.75,19.31.35,12.97.24,25.96.49,38.93.22,11.18.49,22.35.61,33.53l-27.07-27.07c.19-10.24-.79-20.45-1.31-30.67ZM1569.28,1044.03c-.03-12.43-.32-24.86-.58-37.29-.14-6.58-.26-13.16-.32-19.74-.06-6.52-.02-13.05-.16-19.57-.26-12.97-1-25.92-1.61-38.88-.47-9.86.11-19.74-.11-29.61-.12-5.4-.48-10.77-1.23-16.12-.37-2.67-.87-5.34-1.56-7.96h27.64c.09.61.18,1.22.27,1.82.05.33.1.66.14.99-.13-1.1,0,.03.03.21.19,1.44.36,2.88.52,4.32.62,5.55,1.03,11.12,1.32,16.7.57,11.09.6,22.2.59,33.31-.02,11.2-.09,22.41.27,33.61.33,10.22.81,20.44,1.2,30.66.37,9.88.7,19.76.77,29.64l-22.53,22.53-4.63-4.63ZM1659.2,874.85c.01.15.03.31.04.46.07.82.1,1.64.12,2.46.08,3.21-.1,6.43-.25,9.63-.16,3.25-.24,6.49-.1,9.75.17,4.06.55,8.11.93,12.15.37,3.98.73,7.97.88,11.96.15,4.02-.02,8.02-.22,12.03-.2,4.03-.45,8.05-.59,12.08-.14,4.03-.12,8.06-.12,12.1v5.21l-24.95,24.95c-.08-.96-.14-1.92-.19-2.88-.19-4.33-.06-8.67.17-13,.22-4.36.55-8.72.76-13.08.2-4.2.2-8.37.06-12.57-.34-9.99.21-19.98.56-29.97.16-4.7.35-9.42.23-14.13-.09-3.81-.42-7.61-.76-11.4-.4-4.4-.85-8.79-1.14-13.2-.06-.84-.11-1.69-.15-2.54h24.72ZM1721.93,895.4c.13,1.64.24,3.27.32,4.91l-21.45,21.45c0-.42-.01-.84-.01-1.25,0-4.55.3-9.1.6-13.64.62-9.31,1.42-18.76-.12-28.02-.23-1.36-.54-2.69-.93-3.99h20.44c-.3,6.85.63,13.85,1.16,20.55ZM1747.95,1053.1c-8.37-.45-16.77-.37-25.14-.87-14.37-.86-28.75-1.35-43.14-1.62-14.38-.27-28.76-.33-43.15-.31-10.93.01-21.86.06-32.79.1l29.22-29.22c16.13-.11,32.26.71,48.36,1.74,9.56.61,19.12,1.3,28.69,1.91,9.2.59,18.42,1.23,27.64,1.24,4.91,0,9.83-.07,14.74.12,2.44.1,4.88.26,7.31.55.08,0,1.06.11.33.04-.71-.07.5.07.62.09.58.09,1.16.19,1.74.29.37.07.74.15,1.11.22v27.47c-.57-.12-1.14-.24-1.72-.34-4.56-.8-9.2-1.18-13.83-1.43ZM1706.98,947.16c3.86,1.17,7.91,1.75,11.92,2.12,5.04.47,10.11.53,15.17.55,4.82.02,9.64-.03,14.45.28,3.51.22,7.03.16,10.55.35,1.12.06,2.24.14,3.35.25.22.02.43.05.65.07.14.02.29.05.43.08v29.73c-2.29-.32-4.61-.53-6.92-.67-5.02-.3-10.06-.28-15.06-.73-16.08-1.46-32.22-1.82-48.35-2.37-5.08-.17-10.16-.37-15.23-.62l29.04-29.04ZM1670.01,984.13c14.55.93,29.14,1.2,43.71,1.76,8.01.31,16.01.7,24,1.35,2.75.22,5.5.49,8.26.61,2.59.11,5.18.19,7.78.3,1.52.07,3.03.15,4.55.26.71.05,1.41.11,2.12.18.36.04.71.07,1.07.11.19.02.61.08.77.11.41.07.82.13,1.23.21v29.86c-7.26-1.25-14.74-1.21-22.08-1.19-9.18.03-18.32-.43-27.49-.99-19.3-1.19-38.57-2.77-57.9-3.51-4.9-.19-9.8-.32-14.71-.38l28.69-28.69ZM1763.5,942.46c-.47-.05-.93-.1-1.4-.15-3.84-.38-7.71-.35-11.56-.47-4.42-.14-8.82-.35-13.24-.37-5.21-.02-10.42,0-15.61-.34-1.44-.09-2.87-.22-4.3-.38-.27-.03-.54-.06-.81-.1.05,0,.1.02.16.03-.1-.02-.19-.03-.29-.04,0,0,0,0-.01,0-.05,0-.11-.01-.16-.02-.02,0-.05,0-.07,0-.66-.1-1.32-.2-1.98-.32-.1-.02-.2-.04-.3-.06l20.89-20.89c9.56-.45,19.13-1.78,28.69-1.02v24.14ZM1691.5,874.85c.02.05.06.13.09.21.05.12.1.24.12.3.72,1.91,1.19,3.9,1.51,5.92.03.2.06.4.09.59.06.56.13,1.12.18,1.69.1,1.15.17,2.31.22,3.47.09,2.4.07,4.81,0,7.21-.29,9.81-1.64,19.62-1.24,29.44.08,1.96.25,3.93.54,5.88l-24.77,24.77c0-2.08.01-4.15.06-6.23.09-4.04.32-8.08.53-12.11.21-4,.46-8,.42-12.01-.04-4.06-.35-8.11-.71-12.15-.67-7.47-1.47-14.94-1.15-22.45.16-3.6.4-7.2.36-10.81-.01-1.22-.05-2.47-.15-3.71h23.89ZM1626.17,876c.22,3.96.61,7.91.97,11.86.36,3.89.73,7.79.92,11.7.21,4.38.1,8.77-.03,13.15-.29,10-.9,20-.75,30.01.07,4.41.3,8.8.14,13.21-.15,4.38-.47,8.75-.73,13.12-.5,8.58-.92,17.48.88,25.95l-22.86,22.86c-.31-16.19-1.14-32.38-1.75-48.56-.84-22.34.11-44.7-.82-67.04-.38-9.16-1.12-18.32-2.4-27.4h26.37c.02.38.04.77.06,1.15ZM1595.35,1058.79c11.83-.02,23.66-.08,35.49-.1,14.27-.03,28.54-.01,42.8.2,14.23.21,28.46.62,42.67,1.36,4.78.25,9.55.59,14.33.7,4.29.1,8.57.17,12.86.33,4.46.16,8.92.4,13.35.93.22.03.45.05.67.08.47.07.94.14,1.4.21.91.15,1.82.32,2.71.52.63.14,1.25.3,1.87.48v35.91c-17.92-.19-35.82-1.29-53.69-2.66-19.53-1.5-39.04-3.3-58.59-4.54-11.08-.7-22.17-1.22-33.27-1.4-.55,0-1.08.11-1.59.32l-26.67-26.67,5.65-5.65ZM1677.14,1102.47c19.5,1.57,38.99,3.32,58.53,4.37,9.27.5,18.54.83,27.82.93v33.01c-11.76.05-23.51.18-35.27.17-14.94,0-29.88-.21-44.8-1.04-6.62-.37-13.24-.88-19.84-1.57l-39.02-39.02c17.55.5,35.07,1.74,52.58,3.15ZM1703.02,1149.05c14.81.36,29.63.3,44.44.2,5.34-.04,10.69-.07,16.03-.09v30.01c-13.96-.09-27.94-.38-41.88.59-4.84.34-9.66.85-14.46,1.51-.16.02-.33.08-.5.15l-33.84-33.84c10.05.8,20.13,1.24,30.21,1.48ZM1763.5,909.93c-1.92-.14-3.85-.19-5.78-.2-4.65,0-9.29.29-13.92.61l19.7-19.7v19.29ZM1730.07,892.49c-.52-5.87-1.13-11.74-.87-17.64h18.5l-17.64,17.64ZM1418.62,874.85c0,.36.04.74.13,1.11.29,1.13.53,2.27.71,3.42,0,.04.03.19.05.34.02.14.06.45.07.52.07.62.13,1.23.18,1.85.19,2.4.23,4.82.2,7.23-.02,1.75-.08,3.49-.15,5.24l-19.71-19.71h18.52ZM1384.32,890.64l173.8,173.8-173.8,173.8v-347.6ZM1400.11,1254.03l173.8-173.8,173.8,173.8h-347.6ZM1745.54,1220.29c1.52-.07,3.02-.19,4.49-.28,2.68-.18,5.36-.35,8.04-.26.69.02,1.38.06,2.07.13.3.03,1.5.24.15,0,.25.04.5.07.74.12.83.14,1.65.34,2.46.59v17.66l-17.95-17.95Z"/>
          <path class="cls-3" d="M1431.15,12.9c-2.78,6.61-14.25,4.47-16.27-1.35-2.35-6.77,4.41-12.3,10.43-11.05,5.38,1.12,8.31,6.55,5.85,12.4Z"/>
        </g>
        <g>
          <rect class="cls-2" x="-860.35" y="-619.66" width="1984.86" height="1984.86"/>
          <path class="cls-3" d="M1259.55,656.28c-1.76-11.62-32.98-40.27-48.14-44.9-9.8-2.99-34.45,31.71-57.83,52.75-33.19,29.86-68.35,60.04-104.28,86.4-49.31,36.17-109.89,55.37-162.52,86.97-57.81,34.7-119.07,62.58-178.41,95.63-10.82-19.22-11.98-53.14-10.35-68.48-12.06,10.77-18.8,43.1-22.93,58-3.78,13.65-10.14,26.07-15.21,39.23-15.27,9.71-30.31,20-45.01,31.12-39.69,30.01-80.9,55.95-122.28,82.72-39.87,25.79-74.45,56.03-110.28,84.19,17.64,19.65,45.13,37.87,62.25,54.01,17.5,16.49,5.67,25.05,35.14,9.86,14.28-7.36,29.78-23.28,42.48-32.86,26.38-19.89,47.41-47.02,75.75-63.29,25.61-14.71,53.77-19.52,79.5-34.89,29-17.32,64.08-29.84,90.7-50.99,20.91-16.61,35.22-42.75,56.32-59.74,35.84-28.87,107.02-68.44,152.07-74.2,21.39-2.73,44.14,4.18,65.92,1.83,33.16-3.58,47.01-27.51,75.9-36.92-24.2-11.27-52.8,20.68-77.44,6.24,26.44-31.43,68.49-48.52,95.83-80.84,31.6-37.37,65.78-70.29,101.44-103.19,15.01-13.85,24.76-16.3,21.37-38.65ZM562.77,1073.27c-34.2,25.96-72.46,59.89-117.22,66.24,33.8-21.64,62.79-49.32,96.64-71.54,28.74-18.85,60.2-45.94,92.66-57.81l-4.59,6.04c-21.67,25.01-40.48,36.56-67.5,57.07ZM698.33,1048.61c-12.33,6.36-24.33,12.45-37.5,17.42-9.89,3.72-19.92,7.51-29.25,12.48-6.89,3.67-14.02,11.96-21.81,10.42,5.97-7.15,16.43-10.59,24.07-16.29,9.48-7.07,33.74-21.97,44.17-27.63,44.61-24.25,69.62-38.37,94.93-55.94-22.86,21.41-45.6,44.59-74.61,59.55ZM824.04,912.66c-27.43,12.91-70.7,37.77-97.49,39.44-.24.11-.47.21-.71.32l-1.24-.22c.64-.01,1.29-.05,1.95-.09,41.56-18.48,79.46-38.76,119.03-59.17,19.38-9.99,40.91-31.07,62.04-34.21-13.9,26.65-57.2,41.52-83.59,53.94ZM1033.53,834.87c-37.26,21.58-79.18,37.45-115.35,60.2,7.3-13.69,23.55-22.05,36.69-29.78.65-.38,1.28-.76,1.91-1.13,16.36-9.81,33.37-18.47,49.84-28.09,17.46-10.19,34.75-20.67,52.04-31.15,8.72-5.28,17.43-10.57,26.17-15.82,4.41-2.65,8.83-5.3,13.25-7.93,2.32-1.38,4.63-2.75,6.95-4.12.84-.5,5.78-2.66,5.92-3.48-5.07,29.95-54.59,48.08-77.42,61.3ZM1055.95,765.85c-.41.25-.76.4-1,.38.33-.13.67-.25,1-.38,2.35-1.42,7-6.54,8.25-7.55,2.97-2.42,6.02-4.75,9.09-7.05,6.74-5.05,13.7-9.8,20.87-14.23,2.25-1.39,4.54-2.68,6.86-3.91,6.89-3.66,14-6.83,20.73-10.81,5.19-3.07,9.95-6.8,14.53-10.7,2.33-1.98,4.61-4.02,6.9-6.06,1.19-1.06,2.39-2.13,3.58-3.19.56-.49,2.94-2,3.06-2.68-4.7,26.63-54.11,51.04-93.86,66.18Z"/>
          <path class="cls-3" d="M1135.53-349.93c-.02-.16-.05-.32-.07-.47-.03-.2-.05-.41-.09-.61-.04-.18-.09-.36-.13-.54-.04-.17-.08-.35-.13-.52-.05-.18-.12-.35-.18-.53-.06-.17-.12-.34-.18-.5-.07-.17-.15-.32-.23-.49-.08-.17-.15-.34-.24-.5-.08-.16-.18-.31-.27-.46-.1-.16-.19-.32-.29-.48-.12-.17-.24-.34-.37-.5-.09-.12-.18-.25-.28-.37-.47-.57-.99-1.09-1.56-1.56-.12-.1-.24-.18-.36-.27-.17-.13-.34-.26-.52-.38-.15-.1-.31-.19-.46-.28-.16-.1-.31-.2-.48-.28-.16-.08-.32-.15-.48-.23-.17-.08-.34-.16-.51-.24-.16-.06-.31-.12-.47-.17-.19-.07-.37-.14-.56-.2-.16-.05-.32-.08-.47-.12-.19-.05-.39-.1-.58-.14-.18-.04-.36-.06-.54-.08-.18-.03-.36-.06-.54-.08-.32-.03-.65-.05-.97-.05-.04,0-.08,0-.13,0h-401.51s-.08,0-.13,0c-.32,0-.65.02-.97.05-.18.02-.36.05-.54.08-.18.03-.36.05-.54.08-.2.04-.39.09-.58.14-.16.04-.32.07-.47.12-.19.06-.37.13-.56.2-.16.06-.32.11-.47.17-.17.07-.34.16-.51.24-.16.08-.32.15-.48.23-.16.09-.32.19-.48.28-.15.09-.31.18-.46.28-.18.12-.35.25-.52.38-.12.09-.24.17-.36.27-.57.47-1.09.99-1.56,1.56-.1.12-.19.25-.28.37-.13.17-.25.33-.37.5-.1.16-.19.32-.29.48-.09.15-.19.3-.27.46-.09.16-.16.33-.24.5-.08.16-.16.32-.23.49-.07.17-.12.33-.18.5-.06.18-.13.35-.18.53-.05.17-.09.34-.13.52-.05.18-.1.36-.13.54-.04.2-.06.4-.09.61-.02.16-.05.31-.07.47-.04.37-.06.74-.06,1.11V52.67c0,.37.02.74.06,1.11.02.16.05.32.07.47.03.2.05.41.09.61.04.18.09.36.13.54.04.17.08.35.13.52.05.18.12.35.18.53.06.17.12.34.18.5.07.17.15.32.23.49.08.17.15.34.24.5.08.16.18.31.27.46.1.16.18.32.29.48.12.17.24.34.37.5.09.12.18.25.28.37.47.57.99,1.09,1.56,1.56.12.1.24.18.36.27.17.13.34.26.51.38.15.1.31.19.46.28.16.09.31.19.47.28.16.09.33.16.49.24.17.08.33.16.5.23.16.07.32.12.49.18.18.07.36.13.54.19.16.05.33.09.5.13.19.05.37.1.56.14.19.04.39.06.58.09.17.02.33.06.5.07.37.04.73.06,1.1.06h401.51c.37,0,.73-.02,1.1-.06.17-.02.33-.05.5-.07.19-.03.39-.05.58-.09.19-.04.37-.09.56-.14.17-.04.33-.08.5-.13.18-.06.36-.13.54-.19.16-.06.33-.11.49-.18.17-.07.33-.15.5-.23.16-.08.33-.15.49-.24.16-.09.32-.19.47-.28.16-.09.31-.18.46-.28.18-.12.34-.25.51-.38.12-.09.25-.18.36-.27.57-.47,1.09-.99,1.56-1.56.1-.12.19-.25.28-.37.13-.17.25-.33.37-.5.1-.16.19-.32.29-.48.09-.15.19-.3.27-.46.09-.16.16-.33.24-.5.08-.16.16-.32.23-.49.07-.17.12-.33.18-.5.06-.18.13-.35.18-.53.05-.17.09-.34.13-.52.05-.18.1-.36.13-.54.04-.2.06-.4.09-.61.02-.16.05-.31.07-.47.04-.37.06-.74.06-1.11v-401.5c0-.37-.02-.74-.06-1.11ZM1089.29-.72c.16.01.12.01,0,0h0ZM1089.09-.74c-.15-.02-.32-.04-.42-.05-.3-.05-.6-.12-.9-.18-.58-.13-1.14-.3-1.7-.5l-22.27-22.27c.19-.02.37-.04.56-.06,2-.2,3.99-.38,5.99-.53,3.94-.29,7.89-.48,11.84-.6,7.97-.24,15.94-.19,23.91-.12,2.39.02,4.77.04,7.16.06V-.59c-4.21-.86-8.69-.61-12.92-.33-2.64.17-5.29.38-7.94.37-1.11,0-2.21-.09-3.31-.18ZM810.59-276.95c-.12-17.05-1.13-34.09-1.68-51.12-.1-3.2-.19-6.39-.25-9.59h28.64c.02.14.05.27.07.41.06.37.12.74.18,1.11.03.21.11.48.15.75-.02.04-.02.11,0,.25.02.19.05.38.07.57.05.43.1.85.15,1.28.09.81.17,1.63.23,2.44.14,1.65.24,3.31.32,4.97.3,6.83.12,13.68-.15,20.5-.27,6.79-.65,13.59-.78,20.39-.13,6.96.35,13.9.4,20.86.04,4.8-.05,9.61-.13,14.41l-27.22-27.22ZM802.08-285.46l-24.37-24.37c.09-9.29,1.2-18.7-.86-27.84h23.43c.34,17.41,1.41,34.8,1.79,52.21ZM845.88-282.68c.12-13.72,1.45-27.41,1.04-41.14-.14-4.62-.48-9.26-1.16-13.85h26.47c.2.91.37,1.82.51,2.74.04.23.06.47.1.71-.01-.06-.02-.12-.03-.17,0,0,0,0,0,.01.05.4.09.8.13,1.21.1,1.07.18,2.14.24,3.21.1,1.96.13,3.92.12,5.87-.05,7.86-.88,15.7-.9,23.56-.01,4.69.38,9.4.63,14.08.28,5.31.55,10.62.71,15.94.17,5.39.23,10.78.08,16.16-.15,5.32-.32,10.61-.12,15.94.32,8.66,1.12,17.3,1.41,25.96l-29.04-29.04c.06-6.58.25-13.16.26-19.74.01-7.16-.5-14.3-.44-21.46ZM882.23-234.67c-.28-5.45-.4-10.9-.17-16.35.23-5.36.25-10.73.13-16.1-.12-5.43-.37-10.85-.64-16.28-.26-5.07-.65-10.15-.77-15.22-.18-7.71.67-15.42.85-23.13.11-4.84-.03-9.66-.69-14.46-.07-.49-.14-.97-.22-1.46h24.05c.71,2.28,1.25,4.61,1.68,6.96.1.55.2,1.11.28,1.67.05.3.09.6.14.91.01.07.05.34.08.55.02.19.06.46.07.56.04.31.07.62.11.93.07.62.13,1.24.19,1.87.24,2.58.4,5.16.49,7.75.37,9.93-.16,19.87.1,29.8.16,5.99.57,11.98.85,17.97.3,6.44.58,12.87.75,19.31.35,12.97.24,25.96.49,38.93.22,11.18.49,22.35.61,33.53l-27.07-27.07c.19-10.24-.79-20.45-1.31-30.67ZM919.04-168.5c-.03-12.43-.32-24.86-.58-37.29-.14-6.58-.26-13.16-.32-19.74-.06-6.52-.02-13.05-.16-19.57-.26-12.97-1-25.92-1.61-38.88-.47-9.86.11-19.74-.11-29.61-.12-5.4-.48-10.77-1.23-16.12-.37-2.67-.87-5.34-1.56-7.96h27.64c.09.61.18,1.22.27,1.82.05.33.1.66.14.99-.13-1.1,0,.03.03.21.19,1.44.36,2.88.52,4.32.62,5.55,1.03,11.12,1.32,16.7.57,11.09.6,22.2.59,33.31-.02,11.2-.09,22.41.27,33.61.33,10.22.81,20.44,1.2,30.66.37,9.88.7,19.76.77,29.64l-22.53,22.53-4.63-4.63ZM1008.96-337.67c.01.15.03.31.04.46.07.82.1,1.64.12,2.46.08,3.21-.1,6.43-.25,9.63-.16,3.25-.24,6.49-.1,9.75.17,4.06.55,8.11.93,12.15.37,3.98.73,7.97.88,11.96.15,4.02-.02,8.02-.22,12.03-.2,4.03-.45,8.05-.59,12.08-.14,4.03-.12,8.06-.12,12.1v5.21l-24.95,24.95c-.08-.96-.14-1.92-.19-2.88-.19-4.33-.06-8.67.17-13,.22-4.36.55-8.72.76-13.08.2-4.2.2-8.37.06-12.57-.34-9.99.21-19.98.56-29.97.16-4.7.35-9.42.23-14.13-.09-3.81-.42-7.61-.76-11.4-.4-4.4-.85-8.79-1.14-13.2-.06-.84-.11-1.69-.15-2.54h24.72ZM1071.69-317.12c.13,1.64.24,3.27.32,4.91l-21.45,21.45c0-.42-.01-.84-.01-1.25,0-4.55.3-9.1.6-13.64.62-9.31,1.42-18.76-.12-28.02-.23-1.36-.54-2.69-.93-3.99h20.44c-.3,6.85.63,13.85,1.16,20.55ZM1097.72-159.43c-8.37-.45-16.77-.37-25.14-.87-14.37-.86-28.75-1.35-43.14-1.62-14.38-.27-28.76-.33-43.15-.31-10.93.01-21.86.06-32.79.1l29.22-29.22c16.13-.11,32.26.71,48.36,1.74,9.56.61,19.12,1.3,28.69,1.91,9.2.59,18.42,1.23,27.64,1.24,4.91,0,9.83-.07,14.74.12,2.44.1,4.88.26,7.31.55.08,0,1.06.11.33.04-.71-.07.5.07.62.09.58.09,1.16.19,1.74.29.37.07.74.15,1.11.22v27.47c-.57-.12-1.14-.24-1.72-.34-4.56-.8-9.2-1.18-13.83-1.43ZM1056.74-265.36c3.86,1.17,7.91,1.75,11.92,2.12,5.04.47,10.11.53,15.17.55,4.82.02,9.64-.03,14.45.28,3.51.22,7.03.16,10.55.35,1.12.06,2.24.14,3.35.25.22.02.43.05.65.07.14.02.29.05.43.08v29.73c-2.29-.32-4.61-.53-6.92-.67-5.02-.3-10.06-.28-15.06-.73-16.08-1.46-32.22-1.82-48.35-2.37-5.08-.17-10.16-.37-15.23-.62l29.04-29.04ZM1019.78-228.4c14.55.93,29.14,1.2,43.71,1.76,8.01.31,16.01.7,24,1.35,2.75.22,5.5.49,8.26.61,2.59.11,5.18.19,7.78.3,1.52.07,3.03.15,4.55.26.71.05,1.41.11,2.12.18.36.04.71.07,1.07.11.19.02.61.08.77.11.41.07.82.13,1.23.21v29.86c-7.26-1.25-14.74-1.21-22.08-1.19-9.18.03-18.32-.43-27.49-.99-19.3-1.19-38.57-2.77-57.9-3.51-4.9-.19-9.8-.32-14.71-.38l28.69-28.69ZM1113.26-270.07c-.47-.05-.93-.1-1.4-.15-3.84-.38-7.71-.35-11.56-.47-4.42-.14-8.82-.35-13.24-.37-5.21-.02-10.42,0-15.61-.34-1.44-.09-2.87-.22-4.3-.38-.27-.03-.54-.06-.81-.1.05,0,.1.02.16.03-.1-.02-.19-.03-.29-.04,0,0,0,0-.01,0-.05,0-.11-.01-.16-.02-.02,0-.05,0-.07,0-.66-.1-1.32-.2-1.98-.32-.1-.02-.2-.04-.3-.06l20.89-20.89c9.56-.45,19.13-1.78,28.69-1.02v24.14ZM1041.26-337.67c.02.05.06.13.09.21.05.12.1.24.12.3.72,1.91,1.19,3.9,1.51,5.92.03.2.06.4.09.59.06.56.13,1.12.18,1.69.1,1.15.17,2.31.22,3.47.09,2.4.07,4.81,0,7.21-.29,9.81-1.64,19.62-1.24,29.44.08,1.96.25,3.93.54,5.88l-24.77,24.77c0-2.08.01-4.15.06-6.23.09-4.04.32-8.08.53-12.11.21-4,.46-8,.42-12.01-.04-4.06-.35-8.11-.71-12.15-.67-7.47-1.47-14.94-1.15-22.45.16-3.6.4-7.2.36-10.81-.01-1.22-.05-2.47-.15-3.71h23.89ZM975.93-336.52c.22,3.96.61,7.91.97,11.86.36,3.89.73,7.79.92,11.7.21,4.38.1,8.77-.03,13.15-.29,10-.9,20-.75,30.01.07,4.41.3,8.8.14,13.21-.15,4.38-.47,8.75-.73,13.12-.5,8.58-.92,17.48.88,25.95l-22.86,22.86c-.31-16.19-1.14-32.38-1.75-48.56-.84-22.34.11-44.7-.82-67.04-.38-9.16-1.12-18.32-2.4-27.4h26.37c.02.38.04.77.06,1.15ZM945.11-153.73c11.83-.02,23.66-.08,35.49-.1,14.27-.03,28.54-.01,42.8.2,14.23.21,28.46.62,42.67,1.36,4.78.25,9.55.59,14.33.7,4.29.1,8.57.17,12.86.33,4.46.16,8.92.4,13.35.93.22.03.45.05.67.08.47.07.94.14,1.4.21.91.15,1.82.32,2.71.52.63.14,1.25.3,1.87.48v35.91c-17.92-.19-35.82-1.29-53.69-2.66-19.53-1.5-39.04-3.3-58.59-4.54-11.08-.7-22.17-1.22-33.27-1.4-.55,0-1.08.11-1.59.32l-26.67-26.67,5.65-5.65ZM1026.91-110.06c19.5,1.57,38.99,3.32,58.53,4.37,9.27.5,18.54.83,27.82.93v33.01c-11.76.05-23.51.18-35.27.17-14.94,0-29.88-.21-44.8-1.04-6.62-.37-13.24-.88-19.84-1.57l-39.02-39.02c17.55.5,35.07,1.74,52.58,3.15ZM1052.79-63.48c14.81.36,29.63.3,44.44.2,5.34-.04,10.69-.07,16.03-.09v30.01c-13.96-.09-27.94-.38-41.88.59-4.84.34-9.66.85-14.46,1.51-.16.02-.33.08-.5.15l-33.84-33.84c10.05.8,20.13,1.24,30.21,1.48ZM1113.26-302.6c-1.92-.14-3.85-.19-5.78-.2-4.65,0-9.29.29-13.92.61l19.7-19.7v19.29ZM1079.84-320.03c-.52-5.87-1.13-11.74-.87-17.64h18.5l-17.64,17.64ZM768.39-337.67c0,.36.04.74.13,1.11.29,1.13.53,2.27.71,3.42,0,.04.03.19.05.34.02.14.06.45.07.52.07.62.13,1.23.18,1.85.19,2.4.23,4.82.2,7.23-.02,1.75-.08,3.49-.15,5.24l-19.71-19.71h18.52ZM734.08-321.88l173.8,173.8L734.08,25.72v-347.6ZM749.87,41.51l173.8-173.8,173.8,173.8h-347.6ZM1095.31,7.77c1.52-.07,3.02-.19,4.49-.28,2.68-.18,5.36-.35,8.04-.26.69.02,1.38.06,2.07.13.3.03,1.5.24.15,0,.25.04.5.07.74.12.83.14,1.65.34,2.46.59v17.66l-17.95-17.95Z"/>
        </g>
        <rect class="cls-2" x="1059.65" y="1300.34" width="1984.86" height="1984.86"/>
        <rect class="cls-2" x="-860.35" y="1300.34" width="1984.86" height="1984.86"/>
      </g>
      <g class="cls-7">
        <rect class="cls-2" x="1059.65" y="-619.66" width="1984.86" height="1984.86"/>
        <rect class="cls-2" x="-860.35" y="-619.66" width="1984.86" height="1984.86"/>
        <g>
          <rect class="cls-2" x="1059.65" y="1300.34" width="1984.86" height="1984.86"/>
          <path class="cls-3" d="M1610.28,1480.72c-6.08,3.79-2.15,14.78,3.92,15.85,7.06,1.24,11.45-6.3,9.25-12.05-1.96-5.14-7.79-7.16-13.17-3.81Z"/>
          <path class="cls-3" d="M1641.52,1540.36c-6.08,3.79-2.15,14.78,3.92,15.85,7.06,1.24,11.45-6.3,9.25-12.05-1.96-5.14-7.79-7.16-13.17-3.81Z"/>
          <path class="cls-3" d="M1694.21,1501.81c-6.08,3.79-2.15,14.78,3.92,15.85,7.06,1.24,11.45-6.3,9.25-12.05-1.96-5.14-7.79-7.16-13.17-3.81Z"/>
          <path class="cls-3" d="M1279.67,1583.51c-9.4,7.06-19.82,48.13-16.72,63.67,2.01,10.05,44.25,15.3,73.86,25.92,42.03,15.07,85.27,31.72,125.5,50.86,55.22,26.27,100.85,70.51,153.62,101.87,57.96,34.45,111.54,75.18,168.77,111.76-11.8,18.64-41.11,35.74-55.39,41.58,15.2,5.52,46.87-3.88,61.94-7.31,13.81-3.14,27.76-3.43,41.75-5.21,15.79,8.84,31.98,17.21,48.74,24.88,45.24,20.72,87.62,44.71,130.8,68.46,41.6,22.88,84.63,39,126.41,57.19,8.94-24.85,11.95-57.69,18.04-80.41,6.23-23.23,19.36-16.87-7.97-35.62-13.25-9.09-34.61-15.19-49.07-21.83-30.02-13.8-63.88-19.46-91.64-36.7-25.09-15.58-42.68-38.09-68.41-53.46-28.99-17.32-56.65-42.28-87.89-55.69-24.53-10.54-54.33-10.75-79.3-21.27-42.41-17.88-111-61.79-137.42-98.73-12.55-17.54-17.25-40.84-29.64-58.91-18.87-27.5-46.51-28.35-68.49-49.33,1.55,26.65,43.23,36.68,42.2,65.22-40.21-8.38-75.19-37.3-116.6-46.05-47.88-10.11-93.07-24.6-138.95-40.4-19.31-6.65-26.09-14.08-44.17-.49ZM1977.13,1999.36c39.08,17.81,87.08,35.41,113.89,71.81-35.08-19.5-73.19-31.9-108.8-51.18-30.22-16.36-68.98-31.23-94.83-54.18l7.5,1.18c32.29,7.23,51.38,18.31,82.25,32.38ZM1891.16,1891.69c11.44,7.84,22.5,15.51,33.11,24.76,7.97,6.94,16.06,13.98,24.85,19.84,6.5,4.33,17.18,6.68,19.51,14.26-9.13-1.87-17.12-9.44-25.75-13.47-10.72-5-35.34-19.3-45.27-25.79-42.5-27.79-66.78-43.11-94.26-57.07,29.69,9.98,60.88,19.01,87.81,37.47ZM1711.85,1845.44c24.38,18.03,66.77,44.35,80.94,67.14.21.16.41.31.61.47l.39,1.2c-.31-.55-.66-1.11-1.01-1.67-35.98-27.84-71.8-51.59-108.53-76.76-17.98-12.32-46.75-21.29-59.53-38.41,30.05-.4,63.68,30.68,87.12,48.03ZM1544.06,1697.86c36.67,22.58,70.51,51.96,107.69,73.03-15.51.06-30.58-10.28-43.61-18.19-.64-.39-1.28-.77-1.91-1.15-16.39-9.76-32.08-20.62-48.36-30.57-17.25-10.54-34.68-20.8-52.1-31.06-8.78-5.17-17.57-10.34-26.34-15.54-4.43-2.63-8.85-5.26-13.26-7.91-2.31-1.39-4.62-2.78-6.92-4.17-.84-.51-5.08-3.83-5.87-3.56,28.78-9.73,68.21,25.28,90.68,39.11ZM1472.66,1710.84c.41.24.71.48.81.7-.27-.23-.54-.47-.81-.7-2.37-1.39-9.08-3.07-10.56-3.68-3.54-1.47-7.04-3.05-10.52-4.66-7.64-3.54-15.13-7.42-22.42-11.63-2.29-1.32-4.51-2.73-6.69-4.19-6.49-4.34-12.65-9.09-19.35-13.12-5.16-3.11-10.7-5.54-16.31-7.72-2.85-1.11-5.73-2.16-8.6-3.2-1.5-.55-3.01-1.09-4.51-1.64-.7-.26-3.15-1.64-3.81-1.42,25.68-8.49,70.59,23.44,102.76,51.27Z"/>
          <path class="cls-3" d="M1367.31,1911.52c-2.78,6.61-14.25,4.47-16.27-1.35-2.35-6.77,4.41-12.3,10.43-11.05,5.38,1.12,8.31,6.55,5.85,12.4Z"/>
          <path class="cls-3" d="M1397,1853.37c-2.78,6.61-14.25,4.47-16.27-1.35-2.35-6.77,4.41-12.3,10.43-11.05,5.38,1.12,8.31,6.55,5.85,12.4Z"/>
        </g>
        <g>
          <rect class="cls-2" x="-860.35" y="1300.34" width="1984.86" height="1984.86"/>
          <path class="cls-3" d="M1135.53,1570.07c-.02-.16-.05-.32-.07-.47-.03-.2-.05-.41-.09-.61-.04-.18-.09-.36-.13-.54-.04-.17-.08-.35-.13-.52-.05-.18-.12-.35-.18-.53-.06-.17-.12-.34-.18-.5-.07-.17-.15-.32-.23-.49-.08-.17-.15-.34-.24-.5-.08-.16-.18-.31-.27-.46-.1-.16-.19-.32-.29-.48-.12-.17-.24-.34-.37-.5-.09-.12-.18-.25-.28-.37-.47-.57-.99-1.09-1.56-1.56-.12-.1-.24-.18-.36-.27-.17-.13-.34-.26-.52-.38-.15-.1-.31-.19-.46-.28-.16-.1-.31-.2-.48-.28-.16-.08-.32-.15-.48-.23-.17-.08-.34-.16-.51-.24-.16-.06-.31-.12-.47-.17-.19-.07-.37-.14-.56-.2-.16-.05-.32-.08-.47-.12-.19-.05-.39-.1-.58-.14-.18-.04-.36-.06-.54-.08-.18-.03-.36-.06-.54-.08-.32-.03-.65-.05-.97-.05-.04,0-.08,0-.13,0h-401.51s-.08,0-.13,0c-.32,0-.65.02-.97.05-.18.02-.36.05-.54.08-.18.03-.36.05-.54.08-.2.04-.39.09-.58.14-.16.04-.32.07-.47.12-.19.06-.37.13-.56.2-.16.06-.32.11-.47.17-.17.07-.34.16-.51.24-.16.08-.32.15-.48.23-.16.09-.32.19-.48.28-.15.09-.31.18-.46.28-.18.12-.35.25-.52.38-.12.09-.24.17-.36.27-.57.47-1.09.99-1.56,1.56-.1.12-.19.25-.28.37-.13.17-.25.33-.37.5-.1.16-.19.32-.29.48-.09.15-.19.3-.27.46-.09.16-.16.33-.24.5-.08.16-.16.32-.23.49-.07.17-.12.33-.18.5-.06.18-.13.35-.18.53-.05.17-.09.34-.13.52-.05.18-.1.36-.13.54-.04.2-.06.4-.09.61-.02.16-.05.31-.07.47-.04.37-.06.74-.06,1.11v401.5c0,.37.02.74.06,1.11.02.16.05.32.07.47.03.2.05.41.09.61.04.18.09.36.13.54.04.17.08.35.13.52.05.18.12.35.18.53.06.17.12.34.18.5.07.17.15.32.23.49.08.17.15.34.24.5.08.16.18.31.27.46.1.16.18.32.29.48.12.17.24.34.37.5.09.12.18.25.28.37.47.57.99,1.09,1.56,1.56.12.1.24.18.36.27.17.13.34.26.51.38.15.1.31.19.46.28.16.09.31.19.47.28.16.09.33.16.49.24.17.08.33.16.5.23.16.07.32.12.49.18.18.07.36.13.54.19.16.05.33.09.5.13.19.05.37.1.56.14.19.04.39.06.58.09.17.02.33.06.5.07.37.04.73.06,1.1.06h401.51c.37,0,.73-.02,1.1-.06.17-.02.33-.05.5-.07.19-.03.39-.05.58-.09.19-.04.37-.09.56-.14.17-.04.33-.08.5-.13.18-.06.36-.13.54-.19.16-.06.33-.11.49-.18.17-.07.33-.15.5-.23.16-.08.33-.15.49-.24.16-.09.32-.19.47-.28.16-.09.31-.18.46-.28.18-.12.34-.25.51-.38.12-.09.25-.18.36-.27.57-.47,1.09-.99,1.56-1.56.1-.12.19-.25.28-.37.13-.17.25-.33.37-.5.1-.16.19-.32.29-.48.09-.15.19-.3.27-.46.09-.16.16-.33.24-.5.08-.16.16-.32.23-.49.07-.17.12-.33.18-.5.06-.18.13-.35.18-.53.05-.17.09-.34.13-.52.05-.18.1-.36.13-.54.04-.2.06-.4.09-.61.02-.16.05-.31.07-.47.04-.37.06-.74.06-1.11v-401.5c0-.37-.02-.74-.06-1.11ZM1089.29,1919.28c.16.01.12.01,0,0h0ZM1089.09,1919.26c-.15-.02-.32-.04-.42-.05-.3-.05-.6-.12-.9-.18-.58-.13-1.14-.3-1.7-.5l-22.27-22.27c.19-.02.37-.04.56-.06,2-.2,3.99-.38,5.99-.53,3.94-.29,7.89-.48,11.84-.6,7.97-.24,15.94-.19,23.91-.12,2.39.02,4.77.04,7.16.06v24.4c-4.21-.86-8.69-.61-12.92-.33-2.64.17-5.29.38-7.94.37-1.11,0-2.21-.09-3.31-.18ZM810.59,1643.05c-.12-17.05-1.13-34.09-1.68-51.12-.1-3.2-.19-6.39-.25-9.59h28.64c.02.14.05.27.07.41.06.37.12.74.18,1.11.03.21.11.48.15.75-.02.04-.02.11,0,.25.02.19.05.38.07.57.05.43.1.85.15,1.28.09.81.17,1.63.23,2.44.14,1.65.24,3.31.32,4.97.3,6.83.12,13.68-.15,20.5-.27,6.79-.65,13.59-.78,20.39-.13,6.96.35,13.9.4,20.86.04,4.8-.05,9.61-.13,14.41l-27.22-27.22ZM802.08,1634.54l-24.37-24.37c.09-9.29,1.2-18.7-.86-27.84h23.43c.34,17.41,1.41,34.8,1.79,52.21ZM845.88,1637.32c.12-13.72,1.45-27.41,1.04-41.14-.14-4.62-.48-9.26-1.16-13.85h26.47c.2.91.37,1.82.51,2.74.04.23.06.47.1.71-.01-.06-.02-.12-.03-.17,0,0,0,0,0,.01.05.4.09.8.13,1.21.1,1.07.18,2.14.24,3.21.1,1.96.13,3.92.12,5.87-.05,7.86-.88,15.7-.9,23.56-.01,4.69.38,9.4.63,14.08.28,5.31.55,10.62.71,15.94.17,5.39.23,10.78.08,16.16-.15,5.32-.32,10.61-.12,15.94.32,8.66,1.12,17.3,1.41,25.96l-29.04-29.04c.06-6.58.25-13.16.26-19.74.01-7.16-.5-14.3-.44-21.46ZM882.23,1685.33c-.28-5.45-.4-10.9-.17-16.35.23-5.36.25-10.73.13-16.1-.12-5.43-.37-10.85-.64-16.28-.26-5.07-.65-10.15-.77-15.22-.18-7.71.67-15.42.85-23.13.11-4.84-.03-9.66-.69-14.46-.07-.49-.14-.97-.22-1.46h24.05c.71,2.28,1.25,4.61,1.68,6.96.1.55.2,1.11.28,1.67.05.3.09.6.14.91.01.07.05.34.08.55.02.19.06.46.07.56.04.31.07.62.11.93.07.62.13,1.24.19,1.87.24,2.58.4,5.16.49,7.75.37,9.93-.16,19.87.1,29.8.16,5.99.57,11.98.85,17.97.3,6.44.58,12.87.75,19.31.35,12.97.24,25.96.49,38.93.22,11.18.49,22.35.61,33.53l-27.07-27.07c.19-10.24-.79-20.45-1.31-30.67ZM919.04,1751.5c-.03-12.43-.32-24.86-.58-37.29-.14-6.58-.26-13.16-.32-19.74-.06-6.52-.02-13.05-.16-19.57-.26-12.97-1-25.92-1.61-38.88-.47-9.86.11-19.74-.11-29.61-.12-5.4-.48-10.77-1.23-16.12-.37-2.67-.87-5.34-1.56-7.96h27.64c.09.61.18,1.22.27,1.82.05.33.1.66.14.99-.13-1.1,0,.03.03.21.19,1.44.36,2.88.52,4.32.62,5.55,1.03,11.12,1.32,16.7.57,11.09.6,22.2.59,33.31-.02,11.2-.09,22.41.27,33.61.33,10.22.81,20.44,1.2,30.66.37,9.88.7,19.76.77,29.64l-22.53,22.53-4.63-4.63ZM1008.96,1582.33c.01.15.03.31.04.46.07.82.1,1.64.12,2.46.08,3.21-.1,6.43-.25,9.63-.16,3.25-.24,6.49-.1,9.75.17,4.06.55,8.11.93,12.15.37,3.98.73,7.97.88,11.96.15,4.02-.02,8.02-.22,12.03-.2,4.03-.45,8.05-.59,12.08-.14,4.03-.12,8.06-.12,12.1v5.21l-24.95,24.95c-.08-.96-.14-1.92-.19-2.88-.19-4.33-.06-8.67.17-13,.22-4.36.55-8.72.76-13.08.2-4.2.2-8.37.06-12.57-.34-9.99.21-19.98.56-29.97.16-4.7.35-9.42.23-14.13-.09-3.81-.42-7.61-.76-11.4-.4-4.4-.85-8.79-1.14-13.2-.06-.84-.11-1.69-.15-2.54h24.72ZM1071.69,1602.88c.13,1.64.24,3.27.32,4.91l-21.45,21.45c0-.42-.01-.84-.01-1.25,0-4.55.3-9.1.6-13.64.62-9.31,1.42-18.76-.12-28.02-.23-1.36-.54-2.69-.93-3.99h20.44c-.3,6.85.63,13.85,1.16,20.55ZM1097.72,1760.57c-8.37-.45-16.77-.37-25.14-.87-14.37-.86-28.75-1.35-43.14-1.62-14.38-.27-28.76-.33-43.15-.31-10.93.01-21.86.06-32.79.1l29.22-29.22c16.13-.11,32.26.71,48.36,1.74,9.56.61,19.12,1.3,28.69,1.91,9.2.59,18.42,1.23,27.64,1.24,4.91,0,9.83-.07,14.74.12,2.44.1,4.88.26,7.31.55.08,0,1.06.11.33.04-.71-.07.5.07.62.09.58.09,1.16.19,1.74.29.37.07.74.15,1.11.22v27.47c-.57-.12-1.14-.24-1.72-.34-4.56-.8-9.2-1.18-13.83-1.43ZM1056.74,1654.64c3.86,1.17,7.91,1.75,11.92,2.12,5.04.47,10.11.53,15.17.55,4.82.02,9.64-.03,14.45.28,3.51.22,7.03.16,10.55.35,1.12.06,2.24.14,3.35.25.22.02.43.05.65.07.14.02.29.05.43.08v29.73c-2.29-.32-4.61-.53-6.92-.67-5.02-.3-10.06-.28-15.06-.73-16.08-1.46-32.22-1.82-48.35-2.37-5.08-.17-10.16-.37-15.23-.62l29.04-29.04ZM1019.78,1691.6c14.55.93,29.14,1.2,43.71,1.76,8.01.31,16.01.7,24,1.35,2.75.22,5.5.49,8.26.61,2.59.11,5.18.19,7.78.3,1.52.07,3.03.15,4.55.26.71.05,1.41.11,2.12.18.36.04.71.07,1.07.11.19.02.61.08.77.11.41.07.82.13,1.23.21v29.86c-7.26-1.25-14.74-1.21-22.08-1.19-9.18.03-18.32-.43-27.49-.99-19.3-1.19-38.57-2.77-57.9-3.51-4.9-.19-9.8-.32-14.71-.38l28.69-28.69ZM1113.26,1649.93c-.47-.05-.93-.1-1.4-.15-3.84-.38-7.71-.35-11.56-.47-4.42-.14-8.82-.35-13.24-.37-5.21-.02-10.42,0-15.61-.34-1.44-.09-2.87-.22-4.3-.38-.27-.03-.54-.06-.81-.1.05,0,.1.02.16.03-.1-.02-.19-.03-.29-.04,0,0,0,0-.01,0-.05,0-.11-.01-.16-.02-.02,0-.05,0-.07,0-.66-.1-1.32-.2-1.98-.32-.1-.02-.2-.04-.3-.06l20.89-20.89c9.56-.45,19.13-1.78,28.69-1.02v24.14ZM1041.26,1582.33c.02.05.06.13.09.21.05.12.1.24.12.3.72,1.91,1.19,3.9,1.51,5.92.03.2.06.4.09.59.06.56.13,1.12.18,1.69.1,1.15.17,2.31.22,3.47.09,2.4.07,4.81,0,7.21-.29,9.81-1.64,19.62-1.24,29.44.08,1.96.25,3.93.54,5.88l-24.77,24.77c0-2.08.01-4.15.06-6.23.09-4.04.32-8.08.53-12.11.21-4,.46-8,.42-12.01-.04-4.06-.35-8.11-.71-12.15-.67-7.47-1.47-14.94-1.15-22.45.16-3.6.4-7.2.36-10.81-.01-1.22-.05-2.47-.15-3.71h23.89ZM975.93,1583.48c.22,3.96.61,7.91.97,11.86.36,3.89.73,7.79.92,11.7.21,4.38.1,8.77-.03,13.15-.29,10-.9,20-.75,30.01.07,4.41.3,8.8.14,13.21-.15,4.38-.47,8.75-.73,13.12-.5,8.58-.92,17.48.88,25.95l-22.86,22.86c-.31-16.19-1.14-32.38-1.75-48.56-.84-22.34.11-44.7-.82-67.04-.38-9.16-1.12-18.32-2.4-27.4h26.37c.02.38.04.77.06,1.15ZM945.11,1766.27c11.83-.02,23.66-.08,35.49-.1,14.27-.03,28.54-.01,42.8.2,14.23.21,28.46.62,42.67,1.36,4.78.25,9.55.59,14.33.7,4.29.1,8.57.17,12.86.33,4.46.16,8.92.4,13.35.93.22.03.45.05.67.08.47.07.94.14,1.4.21.91.15,1.82.32,2.71.52.63.14,1.25.3,1.87.48v35.91c-17.92-.19-35.82-1.29-53.69-2.66-19.53-1.5-39.04-3.3-58.59-4.54-11.08-.7-22.17-1.22-33.27-1.4-.55,0-1.08.11-1.59.32l-26.67-26.67,5.65-5.65ZM1026.91,1809.94c19.5,1.57,38.99,3.32,58.53,4.37,9.27.5,18.54.83,27.82.93v33.01c-11.76.05-23.51.18-35.27.17-14.94,0-29.88-.21-44.8-1.04-6.62-.37-13.24-.88-19.84-1.57l-39.02-39.02c17.55.5,35.07,1.74,52.58,3.15ZM1052.79,1856.52c14.81.36,29.63.3,44.44.2,5.34-.04,10.69-.07,16.03-.09v30.01c-13.96-.09-27.94-.38-41.88.59-4.84.34-9.66.85-14.46,1.51-.16.02-.33.08-.5.15l-33.84-33.84c10.05.8,20.13,1.24,30.21,1.48ZM1113.26,1617.4c-1.92-.14-3.85-.19-5.78-.2-4.65,0-9.29.29-13.92.61l19.7-19.7v19.29ZM1079.84,1599.97c-.52-5.87-1.13-11.74-.87-17.64h18.5l-17.64,17.64ZM768.39,1582.33c0,.36.04.74.13,1.11.29,1.13.53,2.27.71,3.42,0,.04.03.19.05.34.02.14.06.45.07.52.07.62.13,1.23.18,1.85.19,2.4.23,4.82.2,7.23-.02,1.75-.08,3.49-.15,5.24l-19.71-19.71h18.52ZM734.08,1598.12l173.8,173.8-173.8,173.8v-347.6ZM749.87,1961.51l173.8-173.8,173.8,173.8h-347.6ZM1095.31,1927.77c1.52-.07,3.02-.19,4.49-.28,2.68-.18,5.36-.35,8.04-.26.69.02,1.38.06,2.07.13.3.03,1.5.24.15,0,.25.04.5.07.74.12.83.14,1.65.34,2.46.59v17.66l-17.95-17.95Z"/>
        </g>
      </g>
      <g class="cls-5">
        <rect class="cls-2" x="1059.65" y="-619.66" width="1984.86" height="1984.86"/>
        <g>
          <rect class="cls-2" x="-860.35" y="-619.66" width="1984.86" height="1984.86"/>
          <path class="cls-3" d="M902.18,193.11c-6.08,3.79-2.15,14.78,3.92,15.85,7.06,1.24,11.45-6.3,9.25-12.05-1.96-5.14-7.79-7.16-13.17-3.81Z"/>
          <path class="cls-3" d="M933.42,252.75c-6.08,3.79-2.15,14.78,3.92,15.85,7.06,1.24,11.45-6.3,9.25-12.05-1.96-5.14-7.79-7.16-13.17-3.81Z"/>
          <path class="cls-3" d="M986.12,214.2c-6.08,3.79-2.15,14.78,3.92,15.85,7.06,1.24,11.45-6.3,9.25-12.05-1.96-5.14-7.79-7.16-13.17-3.81Z"/>
          <path class="cls-3" d="M456.78,174.11c-6.08-3.79-2.15-14.78,3.92-15.85,7.06-1.24,11.45,6.3,9.25,12.05-1.96,5.14-7.79,7.16-13.17,3.81Z"/>
          <path class="cls-3" d="M488.02,114.47c-6.08-3.79-2.15-14.78,3.92-15.85,7.06-1.24,11.45,6.3,9.25,12.05-1.96,5.14-7.79,7.16-13.17,3.81Z"/>
          <path class="cls-3" d="M540.72,153.02c-6.08-3.79-2.15-14.78,3.92-15.85,7.06-1.24,11.45,6.3,9.25,12.05-1.96,5.14-7.79,7.16-13.17,3.81Z"/>
          <path class="cls-3" d="M124.3,956.76c-6.08,3.79-2.15,14.78,3.92,15.85,7.06,1.24,11.45-6.3,9.25-12.05-1.96-5.14-7.79-7.16-13.17-3.81Z"/>
          <path class="cls-3" d="M155.54,1016.4c-6.08,3.79-2.15,14.78,3.92,15.85,7.06,1.24,11.45-6.3,9.25-12.05-1.96-5.14-7.79-7.16-13.17-3.81Z"/>
          <path class="cls-3" d="M208.24,977.85c-6.08,3.79-2.15,14.78,3.92,15.85,7.06,1.24,11.45-6.3,9.25-12.05-1.96-5.14-7.79-7.16-13.17-3.81Z"/>
          <path class="cls-3" d="M4.14,990.19c-6.08,3.79-2.15,14.78,3.92,15.85,7.06,1.24,11.45-6.3,9.25-12.05-1.96-5.14-7.79-7.16-13.17-3.81Z"/>
          <path class="cls-3" d="M35.38,1049.83c-6.08,3.79-2.15,14.78,3.92,15.85,7.06,1.24,11.45-6.3,9.25-12.05-1.96-5.14-7.79-7.16-13.17-3.81Z"/>
          <path class="cls-3" d="M88.07,1011.28c-6.08,3.79-2.15,14.78,3.92,15.85,7.06,1.24,11.45-6.3,9.25-12.05-1.96-5.14-7.79-7.16-13.17-3.81Z"/>
          <path class="cls-3" d="M1259.55,656.28c-1.76-11.62-32.98-40.27-48.14-44.9-9.8-2.99-34.45,31.71-57.83,52.75-33.19,29.86-68.35,60.04-104.28,86.4-49.31,36.17-109.89,55.37-162.52,86.97-57.81,34.7-119.07,62.58-178.41,95.63-10.82-19.22-11.98-53.14-10.35-68.48-12.06,10.77-18.8,43.1-22.93,58-3.78,13.65-10.14,26.07-15.21,39.23-15.27,9.71-30.31,20-45.01,31.12-39.69,30.01-80.9,55.95-122.28,82.72-39.87,25.79-74.45,56.03-110.28,84.19,17.64,19.65,45.13,37.87,62.25,54.01,17.5,16.49,5.67,25.05,35.14,9.86,14.28-7.36,29.78-23.28,42.48-32.86,26.38-19.89,47.41-47.02,75.75-63.29,25.61-14.71,53.77-19.52,79.5-34.89,29-17.32,64.08-29.84,90.7-50.99,20.91-16.61,35.22-42.75,56.32-59.74,35.84-28.87,107.02-68.44,152.07-74.2,21.39-2.73,44.14,4.18,65.92,1.83,33.16-3.58,47.01-27.51,75.9-36.92-24.2-11.27-52.8,20.68-77.44,6.24,26.44-31.43,68.49-48.52,95.83-80.84,31.6-37.37,65.78-70.29,101.44-103.19,15.01-13.85,24.76-16.3,21.37-38.65ZM562.77,1073.27c-34.2,25.96-72.46,59.89-117.22,66.24,33.8-21.64,62.79-49.32,96.64-71.54,28.74-18.85,60.2-45.94,92.66-57.81l-4.59,6.04c-21.67,25.01-40.48,36.56-67.5,57.07ZM698.33,1048.61c-12.33,6.36-24.33,12.45-37.5,17.42-9.89,3.72-19.92,7.51-29.25,12.48-6.89,3.67-14.02,11.96-21.81,10.42,5.97-7.15,16.43-10.59,24.07-16.29,9.48-7.07,33.74-21.97,44.17-27.63,44.61-24.25,69.62-38.37,94.93-55.94-22.86,21.41-45.6,44.59-74.61,59.55ZM824.04,912.66c-27.43,12.91-70.7,37.77-97.49,39.44-.24.11-.47.21-.71.32l-1.24-.22c.64-.01,1.29-.05,1.95-.09,41.56-18.48,79.46-38.76,119.03-59.17,19.38-9.99,40.91-31.07,62.04-34.21-13.9,26.65-57.2,41.52-83.59,53.94ZM1033.53,834.87c-37.26,21.58-79.18,37.45-115.35,60.2,7.3-13.69,23.55-22.05,36.69-29.78.65-.38,1.28-.76,1.91-1.13,16.36-9.81,33.37-18.47,49.84-28.09,17.46-10.19,34.75-20.67,52.04-31.15,8.72-5.28,17.43-10.57,26.17-15.82,4.41-2.65,8.83-5.3,13.25-7.93,2.32-1.38,4.63-2.75,6.95-4.12.84-.5,5.78-2.66,5.92-3.48-5.07,29.95-54.59,48.08-77.42,61.3ZM1055.95,765.85c-.41.25-.76.4-1,.38.33-.13.67-.25,1-.38,2.35-1.42,7-6.54,8.25-7.55,2.97-2.42,6.02-4.75,9.09-7.05,6.74-5.05,13.7-9.8,20.87-14.23,2.25-1.39,4.54-2.68,6.86-3.91,6.89-3.66,14-6.83,20.73-10.81,5.19-3.07,9.95-6.8,14.53-10.7,2.33-1.98,4.61-4.02,6.9-6.06,1.19-1.06,2.39-2.13,3.58-3.19.56-.49,2.94-2,3.06-2.68-4.7,26.63-54.11,51.04-93.86,66.18Z"/>
          <path class="cls-3" d="M-640.33-336.49c-9.4,7.06-19.82,48.13-16.72,63.67,2.01,10.05,44.25,15.3,73.86,25.92,42.03,15.07,85.27,31.72,125.5,50.86,55.22,26.27,100.85,70.51,153.62,101.87C-246.1-59.72-192.51-18.99-135.28,17.6c-11.8,18.64-41.11,35.74-55.39,41.58,15.2,5.52,46.87-3.88,61.94-7.31,13.81-3.14,27.76-3.43,41.75-5.21,15.79,8.84,31.98,17.21,48.74,24.88C6.99,92.26,49.37,116.25,92.56,140c41.6,22.88,84.63,39,126.41,57.19,8.94-24.85,11.95-57.69,18.04-80.41,6.23-23.23,19.36-16.87-7.97-35.62-13.25-9.09-34.61-15.19-49.07-21.83-30.02-13.8-63.88-19.46-91.64-36.7C63.23,7.05,45.64-15.46,19.92-30.83c-28.99-17.32-56.65-42.28-87.89-55.69-24.53-10.54-54.33-10.75-79.3-21.27-42.41-17.88-111-61.79-137.42-98.73-12.55-17.54-17.25-40.84-29.64-58.91-18.87-27.5-46.51-28.35-68.49-49.33,1.55,26.65,43.23,36.68,42.2,65.22-40.21-8.38-75.19-37.3-116.6-46.05-47.88-10.11-93.07-24.6-138.95-40.4-19.31-6.65-26.09-14.08-44.17-.49ZM57.13,79.36c39.08,17.81,87.08,35.41,113.89,71.81-35.08-19.5-73.19-31.9-108.8-51.18C31.99,83.62-6.77,68.76-32.62,45.8l7.5,1.18c32.29,7.23,51.38,18.31,82.25,32.38ZM-28.84-28.31C-17.4-20.47-6.35-12.79,4.26-3.55c7.97,6.94,16.06,13.98,24.85,19.84,6.5,4.33,17.18,6.68,19.51,14.26-9.13-1.87-17.12-9.44-25.75-13.47C12.15,12.09-12.46-2.21-22.39-8.7c-42.5-27.79-66.78-43.11-94.26-57.07,29.69,9.98,60.88,19.01,87.81,37.47ZM-208.15-74.56c24.38,18.03,66.77,44.35,80.94,67.14.21.16.41.31.61.47l.39,1.2c-.31-.55-.66-1.11-1.01-1.67-35.98-27.84-71.8-51.59-108.53-76.76-17.98-12.32-46.75-21.29-59.53-38.41,30.05-.4,63.68,30.68,87.12,48.03ZM-375.94-222.14c36.67,22.58,70.51,51.96,107.69,73.03-15.51.06-30.58-10.28-43.61-18.19-.64-.39-1.28-.77-1.91-1.15-16.39-9.76-32.08-20.62-48.36-30.57-17.25-10.54-34.68-20.8-52.1-31.06-8.78-5.17-17.57-10.34-26.34-15.54-4.43-2.63-8.85-5.26-13.26-7.91-2.31-1.39-4.62-2.78-6.92-4.17-.84-.51-5.08-3.83-5.87-3.56,28.78-9.73,68.21,25.28,90.68,39.11ZM-447.34-209.16c.41.24.71.48.81.7-.27-.23-.54-.47-.81-.7-2.37-1.39-9.08-3.07-10.56-3.68-3.54-1.47-7.04-3.05-10.52-4.66-7.64-3.54-15.13-7.42-22.42-11.63-2.29-1.32-4.51-2.73-6.69-4.19-6.49-4.34-12.65-9.09-19.35-13.12-5.16-3.11-10.7-5.54-16.31-7.72-2.85-1.11-5.73-2.16-8.6-3.2-1.5-.55-3.01-1.09-4.51-1.64-.7-.26-3.15-1.64-3.81-1.42,25.68-8.49,70.59,23.44,102.76,51.27Z"/>
          <g>
            <path class="cls-3" d="M839.54,353.47H31.64c-5.8,0-10.5,4.7-10.5,10.5v396.79c0,5.8,4.7,10.5,10.5,10.5h807.9c5.8,0,10.5-4.7,10.5-10.5v-396.79c0-5.8-4.7-10.5-10.5-10.5ZM42.14,393.07l135.63,169.29-135.63,169.29v-338.59ZM208.06,374.47c.07.34.14.69.2,1.03,0,.05.01.1.02.15.01.06.03.13.03.2,0,.03,0,.06,0,.09.01.07.02.15.04.21-.01-.04-.02-.06-.03-.1.05.48.1.97.13,1.45.32,4.54.08,9.11-.25,13.64-.33,4.56-.82,9.1-1.27,13.65-.4,4.06-.57,8.02-.53,12.11.17,16.2.87,32.39.9,48.6.03,16.19.87,32.37,1.64,48.54.18,3.73.39,7.43.84,11.14.43,3.56.94,7.1,1.33,10.66.41,3.69.72,7.41.65,11.13-.02.88-.06,1.77-.12,2.65-.03.37-.06.74-.1,1.11-.02.14-.03.29-.05.43,0,.05-.01.1-.03.18-.06.34-.13.69-.2,1.03h-15.88l-20.62-25.74c1.72-7.9,1.91-16.14,1.78-24.18-.15-9.63-.85-19.23-1.07-28.86-.1-4.62-.1-9.25.21-13.86.36-5.52.96-11.02,1.29-16.54.71-11.53.97-23.09,1.05-34.64.08-11.37-.01-22.73-.04-34.1h30.06ZM339.46,374.47c.23,1.02.43,2.05.58,3.08.01.17.13,1.19.15,1.37.06.63.1,1.26.14,1.9.08,1.43.11,2.85.1,4.28-.03,5.55-.62,11.08-1.27,16.59-.63,5.31-1.37,10.61-1.75,15.94-.44,6.37-.37,12.79-.49,19.16-.25,13.11-.69,26.22-.87,39.33-.17,12.7-.08,25.4.04,38.1.12,12.71.28,25.43.2,38.15h-33.64c.7-3.66.82-7.46.77-11.18-.08-6.06-.68-12.1-.99-18.16-.38-7.33-.18-14.7-.3-22.03-.13-8.33-.3-16.65-.4-24.98-.19-16.55.25-33.02,1.26-49.53.5-8.27.99-16.55,1.13-24.83.07-4.15.13-8.29.23-12.44.1-4.39.19-8.79-.05-13.18-.03-.49-.05-1.02-.08-1.57h35.24ZM382.27,374.47c.09.56.18,1.12.26,1.68,0,.03,0,.04,0,.06,0,.07.02.14.03.24.05.5.12,1.01.17,1.51.32,3.07.48,6.15.54,9.23.12,6.39-.2,12.77-.64,19.15-.42,6.19-.95,12.38-1.29,18.57-.36,6.71-.4,13.42-.28,20.13.24,13.62.93,27.22,1.04,40.85.09,11.38.46,22.75.47,34.13,0,6.34-.09,12.69-.44,19.02-.16,2.98-.39,5.95-.71,8.92-.08.7-.16,1.4-.24,2.1-.03.23-.05.46-.09.69.23-1.26-.04.25-.07.49-.05.37-.13.75-.19,1.12h-35.54c.16-23.9-.5-47.8-.3-71.7.11-13.23.57-26.45.83-39.67.13-6.72.2-13.45.41-20.17.17-5.26.86-10.49,1.5-15.71,1.21-9.9,2.79-20.63.94-30.65h33.59ZM426.09,374.47c.02.12.04.24.06.36,0,.03,0,.05,0,.09.02.3.05.59.08.89.05.68.08,1.36.09,2.03.06,2.72-.09,5.45-.21,8.17-.29,6.46-.4,12.93-.59,19.39-.39,12.69-.41,25.36-.48,38.06-.12,23.83-.44,47.65-.67,71.48-.12,11.92-.22,23.85-.22,35.78,0,.57.13,1.13.34,1.66h-34.6c1.3-9.12,1.58-18.39,1.66-27.57.1-11.65-.26-23.3-.41-34.95-.08-6.2-.08-12.39-.26-18.59-.2-7.09-.51-14.17-.71-21.26-.19-7.01-.27-14.03-.02-21.05.22-6.2.73-12.38,1.18-18.56.87-11.91,1.61-24.05-.03-35.92h34.78ZM510.03,374.47c.31,1.04.56,2.09.75,3.16.06.35.11.69.17,1.04,0,0,0,.01,0,.02.07.64.14,1.29.19,1.94.1,1.32.16,2.65.18,3.97.1,5.39-.22,10.79-.25,16.19-.06,13.11-.81,26.2-1.34,39.29-.53,13.26-.46,26.51-.69,39.77-.23,13.11-.63,26.22-.74,39.34-.05,6.01.16,12.01.22,18.02.03,2.79-.02,5.59-.28,8.37-.03.3-.06.6-.1.9-.01.1-.02.17-.03.23,0,.04-.02.08-.03.14-.1.56-.19,1.11-.31,1.66-.14.63-.29,1.25-.48,1.86-.06.2-.12.39-.19.58-.09.27-.64,1.55-.09.29-.16.36-.27.74-.36,1.12h-35.29c.43-4.07.46-8.18.36-12.27-.15-6.1-.3-12.17-.14-18.27.35-12.74,1.29-25.46,2.01-38.18,1.44-25.44,1.16-50.99,3.44-76.37.98-10.91,2.88-21.83,2.97-32.8h30ZM550.92,374.47c1.21,18.56-.41,37.24-1.5,55.76-.74,12.61-1.1,25.18-.76,37.8.3,10.95.61,21.89.78,32.84.19,11.73.3,23.48-.16,35.2-.09,2.35-.21,4.69-.38,7.03-.08,1.05-.16,2.11-.27,3.16-.05.47-.1.94-.15,1.41-.02.21-.05.42-.07.63,0,0,0,.03,0,.04-.04.26-.09.66-.12.81-.06.39-.13.78-.2,1.17-.12.64-.26,1.27-.43,1.9-.01.05-.03.1-.04.14h-31.59c2.58-8.69,1.23-18.39,1.24-27.29,0-13.44.4-26.87.67-40.3.27-13.34.14-26.69.61-40.03.48-13.43,1.29-26.84,1.48-40.28.09-6.35.35-12.72.29-19.07-.03-3.63-.26-7.35-1.03-10.93h31.62ZM589.25,374.47c.07.34.14.69.2,1.03,0,.04.01.09.02.14.02.07.03.14.04.22,0,.04,0,.08.01.12.01.06.02.12.03.17-.01-.03-.02-.04-.02-.07.05.48.1.97.13,1.45.33,4.56.07,9.17-.31,13.72-.67,8.21-2.16,16.33-2.77,24.53-1.18,15.94.33,31.88.61,47.83.29,16.06-.18,32.11-.36,48.17-.14,13.52-.08,27.05-.06,40.57h-29.96c.67-3.52.96-7.15,1.19-10.71.73-11.4.65-22.86.53-34.28-.13-11.66-.43-23.31-.75-34.97-.3-11.04-.38-22,.14-33.05,1.02-21.45,3.32-42.96,2.02-64.45,0-.15-.02-.3-.03-.44h29.33ZM629.53,374.47c.17.75.32,1.51.46,2.28,0,.04.02.1.03.17.03.25.06.51.09.76.07.61.12,1.21.16,1.82.1,1.37.15,2.75.17,4.13.06,5.49-.42,10.97-.96,16.43-.52,5.19-1.13,10.37-1.37,15.58-.32,6.92-.82,13.83-1.28,20.74-.89,13.36-1.37,26.76-1.87,40.14-.5,13.33-.87,26.66-.85,40,.02,11.95.35,23.92,1.27,35.84h-29.59c-.01-11.87-.05-23.75.02-35.62.1-16.22.62-32.43.46-48.65-.16-16.13-1.71-32.26-.92-48.39.44-8.84,2.01-17.56,2.83-26.36.48-5.15.85-10.38.51-15.55-.07-1.05-.16-2.17-.3-3.32h31.15ZM712.82,374.47l.05.33s0,0,0,0c.08.64.16,1.27.23,1.91.3,2.58.53,5.16.71,7.75.4,5.62.58,11.25.61,16.88.07,11.12-.36,22.26-1.43,33.32-1.31,13.62-2.46,27.25-2.76,40.94-.16,7.23.27,14.38.59,21.6.16,3.68.3,7.37.3,11.05l-35.34,44.11h-5.25c.19-7.16,1.1-14.3,1.88-21.42,1.01-9.28,1.34-18.61,1.86-27.92,1.08-18.97,2.36-37.93,4.05-56.85.78-8.7,1.71-17.38,2.41-26.08.82-10.09,1.48-20.22,1.38-30.34-.04-4.51-.26-9.03-.96-13.49-.09-.59-.2-1.19-.33-1.8h31.99ZM818.31,374.47l-23.7,29.59c.15-1.09.31-2.19.45-3.28.25-1.94.41-3.88.47-5.83.11-4.05-.12-8.1-.13-12.14,0-2.01.04-4.03.22-6.04.03-.36.07-.71.11-1.07,0,.13.16-1.08.18-1.22,0,0,0,0,0,0h22.41ZM826.4,696.35c-.05,0-.13-.02-.24-.04-.42-.06-.84-.12-1.25-.19-.91-.14-1.81-.28-2.71-.43-1.74-.28-3.47-.58-5.22-.84-6.03-.92-12.01-1.43-18-.72l-24.5-30.58c6.12-.04,12.24-.06,18.37,0,4.89.05,9.77.15,14.66.32,4.02.14,7.98.34,12,.12,2.1-.11,4.2-.25,6.3-.23.38,0,2.44-.16,2.66.14-.04-.06-.97-.18-.3-.04.23.05.46.09.69.14.05.01.11.03.18.05v32.56c-.8-.08-1.6-.16-2.41-.26-.1-.01-.18-.02-.24-.03ZM738,506.71c13.13,2.67,26.62,2.99,39.98,2.93,12.41-.05,24.79-.26,37.19.1,2.87.09,5.75.2,8.61.46.35.03.84.15,1.28.2.08-.02.25-.04.45,0,.01,0,.02,0,.03,0,.01,0,.03,0,.05,0-.01,0-.02,0-.03,0,.33.05.65.11.98.17.45.09.9.19,1.34.31.16.05.32.1.48.15.22.1.45.2.68.26v31.7c-1.61.54-3.24.89-4.91,1.16-.05,0-.09.01-.11.02-.11,0-.22.01-.27.02-.42.04-.84.08-1.26.11-.98.07-1.97.11-2.95.12-3.97.04-7.94-.32-11.87-.82-.2-.02-1.8-.24-.79-.1-.46-.07-.92-.13-1.39-.19-1.05-.15-2.1-.31-3.15-.47-1.92-.29-3.84-.6-5.76-.89-3.98-.61-7.96-1.14-11.98-1.45-9.94-.75-19.89-1.14-29.85-1.37-8.99-.21-17.97-.18-26.95-.74-4.83-.3-9.83-.65-14.79-.49l24.99-31.19ZM802.87,425.74c8.55,1.91,17.39,1.81,26.17,1.6v30.44c-2.58-.61-5.33-.73-7.92-.78-3.85-.07-7.69.17-11.53.33-4.06.17-8.11.03-12.18.07-5.08.06-10.16.28-15.23.51-1.75.08-3.5.15-5.26.22l25.95-32.39ZM769.53,467.36c8.48-.18,16.95-.73,25.43-.91,4.31-.09,8.62.1,12.92-.05,3.68-.12,7.36-.37,11.05-.4,2-.02,4.01.02,6,.22.08,0,.25.01.4.02.05.02.1.03.16.04.45.08.9.15,1.34.25.75.17,1.48.39,2.2.67v34.74c-1.13-.24-2.29-.39-3.45-.53-2.47-.31-4.96-.45-7.44-.56-5.26-.22-10.53-.35-15.79-.39-13.82-.09-27.64.53-41.45-.11-3.81-.18-7.61-.45-11.39-.88-.78-.09-1.56-.18-2.33-.28-.22-.03-.69-.1-.74-.1-.49-.07-.98-.15-1.48-.22-.2-.03-.4-.07-.6-.1l25.16-31.4ZM824.45,544.12s-.22.05-.39.06c.15-.02.39-.06.39-.06ZM705.01,547.88c.88-.2,1.77-.37,2.66-.51.08-.01.15-.02.23-.03.1-.01.23-.03.3-.04.46-.04.91-.1,1.37-.14,1.06-.09,2.13-.16,3.2-.2,4.19-.16,8.39.03,12.58.28,3.96.23,7.91.54,11.87.62,4.86.1,9.72.11,14.58.21,9.97.2,19.94.55,29.89,1.23,2.17.15,4.35.29,6.52.52.77.08,1.53.18,2.3.28.16.02.52.07.72.1.49.07.98.14,1.47.21,3.93.58,7.85,1.24,11.79,1.78,7.98,1.1,16.6,2.16,24.56.19v27.69c-15.41-.07-30.81-.79-46.2-1.64-16.68-.92-33.35-1.99-50.04-2.65-9.32-.37-18.65-.6-27.98-.61-.35,0-.7.06-1.03.14l-10.38-12.95,11.61-14.49ZM754.48,585.82c16.58.9,33.14,1.98,49.73,2.65,8.27.33,16.55.55,24.83.59v28.72c-10.5-1.79-21.24-.46-31.84-.4-12.56.07-25.12-.49-37.69-.27-7.1.13-14.19.49-21.26,1.22l-27.34-34.13c14.53.16,29.06.82,43.57,1.61ZM775.75,626.13c6.22.08,12.44.21,18.66.25,5.73.04,11.45-.3,17.18-.47,3.3-.1,6.61-.13,9.9.05.74.04,1.47.09,2.21.16.37.03.73.07,1.09.1.11.01.76.09.97.11,1.1.16,2.19.36,3.27.6v28.09c-2.2-.29-4.46-.26-6.72-.16-3.9.18-7.72.31-11.63.15-9.93-.41-19.86-.51-29.8-.48-4.53.01-9.05.05-13.58.09l-22.31-27.85c10.23-.73,20.49-.77,30.75-.64ZM829.04,418.32c-2.91.06-5.83.12-8.74.09-3.12-.03-6.24-.15-9.35-.45-.57-.06-1.13-.12-1.69-.19l19.78-24.69v25.25ZM786.51,395.39c-.04,1.09-.1,2.17-.21,3.26-.04.43-.09.85-.14,1.28-.03.26-.06.52-.1.78,0,.06-.01.1-.02.17-.32,2.26-.67,4.53-.88,6.8-.24,2.63-.16,5.23.33,7.76l-22.32,27.85c.16-17.87.54-35.74.74-53.61.06-5.07.09-10.14.1-15.21h22.84c-.87,6.91-.11,13.95-.35,20.92ZM754.21,438.79c-.06,5.27-.09,10.55-.1,15.82l-34.29,42.8c-.27-5.05-.64-10.11-.65-15.16-.03-25.68,4.11-51.1,4.26-76.77.06-10.32-.24-20.75-1.6-31.01h33.18c-.06,21.44-.56,42.88-.8,64.32ZM671.49,374.47s0,0,0,.01c.09.27.19.54.27.81.2.69.36,1.39.5,2.09.08.39.15.79.21,1.19.02.14.04.29.07.43.11.91.2,1.82.27,2.74.17,2.13.25,4.27.29,6.4.19,10-.43,20.01-1.2,29.98-.6,7.71-1.4,15.4-2.12,23.11-1.73,18.6-3.05,37.23-4.16,55.88-.54,9.22-.81,18.48-1.6,27.68-.77,8.95-2.18,17.85-2.48,26.84,0,.25,0,.49-.01.74h-27.17c-1.85-23.65-1.41-47.46-.59-71.15.46-13.38.91-26.79,1.74-40.16.43-6.99.97-13.97,1.35-20.96.31-5.55.67-11.06,1.24-16.59.64-6.23,1.3-12.47,1.32-18.74,0-3.4-.16-6.9-.72-10.31h32.77ZM548.5,552.21c.46-.24,1.01-.35,1.66-.39-.57.03-1.13.17-1.66.39ZM510.94,378.52c-.02-.21-.04-.4,0,0h0ZM468.49,402.89c-1.32,12.33-1.8,24.76-2.24,37.15-.45,12.72-.7,25.44-1.35,38.15-.64,12.73-1.62,25.45-2.12,38.19-.27,6.84-.36,13.65-.14,20.49.11,3.38.21,6.76.11,10.14-.05,1.66-.15,3.33-.33,4.98-.01.12-.03.25-.04.37h-29.56c.21-.51.33-1.06.33-1.66,0-22.54.32-45.08.56-67.61.13-12.11.25-24.22.32-36.34.07-12.57.03-25.14.39-37.71.21-7.5.36-15.01.68-22.51.17-3.98.48-8.1.02-12.08h35.92c-.08,9.51-1.53,18.99-2.54,28.42ZM295.18,374.47c.06.68.11,1.36.15,2.04.2,4.19.13,8.39.03,12.58-.27,11.74-.52,23.46-1.22,35.19-.96,15.93-1.56,31.81-1.43,47.78.12,15.76.38,31.52.6,47.28.09,6.25.8,12.48,1.04,18.72.12,3.2.16,6.42-.09,9.62-.03.33-.05.66-.09.99-.03.32,0,1.71-.03.4.01.68-.23,1.45-.37,2.11-.08.4-.2.79-.3,1.18h-31.35c0-1.08,0-2.16,0-3.24,0-3.1.03-6.21.06-9.31.07-6.05.18-12.1.3-18.16.25-12.22.53-24.44.56-36.66.06-24.82-1.46-49.6-2.59-74.39-.55-12.04-.97-24.09-1.09-36.15h35.82ZM252.96,442.32c.56,12.4,1,24.81,1.07,37.22.07,12.03-.18,24.07-.43,36.09-.14,6.76-.28,13.53-.38,20.29-.05,3.42-.08,6.83-.1,10.25,0,1.64-.01,3.28-.01,4.93,0,.21,0,.43.01.65-.14.2-.26.4-.37.62h-32.37c.61-4.4.44-8.95.06-13.29-.57-6.53-1.76-13-2.22-19.54-.57-8-.79-16.05-1.13-24.07-.36-8.34-.64-16.68-.74-25.02-.1-8.21-.07-16.42-.27-24.63-.2-8.25-.47-16.49-.61-24.74-.08-4.87-.16-9.67.3-14.51.43-4.55.94-9.09,1.3-13.65.38-4.7.68-9.44.46-14.16-.06-1.36-.15-2.82-.33-4.28h33.15c.23,22.64,1.6,45.24,2.61,67.85ZM168.25,438.54c-.53,10.36-1.87,20.67-1.82,31.05.05,9.61.74,19.19,1.03,28.79.15,5.16.21,10.33-.09,15.49-.06,1.08-.15,2.15-.24,3.23l-30.27-37.78c0-14.67.29-29.34.63-44.01.34-14.69.74-29.38,1.01-44.07.1-5.59.17-11.18.2-16.76h30.3c.05,21.36.35,42.73-.75,64.07ZM129.1,409.97c-.35,15.04-.76,30.08-1.01,45.13-.07,4.35-.13,8.7-.17,13.06l-27.21-33.96c1.01-7.1-.5-14.73-1.04-21.7-.43-5.47-.15-10.99-.15-16.46,0-6.3-.08-12.61-.54-18.9-.06-.89-.13-1.77-.19-2.66h30.91c-.07,11.83-.32,23.67-.6,35.5ZM89.76,374.47c.22,2.41.38,4.82.5,7.23.26,5.58.29,11.17.27,16.75-.02,4.73-.21,9.49.16,14.21.27,3.41.67,6.8.96,10.21l-38.78-48.4h36.89ZM195.39,572.37h480.41l142.52,177.89H52.86l142.52-177.89ZM805.86,702.73c.14,0,.28,0,.42,0,1.77.05,3.54.19,5.3.39.33.04.66.08.98.12.09.01.6.08.76.1.84.12,1.67.25,2.51.38,4.38.7,8.78,1.5,13.21,1.91v26.02l-23.18-28.93Z"/>
            <path class="cls-3" d="M208.32,376.05s0-.08-.01-.11c-.01-.1-.03-.19-.04-.29-.08-.35-.22-.5.05.4Z"/>
            <path class="cls-3" d="M589.53,376.09s0-.06,0-.1c-.02-.11-.04-.23-.05-.34-.09-.34-.23-.37.06.44Z"/>
            <path class="cls-3" d="M825.56,510.41s-.01,0-.02,0c-.14.02-.31.02-.49,0-.14.04-.05.1.5,0Z"/>
          </g>
          <path class="cls-3" d="M1135.53-349.93c-.02-.16-.05-.32-.07-.47-.03-.2-.05-.41-.09-.61-.04-.18-.09-.36-.13-.54-.04-.17-.08-.35-.13-.52-.05-.18-.12-.35-.18-.53-.06-.17-.12-.34-.18-.5-.07-.17-.15-.32-.23-.49-.08-.17-.15-.34-.24-.5-.08-.16-.18-.31-.27-.46-.1-.16-.19-.32-.29-.48-.12-.17-.24-.34-.37-.5-.09-.12-.18-.25-.28-.37-.47-.57-.99-1.09-1.56-1.56-.12-.1-.24-.18-.36-.27-.17-.13-.34-.26-.52-.38-.15-.1-.31-.19-.46-.28-.16-.1-.31-.2-.48-.28-.16-.08-.32-.15-.48-.23-.17-.08-.34-.16-.51-.24-.16-.06-.31-.12-.47-.17-.19-.07-.37-.14-.56-.2-.16-.05-.32-.08-.47-.12-.19-.05-.39-.1-.58-.14-.18-.04-.36-.06-.54-.08-.18-.03-.36-.06-.54-.08-.32-.03-.65-.05-.97-.05-.04,0-.08,0-.13,0h-401.51s-.08,0-.13,0c-.32,0-.65.02-.97.05-.18.02-.36.05-.54.08-.18.03-.36.05-.54.08-.2.04-.39.09-.58.14-.16.04-.32.07-.47.12-.19.06-.37.13-.56.2-.16.06-.32.11-.47.17-.17.07-.34.16-.51.24-.16.08-.32.15-.48.23-.16.09-.32.19-.48.28-.15.09-.31.18-.46.28-.18.12-.35.25-.52.38-.12.09-.24.17-.36.27-.57.47-1.09.99-1.56,1.56-.1.12-.19.25-.28.37-.13.17-.25.33-.37.5-.1.16-.19.32-.29.48-.09.15-.19.3-.27.46-.09.16-.16.33-.24.5-.08.16-.16.32-.23.49-.07.17-.12.33-.18.5-.06.18-.13.35-.18.53-.05.17-.09.34-.13.52-.05.18-.1.36-.13.54-.04.2-.06.4-.09.61-.02.16-.05.31-.07.47-.04.37-.06.74-.06,1.11V52.67c0,.37.02.74.06,1.11.02.16.05.32.07.47.03.2.05.41.09.61.04.18.09.36.13.54.04.17.08.35.13.52.05.18.12.35.18.53.06.17.12.34.18.5.07.17.15.32.23.49.08.17.15.34.24.5.08.16.18.31.27.46.1.16.18.32.29.48.12.17.24.34.37.5.09.12.18.25.28.37.47.57.99,1.09,1.56,1.56.12.1.24.18.36.27.17.13.34.26.51.38.15.1.31.19.46.28.16.09.31.19.47.28.16.09.33.16.49.24.17.08.33.16.5.23.16.07.32.12.49.18.18.07.36.13.54.19.16.05.33.09.5.13.19.05.37.1.56.14.19.04.39.06.58.09.17.02.33.06.5.07.37.04.73.06,1.1.06h401.51c.37,0,.73-.02,1.1-.06.17-.02.33-.05.5-.07.19-.03.39-.05.58-.09.19-.04.37-.09.56-.14.17-.04.33-.08.5-.13.18-.06.36-.13.54-.19.16-.06.33-.11.49-.18.17-.07.33-.15.5-.23.16-.08.33-.15.49-.24.16-.09.32-.19.47-.28.16-.09.31-.18.46-.28.18-.12.34-.25.51-.38.12-.09.25-.18.36-.27.57-.47,1.09-.99,1.56-1.56.1-.12.19-.25.28-.37.13-.17.25-.33.37-.5.1-.16.19-.32.29-.48.09-.15.19-.3.27-.46.09-.16.16-.33.24-.5.08-.16.16-.32.23-.49.07-.17.12-.33.18-.5.06-.18.13-.35.18-.53.05-.17.09-.34.13-.52.05-.18.1-.36.13-.54.04-.2.06-.4.09-.61.02-.16.05-.31.07-.47.04-.37.06-.74.06-1.11v-401.5c0-.37-.02-.74-.06-1.11ZM1089.29-.72c.16.01.12.01,0,0h0ZM1089.09-.74c-.15-.02-.32-.04-.42-.05-.3-.05-.6-.12-.9-.18-.58-.13-1.14-.3-1.7-.5l-22.27-22.27c.19-.02.37-.04.56-.06,2-.2,3.99-.38,5.99-.53,3.94-.29,7.89-.48,11.84-.6,7.97-.24,15.94-.19,23.91-.12,2.39.02,4.77.04,7.16.06V-.59c-4.21-.86-8.69-.61-12.92-.33-2.64.17-5.29.38-7.94.37-1.11,0-2.21-.09-3.31-.18ZM810.59-276.95c-.12-17.05-1.13-34.09-1.68-51.12-.1-3.2-.19-6.39-.25-9.59h28.64c.02.14.05.27.07.41.06.37.12.74.18,1.11.03.21.11.48.15.75-.02.04-.02.11,0,.25.02.19.05.38.07.57.05.43.1.85.15,1.28.09.81.17,1.63.23,2.44.14,1.65.24,3.31.32,4.97.3,6.83.12,13.68-.15,20.5-.27,6.79-.65,13.59-.78,20.39-.13,6.96.35,13.9.4,20.86.04,4.8-.05,9.61-.13,14.41l-27.22-27.22ZM802.08-285.46l-24.37-24.37c.09-9.29,1.2-18.7-.86-27.84h23.43c.34,17.41,1.41,34.8,1.79,52.21ZM845.88-282.68c.12-13.72,1.45-27.41,1.04-41.14-.14-4.62-.48-9.26-1.16-13.85h26.47c.2.91.37,1.82.51,2.74.04.23.06.47.1.71-.01-.06-.02-.12-.03-.17,0,0,0,0,0,.01.05.4.09.8.13,1.21.1,1.07.18,2.14.24,3.21.1,1.96.13,3.92.12,5.87-.05,7.86-.88,15.7-.9,23.56-.01,4.69.38,9.4.63,14.08.28,5.31.55,10.62.71,15.94.17,5.39.23,10.78.08,16.16-.15,5.32-.32,10.61-.12,15.94.32,8.66,1.12,17.3,1.41,25.96l-29.04-29.04c.06-6.58.25-13.16.26-19.74.01-7.16-.5-14.3-.44-21.46ZM882.23-234.67c-.28-5.45-.4-10.9-.17-16.35.23-5.36.25-10.73.13-16.1-.12-5.43-.37-10.85-.64-16.28-.26-5.07-.65-10.15-.77-15.22-.18-7.71.67-15.42.85-23.13.11-4.84-.03-9.66-.69-14.46-.07-.49-.14-.97-.22-1.46h24.05c.71,2.28,1.25,4.61,1.68,6.96.1.55.2,1.11.28,1.67.05.3.09.6.14.91.01.07.05.34.08.55.02.19.06.46.07.56.04.31.07.62.11.93.07.62.13,1.24.19,1.87.24,2.58.4,5.16.49,7.75.37,9.93-.16,19.87.1,29.8.16,5.99.57,11.98.85,17.97.3,6.44.58,12.87.75,19.31.35,12.97.24,25.96.49,38.93.22,11.18.49,22.35.61,33.53l-27.07-27.07c.19-10.24-.79-20.45-1.31-30.67ZM919.04-168.5c-.03-12.43-.32-24.86-.58-37.29-.14-6.58-.26-13.16-.32-19.74-.06-6.52-.02-13.05-.16-19.57-.26-12.97-1-25.92-1.61-38.88-.47-9.86.11-19.74-.11-29.61-.12-5.4-.48-10.77-1.23-16.12-.37-2.67-.87-5.34-1.56-7.96h27.64c.09.61.18,1.22.27,1.82.05.33.1.66.14.99-.13-1.1,0,.03.03.21.19,1.44.36,2.88.52,4.32.62,5.55,1.03,11.12,1.32,16.7.57,11.09.6,22.2.59,33.31-.02,11.2-.09,22.41.27,33.61.33,10.22.81,20.44,1.2,30.66.37,9.88.7,19.76.77,29.64l-22.53,22.53-4.63-4.63ZM1008.96-337.67c.01.15.03.31.04.46.07.82.1,1.64.12,2.46.08,3.21-.1,6.43-.25,9.63-.16,3.25-.24,6.49-.1,9.75.17,4.06.55,8.11.93,12.15.37,3.98.73,7.97.88,11.96.15,4.02-.02,8.02-.22,12.03-.2,4.03-.45,8.05-.59,12.08-.14,4.03-.12,8.06-.12,12.1v5.21l-24.95,24.95c-.08-.96-.14-1.92-.19-2.88-.19-4.33-.06-8.67.17-13,.22-4.36.55-8.72.76-13.08.2-4.2.2-8.37.06-12.57-.34-9.99.21-19.98.56-29.97.16-4.7.35-9.42.23-14.13-.09-3.81-.42-7.61-.76-11.4-.4-4.4-.85-8.79-1.14-13.2-.06-.84-.11-1.69-.15-2.54h24.72ZM1071.69-317.12c.13,1.64.24,3.27.32,4.91l-21.45,21.45c0-.42-.01-.84-.01-1.25,0-4.55.3-9.1.6-13.64.62-9.31,1.42-18.76-.12-28.02-.23-1.36-.54-2.69-.93-3.99h20.44c-.3,6.85.63,13.85,1.16,20.55ZM1097.72-159.43c-8.37-.45-16.77-.37-25.14-.87-14.37-.86-28.75-1.35-43.14-1.62-14.38-.27-28.76-.33-43.15-.31-10.93.01-21.86.06-32.79.1l29.22-29.22c16.13-.11,32.26.71,48.36,1.74,9.56.61,19.12,1.3,28.69,1.91,9.2.59,18.42,1.23,27.64,1.24,4.91,0,9.83-.07,14.74.12,2.44.1,4.88.26,7.31.55.08,0,1.06.11.33.04-.71-.07.5.07.62.09.58.09,1.16.19,1.74.29.37.07.74.15,1.11.22v27.47c-.57-.12-1.14-.24-1.72-.34-4.56-.8-9.2-1.18-13.83-1.43ZM1056.74-265.36c3.86,1.17,7.91,1.75,11.92,2.12,5.04.47,10.11.53,15.17.55,4.82.02,9.64-.03,14.45.28,3.51.22,7.03.16,10.55.35,1.12.06,2.24.14,3.35.25.22.02.43.05.65.07.14.02.29.05.43.08v29.73c-2.29-.32-4.61-.53-6.92-.67-5.02-.3-10.06-.28-15.06-.73-16.08-1.46-32.22-1.82-48.35-2.37-5.08-.17-10.16-.37-15.23-.62l29.04-29.04ZM1019.78-228.4c14.55.93,29.14,1.2,43.71,1.76,8.01.31,16.01.7,24,1.35,2.75.22,5.5.49,8.26.61,2.59.11,5.18.19,7.78.3,1.52.07,3.03.15,4.55.26.71.05,1.41.11,2.12.18.36.04.71.07,1.07.11.19.02.61.08.77.11.41.07.82.13,1.23.21v29.86c-7.26-1.25-14.74-1.21-22.08-1.19-9.18.03-18.32-.43-27.49-.99-19.3-1.19-38.57-2.77-57.9-3.51-4.9-.19-9.8-.32-14.71-.38l28.69-28.69ZM1113.26-270.07c-.47-.05-.93-.1-1.4-.15-3.84-.38-7.71-.35-11.56-.47-4.42-.14-8.82-.35-13.24-.37-5.21-.02-10.42,0-15.61-.34-1.44-.09-2.87-.22-4.3-.38-.27-.03-.54-.06-.81-.1.05,0,.1.02.16.03-.1-.02-.19-.03-.29-.04,0,0,0,0-.01,0-.05,0-.11-.01-.16-.02-.02,0-.05,0-.07,0-.66-.1-1.32-.2-1.98-.32-.1-.02-.2-.04-.3-.06l20.89-20.89c9.56-.45,19.13-1.78,28.69-1.02v24.14ZM1041.26-337.67c.02.05.06.13.09.21.05.12.1.24.12.3.72,1.91,1.19,3.9,1.51,5.92.03.2.06.4.09.59.06.56.13,1.12.18,1.69.1,1.15.17,2.31.22,3.47.09,2.4.07,4.81,0,7.21-.29,9.81-1.64,19.62-1.24,29.44.08,1.96.25,3.93.54,5.88l-24.77,24.77c0-2.08.01-4.15.06-6.23.09-4.04.32-8.08.53-12.11.21-4,.46-8,.42-12.01-.04-4.06-.35-8.11-.71-12.15-.67-7.47-1.47-14.94-1.15-22.45.16-3.6.4-7.2.36-10.81-.01-1.22-.05-2.47-.15-3.71h23.89ZM975.93-336.52c.22,3.96.61,7.91.97,11.86.36,3.89.73,7.79.92,11.7.21,4.38.1,8.77-.03,13.15-.29,10-.9,20-.75,30.01.07,4.41.3,8.8.14,13.21-.15,4.38-.47,8.75-.73,13.12-.5,8.58-.92,17.48.88,25.95l-22.86,22.86c-.31-16.19-1.14-32.38-1.75-48.56-.84-22.34.11-44.7-.82-67.04-.38-9.16-1.12-18.32-2.4-27.4h26.37c.02.38.04.77.06,1.15ZM945.11-153.73c11.83-.02,23.66-.08,35.49-.1,14.27-.03,28.54-.01,42.8.2,14.23.21,28.46.62,42.67,1.36,4.78.25,9.55.59,14.33.7,4.29.1,8.57.17,12.86.33,4.46.16,8.92.4,13.35.93.22.03.45.05.67.08.47.07.94.14,1.4.21.91.15,1.82.32,2.71.52.63.14,1.25.3,1.87.48v35.91c-17.92-.19-35.82-1.29-53.69-2.66-19.53-1.5-39.04-3.3-58.59-4.54-11.08-.7-22.17-1.22-33.27-1.4-.55,0-1.08.11-1.59.32l-26.67-26.67,5.65-5.65ZM1026.91-110.06c19.5,1.57,38.99,3.32,58.53,4.37,9.27.5,18.54.83,27.82.93v33.01c-11.76.05-23.51.18-35.27.17-14.94,0-29.88-.21-44.8-1.04-6.62-.37-13.24-.88-19.84-1.57l-39.02-39.02c17.55.5,35.07,1.74,52.58,3.15ZM1052.79-63.48c14.81.36,29.63.3,44.44.2,5.34-.04,10.69-.07,16.03-.09v30.01c-13.96-.09-27.94-.38-41.88.59-4.84.34-9.66.85-14.46,1.51-.16.02-.33.08-.5.15l-33.84-33.84c10.05.8,20.13,1.24,30.21,1.48ZM1113.26-302.6c-1.92-.14-3.85-.19-5.78-.2-4.65,0-9.29.29-13.92.61l19.7-19.7v19.29ZM1079.84-320.03c-.52-5.87-1.13-11.74-.87-17.64h18.5l-17.64,17.64ZM768.39-337.67c0,.36.04.74.13,1.11.29,1.13.53,2.27.71,3.42,0,.04.03.19.05.34.02.14.06.45.07.52.07.62.13,1.23.18,1.85.19,2.4.23,4.82.2,7.23-.02,1.75-.08,3.49-.15,5.24l-19.71-19.71h18.52ZM734.08-321.88l173.8,173.8L734.08,25.72v-347.6ZM749.87,41.51l173.8-173.8,173.8,173.8h-347.6ZM1095.31,7.77c1.52-.07,3.02-.19,4.49-.28,2.68-.18,5.36-.35,8.04-.26.69.02,1.38.06,2.07.13.3.03,1.5.24.15,0,.25.04.5.07.74.12.83.14,1.65.34,2.46.59v17.66l-17.95-17.95Z"/>
          <path class="cls-3" d="M870.86,1287.43c-6.08-3.79-2.15-14.78,3.92-15.85,7.06-1.24,11.45,6.3,9.25,12.05-1.96,5.14-7.79,7.16-13.17,3.81Z"/>
          <path class="cls-3" d="M902.1,1227.8c-6.08-3.79-2.15-14.78,3.92-15.85,7.06-1.24,11.45,6.3,9.25,12.05-1.96,5.14-7.79,7.16-13.17,3.81Z"/>
          <path class="cls-3" d="M954.8,1266.34c-6.08-3.79-2.15-14.78,3.92-15.85,7.06-1.24,11.45,6.3,9.25,12.05-1.96,5.14-7.79,7.16-13.17,3.81Z"/>
        </g>
        <rect class="cls-2" x="1059.65" y="1300.34" width="1984.86" height="1984.86"/>
        <rect class="cls-2" x="-860.35" y="1300.34" width="1984.86" height="1984.86"/>
      </g>
      <g class="cls-6">
        <rect class="cls-2" x="1059.65" y="-619.66" width="1984.86" height="1984.86"/>
        <rect class="cls-2" x="-860.35" y="-619.66" width="1984.86" height="1984.86"/>
        <rect class="cls-2" x="1059.65" y="1300.34" width="1984.86" height="1984.86"/>
        <g>
          <rect class="cls-2" x="-860.35" y="1300.34" width="1984.86" height="1984.86"/>
          <path class="cls-3" d="M-640.33,1583.51c-9.4,7.06-19.82,48.13-16.72,63.67,2.01,10.05,44.25,15.3,73.86,25.92,42.03,15.07,85.27,31.72,125.5,50.86,55.22,26.27,100.85,70.51,153.62,101.87,57.96,34.45,111.54,75.18,168.77,111.76-11.8,18.64-41.11,35.74-55.39,41.58,15.2,5.52,46.87-3.88,61.94-7.31,13.81-3.14,27.76-3.43,41.75-5.21,15.79,8.84,31.98,17.21,48.74,24.88,45.24,20.72,87.62,44.71,130.8,68.46,41.6,22.88,84.63,39,126.41,57.19,8.94-24.85,11.95-57.69,18.04-80.41,6.23-23.23,19.36-16.87-7.97-35.62-13.25-9.09-34.61-15.19-49.07-21.83-30.02-13.8-63.88-19.46-91.64-36.7-25.09-15.58-42.68-38.09-68.41-53.46-28.99-17.32-56.65-42.28-87.89-55.69-24.53-10.54-54.33-10.75-79.3-21.27-42.41-17.88-111-61.79-137.42-98.73-12.55-17.54-17.25-40.84-29.64-58.91-18.87-27.5-46.51-28.35-68.49-49.33,1.55,26.65,43.23,36.68,42.2,65.22-40.21-8.38-75.19-37.3-116.6-46.05-47.88-10.11-93.07-24.6-138.95-40.4-19.31-6.65-26.09-14.08-44.17-.49ZM57.13,1999.36c39.08,17.81,87.08,35.41,113.89,71.81-35.08-19.5-73.19-31.9-108.8-51.18-30.22-16.36-68.98-31.23-94.83-54.18l7.5,1.18c32.29,7.23,51.38,18.31,82.25,32.38ZM-28.84,1891.69c11.44,7.84,22.5,15.51,33.11,24.76,7.97,6.94,16.06,13.98,24.85,19.84,6.5,4.33,17.18,6.68,19.51,14.26-9.13-1.87-17.12-9.44-25.75-13.47-10.72-5-35.34-19.3-45.27-25.79-42.5-27.79-66.78-43.11-94.26-57.07,29.69,9.98,60.88,19.01,87.81,37.47ZM-208.15,1845.44c24.38,18.03,66.77,44.35,80.94,67.14.21.16.41.31.61.47l.39,1.2c-.31-.55-.66-1.11-1.01-1.67-35.98-27.84-71.8-51.59-108.53-76.76-17.98-12.32-46.75-21.29-59.53-38.41,30.05-.4,63.68,30.68,87.12,48.03ZM-375.94,1697.86c36.67,22.58,70.51,51.96,107.69,73.03-15.51.06-30.58-10.28-43.61-18.19-.64-.39-1.28-.77-1.91-1.15-16.39-9.76-32.08-20.62-48.36-30.57-17.25-10.54-34.68-20.8-52.1-31.06-8.78-5.17-17.57-10.34-26.34-15.54-4.43-2.63-8.85-5.26-13.26-7.91-2.31-1.39-4.62-2.78-6.92-4.17-.84-.51-5.08-3.83-5.87-3.56,28.78-9.73,68.21,25.28,90.68,39.11ZM-447.34,1710.84c.41.24.71.48.81.7-.27-.23-.54-.47-.81-.7-2.37-1.39-9.08-3.07-10.56-3.68-3.54-1.47-7.04-3.05-10.52-4.66-7.64-3.54-15.13-7.42-22.42-11.63-2.29-1.32-4.51-2.73-6.69-4.19-6.49-4.34-12.65-9.09-19.35-13.12-5.16-3.11-10.7-5.54-16.31-7.72-2.85-1.11-5.73-2.16-8.6-3.2-1.5-.55-3.01-1.09-4.51-1.64-.7-.26-3.15-1.64-3.81-1.42,25.68-8.49,70.59,23.44,102.76,51.27Z"/>
          <path class="cls-3" d="M1135.53,1570.07c-.02-.16-.05-.32-.07-.47-.03-.2-.05-.41-.09-.61-.04-.18-.09-.36-.13-.54-.04-.17-.08-.35-.13-.52-.05-.18-.12-.35-.18-.53-.06-.17-.12-.34-.18-.5-.07-.17-.15-.32-.23-.49-.08-.17-.15-.34-.24-.5-.08-.16-.18-.31-.27-.46-.1-.16-.19-.32-.29-.48-.12-.17-.24-.34-.37-.5-.09-.12-.18-.25-.28-.37-.47-.57-.99-1.09-1.56-1.56-.12-.1-.24-.18-.36-.27-.17-.13-.34-.26-.52-.38-.15-.1-.31-.19-.46-.28-.16-.1-.31-.2-.48-.28-.16-.08-.32-.15-.48-.23-.17-.08-.34-.16-.51-.24-.16-.06-.31-.12-.47-.17-.19-.07-.37-.14-.56-.2-.16-.05-.32-.08-.47-.12-.19-.05-.39-.1-.58-.14-.18-.04-.36-.06-.54-.08-.18-.03-.36-.06-.54-.08-.32-.03-.65-.05-.97-.05-.04,0-.08,0-.13,0h-401.51s-.08,0-.13,0c-.32,0-.65.02-.97.05-.18.02-.36.05-.54.08-.18.03-.36.05-.54.08-.2.04-.39.09-.58.14-.16.04-.32.07-.47.12-.19.06-.37.13-.56.2-.16.06-.32.11-.47.17-.17.07-.34.16-.51.24-.16.08-.32.15-.48.23-.16.09-.32.19-.48.28-.15.09-.31.18-.46.28-.18.12-.35.25-.52.38-.12.09-.24.17-.36.27-.57.47-1.09.99-1.56,1.56-.1.12-.19.25-.28.37-.13.17-.25.33-.37.5-.1.16-.19.32-.29.48-.09.15-.19.3-.27.46-.09.16-.16.33-.24.5-.08.16-.16.32-.23.49-.07.17-.12.33-.18.5-.06.18-.13.35-.18.53-.05.17-.09.34-.13.52-.05.18-.1.36-.13.54-.04.2-.06.4-.09.61-.02.16-.05.31-.07.47-.04.37-.06.74-.06,1.11v401.5c0,.37.02.74.06,1.11.02.16.05.32.07.47.03.2.05.41.09.61.04.18.09.36.13.54.04.17.08.35.13.52.05.18.12.35.18.53.06.17.12.34.18.5.07.17.15.32.23.49.08.17.15.34.24.5.08.16.18.31.27.46.1.16.18.32.29.48.12.17.24.34.37.5.09.12.18.25.28.37.47.57.99,1.09,1.56,1.56.12.1.24.18.36.27.17.13.34.26.51.38.15.1.31.19.46.28.16.09.31.19.47.28.16.09.33.16.49.24.17.08.33.16.5.23.16.07.32.12.49.18.18.07.36.13.54.19.16.05.33.09.5.13.19.05.37.1.56.14.19.04.39.06.58.09.17.02.33.06.5.07.37.04.73.06,1.1.06h401.51c.37,0,.73-.02,1.1-.06.17-.02.33-.05.5-.07.19-.03.39-.05.58-.09.19-.04.37-.09.56-.14.17-.04.33-.08.5-.13.18-.06.36-.13.54-.19.16-.06.33-.11.49-.18.17-.07.33-.15.5-.23.16-.08.33-.15.49-.24.16-.09.32-.19.47-.28.16-.09.31-.18.46-.28.18-.12.34-.25.51-.38.12-.09.25-.18.36-.27.57-.47,1.09-.99,1.56-1.56.1-.12.19-.25.28-.37.13-.17.25-.33.37-.5.1-.16.19-.32.29-.48.09-.15.19-.3.27-.46.09-.16.16-.33.24-.5.08-.16.16-.32.23-.49.07-.17.12-.33.18-.5.06-.18.13-.35.18-.53.05-.17.09-.34.13-.52.05-.18.1-.36.13-.54.04-.2.06-.4.09-.61.02-.16.05-.31.07-.47.04-.37.06-.74.06-1.11v-401.5c0-.37-.02-.74-.06-1.11ZM1089.29,1919.28c.16.01.12.01,0,0h0ZM1089.09,1919.26c-.15-.02-.32-.04-.42-.05-.3-.05-.6-.12-.9-.18-.58-.13-1.14-.3-1.7-.5l-22.27-22.27c.19-.02.37-.04.56-.06,2-.2,3.99-.38,5.99-.53,3.94-.29,7.89-.48,11.84-.6,7.97-.24,15.94-.19,23.91-.12,2.39.02,4.77.04,7.16.06v24.4c-4.21-.86-8.69-.61-12.92-.33-2.64.17-5.29.38-7.94.37-1.11,0-2.21-.09-3.31-.18ZM810.59,1643.05c-.12-17.05-1.13-34.09-1.68-51.12-.1-3.2-.19-6.39-.25-9.59h28.64c.02.14.05.27.07.41.06.37.12.74.18,1.11.03.21.11.48.15.75-.02.04-.02.11,0,.25.02.19.05.38.07.57.05.43.1.85.15,1.28.09.81.17,1.63.23,2.44.14,1.65.24,3.31.32,4.97.3,6.83.12,13.68-.15,20.5-.27,6.79-.65,13.59-.78,20.39-.13,6.96.35,13.9.4,20.86.04,4.8-.05,9.61-.13,14.41l-27.22-27.22ZM802.08,1634.54l-24.37-24.37c.09-9.29,1.2-18.7-.86-27.84h23.43c.34,17.41,1.41,34.8,1.79,52.21ZM845.88,1637.32c.12-13.72,1.45-27.41,1.04-41.14-.14-4.62-.48-9.26-1.16-13.85h26.47c.2.91.37,1.82.51,2.74.04.23.06.47.1.71-.01-.06-.02-.12-.03-.17,0,0,0,0,0,.01.05.4.09.8.13,1.21.1,1.07.18,2.14.24,3.21.1,1.96.13,3.92.12,5.87-.05,7.86-.88,15.7-.9,23.56-.01,4.69.38,9.4.63,14.08.28,5.31.55,10.62.71,15.94.17,5.39.23,10.78.08,16.16-.15,5.32-.32,10.61-.12,15.94.32,8.66,1.12,17.3,1.41,25.96l-29.04-29.04c.06-6.58.25-13.16.26-19.74.01-7.16-.5-14.3-.44-21.46ZM882.23,1685.33c-.28-5.45-.4-10.9-.17-16.35.23-5.36.25-10.73.13-16.1-.12-5.43-.37-10.85-.64-16.28-.26-5.07-.65-10.15-.77-15.22-.18-7.71.67-15.42.85-23.13.11-4.84-.03-9.66-.69-14.46-.07-.49-.14-.97-.22-1.46h24.05c.71,2.28,1.25,4.61,1.68,6.96.1.55.2,1.11.28,1.67.05.3.09.6.14.91.01.07.05.34.08.55.02.19.06.46.07.56.04.31.07.62.11.93.07.62.13,1.24.19,1.87.24,2.58.4,5.16.49,7.75.37,9.93-.16,19.87.1,29.8.16,5.99.57,11.98.85,17.97.3,6.44.58,12.87.75,19.31.35,12.97.24,25.96.49,38.93.22,11.18.49,22.35.61,33.53l-27.07-27.07c.19-10.24-.79-20.45-1.31-30.67ZM919.04,1751.5c-.03-12.43-.32-24.86-.58-37.29-.14-6.58-.26-13.16-.32-19.74-.06-6.52-.02-13.05-.16-19.57-.26-12.97-1-25.92-1.61-38.88-.47-9.86.11-19.74-.11-29.61-.12-5.4-.48-10.77-1.23-16.12-.37-2.67-.87-5.34-1.56-7.96h27.64c.09.61.18,1.22.27,1.82.05.33.1.66.14.99-.13-1.1,0,.03.03.21.19,1.44.36,2.88.52,4.32.62,5.55,1.03,11.12,1.32,16.7.57,11.09.6,22.2.59,33.31-.02,11.2-.09,22.41.27,33.61.33,10.22.81,20.44,1.2,30.66.37,9.88.7,19.76.77,29.64l-22.53,22.53-4.63-4.63ZM1008.96,1582.33c.01.15.03.31.04.46.07.82.1,1.64.12,2.46.08,3.21-.1,6.43-.25,9.63-.16,3.25-.24,6.49-.1,9.75.17,4.06.55,8.11.93,12.15.37,3.98.73,7.97.88,11.96.15,4.02-.02,8.02-.22,12.03-.2,4.03-.45,8.05-.59,12.08-.14,4.03-.12,8.06-.12,12.1v5.21l-24.95,24.95c-.08-.96-.14-1.92-.19-2.88-.19-4.33-.06-8.67.17-13,.22-4.36.55-8.72.76-13.08.2-4.2.2-8.37.06-12.57-.34-9.99.21-19.98.56-29.97.16-4.7.35-9.42.23-14.13-.09-3.81-.42-7.61-.76-11.4-.4-4.4-.85-8.79-1.14-13.2-.06-.84-.11-1.69-.15-2.54h24.72ZM1071.69,1602.88c.13,1.64.24,3.27.32,4.91l-21.45,21.45c0-.42-.01-.84-.01-1.25,0-4.55.3-9.1.6-13.64.62-9.31,1.42-18.76-.12-28.02-.23-1.36-.54-2.69-.93-3.99h20.44c-.3,6.85.63,13.85,1.16,20.55ZM1097.72,1760.57c-8.37-.45-16.77-.37-25.14-.87-14.37-.86-28.75-1.35-43.14-1.62-14.38-.27-28.76-.33-43.15-.31-10.93.01-21.86.06-32.79.1l29.22-29.22c16.13-.11,32.26.71,48.36,1.74,9.56.61,19.12,1.3,28.69,1.91,9.2.59,18.42,1.23,27.64,1.24,4.91,0,9.83-.07,14.74.12,2.44.1,4.88.26,7.31.55.08,0,1.06.11.33.04-.71-.07.5.07.62.09.58.09,1.16.19,1.74.29.37.07.74.15,1.11.22v27.47c-.57-.12-1.14-.24-1.72-.34-4.56-.8-9.2-1.18-13.83-1.43ZM1056.74,1654.64c3.86,1.17,7.91,1.75,11.92,2.12,5.04.47,10.11.53,15.17.55,4.82.02,9.64-.03,14.45.28,3.51.22,7.03.16,10.55.35,1.12.06,2.24.14,3.35.25.22.02.43.05.65.07.14.02.29.05.43.08v29.73c-2.29-.32-4.61-.53-6.92-.67-5.02-.3-10.06-.28-15.06-.73-16.08-1.46-32.22-1.82-48.35-2.37-5.08-.17-10.16-.37-15.23-.62l29.04-29.04ZM1019.78,1691.6c14.55.93,29.14,1.2,43.71,1.76,8.01.31,16.01.7,24,1.35,2.75.22,5.5.49,8.26.61,2.59.11,5.18.19,7.78.3,1.52.07,3.03.15,4.55.26.71.05,1.41.11,2.12.18.36.04.71.07,1.07.11.19.02.61.08.77.11.41.07.82.13,1.23.21v29.86c-7.26-1.25-14.74-1.21-22.08-1.19-9.18.03-18.32-.43-27.49-.99-19.3-1.19-38.57-2.77-57.9-3.51-4.9-.19-9.8-.32-14.71-.38l28.69-28.69ZM1113.26,1649.93c-.47-.05-.93-.1-1.4-.15-3.84-.38-7.71-.35-11.56-.47-4.42-.14-8.82-.35-13.24-.37-5.21-.02-10.42,0-15.61-.34-1.44-.09-2.87-.22-4.3-.38-.27-.03-.54-.06-.81-.1.05,0,.1.02.16.03-.1-.02-.19-.03-.29-.04,0,0,0,0-.01,0-.05,0-.11-.01-.16-.02-.02,0-.05,0-.07,0-.66-.1-1.32-.2-1.98-.32-.1-.02-.2-.04-.3-.06l20.89-20.89c9.56-.45,19.13-1.78,28.69-1.02v24.14ZM1041.26,1582.33c.02.05.06.13.09.21.05.12.1.24.12.3.72,1.91,1.19,3.9,1.51,5.92.03.2.06.4.09.59.06.56.13,1.12.18,1.69.1,1.15.17,2.31.22,3.47.09,2.4.07,4.81,0,7.21-.29,9.81-1.64,19.62-1.24,29.44.08,1.96.25,3.93.54,5.88l-24.77,24.77c0-2.08.01-4.15.06-6.23.09-4.04.32-8.08.53-12.11.21-4,.46-8,.42-12.01-.04-4.06-.35-8.11-.71-12.15-.67-7.47-1.47-14.94-1.15-22.45.16-3.6.4-7.2.36-10.81-.01-1.22-.05-2.47-.15-3.71h23.89ZM975.93,1583.48c.22,3.96.61,7.91.97,11.86.36,3.89.73,7.79.92,11.7.21,4.38.1,8.77-.03,13.15-.29,10-.9,20-.75,30.01.07,4.41.3,8.8.14,13.21-.15,4.38-.47,8.75-.73,13.12-.5,8.58-.92,17.48.88,25.95l-22.86,22.86c-.31-16.19-1.14-32.38-1.75-48.56-.84-22.34.11-44.7-.82-67.04-.38-9.16-1.12-18.32-2.4-27.4h26.37c.02.38.04.77.06,1.15ZM945.11,1766.27c11.83-.02,23.66-.08,35.49-.1,14.27-.03,28.54-.01,42.8.2,14.23.21,28.46.62,42.67,1.36,4.78.25,9.55.59,14.33.7,4.29.1,8.57.17,12.86.33,4.46.16,8.92.4,13.35.93.22.03.45.05.67.08.47.07.94.14,1.4.21.91.15,1.82.32,2.71.52.63.14,1.25.3,1.87.48v35.91c-17.92-.19-35.82-1.29-53.69-2.66-19.53-1.5-39.04-3.3-58.59-4.54-11.08-.7-22.17-1.22-33.27-1.4-.55,0-1.08.11-1.59.32l-26.67-26.67,5.65-5.65ZM1026.91,1809.94c19.5,1.57,38.99,3.32,58.53,4.37,9.27.5,18.54.83,27.82.93v33.01c-11.76.05-23.51.18-35.27.17-14.94,0-29.88-.21-44.8-1.04-6.62-.37-13.24-.88-19.84-1.57l-39.02-39.02c17.55.5,35.07,1.74,52.58,3.15ZM1052.79,1856.52c14.81.36,29.63.3,44.44.2,5.34-.04,10.69-.07,16.03-.09v30.01c-13.96-.09-27.94-.38-41.88.59-4.84.34-9.66.85-14.46,1.51-.16.02-.33.08-.5.15l-33.84-33.84c10.05.8,20.13,1.24,30.21,1.48ZM1113.26,1617.4c-1.92-.14-3.85-.19-5.78-.2-4.65,0-9.29.29-13.92.61l19.7-19.7v19.29ZM1079.84,1599.97c-.52-5.87-1.13-11.74-.87-17.64h18.5l-17.64,17.64ZM768.39,1582.33c0,.36.04.74.13,1.11.29,1.13.53,2.27.71,3.42,0,.04.03.19.05.34.02.14.06.45.07.52.07.62.13,1.23.18,1.85.19,2.4.23,4.82.2,7.23-.02,1.75-.08,3.49-.15,5.24l-19.71-19.71h18.52ZM734.08,1598.12l173.8,173.8-173.8,173.8v-347.6ZM749.87,1961.51l173.8-173.8,173.8,173.8h-347.6ZM1095.31,1927.77c1.52-.07,3.02-.19,4.49-.28,2.68-.18,5.36-.35,8.04-.26.69.02,1.38.06,2.07.13.3.03,1.5.24.15,0,.25.04.5.07.74.12.83.14,1.65.34,2.46.59v17.66l-17.95-17.95Z"/>
          <path class="cls-3" d="M518.95,1361.42c-.02-.16-.05-.32-.07-.47-.03-.2-.05-.41-.09-.61-.04-.18-.09-.36-.13-.54-.04-.17-.08-.35-.13-.52-.05-.18-.12-.35-.18-.53-.06-.17-.12-.34-.18-.5-.07-.17-.15-.32-.23-.49-.08-.17-.15-.34-.24-.5-.08-.16-.18-.31-.27-.46-.1-.16-.19-.32-.29-.48-.12-.17-.24-.34-.37-.5-.09-.12-.18-.25-.28-.37-.47-.57-.99-1.09-1.56-1.56-.12-.1-.24-.18-.36-.27-.17-.13-.34-.26-.52-.38-.15-.1-.31-.19-.46-.28-.16-.1-.31-.2-.48-.28-.16-.08-.32-.15-.48-.23-.17-.08-.34-.16-.51-.24-.16-.06-.31-.12-.47-.17-.19-.07-.37-.14-.56-.2-.16-.05-.32-.08-.47-.12-.19-.05-.39-.1-.58-.14-.18-.04-.36-.06-.54-.08-.18-.03-.36-.06-.54-.08-.32-.03-.65-.05-.97-.05-.04,0-.08,0-.13,0H106.33s-.08,0-.13,0c-.32,0-.65.02-.97.05-.18.02-.36.05-.54.08-.18.03-.36.05-.54.08-.2.04-.39.09-.58.14-.16.04-.32.07-.47.12-.19.06-.37.13-.56.2-.16.06-.32.11-.47.17-.17.07-.34.16-.51.24-.16.08-.32.15-.48.23-.16.09-.32.19-.48.28-.15.09-.31.18-.46.28-.18.12-.35.25-.52.38-.12.09-.24.17-.36.27-.57.47-1.09.99-1.56,1.56-.1.12-.19.25-.28.37-.13.17-.25.33-.37.5-.1.16-.19.32-.29.48-.09.15-.19.3-.27.46-.09.16-.16.33-.24.5-.08.16-.16.32-.23.49-.07.17-.12.33-.18.5-.06.18-.13.35-.18.53-.05.17-.09.34-.13.52-.05.18-.1.36-.13.54-.04.2-.06.4-.09.61-.02.16-.05.31-.07.47-.04.37-.06.74-.06,1.11v401.5c0,.37.02.74.06,1.11.02.16.05.32.07.47.03.2.05.41.09.61.04.18.09.36.13.54.04.17.08.35.13.52.05.18.12.35.18.53.06.17.12.34.18.5.07.17.15.32.23.49.08.17.15.34.24.5.08.16.18.31.27.46.1.16.18.32.29.48.12.17.24.34.37.5.09.12.18.25.28.37.47.57.99,1.09,1.56,1.56.12.1.24.18.36.27.17.13.34.26.51.38.15.1.31.19.46.28.16.09.31.19.47.28.16.09.33.16.49.24.17.08.33.16.5.23.16.07.32.12.49.18.18.07.36.13.54.19.16.05.33.09.5.13.19.05.37.1.56.14.19.04.39.06.58.09.17.02.33.06.5.07.37.04.73.06,1.1.06h401.51c.37,0,.73-.02,1.1-.06.17-.02.33-.05.5-.07.19-.03.39-.05.58-.09.19-.04.37-.09.56-.14.17-.04.33-.08.5-.13.18-.06.36-.13.54-.19.16-.06.33-.11.49-.18.17-.07.33-.15.5-.23.16-.08.33-.15.49-.24.16-.09.32-.19.47-.28.16-.09.31-.18.46-.28.18-.12.34-.25.51-.38.12-.09.25-.18.36-.27.57-.47,1.09-.99,1.56-1.56.1-.12.19-.25.28-.37.13-.17.25-.33.37-.5.1-.16.19-.32.29-.48.09-.15.19-.3.27-.46.09-.16.16-.33.24-.5.08-.16.16-.32.23-.49.07-.17.12-.33.18-.5.06-.18.13-.35.18-.53.05-.17.09-.34.13-.52.05-.18.1-.36.13-.54.04-.2.06-.4.09-.61.02-.16.05-.31.07-.47.04-.37.06-.74.06-1.11v-401.5c0-.37-.02-.74-.06-1.11ZM472.71,1710.63c.16.01.12.01,0,0h0ZM472.51,1710.61c-.15-.02-.32-.04-.42-.05-.3-.05-.6-.12-.9-.18-.58-.13-1.14-.3-1.7-.5l-22.27-22.27c.19-.02.37-.04.56-.06,2-.2,3.99-.38,5.99-.53,3.94-.29,7.89-.48,11.84-.6,7.97-.24,15.94-.19,23.91-.12,2.39.02,4.77.04,7.16.06v24.4c-4.21-.86-8.69-.61-12.92-.33-2.64.17-5.29.38-7.94.37-1.11,0-2.21-.09-3.31-.18ZM194,1434.4c-.12-17.05-1.13-34.09-1.68-51.12-.1-3.2-.19-6.39-.25-9.59h28.64c.02.14.05.27.07.41.06.37.12.74.18,1.11.03.21.11.48.15.75-.02.04-.02.11,0,.25.02.19.05.38.07.57.05.43.1.85.15,1.28.09.81.17,1.63.23,2.44.14,1.65.24,3.31.32,4.97.3,6.83.12,13.68-.15,20.5-.27,6.79-.65,13.59-.78,20.39-.13,6.96.35,13.9.4,20.86.04,4.8-.05,9.61-.13,14.41l-27.22-27.22ZM185.49,1425.89l-24.37-24.37c.09-9.29,1.2-18.7-.86-27.84h23.43c.34,17.41,1.41,34.8,1.79,52.21ZM229.29,1428.67c.12-13.72,1.45-27.41,1.04-41.14-.14-4.62-.48-9.26-1.16-13.85h26.47c.2.91.37,1.82.51,2.74.04.23.06.47.1.71-.01-.06-.02-.12-.03-.17,0,0,0,0,0,.01.05.4.09.8.13,1.21.1,1.07.18,2.14.24,3.21.1,1.96.13,3.92.12,5.87-.05,7.86-.88,15.7-.9,23.56-.01,4.69.38,9.4.63,14.08.28,5.31.55,10.62.71,15.94.17,5.39.23,10.78.08,16.16-.15,5.32-.32,10.61-.12,15.94.32,8.66,1.12,17.3,1.41,25.96l-29.04-29.04c.06-6.58.25-13.16.26-19.74.01-7.16-.5-14.3-.44-21.46ZM265.64,1476.68c-.28-5.45-.4-10.9-.17-16.35.23-5.36.25-10.73.13-16.1-.12-5.43-.37-10.85-.64-16.28-.26-5.07-.65-10.15-.77-15.22-.18-7.71.67-15.42.85-23.13.11-4.84-.03-9.66-.69-14.46-.07-.49-.14-.97-.22-1.46h24.05c.71,2.28,1.25,4.61,1.68,6.96.1.55.2,1.11.28,1.67.05.3.09.6.14.91.01.07.05.34.08.55.02.19.06.46.07.56.04.31.07.62.11.93.07.62.13,1.24.19,1.87.24,2.58.4,5.16.49,7.75.37,9.93-.16,19.87.1,29.8.16,5.99.57,11.98.85,17.97.3,6.44.58,12.87.75,19.31.35,12.97.24,25.96.49,38.93.22,11.18.49,22.35.61,33.53l-27.07-27.07c.19-10.24-.79-20.45-1.31-30.67ZM302.46,1542.85c-.03-12.43-.32-24.86-.58-37.29-.14-6.58-.26-13.16-.32-19.74-.06-6.52-.02-13.05-.16-19.57-.26-12.97-1-25.92-1.61-38.88-.47-9.86.11-19.74-.11-29.61-.12-5.4-.48-10.77-1.23-16.12-.37-2.67-.87-5.34-1.56-7.96h27.64c.09.61.18,1.22.27,1.82.05.33.1.66.14.99-.13-1.1,0,.03.03.21.19,1.44.36,2.88.52,4.32.62,5.55,1.03,11.12,1.32,16.7.57,11.09.6,22.2.59,33.31-.02,11.2-.09,22.41.27,33.61.33,10.22.81,20.44,1.2,30.66.37,9.88.7,19.76.77,29.64l-22.53,22.53-4.63-4.63ZM392.38,1373.68c.01.15.03.31.04.46.07.82.1,1.64.12,2.46.08,3.21-.1,6.43-.25,9.63-.16,3.25-.24,6.49-.1,9.75.17,4.06.55,8.11.93,12.15.37,3.98.73,7.97.88,11.96.15,4.02-.02,8.02-.22,12.03-.2,4.03-.45,8.05-.59,12.08-.14,4.03-.12,8.06-.12,12.1v5.21l-24.95,24.95c-.08-.96-.14-1.92-.19-2.88-.19-4.33-.06-8.67.17-13,.22-4.36.55-8.72.76-13.08.2-4.2.2-8.37.06-12.57-.34-9.99.21-19.98.56-29.97.16-4.7.35-9.42.23-14.13-.09-3.81-.42-7.61-.76-11.4-.4-4.4-.85-8.79-1.14-13.2-.06-.84-.11-1.69-.15-2.54h24.72ZM455.11,1394.23c.13,1.64.24,3.27.32,4.91l-21.45,21.45c0-.42-.01-.84-.01-1.25,0-4.55.3-9.1.6-13.64.62-9.31,1.42-18.76-.12-28.02-.23-1.36-.54-2.69-.93-3.99h20.44c-.3,6.85.63,13.85,1.16,20.55ZM481.13,1551.92c-8.37-.45-16.77-.37-25.14-.87-14.37-.86-28.75-1.35-43.14-1.62-14.38-.27-28.76-.33-43.15-.31-10.93.01-21.86.06-32.79.1l29.22-29.22c16.13-.11,32.26.71,48.36,1.74,9.56.61,19.12,1.3,28.69,1.91,9.2.59,18.42,1.23,27.64,1.24,4.91,0,9.83-.07,14.74.12,2.44.1,4.88.26,7.31.55.08,0,1.06.11.33.04-.71-.07.5.07.62.09.58.09,1.16.19,1.74.29.37.07.74.15,1.11.22v27.47c-.57-.12-1.14-.24-1.72-.34-4.56-.8-9.2-1.18-13.83-1.43ZM440.16,1445.99c3.86,1.17,7.91,1.75,11.92,2.12,5.04.47,10.11.53,15.17.55,4.82.02,9.64-.03,14.45.28,3.51.22,7.03.16,10.55.35,1.12.06,2.24.14,3.35.25.22.02.43.05.65.07.14.02.29.05.43.08v29.73c-2.29-.32-4.61-.53-6.92-.67-5.02-.3-10.06-.28-15.06-.73-16.08-1.46-32.22-1.82-48.35-2.37-5.08-.17-10.16-.37-15.23-.62l29.04-29.04ZM403.19,1482.96c14.55.93,29.14,1.2,43.71,1.76,8.01.31,16.01.7,24,1.35,2.75.22,5.5.49,8.26.61,2.59.11,5.18.19,7.78.3,1.52.07,3.03.15,4.55.26.71.05,1.41.11,2.12.18.36.04.71.07,1.07.11.19.02.61.08.77.11.41.07.82.13,1.23.21v29.86c-7.26-1.25-14.74-1.21-22.08-1.19-9.18.03-18.32-.43-27.49-.99-19.3-1.19-38.57-2.77-57.9-3.51-4.9-.19-9.8-.32-14.71-.38l28.69-28.69ZM496.68,1441.28c-.47-.05-.93-.1-1.4-.15-3.84-.38-7.71-.35-11.56-.47-4.42-.14-8.82-.35-13.24-.37-5.21-.02-10.42,0-15.61-.34-1.44-.09-2.87-.22-4.3-.38-.27-.03-.54-.06-.81-.1.05,0,.1.02.16.03-.1-.02-.19-.03-.29-.04,0,0,0,0-.01,0-.05,0-.11-.01-.16-.02-.02,0-.05,0-.07,0-.66-.1-1.32-.2-1.98-.32-.1-.02-.2-.04-.3-.06l20.89-20.89c9.56-.45,19.13-1.78,28.69-1.02v24.14ZM424.68,1373.68c.02.05.06.13.09.21.05.12.1.24.12.3.72,1.91,1.19,3.9,1.51,5.92.03.2.06.4.09.59.06.56.13,1.12.18,1.69.1,1.15.17,2.31.22,3.47.09,2.4.07,4.81,0,7.21-.29,9.81-1.64,19.62-1.24,29.44.08,1.96.25,3.93.54,5.88l-24.77,24.77c0-2.08.01-4.15.06-6.23.09-4.04.32-8.08.53-12.11.21-4,.46-8,.42-12.01-.04-4.06-.35-8.11-.71-12.15-.67-7.47-1.47-14.94-1.15-22.45.16-3.6.4-7.2.36-10.81-.01-1.22-.05-2.47-.15-3.71h23.89ZM359.35,1374.83c.22,3.96.61,7.91.97,11.86.36,3.89.73,7.79.92,11.7.21,4.38.1,8.77-.03,13.15-.29,10-.9,20-.75,30.01.07,4.41.3,8.8.14,13.21-.15,4.38-.47,8.75-.73,13.12-.5,8.58-.92,17.48.88,25.95l-22.86,22.86c-.31-16.19-1.14-32.38-1.75-48.56-.84-22.34.11-44.7-.82-67.04-.38-9.16-1.12-18.32-2.4-27.4h26.37c.02.38.04.77.06,1.15ZM328.53,1557.62c11.83-.02,23.66-.08,35.49-.1,14.27-.03,28.54-.01,42.8.2,14.23.21,28.46.62,42.67,1.36,4.78.25,9.55.59,14.33.7,4.29.1,8.57.17,12.86.33,4.46.16,8.92.4,13.35.93.22.03.45.05.67.08.47.07.94.14,1.4.21.91.15,1.82.32,2.71.52.63.14,1.25.3,1.87.48v35.91c-17.92-.19-35.82-1.29-53.69-2.66-19.53-1.5-39.04-3.3-58.59-4.54-11.08-.7-22.17-1.22-33.27-1.4-.55,0-1.08.11-1.59.32l-26.67-26.67,5.65-5.65ZM410.32,1601.29c19.5,1.57,38.99,3.32,58.53,4.37,9.27.5,18.54.83,27.82.93v33.01c-11.76.05-23.51.18-35.27.17-14.94,0-29.88-.21-44.8-1.04-6.62-.37-13.24-.88-19.84-1.57l-39.02-39.02c17.55.5,35.07,1.74,52.58,3.15ZM436.2,1647.87c14.81.36,29.63.3,44.44.2,5.34-.04,10.69-.07,16.03-.09v30.01c-13.96-.09-27.94-.38-41.88.59-4.84.34-9.66.85-14.46,1.51-.16.02-.33.08-.5.15l-33.84-33.84c10.05.8,20.13,1.24,30.21,1.48ZM496.68,1408.76c-1.92-.14-3.85-.19-5.78-.2-4.65,0-9.29.29-13.92.61l19.7-19.7v19.29ZM463.25,1391.32c-.52-5.87-1.13-11.74-.87-17.64h18.5l-17.64,17.64ZM151.8,1373.68c0,.36.04.74.13,1.11.29,1.13.53,2.27.71,3.42,0,.04.03.19.05.34.02.14.06.45.07.52.07.62.13,1.23.18,1.85.19,2.4.23,4.82.2,7.23-.02,1.75-.08,3.49-.15,5.24l-19.71-19.71h18.52ZM117.5,1389.47l173.8,173.8-173.8,173.8v-347.6ZM133.29,1752.86l173.8-173.8,173.8,173.8H133.29ZM478.72,1719.12c1.52-.07,3.02-.19,4.49-.28,2.68-.18,5.36-.35,8.04-.26.69.02,1.38.06,2.07.13.3.03,1.5.24.15,0,.25.04.5.07.74.12.83.14,1.65.34,2.46.59v17.66l-17.95-17.95Z"/>
        </g>
      </g>
    </g>
  </g>
</svg>