<?xml version="1.0" encoding="UTF-8"?>
<svg id="Calque_2" data-name="Calque 2" xmlns="http://www.w3.org/2000/svg" xmlns:xlink="http://www.w3.org/1999/xlink" viewBox="0 0 1920 1920">
  <defs>
    <style>
      .cls-1 {
        fill: none;
      }

      .cls-2 {
        fill: #fff1d0;
      }

      .cls-3 {
        fill: #dd9341;
      }

      .cls-4 {
        clip-path: url(#clippath-1);
      }

      .cls-5 {
        clip-path: url(#clippath-3);
      }

      .cls-6 {
        clip-path: url(#clippath-4);
      }

      .cls-7 {
        clip-path: url(#clippath-2);
      }

      .cls-8 {
        fill: #e9d389;
      }

      .cls-9 {
        clip-path: url(#clippath);
      }
    </style>
    <clipPath id="clippath">
      <rect class="cls-1" width="1920" height="1920"/>
    </clipPath>
    <clipPath id="clippath-1">
      <rect class="cls-1" x="73.56" y="-1079.3" width="1920" height="1920"/>
    </clipPath>
    <clipPath id="clippath-2">
      <rect class="cls-1" x="73.56" y="840.7" width="1920" height="1920"/>
    </clipPath>
    <clipPath id="clippath-3">
      <rect class="cls-1" x="-1846.44" y="-1079.3" width="1920" height="1920"/>
    </clipPath>
    <clipPath id="clippath-4">
      <rect class="cls-1" x="-1846.44" y="840.7" width="1920" height="1920"/>
    </clipPath>
  </defs>
  <g id="EP2_-_B" data-name="EP2 - B">
    <g class="cls-9">
      <g class="cls-4">
        <rect class="cls-8" x="-1870.44" y="814.76" width="1969.88" height="1969.88"/>
        <rect class="cls-8" x="49.56" y="814.76" width="1969.88" height="1969.88"/>
        <rect class="cls-8" x="-1870.44" y="-1105.24" width="1969.88" height="1969.88"/>
        <g>
          <rect class="cls-8" x="49.56" y="-1105.24" width="1969.88" height="1969.88"/>
          <path class="cls-2" d="M318.69,118.77c20.37,23.76,70.63,1.99,94.81-7.77,36.13-15.36,70.9-33.87,106.5-50.67,20.79-9.51,41.48-19.37,64.04-24.53,3.76-.81,7.82-1.45,11.79-1.69,0,0,3.53-.11,3.53-.11l7.01-.19c20.91-.09,41.93,2.68,62.05,8.24,71.69,19.24,129.4,67.96,195.45,99.2,13.71,6.32,27.79,12.09,42.27,16.35,37.32,11.11,76.99,13.57,115.68,10.07,82.44-7.68,160.09-39.93,235.54-72.19,22.03-9.53,44.68-20.08,67.11-28.68,65.55-25.59,128.1-35.38,196.67-13.86,26.38,8.06,50.93,19.48,75.01,32.34,57.66,30.27,116.04,59.42,177.77,80.15,28.69,9.61,58.05,17.19,88.07,21.41,17.16,2.35,34.54,3.46,52.04,3.19l.31,3.08c-17.45,3.05-35.29,4.17-53.13,3.94-100.75-2.91-195.44-43.96-285.02-86.8-18.99-9.14-38.5-17.46-58.6-23.78-71.65-23.04-131.72-11.26-200.99,15.06-24.46,9.41-48.98,19.92-73.62,28.75-41.59,15.23-84.46,27.94-127.93,36.58-78.1,15.57-161.12,19.41-237.21-7.48-64.09-22.12-123.2-58.7-186.4-81.28-27.37-9.72-56.01-16.51-85.09-16.84l-6.15.08-3.05.04c-2.6.15-5.07.44-7.76.94-19.87,4.11-40.25,12.88-59.34,20.68-44.83,18.42-89.36,39.38-136.77,50.71-24.33,5.35-61.91,11.39-77.12-13.17,0,0,2.53-1.8,2.53-1.8h0Z"/>
          <path class="cls-2" d="M-207.54,412.33c39.67,6.72,80,2.58,118.55-7.95,46.34-12.43,90.69-32.78,134.52-52.23,6.93-3.06,15.79-7.1,22.64-9.8,23.88-9.92,50.42-14.32,76.31-12.28,75.63,6.08,135.93,57.31,205.92,80.7,53.39,17.85,110.92,22,166.61,14.62,55.62-7.03,110.42-23.67,164.23-39.32,7.77-2.27,15.14-4.58,22.74-7.17,34.84-11.87,69.09-26.88,105.48-34.61,2.07-.49,4.21-.81,6.31-1.22l3.17-.58,1.58-.29,1.61-.23,6.43-.89,1.61-.22,1.62-.15,3.23-.31c46.21-4.16,92.01,6.82,136.56,17.58,87.33,23.19,185.5,89.34,276.61,77.63,15.63-2.16,30.89-7.33,44.92-15.25l1.41,2.12c-5.72,4.36-11.92,8.27-18.33,11.55-80.43,39.61-187-10.69-265.59-36.98-17.1-5.81-33.81-11.17-50.98-14.84-13.5-2.86-27.9-5.92-41.35-8.43-32.27-5.96-65.43-10.07-97.98-4.57-29.49,4.82-57.15,14.84-85.69,24.29-23.25,8.02-47.13,14.59-71.06,20.29-67.53,16.61-137.18,28.05-206.92,23.99-53.26-2.79-105.75-15.44-154.93-35.95-44.57-17.74-88.13-39.28-135.67-47.19-31.41-5.4-63.02-2.19-92.15,9.76,0,0-1.33.51-1.33.51l-1.39.58-5.59,2.36c-17.22,7.23-39.1,16.42-56.53,23.13-38.42,14.86-78.03,27.57-119.11,32.35-24.7,2.77-49.82,2.61-74.22-2.27,0,0-6.05-1.25-6.05-1.25l-5.98-1.51-2.98-.77-2.95-.9-5.87-1.83.62-2.47h0Z"/>
          <path class="cls-2" d="M383.71,717.35c86.44-33.75,157.77-92.38,245.89-123.49,71.61-25.49,135.95-21.92,206.48,4.09,68.73,25.76,130.72,65.46,202.27,85.15,68.27,19.21,141.65,17.74,211.18,4.96,38.76-7.17,77.05-17.13,113.82-30.32,62.83-22.94,124.16-57.84,194.18-57.96,12.58-.02,25.26.96,37.59,3.22,82.69,16.87,153.81,60.71,229.6,91.85,30.67,12.76,62.29,23.46,95.43,29.97,0,0-.39,2.4-.39,2.4-24.56-1.69-49.03-6.33-72.69-12.64-82.35-22.04-156.73-64.05-239.47-83.62-75.68-19.09-142.38,15.01-210.58,40.25-75.02,27.73-156.39,44.31-237.8,40.7-22.62-1.06-45.33-3.52-67.52-7.61-93.19-15.52-172.28-66.6-261.45-91.96-76.8-21.53-141.43-19.78-215.38,9.66-46.66,18.17-89.51,41.91-135.03,62.94-30.46,14.02-62.02,27.1-95.29,34.72,0,0-.86-2.3-.86-2.3h0Z"/>
          <path class="cls-3" d="M1689.75-20.76c-70.14-27.04-171.9,47.49-138.87,130.31,34.93,87.57,180.57,86.84,201.98-11.73,10.04-46.21-16.67-100.68-63.11-118.58ZM1654.16,46.23c-14.69-7.21-9.61-26.58,3.16-26.34,25.4.47,15.16,35.33-3.16,26.34ZM1694.55,80.67c-14.91-8.26-4.11-26.91,9.78-17.71,18.14,12.02,10.59,28.98-9.78,17.71ZM1706.57,38.09c-11.68-4.52-7.72-24.1,4.46-20.77,16.94,4.62,13.3,27.65-4.46,20.77Z"/>
          <path class="cls-3" d="M1173.82,372.02c-43.18,61.53,4.56,178.29,92.9,166.24,93.42-12.74,127.89-154.24,37.41-198.83-42.42-20.91-101.72-8.14-130.31,32.59ZM1230.23,422.74c-10.55,12.51-28.11,2.91-24.79-9.43,6.6-24.53,37.95-6.17,24.79,9.43ZM1273.41,391.87c-11.61,12.48-27.11-2.51-14.83-13.77,16.05-14.7,30.68-3.27,14.83,13.77ZM1234.99,369.92c-7.21,10.24-25.25,1.67-19.08-9.34,8.57-15.32,30.04-6.22,19.08,9.34Z"/>
          <path class="cls-3" d="M798.03,348.2c-43.87-5.36-96.72-9.74-146.28-5.81-5.75,4.51-14.66,6.26-20.61,11.05-3.85,3.1-7.74,6.49-11.46,10.05-.08.13-.15.26-.23.39,0-.05,0-.12,0-.17-3.55,3.41-6.95,6.97-10,10.58,1.66-10.53,6.17-19.6,12.14-28.33-17.62,2.84-34.46,6.99-49.88,12.89-3.12,1.19-6.2,2.45-9.24,3.75,36-39.01,67.98-81.76,82.4-131.76,6.13-21.24,10.95-44.25,14.25-67.84-11.73,3.9-27.7,7.63-37.72,3.13,4.86-6.8,20.6-9.72,28.27-13.79,3.57-1.9,7.7-4.09,11.59-6.59,4.16-38.88,4.06-78.62-1.42-114.23-32.5,26.73-65.11,53.73-95.58,83.63-33.45,32.83-72.33,74.23-100.7,118.23-.22,5.59-1.27,11.55-.24,16.9,1.84,9.59,4.59,19.86,8.23,28.94-8.61-6.47-14.53-14.8-19.46-24.28-.24-.45-.45-.91-.66-1.36-8.3,14.94-15.15,30.06-19.96,45.16-1.01,3.19-1.95,6.37-2.83,9.56-8.05-52.47-21.54-104.12-51.64-146.58-12.82-18.08-27.81-36.24-44.24-53.57-3.17,12.12-9.03,28.71-18.79,34.84-2.96-7.82,3.35-22.54,4.21-31.17.53-5.27,1.17-11.6.91-17.57-27.4-26.86-57.93-50.95-88.59-68.52.64,42.08,1.41,84.41,5.79,126.87,4.99,48.37,13.55,107.07,31.58,158.01,4.36,2.38,8.74,5.16,13.37,6.3,9.48,2.34,19.96,4.15,29.73,4.64-9.48,5.11-19.53,6.99-30.2,7.51-2.05.1-4-.03-5.91-.29,6.35,15.18,13.68,29.4,22.18,42.1,1.86,2.78,3.77,5.5,5.71,8.17-46.04-26.42-94.83-48.08-146.79-51.01-19.99-1.13-41.14-.9-62.58.66.1.35.21.69.32,1.06,3.69,11.93,8.51,32,2.63,43.38-6.52-5.23-8.56-21.12-12.19-29-.52-1.14-1.08-2.33-1.65-3.55-2.27-3.51-4.7-6.99-7.32-10.27-40.77,4.37-81.7,13.54-116.86,27.47,33.3,25.74,66.87,51.52,102.8,74.57,39.84,25.56,89.44,54.57,139.15,72.39,5.04-1.15,10.43-1.91,14.85-4.19,8.68-4.47,17.76-10,25.44-16.06-3.78,10.08-10.11,18.11-17.81,25.52-.55.53-1.11,1.02-1.68,1.49,16.44,4.78,32.75,8.13,48.57,9.45,3.34.28,6.66.48,9.96.64-49.36,19.52-96.73,44.16-131.42,82.96-15.06,16.84-29.7,35.92-43.15,56.23.02,0,.04,0,.06,0,12.43,1.16,32.82,4.39,41.08,14.18-7.33,4.02-22.78-.18-31.46.16-6.09.24-13.59.53-20.15,2.1-19.76,32.34-36.18,67.03-46.36,100.41,40.89-9.98,81.98-20.16,122.4-33.88,43.99-14.93,96.44-35.14,140.84-62.12,2.13-5.81,5.91-11.67,6.95-17.74,1.64-9.62,2.68-20.21,2.46-29.99,5.78,9.08,8.4,18.96,9.69,29.57.23,1.93.26,3.79.16,5.62,14.58-10.17,27.89-21.19,39.19-33.14,2.3-2.43,4.52-4.9,6.7-7.38-15.51,50.77-25.77,103.16-17.07,154.47,3.55,20.95,8.89,42.85,15.75,64.67,7.83-9.86,20.54-23.57,32.43-25.2-.42,6.74-8.2,15.09-13.47,22.01.65-.19,1.28-.35,1.89-.47-1.57,1.49-3.17,3.02-4.77,4.59-.11.18-.22.36-.33.54-3.09,5.35-6.92,11.95-9.08,18.41,13.09,36.56,30.33,72.04,50.57,101.53,17.69-38.19,35.35-76.66,49.83-116.82,15.63-43.35,32.38-96.45,39.09-147.6-3.13-5.84-4.56-13.47-8.47-18.93-5.68-7.94-12.47-16.13-19.57-22.85,10.52,2.28,19.38,7.38,27.83,13.93.96.74,1.84,1.52,2.67,2.33,1.04-17.25.68-34.04-1.56-49.89-.47-3.31-1.01-6.59-1.6-9.84,30.02,43.78,64.58,84.47,110.12,109.66,20.36,11.26,42.93,21.55,66.45,30.32-1.27-12.52-1.7-31.03,5.62-40.44,5.46,6.33,4.56,22.32,6.71,30.73,1.22,4.79,2.67,10.49,4.72,15.73,35.72,11.94,72.92,20.14,107.5,22.62-18.83-37.64-37.89-75.44-60.27-111.79-24.19-39.3-55.3-85.58-91.18-122.74-6.68-1.42-13.57-5.74-20.51-6.5-3.35-.37-6.81-.65-10.3-.84-.54.08-1.08.16-1.61.24.12-.1.25-.2.37-.31-6.23-.29-12.56-.26-18.54.24,8.72-6.31,18.43-9.51,28.95-11.43.68-.12,1.36-.22,2.03-.29-12.42-11.06-25.33-20.82-38.64-28.66-2.88-1.7-5.78-3.32-8.69-4.89,52.94,3.83,106.3,2.17,154.39-17.73,20.23-8.37,41-18.82,61.32-30.79-.05-.03-.09-.05-.13-.08-10.92-6.06-28.3-17.21-31.92-29.49,8.33-.74,20.79,9.32,28.87,12.49,6.04,2.37,13.58,5.34,20.59,6.39,32.26-20.73,62.52-45.12,86.46-71.08-41.17-8.74-82.61-17.41-124.98-22.58ZM297.78,197.67q-7.65-31.25-8.29-46.67c10.84,16.4,19.86,32.53,28.87,53.43,9.94,23.05,19.65,46.26,29.89,68.92,10.35,22.92,22.94,43.86,32.41,67.67,8.97,22.54,21.59,43.3,30.44,65.88,5.93,15.11,10.44,32.06,10.77,49.45-1.74-1.78-3.46-3.76-5.15-5.88-.31-.21-.61-.43-.92-.64-.1-.31-.21-.62-.32-.93-9.95-12.92-19.06-30.75-26.68-45.87-10.82-21.46-22.54-41.42-32.85-64.29-9.87-21.91-18.73-44.83-27.71-67.51-2.72-6.19-5.33-12.42-7.82-18.68-8.01-17.62-18.54-38.06-22.65-54.88ZM204.16,433.26c-20.28-6.09-50-10.81-69.38-19.72q-29.23-13.45-41.7-22.53c19.58,1.72,37.83,4.68,59.8,10.62,24.23,6.55,48.44,13.38,72.56,19.47,24.38,6.15,48.61,9.32,73.14,16.71,23.22,7,47.33,10.03,70.52,17.13,15.52,4.76,31.6,11.77,45.42,22.32-17.69,1.83-42.25-3.11-62.33-7.27-23.53-4.88-46.45-8.11-70.77-14.27-25.68-6.5-51.56-14.73-77.27-22.46ZM382.28,538.77c-18.48,15.37-35.29,31.27-55.26,46.47-21.08,16.04-43.65,31.14-65.71,46.44-17.4,12.06-39.61,32.38-58.66,41.98q-28.73,14.48-43.61,18.57c13.54-14.25,27.23-26.67,45.57-40.15,20.22-14.87,40.65-29.55,60.44-44.62,20-15.24,37.58-32.22,58.65-46.8,19.94-13.81,37.34-30.77,57.34-44.48,13.39-9.18,28.89-17.38,45.76-21.62-9.59,14.97-28.76,31.11-44.52,44.22ZM462.26,391.64c9.99-21.86,18.24-43.48,29.65-65.83,12.05-23.59,25.83-46.99,39.08-70.33,10.45-18.41,21.66-46.35,34.66-63.26q19.61-25.5,31.24-35.64c-6.03,18.71-12.98,35.84-23.66,55.94-11.77,22.17-23.82,44.25-35.12,66.41-11.42,22.4-19.9,45.32-32.56,67.6-11.99,21.09-20.3,43.92-32.39,64.95-8.09,14.07-18.5,28.19-31.87,39.32,2.15-17.65,12.43-40.5,20.95-59.15ZM456.23,631.13c-.51,26.48-2.67,53.55-4.38,80.34-1.34,21.13.8,51.15-3.5,72.05q-6.48,31.51-12.5,45.72c-2.76-19.46-4.01-37.9-3.2-60.65.89-25.08,2.06-50.22,2.52-75.08.47-25.14-1.93-49.46-.29-75.03,1.55-24.21-.95-48.37.72-72.57,1.12-16.19,4.31-33.44,11.45-49.3,5.79,16.81,6.54,41.86,7.04,62.35.58,24.02,2.62,47.08,2.13,72.17ZM631.98,613.03c15.55,14.37,40.19,31.65,53.7,48.16q20.36,24.9,27.59,38.54c-16.84-10.13-31.94-20.8-49.08-35.78-18.9-16.51-37.66-33.28-56.67-49.32-19.21-16.22-39.6-29.7-58.4-47.11-17.8-16.48-38.14-29.78-55.86-46.33-11.86-11.08-23.23-24.44-31.03-39.99,16.7,6.12,36.61,21.33,52.82,33.87,19.01,14.71,38.18,27.66,57.34,43.87,20.23,17.11,39.87,35.86,59.58,54.08ZM781.55,399.91c-2.68.83-5.39,1.54-8.12,2.17-14.54,5.13-29.36,9.27-47.13,12.76-24.63,4.84-49.37,9.42-73.69,14.63-24.59,5.27-47.72,13.14-72.99,17.36-23.92,4-46.89,11.94-70.83,15.82-16.02,2.6-33.55,3.42-50.61.07,2.85-1.79,6.02-3.47,9.43-5.05.22-.21.45-.41.68-.61.3-.03.61-.07.91-.1,14.39-6.43,32.57-11.26,48.09-15.28,23.26-6.03,45.25-13.26,69.79-18.5,25.91-5.53,52.76-9.58,79.23-14.02,20.88-3.5,49.63-12.42,70.95-12.99q32.16-.86,47.36,1.77c-1.5.58-2.99,1.15-4.49,1.71.47.09.94.17,1.41.27Z"/>
          <path class="cls-3" d="M942.07,112.36c70.99,24.72,170.25-53.12,134.51-134.81-37.79-86.38-183.32-80.85-201.48,18.37-8.51,46.52,19.97,100.08,66.97,116.44ZM975.44,44.24c14.92,6.73,10.48,26.24-2.29,26.43-25.4.36-16.31-34.82,2.29-26.43ZM933.94,11.14c15.18,7.76,4.99,26.76-9.19,18.02-18.53-11.42-11.53-28.62,9.19-18.02ZM923.33,54.1c11.82,4.14,8.51,23.83-3.77,20.91-17.08-4.06-14.2-27.2,3.77-20.91Z"/>
          <path class="cls-3" d="M1566.85,706.81c-68.91-30.03-173.79,40.06-144.35,124.22,31.13,88.99,176.67,94.52,202.3-3.04,12.02-45.74-12.33-101.3-57.95-121.18ZM1528.41,772.21c-14.36-7.84-8.46-26.96,4.29-26.18,25.35,1.57,13.63,35.95-4.29,26.18ZM1567.28,808.36c-14.54-8.89-2.95-27.06,10.53-17.27,17.61,12.79,9.33,29.41-10.53,17.27ZM1581.11,766.33c-11.48-5.02-6.68-24.41,5.35-20.56,16.72,5.34,12.09,28.2-5.35,20.56Z"/>
        </g>
        <g>
          <path class="cls-2" d="M1712.46,412.33c39.67,6.72,80,2.58,118.55-7.95,46.34-12.43,90.69-32.78,134.52-52.23,6.93-3.06,15.79-7.1,22.64-9.8,23.88-9.92,50.42-14.32,76.31-12.28,75.63,6.08,135.93,57.31,205.92,80.7,53.39,17.85,110.92,22,166.61,14.62,55.62-7.03,110.42-23.67,164.23-39.32,7.77-2.27,15.14-4.58,22.74-7.17,34.84-11.87,69.09-26.88,105.48-34.61,2.07-.49,4.21-.81,6.31-1.22l3.17-.58,1.58-.29,1.61-.23,6.43-.89,1.61-.22,1.62-.15,3.23-.31c46.21-4.16,92.01,6.82,136.56,17.58,87.33,23.19,185.5,89.34,276.61,77.63,15.63-2.16,30.89-7.33,44.92-15.25l1.41,2.12c-5.72,4.36-11.92,8.27-18.33,11.55-80.43,39.61-187-10.69-265.59-36.98-17.1-5.81-33.81-11.17-50.98-14.84-13.5-2.86-27.9-5.92-41.35-8.43-32.27-5.96-65.43-10.07-97.98-4.57-29.49,4.82-57.15,14.84-85.69,24.29-23.25,8.02-47.13,14.59-71.06,20.29-67.53,16.61-137.18,28.05-206.92,23.99-53.26-2.79-105.75-15.44-154.93-35.95-44.57-17.74-88.13-39.28-135.67-47.19-31.41-5.4-63.02-2.19-92.15,9.76,0,0-1.33.51-1.33.51l-1.39.58-5.59,2.36c-17.22,7.23-39.1,16.42-56.53,23.13-38.42,14.86-78.03,27.57-119.11,32.35-24.7,2.77-49.82,2.61-74.22-2.27,0,0-6.05-1.25-6.05-1.25l-5.98-1.51-2.98-.77-2.95-.9-5.87-1.83.62-2.47h0Z"/>
          <path class="cls-3" d="M2718.03,348.2c-43.87-5.36-96.72-9.74-146.28-5.81-5.75,4.51-14.66,6.26-20.61,11.05-3.85,3.1-7.74,6.49-11.46,10.05-.08.13-.15.26-.23.39,0-.05,0-.12,0-.17-3.55,3.41-6.95,6.97-10,10.58,1.66-10.53,6.17-19.6,12.14-28.33-17.62,2.84-34.46,6.99-49.88,12.89-3.12,1.19-6.2,2.45-9.24,3.75,36-39.01,67.98-81.76,82.4-131.76,6.13-21.24,10.95-44.25,14.25-67.84-11.73,3.9-27.7,7.63-37.72,3.13,4.86-6.8,20.6-9.72,28.27-13.79,3.57-1.9,7.7-4.09,11.59-6.59,4.16-38.88,4.06-78.62-1.42-114.23-32.5,26.73-65.11,53.73-95.58,83.63-33.45,32.83-72.33,74.23-100.7,118.23-.22,5.59-1.27,11.55-.24,16.9,1.84,9.59,4.59,19.86,8.23,28.94-8.61-6.47-14.53-14.8-19.46-24.28-.24-.45-.45-.91-.66-1.36-8.3,14.94-15.15,30.06-19.96,45.16-1.01,3.19-1.95,6.37-2.83,9.56-8.05-52.47-21.54-104.12-51.64-146.58-12.82-18.08-27.81-36.24-44.24-53.57-3.17,12.12-9.03,28.71-18.79,34.84-2.96-7.82,3.35-22.54,4.21-31.17.53-5.27,1.17-11.6.91-17.57-27.4-26.86-57.93-50.95-88.59-68.52.64,42.08,1.41,84.41,5.79,126.87,4.99,48.37,13.55,107.07,31.58,158.01,4.36,2.38,8.74,5.16,13.37,6.3,9.48,2.34,19.96,4.15,29.73,4.64-9.48,5.11-19.53,6.99-30.2,7.51-2.05.1-4-.03-5.91-.29,6.35,15.18,13.68,29.4,22.18,42.1,1.86,2.78,3.77,5.5,5.71,8.17-46.04-26.42-94.83-48.08-146.79-51.01-19.99-1.13-41.14-.9-62.58.66.1.35.21.69.32,1.06,3.69,11.93,8.51,32,2.63,43.38-6.52-5.23-8.56-21.12-12.19-29-.52-1.14-1.08-2.33-1.65-3.55-2.27-3.51-4.7-6.99-7.32-10.27-40.77,4.37-81.7,13.54-116.86,27.47,33.3,25.74,66.87,51.52,102.8,74.57,39.84,25.56,89.44,54.57,139.15,72.39,5.04-1.15,10.43-1.91,14.85-4.19,8.68-4.47,17.76-10,25.44-16.06-3.78,10.08-10.11,18.11-17.81,25.52-.55.53-1.11,1.02-1.68,1.49,16.44,4.78,32.75,8.13,48.57,9.45,3.34.28,6.66.48,9.96.64-49.36,19.52-96.73,44.16-131.42,82.96-15.06,16.84-29.7,35.92-43.15,56.23.02,0,.04,0,.06,0,12.43,1.16,32.82,4.39,41.08,14.18-7.33,4.02-22.78-.18-31.46.16-6.09.24-13.59.53-20.15,2.1-19.76,32.34-36.18,67.03-46.36,100.41,40.89-9.98,81.98-20.16,122.4-33.88,43.99-14.93,96.44-35.14,140.84-62.12,2.13-5.81,5.91-11.67,6.95-17.74,1.64-9.62,2.68-20.21,2.46-29.99,5.78,9.08,8.4,18.96,9.69,29.57.23,1.93.26,3.79.16,5.62,14.58-10.17,27.89-21.19,39.19-33.14,2.3-2.43,4.52-4.9,6.7-7.38-15.51,50.77-25.77,103.16-17.07,154.47,3.55,20.95,8.89,42.85,15.75,64.67,7.83-9.86,20.54-23.57,32.43-25.2-.42,6.74-8.2,15.09-13.47,22.01.65-.19,1.28-.35,1.89-.47-1.57,1.49-3.17,3.02-4.77,4.59-.11.18-.22.36-.33.54-3.09,5.35-6.92,11.95-9.08,18.41,13.09,36.56,30.33,72.04,50.57,101.53,17.69-38.19,35.35-76.66,49.83-116.82,15.63-43.35,32.38-96.45,39.09-147.6-3.13-5.84-4.56-13.47-8.47-18.93-5.68-7.94-12.47-16.13-19.57-22.85,10.52,2.28,19.38,7.38,27.83,13.93.96.74,1.84,1.52,2.67,2.33,1.04-17.25.68-34.04-1.56-49.89-.47-3.31-1.01-6.59-1.6-9.84,30.02,43.78,64.58,84.47,110.12,109.66,20.36,11.26,42.93,21.55,66.45,30.32-1.27-12.52-1.7-31.03,5.62-40.44,5.46,6.33,4.56,22.32,6.71,30.73,1.22,4.79,2.67,10.49,4.72,15.73,35.72,11.94,72.92,20.14,107.5,22.62-18.83-37.64-37.89-75.44-60.27-111.79-24.19-39.3-55.3-85.58-91.18-122.74-6.68-1.42-13.57-5.74-20.51-6.5-3.35-.37-6.81-.65-10.3-.84-.54.08-1.08.16-1.61.24.12-.1.25-.2.37-.31-6.23-.29-12.56-.26-18.54.24,8.72-6.31,18.43-9.51,28.95-11.43.68-.12,1.36-.22,2.03-.29-12.42-11.06-25.33-20.82-38.64-28.66-2.88-1.7-5.78-3.32-8.69-4.89,52.94,3.83,106.3,2.17,154.39-17.73,20.23-8.37,41-18.82,61.32-30.79-.05-.03-.09-.05-.13-.08-10.92-6.06-28.3-17.21-31.92-29.49,8.33-.74,20.79,9.32,28.87,12.49,6.04,2.37,13.58,5.34,20.59,6.39,32.26-20.73,62.52-45.12,86.46-71.08-41.17-8.74-82.61-17.41-124.98-22.58ZM2217.78,197.67q-7.65-31.25-8.29-46.67c10.84,16.4,19.86,32.53,28.87,53.43,9.94,23.05,19.65,46.26,29.89,68.92,10.35,22.92,22.94,43.86,32.41,67.67,8.97,22.54,21.59,43.3,30.44,65.88,5.93,15.11,10.44,32.06,10.77,49.45-1.74-1.78-3.46-3.76-5.15-5.88-.31-.21-.61-.43-.92-.64-.1-.31-.21-.62-.32-.93-9.95-12.92-19.06-30.75-26.68-45.87-10.82-21.46-22.54-41.42-32.85-64.29-9.87-21.91-18.73-44.83-27.71-67.51-2.72-6.19-5.33-12.42-7.82-18.68-8.01-17.62-18.54-38.06-22.65-54.88ZM2124.16,433.26c-20.28-6.09-50-10.81-69.38-19.72q-29.23-13.45-41.7-22.53c19.58,1.72,37.83,4.68,59.8,10.62,24.23,6.55,48.44,13.38,72.56,19.47,24.38,6.15,48.61,9.32,73.14,16.71,23.22,7,47.33,10.03,70.52,17.13,15.52,4.76,31.6,11.77,45.42,22.32-17.69,1.83-42.25-3.11-62.33-7.27-23.53-4.88-46.45-8.11-70.77-14.27-25.68-6.5-51.56-14.73-77.27-22.46ZM2302.28,538.77c-18.48,15.37-35.29,31.27-55.26,46.47-21.08,16.04-43.65,31.14-65.71,46.44-17.4,12.06-39.61,32.38-58.66,41.98q-28.73,14.48-43.61,18.57c13.54-14.25,27.23-26.67,45.57-40.15,20.22-14.87,40.65-29.55,60.44-44.62,20-15.24,37.58-32.22,58.65-46.8,19.94-13.81,37.34-30.77,57.34-44.48,13.39-9.18,28.89-17.38,45.76-21.62-9.59,14.97-28.76,31.11-44.52,44.22ZM2382.26,391.64c9.99-21.86,18.24-43.48,29.65-65.83,12.05-23.59,25.83-46.99,39.08-70.33,10.45-18.41,21.66-46.35,34.66-63.26q19.61-25.5,31.24-35.64c-6.03,18.71-12.98,35.84-23.66,55.94-11.77,22.17-23.82,44.25-35.12,66.41-11.42,22.4-19.9,45.32-32.56,67.6-11.99,21.09-20.3,43.92-32.39,64.95-8.09,14.07-18.5,28.19-31.87,39.32,2.15-17.65,12.43-40.5,20.95-59.15ZM2376.23,631.13c-.51,26.48-2.67,53.55-4.38,80.34-1.34,21.13.8,51.15-3.5,72.05q-6.48,31.51-12.5,45.72c-2.76-19.46-4.01-37.9-3.2-60.65.89-25.08,2.06-50.22,2.52-75.08.47-25.14-1.93-49.46-.29-75.03,1.55-24.21-.95-48.37.72-72.57,1.12-16.19,4.31-33.44,11.45-49.3,5.79,16.81,6.54,41.86,7.04,62.35.58,24.02,2.62,47.08,2.13,72.17ZM2551.98,613.03c15.55,14.37,40.19,31.65,53.7,48.16q20.36,24.9,27.59,38.54c-16.84-10.13-31.94-20.8-49.08-35.78-18.9-16.51-37.66-33.28-56.67-49.32-19.21-16.22-39.6-29.7-58.4-47.11-17.8-16.48-38.14-29.78-55.86-46.33-11.86-11.08-23.23-24.44-31.03-39.99,16.7,6.12,36.61,21.33,52.82,33.87,19.01,14.71,38.18,27.66,57.34,43.87,20.23,17.11,39.87,35.86,59.58,54.08ZM2701.55,399.91c-2.68.83-5.39,1.54-8.12,2.17-14.54,5.13-29.36,9.27-47.13,12.76-24.63,4.84-49.37,9.42-73.69,14.63-24.59,5.27-47.72,13.14-72.99,17.36-23.92,4-46.89,11.94-70.83,15.82-16.02,2.6-33.55,3.42-50.61.07,2.85-1.79,6.02-3.47,9.43-5.05.22-.21.45-.41.68-.61.3-.03.61-.07.91-.1,14.39-6.43,32.57-11.26,48.09-15.28,23.26-6.03,45.25-13.26,69.79-18.5,25.91-5.53,52.76-9.58,79.23-14.02,20.88-3.5,49.63-12.42,70.95-12.99q32.16-.86,47.36,1.77c-1.5.58-2.99,1.15-4.49,1.71.47.09.94.17,1.41.27Z"/>
        </g>
      </g>
      <g class="cls-7">
        <rect class="cls-8" x="-1870.44" y="814.76" width="1969.88" height="1969.88"/>
        <g>
          <rect class="cls-8" x="49.56" y="814.76" width="1969.88" height="1969.88"/>
          <path class="cls-2" d="M214.92,1328.02c4.58-.14,9.27-.04,13.59-.55,2.35-.25,4.53-.3,6.72-.66,20.01-2.71,39.12-9.61,56.97-18.85,65.3-33.72,117.51-91.6,187.79-118,11.4-4.37,23.8-7.27,35.88-9.25,124.79-18.45,221.51,81.25,332.47,118.09,51.18,17.46,106.79,25.15,160.13,13.99,6.14-1.16,13.63-2.96,19.64-4.52,2.1-.62,7.47-2.21,9.5-2.81,3.61-1.3,8.9-3.07,12.44-4.55,6.98-2.8,14.56-6.15,21.3-9.53,39.58-19.62,76.51-45.94,119.51-58.1,96.49-27.14,180.96,28.01,262.36,71.61,27.65,14.75,55.21,27.82,85.28,35.92,88.69,25.24,184.12,9.27,266.07-30.78,18.51-8.86,36.42-18.87,54.03-29.67,0,0,1.82,2.51,1.82,2.51-38.86,32.71-84.16,59.54-132.53,76.43-67.61,23.9-141.79,27.38-210.92,7.61-27.62-7.61-53.77-19.61-79.11-32.67-47.22-24.23-91.72-53.27-142.45-69.46-1.72-.51-7.47-2.14-9.33-2.7-2.44-.62-7.12-1.73-9.38-2.3-11.29-2.4-23.16-4.15-34.71-4.37-6.28-.24-12.69-.03-18.96.56-4.86.32-10.88,1.28-15.68,2.1-40.82,8-76.89,29.84-114.79,46.29-25.52,11.57-53.53,20.18-81.73,23.19-5.34.78-12.17,1.22-17.55,1.73-2.36.15-8.16.39-10.56.53-4.16.21-9.87.13-14.07.23-3.99-.16-10.08-.18-14.05-.46-18.54-.92-37.28-3.56-55.46-7.32-20.41-4.28-40.53-10.13-60.32-16.67-41.65-14.01-81.38-33.73-121.22-51.16-64-27.66-133.15-57.12-204.01-45.29-16.9,2.87-33,8.79-48.55,16.19-57.8,27.69-106.41,71.58-167.15,95.35-15.4,5.98-31.64,10.43-48.13,11.87,0,0-3.53.3-3.53.3l-1.76.15-1.78.04-7.08.11c-1.17.05-2.35-.07-3.53-.13l-3.52-.21-3.51-.23c-1.17-.09-2.33-.31-3.49-.46l-6.93-1.03.32-3.08h0Z"/>
          <path class="cls-2" d="M-97.03,1008.85l6.23,1.64,3.1.83c1.74.37,7.5,1.66,9.37,2.06,0,0,6.28,1.09,6.28,1.09l3.13.54c1.87.21,7.47.95,9.44,1.19,31.36,3.15,63.07-1.06,93.26-9.71,132.44-37.5,248.14-152.37,394.93-110.32,21.14,6.08,41.67,14.84,61.06,25.18,9.31,4.93,19.19,10.95,28.31,16.23,16.41,9.7,33.95,18.49,51.57,25.64,11.81,4.76,23.95,9.17,36.2,12.62,5.66,1.58,12.77,3.68,18.51,4.86,0,0,12.44,2.78,12.44,2.78l12.56,2.18,6.28,1.04,6.32.76c27.16,3.58,55.05,4.06,82.36,2.48,22.9-1.3,46.63-4.35,69.26-8.04,37.48-6.27,74.6-15.11,110.53-27.52,53.87-17.75,100.34-54.71,157.77-64.11,73.66-12.72,138.15,35.23,203.17,60.14,27.66,9.89,56.57,17.29,85.52,22.17,37.63,6.13,76.41,7.3,113.71-2.14,0,0,1.01,2.93,1.01,2.93-40.61,17.34-86.32,19.52-129.86,15.18-26.36-2.82-52.68-7.58-78.16-14.91-48.63-14.47-94.17-42.05-143.99-50.67-68.13-12.38-124.75,35.91-186.95,56.44-5.94,2.06-13.04,4.18-19.1,6.01-86.46,25.19-179,35.4-267.74,16.78-7.13-1.3-18.48-4.29-25.64-5.99-4.68-1.38-14.49-4.12-18.94-5.5-3.13-1.06-9.33-3.12-12.46-4.15-6.24-1.97-12.33-4.54-18.47-6.77-5.92-2.13-12.3-5.1-18.15-7.51-6.33-2.56-16.03-7.47-22.27-10.29-6.11-3.2-12.77-6.61-18.83-9.84-5.62-3.2-16.99-9.63-22.63-12.79-16.53-9.35-34.19-17.37-52.3-23.09-17.82-5.71-36.72-9.22-55.42-9.98-18.49-.82-37.39.92-55.48,4.78-22.39,4.58-44.29,12.09-65.52,20.5-47.84,18.97-93.47,43.02-140.86,63.28-63.22,26.96-135,48.12-203.14,27.78,0,0-3.15-1.03-3.15-1.03-2.09-.7-4.19-1.36-6.26-2.09l-6.14-2.41c-1.02-.4-2.04-.8-3.05-1.22l-2.99-1.37-5.94-2.77,1.13-2.89h0Z"/>
          <path class="cls-2" d="M-6.74,1676.91c11.07-28.35,28.51-55.38,51.26-76.11,1.44-1.3,6.09-5.32,7.37-6.46,2.21-1.67,5.54-4.3,7.78-5.98,2.72-2.11,8.43-5.81,11.34-7.8,3.12-1.85,7.05-4.16,10.19-5.98,0,0,1.75-.9,1.75-.9,1.82-.95,7.15-3.66,8.78-4.48,20.71-9.74,42.99-16.18,65.53-19.96,50.84-8.41,102.9-4.89,153.61,1.41,20.77,2.47,41.77,5.44,61.54,12.46,60.42,20.03,108.08,65.77,167.24,87.62,3.83,1.37,8.15,2.7,12.02,4.02,0,0,1.76.46,1.76.46l7.05,1.84c23.85,5.93,48.75,7.67,73.31,7.27,37.26-.53,74.93-6.12,111.83-11.51,0,0,7.3-1.19,7.3-1.19,2.27-.5,8.65-1.78,10.88-2.27,2.43-.57,8.32-2.09,10.79-2.67,2.14-.67,8.56-2.45,10.68-3.1,2.46-.78,8.12-2.65,10.59-3.44,8.9-3.14,19.07-7.01,27.74-10.75,55.78-23.77,107.22-57.4,165.15-76.51,22.46-7.32,45.95-12.43,69.56-13.8,0,0,7.98-.35,7.98-.35l2-.08c3.65.02,8.35.05,12.01.08,32.35,1.03,64.82,9.04,94.6,20.74,64.88,24.99,122.68,66.8,190.48,83.88,74.31,18.03,160.82,8.83,233.11-14.55,65.1-22.12,120.42-65.84,184.06-91.68,0,0,1.35,2.79,1.35,2.79-54.59,31.17-102.67,74.27-159.75,101.81-5.23,2.63-12.3,5.64-17.72,8.04-4.27,1.62-10.33,4.09-14.58,5.64-82.5,28.98-180.45,39.96-264.62,10.99-75.94-25.31-139.66-79.12-218.45-95.39-3.08-.68-7.31-1.28-10.46-1.87-5.95-.89-13.25-1.62-19.32-2.07-3.25-.11-7.35-.26-10.6-.38-20.78-.17-41.68,2.64-61.94,7.4-61.97,15-118.18,46.05-178.1,67.48-20.22,7.36-41.31,13.59-62.43,17.89-2.31.39-8.9,1.61-11.32,2.02-2.59.39-8.9,1.24-11.39,1.62-41.18,5-82.76,11.38-124.34,12.27-12.66.34-25.72.06-38.35-1.01-6.02-.34-13.24-1.45-19.23-2.19-3.81-.62-9.66-1.78-13.42-2.45-6.9-1.7-14.02-3.32-20.79-5.51-57.88-17.69-106.25-55.95-163.44-74.71-18.32-6.19-37.35-8.9-56.4-11.5-27.07-3.74-53.92-6.81-81.09-8.04-16.93-.77-34.32-.75-51.23.42-19.22,1.37-38.51,4.31-57.06,9.57,0,0-6.89,2.11-6.89,2.11-2.33.64-4.53,1.57-6.81,2.34l-3.4,1.21-1.7.6c-.56.22-1.11.46-1.66.69l-6.64,2.78-1.66.7c-2.94,1.45-6.77,3.29-9.72,4.73,0,0-1.57.88-1.57.88l-6.31,3.5c-.52.3-1.06.58-1.58.89l-1.52.97-3.05,1.94-3.05,1.94c-.51.33-1.02.64-1.52.98l-1.46,1.06-5.89,4.24-1.48,1.06-1.4,1.15-2.81,2.31-2.82,2.31c-.95.77-1.89,1.53-2.76,2.38l-5.38,4.95c-.88.84-1.84,1.61-2.66,2.52l-2.54,2.65c-13.68,14.01-25.41,30.15-35.55,47.43l-2.79-1.35h0Z"/>
          <path class="cls-3" d="M792.54,1386.48c74.87-6.64,133.38-118.39,67.23-178.17-69.95-63.22-200.36,1.62-176.14,99.54,11.35,45.91,59.33,83.03,108.91,78.63ZM794.97,1310.67c16.36,0,20.34,19.62,8.77,25.03-23.01,10.77-29.18-25.04-8.77-25.03ZM743.53,1297.55c17.03.84,15.55,22.35-.97,20.21-21.58-2.79-22.28-21.35.97-20.21ZM751.51,1341.07c12.48-1.09,17.55,18.23,5.15,20.61-17.24,3.32-24.12-18.96-5.15-20.61Z"/>
          <path class="cls-3" d="M370.19,1160.86c8.01-74.74-90.27-153.81-161.75-100.52-75.58,56.36-37.27,196.87,63.48,192.1,47.24-2.23,92.96-42.1,98.26-91.59ZM296.28,1143.77c3.18-16.05,23.19-16.15,26.26-3.75,6.1,24.66-30.22,23.77-26.26,3.75ZM273.43,1191.69c4.13-16.54,24.94-10.92,19.64,4.87-6.93,20.63-25.27,17.71-19.64-4.87ZM317.67,1192.3c1.36-12.45,21.28-13.68,21.22-1.06-.09,17.55-23.28,19.98-21.22,1.06Z"/>
          <path class="cls-3" d="M209.54,1664.83c-27.04,70.14,47.49,171.9,130.31,138.87,87.57-34.93,86.84-180.57-11.73-201.98-46.21-10.04-100.68,16.67-118.58,63.11ZM276.53,1700.42c-7.21,14.69-26.58,9.61-26.34-3.16.47-25.4,35.33-15.16,26.34,3.16ZM310.98,1660.03c-8.26,14.91-26.91,4.11-17.71-9.78,12.02-18.14,28.98-10.59,17.71,9.78ZM268.4,1648.02c-4.52,11.68-24.1,7.72-20.77-4.46,4.62-16.94,27.65-13.3,20.77,4.46Z"/>
          <path class="cls-3" d="M1689.75,1899.24c-70.14-27.04-171.9,47.49-138.87,130.31,34.93,87.57,180.57,86.84,201.98-11.73,10.04-46.21-16.67-100.68-63.11-118.58ZM1654.16,1966.23c-14.69-7.21-9.61-26.58,3.16-26.34,25.4.47,15.16,35.33-3.16,26.34ZM1694.55,2000.67c-14.91-8.26-4.11-26.91,9.78-17.71,18.14,12.02,10.59,28.98-9.78,17.71ZM1706.57,1958.09c-11.68-4.52-7.72-24.1,4.46-20.77,16.94,4.62,13.3,27.65-4.46,20.77Z"/>
          <path class="cls-3" d="M942.07,2032.36c70.99,24.72,170.25-53.12,134.51-134.81-37.79-86.38-183.32-80.85-201.48,18.37-8.51,46.52,19.97,100.08,66.97,116.44ZM975.44,1964.24c14.92,6.73,10.48,26.24-2.29,26.43-25.4.36-16.31-34.82,2.29-26.43ZM933.94,1931.14c15.18,7.76,4.99,26.76-9.19,18.02-18.53-11.42-11.53-28.62,9.19-18.02ZM923.33,1974.1c11.82,4.14,8.51,23.83-3.77,20.91-17.08-4.06-14.2-27.2,3.77-20.91Z"/>
          <path class="cls-3" d="M1843.32,1258.73c-43.87-5.36-96.72-9.74-146.28-5.81-5.75,4.51-14.66,6.26-20.61,11.05-3.85,3.1-7.74,6.49-11.46,10.05-.08.13-.15.26-.23.39,0-.05,0-.12,0-.17-3.55,3.41-6.95,6.97-10,10.58,1.66-10.53,6.17-19.6,12.14-28.33-17.62,2.84-34.46,6.99-49.88,12.89-3.12,1.19-6.2,2.45-9.24,3.75,36-39.01,67.98-81.76,82.4-131.76,6.13-21.24,10.95-44.25,14.25-67.84-11.73,3.9-27.7,7.63-37.72,3.13,4.86-6.8,20.6-9.72,28.27-13.79,3.57-1.9,7.7-4.09,11.59-6.59,4.16-38.88,4.06-78.62-1.42-114.23-32.5,26.73-65.11,53.73-95.58,83.63-33.45,32.83-72.33,74.23-100.7,118.23-.22,5.59-1.27,11.55-.24,16.9,1.84,9.59,4.59,19.86,8.23,28.94-8.61-6.47-14.53-14.8-19.46-24.28-.24-.45-.45-.91-.66-1.36-8.3,14.94-15.15,30.06-19.96,45.16-1.01,3.19-1.95,6.37-2.83,9.56-8.05-52.47-21.54-104.12-51.64-146.58-12.82-18.08-27.81-36.24-44.24-53.57-3.17,12.12-9.03,28.71-18.79,34.84-2.96-7.82,3.35-22.54,4.21-31.17.53-5.27,1.17-11.6.91-17.57-27.4-26.86-57.93-50.95-88.59-68.52.64,42.08,1.41,84.41,5.79,126.87,4.99,48.37,13.55,107.07,31.58,158.01,4.36,2.38,8.74,5.16,13.37,6.3,9.48,2.34,19.96,4.15,29.73,4.64-9.48,5.11-19.53,6.99-30.2,7.51-2.05.1-4-.03-5.91-.29,6.35,15.18,13.68,29.4,22.18,42.1,1.86,2.78,3.77,5.5,5.71,8.17-46.04-26.42-94.83-48.08-146.79-51.01-19.99-1.13-41.14-.9-62.58.66.1.35.21.69.32,1.06,3.69,11.93,8.51,32,2.63,43.38-6.52-5.23-8.56-21.12-12.19-29-.52-1.14-1.08-2.33-1.65-3.55-2.27-3.51-4.7-6.99-7.32-10.27-40.77,4.37-81.7,13.54-116.86,27.47,33.3,25.74,66.87,51.52,102.8,74.57,39.84,25.56,89.44,54.57,139.15,72.39,5.04-1.15,10.43-1.91,14.85-4.19,8.68-4.47,17.76-10,25.44-16.06-3.78,10.08-10.11,18.11-17.81,25.52-.55.53-1.11,1.02-1.68,1.49,16.44,4.78,32.75,8.13,48.57,9.45,3.34.28,6.66.48,9.96.64-49.36,19.52-96.73,44.16-131.42,82.96-15.06,16.84-29.7,35.92-43.15,56.23.02,0,.04,0,.06,0,12.43,1.16,32.82,4.39,41.08,14.18-7.33,4.02-22.78-.18-31.46.16-6.09.24-13.59.53-20.15,2.1-19.76,32.34-36.18,67.03-46.36,100.41,40.89-9.98,81.98-20.16,122.4-33.88,43.99-14.93,96.44-35.14,140.84-62.12,2.13-5.81,5.91-11.67,6.95-17.74,1.64-9.62,2.68-20.21,2.46-29.99,5.78,9.08,8.4,18.96,9.69,29.57.23,1.93.26,3.79.16,5.62,14.58-10.17,27.89-21.19,39.19-33.14,2.3-2.43,4.52-4.9,6.7-7.38-15.51,50.77-25.77,103.16-17.07,154.47,3.55,20.95,8.89,42.85,15.75,64.67,7.83-9.86,20.54-23.57,32.43-25.2-.42,6.74-8.2,15.09-13.47,22.01.65-.19,1.28-.35,1.89-.47-1.57,1.49-3.17,3.02-4.77,4.59-.11.18-.22.36-.33.54-3.09,5.35-6.92,11.95-9.08,18.41,13.09,36.56,30.33,72.04,50.57,101.53,17.69-38.19,35.35-76.66,49.83-116.82,15.63-43.35,32.38-96.45,39.09-147.6-3.13-5.84-4.56-13.47-8.47-18.93-5.68-7.94-12.47-16.13-19.57-22.85,10.52,2.28,19.38,7.38,27.83,13.93.96.74,1.84,1.52,2.67,2.33,1.04-17.25.68-34.04-1.56-49.89-.47-3.31-1.01-6.59-1.6-9.84,30.02,43.78,64.58,84.47,110.12,109.66,20.36,11.26,42.93,21.55,66.45,30.32-1.27-12.52-1.7-31.03,5.62-40.44,5.46,6.33,4.56,22.32,6.71,30.73,1.22,4.79,2.67,10.49,4.72,15.73,35.72,11.94,72.92,20.14,107.5,22.62-18.83-37.64-37.89-75.44-60.27-111.79-24.19-39.3-55.3-85.58-91.18-122.74-6.68-1.42-13.57-5.74-20.51-6.5-3.35-.37-6.81-.65-10.3-.84-.54.08-1.08.16-1.61.24.12-.1.25-.2.37-.31-6.23-.29-12.56-.26-18.54.24,8.72-6.31,18.43-9.51,28.95-11.43.68-.12,1.36-.22,2.03-.29-12.42-11.06-25.33-20.82-38.64-28.66-2.88-1.7-5.78-3.32-8.69-4.89,52.94,3.83,106.3,2.17,154.39-17.73,20.23-8.37,41-18.82,61.32-30.79-.05-.03-.09-.05-.13-.08-10.92-6.06-28.3-17.21-31.92-29.49,8.33-.74,20.79,9.32,28.87,12.49,6.04,2.37,13.58,5.34,20.59,6.39,32.26-20.73,62.52-45.12,86.46-71.08-41.17-8.74-82.61-17.41-124.98-22.58ZM1343.06,1108.2q-7.65-31.25-8.29-46.67c10.84,16.4,19.86,32.53,28.87,53.43,9.94,23.05,19.65,46.26,29.89,68.92,10.35,22.92,22.94,43.86,32.41,67.67,8.97,22.54,21.59,43.3,30.44,65.88,5.93,15.11,10.44,32.06,10.77,49.45-1.74-1.78-3.46-3.76-5.15-5.88-.31-.21-.61-.43-.92-.64-.1-.31-.21-.62-.32-.93-9.95-12.92-19.06-30.75-26.68-45.87-10.82-21.46-22.54-41.42-32.85-64.29-9.87-21.91-18.73-44.83-27.71-67.51-2.72-6.19-5.33-12.42-7.82-18.68-8.01-17.62-18.54-38.06-22.65-54.88ZM1249.44,1343.78c-20.28-6.09-50-10.81-69.38-19.72q-29.23-13.45-41.7-22.53c19.58,1.72,37.83,4.68,59.8,10.62,24.23,6.55,48.44,13.38,72.56,19.47,24.38,6.15,48.61,9.32,73.14,16.71,23.22,7,47.33,10.03,70.52,17.13,15.52,4.76,31.6,11.77,45.42,22.32-17.69,1.83-42.25-3.11-62.33-7.27-23.53-4.88-46.45-8.11-70.77-14.27-25.68-6.5-51.56-14.73-77.27-22.46ZM1427.57,1449.3c-18.48,15.37-35.29,31.27-55.26,46.47-21.08,16.04-43.65,31.14-65.71,46.44-17.4,12.06-39.61,32.38-58.66,41.98q-28.73,14.48-43.61,18.57c13.54-14.25,27.23-26.67,45.57-40.15,20.22-14.87,40.65-29.55,60.44-44.62,20-15.24,37.58-32.22,58.65-46.8,19.94-13.81,37.34-30.77,57.34-44.48,13.39-9.18,28.89-17.38,45.76-21.62-9.59,14.97-28.76,31.11-44.52,44.22ZM1507.54,1302.17c9.99-21.86,18.24-43.48,29.65-65.83,12.05-23.59,25.83-46.99,39.08-70.33,10.45-18.41,21.66-46.35,34.66-63.26q19.61-25.5,31.24-35.64c-6.03,18.71-12.98,35.84-23.66,55.94-11.77,22.17-23.82,44.25-35.12,66.41-11.42,22.4-19.9,45.32-32.56,67.6-11.99,21.09-20.3,43.92-32.39,64.95-8.09,14.07-18.5,28.19-31.87,39.32,2.15-17.65,12.43-40.5,20.95-59.15ZM1501.52,1541.66c-.51,26.48-2.67,53.55-4.38,80.34-1.34,21.13.8,51.15-3.5,72.05q-6.48,31.51-12.5,45.72c-2.76-19.46-4.01-37.9-3.2-60.65.89-25.08,2.06-50.22,2.52-75.08.47-25.14-1.93-49.46-.29-75.03,1.55-24.21-.95-48.37.72-72.57,1.12-16.19,4.31-33.44,11.45-49.3,5.79,16.81,6.54,41.86,7.04,62.35.58,24.02,2.62,47.08,2.13,72.17ZM1677.27,1523.56c15.55,14.37,40.19,31.65,53.7,48.16q20.36,24.9,27.59,38.54c-16.84-10.13-31.94-20.8-49.08-35.78-18.9-16.51-37.66-33.28-56.67-49.32-19.21-16.22-39.6-29.7-58.4-47.11-17.8-16.48-38.14-29.78-55.86-46.33-11.86-11.08-23.23-24.44-31.03-39.99,16.7,6.12,36.61,21.33,52.82,33.87,19.01,14.71,38.18,27.66,57.34,43.87,20.23,17.11,39.87,35.86,59.58,54.08ZM1826.84,1310.44c-2.68.83-5.39,1.54-8.12,2.17-14.54,5.13-29.36,9.27-47.13,12.76-24.63,4.84-49.37,9.42-73.69,14.63-24.59,5.27-47.72,13.14-72.99,17.36-23.92,4-46.89,11.94-70.83,15.82-16.02,2.6-33.55,3.42-50.61.07,2.85-1.79,6.02-3.47,9.43-5.05.22-.21.45-.41.68-.61.3-.03.61-.07.91-.1,14.39-6.43,32.57-11.26,48.09-15.28,23.26-6.03,45.25-13.26,69.79-18.5,25.91-5.53,52.76-9.58,79.23-14.02,20.88-3.5,49.63-12.42,70.95-12.99q32.16-.86,47.36,1.77c-1.5.58-2.99,1.15-4.49,1.71.47.09.94.17,1.41.27Z"/>
        </g>
        <g>
          <path class="cls-2" d="M1822.97,1008.85l6.23,1.64,3.1.83c1.74.37,7.5,1.66,9.37,2.06,0,0,6.28,1.09,6.28,1.09l3.13.54c1.87.21,7.47.95,9.44,1.19,31.36,3.15,63.07-1.06,93.26-9.71,132.44-37.5,248.14-152.37,394.93-110.32,21.14,6.08,41.67,14.84,61.06,25.18,9.31,4.93,19.19,10.95,28.31,16.23,16.41,9.7,33.95,18.49,51.57,25.64,11.81,4.76,23.95,9.17,36.2,12.62,5.66,1.58,12.77,3.68,18.51,4.86,0,0,12.44,2.78,12.44,2.78l12.56,2.18,6.28,1.04,6.32.76c27.16,3.58,55.05,4.06,82.36,2.48,22.9-1.3,46.63-4.35,69.26-8.04,37.48-6.27,74.6-15.11,110.53-27.52,53.87-17.75,100.34-54.71,157.77-64.11,73.66-12.72,138.15,35.23,203.17,60.14,27.66,9.89,56.57,17.29,85.52,22.17,37.63,6.13,76.41,7.3,113.71-2.14,0,0,1.01,2.93,1.01,2.93-40.61,17.34-86.32,19.52-129.86,15.18-26.36-2.82-52.68-7.58-78.16-14.91-48.63-14.47-94.17-42.05-143.99-50.67-68.13-12.38-124.75,35.91-186.95,56.44-5.94,2.06-13.04,4.18-19.1,6.01-86.46,25.19-179,35.4-267.74,16.78-7.13-1.3-18.48-4.29-25.64-5.99-4.68-1.38-14.49-4.12-18.94-5.5-3.13-1.06-9.33-3.12-12.46-4.15-6.24-1.97-12.33-4.54-18.47-6.77-5.92-2.13-12.3-5.1-18.15-7.51-6.33-2.56-16.03-7.47-22.27-10.29-6.11-3.2-12.77-6.61-18.83-9.84-5.62-3.2-16.99-9.63-22.63-12.79-16.53-9.35-34.19-17.37-52.3-23.09-17.82-5.71-36.72-9.22-55.42-9.98-18.49-.82-37.39.92-55.48,4.78-22.39,4.58-44.29,12.09-65.52,20.5-47.84,18.97-93.47,43.02-140.86,63.28-63.22,26.96-135,48.12-203.14,27.78,0,0-3.15-1.03-3.15-1.03-2.09-.7-4.19-1.36-6.26-2.09l-6.14-2.41c-1.02-.4-2.04-.8-3.05-1.22l-2.99-1.37-5.94-2.77,1.13-2.89h0Z"/>
          <path class="cls-2" d="M1913.26,1676.91c11.07-28.35,28.51-55.38,51.26-76.11,1.44-1.3,6.09-5.32,7.37-6.46,2.21-1.67,5.54-4.3,7.78-5.98,2.72-2.11,8.43-5.81,11.34-7.8,3.12-1.85,7.05-4.16,10.19-5.98,0,0,1.75-.9,1.75-.9,1.82-.95,7.15-3.66,8.78-4.48,20.71-9.74,42.99-16.18,65.53-19.96,50.84-8.41,102.9-4.89,153.61,1.41,20.77,2.47,41.77,5.44,61.54,12.46,60.42,20.03,108.08,65.77,167.24,87.62,3.83,1.37,8.15,2.7,12.02,4.02,0,0,1.76.46,1.76.46l7.05,1.84c23.85,5.93,48.75,7.67,73.31,7.27,37.26-.53,74.93-6.12,111.83-11.51,0,0,7.3-1.19,7.3-1.19,2.27-.5,8.65-1.78,10.88-2.27,2.43-.57,8.32-2.09,10.79-2.67,2.14-.67,8.56-2.45,10.68-3.1,2.46-.78,8.12-2.65,10.59-3.44,8.9-3.14,19.07-7.01,27.74-10.75,55.78-23.77,107.22-57.4,165.15-76.51,22.46-7.32,45.95-12.43,69.56-13.8,0,0,7.98-.35,7.98-.35l2-.08c3.65.02,8.35.05,12.01.08,32.35,1.03,64.82,9.04,94.6,20.74,64.88,24.99,122.68,66.8,190.48,83.88,74.31,18.03,160.82,8.83,233.11-14.55,65.1-22.12,120.42-65.84,184.06-91.68,0,0,1.35,2.79,1.35,2.79-54.59,31.17-102.67,74.27-159.75,101.81-5.23,2.63-12.3,5.64-17.72,8.04-4.27,1.62-10.33,4.09-14.58,5.64-82.5,28.98-180.45,39.96-264.62,10.99-75.94-25.31-139.66-79.12-218.45-95.39-3.08-.68-7.31-1.28-10.46-1.87-5.95-.89-13.25-1.62-19.32-2.07-3.25-.11-7.35-.26-10.6-.38-20.78-.17-41.68,2.64-61.94,7.4-61.97,15-118.18,46.05-178.1,67.48-20.22,7.36-41.31,13.59-62.43,17.89-2.31.39-8.9,1.61-11.32,2.02-2.59.39-8.9,1.24-11.39,1.62-41.18,5-82.76,11.38-124.34,12.27-12.66.34-25.72.06-38.35-1.01-6.02-.34-13.24-1.45-19.23-2.19-3.81-.62-9.66-1.78-13.42-2.45-6.9-1.7-14.02-3.32-20.79-5.51-57.88-17.69-106.25-55.95-163.44-74.71-18.32-6.19-37.35-8.9-56.4-11.5-27.07-3.74-53.92-6.81-81.09-8.04-16.93-.77-34.32-.75-51.23.42-19.22,1.37-38.51,4.31-57.06,9.57,0,0-6.89,2.11-6.89,2.11-2.33.64-4.53,1.57-6.81,2.34l-3.4,1.21-1.7.6c-.56.22-1.11.46-1.66.69l-6.64,2.78-1.66.7c-2.94,1.45-6.77,3.29-9.72,4.73,0,0-1.57.88-1.57.88l-6.31,3.5c-.52.3-1.06.58-1.58.89l-1.52.97-3.05,1.94-3.05,1.94c-.51.33-1.02.64-1.52.98l-1.46,1.06-5.89,4.24-1.48,1.06-1.4,1.15-2.81,2.31-2.82,2.31c-.95.77-1.89,1.53-2.76,2.38l-5.38,4.95c-.88.84-1.84,1.61-2.66,2.52l-2.54,2.65c-13.68,14.01-25.41,30.15-35.55,47.43l-2.79-1.35h0Z"/>
        </g>
        <rect class="cls-8" x="-1870.44" y="-1105.24" width="1969.88" height="1969.88"/>
        <g>
          <rect class="cls-8" x="49.56" y="-1105.24" width="1969.88" height="1969.88"/>
          <path class="cls-3" d="M798.03,348.2c-43.87-5.36-96.72-9.74-146.28-5.81-5.75,4.51-14.66,6.26-20.61,11.05-3.85,3.1-7.74,6.49-11.46,10.05-.08.13-.15.26-.23.39,0-.05,0-.12,0-.17-3.55,3.41-6.95,6.97-10,10.58,1.66-10.53,6.17-19.6,12.14-28.33-17.62,2.84-34.46,6.99-49.88,12.89-3.12,1.19-6.2,2.45-9.24,3.75,36-39.01,67.98-81.76,82.4-131.76,6.13-21.24,10.95-44.25,14.25-67.84-11.73,3.9-27.7,7.63-37.72,3.13,4.86-6.8,20.6-9.72,28.27-13.79,3.57-1.9,7.7-4.09,11.59-6.59,4.16-38.88,4.06-78.62-1.42-114.23-32.5,26.73-65.11,53.73-95.58,83.63-33.45,32.83-72.33,74.23-100.7,118.23-.22,5.59-1.27,11.55-.24,16.9,1.84,9.59,4.59,19.86,8.23,28.94-8.61-6.47-14.53-14.8-19.46-24.28-.24-.45-.45-.91-.66-1.36-8.3,14.94-15.15,30.06-19.96,45.16-1.01,3.19-1.95,6.37-2.83,9.56-8.05-52.47-21.54-104.12-51.64-146.58-12.82-18.08-27.81-36.24-44.24-53.57-3.17,12.12-9.03,28.71-18.79,34.84-2.96-7.82,3.35-22.54,4.21-31.17.53-5.27,1.17-11.6.91-17.57-27.4-26.86-57.93-50.95-88.59-68.52.64,42.08,1.41,84.41,5.79,126.87,4.99,48.37,13.55,107.07,31.58,158.01,4.36,2.38,8.74,5.16,13.37,6.3,9.48,2.34,19.96,4.15,29.73,4.64-9.48,5.11-19.53,6.99-30.2,7.51-2.05.1-4-.03-5.91-.29,6.35,15.18,13.68,29.4,22.18,42.1,1.86,2.78,3.77,5.5,5.71,8.17-46.04-26.42-94.83-48.08-146.79-51.01-19.99-1.13-41.14-.9-62.58.66.1.35.21.69.32,1.06,3.69,11.93,8.51,32,2.63,43.38-6.52-5.23-8.56-21.12-12.19-29-.52-1.14-1.08-2.33-1.65-3.55-2.27-3.51-4.7-6.99-7.32-10.27-40.77,4.37-81.7,13.54-116.86,27.47,33.3,25.74,66.87,51.52,102.8,74.57,39.84,25.56,89.44,54.57,139.15,72.39,5.04-1.15,10.43-1.91,14.85-4.19,8.68-4.47,17.76-10,25.44-16.06-3.78,10.08-10.11,18.11-17.81,25.52-.55.53-1.11,1.02-1.68,1.49,16.44,4.78,32.75,8.13,48.57,9.45,3.34.28,6.66.48,9.96.64-49.36,19.52-96.73,44.16-131.42,82.96-15.06,16.84-29.7,35.92-43.15,56.23.02,0,.04,0,.06,0,12.43,1.16,32.82,4.39,41.08,14.18-7.33,4.02-22.78-.18-31.46.16-6.09.24-13.59.53-20.15,2.1-19.76,32.34-36.18,67.03-46.36,100.41,40.89-9.98,81.98-20.16,122.4-33.88,43.99-14.93,96.44-35.14,140.84-62.12,2.13-5.81,5.91-11.67,6.95-17.74,1.64-9.62,2.68-20.21,2.46-29.99,5.78,9.08,8.4,18.96,9.69,29.57.23,1.93.26,3.79.16,5.62,14.58-10.17,27.89-21.19,39.19-33.14,2.3-2.43,4.52-4.9,6.7-7.38-15.51,50.77-25.77,103.16-17.07,154.47,3.55,20.95,8.89,42.85,15.75,64.67,7.83-9.86,20.54-23.57,32.43-25.2-.42,6.74-8.2,15.09-13.47,22.01.65-.19,1.28-.35,1.89-.47-1.57,1.49-3.17,3.02-4.77,4.59-.11.18-.22.36-.33.54-3.09,5.35-6.92,11.95-9.08,18.41,13.09,36.56,30.33,72.04,50.57,101.53,17.69-38.19,35.35-76.66,49.83-116.82,15.63-43.35,32.38-96.45,39.09-147.6-3.13-5.84-4.56-13.47-8.47-18.93-5.68-7.94-12.47-16.13-19.57-22.85,10.52,2.28,19.38,7.38,27.83,13.93.96.74,1.84,1.52,2.67,2.33,1.04-17.25.68-34.04-1.56-49.89-.47-3.31-1.01-6.59-1.6-9.84,30.02,43.78,64.58,84.47,110.12,109.66,20.36,11.26,42.93,21.55,66.45,30.32-1.27-12.52-1.7-31.03,5.62-40.44,5.46,6.33,4.56,22.32,6.71,30.73,1.22,4.79,2.67,10.49,4.72,15.73,35.72,11.94,72.92,20.14,107.5,22.62-18.83-37.64-37.89-75.44-60.27-111.79-24.19-39.3-55.3-85.58-91.18-122.74-6.68-1.42-13.57-5.74-20.51-6.5-3.35-.37-6.81-.65-10.3-.84-.54.08-1.08.16-1.61.24.12-.1.25-.2.37-.31-6.23-.29-12.56-.26-18.54.24,8.72-6.31,18.43-9.51,28.95-11.43.68-.12,1.36-.22,2.03-.29-12.42-11.06-25.33-20.82-38.64-28.66-2.88-1.7-5.78-3.32-8.69-4.89,52.94,3.83,106.3,2.17,154.39-17.73,20.23-8.37,41-18.82,61.32-30.79-.05-.03-.09-.05-.13-.08-10.92-6.06-28.3-17.21-31.92-29.49,8.33-.74,20.79,9.32,28.87,12.49,6.04,2.37,13.58,5.34,20.59,6.39,32.26-20.73,62.52-45.12,86.46-71.08-41.17-8.74-82.61-17.41-124.98-22.58ZM297.78,197.67q-7.65-31.25-8.29-46.67c10.84,16.4,19.86,32.53,28.87,53.43,9.94,23.05,19.65,46.26,29.89,68.92,10.35,22.92,22.94,43.86,32.41,67.67,8.97,22.54,21.59,43.3,30.44,65.88,5.93,15.11,10.44,32.06,10.77,49.45-1.74-1.78-3.46-3.76-5.15-5.88-.31-.21-.61-.43-.92-.64-.1-.31-.21-.62-.32-.93-9.95-12.92-19.06-30.75-26.68-45.87-10.82-21.46-22.54-41.42-32.85-64.29-9.87-21.91-18.73-44.83-27.71-67.51-2.72-6.19-5.33-12.42-7.82-18.68-8.01-17.62-18.54-38.06-22.65-54.88ZM204.16,433.26c-20.28-6.09-50-10.81-69.38-19.72q-29.23-13.45-41.7-22.53c19.58,1.72,37.83,4.68,59.8,10.62,24.23,6.55,48.44,13.38,72.56,19.47,24.38,6.15,48.61,9.32,73.14,16.71,23.22,7,47.33,10.03,70.52,17.13,15.52,4.76,31.6,11.77,45.42,22.32-17.69,1.83-42.25-3.11-62.33-7.27-23.53-4.88-46.45-8.11-70.77-14.27-25.68-6.5-51.56-14.73-77.27-22.46ZM382.28,538.77c-18.48,15.37-35.29,31.27-55.26,46.47-21.08,16.04-43.65,31.14-65.71,46.44-17.4,12.06-39.61,32.38-58.66,41.98q-28.73,14.48-43.61,18.57c13.54-14.25,27.23-26.67,45.57-40.15,20.22-14.87,40.65-29.55,60.44-44.62,20-15.24,37.58-32.22,58.65-46.8,19.94-13.81,37.34-30.77,57.34-44.48,13.39-9.18,28.89-17.38,45.76-21.62-9.59,14.97-28.76,31.11-44.52,44.22ZM462.26,391.64c9.99-21.86,18.24-43.48,29.65-65.83,12.05-23.59,25.83-46.99,39.08-70.33,10.45-18.41,21.66-46.35,34.66-63.26q19.61-25.5,31.24-35.64c-6.03,18.71-12.98,35.84-23.66,55.94-11.77,22.17-23.82,44.25-35.12,66.41-11.42,22.4-19.9,45.32-32.56,67.6-11.99,21.09-20.3,43.92-32.39,64.95-8.09,14.07-18.5,28.19-31.87,39.32,2.15-17.65,12.43-40.5,20.95-59.15ZM456.23,631.13c-.51,26.48-2.67,53.55-4.38,80.34-1.34,21.13.8,51.15-3.5,72.05q-6.48,31.51-12.5,45.72c-2.76-19.46-4.01-37.9-3.2-60.65.89-25.08,2.06-50.22,2.52-75.08.47-25.14-1.93-49.46-.29-75.03,1.55-24.21-.95-48.37.72-72.57,1.12-16.19,4.31-33.44,11.45-49.3,5.79,16.81,6.54,41.86,7.04,62.35.58,24.02,2.62,47.08,2.13,72.17ZM631.98,613.03c15.55,14.37,40.19,31.65,53.7,48.16q20.36,24.9,27.59,38.54c-16.84-10.13-31.94-20.8-49.08-35.78-18.9-16.51-37.66-33.28-56.67-49.32-19.21-16.22-39.6-29.7-58.4-47.11-17.8-16.48-38.14-29.78-55.86-46.33-11.86-11.08-23.23-24.44-31.03-39.99,16.7,6.12,36.61,21.33,52.82,33.87,19.01,14.71,38.18,27.66,57.34,43.87,20.23,17.11,39.87,35.86,59.58,54.08ZM781.55,399.91c-2.68.83-5.39,1.54-8.12,2.17-14.54,5.13-29.36,9.27-47.13,12.76-24.63,4.84-49.37,9.42-73.69,14.63-24.59,5.27-47.72,13.14-72.99,17.36-23.92,4-46.89,11.94-70.83,15.82-16.02,2.6-33.55,3.42-50.61.07,2.85-1.79,6.02-3.47,9.43-5.05.22-.21.45-.41.68-.61.3-.03.61-.07.91-.1,14.39-6.43,32.57-11.26,48.09-15.28,23.26-6.03,45.25-13.26,69.79-18.5,25.91-5.53,52.76-9.58,79.23-14.02,20.88-3.5,49.63-12.42,70.95-12.99q32.16-.86,47.36,1.77c-1.5.58-2.99,1.15-4.49,1.71.47.09.94.17,1.41.27Z"/>
          <path class="cls-3" d="M1566.85,706.81c-68.91-30.03-173.79,40.06-144.35,124.22,31.13,88.99,176.67,94.52,202.3-3.04,12.02-45.74-12.33-101.3-57.95-121.18ZM1528.41,772.21c-14.36-7.84-8.46-26.96,4.29-26.18,25.35,1.57,13.63,35.95-4.29,26.18ZM1567.28,808.36c-14.54-8.89-2.95-27.06,10.53-17.27,17.61,12.79,9.33,29.41-10.53,17.27ZM1581.11,766.33c-11.48-5.02-6.68-24.41,5.35-20.56,16.72,5.34,12.09,28.2-5.35,20.56Z"/>
        </g>
        <path class="cls-3" d="M2718.03,348.2c-43.87-5.36-96.72-9.74-146.28-5.81-5.75,4.51-14.66,6.26-20.61,11.05-3.85,3.1-7.74,6.49-11.46,10.05-.08.13-.15.26-.23.39,0-.05,0-.12,0-.17-3.55,3.41-6.95,6.97-10,10.58,1.66-10.53,6.17-19.6,12.14-28.33-17.62,2.84-34.46,6.99-49.88,12.89-3.12,1.19-6.2,2.45-9.24,3.75,36-39.01,67.98-81.76,82.4-131.76,6.13-21.24,10.95-44.25,14.25-67.84-11.73,3.9-27.7,7.63-37.72,3.13,4.86-6.8,20.6-9.72,28.27-13.79,3.57-1.9,7.7-4.09,11.59-6.59,4.16-38.88,4.06-78.62-1.42-114.23-32.5,26.73-65.11,53.73-95.58,83.63-33.45,32.83-72.33,74.23-100.7,118.23-.22,5.59-1.27,11.55-.24,16.9,1.84,9.59,4.59,19.86,8.23,28.94-8.61-6.47-14.53-14.8-19.46-24.28-.24-.45-.45-.91-.66-1.36-8.3,14.94-15.15,30.06-19.96,45.16-1.01,3.19-1.95,6.37-2.83,9.56-8.05-52.47-21.54-104.12-51.64-146.58-12.82-18.08-27.81-36.24-44.24-53.57-3.17,12.12-9.03,28.71-18.79,34.84-2.96-7.82,3.35-22.54,4.21-31.17.53-5.27,1.17-11.6.91-17.57-27.4-26.86-57.93-50.95-88.59-68.52.64,42.08,1.41,84.41,5.79,126.87,4.99,48.37,13.55,107.07,31.58,158.01,4.36,2.38,8.74,5.16,13.37,6.3,9.48,2.34,19.96,4.15,29.73,4.64-9.48,5.11-19.53,6.99-30.2,7.51-2.05.1-4-.03-5.91-.29,6.35,15.18,13.68,29.4,22.18,42.1,1.86,2.78,3.77,5.5,5.71,8.17-46.04-26.42-94.83-48.08-146.79-51.01-19.99-1.13-41.14-.9-62.58.66.1.35.21.69.32,1.06,3.69,11.93,8.51,32,2.63,43.38-6.52-5.23-8.56-21.12-12.19-29-.52-1.14-1.08-2.33-1.65-3.55-2.27-3.51-4.7-6.99-7.32-10.27-40.77,4.37-81.7,13.54-116.86,27.47,33.3,25.74,66.87,51.52,102.8,74.57,39.84,25.56,89.44,54.57,139.15,72.39,5.04-1.15,10.43-1.91,14.85-4.19,8.68-4.47,17.76-10,25.44-16.06-3.78,10.08-10.11,18.11-17.81,25.52-.55.53-1.11,1.02-1.68,1.49,16.44,4.78,32.75,8.13,48.57,9.45,3.34.28,6.66.48,9.96.64-49.36,19.52-96.73,44.16-131.42,82.96-15.06,16.84-29.7,35.92-43.15,56.23.02,0,.04,0,.06,0,12.43,1.16,32.82,4.39,41.08,14.18-7.33,4.02-22.78-.18-31.46.16-6.09.24-13.59.53-20.15,2.1-19.76,32.34-36.18,67.03-46.36,100.41,40.89-9.98,81.98-20.16,122.4-33.88,43.99-14.93,96.44-35.14,140.84-62.12,2.13-5.81,5.91-11.67,6.95-17.74,1.64-9.62,2.68-20.21,2.46-29.99,5.78,9.08,8.4,18.96,9.69,29.57.23,1.93.26,3.79.16,5.62,14.58-10.17,27.89-21.19,39.19-33.14,2.3-2.43,4.52-4.9,6.7-7.38-15.51,50.77-25.77,103.16-17.07,154.47,3.55,20.95,8.89,42.85,15.75,64.67,7.83-9.86,20.54-23.57,32.43-25.2-.42,6.74-8.2,15.09-13.47,22.01.65-.19,1.28-.35,1.89-.47-1.57,1.49-3.17,3.02-4.77,4.59-.11.18-.22.36-.33.54-3.09,5.35-6.92,11.95-9.08,18.41,13.09,36.56,30.33,72.04,50.57,101.53,17.69-38.19,35.35-76.66,49.83-116.82,15.63-43.35,32.38-96.45,39.09-147.6-3.13-5.84-4.56-13.47-8.47-18.93-5.68-7.94-12.47-16.13-19.57-22.85,10.52,2.28,19.38,7.38,27.83,13.93.96.74,1.84,1.52,2.67,2.33,1.04-17.25.68-34.04-1.56-49.89-.47-3.31-1.01-6.59-1.6-9.84,30.02,43.78,64.58,84.47,110.12,109.66,20.36,11.26,42.93,21.55,66.45,30.32-1.27-12.52-1.7-31.03,5.62-40.44,5.46,6.33,4.56,22.32,6.71,30.73,1.22,4.79,2.67,10.49,4.72,15.73,35.72,11.94,72.92,20.14,107.5,22.62-18.83-37.64-37.89-75.44-60.27-111.79-24.19-39.3-55.3-85.58-91.18-122.74-6.68-1.42-13.57-5.74-20.51-6.5-3.35-.37-6.81-.65-10.3-.84-.54.08-1.08.16-1.61.24.12-.1.25-.2.37-.31-6.23-.29-12.56-.26-18.54.24,8.72-6.31,18.43-9.51,28.95-11.43.68-.12,1.36-.22,2.03-.29-12.42-11.06-25.33-20.82-38.64-28.66-2.88-1.7-5.78-3.32-8.69-4.89,52.94,3.83,106.3,2.17,154.39-17.73,20.23-8.37,41-18.82,61.32-30.79-.05-.03-.09-.05-.13-.08-10.92-6.06-28.3-17.21-31.92-29.49,8.33-.74,20.79,9.32,28.87,12.49,6.04,2.37,13.58,5.34,20.59,6.39,32.26-20.73,62.52-45.12,86.46-71.08-41.17-8.74-82.61-17.41-124.98-22.58ZM2217.78,197.67q-7.65-31.25-8.29-46.67c10.84,16.4,19.86,32.53,28.87,53.43,9.94,23.05,19.65,46.26,29.89,68.92,10.35,22.92,22.94,43.86,32.41,67.67,8.97,22.54,21.59,43.3,30.44,65.88,5.93,15.11,10.44,32.06,10.77,49.45-1.74-1.78-3.46-3.76-5.15-5.88-.31-.21-.61-.43-.92-.64-.1-.31-.21-.62-.32-.93-9.95-12.92-19.06-30.75-26.68-45.87-10.82-21.46-22.54-41.42-32.85-64.29-9.87-21.91-18.73-44.83-27.71-67.51-2.72-6.19-5.33-12.42-7.82-18.68-8.01-17.62-18.54-38.06-22.65-54.88ZM2124.16,433.26c-20.28-6.09-50-10.81-69.38-19.72q-29.23-13.45-41.7-22.53c19.58,1.72,37.83,4.68,59.8,10.62,24.23,6.55,48.44,13.38,72.56,19.47,24.38,6.15,48.61,9.32,73.14,16.71,23.22,7,47.33,10.03,70.52,17.13,15.52,4.76,31.6,11.77,45.42,22.32-17.69,1.83-42.25-3.11-62.33-7.27-23.53-4.88-46.45-8.11-70.77-14.27-25.68-6.5-51.56-14.73-77.27-22.46ZM2302.28,538.77c-18.48,15.37-35.29,31.27-55.26,46.47-21.08,16.04-43.65,31.14-65.71,46.44-17.4,12.06-39.61,32.38-58.66,41.98q-28.73,14.48-43.61,18.57c13.54-14.25,27.23-26.67,45.57-40.15,20.22-14.87,40.65-29.55,60.44-44.62,20-15.24,37.58-32.22,58.65-46.8,19.94-13.81,37.34-30.77,57.34-44.48,13.39-9.18,28.89-17.38,45.76-21.62-9.59,14.97-28.76,31.11-44.52,44.22ZM2382.26,391.64c9.99-21.86,18.24-43.48,29.65-65.83,12.05-23.59,25.83-46.99,39.08-70.33,10.45-18.41,21.66-46.35,34.66-63.26q19.61-25.5,31.24-35.64c-6.03,18.71-12.98,35.84-23.66,55.94-11.77,22.17-23.82,44.25-35.12,66.41-11.42,22.4-19.9,45.32-32.56,67.6-11.99,21.09-20.3,43.92-32.39,64.95-8.09,14.07-18.5,28.19-31.87,39.32,2.15-17.65,12.43-40.5,20.95-59.15ZM2376.23,631.13c-.51,26.48-2.67,53.55-4.38,80.34-1.34,21.13.8,51.15-3.5,72.05q-6.48,31.51-12.5,45.72c-2.76-19.46-4.01-37.9-3.2-60.65.89-25.08,2.06-50.22,2.52-75.08.47-25.14-1.93-49.46-.29-75.03,1.55-24.21-.95-48.37.72-72.57,1.12-16.19,4.31-33.44,11.45-49.3,5.79,16.81,6.54,41.86,7.04,62.35.58,24.02,2.62,47.08,2.13,72.17ZM2551.98,613.03c15.55,14.37,40.19,31.65,53.7,48.16q20.36,24.9,27.59,38.54c-16.84-10.13-31.94-20.8-49.08-35.78-18.9-16.51-37.66-33.28-56.67-49.32-19.21-16.22-39.6-29.7-58.4-47.11-17.8-16.48-38.14-29.78-55.86-46.33-11.86-11.08-23.23-24.44-31.03-39.99,16.7,6.12,36.61,21.33,52.82,33.87,19.01,14.71,38.18,27.66,57.34,43.87,20.23,17.11,39.87,35.86,59.58,54.08ZM2701.55,399.91c-2.68.83-5.39,1.54-8.12,2.17-14.54,5.13-29.36,9.27-47.13,12.76-24.63,4.84-49.37,9.42-73.69,14.63-24.59,5.27-47.72,13.14-72.99,17.36-23.92,4-46.89,11.94-70.83,15.82-16.02,2.6-33.55,3.42-50.61.07,2.85-1.79,6.02-3.47,9.43-5.05.22-.21.45-.41.68-.61.3-.03.61-.07.91-.1,14.39-6.43,32.57-11.26,48.09-15.28,23.26-6.03,45.25-13.26,69.79-18.5,25.91-5.53,52.76-9.58,79.23-14.02,20.88-3.5,49.63-12.42,70.95-12.99q32.16-.86,47.36,1.77c-1.5.58-2.99,1.15-4.49,1.71.47.09.94.17,1.41.27Z"/>
      </g>
      <g class="cls-5">
        <rect class="cls-8" x="-1870.44" y="814.76" width="1969.88" height="1969.88"/>
        <rect class="cls-8" x="49.56" y="814.76" width="1969.88" height="1969.88"/>
        <g>
          <rect class="cls-8" x="-1870.44" y="-1105.24" width="1969.88" height="1969.88"/>
          <path class="cls-2" d="M-1536.29,717.35c86.44-33.75,157.77-92.38,245.89-123.49,71.61-25.49,135.95-21.92,206.48,4.09,68.73,25.76,130.72,65.46,202.27,85.15,68.27,19.21,141.65,17.74,211.18,4.96,38.76-7.17,77.05-17.13,113.82-30.32,62.83-22.94,124.16-57.84,194.18-57.96,12.58-.02,25.26.96,37.59,3.22,82.69,16.87,153.81,60.71,229.6,91.85,30.67,12.76,62.29,23.46,95.43,29.97,0,0-.39,2.4-.39,2.4-24.56-1.69-49.03-6.33-72.69-12.64-82.35-22.04-156.73-64.05-239.47-83.62-75.68-19.09-142.38,15.01-210.58,40.25-75.02,27.73-156.39,44.31-237.8,40.7-22.62-1.06-45.33-3.52-67.52-7.61-93.19-15.52-172.28-66.6-261.45-91.96-76.8-21.53-141.43-19.78-215.38,9.66-46.66,18.17-89.51,41.91-135.03,62.94-30.46,14.02-62.02,27.1-95.29,34.72,0,0-.86-2.3-.86-2.3h0Z"/>
        </g>
        <g>
          <rect class="cls-8" x="49.56" y="-1105.24" width="1969.88" height="1969.88"/>
          <path class="cls-2" d="M-207.54,412.33c39.67,6.72,80,2.58,118.55-7.95,46.34-12.43,90.69-32.78,134.52-52.23,6.93-3.06,15.79-7.1,22.64-9.8,23.88-9.92,50.42-14.32,76.31-12.28,75.63,6.08,135.93,57.31,205.92,80.7,53.39,17.85,110.92,22,166.61,14.62,55.62-7.03,110.42-23.67,164.23-39.32,7.77-2.27,15.14-4.58,22.74-7.17,34.84-11.87,69.09-26.88,105.48-34.61,2.07-.49,4.21-.81,6.31-1.22l3.17-.58,1.58-.29,1.61-.23,6.43-.89,1.61-.22,1.62-.15,3.23-.31c46.21-4.16,92.01,6.82,136.56,17.58,87.33,23.19,185.5,89.34,276.61,77.63,15.63-2.16,30.89-7.33,44.92-15.25l1.41,2.12c-5.72,4.36-11.92,8.27-18.33,11.55-80.43,39.61-187-10.69-265.59-36.98-17.1-5.81-33.81-11.17-50.98-14.84-13.5-2.86-27.9-5.92-41.35-8.43-32.27-5.96-65.43-10.07-97.98-4.57-29.49,4.82-57.15,14.84-85.69,24.29-23.25,8.02-47.13,14.59-71.06,20.29-67.53,16.61-137.18,28.05-206.92,23.99-53.26-2.79-105.75-15.44-154.93-35.95-44.57-17.74-88.13-39.28-135.67-47.19-31.41-5.4-63.02-2.19-92.15,9.76,0,0-1.33.51-1.33.51l-1.39.58-5.59,2.36c-17.22,7.23-39.1,16.42-56.53,23.13-38.42,14.86-78.03,27.57-119.11,32.35-24.7,2.77-49.82,2.61-74.22-2.27,0,0-6.05-1.25-6.05-1.25l-5.98-1.51-2.98-.77-2.95-.9-5.87-1.83.62-2.47h0Z"/>
          <path class="cls-3" d="M798.03,348.2c-43.87-5.36-96.72-9.74-146.28-5.81-5.75,4.51-14.66,6.26-20.61,11.05-3.85,3.1-7.74,6.49-11.46,10.05-.08.13-.15.26-.23.39,0-.05,0-.12,0-.17-3.55,3.41-6.95,6.97-10,10.58,1.66-10.53,6.17-19.6,12.14-28.33-17.62,2.84-34.46,6.99-49.88,12.89-3.12,1.19-6.2,2.45-9.24,3.75,36-39.01,67.98-81.76,82.4-131.76,6.13-21.24,10.95-44.25,14.25-67.84-11.73,3.9-27.7,7.63-37.72,3.13,4.86-6.8,20.6-9.72,28.27-13.79,3.57-1.9,7.7-4.09,11.59-6.59,4.16-38.88,4.06-78.62-1.42-114.23-32.5,26.73-65.11,53.73-95.58,83.63-33.45,32.83-72.33,74.23-100.7,118.23-.22,5.59-1.27,11.55-.24,16.9,1.84,9.59,4.59,19.86,8.23,28.94-8.61-6.47-14.53-14.8-19.46-24.28-.24-.45-.45-.91-.66-1.36-8.3,14.94-15.15,30.06-19.96,45.16-1.01,3.19-1.95,6.37-2.83,9.56-8.05-52.47-21.54-104.12-51.64-146.58-12.82-18.08-27.81-36.24-44.24-53.57-3.17,12.12-9.03,28.71-18.79,34.84-2.96-7.82,3.35-22.54,4.21-31.17.53-5.27,1.17-11.6.91-17.57-27.4-26.86-57.93-50.95-88.59-68.52.64,42.08,1.41,84.41,5.79,126.87,4.99,48.37,13.55,107.07,31.58,158.01,4.36,2.38,8.74,5.16,13.37,6.3,9.48,2.34,19.96,4.15,29.73,4.64-9.48,5.11-19.53,6.99-30.2,7.51-2.05.1-4-.03-5.91-.29,6.35,15.18,13.68,29.4,22.18,42.1,1.86,2.78,3.77,5.5,5.71,8.17-46.04-26.42-94.83-48.08-146.79-51.01-19.99-1.13-41.14-.9-62.58.66.1.35.21.69.32,1.06,3.69,11.93,8.51,32,2.63,43.38-6.52-5.23-8.56-21.12-12.19-29-.52-1.14-1.08-2.33-1.65-3.55-2.27-3.51-4.7-6.99-7.32-10.27-40.77,4.37-81.7,13.54-116.86,27.47,33.3,25.74,66.87,51.52,102.8,74.57,39.84,25.56,89.44,54.57,139.15,72.39,5.04-1.15,10.43-1.91,14.85-4.19,8.68-4.47,17.76-10,25.44-16.06-3.78,10.08-10.11,18.11-17.81,25.52-.55.53-1.11,1.02-1.68,1.49,16.44,4.78,32.75,8.13,48.57,9.45,3.34.28,6.66.48,9.96.64-49.36,19.52-96.73,44.16-131.42,82.96-15.06,16.84-29.7,35.92-43.15,56.23.02,0,.04,0,.06,0,12.43,1.16,32.82,4.39,41.08,14.18-7.33,4.02-22.78-.18-31.46.16-6.09.24-13.59.53-20.15,2.1-19.76,32.34-36.18,67.03-46.36,100.41,40.89-9.98,81.98-20.16,122.4-33.88,43.99-14.93,96.44-35.14,140.84-62.12,2.13-5.81,5.91-11.67,6.95-17.74,1.64-9.62,2.68-20.21,2.46-29.99,5.78,9.08,8.4,18.96,9.69,29.57.23,1.93.26,3.79.16,5.62,14.58-10.17,27.89-21.19,39.19-33.14,2.3-2.43,4.52-4.9,6.7-7.38-15.51,50.77-25.77,103.16-17.07,154.47,3.55,20.95,8.89,42.85,15.75,64.67,7.83-9.86,20.54-23.57,32.43-25.2-.42,6.74-8.2,15.09-13.47,22.01.65-.19,1.28-.35,1.89-.47-1.57,1.49-3.17,3.02-4.77,4.59-.11.18-.22.36-.33.54-3.09,5.35-6.92,11.95-9.08,18.41,13.09,36.56,30.33,72.04,50.57,101.53,17.69-38.19,35.35-76.66,49.83-116.82,15.63-43.35,32.38-96.45,39.09-147.6-3.13-5.84-4.56-13.47-8.47-18.93-5.68-7.94-12.47-16.13-19.57-22.85,10.52,2.28,19.38,7.38,27.83,13.93.96.74,1.84,1.52,2.67,2.33,1.04-17.25.68-34.04-1.56-49.89-.47-3.31-1.01-6.59-1.6-9.84,30.02,43.78,64.58,84.47,110.12,109.66,20.36,11.26,42.93,21.55,66.45,30.32-1.27-12.52-1.7-31.03,5.62-40.44,5.46,6.33,4.56,22.32,6.71,30.73,1.22,4.79,2.67,10.49,4.72,15.73,35.72,11.94,72.92,20.14,107.5,22.62-18.83-37.64-37.89-75.44-60.27-111.79-24.19-39.3-55.3-85.58-91.18-122.74-6.68-1.42-13.57-5.74-20.51-6.5-3.35-.37-6.81-.65-10.3-.84-.54.08-1.08.16-1.61.24.12-.1.25-.2.37-.31-6.23-.29-12.56-.26-18.54.24,8.72-6.31,18.43-9.51,28.95-11.43.68-.12,1.36-.22,2.03-.29-12.42-11.06-25.33-20.82-38.64-28.66-2.88-1.7-5.78-3.32-8.69-4.89,52.94,3.83,106.3,2.17,154.39-17.73,20.23-8.37,41-18.82,61.32-30.79-.05-.03-.09-.05-.13-.08-10.92-6.06-28.3-17.21-31.92-29.49,8.33-.74,20.79,9.32,28.87,12.49,6.04,2.37,13.58,5.34,20.59,6.39,32.26-20.73,62.52-45.12,86.46-71.08-41.17-8.74-82.61-17.41-124.98-22.58ZM297.78,197.67q-7.65-31.25-8.29-46.67c10.84,16.4,19.86,32.53,28.87,53.43,9.94,23.05,19.65,46.26,29.89,68.92,10.35,22.92,22.94,43.86,32.41,67.67,8.97,22.54,21.59,43.3,30.44,65.88,5.93,15.11,10.44,32.06,10.77,49.45-1.74-1.78-3.46-3.76-5.15-5.88-.31-.21-.61-.43-.92-.64-.1-.31-.21-.62-.32-.93-9.95-12.92-19.06-30.75-26.68-45.87-10.82-21.46-22.54-41.42-32.85-64.29-9.87-21.91-18.73-44.83-27.71-67.51-2.72-6.19-5.33-12.42-7.82-18.68-8.01-17.62-18.54-38.06-22.65-54.88ZM204.16,433.26c-20.28-6.09-50-10.81-69.38-19.72q-29.23-13.45-41.7-22.53c19.58,1.72,37.83,4.68,59.8,10.62,24.23,6.55,48.44,13.38,72.56,19.47,24.38,6.15,48.61,9.32,73.14,16.71,23.22,7,47.33,10.03,70.52,17.13,15.52,4.76,31.6,11.77,45.42,22.32-17.69,1.83-42.25-3.11-62.33-7.27-23.53-4.88-46.45-8.11-70.77-14.27-25.68-6.5-51.56-14.73-77.27-22.46ZM382.28,538.77c-18.48,15.37-35.29,31.27-55.26,46.47-21.08,16.04-43.65,31.14-65.71,46.44-17.4,12.06-39.61,32.38-58.66,41.98q-28.73,14.48-43.61,18.57c13.54-14.25,27.23-26.67,45.57-40.15,20.22-14.87,40.65-29.55,60.44-44.62,20-15.24,37.58-32.22,58.65-46.8,19.94-13.81,37.34-30.77,57.34-44.48,13.39-9.18,28.89-17.38,45.76-21.62-9.59,14.97-28.76,31.11-44.52,44.22ZM462.26,391.64c9.99-21.86,18.24-43.48,29.65-65.83,12.05-23.59,25.83-46.99,39.08-70.33,10.45-18.41,21.66-46.35,34.66-63.26q19.61-25.5,31.24-35.64c-6.03,18.71-12.98,35.84-23.66,55.94-11.77,22.17-23.82,44.25-35.12,66.41-11.42,22.4-19.9,45.32-32.56,67.6-11.99,21.09-20.3,43.92-32.39,64.95-8.09,14.07-18.5,28.19-31.87,39.32,2.15-17.65,12.43-40.5,20.95-59.15ZM456.23,631.13c-.51,26.48-2.67,53.55-4.38,80.34-1.34,21.13.8,51.15-3.5,72.05q-6.48,31.51-12.5,45.72c-2.76-19.46-4.01-37.9-3.2-60.65.89-25.08,2.06-50.22,2.52-75.08.47-25.14-1.93-49.46-.29-75.03,1.55-24.21-.95-48.37.72-72.57,1.12-16.19,4.31-33.44,11.45-49.3,5.79,16.81,6.54,41.86,7.04,62.35.58,24.02,2.62,47.08,2.13,72.17ZM631.98,613.03c15.55,14.37,40.19,31.65,53.7,48.16q20.36,24.9,27.59,38.54c-16.84-10.13-31.94-20.8-49.08-35.78-18.9-16.51-37.66-33.28-56.67-49.32-19.21-16.22-39.6-29.7-58.4-47.11-17.8-16.48-38.14-29.78-55.86-46.33-11.86-11.08-23.23-24.44-31.03-39.99,16.7,6.12,36.61,21.33,52.82,33.87,19.01,14.71,38.18,27.66,57.34,43.87,20.23,17.11,39.87,35.86,59.58,54.08ZM781.55,399.91c-2.68.83-5.39,1.54-8.12,2.17-14.54,5.13-29.36,9.27-47.13,12.76-24.63,4.84-49.37,9.42-73.69,14.63-24.59,5.27-47.72,13.14-72.99,17.36-23.92,4-46.89,11.94-70.83,15.82-16.02,2.6-33.55,3.42-50.61.07,2.85-1.79,6.02-3.47,9.43-5.05.22-.21.45-.41.68-.61.3-.03.61-.07.91-.1,14.39-6.43,32.57-11.26,48.09-15.28,23.26-6.03,45.25-13.26,69.79-18.5,25.91-5.53,52.76-9.58,79.23-14.02,20.88-3.5,49.63-12.42,70.95-12.99q32.16-.86,47.36,1.77c-1.5.58-2.99,1.15-4.49,1.71.47.09.94.17,1.41.27Z"/>
        </g>
      </g>
      <g class="cls-6">
        <g>
          <rect class="cls-8" x="-1870.44" y="814.76" width="1969.88" height="1969.88"/>
          <path class="cls-3" d="M-76.68,1258.73c-43.87-5.36-96.72-9.74-146.28-5.81-5.75,4.51-14.66,6.26-20.61,11.05-3.85,3.1-7.74,6.49-11.46,10.05-.08.13-.15.26-.23.39,0-.05,0-.12,0-.17-3.55,3.41-6.95,6.97-10,10.58,1.66-10.53,6.17-19.6,12.14-28.33-17.62,2.84-34.46,6.99-49.88,12.89-3.12,1.19-6.2,2.45-9.24,3.75,36-39.01,67.98-81.76,82.4-131.76,6.13-21.24,10.95-44.25,14.25-67.84-11.73,3.9-27.7,7.63-37.72,3.13,4.86-6.8,20.6-9.72,28.27-13.79,3.57-1.9,7.7-4.09,11.59-6.59,4.16-38.88,4.06-78.62-1.42-114.23-32.5,26.73-65.11,53.73-95.58,83.63-33.45,32.83-72.33,74.23-100.7,118.23-.22,5.59-1.27,11.55-.24,16.9,1.84,9.59,4.59,19.86,8.23,28.94-8.61-6.47-14.53-14.8-19.46-24.28-.24-.45-.45-.91-.66-1.36-8.3,14.94-15.15,30.06-19.96,45.16-1.01,3.19-1.95,6.37-2.83,9.56-8.05-52.47-21.54-104.12-51.64-146.58-12.82-18.08-27.81-36.24-44.24-53.57-3.17,12.12-9.03,28.71-18.79,34.84-2.96-7.82,3.35-22.54,4.21-31.17.53-5.27,1.17-11.6.91-17.57-27.4-26.86-57.93-50.95-88.59-68.52.64,42.08,1.41,84.41,5.79,126.87,4.99,48.37,13.55,107.07,31.58,158.01,4.36,2.38,8.74,5.16,13.37,6.3,9.48,2.34,19.96,4.15,29.73,4.64-9.48,5.11-19.53,6.99-30.2,7.51-2.05.1-4-.03-5.91-.29,6.35,15.18,13.68,29.4,22.18,42.1,1.86,2.78,3.77,5.5,5.71,8.17-46.04-26.42-94.83-48.08-146.79-51.01-19.99-1.13-41.14-.9-62.58.66.1.35.21.69.32,1.06,3.69,11.93,8.51,32,2.63,43.38-6.52-5.23-8.56-21.12-12.19-29-.52-1.14-1.08-2.33-1.65-3.55-2.27-3.51-4.7-6.99-7.32-10.27-40.77,4.37-81.7,13.54-116.86,27.47,33.3,25.74,66.87,51.52,102.8,74.57,39.84,25.56,89.44,54.57,139.15,72.39,5.04-1.15,10.43-1.91,14.85-4.19,8.68-4.47,17.76-10,25.44-16.06-3.78,10.08-10.11,18.11-17.81,25.52-.55.53-1.11,1.02-1.68,1.49,16.44,4.78,32.75,8.13,48.57,9.45,3.34.28,6.66.48,9.96.64-49.36,19.52-96.73,44.16-131.42,82.96-15.06,16.84-29.7,35.92-43.15,56.23.02,0,.04,0,.06,0,12.43,1.16,32.82,4.39,41.08,14.18-7.33,4.02-22.78-.18-31.46.16-6.09.24-13.59.53-20.15,2.1-19.76,32.34-36.18,67.03-46.36,100.41,40.89-9.98,81.98-20.16,122.4-33.88,43.99-14.93,96.44-35.14,140.84-62.12,2.13-5.81,5.91-11.67,6.95-17.74,1.64-9.62,2.68-20.21,2.46-29.99,5.78,9.08,8.4,18.96,9.69,29.57.23,1.93.26,3.79.16,5.62,14.58-10.17,27.89-21.19,39.19-33.14,2.3-2.43,4.52-4.9,6.7-7.38-15.51,50.77-25.77,103.16-17.07,154.47,3.55,20.95,8.89,42.85,15.75,64.67,7.83-9.86,20.54-23.57,32.43-25.2-.42,6.74-8.2,15.09-13.47,22.01.65-.19,1.28-.35,1.89-.47-1.57,1.49-3.17,3.02-4.77,4.59-.11.18-.22.36-.33.54-3.09,5.35-6.92,11.95-9.08,18.41,13.09,36.56,30.33,72.04,50.57,101.53,17.69-38.19,35.35-76.66,49.83-116.82,15.63-43.35,32.38-96.45,39.09-147.6-3.13-5.84-4.56-13.47-8.47-18.93-5.68-7.94-12.47-16.13-19.57-22.85,10.52,2.28,19.38,7.38,27.83,13.93.96.74,1.84,1.52,2.67,2.33,1.04-17.25.68-34.04-1.56-49.89-.47-3.31-1.01-6.59-1.6-9.84,30.02,43.78,64.58,84.47,110.12,109.66,20.36,11.26,42.93,21.55,66.45,30.32-1.27-12.52-1.7-31.03,5.62-40.44,5.46,6.33,4.56,22.32,6.71,30.73,1.22,4.79,2.67,10.49,4.72,15.73,35.72,11.94,72.92,20.14,107.5,22.62-18.83-37.64-37.89-75.44-60.27-111.79-24.19-39.3-55.3-85.58-91.18-122.74-6.68-1.42-13.57-5.74-20.51-6.5-3.35-.37-6.81-.65-10.3-.84-.54.08-1.08.16-1.61.24.12-.1.25-.2.37-.31-6.23-.29-12.56-.26-18.54.24,8.72-6.31,18.43-9.51,28.95-11.43.68-.12,1.36-.22,2.03-.29-12.42-11.06-25.33-20.82-38.64-28.66-2.88-1.7-5.78-3.32-8.69-4.89,52.94,3.83,106.3,2.17,154.39-17.73,20.23-8.37,41-18.82,61.32-30.79-.05-.03-.09-.05-.13-.08-10.92-6.06-28.3-17.21-31.92-29.49,8.33-.74,20.79,9.32,28.87,12.49,6.04,2.37,13.58,5.34,20.59,6.39,32.26-20.73,62.52-45.12,86.46-71.08-41.17-8.74-82.61-17.41-124.98-22.58ZM-576.94,1108.2q-7.65-31.25-8.29-46.67c10.84,16.4,19.86,32.53,28.87,53.43,9.94,23.05,19.65,46.26,29.89,68.92,10.35,22.92,22.94,43.86,32.41,67.67,8.97,22.54,21.59,43.3,30.44,65.88,5.93,15.11,10.44,32.06,10.77,49.45-1.74-1.78-3.46-3.76-5.15-5.88-.31-.21-.61-.43-.92-.64-.1-.31-.21-.62-.32-.93-9.95-12.92-19.06-30.75-26.68-45.87-10.82-21.46-22.54-41.42-32.85-64.29-9.87-21.91-18.73-44.83-27.71-67.51-2.72-6.19-5.33-12.42-7.82-18.68-8.01-17.62-18.54-38.06-22.65-54.88ZM-670.56,1343.78c-20.28-6.09-50-10.81-69.38-19.72q-29.23-13.45-41.7-22.53c19.58,1.72,37.83,4.68,59.8,10.62,24.23,6.55,48.44,13.38,72.56,19.47,24.38,6.15,48.61,9.32,73.14,16.71,23.22,7,47.33,10.03,70.52,17.13,15.52,4.76,31.6,11.77,45.42,22.32-17.69,1.83-42.25-3.11-62.33-7.27-23.53-4.88-46.45-8.11-70.77-14.27-25.68-6.5-51.56-14.73-77.27-22.46ZM-492.43,1449.3c-18.48,15.37-35.29,31.27-55.26,46.47-21.08,16.04-43.65,31.14-65.71,46.44-17.4,12.06-39.61,32.38-58.66,41.98q-28.73,14.48-43.61,18.57c13.54-14.25,27.23-26.67,45.57-40.15,20.22-14.87,40.65-29.55,60.44-44.62,20-15.24,37.58-32.22,58.65-46.8,19.94-13.81,37.34-30.77,57.34-44.48,13.39-9.18,28.89-17.38,45.76-21.62-9.59,14.97-28.76,31.11-44.52,44.22ZM-412.46,1302.17c9.99-21.86,18.24-43.48,29.65-65.83,12.05-23.59,25.83-46.99,39.08-70.33,10.45-18.41,21.66-46.35,34.66-63.26q19.61-25.5,31.24-35.64c-6.03,18.71-12.98,35.84-23.66,55.94-11.77,22.17-23.82,44.25-35.12,66.41-11.42,22.4-19.9,45.32-32.56,67.6-11.99,21.09-20.3,43.92-32.39,64.95-8.09,14.07-18.5,28.19-31.87,39.32,2.15-17.65,12.43-40.5,20.95-59.15ZM-418.48,1541.66c-.51,26.48-2.67,53.55-4.38,80.34-1.34,21.13.8,51.15-3.5,72.05q-6.48,31.51-12.5,45.72c-2.76-19.46-4.01-37.9-3.2-60.65.89-25.08,2.06-50.22,2.52-75.08.47-25.14-1.93-49.46-.29-75.03,1.55-24.21-.95-48.37.72-72.57,1.12-16.19,4.31-33.44,11.45-49.3,5.79,16.81,6.54,41.86,7.04,62.35.58,24.02,2.62,47.08,2.13,72.17ZM-242.73,1523.56c15.55,14.37,40.19,31.65,53.7,48.16q20.36,24.9,27.59,38.54c-16.84-10.13-31.94-20.8-49.08-35.78-18.9-16.51-37.66-33.28-56.67-49.32-19.21-16.22-39.6-29.7-58.4-47.11-17.8-16.48-38.14-29.78-55.86-46.33-11.86-11.08-23.23-24.44-31.03-39.99,16.7,6.12,36.61,21.33,52.82,33.87,19.01,14.71,38.18,27.66,57.34,43.87,20.23,17.11,39.87,35.86,59.58,54.08ZM-93.16,1310.44c-2.68.83-5.39,1.54-8.12,2.17-14.54,5.13-29.36,9.27-47.13,12.76-24.63,4.84-49.37,9.42-73.69,14.63-24.59,5.27-47.72,13.14-72.99,17.36-23.92,4-46.89,11.94-70.83,15.82-16.02,2.6-33.55,3.42-50.61.07,2.85-1.79,6.02-3.47,9.43-5.05.22-.21.45-.41.68-.61.3-.03.61-.07.91-.1,14.39-6.43,32.57-11.26,48.09-15.28,23.26-6.03,45.25-13.26,69.79-18.5,25.91-5.53,52.76-9.58,79.23-14.02,20.88-3.5,49.63-12.42,70.95-12.99q32.16-.86,47.36,1.77c-1.5.58-2.99,1.15-4.49,1.71.47.09.94.17,1.41.27Z"/>
        </g>
        <g>
          <rect class="cls-8" x="49.56" y="814.76" width="1969.88" height="1969.88"/>
          <path class="cls-2" d="M-97.03,1008.85l6.23,1.64,3.1.83c1.74.37,7.5,1.66,9.37,2.06,0,0,6.28,1.09,6.28,1.09l3.13.54c1.87.21,7.47.95,9.44,1.19,31.36,3.15,63.07-1.06,93.26-9.71,132.44-37.5,248.14-152.37,394.93-110.32,21.14,6.08,41.67,14.84,61.06,25.18,9.31,4.93,19.19,10.95,28.31,16.23,16.41,9.7,33.95,18.49,51.57,25.64,11.81,4.76,23.95,9.17,36.2,12.62,5.66,1.58,12.77,3.68,18.51,4.86,0,0,12.44,2.78,12.44,2.78l12.56,2.18,6.28,1.04,6.32.76c27.16,3.58,55.05,4.06,82.36,2.48,22.9-1.3,46.63-4.35,69.26-8.04,37.48-6.27,74.6-15.11,110.53-27.52,53.87-17.75,100.34-54.71,157.77-64.11,73.66-12.72,138.15,35.23,203.17,60.14,27.66,9.89,56.57,17.29,85.52,22.17,37.63,6.13,76.41,7.3,113.71-2.14,0,0,1.01,2.93,1.01,2.93-40.61,17.34-86.32,19.52-129.86,15.18-26.36-2.82-52.68-7.58-78.16-14.91-48.63-14.47-94.17-42.05-143.99-50.67-68.13-12.38-124.75,35.91-186.95,56.44-5.94,2.06-13.04,4.18-19.1,6.01-86.46,25.19-179,35.4-267.74,16.78-7.13-1.3-18.48-4.29-25.64-5.99-4.68-1.38-14.49-4.12-18.94-5.5-3.13-1.06-9.33-3.12-12.46-4.15-6.24-1.97-12.33-4.54-18.47-6.77-5.92-2.13-12.3-5.1-18.15-7.51-6.33-2.56-16.03-7.47-22.27-10.29-6.11-3.2-12.77-6.61-18.83-9.84-5.62-3.2-16.99-9.63-22.63-12.79-16.53-9.35-34.19-17.37-52.3-23.09-17.82-5.71-36.72-9.22-55.42-9.98-18.49-.82-37.39.92-55.48,4.78-22.39,4.58-44.29,12.09-65.52,20.5-47.84,18.97-93.47,43.02-140.86,63.28-63.22,26.96-135,48.12-203.14,27.78,0,0-3.15-1.03-3.15-1.03-2.09-.7-4.19-1.36-6.26-2.09l-6.14-2.41c-1.02-.4-2.04-.8-3.05-1.22l-2.99-1.37-5.94-2.77,1.13-2.89h0Z"/>
          <path class="cls-2" d="M-6.74,1676.91c11.07-28.35,28.51-55.38,51.26-76.11,1.44-1.3,6.09-5.32,7.37-6.46,2.21-1.67,5.54-4.3,7.78-5.98,2.72-2.11,8.43-5.81,11.34-7.8,3.12-1.85,7.05-4.16,10.19-5.98,0,0,1.75-.9,1.75-.9,1.82-.95,7.15-3.66,8.78-4.48,20.71-9.74,42.99-16.18,65.53-19.96,50.84-8.41,102.9-4.89,153.61,1.41,20.77,2.47,41.77,5.44,61.54,12.46,60.42,20.03,108.08,65.77,167.24,87.62,3.83,1.37,8.15,2.7,12.02,4.02,0,0,1.76.46,1.76.46l7.05,1.84c23.85,5.93,48.75,7.67,73.31,7.27,37.26-.53,74.93-6.12,111.83-11.51,0,0,7.3-1.19,7.3-1.19,2.27-.5,8.65-1.78,10.88-2.27,2.43-.57,8.32-2.09,10.79-2.67,2.14-.67,8.56-2.45,10.68-3.1,2.46-.78,8.12-2.65,10.59-3.44,8.9-3.14,19.07-7.01,27.74-10.75,55.78-23.77,107.22-57.4,165.15-76.51,22.46-7.32,45.95-12.43,69.56-13.8,0,0,7.98-.35,7.98-.35l2-.08c3.65.02,8.35.05,12.01.08,32.35,1.03,64.82,9.04,94.6,20.74,64.88,24.99,122.68,66.8,190.48,83.88,74.31,18.03,160.82,8.83,233.11-14.55,65.1-22.12,120.42-65.84,184.06-91.68,0,0,1.35,2.79,1.35,2.79-54.59,31.17-102.67,74.27-159.75,101.81-5.23,2.63-12.3,5.64-17.72,8.04-4.27,1.62-10.33,4.09-14.58,5.64-82.5,28.98-180.45,39.96-264.62,10.99-75.94-25.31-139.66-79.12-218.45-95.39-3.08-.68-7.31-1.28-10.46-1.87-5.95-.89-13.25-1.62-19.32-2.07-3.25-.11-7.35-.26-10.6-.38-20.78-.17-41.68,2.64-61.94,7.4-61.97,15-118.18,46.05-178.1,67.48-20.22,7.36-41.31,13.59-62.43,17.89-2.31.39-8.9,1.61-11.32,2.02-2.59.39-8.9,1.24-11.39,1.62-41.18,5-82.76,11.38-124.34,12.27-12.66.34-25.72.06-38.35-1.01-6.02-.34-13.24-1.45-19.23-2.19-3.81-.62-9.66-1.78-13.42-2.45-6.9-1.7-14.02-3.32-20.79-5.51-57.88-17.69-106.25-55.95-163.44-74.71-18.32-6.19-37.35-8.9-56.4-11.5-27.07-3.74-53.92-6.81-81.09-8.04-16.93-.77-34.32-.75-51.23.42-19.22,1.37-38.51,4.31-57.06,9.57,0,0-6.89,2.11-6.89,2.11-2.33.64-4.53,1.57-6.81,2.34l-3.4,1.21-1.7.6c-.56.22-1.11.46-1.66.69l-6.64,2.78-1.66.7c-2.94,1.45-6.77,3.29-9.72,4.73,0,0-1.57.88-1.57.88l-6.31,3.5c-.52.3-1.06.58-1.58.89l-1.52.97-3.05,1.94-3.05,1.94c-.51.33-1.02.64-1.52.98l-1.46,1.06-5.89,4.24-1.48,1.06-1.4,1.15-2.81,2.31-2.82,2.31c-.95.77-1.89,1.53-2.76,2.38l-5.38,4.95c-.88.84-1.84,1.61-2.66,2.52l-2.54,2.65c-13.68,14.01-25.41,30.15-35.55,47.43l-2.79-1.35h0Z"/>
        </g>
        <rect class="cls-8" x="-1870.44" y="-1105.24" width="1969.88" height="1969.88"/>
        <g>
          <rect class="cls-8" x="49.56" y="-1105.24" width="1969.88" height="1969.88"/>
          <path class="cls-3" d="M798.03,348.2c-43.87-5.36-96.72-9.74-146.28-5.81-5.75,4.51-14.66,6.26-20.61,11.05-3.85,3.1-7.74,6.49-11.46,10.05-.08.13-.15.26-.23.39,0-.05,0-.12,0-.17-3.55,3.41-6.95,6.97-10,10.58,1.66-10.53,6.17-19.6,12.14-28.33-17.62,2.84-34.46,6.99-49.88,12.89-3.12,1.19-6.2,2.45-9.24,3.75,36-39.01,67.98-81.76,82.4-131.76,6.13-21.24,10.95-44.25,14.25-67.84-11.73,3.9-27.7,7.63-37.72,3.13,4.86-6.8,20.6-9.72,28.27-13.79,3.57-1.9,7.7-4.09,11.59-6.59,4.16-38.88,4.06-78.62-1.42-114.23-32.5,26.73-65.11,53.73-95.58,83.63-33.45,32.83-72.33,74.23-100.7,118.23-.22,5.59-1.27,11.55-.24,16.9,1.84,9.59,4.59,19.86,8.23,28.94-8.61-6.47-14.53-14.8-19.46-24.28-.24-.45-.45-.91-.66-1.36-8.3,14.94-15.15,30.06-19.96,45.16-1.01,3.19-1.95,6.37-2.83,9.56-8.05-52.47-21.54-104.12-51.64-146.58-12.82-18.08-27.81-36.24-44.24-53.57-3.17,12.12-9.03,28.71-18.79,34.84-2.96-7.82,3.35-22.54,4.21-31.17.53-5.27,1.17-11.6.91-17.57-27.4-26.86-57.93-50.95-88.59-68.52.64,42.08,1.41,84.41,5.79,126.87,4.99,48.37,13.55,107.07,31.58,158.01,4.36,2.38,8.74,5.16,13.37,6.3,9.48,2.34,19.96,4.15,29.73,4.64-9.48,5.11-19.53,6.99-30.2,7.51-2.05.1-4-.03-5.91-.29,6.35,15.18,13.68,29.4,22.18,42.1,1.86,2.78,3.77,5.5,5.71,8.17-46.04-26.42-94.83-48.08-146.79-51.01-19.99-1.13-41.14-.9-62.58.66.1.35.21.69.32,1.06,3.69,11.93,8.51,32,2.63,43.38-6.52-5.23-8.56-21.12-12.19-29-.52-1.14-1.08-2.33-1.65-3.55-2.27-3.51-4.7-6.99-7.32-10.27-40.77,4.37-81.7,13.54-116.86,27.47,33.3,25.74,66.87,51.52,102.8,74.57,39.84,25.56,89.44,54.57,139.15,72.39,5.04-1.15,10.43-1.91,14.85-4.19,8.68-4.47,17.76-10,25.44-16.06-3.78,10.08-10.11,18.11-17.81,25.52-.55.53-1.11,1.02-1.68,1.49,16.44,4.78,32.75,8.13,48.57,9.45,3.34.28,6.66.48,9.96.64-49.36,19.52-96.73,44.16-131.42,82.96-15.06,16.84-29.7,35.92-43.15,56.23.02,0,.04,0,.06,0,12.43,1.16,32.82,4.39,41.08,14.18-7.33,4.02-22.78-.18-31.46.16-6.09.24-13.59.53-20.15,2.1-19.76,32.34-36.18,67.03-46.36,100.41,40.89-9.98,81.98-20.16,122.4-33.88,43.99-14.93,96.44-35.14,140.84-62.12,2.13-5.81,5.91-11.67,6.95-17.74,1.64-9.62,2.68-20.21,2.46-29.99,5.78,9.08,8.4,18.96,9.69,29.57.23,1.93.26,3.79.16,5.62,14.58-10.17,27.89-21.19,39.19-33.14,2.3-2.43,4.52-4.9,6.7-7.38-15.51,50.77-25.77,103.16-17.07,154.47,3.55,20.95,8.89,42.85,15.75,64.67,7.83-9.86,20.54-23.57,32.43-25.2-.42,6.74-8.2,15.09-13.47,22.01.65-.19,1.28-.35,1.89-.47-1.57,1.49-3.17,3.02-4.77,4.59-.11.18-.22.36-.33.54-3.09,5.35-6.92,11.95-9.08,18.41,13.09,36.56,30.33,72.04,50.57,101.53,17.69-38.19,35.35-76.66,49.83-116.82,15.63-43.35,32.38-96.45,39.09-147.6-3.13-5.84-4.56-13.47-8.47-18.93-5.68-7.94-12.47-16.13-19.57-22.85,10.52,2.28,19.38,7.38,27.83,13.93.96.74,1.84,1.52,2.67,2.33,1.04-17.25.68-34.04-1.56-49.89-.47-3.31-1.01-6.59-1.6-9.84,30.02,43.78,64.58,84.47,110.12,109.66,20.36,11.26,42.93,21.55,66.45,30.32-1.27-12.52-1.7-31.03,5.62-40.44,5.46,6.33,4.56,22.32,6.71,30.73,1.22,4.79,2.67,10.49,4.72,15.73,35.72,11.94,72.92,20.14,107.5,22.62-18.83-37.64-37.89-75.44-60.27-111.79-24.19-39.3-55.3-85.58-91.18-122.74-6.68-1.42-13.57-5.74-20.51-6.5-3.35-.37-6.81-.65-10.3-.84-.54.08-1.08.16-1.61.24.12-.1.25-.2.37-.31-6.23-.29-12.56-.26-18.54.24,8.72-6.31,18.43-9.51,28.95-11.43.68-.12,1.36-.22,2.03-.29-12.42-11.06-25.33-20.82-38.64-28.66-2.88-1.7-5.78-3.32-8.69-4.89,52.94,3.83,106.3,2.17,154.39-17.73,20.23-8.37,41-18.82,61.32-30.79-.05-.03-.09-.05-.13-.08-10.92-6.06-28.3-17.21-31.92-29.49,8.33-.74,20.79,9.32,28.87,12.49,6.04,2.37,13.58,5.34,20.59,6.39,32.26-20.73,62.52-45.12,86.46-71.08-41.17-8.74-82.61-17.41-124.98-22.58ZM297.78,197.67q-7.65-31.25-8.29-46.67c10.84,16.4,19.86,32.53,28.87,53.43,9.94,23.05,19.65,46.26,29.89,68.92,10.35,22.92,22.94,43.86,32.41,67.67,8.97,22.54,21.59,43.3,30.44,65.88,5.93,15.11,10.44,32.06,10.77,49.45-1.74-1.78-3.46-3.76-5.15-5.88-.31-.21-.61-.43-.92-.64-.1-.31-.21-.62-.32-.93-9.95-12.92-19.06-30.75-26.68-45.87-10.82-21.46-22.54-41.42-32.85-64.29-9.87-21.91-18.73-44.83-27.71-67.51-2.72-6.19-5.33-12.42-7.82-18.68-8.01-17.62-18.54-38.06-22.65-54.88ZM204.16,433.26c-20.28-6.09-50-10.81-69.38-19.72q-29.23-13.45-41.7-22.53c19.58,1.72,37.83,4.68,59.8,10.62,24.23,6.55,48.44,13.38,72.56,19.47,24.38,6.15,48.61,9.32,73.14,16.71,23.22,7,47.33,10.03,70.52,17.13,15.52,4.76,31.6,11.77,45.42,22.32-17.69,1.83-42.25-3.11-62.33-7.27-23.53-4.88-46.45-8.11-70.77-14.27-25.68-6.5-51.56-14.73-77.27-22.46ZM382.28,538.77c-18.48,15.37-35.29,31.27-55.26,46.47-21.08,16.04-43.65,31.14-65.71,46.44-17.4,12.06-39.61,32.38-58.66,41.98q-28.73,14.48-43.61,18.57c13.54-14.25,27.23-26.67,45.57-40.15,20.22-14.87,40.65-29.55,60.44-44.62,20-15.24,37.58-32.22,58.65-46.8,19.94-13.81,37.34-30.77,57.34-44.48,13.39-9.18,28.89-17.38,45.76-21.62-9.59,14.97-28.76,31.11-44.52,44.22ZM462.26,391.64c9.99-21.86,18.24-43.48,29.65-65.83,12.05-23.59,25.83-46.99,39.08-70.33,10.45-18.41,21.66-46.35,34.66-63.26q19.61-25.5,31.24-35.64c-6.03,18.71-12.98,35.84-23.66,55.94-11.77,22.17-23.82,44.25-35.12,66.41-11.42,22.4-19.9,45.32-32.56,67.6-11.99,21.09-20.3,43.92-32.39,64.95-8.09,14.07-18.5,28.19-31.87,39.32,2.15-17.65,12.43-40.5,20.95-59.15ZM456.23,631.13c-.51,26.48-2.67,53.55-4.38,80.34-1.34,21.13.8,51.15-3.5,72.05q-6.48,31.51-12.5,45.72c-2.76-19.46-4.01-37.9-3.2-60.65.89-25.08,2.06-50.22,2.52-75.08.47-25.14-1.93-49.46-.29-75.03,1.55-24.21-.95-48.37.72-72.57,1.12-16.19,4.31-33.44,11.45-49.3,5.79,16.81,6.54,41.86,7.04,62.35.58,24.02,2.62,47.08,2.13,72.17ZM631.98,613.03c15.55,14.37,40.19,31.65,53.7,48.16q20.36,24.9,27.59,38.54c-16.84-10.13-31.94-20.8-49.08-35.78-18.9-16.51-37.66-33.28-56.67-49.32-19.21-16.22-39.6-29.7-58.4-47.11-17.8-16.48-38.14-29.78-55.86-46.33-11.86-11.08-23.23-24.44-31.03-39.99,16.7,6.12,36.61,21.33,52.82,33.87,19.01,14.71,38.18,27.66,57.34,43.87,20.23,17.11,39.87,35.86,59.58,54.08ZM781.55,399.91c-2.68.83-5.39,1.54-8.12,2.17-14.54,5.13-29.36,9.27-47.13,12.76-24.63,4.84-49.37,9.42-73.69,14.63-24.59,5.27-47.72,13.14-72.99,17.36-23.92,4-46.89,11.94-70.83,15.82-16.02,2.6-33.55,3.42-50.61.07,2.85-1.79,6.02-3.47,9.43-5.05.22-.21.45-.41.68-.61.3-.03.61-.07.91-.1,14.39-6.43,32.57-11.26,48.09-15.28,23.26-6.03,45.25-13.26,69.79-18.5,25.91-5.53,52.76-9.58,79.23-14.02,20.88-3.5,49.63-12.42,70.95-12.99q32.16-.86,47.36,1.77c-1.5.58-2.99,1.15-4.49,1.71.47.09.94.17,1.41.27Z"/>
        </g>
      </g>
    </g>
  </g>
</svg>