<?xml version="1.0" encoding="UTF-8"?>
<svg id="Calque_2" data-name="Calque 2" xmlns="http://www.w3.org/2000/svg" xmlns:xlink="http://www.w3.org/1999/xlink" viewBox="0 0 630.99 823.24">
  <defs>
    <style>
      .cls-1 {
        fill: none;
      }

      .cls-2 {
        fill: #9e2128;
      }

      .cls-3 {
        fill: #ffc69f;
      }

      .cls-4 {
        fill: #fff;
      }

      .cls-5 {
        clip-path: url(#clippath);
      }
    </style>
    <clipPath id="clippath">
      <path class="cls-1" d="M150.71,29.79s-.05-.04-.07-.06c-2.17-1.77-4.01-3.9-5.61-5.99-4.21-4.59-8.42-9.31-8.42-9.31,0,0-.38,5.05-11.52,7.01-.48.1-.97.18-1.47.25-15.33,2.07-37.11-8.89-37.11-8.89l-14.87-2.79s2.78,15.87-2,21.94c0,0-30.48,36.94-28.17,51.26,2.31,14.32,14.32,29.09,11.54,43.87-2.77,14.78-38.79,78.04-38.79,78.04,0,0-6,11.54-3.69,22.17,2.31,10.62,35.09,25.86,42.02,27.71,6.93,1.85,49.87,8.77,57.26,16.62,7.39,7.85,45.25,71.11,55.41,82.66,10.16,11.54,44.79,38.79,60.95,48.95,16.16,10.16,70.65,23.55,73.42,42.48,2.77,18.93-5.08,30.02-4.62,44.79.46,14.78-2.31,18.47,17.55,30.48,19.86,12.01,50.8,41.1,60.95,55.41,10.16,14.32,23.55,37.87,36.02,39.71,12.47,1.85,36.48,5.54,44.79,20.78,8.31,15.24,20.32,27.71,27.24,33.71,6.93,6,51.72,31.4,47.1,48.95-4.62,17.55-9.7,36.94-23.55,45.72q-13.85,8.77-16.78,13.61s13.89,9.99,23.49,17.23c4.18,3.15,7.56,5.79,8.62,6.85,3.5,3.5,11.97,10.25,12.04,10.31,10.34-21.06,30-25.98,36.63-30.89,16.4-12.12,12.56-19.05,27.49-32.84,14.94-13.79,19.15-11.87,22.59-30.25,3.45-18.38,1.15-23.54-.38-26.13-.99-1.68-4.29-1.5-6.48-1.16-1.18.18-2.05.4-2.05.4,0,0-2.62.85-6.55.75-3.78.04-8.45-.59-11.94-3.36-4.7-2.67-9.61-7.31-13.79-15.25-3.94-7.48-7.51-14.83-11.09-21.69-.79-1.51-1.58-3.01-2.38-4.47-4.79-8.8-9.76-16.55-15.75-22.43-1.05-.88-2.29-1.96-3.82-3.39-2.04-1.6-4.2-3-6.52-4.16-5.81-2.9-12.28-4.85-18.38-6.17-14.28-2.21-23.73-2.76-23.73-2.76,0,0-10.9-15.96-21.22-24.23-.02-.02-.04-.03-.06-.04-1.03-.82-2.07-1.58-3.11-2.27-3.38-2.26-6.81-3.81-10.07-4.08-2.27-.19-4.28-.07-6.12.22-7.05,1.86-14.19,6-19.57,1.51-2.2-1.31-4.63-3.46-7.49-6.84-5.4-6.39-8.45-14.29-11.3-22.56-5.22-13.44-8.11-21.5-12.15-27.75-2.39-3.46-5.23-6.73-8.8-9.68-2.91-2.38-6.58-5.29-10.53-8.61-11.47-9.4-18.92-16.17-25.43-28.34-.39-.7-.75-1.42-1.1-2.13-.2-.4-.4-.8-.6-1.21-.08-.17-.17-.33-.25-.5-.02-.05-.04-.11-.06-.17-.38-.79-.75-1.58-1.13-2.42-6.56-14.8-3.71-32.37-2.33-47.93,1.04-11.68,2.53-23.38,5.46-34.76,3.08-11.93,9.49-22.69,9.6-35.28-.1-2.71-.52-5.5-1.36-8.37-1.93-6.57-6.08-11.6-11.45-15.38-6.32-2.93-15.4-7.34-26.09-8.92-3.39-.39-6.75-.56-10.01-.53-7.02.31-14.52,2.13-22.22,6.46-4.56,3.13-9.18,7.03-13.96,10.59-7.59,7.37-14.89,9.95-21.52,9.85-5.42.33-11.14-1.24-17.25-5.91-.38-.29-.77-.61-1.16-.91-4.45-3.16-7.95-6.68-10.21-8.85-.27-.25-.54-.5-.8-.76-.06-.05-.13-.12-.18-.17-.03-.03-.08-.08-.12-.12-.19-.18-.42-.4-.67-.65-18.25-17.58-37.3-42.06-47.67-56.45-.21-.29-.39-.54-.54-.75-.04-.06-.09-.12-.13-.18-.26-.36-.5-.71-.75-1.05-1.43-1.98-2.81-3.76-4-5.78-.55-.83-1.03-1.56-1.4-2.16-2.63-4.21-2.65-9.95-2.31-16.41.15-5.68.48-10.51.43-14.85-.22-4.92-1.02-9.9-3.23-14.67-.79-1.72-1.78-3.42-2.86-5.11-7.69-10.18-30.37-31.79-27.69-44.82,0-.05.02-.1.02-.15.26-2.01,1.02-3.5,2.15-4.62,2.15-2.58,5.4-3.23,9.03-3.39,4.75-.65,10.3-.79,15.24-2.15,8.08-4.74,15.63-4.17,11.33-33.33-.76-3.4-1.48-6.86-1.81-10.48-.81-4.16-.42-7.84.77-11.17.07-.3.11-.59.2-.89,2.47-8.66,9.75-13.42,16.87-17.92,6.17-4.53,12.14-8.56,14.7-12.99.3-.59.6-1.17.83-1.81.03-.08.05-.17.08-.26.13-.37.19-.78.29-1.17.63-3.27.25-7.51-.79-12.05-4.62-14.02-19.25-27.86-19.25-27.86-3.45,7.52-8.44,13.04-14.9,17.2-1.58,1.63-3.04,3.13-4.23,4.33l-22.77-17.97Z"/>
    </clipPath>
  </defs>
  <g id="Header">
    <path class="cls-2" d="M150.71,29.79s-.05-.04-.07-.06c-2.17-1.77-4.01-3.9-5.61-5.99-4.21-4.59-8.42-9.31-8.42-9.31,0,0-.38,5.05-11.52,7.01-.48.1-.97.18-1.47.25-15.33,2.07-37.11-8.89-37.11-8.89l-14.87-2.79s2.78,15.87-2,21.94c0,0-30.48,36.94-28.17,51.26,2.31,14.32,14.32,29.09,11.54,43.87-2.77,14.78-38.79,78.04-38.79,78.04,0,0-6,11.54-3.69,22.17,2.31,10.62,35.09,25.86,42.02,27.71,6.93,1.85,49.87,8.77,57.26,16.62,7.39,7.85,45.25,71.11,55.41,82.66,10.16,11.54,44.79,38.79,60.95,48.95,16.16,10.16,70.65,23.55,73.42,42.48,2.77,18.93-5.08,30.02-4.62,44.79.46,14.78-2.31,18.47,17.55,30.48,19.86,12.01,50.8,41.1,60.95,55.41,10.16,14.32,23.55,37.87,36.02,39.71,12.47,1.85,36.48,5.54,44.79,20.78,8.31,15.24,20.32,27.71,27.24,33.71,6.93,6,51.72,31.4,47.1,48.95-4.62,17.55-9.7,36.94-23.55,45.72q-13.85,8.77-16.78,13.61s13.89,9.99,23.49,17.23c4.18,3.15,7.56,5.79,8.62,6.85,3.5,3.5,11.97,10.25,12.04,10.31,10.34-21.06,30-25.98,36.63-30.89,16.4-12.12,12.56-19.05,27.49-32.84,14.94-13.79,19.15-11.87,22.59-30.25,3.45-18.38,1.15-23.54-.38-26.13-.99-1.68-4.29-1.5-6.48-1.16-1.18.18-2.05.4-2.05.4,0,0-2.62.85-6.55.75-3.78.04-8.45-.59-11.94-3.36-4.7-2.67-9.61-7.31-13.79-15.25-3.94-7.48-7.51-14.83-11.09-21.69-.79-1.51-1.58-3.01-2.38-4.47-4.79-8.8-9.76-16.55-15.75-22.43-1.05-.88-2.29-1.96-3.82-3.39-2.04-1.6-4.2-3-6.52-4.16-5.81-2.9-12.28-4.85-18.38-6.17-14.28-2.21-23.73-2.76-23.73-2.76,0,0-10.9-15.96-21.22-24.23-.02-.02-.04-.03-.06-.04-1.03-.82-2.07-1.58-3.11-2.27-3.38-2.26-6.81-3.81-10.07-4.08-2.27-.19-4.28-.07-6.12.22-7.05,1.86-14.19,6-19.57,1.51-2.2-1.31-4.63-3.46-7.49-6.84-5.4-6.39-8.45-14.29-11.3-22.56-5.22-13.44-8.11-21.5-12.15-27.75-2.39-3.46-5.23-6.73-8.8-9.68-2.91-2.38-6.58-5.29-10.53-8.61-11.47-9.4-18.92-16.17-25.43-28.34-.39-.7-.75-1.42-1.1-2.13-.2-.4-.4-.8-.6-1.21-.08-.17-.17-.33-.25-.5-.02-.05-.04-.11-.06-.17-.38-.79-.75-1.58-1.13-2.42-6.56-14.8-3.71-32.37-2.33-47.93,1.04-11.68,2.53-23.38,5.46-34.76,3.08-11.93,9.49-22.69,9.6-35.28-.1-2.71-.52-5.5-1.36-8.37-1.93-6.57-6.08-11.6-11.45-15.38-6.32-2.93-15.4-7.34-26.09-8.92-3.39-.39-6.75-.56-10.01-.53-7.02.31-14.52,2.13-22.22,6.46-4.56,3.13-9.18,7.03-13.96,10.59-7.59,7.37-14.89,9.95-21.52,9.85-5.42.33-11.14-1.24-17.25-5.91-.38-.29-.77-.61-1.16-.91-4.45-3.16-7.95-6.68-10.21-8.85-.27-.25-.54-.5-.8-.76-.06-.05-.13-.12-.18-.17-.03-.03-.08-.08-.12-.12-.19-.18-.42-.4-.67-.65-18.25-17.58-37.3-42.06-47.67-56.45-.21-.29-.39-.54-.54-.75-.04-.06-.09-.12-.13-.18-.26-.36-.5-.71-.75-1.05-1.43-1.98-2.81-3.76-4-5.78-.55-.83-1.03-1.56-1.4-2.16-2.63-4.21-2.65-9.95-2.31-16.41.15-5.68.48-10.51.43-14.85-.22-4.92-1.02-9.9-3.23-14.67-.79-1.72-1.78-3.42-2.86-5.11-7.69-10.18-30.37-31.79-27.69-44.82,0-.05.02-.1.02-.15.26-2.01,1.02-3.5,2.15-4.62,2.15-2.58,5.4-3.23,9.03-3.39,4.75-.65,10.3-.79,15.24-2.15,8.08-4.74,15.63-4.17,11.33-33.33-.76-3.4-1.48-6.86-1.81-10.48-.81-4.16-.42-7.84.77-11.17.07-.3.11-.59.2-.89,2.47-8.66,9.75-13.42,16.87-17.92,6.17-4.53,12.14-8.56,14.7-12.99.3-.59.6-1.17.83-1.81.03-.08.05-.17.08-.26.13-.37.19-.78.29-1.17.63-3.27.25-7.51-.79-12.05-4.62-14.02-19.25-27.86-19.25-27.86-3.45,7.52-8.44,13.04-14.9,17.2-1.58,1.63-3.04,3.13-4.23,4.33l-22.77-17.97Z"/>
    <g class="cls-5">
      <path class="cls-3" d="M311.4,486.46c-3.74-2.33-1.32-9.08,2.41-9.74,4.34-.76,7.03,3.87,5.68,7.4-1.21,3.16-4.78,4.4-8.09,2.34Z"/>
      <path class="cls-3" d="M316.56,463.87c-3.74-2.33-1.32-9.08,2.41-9.74,4.34-.76,7.03,3.87,5.68,7.4-1.21,3.16-4.78,4.4-8.09,2.34Z"/>
      <path class="cls-3" d="M343.78,474.22c-3.74-2.33-1.32-9.08,2.41-9.74,4.34-.76,7.03,3.87,5.68,7.4-1.21,3.16-4.78,4.4-8.09,2.34Z"/>
      <path class="cls-3" d="M567.09,706.11c-3.74-2.33-1.32-9.08,2.41-9.74,4.34-.76,7.03,3.87,5.68,7.4-1.21,3.16-4.78,4.4-8.09,2.34Z"/>
      <path class="cls-3" d="M572.24,683.53c-3.74-2.33-1.32-9.08,2.41-9.74,4.34-.76,7.03,3.87,5.68,7.4-1.21,3.16-4.78,4.4-8.09,2.34Z"/>
      <path class="cls-3" d="M508.77,779.95c-3.74-2.33-1.32-9.08,2.41-9.74,4.34-.76,7.03,3.87,5.68,7.4-1.21,3.16-4.78,4.4-8.09,2.34Z"/>
      <path class="cls-3" d="M536,790.29c-3.74-2.33-1.32-9.08,2.41-9.74,4.34-.76,7.03,3.87,5.68,7.4-1.21,3.16-4.78,4.4-8.09,2.34Z"/>
      <path class="cls-3" d="M122.4,245.77c-3.74-2.33-1.32-9.08,2.41-9.74,4.34-.76,7.03,3.87,5.68,7.4-1.21,3.16-4.78,4.4-8.09,2.34Z"/>
      <path class="cls-3" d="M127.56,223.19c-3.74-2.33-1.32-9.08,2.41-9.74,4.34-.76,7.03,3.87,5.68,7.4-1.21,3.16-4.78,4.4-8.09,2.34Z"/>
      <path class="cls-3" d="M154.78,233.53c-3.74-2.33-1.32-9.08,2.41-9.74,4.34-.76,7.03,3.87,5.68,7.4-1.21,3.16-4.78,4.4-8.09,2.34Z"/>
      <path class="cls-3" d="M105.27,166.88c-3.74,2.33-1.32,9.08,2.41,9.74,4.34.76,7.03-3.87,5.68-7.4-1.21-3.16-4.78-4.4-8.09-2.34Z"/>
      <path class="cls-3" d="M110.43,189.47c-3.74,2.33-1.32,9.08,2.41,9.74,4.34.76,7.03-3.87,5.68-7.4-1.21-3.16-4.78-4.4-8.09-2.34Z"/>
      <path class="cls-3" d="M137.65,179.12c-3.74,2.33-1.32,9.08,2.41,9.74,4.34.76,7.03-3.87,5.68-7.4-1.21-3.16-4.78-4.4-8.09-2.34Z"/>
      <path class="cls-3" d="M148.06,61.78c-3.74-2.33-1.32-9.08,2.41-9.74,4.34-.76,7.03,3.87,5.68,7.4-1.21,3.16-4.78,4.4-8.09,2.34Z"/>
      <path class="cls-3" d="M153.22,39.2c-3.74-2.33-1.32-9.08,2.41-9.74,4.34-.76,7.03,3.87,5.68,7.4-1.21,3.16-4.78,4.4-8.09,2.34Z"/>
      <path class="cls-3" d="M183.38,61.88c-3.74-2.33-1.32-9.08,2.41-9.74,4.34-.76,7.03,3.87,5.68,7.4-1.21,3.16-4.78,4.4-8.09,2.34Z"/>
      <path class="cls-3" d="M67.96,113.64c-3.74-2.33-1.32-9.08,2.41-9.74,4.34-.76,7.03,3.87,5.68,7.4-1.21,3.16-4.78,4.4-8.09,2.34Z"/>
      <path class="cls-3" d="M85.24,136.69c-3.74-2.33-1.32-9.08,2.41-9.74,4.34-.76,7.03,3.87,5.68,7.4-1.21,3.16-4.78,4.4-8.09,2.34Z"/>
      <path class="cls-3" d="M232.02,370.06c-3.74-2.33-1.32-9.08,2.41-9.74,4.34-.76,7.03,3.87,5.68,7.4-1.21,3.16-4.78,4.4-8.09,2.34Z"/>
      <path class="cls-3" d="M247.54,384.58c-3.63,2.49-.92,9.13,2.84,9.62,4.37.57,6.86-4.18,5.35-7.65-1.35-3.1-4.97-4.19-8.19-1.98Z"/>
      <path class="cls-3" d="M269.11,369.94c-3.63,2.49-.92,9.13,2.84,9.62,4.37.57,6.86-4.18,5.35-7.65-1.35-3.1-4.97-4.19-8.19-1.98Z"/>
      <path class="cls-3" d="M207.2,328.06c-1.35-.87-7.12-.26-8.97.88-1.2.74.14,6.41.18,10.72.06,6.11-.03,12.46-.57,18.54-.75,8.34-4.27,16.3-5.79,24.57-1.67,9.08-4.36,17.9-6.34,26.99-2.95-.63-6.54-3.58-7.97-5.14.01,2.21,2.72,5.84,3.88,7.61,1.06,1.63,1.76,3.4,2.65,5.12-.39,2.45-.69,4.92-.88,7.44-.51,6.79-1.58,13.38-2.58,20.05-.96,6.43-.99,12.72-1.34,18.95,3.62-.03,7.98-1.2,11.19-1.5,3.28-.3,3.09,1.69,4.2-2.72.54-2.13.31-5.17.47-7.34.35-4.51-.53-9.13.36-13.51.81-3.96,2.87-7.29,3.62-11.33.85-4.55,2.74-9.28,2.98-13.93.19-3.65-1.2-7.49-1.03-11.2.28-6.3,2.67-17.19,6.16-22.34,1.66-2.44,4.43-4.15,6.16-6.6,2.64-3.73,1.43-7.32,3.09-11.14-3.35,1.46-2.66,7.3-6.37,8.52-.83-5.56,1.22-11.43.38-17.16-.97-6.63-1.26-13.12-1.41-19.77-.06-2.8.57-4.02-2.03-5.7ZM186.89,437.4c-.43,5.86-.41,12.87-3.82,18.04.84-5.43.62-10.92,1.41-16.41.67-4.66.74-10.34,2.46-14.75l.2,1.02c.61,4.49.09,7.47-.25,12.1ZM196.64,421.24c-.46,1.84-.92,3.63-1.61,5.43-.51,1.35-1.03,2.73-1.37,4.13-.25,1.04-.04,2.52-.91,3.18-.19-1.26.4-2.65.51-3.95.13-1.61.8-5.46,1.16-7.04,1.55-6.78,2.37-10.63,2.86-14.82.13,4.29.45,8.72-.64,13.06ZM194.07,396.02c-1.16,3.99-2.53,10.68-4.78,13.59-.01.03-.02.07-.03.1l-.14.11c.06-.07.11-.14.17-.21,1.87-5.94,3.22-11.67,4.71-17.59.73-2.9.52-7.02,2.11-9.47,1.48,3.84-.92,9.64-2.03,13.47ZM205.06,367.46c-1.16,5.78-3.33,11.52-4.27,17.3-.74-1.99-.13-4.42.27-6.47.02-.1.04-.2.06-.3.48-2.57,1.13-5.1,1.63-7.66.54-2.72,1.03-5.44,1.52-8.17.25-1.37.49-2.75.75-4.12.13-.69.26-1.39.39-2.08.07-.36.14-.73.21-1.09.03-.13.25-.83.18-.92,2.62,3.23,0,9.96-.72,13.5ZM200,358.9c-.01.06-.03.11-.05.14.02-.05.03-.09.05-.14.07-.37-.04-1.31-.03-1.53.02-.52.06-1.05.1-1.57.09-1.15.24-2.3.43-3.43.06-.36.14-.71.22-1.06.25-1.04.57-2.06.77-3.11.15-.81.2-1.64.22-2.46,0-.42,0-.84,0-1.26,0-.22,0-.44,0-.66,0-.1.06-.48,0-.56,2.31,2.9.34,10.18-1.71,15.63Z"/>
      <path class="cls-3" d="M121.75,38.58c-.37-1.72-5.3-5.7-7.6-6.25-1.49-.36-4.84,5.05-8.14,8.41-4.67,4.77-9.64,9.6-14.76,13.87-7.02,5.86-15.88,9.29-23.44,14.5-8.3,5.72-17.19,10.45-25.73,15.94-1.79-2.77-2.28-7.82-2.18-10.12-1.7,1.72-2.4,6.61-2.88,8.87-.44,2.07-1.27,3.99-1.9,6-2.19,1.59-4.34,3.27-6.43,5.06-5.64,4.85-11.55,9.11-17.48,13.49-5.71,4.22-10.59,9.06-15.67,13.59,2.82,2.77,7.09,5.23,9.79,7.48,2.77,2.3,1.08,3.68,5.34,1.14,2.06-1.23,4.23-3.75,6.03-5.3,3.75-3.21,6.64-7.46,10.71-10.15,3.69-2.43,7.84-3.42,11.54-5.95,4.17-2.86,9.28-5.05,13.06-8.46,2.96-2.67,4.86-6.71,7.85-9.44,5.08-4.64,15.33-11.21,22-12.49,3.17-.61,6.63.21,9.85-.34,4.91-.84,6.76-4.55,10.98-6.22-3.72-1.46-7.69,3.58-11.5,1.66,3.65-4.94,9.77-7.88,13.55-12.96,4.37-5.87,9.16-11.1,14.17-16.35,2.11-2.21,3.54-2.66,2.83-5.97ZM21.66,107.32c-4.86,4.19-10.25,9.61-16.87,10.98,4.84-3.55,8.91-7.95,13.75-11.58,4.11-3.08,8.55-7.42,13.29-9.49l-.63.94c-3,3.93-5.7,5.83-9.54,9.15ZM41.66,102.38c-1.78,1.06-3.51,2.09-5.43,2.95-1.44.65-2.9,1.31-4.25,2.14-.99.61-1.98,1.92-3.16,1.76.82-1.12,2.35-1.73,3.44-2.66,1.35-1.14,4.83-3.59,6.33-4.54,6.43-4.04,10.03-6.38,13.65-9.24-3.21,3.41-6.39,7.08-10.58,9.58ZM59.15,80.91c-3.97,2.18-10.2,6.3-14.18,6.8-.03.02-.07.04-.1.05l-.19-.02c.09,0,.19-.02.29-.03,6.03-3.15,11.5-6.53,17.21-9.94,2.8-1.67,5.81-5.02,8.94-5.69-1.82,4.11-8.15,6.73-11.97,8.83ZM89.69,67.35c-5.36,3.57-11.47,6.33-16.65,10.06.96-2.11,3.31-3.51,5.2-4.79.09-.06.18-.13.27-.19,2.35-1.62,4.81-3.07,7.18-4.66,2.51-1.68,4.99-3.41,7.48-5.14,1.25-.87,2.5-1.74,3.76-2.61.63-.44,1.27-.87,1.9-1.31.33-.23.67-.45,1-.68.12-.08.84-.45.85-.58-.48,4.52-7.7,7.68-10.98,9.87ZM92.39,56.84c-.06.04-.11.07-.15.07.05-.02.1-.04.15-.07.34-.23.98-1.04,1.16-1.2.42-.39.85-.77,1.29-1.14.96-.82,1.95-1.59,2.98-2.32.32-.23.65-.44.99-.65.99-.61,2.03-1.15,2.99-1.81.75-.51,1.42-1.11,2.07-1.73.33-.32.65-.64.97-.97.17-.17.34-.34.51-.51.08-.08.42-.33.43-.43-.45,4.02-7.6,8.12-13.39,10.75Z"/>
      <path class="cls-3" d="M555.16,625.19c.95-1.48.29-7.78-.96-9.8-.8-1.31-7,.15-11.7.19-6.68.07-13.6-.03-20.24-.63-9.11-.82-17.8-4.66-26.83-6.32-9.91-1.83-19.54-4.76-29.47-6.93.69-3.23,3.91-7.14,5.61-8.7-2.42.01-6.37,2.97-8.31,4.24-1.77,1.16-3.72,1.92-5.59,2.89-2.67-.42-5.38-.76-8.13-.96-7.42-.56-14.61-1.73-21.89-2.82-7.02-1.05-13.89-1.08-20.69-1.47.03,3.95,1.31,8.71,1.64,12.21.33,3.58-1.84,3.37,2.96,4.58,2.33.59,5.64.34,8.01.52,4.93.38,9.97-.58,14.76.4,4.33.88,7.96,3.13,12.37,3.95,4.96.93,10.14,2.99,15.21,3.25,3.99.21,8.18-1.31,12.23-1.13,6.87.31,18.77,2.91,24.39,6.72,2.67,1.81,4.54,4.83,7.21,6.73,4.07,2.88,7.99,1.57,12.16,3.37-1.6-3.66-7.97-2.9-9.3-6.96,6.07-.91,12.48,1.33,18.74.41,7.24-1.06,14.33-1.37,21.58-1.54,3.05-.07,4.39.62,6.22-2.22ZM435.78,603.02c-6.4-.47-14.05-.45-19.7-4.17,5.93.92,11.92.68,17.91,1.54,5.09.73,11.29.8,16.11,2.68l-1.11.22c-4.9.66-8.16.1-13.21-.28ZM453.42,613.67c-2.01-.51-3.96-1.01-5.93-1.76-1.48-.56-2.98-1.13-4.51-1.49-1.14-.27-2.76-.05-3.48-.99,1.38-.21,2.89.44,4.31.55,1.76.14,5.96.87,7.69,1.27,7.4,1.69,11.6,2.58,16.18,3.12-4.68.14-9.52.49-14.26-.7ZM480.96,610.86c-4.35-1.27-11.66-2.76-14.83-5.22-.04-.01-.07-.02-.11-.03l-.12-.15c.07.06.15.12.23.18,6.49,2.04,12.74,3.51,19.2,5.14,3.16.8,7.66.56,10.34,2.3-4.19,1.61-10.52-1-14.71-2.22ZM512.15,622.86c-6.31-1.27-12.58-3.63-18.89-4.66,2.17-.81,4.82-.14,7.06.29.11.02.22.04.33.06,2.8.52,5.57,1.23,8.37,1.78,2.97.58,5.94,1.12,8.92,1.65,1.5.27,3,.54,4.5.81.76.14,1.51.28,2.27.42.4.07.79.15,1.19.23.14.03.91.27,1.01.2-3.53,2.86-10.88,0-14.75-.78ZM521.49,617.34c-.07-.01-.12-.03-.15-.06.05.02.1.04.15.06.4.07,1.43-.04,1.67-.03.57.02,1.15.06,1.72.11,1.26.1,2.51.26,3.75.47.39.07.77.15,1.16.24,1.14.27,2.25.62,3.39.84.89.17,1.79.22,2.69.24.46,0,.91,0,1.37,0,.24,0,.48,0,.72,0,.11,0,.53.07.61,0-3.16,2.52-11.12.37-17.07-1.86Z"/>
      <path class="cls-3" d="M662.38,691.85c-.15-1.75-4.53-6.33-6.75-7.16-1.43-.54-5.45,4.4-9.14,7.31-5.24,4.14-10.78,8.3-16.39,11.89-7.71,4.92-16.93,7.2-25.09,11.41-8.96,4.62-18.37,8.19-27.54,12.55-1.43-2.97-1.28-8.05-.89-10.32-1.9,1.49-3.22,6.25-3.98,8.43-.7,2-1.76,3.79-2.65,5.71-2.37,1.3-4.72,2.69-7.02,4.21-6.21,4.1-12.61,7.57-19.04,11.17-6.2,3.46-11.65,7.64-17.27,11.5,2.44,3.1,6.37,6.09,8.77,8.66,2.45,2.63.61,3.79,5.15,1.81,2.2-.96,4.67-3.19,6.66-4.49,4.13-2.71,7.53-6.56,11.91-8.71,3.96-1.95,8.21-2.4,12.2-4.44,4.49-2.3,9.85-3.84,14.02-6.73,3.28-2.28,5.67-6.04,8.98-8.37,5.63-3.96,16.63-9.18,23.41-9.61,3.22-.2,6.55,1.05,9.82.91,4.98-.21,7.28-3.65,11.68-4.78-3.5-1.91-8.08,2.58-11.61.19,4.25-4.44,10.69-6.58,15.08-11.14,5.08-5.27,10.49-9.85,16.13-14.42,2.37-1.92,3.85-2.19,3.56-5.56ZM554.39,747.36c-5.35,3.54-11.39,8.24-18.13,8.75,5.25-2.9,9.84-6.76,15.11-9.74,4.47-2.54,9.43-6.27,14.38-7.73l-.74.86c-3.47,3.52-6.39,5.07-10.62,7.87ZM574.86,744.99c-1.9.83-3.75,1.62-5.76,2.24-1.51.46-3.04.93-4.49,1.58-1.06.48-2.21,1.65-3.35,1.34.96-1.01,2.55-1.42,3.75-2.2,1.48-.96,5.25-2.95,6.86-3.7,6.89-3.19,10.76-5.05,14.7-7.43-3.62,2.98-7.23,6.21-11.71,8.17ZM594.92,725.91c-4.22,1.66-10.91,4.95-14.93,4.95-.04.01-.07.03-.11.04l-.18-.05c.09,0,.19,0,.29,0,6.38-2.36,12.23-5.02,18.33-7.68,2.99-1.3,6.4-4.24,9.59-4.51-2.33,3.84-8.94,5.64-12.99,7.24ZM626.93,716.32c-5.77,2.86-12.18,4.83-17.79,7.87,1.22-1.97,3.73-3.06,5.76-4.09.1-.05.2-.1.3-.15,2.54-1.31,5.16-2.44,7.71-3.71,2.7-1.35,5.39-2.75,8.07-4.15,1.35-.7,2.7-1.41,4.06-2.11.68-.35,1.37-.71,2.05-1.06.36-.18.72-.37,1.08-.55.13-.07.89-.34.92-.46-1.05,4.42-8.61,6.65-12.14,8.4ZM630.94,706.24c-.06.03-.12.05-.15.05.05-.02.1-.03.15-.05.36-.19,1.11-.91,1.3-1.05.47-.33.94-.65,1.42-.96,1.05-.69,2.14-1.33,3.25-1.92.35-.19.7-.36,1.06-.52,1.06-.48,2.16-.88,3.2-1.41.8-.41,1.55-.92,2.27-1.46.37-.27.73-.56,1.09-.84.19-.15.38-.3.57-.44.09-.07.46-.27.48-.37-.96,3.93-8.57,7.1-14.64,8.97Z"/>
      <g>
        <path class="cls-3" d="M95.32,179.54H-21.56c-.84,0-1.52.68-1.52,1.52v57.41c0,.84.68,1.52,1.52,1.52h116.89c.84,0,1.52-.68,1.52-1.52v-57.41c0-.84-.68-1.52-1.52-1.52ZM-20.05,185.27L-.42,209.77l-19.62,24.49v-48.99ZM3.96,182.58s.02.1.03.15c0,0,0,.01,0,.02,0,0,0,.02,0,.03,0,0,0,0,0,.01,0,.01,0,.02,0,.03,0,0,0,0,0-.01,0,.07.01.14.02.21.05.66.01,1.32-.04,1.97-.05.66-.12,1.32-.18,1.97-.06.59-.08,1.16-.08,1.75.03,2.34.13,4.69.13,7.03,0,2.34.13,4.68.24,7.02.03.54.06,1.08.12,1.61.06.51.14,1.03.19,1.54.06.53.1,1.07.09,1.61,0,.13,0,.26-.02.38,0,.05,0,.11-.01.16,0,.02,0,.04,0,.06,0,0,0,.01,0,.03,0,.05-.02.1-.03.15h-2.3l-2.98-3.72c.25-1.14.28-2.33.26-3.5-.02-1.39-.12-2.78-.15-4.17-.01-.67-.01-1.34.03-2,.05-.8.14-1.59.19-2.39.1-1.67.14-3.34.15-5.01.01-1.64,0-3.29,0-4.93H3.96ZM22.97,182.58c.03.15.06.3.08.45,0,.02.02.17.02.2,0,.09.02.18.02.27.01.21.02.41.02.62,0,.8-.09,1.6-.18,2.4-.09.77-.2,1.53-.25,2.31-.06.92-.05,1.85-.07,2.77-.04,1.9-.1,3.79-.13,5.69-.02,1.84-.01,3.67,0,5.51.02,1.84.04,3.68.03,5.52h-4.87c.1-.53.12-1.08.11-1.62-.01-.88-.1-1.75-.14-2.63-.05-1.06-.03-2.13-.04-3.19-.02-1.2-.04-2.41-.06-3.61-.03-2.39.04-4.78.18-7.17.07-1.2.14-2.39.16-3.59,0-.6.02-1.2.03-1.8.01-.63.03-1.27,0-1.91,0-.07,0-.15-.01-.23h5.1ZM29.16,182.58c.01.08.03.16.04.24,0,0,0,0,0,0,0,0,0,.02,0,.03,0,.07.02.15.02.22.05.44.07.89.08,1.34.02.92-.03,1.85-.09,2.77-.06.9-.14,1.79-.19,2.69-.05.97-.06,1.94-.04,2.91.04,1.97.13,3.94.15,5.91.01,1.65.07,3.29.07,4.94,0,.92-.01,1.84-.06,2.75-.02.43-.06.86-.1,1.29-.01.1-.02.2-.04.3,0,.03,0,.07-.01.1.03-.18,0,.04-.01.07,0,.05-.02.11-.03.16h-5.14c.02-3.46-.07-6.92-.04-10.37.02-1.91.08-3.83.12-5.74.02-.97.03-1.95.06-2.92.02-.76.12-1.52.22-2.27.18-1.43.4-2.99.14-4.43h4.86ZM35.5,182.58s0,.03,0,.05c0,0,0,0,0,.01,0,.04,0,.09.01.13,0,.1.01.2.01.29,0,.39-.01.79-.03,1.18-.04.93-.06,1.87-.09,2.81-.06,1.84-.06,3.67-.07,5.51-.02,3.45-.06,6.89-.1,10.34-.02,1.73-.03,3.45-.03,5.18,0,.08.02.16.05.24h-5.01c.19-1.32.23-2.66.24-3.99.01-1.69-.04-3.37-.06-5.06-.01-.9-.01-1.79-.04-2.69-.03-1.03-.07-2.05-.1-3.08-.03-1.01-.04-2.03,0-3.04.03-.9.11-1.79.17-2.69.13-1.72.23-3.48,0-5.2h5.03ZM47.65,182.58c.04.15.08.3.11.46,0,.05.02.1.02.15,0,0,0,0,0,0,.01.09.02.19.03.28.01.19.02.38.03.57.01.78-.03,1.56-.04,2.34,0,1.9-.12,3.79-.19,5.68-.08,1.92-.07,3.84-.1,5.75-.03,1.9-.09,3.79-.11,5.69,0,.87.02,1.74.03,2.61,0,.4,0,.81-.04,1.21,0,.04,0,.09-.01.13,0,.01,0,.02,0,.03,0,0,0,.01,0,.02-.01.08-.03.16-.04.24-.02.09-.04.18-.07.27,0,.03-.02.06-.03.08-.01.04-.09.22-.01.04-.02.05-.04.11-.05.16h-5.11c.06-.59.07-1.18.05-1.77-.02-.88-.04-1.76-.02-2.64.05-1.84.19-3.68.29-5.52.21-3.68.17-7.38.5-11.05.14-1.58.42-3.16.43-4.75h4.34ZM53.56,182.58c.17,2.69-.06,5.39-.22,8.07-.11,1.82-.16,3.64-.11,5.47.04,1.58.09,3.17.11,4.75.03,1.7.04,3.4-.02,5.09-.01.34-.03.68-.06,1.02-.01.15-.02.3-.04.46,0,.07-.01.14-.02.2,0,.03,0,.06-.01.09,0,0,0,0,0,0,0,.04-.01.09-.02.12,0,.06-.02.11-.03.17-.02.09-.04.18-.06.27,0,0,0,.01,0,.02h-4.57c.37-1.26.18-2.66.18-3.95,0-1.94.06-3.89.1-5.83.04-1.93.02-3.86.09-5.79.07-1.94.19-3.88.21-5.83.01-.92.05-1.84.04-2.76,0-.53-.04-1.06-.15-1.58h4.57ZM59.11,182.58s.02.1.03.15c0,0,0,.01,0,.02,0,0,0,.02,0,.03,0,0,0,.01,0,.02,0,0,0,.02,0,.02,0,0,0,0,0-.01,0,.07.01.14.02.21.05.66,0,1.33-.04,1.99-.1,1.19-.31,2.36-.4,3.55-.17,2.31.05,4.61.09,6.92.04,2.32-.03,4.65-.05,6.97-.02,1.96-.01,3.91,0,5.87h-4.33c.1-.51.14-1.03.17-1.55.11-1.65.09-3.31.08-4.96-.02-1.69-.06-3.37-.11-5.06-.04-1.6-.06-3.18.02-4.78.15-3.1.48-6.22.29-9.32,0-.02,0-.04,0-.06h4.24ZM64.94,182.58c.02.11.05.22.07.33,0,0,0,.02,0,.02,0,.04,0,.07.01.11,0,.09.02.18.02.26.01.2.02.4.02.6,0,.79-.06,1.59-.14,2.38-.08.75-.16,1.5-.2,2.25-.05,1-.12,2-.18,3-.13,1.93-.2,3.87-.27,5.81-.07,1.93-.13,3.86-.12,5.79,0,1.73.05,3.46.18,5.18h-4.28c0-1.72,0-3.44,0-5.15.01-2.35.09-4.69.07-7.04-.02-2.33-.25-4.67-.13-7,.06-1.28.29-2.54.41-3.81.07-.75.12-1.5.07-2.25-.01-.15-.02-.31-.04-.48h4.51ZM76.99,182.58v.05s0,0,0,0c.01.09.02.18.03.28.04.37.08.75.1,1.12.06.81.08,1.63.09,2.44.01,1.61-.05,3.22-.21,4.82-.19,1.97-.36,3.94-.4,5.92-.02,1.05.04,2.08.09,3.12.02.53.04,1.07.04,1.6l-5.11,6.38h-.76c.03-1.04.16-2.07.27-3.1.15-1.34.19-2.69.27-4.04.16-2.74.34-5.49.59-8.23.11-1.26.25-2.51.35-3.77.12-1.46.21-2.93.2-4.39,0-.65-.04-1.31-.14-1.95-.01-.08-.03-.17-.05-.26h4.63ZM92.25,182.58l-3.43,4.28c.02-.16.04-.32.07-.47.04-.28.06-.56.07-.84.02-.59-.02-1.17-.02-1.76,0-.29,0-.58.03-.87,0-.05.01-.1.02-.16,0,.02.02-.16.03-.18,0,0,0,0,0,0h3.24ZM93.42,229.15s-.02,0-.03,0c-.06,0-.12-.02-.18-.03-.13-.02-.26-.04-.39-.06-.25-.04-.5-.08-.75-.12-.87-.13-1.74-.21-2.6-.1l-3.54-4.42c.89,0,1.77,0,2.66,0,.71,0,1.41.02,2.12.05.58.02,1.15.05,1.74.02.3-.02.61-.04.91-.03.06,0,.35-.02.38.02,0,0-.14-.03-.04,0,.03,0,.07.01.1.02,0,0,.02,0,.03,0v4.71c-.12-.01-.23-.02-.35-.04-.02,0-.03,0-.03,0ZM80.63,201.71c1.9.39,3.85.43,5.78.42,1.79,0,3.59-.04,5.38.01.42.01.83.03,1.25.07.05,0,.12.02.19.03.01,0,.04,0,.07,0,0,0,0,0,0,0,0,0,0,0,0,0,0,0,0,0,0,0,.05,0,.09.02.14.02.07.01.13.03.19.05.02,0,.05.02.07.02.03.01.06.03.1.04v4.59c-.23.08-.47.13-.71.17,0,0-.01,0-.02,0-.02,0-.03,0-.04,0-.06,0-.12.01-.18.02-.14.01-.28.02-.43.02-.57,0-1.15-.05-1.72-.12-.03,0-.26-.04-.11-.01-.07,0-.13-.02-.2-.03-.15-.02-.3-.04-.46-.07-.28-.04-.56-.09-.83-.13-.58-.09-1.15-.17-1.73-.21-1.44-.11-2.88-.17-4.32-.2-1.3-.03-2.6-.03-3.9-.11-.7-.04-1.42-.09-2.14-.07l3.62-4.51ZM90.02,190c1.24.28,2.52.26,3.79.23v4.4c-.37-.09-.77-.11-1.15-.11-.56-.01-1.11.02-1.67.05-.59.02-1.17,0-1.76.01-.74,0-1.47.04-2.2.07-.25.01-.51.02-.76.03l3.75-4.69ZM85.19,196.02c1.23-.03,2.45-.11,3.68-.13.62-.01,1.25.01,1.87,0,.53-.02,1.07-.05,1.6-.06.29,0,.58,0,.87.03.01,0,.04,0,.06,0,0,0,.02,0,.02,0,.07.01.13.02.19.04.11.02.21.06.32.1v5.03c-.16-.03-.33-.06-.5-.08-.36-.04-.72-.07-1.08-.08-.76-.03-1.52-.05-2.28-.06-2-.01-4,.08-6-.02-.55-.03-1.1-.07-1.65-.13-.11-.01-.23-.03-.34-.04-.03,0-.1-.01-.11-.02-.07-.01-.14-.02-.21-.03-.03,0-.06-.01-.09-.02l3.64-4.54ZM93.14,207.13s-.03,0-.06,0c.02,0,.06,0,.06,0ZM75.86,207.67c.13-.03.26-.05.38-.07.01,0,.02,0,.03,0,.01,0,.03,0,.04,0,.07,0,.13-.01.2-.02.15-.01.31-.02.46-.03.61-.02,1.21,0,1.82.04.57.03,1.14.08,1.72.09.7.01,1.41.02,2.11.03,1.44.03,2.88.08,4.32.18.31.02.63.04.94.08.11.01.22.03.33.04.02,0,.07,0,.1.01.07,0,.14.02.21.03.57.08,1.14.18,1.71.26,1.15.16,2.4.31,3.55.03v4.01c-2.23-.01-4.46-.11-6.68-.24-2.41-.13-4.82-.29-7.24-.38-1.35-.05-2.7-.09-4.05-.09-.05,0-.1,0-.15.02l-1.5-1.87,1.68-2.1ZM83.02,213.16c2.4.13,4.8.29,7.2.38,1.2.05,2.39.08,3.59.09v4.16c-1.52-.26-3.07-.07-4.61-.06-1.82.01-3.63-.07-5.45-.04-1.03.02-2.05.07-3.08.18l-3.96-4.94c2.1.02,4.2.12,6.3.23ZM86.09,218.99c.9.01,1.8.03,2.7.04.83,0,1.66-.04,2.49-.07.48-.01.96-.02,1.43,0,.11,0,.21.01.32.02.05,0,.11,0,.16.02.02,0,.11.01.14.02.16.02.32.05.47.09v4.06c-.32-.04-.64-.04-.97-.02-.56.03-1.12.04-1.68.02-1.44-.06-2.87-.07-4.31-.07-.65,0-1.31,0-1.96.01l-3.23-4.03c1.48-.11,2.96-.11,4.45-.09ZM93.8,188.93c-.42,0-.84.02-1.26.01-.45,0-.9-.02-1.35-.07-.08,0-.16-.02-.25-.03l2.86-3.57v3.65ZM87.65,185.61c0,.16-.01.31-.03.47,0,.06-.01.12-.02.19,0,.04,0,.07-.01.11,0,0,0,.01,0,.03-.05.33-.1.66-.13.98-.03.38-.02.76.05,1.12l-3.23,4.03c.02-2.59.08-5.17.11-7.76,0-.73.01-1.47.01-2.2h3.3c-.13,1-.02,2.02-.05,3.03ZM82.98,191.89c0,.76-.01,1.53-.02,2.29l-4.96,6.19c-.04-.73-.09-1.46-.09-2.19,0-3.72.6-7.39.62-11.11,0-1.49-.04-3-.23-4.49h4.8c0,3.1-.08,6.2-.12,9.31ZM71.01,182.58s0,0,0,0c.01.04.03.08.04.12.03.1.05.2.07.3.01.06.02.11.03.17,0,.02,0,.04,0,.06.02.13.03.26.04.4.02.31.04.62.04.93.03,1.45-.06,2.9-.17,4.34-.09,1.12-.2,2.23-.31,3.34-.25,2.69-.44,5.39-.6,8.08-.08,1.33-.12,2.67-.23,4-.11,1.29-.32,2.58-.36,3.88,0,.04,0,.07,0,.11h-3.93c-.27-3.42-.2-6.87-.09-10.29.07-1.94.13-3.88.25-5.81.06-1.01.14-2.02.2-3.03.04-.8.1-1.6.18-2.4.09-.9.19-1.8.19-2.71,0-.49-.02-1-.1-1.49h4.74ZM53.21,208.3c.07-.03.15-.05.24-.06-.08,0-.16.02-.24.06ZM47.78,183.17s0-.06,0,0h0ZM41.64,186.69c-.19,1.78-.26,3.58-.32,5.37-.07,1.84-.1,3.68-.19,5.52-.09,1.84-.23,3.68-.31,5.53-.04.99-.05,1.98-.02,2.96.02.49.03.98.02,1.47,0,.24-.02.48-.05.72,0,.02,0,.04,0,.05h-4.28c.03-.07.05-.15.05-.24,0-3.26.05-6.52.08-9.78.02-1.75.04-3.5.05-5.26.01-1.82,0-3.64.06-5.46.03-1.09.05-2.17.1-3.26.02-.58.07-1.17,0-1.75h5.2c-.01,1.38-.22,2.75-.37,4.11ZM16.56,182.58c0,.1.02.2.02.29.03.61.02,1.21,0,1.82-.04,1.7-.07,3.39-.18,5.09-.14,2.31-.23,4.6-.21,6.91.02,2.28.05,4.56.09,6.84.01.9.12,1.8.15,2.71.02.46.02.93-.01,1.39,0,.05,0,.1-.01.14,0,.05,0,.25,0,.06,0,.1-.03.21-.05.31-.01.06-.03.11-.04.17h-4.54c0-.16,0-.31,0-.47,0-.45,0-.9,0-1.35,0-.88.03-1.75.04-2.63.04-1.77.08-3.54.08-5.3,0-3.59-.21-7.18-.37-10.76-.08-1.74-.14-3.49-.16-5.23h5.18ZM10.46,192.4c.08,1.79.14,3.59.15,5.39,0,1.74-.03,3.48-.06,5.22-.02.98-.04,1.96-.05,2.94,0,.49-.01.99-.01,1.48,0,.24,0,.48,0,.71,0,.03,0,.06,0,.09-.02.03-.04.06-.05.09h-4.68c.09-.64.06-1.29,0-1.92-.08-.95-.25-1.88-.32-2.83-.08-1.16-.11-2.32-.16-3.48-.05-1.21-.09-2.41-.11-3.62-.01-1.19,0-2.38-.04-3.56-.03-1.19-.07-2.39-.09-3.58-.01-.7-.02-1.4.04-2.1.06-.66.14-1.32.19-1.97.05-.68.1-1.37.07-2.05,0-.2-.02-.41-.05-.62h4.8c.03,3.27.23,6.55.38,9.82ZM-1.8,191.85c-.08,1.5-.27,2.99-.26,4.49,0,1.39.11,2.78.15,4.17.02.75.03,1.5-.01,2.24,0,.16-.02.31-.03.47l-4.38-5.47c0-2.12.04-4.25.09-6.37.05-2.13.11-4.25.15-6.38.01-.81.02-1.62.03-2.43H-1.69c0,3.09.05,6.18-.11,9.27ZM-7.46,187.72c-.05,2.18-.11,4.35-.15,6.53-.01.63-.02,1.26-.02,1.89l-3.94-4.91c.15-1.03-.07-2.13-.15-3.14-.06-.79-.02-1.59-.02-2.38,0-.91-.01-1.82-.08-2.73,0-.13-.02-.26-.03-.38h4.47c0,1.71-.05,3.42-.09,5.14ZM-13.16,182.58c.03.35.06.7.07,1.05.04.81.04,1.62.04,2.42,0,.68-.03,1.37.02,2.06.04.49.1.98.14,1.48l-5.61-7h5.34ZM2.13,211.21h69.5l20.62,25.74H-18.49l20.62-25.74ZM90.45,230.08s.04,0,.06,0c.26,0,.51.03.77.06.05,0,.1.01.14.02.01,0,.09.01.11.01.12.02.24.04.36.06.63.1,1.27.22,1.91.28v3.76l-3.35-4.19Z"/>
        <path class="cls-3" d="M4,182.81s0-.01,0-.02c0-.01,0-.03,0-.04-.01-.05-.03-.07,0,.06Z"/>
        <path class="cls-3" d="M59.15,182.82s0,0,0-.01c0-.02,0-.03,0-.05-.01-.05-.03-.05,0,.06Z"/>
        <path class="cls-3" d="M93.3,202.25s0,0,0,0c-.02,0-.04,0-.07,0-.02,0,0,.01.07,0Z"/>
      </g>
      <path class="cls-3" d="M170.76,85.23s0-.05,0-.07c0-.03,0-.06-.01-.09,0-.03-.01-.05-.02-.08,0-.02-.01-.05-.02-.07,0-.03-.02-.05-.03-.08,0-.02-.02-.05-.03-.07,0-.02-.02-.05-.03-.07-.01-.02-.02-.05-.04-.07-.01-.02-.03-.04-.04-.07-.01-.02-.03-.05-.04-.07-.02-.03-.04-.05-.05-.07-.01-.02-.03-.04-.04-.05-.07-.08-.14-.16-.23-.23-.02-.01-.03-.03-.05-.04-.02-.02-.05-.04-.07-.05-.02-.01-.04-.03-.07-.04-.02-.01-.05-.03-.07-.04-.02-.01-.05-.02-.07-.03-.02-.01-.05-.02-.07-.03-.02,0-.05-.02-.07-.03-.03,0-.05-.02-.08-.03-.02,0-.05-.01-.07-.02-.03,0-.06-.01-.08-.02-.03,0-.05,0-.08-.01-.03,0-.05,0-.08-.01-.05,0-.09,0-.14,0,0,0-.01,0-.02,0h-58.09s-.01,0-.02,0c-.05,0-.09,0-.14,0-.03,0-.05,0-.08.01-.03,0-.05,0-.08.01-.03,0-.06.01-.08.02-.02,0-.05.01-.07.02-.03,0-.05.02-.08.03-.02,0-.05.02-.07.03-.03.01-.05.02-.07.03-.02.01-.05.02-.07.03-.02.01-.05.03-.07.04-.02.01-.04.03-.07.04-.03.02-.05.04-.07.06-.02.01-.04.03-.05.04-.08.07-.16.14-.23.23-.01.02-.03.04-.04.05-.02.02-.04.05-.05.07-.02.02-.03.05-.04.07-.01.02-.03.04-.04.07-.01.02-.02.05-.04.07-.01.02-.02.05-.03.07,0,.02-.02.05-.03.07,0,.03-.02.05-.03.08,0,.02-.01.05-.02.07,0,.03-.01.05-.02.08,0,.03,0,.06-.01.09,0,.02,0,.05,0,.07,0,.05,0,.11,0,.16v58.09c0,.05,0,.11,0,.16,0,.02,0,.05,0,.07,0,.03,0,.06.01.09,0,.03.01.05.02.08,0,.02.01.05.02.07,0,.03.02.05.03.08,0,.02.02.05.03.07,0,.02.02.05.03.07.01.02.02.05.04.07.01.02.03.04.04.07.01.02.03.05.04.07.02.03.04.05.05.07.01.02.03.04.04.05.07.08.14.16.23.23.02.01.04.03.05.04.02.02.05.04.07.05.02.01.04.03.07.04.02.01.05.03.07.04.02.01.05.02.07.03.02.01.05.02.07.03.02,0,.05.02.07.03.03,0,.05.02.08.03.02,0,.05.01.07.02.03,0,.05.01.08.02.03,0,.06,0,.08.01.02,0,.05,0,.07.01.05,0,.11,0,.16,0h58.09c.05,0,.11,0,.16,0,.02,0,.05,0,.07-.01.03,0,.06,0,.08-.01.03,0,.05-.01.08-.02.02,0,.05-.01.07-.02.03,0,.05-.02.08-.03.02,0,.05-.02.07-.03.02-.01.05-.02.07-.03.02-.01.05-.02.07-.03.02-.01.05-.03.07-.04.02-.01.05-.03.07-.04.03-.02.05-.04.07-.05.02-.01.04-.03.05-.04.08-.07.16-.14.23-.23.01-.02.03-.04.04-.05.02-.02.04-.05.05-.07.02-.02.03-.05.04-.07.01-.02.03-.04.04-.07.01-.02.02-.05.04-.07.01-.02.02-.05.03-.07,0-.02.02-.05.03-.07,0-.03.02-.05.03-.08,0-.02.01-.05.02-.07,0-.03.01-.05.02-.08,0-.03,0-.06.01-.09,0-.02,0-.05,0-.07,0-.05,0-.11,0-.16v-58.09c0-.05,0-.11,0-.16ZM164.07,135.76s.02,0,0,0h0ZM164.04,135.75s-.05,0-.06,0c-.04,0-.09-.02-.13-.03-.08-.02-.17-.04-.25-.07l-3.22-3.22s.05,0,.08,0c.29-.03.58-.05.87-.08.57-.04,1.14-.07,1.71-.09,1.15-.03,2.31-.03,3.46-.02.35,0,.69,0,1.04,0v3.53c-.61-.12-1.26-.09-1.87-.05-.38.02-.76.06-1.15.05-.16,0-.32-.01-.48-.03ZM123.75,95.79c-.02-2.47-.16-4.93-.24-7.4-.01-.46-.03-.93-.04-1.39h4.14s0,.04.01.06c0,.05.02.11.03.16,0,.03.02.07.02.11,0,0,0,.02,0,.04,0,.03,0,.05.01.08,0,.06.01.12.02.19.01.12.02.24.03.35.02.24.04.48.05.72.04.99.02,1.98-.02,2.97-.04.98-.09,1.97-.11,2.95-.02,1.01.05,2.01.06,3.02,0,.7,0,1.39-.02,2.08l-3.94-3.94ZM122.52,94.56l-3.53-3.53c.01-1.34.17-2.7-.12-4.03h3.39c.05,2.52.2,5.03.26,7.55ZM128.86,94.96c.02-1.98.21-3.97.15-5.95-.02-.67-.07-1.34-.17-2h3.83c.03.13.05.26.07.4,0,.03,0,.07.01.1,0,0,0-.02,0-.02,0,0,0,0,0,0,0,.06.01.12.02.17.02.15.03.31.03.46.01.28.02.57.02.85,0,1.14-.13,2.27-.13,3.41,0,.68.06,1.36.09,2.04.04.77.08,1.54.1,2.31.02.78.03,1.56.01,2.34-.02.77-.05,1.54-.02,2.31.05,1.25.16,2.5.2,3.76l-4.2-4.2c0-.95.04-1.9.04-2.86,0-1.04-.07-2.07-.06-3.1ZM134.11,101.91c-.04-.79-.06-1.58-.02-2.37.03-.78.04-1.55.02-2.33-.02-.79-.05-1.57-.09-2.35-.04-.73-.09-1.47-.11-2.2-.03-1.12.1-2.23.12-3.35.02-.7,0-1.4-.1-2.09,0-.07-.02-.14-.03-.21h3.48c.1.33.18.67.24,1.01.01.08.03.16.04.24,0,.04.01.09.02.13,0,.01,0,.05.01.08,0,.03,0,.07.01.08,0,.04.01.09.02.13.01.09.02.18.03.27.04.37.06.75.07,1.12.05,1.44-.02,2.87.01,4.31.02.87.08,1.73.12,2.6.04.93.08,1.86.11,2.79.05,1.88.03,3.76.07,5.63.03,1.62.07,3.23.09,4.85l-3.92-3.92c.03-1.48-.11-2.96-.19-4.44ZM139.44,111.48c0-1.8-.05-3.6-.08-5.4-.02-.95-.04-1.9-.05-2.86,0-.94,0-1.89-.02-2.83-.04-1.88-.14-3.75-.23-5.62-.07-1.43.02-2.86-.02-4.28-.02-.78-.07-1.56-.18-2.33-.05-.39-.13-.77-.23-1.15h4c.01.09.03.18.04.26,0,.05.01.1.02.14-.02-.16,0,0,0,.03.03.21.05.42.08.62.09.8.15,1.61.19,2.42.08,1.6.09,3.21.08,4.82,0,1.62-.01,3.24.04,4.86.05,1.48.12,2.96.17,4.44.05,1.43.1,2.86.11,4.29l-3.26,3.26-.67-.67ZM152.45,87.01s0,.04,0,.07c0,.12.01.24.02.36.01.46-.01.93-.04,1.39-.02.47-.03.94-.01,1.41.02.59.08,1.17.13,1.76.05.58.11,1.15.13,1.73.02.58,0,1.16-.03,1.74-.03.58-.06,1.16-.09,1.75-.02.58-.02,1.17-.02,1.75v.75l-3.61,3.61c-.01-.14-.02-.28-.03-.42-.03-.63,0-1.25.02-1.88.03-.63.08-1.26.11-1.89.03-.61.03-1.21,0-1.82-.05-1.45.03-2.89.08-4.34.02-.68.05-1.36.03-2.04-.01-.55-.06-1.1-.11-1.65-.06-.64-.12-1.27-.16-1.91,0-.12-.02-.24-.02-.37h3.58ZM161.53,89.98c.02.24.03.47.05.71l-3.1,3.1c0-.06,0-.12,0-.18,0-.66.04-1.32.09-1.97.09-1.35.21-2.71-.02-4.05-.03-.2-.08-.39-.13-.58h2.96c-.04.99.09,2,.17,2.97ZM165.29,112.8c-1.21-.07-2.43-.05-3.64-.13-2.08-.12-4.16-.19-6.24-.23-2.08-.04-4.16-.05-6.24-.04-1.58,0-3.16,0-4.74.01l4.23-4.23c2.33-.02,4.67.1,7,.25,1.38.09,2.77.19,4.15.28,1.33.09,2.66.18,4,.18.71,0,1.42-.01,2.13.02.35.01.71.04,1.06.08.01,0,.15.02.05,0-.1-.01.07.01.09.01.08.01.17.03.25.04.05,0,.11.02.16.03v3.98c-.08-.02-.17-.03-.25-.05-.66-.12-1.33-.17-2-.21ZM159.36,97.47c.56.17,1.14.25,1.72.31.73.07,1.46.08,2.19.08.7,0,1.39,0,2.09.04.51.03,1.02.02,1.53.05.16,0,.32.02.49.04.03,0,.06,0,.09.01.02,0,.04,0,.06.01v4.3c-.33-.05-.67-.08-1-.1-.73-.04-1.45-.04-2.18-.11-2.33-.21-4.66-.26-7-.34-.73-.02-1.47-.05-2.2-.09l4.2-4.2ZM154.01,102.82c2.11.13,4.22.17,6.32.25,1.16.04,2.32.1,3.47.2.4.03.8.07,1.2.09.37.02.75.03,1.13.04.22,0,.44.02.66.04.1,0,.2.02.31.03.05,0,.1.01.15.02.03,0,.09.01.11.02.06,0,.12.02.18.03v4.32c-1.05-.18-2.13-.17-3.19-.17-1.33,0-2.65-.06-3.98-.14-2.79-.17-5.58-.4-8.38-.51-.71-.03-1.42-.05-2.13-.05l4.15-4.15ZM167.54,96.79c-.07,0-.14-.01-.2-.02-.56-.05-1.11-.05-1.67-.07-.64-.02-1.28-.05-1.92-.05-.75,0-1.51,0-2.26-.05-.21-.01-.42-.03-.62-.05-.04,0-.08,0-.12-.01,0,0,.01,0,.02,0-.01,0-.03,0-.04,0,0,0,0,0,0,0,0,0-.02,0-.02,0,0,0,0,0-.01,0-.1-.01-.19-.03-.29-.05-.01,0-.03,0-.04,0l3.02-3.02c1.38-.07,2.77-.26,4.15-.15v3.49ZM157.12,87.01s0,.02.01.03c0,.02.01.04.02.04.1.28.17.56.22.86,0,.03,0,.06.01.09,0,.08.02.16.03.24.02.17.03.33.03.5.01.35.01.7,0,1.04-.04,1.42-.24,2.84-.18,4.26.01.28.04.57.08.85l-3.58,3.58c0-.3,0-.6,0-.9.01-.58.05-1.17.08-1.75.03-.58.07-1.16.06-1.74,0-.59-.05-1.17-.1-1.76-.1-1.08-.21-2.16-.17-3.25.02-.52.06-1.04.05-1.56,0-.18,0-.36-.02-.54h3.46ZM147.67,87.17c.03.57.09,1.14.14,1.72.05.56.11,1.13.13,1.69.03.63.01,1.27,0,1.9-.04,1.45-.13,2.89-.11,4.34,0,.64.04,1.27.02,1.91-.02.63-.07,1.27-.11,1.9-.07,1.24-.13,2.53.13,3.75l-3.31,3.31c-.04-2.34-.17-4.68-.25-7.03-.12-3.23.02-6.47-.12-9.7-.06-1.33-.16-2.65-.35-3.96h3.82c0,.06,0,.11,0,.17ZM143.21,113.62c1.71,0,3.42-.01,5.13-.02,2.06,0,4.13,0,6.19.03,2.06.03,4.12.09,6.17.2.69.04,1.38.08,2.07.1.62.02,1.24.02,1.86.05.64.02,1.29.06,1.93.13.03,0,.06,0,.1.01.07,0,.14.02.2.03.13.02.26.05.39.07.09.02.18.04.27.07v5.2c-2.59-.03-5.18-.19-7.77-.38-2.83-.22-5.65-.48-8.48-.66-1.6-.1-3.21-.18-4.81-.2-.08,0-.16.02-.23.05l-3.86-3.86.82-.82ZM155.05,119.94c2.82.23,5.64.48,8.47.63,1.34.07,2.68.12,4.02.13v4.78c-1.7,0-3.4.03-5.1.03-2.16,0-4.32-.03-6.48-.15-.96-.05-1.92-.13-2.87-.23l-5.65-5.65c2.54.07,5.07.25,7.61.46ZM158.79,126.68c2.14.05,4.29.04,6.43.03.77,0,1.55-.01,2.32-.01v4.34c-2.02-.01-4.04-.05-6.06.08-.7.05-1.4.12-2.09.22-.02,0-.05.01-.07.02l-4.9-4.9c1.45.12,2.91.18,4.37.21ZM167.54,92.08c-.28-.02-.56-.03-.84-.03-.67,0-1.34.04-2.01.09l2.85-2.85v2.79ZM162.7,89.56c-.08-.85-.16-1.7-.13-2.55h2.68l-2.55,2.55ZM117.64,87.01c0,.05,0,.11.02.16.04.16.08.33.1.49,0,0,0,.03,0,.05,0,.02,0,.06.01.08.01.09.02.18.03.27.03.35.03.7.03,1.05,0,.25-.01.51-.02.76l-2.85-2.85h2.68ZM112.68,89.29l25.15,25.15-25.15,25.15v-50.29ZM114.97,141.87l25.15-25.15,25.15,25.15h-50.29ZM164.94,136.99c.22-.01.44-.03.65-.04.39-.03.78-.05,1.16-.04.1,0,.2,0,.3.02.04,0,.22.03.02,0,.04,0,.07.01.11.02.12.02.24.05.36.09v2.55l-2.6-2.6Z"/>
      <path class="cls-3" d="M354.2,342.71s0-.05,0-.07c0-.03,0-.06-.01-.09,0-.03-.01-.05-.02-.08,0-.02-.01-.05-.02-.07,0-.03-.02-.05-.03-.08,0-.02-.02-.05-.03-.07,0-.02-.02-.05-.03-.07-.01-.02-.02-.05-.04-.07-.01-.02-.03-.04-.04-.07-.01-.02-.03-.05-.04-.07-.02-.03-.04-.05-.05-.07-.01-.02-.03-.04-.04-.05-.07-.08-.14-.16-.23-.23-.02-.01-.03-.03-.05-.04-.02-.02-.05-.04-.07-.05-.02-.01-.04-.03-.07-.04-.02-.01-.05-.03-.07-.04-.02-.01-.05-.02-.07-.03-.02-.01-.05-.02-.07-.03-.02,0-.05-.02-.07-.03-.03,0-.05-.02-.08-.03-.02,0-.05-.01-.07-.02-.03,0-.06-.01-.08-.02-.03,0-.05,0-.08-.01-.03,0-.05,0-.08-.01-.05,0-.09,0-.14,0,0,0-.01,0-.02,0h-58.09s-.01,0-.02,0c-.05,0-.09,0-.14,0-.03,0-.05,0-.08.01-.03,0-.05,0-.08.01-.03,0-.06.01-.08.02-.02,0-.05.01-.07.02-.03,0-.05.02-.08.03-.02,0-.05.02-.07.03-.03.01-.05.02-.07.03-.02.01-.05.02-.07.03-.02.01-.05.03-.07.04-.02.01-.04.03-.07.04-.03.02-.05.04-.07.06-.02.01-.04.03-.05.04-.08.07-.16.14-.23.23-.01.02-.03.04-.04.05-.02.02-.04.05-.05.07-.02.02-.03.05-.04.07-.01.02-.03.04-.04.07-.01.02-.02.05-.04.07-.01.02-.02.05-.03.07,0,.02-.02.05-.03.07,0,.03-.02.05-.03.08,0,.02-.01.05-.02.07,0,.03-.01.05-.02.08,0,.03,0,.06-.01.09,0,.02,0,.05,0,.07,0,.05,0,.11,0,.16v58.09c0,.05,0,.11,0,.16,0,.02,0,.05,0,.07,0,.03,0,.06.01.09,0,.03.01.05.02.08,0,.02.01.05.02.07,0,.03.02.05.03.08,0,.02.02.05.03.07,0,.02.02.05.03.07.01.02.02.05.04.07.01.02.03.04.04.07.01.02.03.05.04.07.02.03.04.05.05.07.01.02.03.04.04.05.07.08.14.16.23.23.02.01.04.03.05.04.02.02.05.04.07.05.02.01.04.03.07.04.02.01.05.03.07.04.02.01.05.02.07.03.02.01.05.02.07.03.02,0,.05.02.07.03.03,0,.05.02.08.03.02,0,.05.01.07.02.03,0,.05.01.08.02.03,0,.06,0,.08.01.02,0,.05,0,.07.01.05,0,.11,0,.16,0h58.09c.05,0,.11,0,.16,0,.02,0,.05,0,.07-.01.03,0,.06,0,.08-.01.03,0,.05-.01.08-.02.02,0,.05-.01.07-.02.03,0,.05-.02.08-.03.02,0,.05-.02.07-.03.02-.01.05-.02.07-.03.02-.01.05-.02.07-.03.02-.01.05-.03.07-.04.02-.01.05-.03.07-.04.03-.02.05-.04.07-.05.02-.01.04-.03.05-.04.08-.07.16-.14.23-.23.01-.02.03-.04.04-.05.02-.02.04-.05.05-.07.02-.02.03-.05.04-.07.01-.02.03-.04.04-.07.01-.02.02-.05.04-.07.01-.02.02-.05.03-.07,0-.02.02-.05.03-.07,0-.03.02-.05.03-.08,0-.02.01-.05.02-.07,0-.03.01-.05.02-.08,0-.03,0-.06.01-.09,0-.02,0-.05,0-.07,0-.05,0-.11,0-.16v-58.09c0-.05,0-.11,0-.16ZM347.51,393.23s.02,0,0,0h0ZM347.48,393.23s-.05,0-.06,0c-.04,0-.09-.02-.13-.03-.08-.02-.17-.04-.25-.07l-3.22-3.22s.05,0,.08,0c.29-.03.58-.05.87-.08.57-.04,1.14-.07,1.71-.09,1.15-.03,2.31-.03,3.46-.02.35,0,.69,0,1.04,0v3.53c-.61-.12-1.26-.09-1.87-.05-.38.02-.76.06-1.15.05-.16,0-.32-.01-.48-.03ZM307.18,353.27c-.02-2.47-.16-4.93-.24-7.4-.01-.46-.03-.93-.04-1.39h4.14s0,.04.01.06c0,.05.02.11.03.16,0,.03.02.07.02.11,0,0,0,.02,0,.04,0,.03,0,.05.01.08,0,.06.01.12.02.19.01.12.02.24.03.35.02.24.04.48.05.72.04.99.02,1.98-.02,2.97-.04.98-.09,1.97-.11,2.95-.02,1.01.05,2.01.06,3.02,0,.7,0,1.39-.02,2.08l-3.94-3.94ZM305.95,352.04l-3.53-3.53c.01-1.34.17-2.7-.12-4.03h3.39c.05,2.52.2,5.03.26,7.55ZM312.29,352.44c.02-1.98.21-3.97.15-5.95-.02-.67-.07-1.34-.17-2h3.83c.03.13.05.26.07.4,0,.03,0,.07.01.1,0,0,0-.02,0-.02,0,0,0,0,0,0,0,.06.01.12.02.17.02.15.03.31.03.46.01.28.02.57.02.85,0,1.14-.13,2.27-.13,3.41,0,.68.06,1.36.09,2.04.04.77.08,1.54.1,2.31.02.78.03,1.56.01,2.34-.02.77-.05,1.54-.02,2.31.05,1.25.16,2.5.2,3.76l-4.2-4.2c0-.95.04-1.9.04-2.86,0-1.04-.07-2.07-.06-3.1ZM317.55,359.38c-.04-.79-.06-1.58-.02-2.37.03-.78.04-1.55.02-2.33-.02-.79-.05-1.57-.09-2.35-.04-.73-.09-1.47-.11-2.2-.03-1.12.1-2.23.12-3.35.02-.7,0-1.4-.1-2.09,0-.07-.02-.14-.03-.21h3.48c.1.33.18.67.24,1.01.01.08.03.16.04.24,0,.04.01.09.02.13,0,.01,0,.05.01.08,0,.03,0,.07.01.08,0,.04.01.09.02.13.01.09.02.18.03.27.04.37.06.75.07,1.12.05,1.44-.02,2.87.01,4.31.02.87.08,1.73.12,2.6.04.93.08,1.86.11,2.79.05,1.88.03,3.76.07,5.63.03,1.62.07,3.23.09,4.85l-3.92-3.92c.03-1.48-.11-2.96-.19-4.44ZM322.88,368.96c0-1.8-.05-3.6-.08-5.4-.02-.95-.04-1.9-.05-2.86,0-.94,0-1.89-.02-2.83-.04-1.88-.14-3.75-.23-5.62-.07-1.43.02-2.86-.02-4.28-.02-.78-.07-1.56-.18-2.33-.05-.39-.13-.77-.23-1.15h4c.01.09.03.18.04.26,0,.05.01.1.02.14-.02-.16,0,0,0,.03.03.21.05.42.08.62.09.8.15,1.61.19,2.42.08,1.6.09,3.21.08,4.82,0,1.62-.01,3.24.04,4.86.05,1.48.12,2.96.17,4.44.05,1.43.1,2.86.11,4.29l-3.26,3.26-.67-.67ZM335.89,344.48s0,.04,0,.07c0,.12.01.24.02.36.01.46-.01.93-.04,1.39-.02.47-.03.94-.01,1.41.02.59.08,1.17.13,1.76.05.58.11,1.15.13,1.73.02.58,0,1.16-.03,1.74-.03.58-.06,1.16-.09,1.75-.02.58-.02,1.17-.02,1.75v.75l-3.61,3.61c-.01-.14-.02-.28-.03-.42-.03-.63,0-1.25.02-1.88.03-.63.08-1.26.11-1.89.03-.61.03-1.21,0-1.82-.05-1.45.03-2.89.08-4.34.02-.68.05-1.36.03-2.04-.01-.55-.06-1.1-.11-1.65-.06-.64-.12-1.27-.16-1.91,0-.12-.02-.24-.02-.37h3.58ZM344.96,347.45c.02.24.03.47.05.71l-3.1,3.1c0-.06,0-.12,0-.18,0-.66.04-1.32.09-1.97.09-1.35.21-2.71-.02-4.05-.03-.2-.08-.39-.13-.58h2.96c-.04.99.09,2,.17,2.97ZM348.73,370.27c-1.21-.07-2.43-.05-3.64-.13-2.08-.12-4.16-.19-6.24-.23-2.08-.04-4.16-.05-6.24-.04-1.58,0-3.16,0-4.74.01l4.23-4.23c2.33-.02,4.67.1,7,.25,1.38.09,2.77.19,4.15.28,1.33.09,2.66.18,4,.18.71,0,1.42-.01,2.13.02.35.01.71.04,1.06.08.01,0,.15.02.05,0-.1-.01.07.01.09.01.08.01.17.03.25.04.05,0,.11.02.16.03v3.98c-.08-.02-.17-.03-.25-.05-.66-.12-1.33-.17-2-.21ZM342.8,354.94c.56.17,1.14.25,1.72.31.73.07,1.46.08,2.19.08.7,0,1.39,0,2.09.04.51.03,1.02.02,1.53.05.16,0,.32.02.49.04.03,0,.06,0,.09.01.02,0,.04,0,.06.01v4.3c-.33-.05-.67-.08-1-.1-.73-.04-1.45-.04-2.18-.11-2.33-.21-4.66-.26-7-.34-.73-.02-1.47-.05-2.2-.09l4.2-4.2ZM337.45,360.29c2.11.13,4.22.17,6.32.25,1.16.04,2.32.1,3.47.2.4.03.8.07,1.2.09.37.02.75.03,1.13.04.22,0,.44.02.66.04.1,0,.2.02.31.03.05,0,.1.01.15.02.03,0,.09.01.11.02.06,0,.12.02.18.03v4.32c-1.05-.18-2.13-.17-3.19-.17-1.33,0-2.65-.06-3.98-.14-2.79-.17-5.58-.4-8.38-.51-.71-.03-1.42-.05-2.13-.05l4.15-4.15ZM350.98,354.26c-.07,0-.14-.01-.2-.02-.56-.05-1.11-.05-1.67-.07-.64-.02-1.28-.05-1.92-.05-.75,0-1.51,0-2.26-.05-.21-.01-.42-.03-.62-.05-.04,0-.08,0-.12-.01,0,0,.01,0,.02,0-.01,0-.03,0-.04,0,0,0,0,0,0,0,0,0-.02,0-.02,0,0,0,0,0-.01,0-.1-.01-.19-.03-.29-.05-.01,0-.03,0-.04,0l3.02-3.02c1.38-.07,2.77-.26,4.15-.15v3.49ZM340.56,344.48s0,.02.01.03c0,.02.01.04.02.04.1.28.17.56.22.86,0,.03,0,.06.01.09,0,.08.02.16.03.24.02.17.03.33.03.5.01.35.01.7,0,1.04-.04,1.42-.24,2.84-.18,4.26.01.28.04.57.08.85l-3.58,3.58c0-.3,0-.6,0-.9.01-.58.05-1.17.08-1.75.03-.58.07-1.16.06-1.74,0-.59-.05-1.17-.1-1.76-.1-1.08-.21-2.16-.17-3.25.02-.52.06-1.04.05-1.56,0-.18,0-.36-.02-.54h3.46ZM331.11,344.65c.03.57.09,1.14.14,1.72.05.56.11,1.13.13,1.69.03.63.01,1.27,0,1.9-.04,1.45-.13,2.89-.11,4.34,0,.64.04,1.27.02,1.91-.02.63-.07,1.27-.11,1.9-.07,1.24-.13,2.53.13,3.75l-3.31,3.31c-.04-2.34-.17-4.68-.25-7.03-.12-3.23.02-6.47-.12-9.7-.06-1.33-.16-2.65-.35-3.96h3.82c0,.06,0,.11,0,.17ZM326.65,371.09c1.71,0,3.42-.01,5.13-.02,2.06,0,4.13,0,6.19.03,2.06.03,4.12.09,6.17.2.69.04,1.38.08,2.07.1.62.02,1.24.02,1.86.05.64.02,1.29.06,1.93.13.03,0,.06,0,.1.01.07,0,.14.02.2.03.13.02.26.05.39.07.09.02.18.04.27.07v5.2c-2.59-.03-5.18-.19-7.77-.38-2.83-.22-5.65-.48-8.48-.66-1.6-.1-3.21-.18-4.81-.2-.08,0-.16.02-.23.05l-3.86-3.86.82-.82ZM338.48,377.41c2.82.23,5.64.48,8.47.63,1.34.07,2.68.12,4.02.13v4.78c-1.7,0-3.4.03-5.1.03-2.16,0-4.32-.03-6.48-.15-.96-.05-1.92-.13-2.87-.23l-5.65-5.65c2.54.07,5.07.25,7.61.46ZM342.23,384.15c2.14.05,4.29.04,6.43.03.77,0,1.55-.01,2.32-.01v4.34c-2.02-.01-4.04-.05-6.06.08-.7.05-1.4.12-2.09.22-.02,0-.05.01-.07.02l-4.9-4.9c1.45.12,2.91.18,4.37.21ZM350.98,349.56c-.28-.02-.56-.03-.84-.03-.67,0-1.34.04-2.01.09l2.85-2.85v2.79ZM346.14,347.03c-.08-.85-.16-1.7-.13-2.55h2.68l-2.55,2.55ZM301.08,344.48c0,.05,0,.11.02.16.04.16.08.33.1.49,0,0,0,.03,0,.05,0,.02,0,.06.01.08.01.09.02.18.03.27.03.35.03.7.03,1.05,0,.25-.01.51-.02.76l-2.85-2.85h2.68ZM296.12,346.77l25.15,25.15-25.15,25.15v-50.29ZM298.4,399.34l25.15-25.15,25.15,25.15h-50.29ZM348.38,394.46c.22-.01.44-.03.65-.04.39-.03.78-.05,1.16-.04.1,0,.2,0,.3.02.04,0,.22.03.02,0,.04,0,.07.01.11.02.12.02.24.05.36.09v2.55l-2.6-2.6Z"/>
      <path class="cls-3" d="M180.61,278.82s0-.05,0-.07c0-.03,0-.06-.01-.09,0-.03-.01-.05-.02-.08,0-.02-.01-.05-.02-.07,0-.03-.02-.05-.03-.08,0-.02-.02-.05-.03-.07,0-.02-.02-.05-.03-.07-.01-.02-.02-.05-.04-.07-.01-.02-.03-.04-.04-.07-.01-.02-.03-.05-.04-.07-.02-.03-.04-.05-.05-.07-.01-.02-.03-.04-.04-.05-.07-.08-.14-.16-.23-.23-.02-.01-.03-.03-.05-.04-.02-.02-.05-.04-.07-.05-.02-.01-.04-.03-.07-.04-.02-.01-.05-.03-.07-.04-.02-.01-.05-.02-.07-.03-.02-.01-.05-.02-.07-.03-.02,0-.05-.02-.07-.03-.03,0-.05-.02-.08-.03-.02,0-.05-.01-.07-.02-.03,0-.06-.01-.08-.02-.03,0-.05,0-.08-.01-.03,0-.05,0-.08-.01-.05,0-.09,0-.14,0,0,0-.01,0-.02,0h-58.09s-.01,0-.02,0c-.05,0-.09,0-.14,0-.03,0-.05,0-.08.01-.03,0-.05,0-.08.01-.03,0-.06.01-.08.02-.02,0-.05.01-.07.02-.03,0-.05.02-.08.03-.02,0-.05.02-.07.03-.03.01-.05.02-.07.03-.02.01-.05.02-.07.03-.02.01-.05.03-.07.04-.02.01-.04.03-.07.04-.03.02-.05.04-.07.06-.02.01-.04.03-.05.04-.08.07-.16.14-.23.23-.01.02-.03.04-.04.05-.02.02-.04.05-.05.07-.02.02-.03.05-.04.07-.01.02-.03.04-.04.07-.01.02-.02.05-.04.07-.01.02-.02.05-.03.07,0,.02-.02.05-.03.07,0,.03-.02.05-.03.08,0,.02-.01.05-.02.07,0,.03-.01.05-.02.08,0,.03,0,.06-.01.09,0,.02,0,.05,0,.07,0,.05,0,.11,0,.16v58.09c0,.05,0,.11,0,.16,0,.02,0,.05,0,.07,0,.03,0,.06.01.09,0,.03.01.05.02.08,0,.02.01.05.02.07,0,.03.02.05.03.08,0,.02.02.05.03.07,0,.02.02.05.03.07.01.02.02.05.04.07.01.02.03.04.04.07.01.02.03.05.04.07.02.03.04.05.05.07.01.02.03.04.04.05.07.08.14.16.23.23.02.01.04.03.05.04.02.02.05.04.07.05.02.01.04.03.07.04.02.01.05.03.07.04.02.01.05.02.07.03.02.01.05.02.07.03.02,0,.05.02.07.03.03,0,.05.02.08.03.02,0,.05.01.07.02.03,0,.05.01.08.02.03,0,.06,0,.08.01.02,0,.05,0,.07.01.05,0,.11,0,.16,0h58.09c.05,0,.11,0,.16,0,.02,0,.05,0,.07-.01.03,0,.06,0,.08-.01.03,0,.05-.01.08-.02.02,0,.05-.01.07-.02.03,0,.05-.02.08-.03.02,0,.05-.02.07-.03.02-.01.05-.02.07-.03.02-.01.05-.02.07-.03.02-.01.05-.03.07-.04.02-.01.05-.03.07-.04.03-.02.05-.04.07-.05.02-.01.04-.03.05-.04.08-.07.16-.14.23-.23.01-.02.03-.04.04-.05.02-.02.04-.05.05-.07.02-.02.03-.05.04-.07.01-.02.03-.04.04-.07.01-.02.02-.05.04-.07.01-.02.02-.05.03-.07,0-.02.02-.05.03-.07,0-.03.02-.05.03-.08,0-.02.01-.05.02-.07,0-.03.01-.05.02-.08,0-.03,0-.06.01-.09,0-.02,0-.05,0-.07,0-.05,0-.11,0-.16v-58.09c0-.05,0-.11,0-.16ZM173.92,329.34s.02,0,0,0h0ZM173.89,329.34s-.05,0-.06,0c-.04,0-.09-.02-.13-.03-.08-.02-.17-.04-.25-.07l-3.22-3.22s.05,0,.08,0c.29-.03.58-.05.87-.08.57-.04,1.14-.07,1.71-.09,1.15-.03,2.31-.03,3.46-.02.35,0,.69,0,1.04,0v3.53c-.61-.12-1.26-.09-1.87-.05-.38.02-.76.06-1.15.05-.16,0-.32-.01-.48-.03ZM133.6,289.38c-.02-2.47-.16-4.93-.24-7.4-.01-.46-.03-.93-.04-1.39h4.14s0,.04.01.06c0,.05.02.11.03.16,0,.03.02.07.02.11,0,0,0,.02,0,.04,0,.03,0,.05.01.08,0,.06.01.12.02.19.01.12.02.24.03.35.02.24.04.48.05.72.04.99.02,1.98-.02,2.97-.04.98-.09,1.97-.11,2.95-.02,1.01.05,2.01.06,3.02,0,.7,0,1.39-.02,2.08l-3.94-3.94ZM132.37,288.15l-3.53-3.53c.01-1.34.17-2.7-.12-4.03h3.39c.05,2.52.2,5.03.26,7.55ZM138.7,288.55c.02-1.98.21-3.97.15-5.95-.02-.67-.07-1.34-.17-2h3.83c.03.13.05.26.07.4,0,.03,0,.07.01.1,0,0,0-.02,0-.02,0,0,0,0,0,0,0,.06.01.12.02.17.02.15.03.31.03.46.01.28.02.57.02.85,0,1.14-.13,2.27-.13,3.41,0,.68.06,1.36.09,2.04.04.77.08,1.54.1,2.31.02.78.03,1.56.01,2.34-.02.77-.05,1.54-.02,2.31.05,1.25.16,2.5.2,3.76l-4.2-4.2c0-.95.04-1.9.04-2.86,0-1.04-.07-2.07-.06-3.1ZM143.96,295.5c-.04-.79-.06-1.58-.02-2.37.03-.78.04-1.55.02-2.33-.02-.79-.05-1.57-.09-2.35-.04-.73-.09-1.47-.11-2.2-.03-1.12.1-2.23.12-3.35.02-.7,0-1.4-.1-2.09,0-.07-.02-.14-.03-.21h3.48c.1.33.18.67.24,1.01.01.08.03.16.04.24,0,.04.01.09.02.13,0,.01,0,.05.01.08,0,.03,0,.07.01.08,0,.04.01.09.02.13.01.09.02.18.03.27.04.37.06.75.07,1.12.05,1.44-.02,2.87.01,4.31.02.87.08,1.73.12,2.6.04.93.08,1.86.11,2.79.05,1.88.03,3.76.07,5.63.03,1.62.07,3.23.09,4.85l-3.92-3.92c.03-1.48-.11-2.96-.19-4.44ZM149.29,305.07c0-1.8-.05-3.6-.08-5.4-.02-.95-.04-1.9-.05-2.86,0-.94,0-1.89-.02-2.83-.04-1.88-.14-3.75-.23-5.62-.07-1.43.02-2.86-.02-4.28-.02-.78-.07-1.56-.18-2.33-.05-.39-.13-.77-.23-1.15h4c.01.09.03.18.04.26,0,.05.01.1.02.14-.02-.16,0,0,0,.03.03.21.05.42.08.62.09.8.15,1.61.19,2.42.08,1.6.09,3.21.08,4.82,0,1.62-.01,3.24.04,4.86.05,1.48.12,2.96.17,4.44.05,1.43.1,2.86.11,4.29l-3.26,3.26-.67-.67ZM162.3,280.59s0,.04,0,.07c0,.12.01.24.02.36.01.46-.01.93-.04,1.39-.02.47-.03.94-.01,1.41.02.59.08,1.17.13,1.76.05.58.11,1.15.13,1.73.02.58,0,1.16-.03,1.74-.03.58-.06,1.16-.09,1.75-.02.58-.02,1.17-.02,1.75v.75l-3.61,3.61c-.01-.14-.02-.28-.03-.42-.03-.63,0-1.25.02-1.88.03-.63.08-1.26.11-1.89.03-.61.03-1.21,0-1.82-.05-1.45.03-2.89.08-4.34.02-.68.05-1.36.03-2.04-.01-.55-.06-1.1-.11-1.65-.06-.64-.12-1.27-.16-1.91,0-.12-.02-.24-.02-.37h3.58ZM171.37,283.57c.02.24.03.47.05.71l-3.1,3.1c0-.06,0-.12,0-.18,0-.66.04-1.32.09-1.97.09-1.35.21-2.71-.02-4.05-.03-.2-.08-.39-.13-.58h2.96c-.04.99.09,2,.17,2.97ZM175.14,306.38c-1.21-.07-2.43-.05-3.64-.13-2.08-.12-4.16-.19-6.24-.23-2.08-.04-4.16-.05-6.24-.04-1.58,0-3.16,0-4.74.01l4.23-4.23c2.33-.02,4.67.1,7,.25,1.38.09,2.77.19,4.15.28,1.33.09,2.66.18,4,.18.71,0,1.42-.01,2.13.02.35.01.71.04,1.06.08.01,0,.15.02.05,0-.1-.01.07.01.09.01.08.01.17.03.25.04.05,0,.11.02.16.03v3.98c-.08-.02-.17-.03-.25-.05-.66-.12-1.33-.17-2-.21ZM169.21,291.06c.56.17,1.14.25,1.72.31.73.07,1.46.08,2.19.08.7,0,1.39,0,2.09.04.51.03,1.02.02,1.53.05.16,0,.32.02.49.04.03,0,.06,0,.09.01.02,0,.04,0,.06.01v4.3c-.33-.05-.67-.08-1-.1-.73-.04-1.45-.04-2.18-.11-2.33-.21-4.66-.26-7-.34-.73-.02-1.47-.05-2.2-.09l4.2-4.2ZM163.86,296.4c2.11.13,4.22.17,6.32.25,1.16.04,2.32.1,3.47.2.4.03.8.07,1.2.09.37.02.75.03,1.13.04.22,0,.44.02.66.04.1,0,.2.02.31.03.05,0,.1.01.15.02.03,0,.09.01.11.02.06,0,.12.02.18.03v4.32c-1.05-.18-2.13-.17-3.19-.17-1.33,0-2.65-.06-3.98-.14-2.79-.17-5.58-.4-8.38-.51-.71-.03-1.42-.05-2.13-.05l4.15-4.15ZM177.39,290.37c-.07,0-.14-.01-.2-.02-.56-.05-1.11-.05-1.67-.07-.64-.02-1.28-.05-1.92-.05-.75,0-1.51,0-2.26-.05-.21-.01-.42-.03-.62-.05-.04,0-.08,0-.12-.01,0,0,.01,0,.02,0-.01,0-.03,0-.04,0,0,0,0,0,0,0,0,0-.02,0-.02,0,0,0,0,0-.01,0-.1-.01-.19-.03-.29-.05-.01,0-.03,0-.04,0l3.02-3.02c1.38-.07,2.77-.26,4.15-.15v3.49ZM166.97,280.59s0,.02.01.03c0,.02.01.04.02.04.1.28.17.56.22.86,0,.03,0,.06.01.09,0,.08.02.16.03.24.02.17.03.33.03.5.01.35.01.7,0,1.04-.04,1.42-.24,2.84-.18,4.26.01.28.04.57.08.85l-3.58,3.58c0-.3,0-.6,0-.9.01-.58.05-1.17.08-1.75.03-.58.07-1.16.06-1.74,0-.59-.05-1.17-.1-1.76-.1-1.08-.21-2.16-.17-3.25.02-.52.06-1.04.05-1.56,0-.18,0-.36-.02-.54h3.46ZM157.52,280.76c.03.57.09,1.14.14,1.72.05.56.11,1.13.13,1.69.03.63.01,1.27,0,1.9-.04,1.45-.13,2.89-.11,4.34,0,.64.04,1.27.02,1.91-.02.63-.07,1.27-.11,1.9-.07,1.24-.13,2.53.13,3.75l-3.31,3.31c-.04-2.34-.17-4.68-.25-7.03-.12-3.23.02-6.47-.12-9.7-.06-1.33-.16-2.65-.35-3.96h3.82c0,.06,0,.11,0,.17ZM153.06,307.21c1.71,0,3.42-.01,5.13-.02,2.06,0,4.13,0,6.19.03,2.06.03,4.12.09,6.17.2.69.04,1.38.08,2.07.1.62.02,1.24.02,1.86.05.64.02,1.29.06,1.93.13.03,0,.06,0,.1.01.07,0,.14.02.2.03.13.02.26.05.39.07.09.02.18.04.27.07v5.2c-2.59-.03-5.18-.19-7.77-.38-2.83-.22-5.65-.48-8.48-.66-1.6-.1-3.21-.18-4.81-.2-.08,0-.16.02-.23.05l-3.86-3.86.82-.82ZM164.89,313.52c2.82.23,5.64.48,8.47.63,1.34.07,2.68.12,4.02.13v4.78c-1.7,0-3.4.03-5.1.03-2.16,0-4.32-.03-6.48-.15-.96-.05-1.92-.13-2.87-.23l-5.65-5.65c2.54.07,5.07.25,7.61.46ZM168.64,320.26c2.14.05,4.29.04,6.43.03.77,0,1.55-.01,2.32-.01v4.34c-2.02-.01-4.04-.05-6.06.08-.7.05-1.4.12-2.09.22-.02,0-.05.01-.07.02l-4.9-4.9c1.45.12,2.91.18,4.37.21ZM177.39,285.67c-.28-.02-.56-.03-.84-.03-.67,0-1.34.04-2.01.09l2.85-2.85v2.79ZM172.55,283.15c-.08-.85-.16-1.7-.13-2.55h2.68l-2.55,2.55ZM127.49,280.59c0,.05,0,.11.02.16.04.16.08.33.1.49,0,0,0,.03,0,.05,0,.02,0,.06.01.08.01.09.02.18.03.27.03.35.03.7.03,1.05,0,.25-.01.51-.02.76l-2.85-2.85h2.68ZM122.53,282.88l25.15,25.15-25.15,25.15v-50.29ZM124.81,335.45l25.15-25.15,25.15,25.15h-50.29ZM174.79,330.57c.22-.01.44-.03.65-.04.39-.03.78-.05,1.16-.04.1,0,.2,0,.3.02.04,0,.22.03.02,0,.04,0,.07.01.11.02.12.02.24.05.36.09v2.55l-2.6-2.6Z"/>
      <path class="cls-3" d="M552.85,643.42s0-.05,0-.07c0-.03,0-.06-.01-.09,0-.03-.01-.05-.02-.08,0-.02-.01-.05-.02-.07,0-.03-.02-.05-.03-.08,0-.02-.02-.05-.03-.07,0-.02-.02-.05-.03-.07-.01-.02-.02-.05-.04-.07-.01-.02-.03-.04-.04-.07-.01-.02-.03-.05-.04-.07-.02-.03-.04-.05-.05-.07-.01-.02-.03-.04-.04-.05-.07-.08-.14-.16-.23-.23-.02-.01-.03-.03-.05-.04-.02-.02-.05-.04-.07-.05-.02-.01-.04-.03-.07-.04-.02-.01-.05-.03-.07-.04-.02-.01-.05-.02-.07-.03-.02-.01-.05-.02-.07-.03-.02,0-.05-.02-.07-.03-.03,0-.05-.02-.08-.03-.02,0-.05-.01-.07-.02-.03,0-.06-.01-.08-.02-.03,0-.05,0-.08-.01-.03,0-.05,0-.08-.01-.05,0-.09,0-.14,0,0,0-.01,0-.02,0h-58.09s-.01,0-.02,0c-.05,0-.09,0-.14,0-.03,0-.05,0-.08.01-.03,0-.05,0-.08.01-.03,0-.06.01-.08.02-.02,0-.05.01-.07.02-.03,0-.05.02-.08.03-.02,0-.05.02-.07.03-.03.01-.05.02-.07.03-.02.01-.05.02-.07.03-.02.01-.05.03-.07.04-.02.01-.04.03-.07.04-.03.02-.05.04-.07.06-.02.01-.04.03-.05.04-.08.07-.16.14-.23.23-.01.02-.03.04-.04.05-.02.02-.04.05-.05.07-.02.02-.03.05-.04.07-.01.02-.03.04-.04.07-.01.02-.02.05-.04.07-.01.02-.02.05-.03.07,0,.02-.02.05-.03.07,0,.03-.02.05-.03.08,0,.02-.01.05-.02.07,0,.03-.01.05-.02.08,0,.03,0,.06-.01.09,0,.02,0,.05,0,.07,0,.05,0,.11,0,.16v58.09c0,.05,0,.11,0,.16,0,.02,0,.05,0,.07,0,.03,0,.06.01.09,0,.03.01.05.02.08,0,.02.01.05.02.07,0,.03.02.05.03.08,0,.02.02.05.03.07,0,.02.02.05.03.07.01.02.02.05.04.07.01.02.03.04.04.07.01.02.03.05.04.07.02.03.04.05.05.07.01.02.03.04.04.05.07.08.14.16.23.23.02.01.04.03.05.04.02.02.05.04.07.05.02.01.04.03.07.04.02.01.05.03.07.04.02.01.05.02.07.03.02.01.05.02.07.03.02,0,.05.02.07.03.03,0,.05.02.08.03.02,0,.05.01.07.02.03,0,.05.01.08.02.03,0,.06,0,.08.01.02,0,.05,0,.07.01.05,0,.11,0,.16,0h58.09c.05,0,.11,0,.16,0,.02,0,.05,0,.07-.01.03,0,.06,0,.08-.01.03,0,.05-.01.08-.02.02,0,.05-.01.07-.02.03,0,.05-.02.08-.03.02,0,.05-.02.07-.03.02-.01.05-.02.07-.03.02-.01.05-.02.07-.03.02-.01.05-.03.07-.04.02-.01.05-.03.07-.04.03-.02.05-.04.07-.05.02-.01.04-.03.05-.04.08-.07.16-.14.23-.23.01-.02.03-.04.04-.05.02-.02.04-.05.05-.07.02-.02.03-.05.04-.07.01-.02.03-.04.04-.07.01-.02.02-.05.04-.07.01-.02.02-.05.03-.07,0-.02.02-.05.03-.07,0-.03.02-.05.03-.08,0-.02.01-.05.02-.07,0-.03.01-.05.02-.08,0-.03,0-.06.01-.09,0-.02,0-.05,0-.07,0-.05,0-.11,0-.16v-58.09c0-.05,0-.11,0-.16ZM546.16,693.94s.02,0,0,0h0ZM546.13,693.94s-.05,0-.06,0c-.04,0-.09-.02-.13-.03-.08-.02-.17-.04-.25-.07l-3.22-3.22s.05,0,.08,0c.29-.03.58-.05.87-.08.57-.04,1.14-.07,1.71-.09,1.15-.03,2.31-.03,3.46-.02.35,0,.69,0,1.04,0v3.53c-.61-.12-1.26-.09-1.87-.05-.38.02-.76.06-1.15.05-.16,0-.32-.01-.48-.03ZM505.84,653.98c-.02-2.47-.16-4.93-.24-7.4-.01-.46-.03-.93-.04-1.39h4.14s0,.04.01.06c0,.05.02.11.03.16,0,.03.02.07.02.11,0,0,0,.02,0,.04,0,.03,0,.05.01.08,0,.06.01.12.02.19.01.12.02.24.03.35.02.24.04.48.05.72.04.99.02,1.98-.02,2.97-.04.98-.09,1.97-.11,2.95-.02,1.01.05,2.01.06,3.02,0,.7,0,1.39-.02,2.08l-3.94-3.94ZM504.61,652.74l-3.53-3.53c.01-1.34.17-2.7-.12-4.03h3.39c.05,2.52.2,5.03.26,7.55ZM510.95,653.15c.02-1.98.21-3.97.15-5.95-.02-.67-.07-1.34-.17-2h3.83c.03.13.05.26.07.4,0,.03,0,.07.01.1,0,0,0-.02,0-.02,0,0,0,0,0,0,0,.06.01.12.02.17.02.15.03.31.03.46.01.28.02.57.02.85,0,1.14-.13,2.27-.13,3.41,0,.68.06,1.36.09,2.04.04.77.08,1.54.1,2.31.02.78.03,1.56.01,2.34-.02.77-.05,1.54-.02,2.31.05,1.25.16,2.5.2,3.76l-4.2-4.2c0-.95.04-1.9.04-2.86,0-1.04-.07-2.07-.06-3.1ZM516.2,660.09c-.04-.79-.06-1.58-.02-2.37.03-.78.04-1.55.02-2.33-.02-.79-.05-1.57-.09-2.35-.04-.73-.09-1.47-.11-2.2-.03-1.12.1-2.23.12-3.35.02-.7,0-1.4-.1-2.09,0-.07-.02-.14-.03-.21h3.48c.1.33.18.67.24,1.01.01.08.03.16.04.24,0,.04.01.09.02.13,0,.01,0,.05.01.08,0,.03,0,.07.01.08,0,.04.01.09.02.13.01.09.02.18.03.27.04.37.06.75.07,1.12.05,1.44-.02,2.87.01,4.31.02.87.08,1.73.12,2.6.04.93.08,1.86.11,2.79.05,1.88.03,3.76.07,5.63.03,1.62.07,3.23.09,4.85l-3.92-3.92c.03-1.48-.11-2.96-.19-4.44ZM521.53,669.67c0-1.8-.05-3.6-.08-5.4-.02-.95-.04-1.9-.05-2.86,0-.94,0-1.89-.02-2.83-.04-1.88-.14-3.75-.23-5.62-.07-1.43.02-2.86-.02-4.28-.02-.78-.07-1.56-.18-2.33-.05-.39-.13-.77-.23-1.15h4c.01.09.03.18.04.26,0,.05.01.1.02.14-.02-.16,0,0,0,.03.03.21.05.42.08.62.09.8.15,1.61.19,2.42.08,1.6.09,3.21.08,4.82,0,1.62-.01,3.24.04,4.86.05,1.48.12,2.96.17,4.44.05,1.43.1,2.86.11,4.29l-3.26,3.26-.67-.67ZM534.54,645.19s0,.04,0,.07c0,.12.01.24.02.36.01.46-.01.93-.04,1.39-.02.47-.03.94-.01,1.41.02.59.08,1.17.13,1.76.05.58.11,1.15.13,1.73.02.58,0,1.16-.03,1.74-.03.58-.06,1.16-.09,1.75-.02.58-.02,1.17-.02,1.75v.75l-3.61,3.61c-.01-.14-.02-.28-.03-.42-.03-.63,0-1.25.02-1.88.03-.63.08-1.26.11-1.89.03-.61.03-1.21,0-1.82-.05-1.45.03-2.89.08-4.34.02-.68.05-1.36.03-2.04-.01-.55-.06-1.1-.11-1.65-.06-.64-.12-1.27-.16-1.91,0-.12-.02-.24-.02-.37h3.58ZM543.62,648.16c.02.24.03.47.05.71l-3.1,3.1c0-.06,0-.12,0-.18,0-.66.04-1.32.09-1.97.09-1.35.21-2.71-.02-4.05-.03-.2-.08-.39-.13-.58h2.96c-.04.99.09,2,.17,2.97ZM547.38,670.98c-1.21-.07-2.43-.05-3.64-.13-2.08-.12-4.16-.19-6.24-.23-2.08-.04-4.16-.05-6.24-.04-1.58,0-3.16,0-4.74.01l4.23-4.23c2.33-.02,4.67.1,7,.25,1.38.09,2.77.19,4.15.28,1.33.09,2.66.18,4,.18.71,0,1.42-.01,2.13.02.35.01.71.04,1.06.08.01,0,.15.02.05,0-.1-.01.07.01.09.01.08.01.17.03.25.04.05,0,.11.02.16.03v3.98c-.08-.02-.17-.03-.25-.05-.66-.12-1.33-.17-2-.21ZM541.45,655.65c.56.17,1.14.25,1.72.31.73.07,1.46.08,2.19.08.7,0,1.39,0,2.09.04.51.03,1.02.02,1.53.05.16,0,.32.02.49.04.03,0,.06,0,.09.01.02,0,.04,0,.06.01v4.3c-.33-.05-.67-.08-1-.1-.73-.04-1.45-.04-2.18-.11-2.33-.21-4.66-.26-7-.34-.73-.02-1.47-.05-2.2-.09l4.2-4.2ZM536.1,661c2.11.13,4.22.17,6.32.25,1.16.04,2.32.1,3.47.2.4.03.8.07,1.2.09.37.02.75.03,1.13.04.22,0,.44.02.66.04.1,0,.2.02.31.03.05,0,.1.01.15.02.03,0,.09.01.11.02.06,0,.12.02.18.03v4.32c-1.05-.18-2.13-.17-3.19-.17-1.33,0-2.65-.06-3.98-.14-2.79-.17-5.58-.4-8.38-.51-.71-.03-1.42-.05-2.13-.05l4.15-4.15ZM549.63,654.97c-.07,0-.14-.01-.2-.02-.56-.05-1.11-.05-1.67-.07-.64-.02-1.28-.05-1.92-.05-.75,0-1.51,0-2.26-.05-.21-.01-.42-.03-.62-.05-.04,0-.08,0-.12-.01,0,0,.01,0,.02,0-.01,0-.03,0-.04,0,0,0,0,0,0,0,0,0-.02,0-.02,0,0,0,0,0-.01,0-.1-.01-.19-.03-.29-.05-.01,0-.03,0-.04,0l3.02-3.02c1.38-.07,2.77-.26,4.15-.15v3.49ZM539.21,645.19s0,.02.01.03c0,.02.01.04.02.04.1.28.17.56.22.86,0,.03,0,.06.01.09,0,.08.02.16.03.24.02.17.03.33.03.5.01.35.01.7,0,1.04-.04,1.42-.24,2.84-.18,4.26.01.28.04.57.08.85l-3.58,3.58c0-.3,0-.6,0-.9.01-.58.05-1.17.08-1.75.03-.58.07-1.16.06-1.74,0-.59-.05-1.17-.1-1.76-.1-1.08-.21-2.16-.17-3.25.02-.52.06-1.04.05-1.56,0-.18,0-.36-.02-.54h3.46ZM529.76,645.36c.03.57.09,1.14.14,1.72.05.56.11,1.13.13,1.69.03.63.01,1.27,0,1.9-.04,1.45-.13,2.89-.11,4.34,0,.64.04,1.27.02,1.91-.02.63-.07,1.27-.11,1.9-.07,1.24-.13,2.53.13,3.75l-3.31,3.31c-.04-2.34-.17-4.68-.25-7.03-.12-3.23.02-6.47-.12-9.7-.06-1.33-.16-2.65-.35-3.96h3.82c0,.06,0,.11,0,.17ZM525.3,671.8c1.71,0,3.42-.01,5.13-.02,2.06,0,4.13,0,6.19.03,2.06.03,4.12.09,6.17.2.69.04,1.38.08,2.07.1.62.02,1.24.02,1.86.05.64.02,1.29.06,1.93.13.03,0,.06,0,.1.01.07,0,.14.02.2.03.13.02.26.05.39.07.09.02.18.04.27.07v5.2c-2.59-.03-5.18-.19-7.77-.38-2.83-.22-5.65-.48-8.48-.66-1.6-.1-3.21-.18-4.81-.2-.08,0-.16.02-.23.05l-3.86-3.86.82-.82ZM537.14,678.12c2.82.23,5.64.48,8.47.63,1.34.07,2.68.12,4.02.13v4.78c-1.7,0-3.4.03-5.1.03-2.16,0-4.32-.03-6.48-.15-.96-.05-1.92-.13-2.87-.23l-5.65-5.65c2.54.07,5.07.25,7.61.46ZM540.88,684.86c2.14.05,4.29.04,6.43.03.77,0,1.55-.01,2.32-.01v4.34c-2.02-.01-4.04-.05-6.06.08-.7.05-1.4.12-2.09.22-.02,0-.05.01-.07.02l-4.9-4.9c1.45.12,2.91.18,4.37.21ZM549.63,650.27c-.28-.02-.56-.03-.84-.03-.67,0-1.34.04-2.01.09l2.85-2.85v2.79ZM544.79,647.74c-.08-.85-.16-1.7-.13-2.55h2.68l-2.55,2.55ZM499.73,645.19c0,.05,0,.11.02.16.04.16.08.33.1.49,0,0,0,.03,0,.05,0,.02,0,.06.01.08.01.09.02.18.03.27.03.35.03.7.03,1.05,0,.25-.01.51-.02.76l-2.85-2.85h2.68ZM494.77,647.48l25.15,25.15-25.15,25.15v-50.29ZM497.06,700.05l25.15-25.15,25.15,25.15h-50.29ZM547.03,695.17c.22-.01.44-.03.65-.04.39-.03.78-.05,1.16-.04.1,0,.2,0,.3.02.04,0,.22.03.02,0,.04,0,.07.01.11.02.12.02.24.05.36.09v2.55l-2.6-2.6Z"/>
      <path class="cls-3" d="M397.44,515.61s0-.05,0-.07c0-.03,0-.06-.01-.09,0-.03-.01-.05-.02-.08,0-.02-.01-.05-.02-.07,0-.03-.02-.05-.03-.08,0-.02-.02-.05-.03-.07,0-.02-.02-.05-.03-.07-.01-.02-.02-.05-.04-.07-.01-.02-.03-.04-.04-.07-.01-.02-.03-.05-.04-.07-.02-.03-.04-.05-.05-.07-.01-.02-.03-.04-.04-.05-.07-.08-.14-.16-.23-.23-.02-.01-.03-.03-.05-.04-.02-.02-.05-.04-.07-.05-.02-.01-.04-.03-.07-.04-.02-.01-.05-.03-.07-.04-.02-.01-.05-.02-.07-.03-.02-.01-.05-.02-.07-.03-.02,0-.05-.02-.07-.03-.03,0-.05-.02-.08-.03-.02,0-.05-.01-.07-.02-.03,0-.06-.01-.08-.02-.03,0-.05,0-.08-.01-.03,0-.05,0-.08-.01-.05,0-.09,0-.14,0,0,0-.01,0-.02,0h-58.09s-.01,0-.02,0c-.05,0-.09,0-.14,0-.03,0-.05,0-.08.01-.03,0-.05,0-.08.01-.03,0-.06.01-.08.02-.02,0-.05.01-.07.02-.03,0-.05.02-.08.03-.02,0-.05.02-.07.03-.03.01-.05.02-.07.03-.02.01-.05.02-.07.03-.02.01-.05.03-.07.04-.02.01-.04.03-.07.04-.03.02-.05.04-.07.06-.02.01-.04.03-.05.04-.08.07-.16.14-.23.23-.01.02-.03.04-.04.05-.02.02-.04.05-.05.07-.02.02-.03.05-.04.07-.01.02-.03.04-.04.07-.01.02-.02.05-.04.07-.01.02-.02.05-.03.07,0,.02-.02.05-.03.07,0,.03-.02.05-.03.08,0,.02-.01.05-.02.07,0,.03-.01.05-.02.08,0,.03,0,.06-.01.09,0,.02,0,.05,0,.07,0,.05,0,.11,0,.16v58.09c0,.05,0,.11,0,.16,0,.02,0,.05,0,.07,0,.03,0,.06.01.09,0,.03.01.05.02.08,0,.02.01.05.02.07,0,.03.02.05.03.08,0,.02.02.05.03.07,0,.02.02.05.03.07.01.02.02.05.04.07.01.02.03.04.04.07.01.02.03.05.04.07.02.03.04.05.05.07.01.02.03.04.04.05.07.08.14.16.23.23.02.01.04.03.05.04.02.02.05.04.07.05.02.01.04.03.07.04.02.01.05.03.07.04.02.01.05.02.07.03.02.01.05.02.07.03.02,0,.05.02.07.03.03,0,.05.02.08.03.02,0,.05.01.07.02.03,0,.05.01.08.02.03,0,.06,0,.08.01.02,0,.05,0,.07.01.05,0,.11,0,.16,0h58.09c.05,0,.11,0,.16,0,.02,0,.05,0,.07-.01.03,0,.06,0,.08-.01.03,0,.05-.01.08-.02.02,0,.05-.01.07-.02.03,0,.05-.02.08-.03.02,0,.05-.02.07-.03.02-.01.05-.02.07-.03.02-.01.05-.02.07-.03.02-.01.05-.03.07-.04.02-.01.05-.03.07-.04.03-.02.05-.04.07-.05.02-.01.04-.03.05-.04.08-.07.16-.14.23-.23.01-.02.03-.04.04-.05.02-.02.04-.05.05-.07.02-.02.03-.05.04-.07.01-.02.03-.04.04-.07.01-.02.02-.05.04-.07.01-.02.02-.05.03-.07,0-.02.02-.05.03-.07,0-.03.02-.05.03-.08,0-.02.01-.05.02-.07,0-.03.01-.05.02-.08,0-.03,0-.06.01-.09,0-.02,0-.05,0-.07,0-.05,0-.11,0-.16v-58.09c0-.05,0-.11,0-.16ZM390.75,566.13s.02,0,0,0h0ZM390.72,566.13s-.05,0-.06,0c-.04,0-.09-.02-.13-.03-.08-.02-.17-.04-.25-.07l-3.22-3.22s.05,0,.08,0c.29-.03.58-.05.87-.08.57-.04,1.14-.07,1.71-.09,1.15-.03,2.31-.03,3.46-.02.35,0,.69,0,1.04,0v3.53c-.61-.12-1.26-.09-1.87-.05-.38.02-.76.06-1.15.05-.16,0-.32-.01-.48-.03ZM350.43,526.17c-.02-2.47-.16-4.93-.24-7.4-.01-.46-.03-.93-.04-1.39h4.14s0,.04.01.06c0,.05.02.11.03.16,0,.03.02.07.02.11,0,0,0,.02,0,.04,0,.03,0,.05.01.08,0,.06.01.12.02.19.01.12.02.24.03.35.02.24.04.48.05.72.04.99.02,1.98-.02,2.97-.04.98-.09,1.97-.11,2.95-.02,1.01.05,2.01.06,3.02,0,.7,0,1.39-.02,2.08l-3.94-3.94ZM349.2,524.94l-3.53-3.53c.01-1.34.17-2.7-.12-4.03h3.39c.05,2.52.2,5.03.26,7.55ZM355.53,525.34c.02-1.98.21-3.97.15-5.95-.02-.67-.07-1.34-.17-2h3.83c.03.13.05.26.07.4,0,.03,0,.07.01.1,0,0,0-.02,0-.02,0,0,0,0,0,0,0,.06.01.12.02.17.02.15.03.31.03.46.01.28.02.57.02.85,0,1.14-.13,2.27-.13,3.41,0,.68.06,1.36.09,2.04.04.77.08,1.54.1,2.31.02.78.03,1.56.01,2.34-.02.77-.05,1.54-.02,2.31.05,1.25.16,2.5.2,3.76l-4.2-4.2c0-.95.04-1.9.04-2.86,0-1.04-.07-2.07-.06-3.1ZM360.79,532.28c-.04-.79-.06-1.58-.02-2.37.03-.78.04-1.55.02-2.33-.02-.79-.05-1.57-.09-2.35-.04-.73-.09-1.47-.11-2.2-.03-1.12.1-2.23.12-3.35.02-.7,0-1.4-.1-2.09,0-.07-.02-.14-.03-.21h3.48c.1.33.18.67.24,1.01.01.08.03.16.04.24,0,.04.01.09.02.13,0,.01,0,.05.01.08,0,.03,0,.07.01.08,0,.04.01.09.02.13.01.09.02.18.03.27.04.37.06.75.07,1.12.05,1.44-.02,2.87.01,4.31.02.87.08,1.73.12,2.6.04.93.08,1.86.11,2.79.05,1.88.03,3.76.07,5.63.03,1.62.07,3.23.09,4.85l-3.92-3.92c.03-1.48-.11-2.96-.19-4.44ZM366.12,541.86c0-1.8-.05-3.6-.08-5.4-.02-.95-.04-1.9-.05-2.86,0-.94,0-1.89-.02-2.83-.04-1.88-.14-3.75-.23-5.62-.07-1.43.02-2.86-.02-4.28-.02-.78-.07-1.56-.18-2.33-.05-.39-.13-.77-.23-1.15h4c.01.09.03.18.04.26,0,.05.01.1.02.14-.02-.16,0,0,0,.03.03.21.05.42.08.62.09.8.15,1.61.19,2.42.08,1.6.09,3.21.08,4.82,0,1.62-.01,3.24.04,4.86.05,1.48.12,2.96.17,4.44.05,1.43.1,2.86.11,4.29l-3.26,3.26-.67-.67ZM379.13,517.38s0,.04,0,.07c0,.12.01.24.02.36.01.46-.01.93-.04,1.39-.02.47-.03.94-.01,1.41.02.59.08,1.17.13,1.76.05.58.11,1.15.13,1.73.02.58,0,1.16-.03,1.74-.03.58-.06,1.16-.09,1.75-.02.58-.02,1.17-.02,1.75v.75l-3.61,3.61c-.01-.14-.02-.28-.03-.42-.03-.63,0-1.25.02-1.88.03-.63.08-1.26.11-1.89.03-.61.03-1.21,0-1.82-.05-1.45.03-2.89.08-4.34.02-.68.05-1.36.03-2.04-.01-.55-.06-1.1-.11-1.65-.06-.64-.12-1.27-.16-1.91,0-.12-.02-.24-.02-.37h3.58ZM388.2,520.35c.02.24.03.47.05.71l-3.1,3.1c0-.06,0-.12,0-.18,0-.66.04-1.32.09-1.97.09-1.35.21-2.71-.02-4.05-.03-.2-.08-.39-.13-.58h2.96c-.04.99.09,2,.17,2.97ZM391.97,543.17c-1.21-.07-2.43-.05-3.64-.13-2.08-.12-4.16-.19-6.24-.23-2.08-.04-4.16-.05-6.24-.04-1.58,0-3.16,0-4.74.01l4.23-4.23c2.33-.02,4.67.1,7,.25,1.38.09,2.77.19,4.15.28,1.33.09,2.66.18,4,.18.71,0,1.42-.01,2.13.02.35.01.71.04,1.06.08.01,0,.15.02.05,0-.1-.01.07.01.09.01.08.01.17.03.25.04.05,0,.11.02.16.03v3.98c-.08-.02-.17-.03-.25-.05-.66-.12-1.33-.17-2-.21ZM386.04,527.84c.56.17,1.14.25,1.72.31.73.07,1.46.08,2.19.08.7,0,1.39,0,2.09.04.51.03,1.02.02,1.53.05.16,0,.32.02.49.04.03,0,.06,0,.09.01.02,0,.04,0,.06.01v4.3c-.33-.05-.67-.08-1-.1-.73-.04-1.45-.04-2.18-.11-2.33-.21-4.66-.26-7-.34-.73-.02-1.47-.05-2.2-.09l4.2-4.2ZM380.69,533.19c2.11.13,4.22.17,6.32.25,1.16.04,2.32.1,3.47.2.4.03.8.07,1.2.09.37.02.75.03,1.13.04.22,0,.44.02.66.04.1,0,.2.02.31.03.05,0,.1.01.15.02.03,0,.09.01.11.02.06,0,.12.02.18.03v4.32c-1.05-.18-2.13-.17-3.19-.17-1.33,0-2.65-.06-3.98-.14-2.79-.17-5.58-.4-8.38-.51-.71-.03-1.42-.05-2.13-.05l4.15-4.15ZM394.22,527.16c-.07,0-.14-.01-.2-.02-.56-.05-1.11-.05-1.67-.07-.64-.02-1.28-.05-1.92-.05-.75,0-1.51,0-2.26-.05-.21-.01-.42-.03-.62-.05-.04,0-.08,0-.12-.01,0,0,.01,0,.02,0-.01,0-.03,0-.04,0,0,0,0,0,0,0,0,0-.02,0-.02,0,0,0,0,0-.01,0-.1-.01-.19-.03-.29-.05-.01,0-.03,0-.04,0l3.02-3.02c1.38-.07,2.77-.26,4.15-.15v3.49ZM383.8,517.38s0,.02.01.03c0,.02.01.04.02.04.1.28.17.56.22.86,0,.03,0,.06.01.09,0,.08.02.16.03.24.02.17.03.33.03.5.01.35.01.7,0,1.04-.04,1.42-.24,2.84-.18,4.26.01.28.04.57.08.85l-3.58,3.58c0-.3,0-.6,0-.9.01-.58.05-1.17.08-1.75.03-.58.07-1.16.06-1.74,0-.59-.05-1.17-.1-1.76-.1-1.08-.21-2.16-.17-3.25.02-.52.06-1.04.05-1.56,0-.18,0-.36-.02-.54h3.46ZM374.35,517.55c.03.57.09,1.14.14,1.72.05.56.11,1.13.13,1.69.03.63.01,1.27,0,1.9-.04,1.45-.13,2.89-.11,4.34,0,.64.04,1.27.02,1.91-.02.63-.07,1.27-.11,1.9-.07,1.24-.13,2.53.13,3.75l-3.31,3.31c-.04-2.34-.17-4.68-.25-7.03-.12-3.23.02-6.47-.12-9.7-.06-1.33-.16-2.65-.35-3.96h3.82c0,.06,0,.11,0,.17ZM369.89,543.99c1.71,0,3.42-.01,5.13-.02,2.06,0,4.13,0,6.19.03,2.06.03,4.12.09,6.17.2.69.04,1.38.08,2.07.1.62.02,1.24.02,1.86.05.64.02,1.29.06,1.93.13.03,0,.06,0,.1.01.07,0,.14.02.2.03.13.02.26.05.39.07.09.02.18.04.27.07v5.2c-2.59-.03-5.18-.19-7.77-.38-2.83-.22-5.65-.48-8.48-.66-1.6-.1-3.21-.18-4.81-.2-.08,0-.16.02-.23.05l-3.86-3.86.82-.82ZM381.72,550.31c2.82.23,5.64.48,8.47.63,1.34.07,2.68.12,4.02.13v4.78c-1.7,0-3.4.03-5.1.03-2.16,0-4.32-.03-6.48-.15-.96-.05-1.92-.13-2.87-.23l-5.65-5.65c2.54.07,5.07.25,7.61.46ZM385.47,557.05c2.14.05,4.29.04,6.43.03.77,0,1.55-.01,2.32-.01v4.34c-2.02-.01-4.04-.05-6.06.08-.7.05-1.4.12-2.09.22-.02,0-.05.01-.07.02l-4.9-4.9c1.45.12,2.91.18,4.37.21ZM394.22,522.46c-.28-.02-.56-.03-.84-.03-.67,0-1.34.04-2.01.09l2.85-2.85v2.79ZM389.38,519.93c-.08-.85-.16-1.7-.13-2.55h2.68l-2.55,2.55ZM344.32,517.38c0,.05,0,.11.02.16.04.16.08.33.1.49,0,0,0,.03,0,.05,0,.02,0,.06.01.08.01.09.02.18.03.27.03.35.03.7.03,1.05,0,.25-.01.51-.02.76l-2.85-2.85h2.68ZM339.36,519.67l25.15,25.15-25.15,25.15v-50.29ZM341.64,572.24l25.15-25.15,25.15,25.15h-50.29ZM391.62,567.36c.22-.01.44-.03.65-.04.39-.03.78-.05,1.16-.04.1,0,.2,0,.3.02.04,0,.22.03.02,0,.04,0,.07.01.11.02.12.02.24.05.36.09v2.55l-2.6-2.6Z"/>
    </g>
    <path class="cls-4" d="M532.47,823.24c-2.23,0-4.42-.74-6.2-2.15-.09-.07-8.94-7.11-12.92-11.09-.17-.16-1.47-1.34-7.57-5.94-8.92-6.73-21.82-16.03-23.26-17.07-.03-.02-.12-.09-.15-.11-4.15-3.07-5.29-8.79-2.61-13.21,4.14-6.85,5.64-7.8,19.98-16.89,10.51-6.65,15.13-24.21,19.2-39.71l.03-.11s.25-4.04-10.08-13.54c-7.8-7.18-17.76-13.97-25.03-18.93-4.09-2.79-7.05-4.81-8.87-6.38-4.26-3.69-18.98-17.23-29.47-36.48-6.01-11.01-28.06-14.28-37.48-15.68-14.61-2.17-26.05-19.18-37.11-35.63-1.98-2.94-3.85-5.73-5.59-8.18-9.55-13.45-39.37-41.4-57.97-52.64-20.2-12.21-22.23-19.38-22.3-33.99,0-1.44-.01-3.01-.07-4.74-.24-7.57,1.26-14.03,2.71-20.27,1.71-7.38,3.33-14.36,2.01-23.39,0-.04-.68-3.77-12.42-10.32-8.9-4.96-20.62-9.6-30.96-13.7-10.52-4.17-19.61-7.76-25.47-11.45-17.25-10.84-52.27-38.46-63.14-50.81-5.39-6.12-15.79-22.23-31.05-46.11-9.35-14.64-20.97-32.82-24.04-36.2-3.55-2.85-18.19-6.88-43.53-11.97-4.43-.89-7.36-1.48-9.13-1.95-4.61-1.23-15.27-5.89-25.15-11.55C5.45,241.96,1.81,234.24.76,229.39c-2.99-13.75,3.81-27.39,4.59-28.9.06-.11.12-.22.18-.33,14.61-25.67,35.95-65.88,37.65-74.94,1.13-6.04-1.96-13.38-5.23-21.15-2.59-6.14-5.26-12.49-6.36-19.28-.89-5.5-.32-15.44,14.76-38.13,6.9-10.37,13.95-19.11,15.33-20.8.97-1.98,1.02-8.78.1-14.15-.55-3.23.5-6.53,2.84-8.83s5.64-3.31,8.86-2.71l14.87,2.79c.92.17,1.82.48,2.65.9,7.38,3.69,22.4,9.12,31.27,7.91.29-.04.58-.09.87-.14.07-.01.14-.03.21-.04,2.21-.39,3.46-.87,4.09-1.18,1.11-2.53,3.24-4.54,5.95-5.45,3.8-1.28,8-.18,10.67,2.81.04.05,4.22,4.73,8.33,9.21.2.22.4.45.58.69,1.46,1.92,2.73,3.29,3.99,4.32l.06.05,15.91,12.55c4.77-3.22,8.14-7.23,10.58-12.54,1.13-2.46,3.21-4.36,5.77-5.26,2.55-.9,5.37-.72,7.79.49,3.26,1.63,10.38,10.32,11.18,11.31,6.39,7.87,10.8,15.39,13.09,22.37.1.29.18.59.25.9,1.43,6.26,1.72,11.71.86,16.18-.04.21-.09.42-.14.62l-.02.08c-.08.36-.21.94-.43,1.63-.06.2-.13.4-.2.59-.44,1.21-.93,2.18-1.3,2.89-.08.16-.2.39-.29.54-3.34,5.77-9.22,10.05-15.45,14.59l-1.98,1.44c-.19.14-.38.27-.58.4-6.62,4.18-11.09,7.29-12.54,12.02-.06.29-.11.53-.17.77-.08.31-.17.62-.28.92-.67,1.89-.79,3.76-.37,5.91.06.32.11.65.14.98.29,3.15.96,6.29,1.62,9.23.05.24.1.48.13.72,4.08,27.62-1.42,35.85-13.73,42.13-.87.44-1.69.86-2.43,1.29-.75.44-1.56.78-2.41,1.02-4.2,1.16-8.47,1.57-12.22,1.94-1.54.15-3,.29-4.3.47-.31.04-.61.07-.92.08-.88.04-1.47.11-1.84.17,0,0,0,.01,0,.02,0,.03-.48,2.73,4.59,10.45,3.9,5.94,9.27,12.14,14.01,17.61,2.88,3.33,5.37,6.2,7.27,8.71.16.21.31.43.46.66,1.48,2.33,2.6,4.33,3.5,6.29,2.48,5.36,3.83,11.39,4.14,18.43,0,.11,0,.22,0,.34.03,3-.09,6.11-.23,9.41-.08,1.84-.15,3.77-.21,5.82,0,.08,0,.17,0,.25-.15,2.78-.45,8.58.81,10.59.33.53.75,1.18,1.25,1.92.1.16.2.32.3.48.69,1.18,1.57,2.37,2.58,3.76l1.67,2.32s.05.07.08.11l.14.2c.08.12.2.29.35.48.03.04.06.08.09.12,11.69,16.25,30.04,39.25,46.49,55.09.05.05.11.1.16.16.15.15.28.28.39.39.04.04.1.1.16.16.04.04.08.08.13.12l1.71,1.63c2.08,2.01,4.92,4.76,8.28,7.15.12.09.25.18.37.28l.48.38c.19.15.38.31.58.45,4.94,3.76,8.41,4.02,10.58,3.88.25-.02.5-.02.75-.02.07,0,.13,0,.2,0,4.69,0,9.34-2.3,14.21-7.03.31-.3.64-.58.99-.84,1.75-1.31,3.55-2.72,5.3-4.08,2.91-2.28,5.93-4.64,8.98-6.74.25-.17.5-.33.76-.47,8.41-4.72,17.39-7.32,26.68-7.73.12,0,.24,0,.35,0,3.71-.03,7.5.17,11.22.59.11.01.22.03.33.04,11.62,1.71,21.42,6.28,27.91,9.31l.93.43c.54.25,1.05.55,1.54.89,7.69,5.41,12.84,12.39,15.3,20.74,1.04,3.53,1.63,7.18,1.76,10.84,0,.15,0,.29,0,.44-.09,9.91-3.18,18.29-6.16,26.39-1.44,3.91-2.8,7.6-3.75,11.29-3.02,11.73-4.36,23.88-5.18,33.15-.17,1.93-.36,3.88-.56,5.86-1.29,13.05-2.62,26.54,2.07,37.13.27.62.55,1.2.83,1.78l.19.4c.04.09.09.19.13.29.01.03.02.05.04.08.05.1.09.19.14.28.17.35.34.69.51,1.03.31.62.6,1.2.91,1.77.02.04.05.08.07.13,5.77,10.79,12.52,16.77,22.95,25.33.04.03.07.06.1.09,2.64,2.23,5.2,4.3,7.46,6.12,1.05.85,2.03,1.64,2.95,2.39,4.08,3.37,7.57,7.2,10.7,11.74.06.08.11.16.17.25,4.12,6.37,6.98,13.78,11.31,24.99l1.77,4.57c.04.12.09.24.13.36,2.51,7.26,5.12,14.21,9.49,19.37,2.46,2.9,4.06,4.16,4.98,4.71.31.18.61.39.9.6,1.24-.07,3.94-.97,5.78-1.58,1.66-.55,3.38-1.13,5.23-1.61.33-.09.67-.16,1.01-.21,2.85-.44,5.63-.54,8.49-.31,4.71.39,9.68,2.32,14.79,5.73,1.24.83,2.48,1.74,3.71,2.71.05.04.11.08.15.12,8.11,6.5,16.23,16.81,20.4,22.44,4.29.39,11.2,1.14,19.83,2.47.2.03.4.07.59.11,7.88,1.71,14.86,4.06,20.74,7,2.81,1.4,5.57,3.17,8.21,5.23.23.18.46.37.67.57,1.19,1.12,2.28,2.08,3.41,3.04.2.17.39.34.57.52,6,5.88,11.41,13.53,17.54,24.79.82,1.51,1.64,3.06,2.46,4.62,1.68,3.23,3.32,6.47,5.05,9.9,1.94,3.84,3.94,7.81,6.02,11.77,2.79,5.31,6.11,9.08,9.87,11.21.45.25.87.54,1.27.86.95.75,2.95,1.2,5.37,1.2.12,0,.24,0,.36,0,.09,0,.17,0,.26,0,1.71.03,2.95-.21,3.29-.3.21-.08.19-.06.49-.13.23-.06,1.44-.36,3.05-.61,9.9-1.51,14.49,2.41,16.59,5.96,3.08,5.2,5.4,12.81,1.61,33.07-3.12,16.63-7.63,20.87-16.72,28.17-2.53,2.03-5.39,4.33-8.92,7.59-5.81,5.36-8.07,9.19-10.68,13.63-3.36,5.7-7.18,12.17-17.65,19.91-2.27,1.68-4.99,3.04-8.13,4.63-8.05,4.05-19.08,9.61-25.47,22.62-1.33,2.71-3.82,4.68-6.76,5.34-.73.17-1.47.25-2.21.25ZM503.94,777.82c4.42,3.22,9.56,7.01,13.89,10.27,6.81,5.13,8.67,6.77,9.67,7.77.66.66,1.57,1.49,2.6,2.39,9.05-11.64,20.42-17.36,27.83-21.09,2.13-1.07,4.34-2.18,5.24-2.85,7.2-5.32,9.34-8.95,12.31-13.98,2.84-4.81,6.37-10.8,14.34-18.16,4.04-3.73,7.33-6.37,9.97-8.49,6.81-5.47,7.69-6.17,9.58-16.26,1.29-6.86,1.7-11.74,1.61-14.93-1.73.35-4.27.7-7.31.63-6.82.06-12.87-1.68-17.42-5.02-6.87-4.07-12.61-10.44-17.08-18.93-2.16-4.1-4.2-8.15-6.18-12.07-1.7-3.37-3.31-6.55-4.93-9.66-.76-1.46-1.53-2.9-2.3-4.32-5.04-9.26-9.29-15.4-13.72-19.82-1.18-1-2.35-2.04-3.56-3.16-1.5-1.15-2.97-2.08-4.5-2.84-4.32-2.16-9.61-3.93-15.74-5.28-13.4-2.06-22.4-2.61-22.49-2.61-3.09-.18-5.92-1.79-7.67-4.34-.1-.14-10.16-14.78-19.15-22.01-.04-.03-.08-.07-.12-.09-.79-.63-1.62-1.23-2.42-1.77-3.06-2.04-4.75-2.38-5.34-2.43-1.11-.09-2.16-.07-3.25.07-1.09.31-2.25.7-3.48,1.11-6.23,2.08-15.56,5.19-23.88-1.21-3.07-1.95-6.14-4.76-9.36-8.57-6.55-7.74-10.05-16.87-13.06-25.58l-1.71-4.42c-3.85-9.97-6.4-16.58-9.37-21.21-2.05-2.95-4.29-5.41-6.85-7.52-.84-.69-1.8-1.46-2.82-2.28-2.32-1.88-4.95-4-7.74-6.35-11.58-9.5-20.35-17.31-27.82-31.25-.45-.82-.87-1.64-1.27-2.47-.2-.4-.42-.85-.65-1.31-.14-.27-.26-.51-.36-.75-.04-.08-.07-.17-.11-.26l-.04-.09c-.35-.74-.7-1.48-1.05-2.27-6.83-15.41-5.16-32.3-3.69-47.2.19-1.91.38-3.8.54-5.67.89-10.03,2.35-23.23,5.74-36.37,1.21-4.68,2.81-9.02,4.36-13.22,2.48-6.72,4.82-13.07,4.93-19.42-.09-1.93-.4-3.8-.96-5.68-1.1-3.73-3.37-6.86-6.95-9.54l-.08-.04c-5.73-2.67-13.56-6.32-22.22-7.62-2.81-.31-5.65-.45-8.44-.45-6.01.29-11.65,1.92-17.21,4.97-2.42,1.68-4.93,3.65-7.59,5.73-1.67,1.31-3.4,2.66-5.16,3.99-8.54,8.11-17.83,12.22-27.65,12.22h-.11c-8.17.42-16.09-2.27-23.55-7.95-.29-.22-.59-.46-.89-.7l-.22-.17c-4.49-3.22-8.03-6.64-10.38-8.91l-1.51-1.44h0c-.1-.09-.23-.22-.34-.32-.25-.23-.49-.48-.76-.75-21.82-21.05-42.76-49.39-48.73-57.68-.26-.35-.48-.66-.67-.92l-.06-.09h0s-1.54-2.14-1.54-2.14c-1.17-1.6-2.39-3.26-3.55-5.2-.55-.83-1.03-1.57-1.41-2.18-4.22-6.75-4.21-14.62-3.83-22.11.06-2.09.14-4.07.21-5.96.13-3.09.24-5.78.22-8.22-.21-4.37-.94-7.8-2.31-10.76-.47-1.03-1.13-2.2-2-3.58-1.51-1.96-3.79-4.59-6.2-7.37-11.57-13.36-25.95-29.96-23.13-44.87.54-3.8,2.14-7.18,4.64-9.82,4.67-5.34,10.98-6.38,15.52-6.62,1.54-.2,3.1-.35,4.61-.5,2.69-.26,5.45-.53,7.8-1.06.76-.41,1.47-.77,2.13-1.11,3.09-1.57,3.16-1.75,3.41-2.38.65-1.64,1.47-6.25-.33-18.65-.71-3.2-1.48-6.9-1.88-10.89-.94-5.23-.59-10.36,1.03-15.25.07-.34.15-.65.24-.97,3.53-12.36,13.47-18.77,20.85-23.43.59-.43,1.17-.86,1.76-1.28,3.79-2.76,8.49-6.18,9.84-8.31.04-.08.08-.15.11-.21.01-.07.03-.13.04-.2.12-.78.29-3.01-.64-7.29-1.67-4.77-5.01-9.87-8.35-14.16-2.8,3.21-6.04,6.05-9.74,8.54-1.31,1.35-2.52,2.59-3.54,3.62-3.58,3.62-9.31,3.98-13.31.82l-22.77-17.97s0,0-.01,0c-.08-.06-.18-.15-.27-.22-2.37-1.95-4.56-4.25-6.86-7.23-.5-.55-1-1.09-1.49-1.63-2.4,1.13-5.34,2.08-8.95,2.73-.65.13-1.3.24-1.97.33-16.09,2.18-35.97-6.54-41.61-9.22l-.94-.18c-.28,5.61-1.52,11.63-4.92,15.94-.05.06-.09.12-.14.18-14.13,17.14-26.52,37.8-26,43.34.71,4.38,2.81,9.37,5.04,14.66,4.08,9.68,8.7,20.65,6.46,32.6-2.91,15.53-33.38,69.64-39.81,80.93-1.19,2.4-3.84,9.41-2.8,14.96,3.23,5.76,27.35,18.5,34.9,20.52,1.16.31,4.44.97,7.91,1.67,29.86,6,47.32,10.61,54.05,17.77,3.99,4.23,12.64,17.67,26.42,39.24,10.89,17.04,24.44,38.24,29.22,43.67,9.46,10.75,43.1,37.24,58.77,47.09,4.3,2.71,12.99,6.15,22.19,9.79,26.09,10.33,53.07,21.02,55.8,39.71,1.87,12.77-.35,22.35-2.32,30.8-1.26,5.45-2.36,10.16-2.2,15.12.06,1.96.07,3.72.08,5.27.02,4.77.1,6.55.84,7.81,1.85,3.14,9.35,7.67,11.81,9.16,21.36,12.92,53.01,42.79,63.94,58.18,1.89,2.66,3.83,5.54,5.88,8.6,5.71,8.49,17.58,26.14,23.45,27.01,13.41,1.99,41.33,6.12,52.11,25.88,7.07,12.95,17.55,24.48,25.01,30.94.94.82,4.04,2.93,7.04,4.97,24.63,16.8,48.25,34.81,43.18,54.08l-.03.11c-5.01,19.06-10.7,40.65-27.84,51.51-2.75,1.74-4.86,3.08-6.5,4.14ZM488.31,778.85h0,0ZM233.95,329.55l-6.86,7.28.08.07,6.78-7.35ZM152.88,167.58v.03h0v-.03ZM133.11,164.61s0,.01,0,.02c0,0,0-.01,0-.02ZM126.64,13.65s0,.01,0,.02c0,0,0-.01,0-.02ZM126.64,13.63s0,0,0,.01c0,0,0,0,0-.01Z"/>
  </g>
</svg>