<?xml version="1.0" encoding="UTF-8"?>
<svg id="Calque_2" data-name="Calque 2" xmlns="http://www.w3.org/2000/svg" xmlns:xlink="http://www.w3.org/1999/xlink" viewBox="0 0 634.19 503.01">
  <defs>
    <style>
      .cls-1 {
        fill: none;
      }

      .cls-2 {
        fill: #567d55;
      }

      .cls-3 {
        fill: #a8be9b;
      }

      .cls-4 {
        fill: #fff;
      }

      .cls-5 {
        clip-path: url(#clippath);
      }
    </style>
    <clipPath id="clippath">
      <path id="H-2" data-name="H" class="cls-1" d="M552.04,26.08c-11.24-6.64-17.1-16.07-17.11-16.08,0,0,0,0,0,0,0,0-12.72,4.94-20.62,11.52-7.89,6.58-13.16,22.37-30.26,34.95-17.1,12.58-30.26-3.37-55.26,0-25,3.37-44.74,21.63-60.52,46.63-15.79,25-48.68,36.84-48.68,36.84,0,0-38.16,22.37-57.89,32.89-19.74,10.53-51.31,13.16-76.31,11.84-25-1.32-38.16-14.47-55.26-19.74-17.1-5.26-65.79-11.84-82.89,2.63-17.1,14.47-48.68,27.63-32.89,69.47,15.79,41.84,59.21,56.84,98.68,76.57,39.47,19.74,35.53,6.58,56.58,43.42,21.05,36.84,36.84,46.05,72.37,46.05s35.52-17.1,55.26-30.26c19.74-13.16,23.68,27.63,52.63,40.79,28.95,13.16,51.31-38.16,67.1-26.31,33.9,25.42,9.21,39.47,17.1,75,7.89,35.52,46.05,28.95,67.1,22.14,21.05-6.81,34.21,14.7,51.31,6.81,17.1-7.89,5.26-25,10.53-38.16,5.26-13.16,19.74-11.84,35.53-31.58,15.79-19.74-6.58-39.47-6.58-54.24s14.47-49.7,28.95-90.94c14.47-41.24-23.68-62.7-31.11-75.86-7.43-13.16-12.31-21.05-3.1-27.63,9.21-6.58-3.95-31.58-15.67-42.1-11.72-10.53-48.81-18.42-61.96-22.37-13.16-3.95-13.16-19.74-5.26-33.39,7.89-13.65,59.49-42.24,59.49-42.24,0,0,0,0-.07-.04-3.86-1.97-7.61-4.17-11.17-6.61h0Z"/>
    </clipPath>
  </defs>
  <g id="Header">
    <path id="H" class="cls-3" d="M552.04,26.08c-11.24-6.64-17.1-16.07-17.11-16.08,0,0,0,0,0,0,0,0-12.72,4.94-20.62,11.52-7.89,6.58-13.16,22.37-30.26,34.95-17.1,12.58-30.26-3.37-55.26,0-25,3.37-44.74,21.63-60.52,46.63-15.79,25-48.68,36.84-48.68,36.84,0,0-38.16,22.37-57.89,32.89-19.74,10.53-51.31,13.16-76.31,11.84-25-1.32-38.16-14.47-55.26-19.74-17.1-5.26-65.79-11.84-82.89,2.63-17.1,14.47-48.68,27.63-32.89,69.47,15.79,41.84,59.21,56.84,98.68,76.57,39.47,19.74,35.53,6.58,56.58,43.42,21.05,36.84,36.84,46.05,72.37,46.05s35.52-17.1,55.26-30.26c19.74-13.16,23.68,27.63,52.63,40.79,28.95,13.16,51.31-38.16,67.1-26.31,33.9,25.42,9.21,39.47,17.1,75,7.89,35.52,46.05,28.95,67.1,22.14,21.05-6.81,34.21,14.7,51.31,6.81,17.1-7.89,5.26-25,10.53-38.16,5.26-13.16,19.74-11.84,35.53-31.58,15.79-19.74-6.58-39.47-6.58-54.24s14.47-49.7,28.95-90.94c14.47-41.24-23.68-62.7-31.11-75.86-7.43-13.16-12.31-21.05-3.1-27.63,9.21-6.58-3.95-31.58-15.67-42.1-11.72-10.53-48.81-18.42-61.96-22.37-13.16-3.95-13.16-19.74-5.26-33.39,7.89-13.65,59.49-42.24,59.49-42.24,0,0,0,0-.07-.04-3.86-1.97-7.61-4.17-11.17-6.61h0Z"/>
    <g class="cls-5">
      <path class="cls-2" d="M65.78,266.85c5.43-1.08,10.94-1.42,16.46-1.57,5.51-.28,10.98.83,16.47,1.05,3.66.12,7.32-.08,10.98-.45,14.61-1.41,29.45-1.4,43.9,1.52,0,0-.01.39-.01.39-3.66.54-7.32.81-11,1.03-10.96.66-21.96.29-32.89-.8-3.65-.37-7.31-.57-10.97-.42-5.48.24-10.95,1.4-16.46,1.16-5.53-.11-10.99-.42-16.47-1.5v-.39h0Z"/>
      <path class="cls-2" d="M131.25,205.34c-.96-.96-1.11-4.51-2.69-2.98-2.9,2.81-6.62,10.81-7.45,11.71,3.94-30.41,3.31-27.03,5.75-40.04,2.44-13,5.43-33.55,4.15-47.15-3.96-1.19-4.38-.91-8.15-2.79-5.08,12.29-7.13,26.3-8.97,39.73-1.59,11.6-2.94,11.32-4.25,19.42.36-8.25-2.25-14.96-2.25-14.96,0,0-3.25-2.23-3.44-.37-.28,2.69,2.99,30,2.98,32.84-.04,22.15-4.77,49.5-8.8,66.19l12.3.65c2.03-13.92,23.32-61.02,20.81-62.25ZM110.05,228.23c.09,1.92-.14,3.77-.54,5.6-.48,2.24-1.09,4.36-1.49,6.64-.47,2.71-.68,7.3-2,9.5.05-4.31.4-8.46.88-12.73.25-2.24.69-4.39,1.15-6.56.36-1.71,1.1-3.61,1.21-5.38l.79-2.32c.12-.04-.07,3.54,0,5.25ZM117.89,159.13c.35-3.57.97-7,1.6-10.46.5-2.73,1.55-5.75,1.69-8.58l1.1-3.69c.17-.07-.1,5.65,0,8.37.12,3.07-.2,6.01-.75,8.92-.68,3.57-1.53,6.95-2.08,10.58-.66,4.33-.96,11.64-2.8,15.15.06-6.88.55-13.49,1.23-20.3ZM111.49,208.41c-.98-1.51-.4-4.84-.37-6.62.05-2.44.36-4.77.75-7.14.48-2.99.29-9.12,2.35-11.39l.2.06c-.69,2.61-.21,6.01-.48,8.76-.23,2.42-.43,4.88-.8,7.25-.46,2.97-1.42,6.2-1.66,9.07ZM119.45,196.25c.12,3.07-.2,6.01-.75,8.92-.68,3.57-1.53,6.95-2.08,10.58-.66,4.33-.96,11.64-2.8,15.15.06-6.88.55-13.49,1.23-20.3.35-3.57.97-7,1.6-10.46.5-2.73,1.55-5.75,1.69-8.58l1.1-3.69c.17-.07-.1,5.65,0,8.37Z"/>
      <path class="cls-2" d="M229.29,306.55c5.43-1.08,10.94-1.42,16.46-1.57,5.51-.28,10.98.83,16.47,1.05,3.66.12,7.32-.08,10.98-.45,14.61-1.41,29.45-1.4,43.9,1.52v.39c-3.67.54-7.34.81-11.01,1.03-10.96.66-21.96.29-32.89-.8-3.65-.37-7.31-.57-10.97-.42-5.48.24-10.95,1.4-16.46,1.16-5.53-.11-10.99-.42-16.47-1.5v-.39h0Z"/>
      <path class="cls-2" d="M294.76,245.04c-.96-.96-1.11-4.51-2.69-2.98-2.9,2.81-6.62,10.81-7.45,11.71,3.94-30.41,3.31-27.03,5.75-40.04,2.44-13,5.43-33.55,4.15-47.15-3.96-1.19-4.38-.91-8.15-2.79-5.08,12.29-7.13,26.3-8.97,39.73-1.59,11.6-2.94,11.32-4.25,19.42.36-8.25-2.25-14.96-2.25-14.96,0,0-3.25-2.23-3.44-.37-.28,2.69,2.99,30,2.98,32.84-.04,22.15-4.77,49.5-8.8,66.19l12.3.65c2.03-13.92,23.32-61.02,20.81-62.25ZM273.56,267.93c.09,1.92-.14,3.77-.54,5.6-.48,2.24-1.09,4.36-1.49,6.64-.47,2.71-.68,7.3-2,9.5.05-4.31.4-8.46.88-12.73.25-2.24.69-4.39,1.15-6.56.36-1.71,1.1-3.61,1.21-5.38l.79-2.32c.12-.04-.07,3.54,0,5.25ZM281.4,198.83c.35-3.57.97-7,1.6-10.46.5-2.73,1.55-5.75,1.69-8.58l1.1-3.69c.17-.07-.1,5.65,0,8.37.12,3.07-.2,6.01-.75,8.92-.68,3.57-1.53,6.95-2.08,10.58-.66,4.33-.96,11.64-2.8,15.15.06-6.88.55-13.49,1.23-20.3ZM275,248.11c-.98-1.51-.4-4.84-.37-6.62.05-2.44.36-4.77.75-7.14.48-2.99.29-9.12,2.35-11.39l.2.06c-.69,2.61-.21,6.01-.48,8.76-.23,2.42-.43,4.88-.8,7.25-.46,2.97-1.42,6.2-1.66,9.07ZM282.96,235.95c.12,3.07-.2,6.01-.75,8.92-.68,3.57-1.53,6.95-2.08,10.58-.66,4.33-.96,11.64-2.8,15.15.06-6.88.55-13.49,1.23-20.3.35-3.57.97-7,1.6-10.46.5-2.73,1.55-5.75,1.69-8.58l1.1-3.69c.17-.07-.1,5.65,0,8.37Z"/>
      <path class="cls-2" d="M356.51,185.43c5.43-1.08,10.94-1.42,16.46-1.57,5.51-.28,10.98.83,16.47,1.05,3.66.12,7.32-.08,10.98-.45,14.61-1.41,29.45-1.4,43.9,1.52v.39c-3.67.54-7.34.81-11.01,1.03-10.96.66-21.96.29-32.89-.8-3.65-.37-7.31-.57-10.97-.42-5.48.24-10.95,1.4-16.46,1.16-5.53-.11-10.99-.42-16.47-1.5v-.39h0Z"/>
      <path class="cls-2" d="M421.98,123.92c-.96-.96-1.11-4.51-2.69-2.98-2.9,2.81-6.62,10.81-7.45,11.71,3.94-30.41,3.31-27.03,5.75-40.04,2.44-13,5.43-33.55,4.15-47.15-3.96-1.19-4.38-.91-8.15-2.79-5.08,12.29-7.13,26.3-8.97,39.73-1.59,11.6-2.94,11.32-4.25,19.42.36-8.25-2.25-14.96-2.25-14.96,0,0-3.25-2.23-3.44-.37-.28,2.69,2.99,30,2.98,32.84-.04,22.15-4.77,49.5-8.8,66.19l12.3.65c2.03-13.92,23.32-61.02,20.81-62.25ZM400.78,146.81c.09,1.92-.14,3.77-.54,5.6-.48,2.24-1.09,4.36-1.49,6.64-.47,2.71-.68,7.3-2,9.5.05-4.31.4-8.46.88-12.73.25-2.24.69-4.39,1.15-6.56.36-1.71,1.1-3.61,1.21-5.38l.79-2.32c.12-.04-.07,3.54,0,5.25ZM408.62,77.71c.35-3.57.97-7,1.6-10.46.5-2.73,1.55-5.75,1.69-8.58l1.1-3.69c.17-.07-.1,5.65,0,8.37.12,3.07-.2,6.01-.75,8.92-.68,3.57-1.53,6.95-2.08,10.58-.66,4.33-.96,11.64-2.8,15.15.06-6.88.55-13.49,1.23-20.3ZM402.22,126.99c-.98-1.51-.4-4.84-.37-6.62.05-2.44.36-4.77.75-7.14.48-2.99.29-9.12,2.35-11.39l.2.06c-.69,2.61-.21,6.01-.48,8.76-.23,2.42-.43,4.88-.8,7.25-.46,2.97-1.42,6.2-1.66,9.07ZM410.18,114.83c.12,3.07-.2,6.01-.75,8.92-.68,3.57-1.53,6.95-2.08,10.58-.66,4.33-.96,11.64-2.8,15.15.06-6.88.55-13.49,1.23-20.3.35-3.57.97-7,1.6-10.46.5-2.73,1.55-5.75,1.69-8.58l1.1-3.69c.17-.07-.1,5.65,0,8.37Z"/>
      <path class="cls-2" d="M456.62,439.74c5.43-1.08,10.94-1.42,16.46-1.57,5.51-.28,10.98.83,16.47,1.05,3.66.12,7.32-.08,10.98-.45,14.61-1.41,29.45-1.4,43.9,1.52,0,0-.01.39-.01.39-3.66.54-7.32.81-11,1.03-10.96.66-21.96.29-32.89-.8-3.65-.37-7.31-.57-10.97-.42-5.48.24-10.95,1.4-16.46,1.16-5.53-.11-10.99-.42-16.47-1.5v-.39h0Z"/>
      <path class="cls-2" d="M522.09,378.22c-.96-.96-1.11-4.51-2.69-2.98-2.9,2.81-6.62,10.81-7.45,11.71,3.94-30.41,3.31-27.03,5.75-40.04,2.44-13,5.43-33.55,4.15-47.15-3.96-1.19-4.38-.91-8.15-2.79-5.08,12.29-7.13,26.3-8.97,39.73-1.59,11.6-2.94,11.32-4.25,19.42.36-8.25-2.25-14.96-2.25-14.96,0,0-3.25-2.23-3.44-.37-.28,2.69,2.99,30,2.98,32.84-.04,22.15-4.77,49.5-8.8,66.19l12.3.65c2.03-13.92,23.32-61.02,20.81-62.25ZM500.89,401.12c.09,1.92-.14,3.77-.54,5.6-.48,2.24-1.09,4.36-1.49,6.64-.47,2.71-.68,7.3-2,9.5.05-4.31.4-8.46.88-12.73.25-2.24.69-4.39,1.15-6.56.36-1.71,1.1-3.61,1.21-5.38l.79-2.32c.12-.04-.07,3.54,0,5.25ZM508.73,332.01c.35-3.57.97-7,1.6-10.46.5-2.73,1.55-5.75,1.69-8.58l1.1-3.69c.17-.07-.1,5.65,0,8.37.12,3.07-.2,6.01-.75,8.92-.68,3.57-1.53,6.95-2.08,10.58-.66,4.33-.96,11.64-2.8,15.15.06-6.88.55-13.49,1.23-20.3ZM502.33,381.3c-.98-1.51-.4-4.84-.37-6.62.05-2.44.36-4.77.75-7.14.48-2.99.29-9.12,2.35-11.39l.2.06c-.69,2.61-.21,6.01-.48,8.76-.23,2.42-.43,4.88-.8,7.25-.46,2.97-1.42,6.2-1.66,9.07ZM510.29,369.14c.12,3.07-.2,6.01-.75,8.92-.68,3.57-1.53,6.95-2.08,10.58-.66,4.33-.96,11.64-2.8,15.15.06-6.88.55-13.49,1.23-20.3.35-3.57.97-7,1.6-10.46.5-2.73,1.55-5.75,1.69-8.58l1.1-3.69c.17-.07-.1,5.65,0,8.37Z"/>
      <path class="cls-2" d="M356.51,369.06c5.43-1.08,10.94-1.42,16.46-1.57,5.51-.28,10.98.83,16.47,1.05,3.66.12,7.32-.08,10.98-.45,14.61-1.41,29.45-1.4,43.9,1.52,0,0-.01.39-.01.39-3.66.54-7.32.81-11,1.03-10.96.66-21.96.29-32.89-.8-3.65-.37-7.31-.57-10.97-.42-5.48.24-10.95,1.4-16.46,1.16-5.53-.11-10.99-.42-16.47-1.5v-.39h0Z"/>
      <path class="cls-2" d="M421.98,307.55c-.96-.96-1.11-4.51-2.69-2.98-2.9,2.81-6.62,10.81-7.45,11.71,3.94-30.41,3.31-27.03,5.75-40.04,2.44-13,5.43-33.55,4.15-47.15-3.96-1.19-4.38-.91-8.15-2.79-5.08,12.29-7.13,26.3-8.97,39.73-1.59,11.6-2.94,11.32-4.25,19.42.36-8.25-2.25-14.96-2.25-14.96,0,0-3.25-2.23-3.44-.37-.28,2.69,2.99,30,2.98,32.84-.04,22.15-4.77,49.5-8.8,66.19l12.3.65c2.03-13.92,23.32-61.02,20.81-62.25ZM400.78,330.44c.09,1.92-.14,3.77-.54,5.6-.48,2.24-1.09,4.36-1.49,6.64-.47,2.71-.68,7.3-2,9.5.05-4.31.4-8.46.88-12.73.25-2.24.69-4.39,1.15-6.56.36-1.71,1.1-3.61,1.21-5.38l.79-2.32c.12-.04-.07,3.54,0,5.25ZM408.62,261.34c.35-3.57.97-7,1.6-10.46.5-2.73,1.55-5.75,1.69-8.58l1.1-3.69c.17-.07-.1,5.65,0,8.37.12,3.07-.2,6.01-.75,8.92-.68,3.57-1.53,6.95-2.08,10.58-.66,4.33-.96,11.64-2.8,15.15.06-6.88.55-13.49,1.23-20.3ZM402.22,310.62c-.98-1.51-.4-4.84-.37-6.62.05-2.44.36-4.77.75-7.14.48-2.99.29-9.12,2.35-11.39l.2.06c-.69,2.61-.21,6.01-.48,8.76-.23,2.42-.43,4.88-.8,7.25-.46,2.97-1.42,6.2-1.66,9.07ZM410.18,298.46c.12,3.07-.2,6.01-.75,8.92-.68,3.57-1.53,6.95-2.08,10.58-.66,4.33-.96,11.64-2.8,15.15.06-6.88.55-13.49,1.23-20.3.35-3.57.97-7,1.6-10.46.5-2.73,1.55-5.75,1.69-8.58l1.1-3.69c.17-.07-.1,5.65,0,8.37Z"/>
      <path class="cls-2" d="M443.96,249.22c5.43-1.08,10.94-1.42,16.46-1.57,5.51-.28,10.98.83,16.47,1.05,3.66.12,7.32-.08,10.98-.45,14.61-1.41,29.45-1.4,43.9,1.52,0,0-.01.39-.01.39-3.66.54-7.32.81-11,1.03-10.96.66-21.96.29-32.89-.8-3.65-.37-7.31-.57-10.97-.42-5.48.24-10.95,1.4-16.46,1.16-5.53-.11-10.99-.42-16.47-1.5v-.39h0Z"/>
      <path class="cls-2" d="M509.43,187.71c-.96-.96-1.11-4.51-2.69-2.98-2.9,2.81-6.62,10.81-7.45,11.71,3.94-30.41,3.31-27.03,5.75-40.04,2.44-13,5.43-33.55,4.15-47.15-3.96-1.19-4.38-.91-8.15-2.79-5.08,12.29-7.13,26.3-8.97,39.73-1.59,11.6-2.94,11.32-4.25,19.42.36-8.25-2.25-14.96-2.25-14.96,0,0-3.25-2.23-3.44-.37-.28,2.69,2.99,30,2.98,32.84-.04,22.15-4.77,49.5-8.8,66.19l12.3.65c2.03-13.92,23.32-61.02,20.81-62.25ZM488.23,210.6c.09,1.92-.14,3.77-.54,5.6-.48,2.24-1.09,4.36-1.49,6.64-.47,2.71-.68,7.3-2,9.5.05-4.31.4-8.46.88-12.73.25-2.24.69-4.39,1.15-6.56.36-1.71,1.1-3.61,1.21-5.38l.79-2.32c.12-.04-.07,3.54,0,5.25ZM496.07,141.5c.35-3.57.97-7,1.6-10.46.5-2.73,1.55-5.75,1.69-8.58l1.1-3.69c.17-.07-.1,5.65,0,8.37.12,3.07-.2,6.01-.75,8.92-.68,3.57-1.53,6.95-2.08,10.58-.66,4.33-.96,11.64-2.8,15.15.06-6.88.55-13.49,1.23-20.3ZM489.67,190.78c-.98-1.51-.4-4.84-.37-6.62.05-2.44.36-4.77.75-7.14.48-2.99.29-9.12,2.35-11.39l.2.06c-.69,2.61-.21,6.01-.48,8.76-.23,2.42-.43,4.88-.8,7.25-.46,2.97-1.42,6.2-1.66,9.07ZM497.63,178.62c.12,3.07-.2,6.01-.75,8.92-.68,3.57-1.53,6.95-2.08,10.58-.66,4.33-.96,11.64-2.8,15.15.06-6.88.55-13.49,1.23-20.3.35-3.57.97-7,1.6-10.46.5-2.73,1.55-5.75,1.69-8.58l1.1-3.69c.17-.07-.1,5.65,0,8.37Z"/>
      <path class="cls-2" d="M551.77,315.07c19.86-5.95,41.04-3.79,61.41-3.53,2.69.03,5.99.05,8.7.02,9.47.05,18.75,1.83,28.14,2.31,4.63.22,9.3.34,13.79-1.06-1.01.62-2.1,1.09-3.22,1.52-7.92,2.65-16.54,2.28-24.74,2.14-4.68-.11-9.38-.39-13.85-.21-2.91.12-5.95.2-8.88.2-20.59-.11-40.78-3.08-61.36-1.38h0Z"/>
      <path class="cls-2" d="M581.19,232.44c7.74-1.95,15.73-2.69,23.68-3.02,7.96-.22,16.06-.06,23.85,1.89-13.7,3.38-33.84,4.5-47.54,1.13h0Z"/>
      <path class="cls-2" d="M332.2,225.65c7.74-2.38,15.56-5.41,23.86-4.53,2.81.36,5.83,1.29,7.83,3.4-2.74-.15-5.18.08-7.8.5-7.37,1.08-16.7,3.74-23.89.63h0Z"/>
      <path class="cls-2" d="M143.75,233.96c13.14,2.69,26.04-.56,39.3-1.22,3.38-.2,6.81-.28,10.2-.03,9.93.78,19.76,1.13,29.73,2.38-6.59,1.22-13.23,1.88-19.91,2.2-4.95.29-9.89,0-14.85.16-13.84.35-31.87,3.65-44.47-3.49h0Z"/>
      <path class="cls-2" d="M544.42,166.97c13.14,2.69,26.04-.56,39.3-1.22,3.38-.2,6.81-.28,10.2-.03,9.93.78,19.76,1.13,29.73,2.38-6.59,1.22-13.23,1.88-19.91,2.2-4.95.29-9.89,0-14.85.16-13.84.35-31.87,3.65-44.47-3.49h0Z"/>
      <path class="cls-2" d="M192.42,282.53c8.6-4.47,21.96-4.58,30.56,0-8.05,2.11-22.56,2.17-30.56,0h0Z"/>
      <path class="cls-2" d="M35.23,206.24c8.6-4.47,21.96-4.58,30.56,0-8.05,2.11-22.56,2.17-30.56,0h0Z"/>
      <path class="cls-2" d="M140.93,339.96c6.5-3.31,14.08-3.95,21.25-4.05,8.83-.18,17.58,1,26.37.21,10.43-.95,28.07-5.23,37.27.45-3.48-.96-6.99-.74-10.46-.35-3.47.41-6.92,1.08-10.38,1.79-5.24,1.07-10.51,2.28-15.88,2.98-3.65.46-7.41.4-11.06.22-12.4-.57-24.72-3.44-37.1-1.24h0Z"/>
      <path class="cls-2" d="M227.1,369.57c6.5-3.31,14.08-3.95,21.25-4.05,8.83-.18,17.58,1,26.37.21,10.43-.95,28.07-5.23,37.27.45-3.48-.96-6.99-.74-10.46-.35-3.47.41-6.92,1.08-10.38,1.79-5.24,1.07-10.51,2.28-15.88,2.98-3.65.46-7.41.4-11.06.22-12.4-.57-24.72-3.44-37.1-1.24h0Z"/>
      <path class="cls-2" d="M295.98,396.55c5.98-3.77,15.21-3.72,22.1-3.64,7.35.33,14.48.11,21.93.34,4.96.22,10.08.55,14.82,2.16-10.53,1.01-20.78,3.03-31.45,2.59-3.5-.12-9.33-.81-12.86-1.14-4.88-.44-9.63-1.03-14.54-.31h0Z"/>
    </g>
    <g id="H-3" data-name="H">
      <path class="cls-4" d="M544.62,503.01c-7.55,0-14.3-2.96-20.1-5.51-8.23-3.62-13.61-5.72-20.29-3.56-17.22,5.57-41.56,10.02-59.78-.41-10.41-5.96-17.2-15.74-20.16-29.08-3.35-15.09-1.54-26.79-.09-36.2,2.17-14.05,3.18-20.52-12.84-32.66-2.82.86-9.18,6.47-13.07,9.9-12.98,11.45-30.75,27.13-52.59,17.21-15.7-7.14-24.69-20.29-31.92-30.87-2.9-4.24-7.24-10.59-9.37-11.57-.24.07-.77.28-1.65.87-5.22,3.48-8.84,7.32-12.67,11.38-9.53,10.11-19.39,20.56-48.14,20.56-39.74,0-58.68-11.94-81.05-51.09-13.21-23.12-13.97-23.41-26.52-28.19-5.92-2.25-14.03-5.34-25.84-11.25-5.52-2.76-11.25-5.49-16.79-8.13-35.3-16.81-71.8-34.19-86.77-73.86-15.96-42.31,10.1-61.48,27.35-74.16,3.08-2.26,5.99-4.4,8.44-6.48,9.49-8.03,25.71-11.75,48.21-11.08,17.52.53,34.76,3.66,44.09,6.52,6.94,2.13,13.14,5.32,19.13,8.4,10.17,5.23,19.77,10.17,33.72,10.9,22.46,1.19,52.94-1,71.08-10.68,19.33-10.31,57.16-32.47,57.54-32.7.53-.31,1.09-.57,1.67-.78.28-.1,29.91-11.07,43.61-32.77,19.28-30.52,42.04-47.75,67.64-51.2,12.64-1.7,22.64.78,30.67,2.77,9.98,2.47,14.25,3.31,20-.91,9.09-6.68,14.39-14.51,19.07-21.42,3.38-4.99,6.57-9.7,10.71-13.15,6.56-5.46,22.19-13.83,27.02-13.83,3.44,0,6.64,1.77,8.47,4.69.04.05,4.89,7.56,13.72,12.78.19.11.38.23.56.36,3.08,2.11,6.47,4.11,10.08,5.96.18.09.36.19.54.29,3,1.74,4.9,4.93,4.98,8.44.08,3.71-1.9,7.16-5.15,8.96-23.65,13.11-51.67,31.55-55.68,38.5-4.09,7.07-4.7,13.29-3.5,16.32.43,1.08,1.1,1.92,2.98,2.48,2.5.75,6.06,1.69,10.19,2.78,23.42,6.17,45.29,12.48,55.58,21.73,9.77,8.78,22.87,28.84,22.04,43.67-.33,5.94-2.9,10.92-7.25,14.02-.42.3-.68.53-.83.68.26,2.3,3.64,8.27,6.14,12.69l.68,1.21c1.14,2.01,4.58,5.54,7.92,8.96,13.83,14.18,36.99,37.9,23.92,75.13-3.55,10.12-7.05,19.71-10.43,28.98-9.23,25.33-17.96,49.25-17.96,58.65,0,2.87,2.31,7.81,4.55,12.59,5.6,11.99,14.07,30.11-.16,47.9-9.05,11.31-17.94,16.69-24.44,20.62-5.71,3.46-8.29,5.12-9.61,8.42-1.1,2.75-.79,6.86-.45,11.21.7,9.14,1.87,24.45-15.17,32.31-4.21,1.94-8.23,2.7-12.04,2.7ZM509.62,473.05c8.97,0,16.52,3.32,22.94,6.14,8.06,3.54,11.74,4.8,15.71,2.96,3.8-1.76,4.36-2.76,3.61-12.63-.45-5.84-1-13.1,1.83-20.16,3.86-9.65,10.96-13.95,17.83-18.1,6.07-3.67,12.35-7.48,19.18-16.01,5.86-7.32,3.78-13.83-2.34-26.94-3.16-6.76-6.43-13.75-6.43-21.06,0-12.93,8.04-34.98,19.17-65.5,3.36-9.21,6.83-18.74,10.35-28.75,8.96-25.52-6.75-41.61-19.37-54.54-4.61-4.73-8.6-8.81-11.02-13.09l-.68-1.2c-3.84-6.78-7.15-12.64-8.3-18.47-1.12-5.67-.63-13.68,7.73-20.23.19-5-6.9-19.6-15.49-27.31-7.55-6.78-33.42-13.6-47.32-17.27-4.3-1.13-8.01-2.11-10.83-2.96-7.44-2.23-13.06-7.3-15.83-14.27-3.75-9.45-1.96-22.05,4.78-33.71,6.36-10.99,30.91-26.98,48.43-37.43-4.97-3.4-8.86-7.1-11.67-10.22-3.74,1.86-8.09,4.31-11.18,6.88-1.97,1.65-4.28,5.05-6.96,9-5.03,7.42-11.92,17.59-23.78,26.32-13.53,9.95-25.82,6.9-36.66,4.21-7.05-1.75-14.33-3.55-23.19-2.36-19.47,2.62-37.43,16.77-53.4,42.06-16.06,25.43-46.94,38.29-52.82,40.56-5.55,3.25-39.1,22.84-57.51,32.66-27.39,14.61-69.34,13.65-81.54,13-18.23-.96-30.76-7.41-41.82-13.09-5.46-2.81-10.61-5.46-15.86-7.07-18.29-5.63-61.15-9.73-73.49.71-2.97,2.51-6.15,4.85-9.51,7.32-16.69,12.27-31.1,22.87-20.49,50.99,12.12,32.13,43.47,47.06,76.66,62.86,5.63,2.68,11.45,5.45,17.14,8.3,10.92,5.46,18.18,8.22,24.01,10.44,17.24,6.56,21.14,9.61,36.77,36.96,20.05,35.08,33.48,41.01,63.68,41.01,20.12,0,25.47-5.68,33.59-14.28,4.23-4.48,9.02-9.56,16.13-14.3,8.4-5.6,17.23-5.66,24.84-.18,5.28,3.81,9.41,9.84,13.78,16.23,6.13,8.96,13.07,19.12,23.69,23.95,9.34,4.25,18.37-2.79,31.08-14,5.29-4.67,10.28-9.07,15.51-11.88,10.88-5.86,18.69-2.1,22.38.67,26.05,19.54,23.49,36.06,21.02,52.03-1.32,8.55-2.69,17.38-.16,28.8,1.71,7.71,5.17,12.97,10.57,16.05,9.13,5.23,25.06,4.77,43.7-1.26,4.09-1.32,7.93-1.86,11.54-1.86Z"/>
    </g>
  </g>
</svg>