<?xml version="1.0" encoding="UTF-8"?>
<svg id="Calque_2" data-name="Calque 2" xmlns="http://www.w3.org/2000/svg" xmlns:xlink="http://www.w3.org/1999/xlink" viewBox="0 0 512.36 569.67">
  <defs>
    <style>
      .cls-1, .cls-2 {
        fill: none;
      }

      .cls-3 {
        fill: #e08044;
      }

      .cls-4 {
        fill: #ffc69f;
      }

      .cls-5 {
        clip-path: url(#clippath-1);
      }

      .cls-2 {
        stroke: #fff;
        stroke-linecap: round;
        stroke-linejoin: round;
        stroke-width: 20px;
      }

      .cls-6 {
        fill: #c26b47;
      }

      .cls-7 {
        clip-path: url(#clippath);
      }
    </style>
    <clipPath id="clippath">
      <path class="cls-1" d="M398.5,243.4c-.82-18.07-41.07-91.99-50.1-102.91-9.03-10.91-67.35-85.18-76.39-90.11-9.03-4.93-61.6-31.21-61.6-31.21l-6.64-3.33s-3.22.04-11.43,0c-8.21-.04-21.87-5.84-21.87-5.84-3.16,1.69-14.71,6.77-28.11,11.65-.54.2-1.09.39-1.63.59-12.74,4.58-26.88,8.85-36.96,9.83-8.14,1.21-11.27-.05-20.78-.06-8.79,1.61-13.37,6.08-13.37,6.08t0,0c-2.04,3.06-4.6,5.29-7.41,6.4h-9.72c-.33.49-.71,1.01-1.1,1.54l-8.73,12.1h0s-2.19,4.02-2.19,4.02l-6.86,12.61s-.04.1-.05.14c-.04.43-.72,7.98-2.61,11.9l-3.2,14.66s0,.02,0,.02l2.19-2.43.58-1.15c.34-.18.65-.38.98-.58l10.52-11.67s0,0,0,0h0c2.36-5.15,10.02,7.55,12.39,17.93.75,2.28,1.1,4.57.77,6.73-.06.36-.17.69-.26,1.03-.02.12-.04.26-.07.38-.03.13-.08.25-.12.37-.02.05-.03.11-.05.16-.15.41-.34.79-.54,1.16-1.83,3.59-5.6,5.92-9.46,8.36-4.52,3.32-9.19,7.07-10.99,12.11-.62,2.48-.7,4.89-.49,7.23.48,2.47.86,4.69,1.16,6.7,1.28,5.76,2.65,11.23-.54,16.7-1.55,2.66-4,4-6.75,4.75-2.83,1.66-6.54,1.24-9.81,1.38-2.42.33-4.51.88-5.82,2.18-.61.73-1.09,1.67-1.38,2.98,0,0,0,0,0,0,0,.03-.01.06-.01.09-.03.29-.05.6-.05.93,0,9.57,11.86,18.49,17.87,27.92.01.02.03.03.04.05,3.1,4.12,3.83,7.96,3.88,12.68.15,3.3-.12,6.56-.28,9.57-.17,6.12.87,9.35,2.39,11.94.67,1,1.54,2.26,2.57,3.72.16.22.32.45.48.68.03.04.06.08.09.12.09.13.21.3.35.48,4.03,5.43,25.82,31.44,30.68,36.34.16.16.31.3.43.42.07.06.13.12.19.18.17.16.34.33.52.49,2.23,2.1,4.43,4.02,6.57,5.7,3.26,2.32,7.31,4.33,11.85,4.39,4.94-.3,9.5-3.1,13.85-6.34,3.02-2.93,6.02-5.15,8.98-6.81,2.84-1.94,5.64-3.42,8.47-3.79,1.83-.23,3.8-.35,5.84-.37,2.23-.1,4.38.04,6.44.34,6.05.69,12.14,2.47,16.79,5.74.02,0,.04.02.06.03,5.78,2.68,8.25,8.5,8.19,15.26.18,4.96-1.35,9.53-3.12,13.86-1.08,2.76-1.9,4.87-2.53,6.67-.16.47-.32.92-.46,1.35-1.3,4.01-1.7,6.9-2.45,13.87-.03.24-.06.5-.08.74-.04.37-.08.73-.12,1.11-1.25,11.26-3.41,29.2,1.3,39.88.07.14.13.29.2.43.13.26.26.52.38.78.23.46.46.92.71,1.37,3.92,7.08,10.59,13.37,16.37,18.24,2.05,1.68,4.29,3.49,6.77,5.54,0,0,0,0,0,0,2.42,1.98,4.16,3.91,5.65,6.22,3.8,5.51,5.74,11.83,7.83,17.87,5.29,13.61,8.63,16.03,12.09,18.91h0c4.49,2.68,7.43-.17,12.6-.97,0,0,0,0,0,0,4.37-1.15,4.17-1.85,10.42,2.48.23.16.46.32.71.49.43.3.86.63,1.29.97.01,0,.03.02.04.03,7.26,5.79,13.66,15.6,13.66,15.6,0,0,7.12,0,15.27,1.78.01,0,.03,0,.04,0,9.22,1.43,8.79-.1,15.94,6.61.01.01.03.02.04.04.85.67,1.67,1.41,2.46,2.19,3.9,3.28,3.59,2.16,10.14,14.44.47.89.98,1.84,1.53,2.88,0,.02.02.03.03.05,9.52,17.92,11.53,20.2,15.98,23.73h0s0,0,0,0c2.84,1.61,5.56,2.11,7.68,2.16,2.39-.03,4.22-.48,4.22-.48,0,0,1.47-2.12,3.38-4.88.99-2,2.27-3.81,3.76-5.43.03-.03.06-.07.09-.1,1.21-1.74,2.36-3.38,3.23-4.63,3.32-4.73,10.99-19.47,10.99-19.48h0s17.38-10.02,17.38-10.02h1.28l19.68-10.02h0s8.94-15.86,8.94-15.86h0s1.79-5.84,7.43-10.09c5.64-4.25,20.53-64.07,23.82-76.39,3.29-12.32-11.5-96.1-12.32-114.17Z"/>
    </clipPath>
    <clipPath id="clippath-1">
      <path class="cls-2" d="M398.5,243.4c-.82-18.07-41.07-91.99-50.1-102.91-9.03-10.91-67.35-85.18-76.39-90.11-9.03-4.93-61.6-31.21-61.6-31.21l-6.64-3.33s-3.22.04-11.43,0c-8.21-.04-21.87-5.84-21.87-5.84-3.16,1.69-14.71,6.77-28.11,11.65-.54.2-1.09.39-1.63.59-12.74,4.58-26.88,8.85-36.96,9.83-8.14,1.21-11.27-.05-20.78-.06-8.79,1.61-13.37,6.08-13.37,6.08t0,0c-2.04,3.06-4.6,5.29-7.41,6.4h-9.72c-.33.49-.71,1.01-1.1,1.54l-8.73,12.1h0s-2.19,4.02-2.19,4.02l-6.86,12.61s-.04.1-.05.14c-.04.43-.72,7.98-2.61,11.9l-3.2,14.66s0,.02,0,.02l2.19-2.43.58-1.15c.34-.18.65-.38.98-.58l10.52-11.67s0,0,0,0h0c2.36-5.15,10.02,7.55,12.39,17.93.75,2.28,1.1,4.57.77,6.73-.06.36-.17.69-.26,1.03-.02.12-.04.26-.07.38-.03.13-.08.25-.12.37-.02.05-.03.11-.05.16-.15.41-.34.79-.54,1.16-1.83,3.59-5.6,5.92-9.46,8.36-4.52,3.32-9.19,7.07-10.99,12.11-.62,2.48-.7,4.89-.49,7.23.48,2.47.86,4.69,1.16,6.7,1.28,5.76,2.65,11.23-.54,16.7-1.55,2.66-4,4-6.75,4.75-2.83,1.66-6.54,1.24-9.81,1.38-2.42.33-4.51.88-5.82,2.18-.61.73-1.09,1.67-1.38,2.98,0,0,0,0,0,0,0,.03-.01.06-.01.09-.03.29-.05.6-.05.93,0,9.57,11.86,18.49,17.87,27.92.01.02.03.03.04.05,3.1,4.12,3.83,7.96,3.88,12.68.15,3.3-.12,6.56-.28,9.57-.17,6.12.87,9.35,2.39,11.94.67,1,1.54,2.26,2.57,3.72.16.22.32.45.48.68.03.04.06.08.09.12.09.13.21.3.35.48,4.03,5.43,25.82,31.44,30.68,36.34.16.16.31.3.43.42.07.06.13.12.19.18.17.16.34.33.52.49,2.23,2.1,4.43,4.02,6.57,5.7,3.26,2.32,7.31,4.33,11.85,4.39,4.94-.3,9.5-3.1,13.85-6.34,3.02-2.93,6.02-5.15,8.98-6.81,2.84-1.94,5.64-3.42,8.47-3.79,1.83-.23,3.8-.35,5.84-.37,2.23-.1,4.38.04,6.44.34,6.05.69,12.14,2.47,16.79,5.74.02,0,.04.02.06.03,5.78,2.68,8.25,8.5,8.19,15.26.18,4.96-1.35,9.53-3.12,13.86-1.08,2.76-1.9,4.87-2.53,6.67-.16.47-.32.92-.46,1.35-1.3,4.01-1.7,6.9-2.45,13.87-.03.24-.06.5-.08.74-.04.37-.08.73-.12,1.11-1.25,11.26-3.41,29.2,1.3,39.88.07.14.13.29.2.43.13.26.26.52.38.78.23.46.46.92.71,1.37,3.92,7.08,10.59,13.37,16.37,18.24,2.05,1.68,4.29,3.49,6.77,5.54,0,0,0,0,0,0,2.42,1.98,4.16,3.91,5.65,6.22,3.8,5.51,5.74,11.83,7.83,17.87,5.29,13.61,8.63,16.03,12.09,18.91h0c4.49,2.68,7.43-.17,12.6-.97,0,0,0,0,0,0,4.37-1.15,4.17-1.85,10.42,2.48.23.16.46.32.71.49.43.3.86.63,1.29.97.01,0,.03.02.04.03,7.26,5.79,13.66,15.6,13.66,15.6,0,0,7.12,0,15.27,1.78.01,0,.03,0,.04,0,9.22,1.43,8.79-.1,15.94,6.61.01.01.03.02.04.04.85.67,1.67,1.41,2.46,2.19,3.9,3.28,3.59,2.16,10.14,14.44.47.89.98,1.84,1.53,2.88,0,.02.02.03.03.05,9.52,17.92,11.53,20.2,15.98,23.73h0s0,0,0,0c2.84,1.61,5.56,2.11,7.68,2.16,2.39-.03,4.22-.48,4.22-.48,0,0,1.47-2.12,3.38-4.88.99-2,2.27-3.81,3.76-5.43.03-.03.06-.07.09-.1,1.21-1.74,2.36-3.38,3.23-4.63,3.32-4.73,10.99-19.47,10.99-19.48h0s17.38-10.02,17.38-10.02h1.28l19.68-10.02h0s8.94-15.86,8.94-15.86h0s1.79-5.84,7.43-10.09c5.64-4.25,20.53-64.07,23.82-76.39,3.29-12.32-11.5-96.1-12.32-114.17Z"/>
    </clipPath>
  </defs>
  <g id="Header">
    <g id="EP5">
      <path class="cls-3" d="M398.5,243.4c-.82-18.07-41.07-91.99-50.1-102.91-9.03-10.91-67.35-85.18-76.39-90.11-9.03-4.93-61.6-31.21-61.6-31.21l-6.64-3.33s-3.22.04-11.43,0c-8.21-.04-21.87-5.84-21.87-5.84-3.16,1.69-14.71,6.77-28.11,11.65-.54.2-1.09.39-1.63.59-12.74,4.58-26.88,8.85-36.96,9.83-8.14,1.21-11.27-.05-20.78-.06-8.79,1.61-13.37,6.08-13.37,6.08t0,0c-2.04,3.06-4.6,5.29-7.41,6.4h-9.72c-.33.49-.71,1.01-1.1,1.54l-8.73,12.1h0s-2.19,4.02-2.19,4.02l-6.86,12.61s-.04.1-.05.14c-.04.43-.72,7.98-2.61,11.9l-3.2,14.66s0,.02,0,.02l2.19-2.43.58-1.15c.34-.18.65-.38.98-.58l10.52-11.67s0,0,0,0h0c2.36-5.15,10.02,7.55,12.39,17.93.75,2.28,1.1,4.57.77,6.73-.06.36-.17.69-.26,1.03-.02.12-.04.26-.07.38-.03.13-.08.25-.12.37-.02.05-.03.11-.05.16-.15.41-.34.79-.54,1.16-1.83,3.59-5.6,5.92-9.46,8.36-4.52,3.32-9.19,7.07-10.99,12.11-.62,2.48-.7,4.89-.49,7.23.48,2.47.86,4.69,1.16,6.7,1.28,5.76,2.65,11.23-.54,16.7-1.55,2.66-4,4-6.75,4.75-2.83,1.66-6.54,1.24-9.81,1.38-2.42.33-4.51.88-5.82,2.18-.61.73-1.09,1.67-1.38,2.98,0,0,0,0,0,0,0,.03-.01.06-.01.09-.03.29-.05.6-.05.93,0,9.57,11.86,18.49,17.87,27.92.01.02.03.03.04.05,3.1,4.12,3.83,7.96,3.88,12.68.15,3.3-.12,6.56-.28,9.57-.17,6.12.87,9.35,2.39,11.94.67,1,1.54,2.26,2.57,3.72.16.22.32.45.48.68.03.04.06.08.09.12.09.13.21.3.35.48,4.03,5.43,25.82,31.44,30.68,36.34.16.16.31.3.43.42.07.06.13.12.19.18.17.16.34.33.52.49,2.23,2.1,4.43,4.02,6.57,5.7,3.26,2.32,7.31,4.33,11.85,4.39,4.94-.3,9.5-3.1,13.85-6.34,3.02-2.93,6.02-5.15,8.98-6.81,2.84-1.94,5.64-3.42,8.47-3.79,1.83-.23,3.8-.35,5.84-.37,2.23-.1,4.38.04,6.44.34,6.05.69,12.14,2.47,16.79,5.74.02,0,.04.02.06.03,5.78,2.68,8.25,8.5,8.19,15.26.18,4.96-1.35,9.53-3.12,13.86-1.08,2.76-1.9,4.87-2.53,6.67-.16.47-.32.92-.46,1.35-1.3,4.01-1.7,6.9-2.45,13.87-.03.24-.06.5-.08.74-.04.37-.08.73-.12,1.11-1.25,11.26-3.41,29.2,1.3,39.88.07.14.13.29.2.43.13.26.26.52.38.78.23.46.46.92.71,1.37,3.92,7.08,10.59,13.37,16.37,18.24,2.05,1.68,4.29,3.49,6.77,5.54,0,0,0,0,0,0,2.42,1.98,4.16,3.91,5.65,6.22,3.8,5.51,5.74,11.83,7.83,17.87,5.29,13.61,8.63,16.03,12.09,18.91h0c4.49,2.68,7.43-.17,12.6-.97,0,0,0,0,0,0,4.37-1.15,4.17-1.85,10.42,2.48.23.16.46.32.71.49.43.3.86.63,1.29.97.01,0,.03.02.04.03,7.26,5.79,13.66,15.6,13.66,15.6,0,0,7.12,0,15.27,1.78.01,0,.03,0,.04,0,9.22,1.43,8.79-.1,15.94,6.61.01.01.03.02.04.04.85.67,1.67,1.41,2.46,2.19,3.9,3.28,3.59,2.16,10.14,14.44.47.89.98,1.84,1.53,2.88,0,.02.02.03.03.05,9.52,17.92,11.53,20.2,15.98,23.73h0s0,0,0,0c2.84,1.61,5.56,2.11,7.68,2.16,2.39-.03,4.22-.48,4.22-.48,0,0,1.47-2.12,3.38-4.88.99-2,2.27-3.81,3.76-5.43.03-.03.06-.07.09-.1,1.21-1.74,2.36-3.38,3.23-4.63,3.32-4.73,10.99-19.47,10.99-19.48h0s17.38-10.02,17.38-10.02h1.28l19.68-10.02h0s8.94-15.86,8.94-15.86h0s1.79-5.84,7.43-10.09c5.64-4.25,20.53-64.07,23.82-76.39,3.29-12.32-11.5-96.1-12.32-114.17Z"/>
      <g class="cls-7">
        <g>
          <path class="cls-6" d="M56.9,346.46c-6.69-3.95-17.7,1.01-17.3,9.25.45,7.92,9.69,10.37,16.18,12.37,2.7.77,5.79,1.39,8.57,1.93,4.09.89,8.77-.36,7.62-5.47-.81-3.72-4.06-6.68-6.47-9.62-2.51-3.2-4.96-6.49-8.6-8.46h0ZM56.9,346.46c5.35,3.08,8.88,8.24,13.65,12.09,9.86,9.53,2.3,18.38-9.93,15.66-8.25-1.43-17.75-4.08-22.35-11.87-2.22-4.1-1.43-9.37,1.53-12.82,4.36-4.37,11.62-6.18,17.11-3.05h0Z"/>
          <path class="cls-6" d="M336.05,113.73c-1.42,3.21-3.44,11.21.6,13,4.83,1.9,10.3-2.21,12.35-6.43.97-2.76.94-6.32-1.05-8.62-3.45-3.87-9.66-2.74-11.91,2.04h0ZM336.05,113.73c3-6.79,12.97-7.41,16.53-.7,5.02,8.88-3.77,19.21-13.26,17.65-2.84-.52-6.04-2.72-6.12-5.84.04-3.92,1.34-7.6,2.84-11.12h0Z"/>
          <path class="cls-6" d="M331.31,415.96c-6.52,4.84-4.44,10.38.37,15.55,2.75,3.35,8.16,8.62,10.75,2.34,1.13-2.43,1.12-5.44,1.4-8.17.23-3.03.47-6.15.29-9.08-.14-2.71-2.01-5.73-5.08-5.48-3.11.28-5.19,3.26-7.73,4.83h0ZM331.31,415.96c2.69-1.7,4.37-4.72,7.62-5.51,3.58-.9,6.76,2.38,7.65,5.66,1.69,7.59,4.22,19.48-3.63,24.41-5.88,3.41-11.37-3.29-13.34-7.61-3.59-6.25-5.07-12.16,1.7-16.94h0Z"/>
          <path class="cls-6" d="M16.91,34.64c-.43,6.47,3.68,11.46,10.18,11.38,5.12-.28,8.21-6.2,8.09-10.72-.26-4.49-3.48-10.67-8.18-11.67-2.54-.43-5.54.67-7.58,2.72-2.17,2.06-2.54,5.35-2.51,8.29h0ZM16.91,34.64c-.36-4.64,1.13-9.54,5.45-11.94,4.66-3.21,10.43-1.19,13.83,2.88,6.48,6.66,4.77,18.65-4.03,22.36-4.81,2.09-10.47-.74-13.21-4.58-1.93-2.57-2.02-5.78-2.04-8.73h0Z"/>
          <path class="cls-6" d="M252.34,234.2c-6.57-1.43-15.69.82-17.49,8.06-1.62,7.97,10.26,14.3,16.98,12.95,5.03-1.87,14.43-9.16,12.23-15.3-2.17-4.05-7.66-4.6-11.72-5.71h0ZM252.34,234.2c4.34,1.16,9.76,1.26,12.68,5.18,3.29,6.4-2.92,13.83-7.57,17.85-8.8,8.16-26.38-1.12-25.73-12.69,1.03-9.61,12.71-12.16,20.62-10.34h0Z"/>
          <path class="cls-6" d="M319.74,405.33c-2.74,3-4.44,6.79-5.56,10.65-2.05,7.52-3.32,16.4,1.73,22.97,4.67,6.75,12.55,9.67,19.48,13.42,8.58,5.19,19.95,16.06,29.64,8.25,5.15-4.88,5.1-13.63,2.73-20.1,0,0-4.45-11.2-4.45-11.2-4.44-10.75-9.71-22.93-21.14-27.68-7.35-2.92-16.81-2.46-22.43,3.69h0ZM319.74,405.33c8.79-9.38,24.71-6.36,33.09,2.15,7.41,7.12,11.94,16.77,16.34,25.89.76,1.7,1.9,3.8,2.62,5.56,8.63,21.63-8.53,38.29-28.63,23.72-4.33-3.02-7.79-6.36-12.1-8.97-6.29-3.48-12.6-7.64-16.4-13.92-4.74-7.22-3-16.16-.66-23.84,1.18-3.86,2.95-7.64,5.74-10.6h0Z"/>
          <path class="cls-6" d="M310.22,397.45c-10.1,8.64-18.83,21.15-18.27,34.92.81,13.96,12.76,23.7,24.12,30.1,5.87,3.37,12.02,6.34,17.91,10.05,12.31,7.09,26.82,26.09,41.53,24.1,16.77-4.49,10.44-50.38,6.59-63.25-3.31-12.93-7.71-26.18-16.82-36.22-14.73-16.28-39.43-12.99-55.05.31h0ZM310.22,397.45c15.66-13.54,40.64-17.11,56.19-1.42,9.85,9.9,15.02,23.32,19.01,36.41,5.45,15.78,13.1,63.57-8.84,68.96-17.74,2.64-31.42-17.38-44.49-26.03-11.07-7.69-24.42-13.23-33.15-24.05-15.67-17.83-4.77-40.69,11.28-53.86h0Z"/>
          <path class="cls-6" d="M217.7,238.05c2.42,11.95,8.85,24.58,20.28,29.92.97.36,2.24.89,3.19,1.24,8.5,3,28.41,16.45,35.87,8.9,4.76-6.58,2.38-16.63.37-24.32-1.37-5.45-3.1-11.32-3.51-17.16-.43-5.26-.66-11.06-3.34-15.64-3.39-5.6-10.03-7.62-16.26-9.17-18.81-4.3-39.62,3.79-36.6,26.24h0ZM217.7,238.05c-3.33-22.59,17.7-31.61,37.05-28.72,9.99,1.3,19.78,5.59,22.16,16.37,1.23,4.49,1.43,9.2,2.15,13.72,1.8,10.66,6.98,21.45,5.09,32.7-4.66,24.84-31.02,4.78-43.59-1.55,0,0-3.13-1.44-3.13-1.44-11.19-6.14-17.41-18.97-19.73-31.09h0Z"/>
          <path class="cls-6" d="M195.83,229.28c-9.62,17.8-1.41,30.86,13.6,41.63,6.73,4.67,14.52,7.64,21.21,12.4,10.2,6.6,19.54,14.99,30.47,20.13,11.02,4.91,23.6-.51,30.11-10.08,13.06-17.7,6.05-38.21,7.43-58.42.57-15.97,12.57-45.79-3.24-56.35-13.48-7.49-32.6-1.57-46.51,2.77-23.42,7.7-42.64,25.7-53.07,47.92h0ZM195.83,229.28c10.37-22.35,29.36-40.66,52.54-49.41,14.6-5.19,34.02-11.9,48.82-4.24,21.32,13.04,3.4,50.88,6.36,71.65.59,12.08,2.16,25.58-2.68,37.38-5.87,16.64-23.35,29.67-40.92,21.5-11.16-5.73-20.07-14.46-30.19-21.55-6.53-4.99-14.09-8.28-20.73-13.12-6.61-4.84-12.52-11-15.79-18.58-3.52-7.74-1.18-16.44,2.59-23.62h0Z"/>
          <path class="cls-6" d="M312.4,124.11c2.14,15.67,22.66,21.81,35.45,15.47,3.35-1.51,5.95-3.83,8.5-6.51,5.02-5.15,9.29-11.07,11.03-18.06.92-3.46.99-7.01,1.02-10.6-.02-5.09.06-10.73-2.37-15.06-3.04-3.9-8.28-3.62-12.85-1.58-10.35,4.47-16.94,14.16-25.68,21.15-5.26,4.63-15.52,6.65-15.08,15.2h0ZM312.4,124.11c-.61-8.46,9.72-10.86,14.63-15.74,8.37-7.58,14.2-18.28,24.61-23.78,5.54-3.28,13.85-3.55,18.1,2.06,3.62,5.36,3.5,11.85,3.65,17.82-.08,3.92-.28,7.97-1.37,11.8-2.17,7.74-7.37,14.21-13.27,19.34-2.79,2.52-6.22,5.02-9.95,6.28-14.05,5.18-34.12-1.76-36.4-17.77h0Z"/>
          <path class="cls-6" d="M310.8,106.16c-6.96,5.45-13.07,13.34-10.15,22.64,1.49,5.65,4.98,10.75,9.72,14.14,2.34,1.64,5.03,3.03,7.57,4.47,7.57,3.81,15.62,8.52,24.27,7.27,8.44-1.68,14.72-8.17,20.24-14.54,11.22-13.19,19.23-29.18,23.06-46.04,6.53-32.99-8.85-41.73-36.87-24.85-15.57,8.96-24.09,25.77-37.85,36.92h0ZM310.8,106.16c9.13-7.68,15.94-17.4,23.66-26.39,9.38-10.54,23.9-20.82,38.38-21.9,3.14-.1,6.51.51,9.4,2.27,10.93,7.43,10.02,23.49,8,34.93-4.73,22.41-18.67,47.5-38.67,59.54-11.77,7.1-24.05.47-34.4-5.85-9.3-4.99-17.21-13.19-17.49-24.29-.27-7.78,5.44-13.77,11.12-18.3h0Z"/>
          <path class="cls-6" d="M315.26,78.65c16.61-19.36,37.11-38.64,63.74-41.04,13.41-1.3,26.95,1.71,33.98,14.32,2.28,3.74,3.85,7.83,5.16,11.97,2.66,8.26,4.29,17.24,2.08,25.84-2.03,8.58-6.94,16.05-11.71,23.29-9.59,14.51-21.74,27.19-34.77,38.64-12.67,11.41-28.06,20.4-37.9,34.39-14.47,22.01-9.76,49.79-14.66,74.67-3.89,17.18-8.22,34.24-17.51,49.47-4.71,7.53-11.2,14.5-19.63,18.45-8.38,3.79-18.41,5.14-27.09,1.55-8.42-3.44-15.12-9.46-21.72-15.35-6.34-5.9-12.82-11.16-20.01-15.92-14.19-9.82-30.41-17.81-41.19-31.92-20.43-26.65-13.77-62.27,12.72-81.95,17.26-13.17,38.69-19.49,55.87-32.69,13.29-11.02,22.77-25.95,35.76-37.36,7.84-7.42,16.08-14.42,23.62-22.14,2.93-3.19,10.25-10.97,13.24-14.22h0ZM315.26,78.65c-3.06,3.27-10.27,11.13-13.19,14.27-7.52,7.75-15.74,14.78-23.54,22.23-13,11.51-22.17,26.56-35.45,37.77-17.11,13.47-38.21,20.19-55.2,33.58-16.94,13.03-26.66,34.68-21.85,55.9,6.06,28.11,29.68,38.62,51.62,52.94,7.28,4.7,14.3,10.26,20.67,16.08,13.56,12.1,25.42,21.15,43.65,12.79,22.04-11.08,29.15-42.14,34.52-64.39,6.74-38.7-1.88-67.66,34.99-94.45,20.71-15.42,40.72-32.03,55.38-53.48,4.81-7.02,9.74-14.23,11.87-22.53,2.28-8.32.84-17-1.62-25.15-1.22-4.1-2.7-8.16-4.86-11.85-11.3-20.5-40.16-16.09-57.86-7.15-15.62,7.72-27.67,20.61-39.12,33.43h0Z"/>
          <path class="cls-6" d="M434.51-12.06c-1.19,6.79-4.85,12.78-7.22,19.14-8.24,21.76,5.1,38.73,11.16,58.66,10.84,39.7-21.67,82.09-49.09,107.77-14.92,13.79-31.13,26.99-37.57,46.8-2.28,6.33-3.97,12.9-5.49,19.53-2.96,13.28-5.98,26.56-7.35,40.1-2.46,25.88-2.27,55.91,16.5,75.93,9.31,9.5,21.49,15.98,32.28,24.85,10.83,8.87,18.92,20.74,25.18,33.17,12.68,24.87,14.9,54.89,6.43,81.53-3.36,10.02-9.3,19.88-18.06,26.13-5.98,4.16-13.35,6.16-20.55,6.57-17.7.52-34.88-5.75-49.94-14.66-23.75-14.85-40.6-38.4-52.69-63.23-2.96-6.25-5.66-12.61-8.06-19.1-4.82-13.27-6.17-27.11-9.13-40.24-2.93-12.9-7.65-25.87-16.26-36.04-13.14-15.27-33.04-23.34-50.14-33.83-24.49-14.1-42.39-36.73-51.01-63.62-4.12-13.29-6.17-27.67-2.57-41.38,3.19-10.03,7.5-19.83,14.77-27.57,7.34-7.34,16.16-12.59,23.3-20.12,19.14-19.11,36.49-40.86,47.3-65.82,14.13-35.07,19.21-86.3-7.15-116.77,23.35,26.23,22.65,65.45,15.13,97.84-4.59,20.17-14.5,38.79-26.56,55.45-10.16,13.86-21.44,26.93-34.29,38.4-5.18,4.42-10.85,8.26-15.5,13.15-6.77,7.28-10.87,16.94-13.78,26.32-4.72,19.67,1.62,40.4,10.91,57.85,13.36,25.84,34.48,39.56,59.46,52.67,12.08,6.71,24.35,13.88,33.52,24.57,9.17,10.78,14.2,24.34,17.32,37.92,3.06,13.5,4.46,27.13,9.07,39.64,2.36,6.33,5.02,12.55,7.93,18.65,11.76,23.96,28.07,46.79,51.02,61.06,16.48,9.46,37.59,17.52,56.59,12.35,3-.83,5.99-2.32,8.55-4.04,1.06-.61,2.65-2.19,3.68-2.97,0,0,1.68-1.76,1.68-1.76,14.15-15.57,16.34-38.32,15.56-58.54-1.5-23.24-11.96-45.89-27.28-63.34-11.66-12.56-27.37-19.43-39.79-32.06-9.97-10.22-15.04-24.13-17.13-37.96-4.1-27.6,1.26-55.15,7.67-81.88,3.21-13.38,7.1-27.12,15.48-38.37,8.33-11.23,19.05-20.05,29.07-29.24,10.08-9.13,19.29-19.19,27.39-30.09,15.61-21.29,29.53-48.32,22.34-75.25-3.52-13.13-11.24-25.18-12.88-38.87-.56-6.84.04-13.89,2.64-20.28,2.51-6.36,6.26-12.23,7.58-19h0Z"/>
          <path class="cls-6" d="M251.72-1.7c5.77-.55,9.87,22.1,10.53,26.96.42,3.29.15,6.86-.06,10.16-1.24,13.43-4.77,26.39-8.05,39.22-1.49,6.17-2.98,12.72-2.6,18.98,1.46,16.32,20.38-.78,25.85-6.41,14.39-13.89,24.55-31.79,40.44-44.28,8.12-6.24,17.31-10.8,26.82-14.39,19.7-7.54,47.72-14.63,55.37-36.63,2.02-6.22,1.78-13.02.45-19.51,4.37,13.53.81,27.49-9.86,37.01-15.03,13.76-35.52,18.51-53.41,27.01-5.85,2.85-11.41,6.24-16.46,10.25-15.15,12.15-25.52,30.44-39.91,44.01-4.87,4.68-9.86,9.38-16.41,12.56-5.28,2.7-13.5,2.83-16.04-3.71-3.04-8.57-.02-17.82,1.99-25.88,3.62-12.73,7.59-25.38,9.38-38.48.38-3.19.83-6.5.62-9.72-.35-4.63-3.25-27.48-8.66-27.14h0Z"/>
          <path class="cls-6" d="M275.4-7.62c1.87,3.4,1.67,7.53,1.43,11.28-.47,5.68-1.65,11.23-1.99,16.86.06,5.92.87,15.5,7.14,17.63,10.41,1.83,24.84-9.83,32.98-16.12,5.97-4.63,12.05-9.47,19.01-13.16,10.27-5.39,21.19-7.97,30.39-14.7,7-5.54,19.99-17.11,16.13-26.95,6.71,11.86-13.83,31.47-23.88,35.96-6.83,3.67-14.01,6.25-20.39,9.87-13.15,7.31-23.6,19.12-37.52,25.71-6.88,3.44-18.02,7.2-23.42-.79-4.35-7.33-4.02-15.55-2.29-23.4,1.29-7.3,4.67-14.83,2.41-22.19h0Z"/>
          <path class="cls-6" d="M297.6-6.14c-6.24,2.42-3.71,14.8.35,18.2,8.65,8.04,21.72-10.18,22.59-18.2,2.7,11.08-9.6,29.39-22.17,24.35-2.95-1.39-4.99-3.83-6.36-6.65-2.29-5.52-2.2-17.17,5.59-17.7h0Z"/>
          <path class="cls-6" d="M461.15-5.4c-11.22-10.15-16.68,17.18-14.29,24.28,1.34,5.85,4.23,11.19,7.07,16.56,5.9,10.75,10.31,22.68,10.82,35.08.3,18.46-2.98,37.08-10.33,54.13-9.78,22.83-27.71,40.75-45.22,57.68-12.72,12.72-26.47,24.87-35.1,40.73-8.18,14.93-11.01,34.87.16,48.96,9.77,11.8,26.88,14.37,36.47,26.7,0,0,2.97,3.68,2.97,3.68l2.63,3.95c13.93,21.78,8.22,48.43,6.79,72.57-.92,12.03,1.85,23.85,5.59,35.21,1.92,5.7,4.2,11.31,6.93,16.65,5.27,10.84,14.22,19.47,24.05,26.27,9.9,6.56,21.87,11.98,34,9.71-18.2,3.85-36.46-7.97-49.11-20.06-9-8.57-14.38-20.12-18.54-31.65-2.08-5.78-3.78-11.71-4.98-17.77-2.73-12.1-1.09-24.62-.35-36.8,1.29-17.58,1.68-36.44-8.26-51.72,0,0-2.46-3.63-2.46-3.63l-2.8-3.39c-9.75-11.86-27.01-14.43-36.75-26.66-16.84-21.31-6.31-51.5,9.9-69.77,23.35-27.67,55.32-48.52,70.56-82.25,7.41-16.28,10.98-34.53,11.03-52.44-.33-12.04-4.28-23.63-9.69-34.34-2.67-5.44-5.48-11.02-6.69-17.13-2.34-8.05,4.49-35.23,15.58-24.56h0Z"/>
          <path class="cls-6" d="M349.37,291.04c-2.42,12.97,3.01,26.01,9.32,37.08,6.6,11.3,17.03,19.44,26.09,28.61,2.96,2.83,6.1,5.76,9.67,7.51,1.66.8,3.28,1.13,4.27.61,5.84-3.89,5.81-21.33,3.91-27.71-3.14-12.44-11.89-22.59-21.43-30.87-4.68-3.33-28.89-26.14-31.83-15.23h0ZM349.37,291.04c2.25-8.73,18.05,3.94,22.08,6.51,20.76,13.62,41.53,31.23,36.4,58.84-.91,7.24-4.83,16.1-13.73,12.93-5.12-1.91-8.97-6.1-12.36-9.55-8.72-9.76-18.59-19.09-24.37-30.94-5.52-11.61-10.52-24.81-8.01-37.8h0Z"/>
          <path class="cls-6" d="M358.57,298.64c-.74,2.31-.29,4.78.08,7.11,1.2,7.06,4.39,13.66,8.85,19.2,3.54,4.47,18.14,21.02,21.25,9.47,0,0,.14-.61.14-.61l-.02-.67c-.48-6.47-5.68-12.16-9.72-17.08,0,0-9.67-10.68-9.67-10.68-2.48-2.59-5.02-5.17-7.93-7.27-.95-.74-2.54-.82-2.98.53h0ZM358.57,298.64c.46-1.36,2-1.31,3.01-.57,2.96,2.06,5.71,4.4,8.4,6.81,2.67,2.41,8.16,7.12,10.95,9.4,5.98,5.26,15.57,14.19,12.01,23.27-1.18,3.03-3.91,5.6-7.3,5.86-9.08.09-16.04-10.25-20.2-17.06-3.7-6.35-6.1-13.3-6.95-20.56-.25-2.35-.68-4.85.09-7.14h0Z"/>
          <path class="cls-6" d="M370.06,315.76c.78,2.52,2.41,3.83,4.1,5.09,1.3.87,2.75,1.86,4.22,2.17-.22-.12-1.21.44-1.36.95-.1.24-.14.4-.14.55-1.07-3.28-3.41-6.51-6.82-8.75h0ZM370.06,315.76c4.85-1.1,9.84,2.72,11.53,7.24.57,1.46.25,3.71-1.38,4.55-5.46,2.4-13.12-6.85-10.15-11.79h0Z"/>
          <path class="cls-6" d="M479.66,129.29c-9.33-2.94-17.59,7.98-23.43,13.84-9.8,9.41-16.69,20.9-23.62,32.54-7.91,13.47-18.89,24.77-29.24,36.33-5.24,5.68-10.5,11.25-14.1,17.64-3.64,6.28-4.56,13.78-2.98,20.66,1.67,7.1,7.03,12.15,13.35,15.59,9.82,5.59,21.88,8.68,31.25,15.85,16.02,13.09,18.95,36.21,15.57,55.45-1.07,7.6-1.98,15.2.08,22.27,3.16,11.36,13.31,22.31,25.95,19.47,6.64-1.45,10.69-7.51,13.5-13.35,1.71-3.44,3.16-7.04,4.77-10.56-1.37,3.62-2.58,7.29-4.08,10.87-3.19,7.98-8.9,15.32-18.26,15.44-16.68.43-27.23-17.8-26.72-32.86.02-7.8,1.66-15.46,1.83-23.12.18-11.01-2.31-22.63-8.38-31.83-8.56-13.45-24.79-15.65-37.99-23.26-7.2-3.88-13.82-10.48-15.63-18.8-5.23-22.57,13.42-36.1,26.53-50.9,7.92-8.36,15.62-16.87,21.78-26.63,7.26-11.36,14.89-22.98,25.24-31.9,6.34-5.8,15.08-16.27,24.58-12.72h0Z"/>
          <path class="cls-6" d="M481.88,397.93c-9.01,1.94-18.68.18-27.13-3.42-5.96-2.65-17.91-9.07-19.14,1.21-1.2,11.26,3.4,22.93,10.44,31.69,3.12,3.89,6.8,7.44,10.97,10.19,5.62,2.86,12.53,3.8,18.81,3.16,2.8-.35,5.74-1.22,7.26-3.46,1.62-2.45.63-5.74-.46-8.3.81,1.28,1.57,2.63,2.01,4.15,2.48,12.77-19.48,11.8-27.16,8.98-6.03-2.23-10.81-7.03-15.07-11.71-4.12-4.81-7.28-10.44-9.41-16.44-2.44-8.12-5.74-23.91,4.67-27.72,7.11-1.65,12.87,2.37,18.49,5.29,7.92,4.17,16.64,6.66,25.74,6.37h0Z"/>
          <path class="cls-6" d="M476.7,412.73c-5.36-4.21-12.97-5.24-19.56-4.91-6.46.53-9.84,3.16-6.24,9.51,4.79,6.23,20.9,9.34,27.41,4.24,2.97-2.58.65-6.61-1.61-8.84h0ZM476.7,412.73c7.82,7.61.34,12.46-7.59,13.86-7.28,1.25-15.92.55-21.35-5.19-4.58-5.22-4.18-14.53,3.76-15.93,5.51-.97,10.93.73,15.96,2.47,3.22,1.26,6.6,2.47,9.21,4.78h0Z"/>
          <path class="cls-6" d="M481.88,147.79c-15.51-.72-23.6,28.71-32.38,38.92-5.29,7.29-11.53,13.7-17.45,20.2-5.54,6.35-12.23,12.15-14.81,20.4-3.89,11.03-1.33,26.34,10.34,31.35,7.72,3.34,16.65,1.21,24.61-.86,8.9-2.45,17.7-5.8,25.47-10.85,1.22-.9,2.75-1.96,3.84-3.04,1.68-1.41,3-3.16,4.08-5.1-3.56,8.35-12.32,13.05-19.99,17.09-11.66,5.1-26.87,11.73-39.69,6.81-14.26-5.57-18.03-23.71-13.4-36.99,2.82-8.87,9.99-15.41,16.11-22.05,6.17-6.36,12.35-12.58,17.81-19.33,8.97-9.93,19.52-39.12,35.47-36.55h0Z"/>
          <path class="cls-6" d="M477.44,181.09c-9.12,16.31-30.34,21.31-40.31,36.66-7.41,12.18-6.46,20.84,9.73,20.13,11.4.07,46.03-10.31,41.68-25.72,3.29,6.15-1.89,12.69-6.45,16.54-9.95,8.06-22.21,12.76-34.99,13.91-20,1.39-24.21-12.17-13.91-27.49,11.11-16.12,32.13-19.21,44.25-34.05h0Z"/>
          <path class="cls-6" d="M477.44,201.81c-8.41-2.33-23.8,10.18-18.98,18.8,3.59,4.85,26.47-10.67,22.68-15.84,2.74,2.24.18,6.36-1.22,8.7-4.45,6.34-14.39,15.46-22.84,12.28-3.47-1.56-4.54-5.8-4.44-9.01.31-10.22,15.81-20.37,24.8-14.94h0Z"/>
          <path class="cls-6" d="M485.58,283.96c-7.39-4.04-12.47-13.97-22.18-9.39-10.1,5.6-2.5,22.51-1,31.34,2.57,11.92-.12,24.18,1.57,35.97.94,4.9,4.24,7.57,8.87,5.92,7.36-3.42,12.2-16.04,12.74-23.88.72,6.12-.94,12.31-3.44,17.91-2,4.17-5.43,9.2-10.55,9.94-8.36,1.74-12.38-6.64-12.7-13.67-.71-10.58.52-21-1.3-31.32-1.07-5.82-3.19-11.83-3.44-17.96-.55-6.31,1.1-14.86,7.95-17.25,3.12-1.19,6.78-1.3,9.88-.02,6.1,2.45,8.68,8.68,13.59,12.4h0Z"/>
          <path class="cls-6" d="M480.4,484.51c-9.27-6.63-24.35-16.26-34.8-7.87-5.59,5.35-6.96,13.28-9.04,20.74-1.57,5.85-3.47,12.24-7.05,17.58-2.66,4.11-6.76,7.13-9.91,10.6-7.69,8.13-.58,12.07,7.89,11.18,2.64-.23,5.29-.79,7.77-1.91-2.22,1.59-4.84,2.64-7.54,3.28-5.53,1.46-14.18.87-14.63-6.57-.26-6.07,5.51-10.54,9.06-14.64,9.49-9.99,8.75-24.6,15.05-36.59,10.09-19.57,32.42-8.28,43.2,4.21h0Z"/>
          <path class="cls-6" d="M456.71,529.66c-14.26-2.39-18.29-20.41-9.83-30.97,3.38-4.35,7.07-10.26,13.26-10.64,7.81.73,18.89,13.72,19.96,21.24.07.89,0,1.86-.46,2.61.66-6.08-12.73-16.54-17.93-18.77-3.01-1.39-5.83,2.47-7.82,4.61-9.8,9.87-10.65,24.8,2.81,31.92h0Z"/>
          <path class="cls-6" d="M464.85,525.96c-8.45-2.14-7.73-16.7.9-18.26,7.81-.18,10.83,10.79,12.42,16.78-3.77-3.22-6.14-7.41-9.59-10.57-1-.92-2.03-1.37-2.28-1.24-4.35,2.18-5.04,9.35-1.45,13.29h0Z"/>
          <path class="cls-6" d="M309.35,319.28c-1.84,9.3-9.38,15.76-15.25,22.64-8.92,10.21-16.51,22.28-18.42,35.76-.88,6.84,1.33,11.53,8.81,10.32,6.53-1.82,9.11-8.02,14.79-12.52,5.78-4.84,14.01-3.27,20.55-5.46,12.28-3.37,9.67-17.34,8.3-27.3-.61-4.6-1.01-9.21-1.39-13.81-.52-3.93-.31-9.86-1.73-13.57-4.98-13.63-14.51-8.02-15.67,3.95h0ZM309.35,319.28c1.03-12.32,10.8-17.76,16.33-4.19,1.6,3.72,1.83,9.66,2.57,13.64.68,4.55,1.44,9.08,2.37,13.57,2.78,12.01,5.55,26.88-9.23,32.04-5.96,2.63-14.39,1.07-19.03,5.08-4.95,3.87-9.5,11.9-17,13.07-18.91,1.73-14.11-17.93-8.33-28.71,4.17-8.45,10.19-15.68,16.55-22.33,6.22-6.59,13.81-12.87,15.77-22.17h0Z"/>
          <path class="cls-6" d="M310.09,339.29c-2.96,1.72-4.98,4.52-7.16,7.1-2.25,2.57-4.51,5.08-6.4,7.81-1.51,2.22-5.42,8.04-2.72,10.01,1.92.5,5.39-1.01,7.39-2.05,5.19-3.14,11.89-6.37,13.66-12.63,1.19-3.74,1.69-13.45-4.76-10.25h0ZM310.09,339.29c6.35-3.35,6.6,6.5,6.25,10.51-.63,7.4-6.99,12.67-12.72,16.56-3.49,2.01-7.68,3.95-11.81,2.26-2.52-1.21-3.6-4.09-3.2-6.65,1.67-7.47,8.67-11.32,13.83-16.04,2.49-2.25,4.7-4.94,7.65-6.63h0Z"/>
          <path class="cls-6" d="M25.37,340.83c-.39,2.6-1.35,9.15-1.73,11.65-2.5,12.6,4.33,23.16,16.18,27.39,8.5,3.35,17.94,4.1,26.52,7.46,6.99,2.44,22.49,17.19,28.78,11.31,2.77-2.84,2.62-7.94,1.33-12.57-2.66-9.73-8.45-18.56-13.92-27.11-10.94-16.57-24.4-35.68-43.76-42.58-11.66-1.86-11.21,16.81-13.4,24.45h0ZM25.37,340.83c2.16-7.99,1.47-26.73,13.52-25.15,20.24,6.05,35.13,24.44,47.22,40.85,6.02,8.58,12.13,17.52,15.18,28.27,2.09,6.86,1.27,17.7-7.29,19.72-4.6.88-9.03-1.35-12.7-3.4-4.71-2.74-8.81-6.12-13.04-8.99-8.85-5.66-19.62-6.27-29.05-10.82-11.8-5.07-18.43-16.07-15.7-28.84.39-2.48,1.46-9.08,1.87-11.64h0Z"/>
          <path class="cls-6" d="M14.9,315.78c0,22.05-12.2,46.13-.13,66.79,7.42,13.3,23.8,14.94,37,19.24,11.97,3.93,23.2,10.04,33.61,17.01,4.98,3.16,9.62,7.45,15.32,9.21,20.03,5.24,16.29-28.63,12.78-40.1-2.11-7.82-5.08-15.38-9.22-22.36-8.19-14.21-17.91-27.64-29.29-39.55-5.77-5.98-11.3-12.2-16.83-18.36-5.63-6-10.82-12.64-17.32-17.68-8.52-7.13-21.38-1.95-25.7,7.42-2.52,5.9-.81,12.28-.21,18.39h0ZM14.9,315.78c-.65-6.1-2.41-12.5.07-18.44,2.52-5.73,8.31-9.74,14.34-11.04,4.19-.85,8.49.68,11.9,3.1,6.73,4.97,12.18,11.31,18.08,17.18,5.77,5.97,11.5,11.94,17.46,17.67,11.97,11.66,22.43,24.86,31.22,39.12,8.82,14.57,14.05,31.48,13.19,48.71-.64,12.16-7.63,25.07-21.85,20.46-6.25-2.02-11.05-6.57-16.37-10.17-13.34-9.74-27.96-17.24-43.92-21.6-18.68-5.29-29.29-15.57-30.14-35.63-.48-16.79,5.72-32.71,6.01-49.35h0Z"/>
          <path class="cls-6" d="M-.93,301.67c.32,6.25-2.23,11.97-4.49,17.64-2.01,5.78-3.15,11.82-3.95,17.88-2.08,21.43-2.24,53.14,12.33,70.2,8.12,9.26,20.67,12.16,32.21,15.08,12.1,2.82,23.32,8.94,33.23,16.31,9.94,7.32,19.12,15.55,28.89,22.5,4.82,3.29,10.26,5.86,15.84,6.76,12.35,2.31,20.68-7.06,22.67-18.67,1.65-8.64.98-17.74-.52-26.48-1.47-8.96-3.38-17.87-5.89-26.59-3.33-11.6-7.7-22.94-13.84-33.24-4.67-7.77-10.3-15.34-14.44-23.58-6.54-13.91-11.69-28.37-18.29-42.16-10.27-20.59-24.03-46.57-49.93-47.77-12.15-.45-24.41,5.96-30.79,16.34-3.08,5.28-4.54,11.42-4.67,17.51-.03,6.13,1.51,12.14,1.63,18.27h0ZM-.93,301.67c-.15-6.13-1.72-12.12-1.73-18.27.1-6.11,1.53-12.28,4.61-17.61,6.4-10.56,18.6-17.22,30.97-16.95,26.37.68,41.22,26.64,52.17,47.37,6.96,13.65,12.48,27.95,19.3,41.57,4.32,8.09,9.98,15.13,14.86,23.03,6.54,10.65,11.29,22.26,14.78,34.14,4.7,18,9.97,36.66,6.6,55.39-5.08,25.17-26.82,28.2-45.79,14.46-19.53-14.58-35.97-33.81-60.3-39.92-5.89-1.63-11.87-3.27-17.58-5.73-19.08-7.31-25.44-26.52-27.01-45.3-1.05-12.21-1.08-24.53.51-36.69.84-6.06,2.01-12.11,4.05-17.89,2.29-5.66,4.86-11.36,4.57-17.61h0Z"/>
          <path class="cls-6" d="M183.75,398.28c3.28,5.1,6.36,10.38,8.58,16.03,2.32,5.41,6.81,9.95,12.24,12.01,5.18,2.12,11.07.22,14.41-3.96,3.24-3.79.98-9.24-2.52-13.63-7.29-9.58-19.38-15.09-24.77-26.27-1.59-2.52-3.08-5.12-5.78-5.84-2.92-.94-5.13,1.8-5.79,4.44-1.6,5.91.58,12.11,3.63,17.21h0ZM183.75,398.28c-3.74-6.19-7.16-15.19-2.25-21.66,4.19-4.16,9.8.7,12.27,4.42,4.25,6.26,10.2,10.6,16.36,14.83,6.42,4.9,12.65,10.6,14.82,18.83,2.8,11.42-12.2,19.32-21.37,13.9-5.68-2.92-9.84-8.14-11.89-14.02-1.82-5.85-4.72-11.12-7.94-16.3h0Z"/>
          <path class="cls-6" d="M195.01,404.67c-.29,8.46,6.84,10.39,13.72,11.08.47.05.9.02,1.15-.03.29-.05.16-.18-.11.07-.23.24-.17.38-.2.09-.67-4.58-1.31-9.35-4.79-12.52-3.32-2.93-9.25-5.36-9.76,1.31h0ZM195.01,404.67c.26-6.76,6.59-5.31,11.15-3.41,4.74,2.06,7.55,7.53,8.14,12.43,1.36,7.41-4.66,7.84-9.82,4.87-5.67-2.12-10.09-7.7-9.47-13.88h0Z"/>
          <path class="cls-6" d="M148.25,376.49c8.23,8.34,18.09,15.46,23.43,26.22,7.95,16.68,11.42,32.5,27.97,42.96,6.87,4.48,15.4,7.15,22.62,2.82,10.46-7.1,15.6-24.78,13.4-36.93-1.72-11.31-9.7-20.14-19.04-26.39-9.66-6.56-20.57-11.22-30.66-17.18-7.35-4.87-15.68-8.18-24.62-7.58-7.9,0-20.61,7.47-13.1,16.08h0ZM148.25,376.49c-7.65-8.64,5.14-16.19,13.08-16.5,8.96-.85,17.79,2.14,25.41,6.63,10.46,5.46,21.57,9.5,31.76,15.67,11.48,6.68,20.59,17.06,22.36,30.71,1.11,11.62-2.05,23.53-9.07,32.99-14.17,18.67-36.45,4.67-46.68-10.42-6.89-9.91-9.12-21.79-14.05-32.53-4.88-10.87-14.7-18.19-22.8-26.53h0Z"/>
          <path class="cls-6" d="M147.37,346.6c-3.98-.19-8.51.6-11.01,4-2.69,3.06-4.29,6.99-4.66,11.03-.61,8.18,2.64,16.06,6.33,23.19,7.63,14.48,20.11,25.8,27.52,40.47,7.77,14.04,14.56,29.2,26.75,39.85,8.48,7.52,19.83,13.76,30.98,9.85,18.89-7.66,23.93-30.65,24.33-49.24.11-7.96-.39-16.11-2.06-23.84-3.68-15.35-13.26-29.98-27.31-37.69-7.09-3.89-15.27-5.36-23.14-7.03-8-1.56-16.03-3.16-23.85-5.49-7.83-2.24-15.73-4.46-23.88-5.09h0ZM147.37,346.6c8.15.57,16.08,2.74,23.93,4.91,7.85,2.24,15.89,3.59,23.93,4.99,8.04,1.51,16.31,2.58,23.74,6.32,18.82,9.46,30.25,29.96,32.17,50.54,2.71,23.82-.77,55.99-26.21,66.26-12.9,4.63-26.33-2.57-35.53-11.3-12.34-11.45-18.67-27.26-26.05-41.85-5.21-11.11-12.98-20.55-19.82-30.68-6.39-10.22-12.84-21.74-12.03-34.18,1.02-8.59,6.44-16.04,15.87-15.01h0Z"/>
          <path class="cls-6" d="M340.52,555.56c-5.42-7.83-13.52-12.97-21.14-18.42-7.67-5.52-14.53-12.09-21.04-18.89-13.44-13.4-23.79-29.75-30.07-47.69-6.29-17.93-7.43-37.19-8.73-55.91-1.32-19.46-6.99-35.89-22.25-48.61-28.19-25.78-62.89-17.11-95.73-29.38-24.56-9.16-33.5-28.81-41.46-51.79-3.25-8.64-6.6-17.22-12.1-24.65-5.24-7.39-12.69-12.86-20.79-16.89-15.96-7.76-34.92-13.98-52.71-10.35-8.58,2.14-16.22,7.81-21.94,14.53-6.16,7.29-10.43,16.34-10.77,25.74-.02,3.08-.24,9.18-.28,12.35-.35,14.19-.96,28.38-3.11,42.47-1.39,9.36-3.76,18.47-5.37,27.76-4.43,26.23-8.33,57.94,9.83,79.85,12.18,13.88,29.33,23.16,47.56,26.72,4.58.99,9.23,1.87,13.82,3.13,32.77,9.33,52.28,41.63,63.91,71.53-3.63-8.67-7.71-17.17-12.61-25.19-9.57-15.93-22.23-30.73-38.88-39.39-8.19-4.44-17.48-5.91-26.73-7.67-18.7-3.39-36.56-12.72-49.44-27.03-19.31-22.67-15.88-55.33-11.59-82.67,1.51-9.27,3.89-18.41,5.22-27.68,1.36-9.21,2.08-18.52,2.47-27.87.44-9.23.39-19.02.78-28.27,1.85-19.65,17.08-37.68,35.98-42.94,9.67-2.33,19.56-1.24,29.08.8,14.07,3.34,27.82,8.65,39.41,17.51,1.66,1.52,4,3.34,5.41,5.03,8.44,8.74,13.25,20.34,17.34,31.54,6.01,17.26,12.96,35.36,29.48,44.77,34,19.28,72.6,4.51,105.79,35.19,15.83,13.56,21.73,30.95,22.84,51.22,1.07,18.73,1.96,37.52,7.9,55.39,5.82,17.76,15.74,34.1,28.72,47.57,6.35,6.91,13.02,13.55,20.52,19.19,7.46,5.64,15.5,11.06,20.69,19.02h0Z"/>
          <path class="cls-6" d="M134.05,531.88c-7.34,2.46-18.06-20.97-17.6-27.06-1.39-15.05,12.73-17.82,23.77-21.75,4.99-1.99,8.55-5.88,10.88-10.6,3.94-7.96,10.1-7.15,17.2-3.88,14.11,5.5,17.5,22.45,28.03,31.51,6.05,4.9,14.73,4.66,21.98,2.71,5.27-1.39,8.82-5.03,12.38-9.11,7.14-9.73,22.37-16.39,31.57-5.41,9.61,11.78,9.33,37.57-.92,48.77,1.8-2.18,2.99-4.76,3.86-7.4,4.97-13.37,1.84-48.6-18.97-42.53-8.34,2.23-11.95,10.55-18.36,15.82-8.89,7.32-25.44,8.41-34.64,1.01-11.09-8.79-14.16-26.18-26.96-31.1-2.32-1.14-4.91-2.07-7-2.07-2.22-.02-3.2,2.09-4.4,3.91-6.85,13.45-17.42,11.91-28.96,17.44-10.89,5.4-7.03,19.61-2.64,28.32,1.94,3.65,5.8,12.39,10.77,11.43h0Z"/>
          <path class="cls-6" d="M153.29,535.58c-14.36-9.4-17.69-44.93,3.8-47.65,17.97-.32,24.33,33.9,22.84,47.65-1.86-12.15-7.65-33.83-17.65-41.26-3.2-2.19-6.8-1.63-9.9.45-10.4,7.8-7.68,32.17.91,40.81h0Z"/>
          <path class="cls-6" d="M162.17,528.92c-4.23-4.49-7.21-12.07-3.91-18.17,1.11-2.36,4.18-3.66,6.49-1.86,6.91,6.71,6.68,18.23,4.09,26.69-1.59-7.79-2.44-16.56-6.91-22.67.33.21,1.01-.28.65-.05-3.24,4.69-1.59,10.41-.4,16.05h0Z"/>
          <path class="cls-6" d="M225.08,528.92c.79-9.82,8.18-23.16,16.6-28.7,6.81-4.48,14.34.23,15.54,7.82,1.51,9.62-1.84,19.65-8.01,26.99-2.44,2.7-6.29,5.43-10.06,4.24,10.88-.24,17.26-26.75,11.54-34.08-6.98-8.78-23.8,17.59-25.6,23.72h0Z"/>
          <path class="cls-6" d="M-67.25,412.73c15.03-11.32,32.18,22.59,37.81,33.13,6.27,12.07,14.16,22.87,27.35,26.96,21.5,7.12,46.9,8.11,64.52,24.07,6.92,6.43,12.81,14.47,14.63,23.93,1.8,9.07-1.61,21.31-12.59,21.42,10.09-1.15,12.52-12.57,10.18-20.92-2.2-8.55-8.2-15.82-14.8-21.49-6.81-5.85-15.11-9.26-23.6-11.9-8.58-2.7-17.53-4.48-26.51-6.64-9.06-2.31-18.69-4.64-26.16-10.73-7.57-5.96-12.38-14.5-16.48-22.91-5.23-10.34-19.39-44.24-34.35-34.91h0Z"/>
          <path class="cls-6" d="M-62.07,477.11c-2.64-14.05,14.59-13.09,23.21-8.88,9.3,4.17,14.99,14.32,22.77,19.59,5.2,3.66,11.55,4.39,17.82,4.89,6.51.58,13.3.56,20.17,1.95,13.39,2.06,29.59,15.97,21.14,30.4-3.85,6.12-10.99,8.66-17.79,9.03,0,0,2.42-.64,2.42-.64,1.46-.23,3.25-1.2,4.65-1.67,0,0,2.13-1.2,2.13-1.2,12.25-7.47,8.96-21.21-2.5-27.39-9.24-5.48-19.98-4.6-30.62-5.5-6.89-.6-14.4-1.67-20.14-6.01-8.23-5.9-12.74-15.58-21.51-20.53-7.55-4.25-22.43-7.06-21.75,5.95h0Z"/>
          <path class="cls-6" d="M-.64,525.22c-3.11-7.29-.85-17.9,5.45-23.06,5.49-4.29,12.14.31,14.69,5.62,5.4,12.88-5.93,25.4-10.51,36.69.22-5.51,3.24-12.87,4.84-18.15,1.47-5.18,3.53-11.44,1.19-16.31-7.62-14.18-16.96,7.08-15.65,15.22h0Z"/>
          <path class="cls-6" d="M9.28,11.63C4.87,16.91.33,23.48,1.51,30.67c.47,3.49,2.21,6.61,3.61,9.92,2.35,6.59,6.37,12.5,11.17,17.54,5.85,6.37,16.87,14.54,23.88,5.72,4.64-4.62,7.33-10.9,7.48-17.56.29-13.52-7.18-27.65-18.72-35.09-5.87-3.88-14.25-4.82-19.65.43h0ZM9.28,11.63c12.37-10.71,28.55,2.92,35.68,13.75,3.99,6.11,6.77,13.28,7,20.93.38,9.67-4.59,19.8-13,24.8-5.65,3.19-12.89.63-17.37-2.86-8.86-6.98-14.91-16.49-17.88-27.13C-1.6,28.64.53,21.66,9.28,11.63h0Z"/>
          <path class="cls-6" d="M-11.71,8.67c-9.29,17.65-2.43,37.13,9.31,51.72,3.71,4.96,7.92,9.47,11.9,14.33,7.59,8.74,21.46,27.92,34.48,23.24,10.62-5.24,13.59-18.67,13.57-29.74-.28-21.12,2.92-43.94-8.73-62.78-4.58-7.72-11.88-14.59-21.06-15.69-2.95-.47-6.21-.27-9.16.17C6.01-8.53-5.84-3.18-11.71,8.67h0ZM-11.71,8.67C-5.06-5.33,10.95-10.79,25.51-11.53c10.66-.06,19.83,6.99,25.43,15.62,13.12,19.25,11.2,42.09,11.52,64.16.21,12.85-3.84,28.29-16.81,33.97-10.35,3.84-19.82-4.26-26.34-11.27-8.33-9.5-15.49-19.49-22.98-29.63C-14.55,46.2-21.15,26.11-11.71,8.67h0Z"/>
          <path class="cls-6" d="M-63.55,7.18c2.27,4.09,6.21,6.74,9.44,10.08,15.84,17.25,18.67,42.31,31.03,61.57,12.53,19.32,35.28,34.87,59.06,30.63,27.84-5.59,28.01-23.55,29.58-47.85,1.73-18.18,4.21-36.61.77-54.57-3.21-18.75-16.01-32.16-35.58-31.79-4.46.03-9.01.67-13.65,1.12-18.31,1.04-36.93,1.51-54.69,6.78-8.66,2.71-35.41,11.61-25.96,24.03h0ZM-63.55,7.18c-10.36-12.44,16.61-22.7,25.37-25.83,15.42-5.17,31.9-6.96,48.11-7.84,6.96-.31,13.6-1.86,20.72-2.11,21.66-1.01,36.53,14.08,40.32,34.7,3.73,18.55,1.25,37.48-.43,55.94-1.58,26.24-3.24,46.15-33.77,51.94-25.49,4.38-49.7-12.47-62.52-33.48-12.25-19.82-13.79-44.65-28.92-62.73-2.98-3.44-6.84-6.37-8.88-10.58h0Z"/>
          <path class="cls-6" d="M128.92,78.53c.53,9.99,6.69,18.49,17.38,17.72,8.73-.15,12.1-7.41,9.25-15.03-2.24-5.34-4.81-10.64-7.35-15.82-1.96-3.58-3.88-8.49-8.08-9.3-8.65.04-11.95,15.46-11.2,22.43h0ZM128.92,78.53c-.94-8.53,2.83-29.81,15.41-23.83,3.42,1.95,5.64,5.49,7.63,8.58,2.89,4.68,5.41,9.47,7.57,14.49.48,1.16.95,2.58,1.25,3.81,2.33,9.8-4.23,18.51-14.55,17.16-11.26-.86-16.78-9.79-17.3-20.21h0Z"/>
          <path class="cls-6" d="M139.03,81.23c.27,1.51,1.2,2.97,2.5,3.66,2.42,1.34,5.04-.93,4.39-3.25-.2-.96-.61-1.73-1.35-3.2-.96-1.96-1.7-3.71-3.02-5.21-.47-.42-1.14.66-1.51,1.26-1.04,2.03-1.34,4.47-1.02,6.74h0ZM139.03,81.23c-.2-3.2-1.96-9.73,2.23-11.01,5.82-.72,11.73,10.08,7.65,14.67-3.76,4.24-9.26,1.2-9.88-3.66h0Z"/>
          <path class="cls-6" d="M141.32,41.81c8.72,2.1,16.07,8,22.72,13.8,13.54,12.19,23.57,33.06,10.85,49.37-6.22,7.42-15.57,11.75-25.28,12.03-14.95-.5-25.52-13.16-31.57-25.6-3.93-8.16-6.86-17.44-5.31-26.58,2.19-12.92,14.8-25.78,28.58-23.01h0ZM141.32,41.81c-13.6-2.68-25.85,10.4-27.08,23.21-.96,13.06,6.35,25.6,14.38,35.33,5.39,6.03,12.77,11.6,20.99,11.66,9.99-.22,20.83-5.67,25.45-14.83,6.73-14.36-1.12-30.56-11.5-41.07-6.3-6.09-13.56-12.12-22.23-14.3h0Z"/>
          <path class="cls-6" d="M98.58,34.59c-7.2,11.66-5.61,26.69-.81,38.95,1.92,5.55,6.97,12.42,10.13,17.37,7.34,11.08,14.95,22.45,25.09,31.06,7.84,6.64,16.03,9.79,26.17,7.05,19.43-5.68,30.34-29.46,32.01-48.36-.51-15.2-10.56-28.41-21.28-38.59-11.46-10.97-26.34-18.64-42.36-19.4-10.78-.71-22.69,2.48-28.94,11.92h0ZM98.58,34.59c7.8-11.86,23.54-13.74,36.55-11.73,20.48,2.84,38.23,16.05,50.51,32.28,5.35,7.26,9.68,16.14,10.01,25.48-.83,17.94-9.87,38.68-25.43,48.6-6.12,3.92-13.47,5.61-20.74,5.04-7.27-.83-13.53-4.96-18.75-9.71-10.09-9.4-17.18-21.15-24.16-32.81-2.96-5.16-7.65-12.3-9.46-17.95-4.4-12.48-5.83-27.55,1.46-39.2h0Z"/>
          <path class="cls-6" d="M132.61-2.09c35.93,4.44,68.11,36.54,76.91,71.08,10.79,39.82-10.61,86.31-57.23,79.79-26.93-4.38-50.11-23.73-61.97-47.91-8.17-16.76-11.58-35.51-11.16-54.05.77-18.13,9.81-37.44,26.44-45.93,8.38-4.05,17.96-4.17,27.01-2.98h0ZM132.61-2.09c-9.04-1.13-18.61-.94-26.93,3.15-16.33,8.54-24.86,27.97-24.95,45.8.19,18.04,4.17,36.45,12.65,52.43,12.14,22.47,34.14,40.43,59.63,44.55,43.08,6.22,62.77-37.43,54.08-74.29C199.3,34.66,168.78,2.64,132.61-2.09h0Z"/>
          <path class="cls-6" d="M174.01-14.29c-9.43,10.84,17.21,22.51,23.12,29.36,4.87,4.56,9.06,9.72,13.23,14.89,3.43,4.6,4.92,10.33,8.4,14.75,1.28,1.53,2.08,2.27,3.53,2.33,1.3.1,2.28-.34,2.78-1.63,1.18-3.57.33-7.51-.46-11.46-.93-4.05-2.2-8.15-3.95-11.93-2.66-5.39-7.3-8.95-11.46-13.38-2.5-2.66-4.86-5.73-5.83-9.31-2.05-5.82-2.74-15.79-10.87-15.1,10.52-2.02,10.73,12.68,15.55,18.46,4.46,5.39,10.79,9.05,14.93,14.94,3.07,4.58,4.76,9.94,6.24,15.22,1.09,4.66,2.08,9.64.42,14.4-1.27,3.7-5.63,5.61-9.34,4.54-2.69-.75-4.21-2.5-5.43-4.02-3.55-4.54-5.27-10.45-8.22-14.93-1.77-2.37-3.71-4.91-5.56-7.21-3.24-3.99-6.55-7.93-10.35-11.35-6.36-5.54-27.19-19.43-16.74-28.56h0Z"/>
          <path class="cls-6" d="M104.23,242.42c14.11,7.34,12.19,18.27,18.22,30.48,1.51,2.79,3.83,4.98,6.72,5.23.75,0,1.23-.2,1.7-.6,5.81-7.27-4.35-23.52-8.5-30.46-2.7-3.85-5.36-8.31-9.32-10.96-2.06-1.2-4.79-.69-6.81.44-2.07,1-4.1,3.92-2.01,5.88h0ZM104.23,242.42c-2.12-1.94-.11-4.94,1.92-6.04,2.11-1.29,4.86-2.05,7.22-.91,4.46,2.44,7.58,6.43,11.01,10.08,6.38,7.81,13.24,16.71,13.24,27.37-.24,7.41-6.25,12.69-13.18,8.14-4.89-3.27-6.12-8.91-7.1-14.08-1.52-10.96-2.62-18.91-13.12-24.56h0Z"/>
          <path class="cls-6" d="M101.64,215.47c17.41-5.49,28.92,15.63,34.18,29.12,3.8,10.22,5.59,21.04,9.99,31.01,3.83,6.94,9.22,13.56,13.31,20.58,2.18,3.79,4.53,7.72,4.96,12.36.13,3.63-1.59,7.59-4.98,9.26-4.75,2.16-9.94-.15-13.93-2.17-9.89-5.54-18.34-13.07-25.65-21.67-8.07-11.28-14.57-23.39-20.76-35.73-2.01-4.36-5.42-10.43-6.79-15.02-3.57-10.24-2.31-24.15,9.67-27.74h0ZM101.64,215.47c-11.97,3.83-12.96,17.32-9.01,27.51,1.48,4.43,5.3,10.31,7.52,14.49,2.71,4.75,5.5,9.45,8.4,14.06,5.89,9.03,11.51,18.35,19.65,25.53,4.43,4.06,28.18,24.76,30.88,13.05.42-1.56-.09-2.94-.61-4.61-3.96-10.6-12.36-19.79-16.55-30.51-3.19-9.79-4.63-20.1-7.58-29.91-4.39-13.83-15.09-34.86-32.7-29.62h0Z"/>
          <path class="cls-6" d="M-59.85,348.34c4.63,2.73,8.93-3.49,11.51-6.62,9.43-11.7,11.24-26.77,10.9-41.38.53-25.01-3.74-55.09,13.23-75.87,20.44-22.78,53.12-10.3,78.78-6.95,24.08,2.34,31.15-21.28,22.26-40.14-6.4-12.82-20.21-19.8-33.56-23.41-23.4-5.91-49.36-6.5-66.91,12.65-3.38,3.4-6.17,7.47-8.86,11.44-5.58,8.07-11.16,16.25-17.8,23.59-5.94,6.44-16.42,16.68-25.1,9.04,14.59,11.57,33.97-23.96,40.85-33.98,10.63-18.22,27.71-29.87,49.15-30.18,27.39-.77,64.76,8.45,70.1,39.85,3.77,18.44-6.58,36.35-26.66,36.22-5.09.1-10.12-1.06-15.07-1.96-18.39-3.33-38.71-9.41-55.97.19-25.4,15.22-20.72,53.86-22.01,79.55-.18,14.66-2.71,30.39-12.75,41.81-2.86,3.18-7.51,9.1-12.1,6.16h0Z"/>
          <path class="cls-6" d="M61.63,142.31c18.43,2.69,26.86,16.23,34.58,31.67,4.61,10.15,11.21,23.24,24.11,21.37,1.04-.25,2.63-.5,3.61-.92,2.36-.77,4.7-2.08,6.77-3.42,3.04-1.95,6.33-5.03,8.84-7.64,3.63-4.15,10.38-8.8,10.42-14.45-.15-2.08-1.52-3.96-3.05-5.48-5.61-5.22-13.2-8.55-20.28-11.46-7.48-2.74-16.21-5.61-21.99-11.78-9.01-9.77-18.66-21.05-33.38-18.88-5.17.8-10.87,2.88-13.59,7.65-3,4.76-2.03,11.65,3.95,13.33h0ZM61.63,142.31c-6-1.59-7.11-8.61-4.11-13.42,4.33-7.29,14.01-9.27,21.91-8.46,11.39,1.27,19.43,10.31,27.29,17.64,5.97,5.59,13.58,7.29,21.38,9.86,9.21,3.56,19.38,7.17,25.25,15.69,5.6,9.18-4.5,17.3-10.42,23.05-5.06,4.93-10.93,9.6-17.85,11.48-11.1,3.24-20.06-2.57-25.25-12.24-6.49-13.19-10.64-28.72-23.14-37.72-4.38-3.35-9.76-4.68-15.04-5.87h0Z"/>
          <path class="cls-6" d="M82.88,144.78c1.33,2.2,4.33,1.92,6.29,3.28,2.13,1.18,3.93,2.89,5.57,4.66,3.22,3.6,6.94,6.63,10.53,9.88l5.4,4.81c2.68,2.75,12.73,8.77,8.58.2-1.39-2.74-4.01-5.84-5.98-8.4-3.55-4.73-7.24-9.33-11.71-13.2-1.78-1.55-3.68-2.9-5.74-4.14-3.11-1.65-5.94-4.3-9.48-4.92-4.3-.67-5.15,4.92-3.45,7.84h0ZM82.88,144.78c-1.75-3.07-1-8.61,3.48-8.26,1.25.05,2.47.44,3.57.96,4.38,2.16,9,3.81,13.13,6.5,6.12,3.78,11.49,9.6,16.18,15,2.5,3.02,5.18,6.31,5.88,10.53.64,6.89-5.96,8.95-11.03,5.45-4.03-2.31-7.6-7.21-10.58-10.61,0,0-4.71-5.53-4.71-5.53-3.3-3.48-5.6-7.99-9.71-10.62-1.9-1.45-4.91-1.23-6.2-3.43h0Z"/>
          <path class="cls-6" d="M-61.33,71.56c1.63,11.25,22.95,18.29,32.08,23.68,13.08,8.12,39.5,18.73,29.99,38.35-6.65,10.29-19.6,10.85-30.01,14.59-11.07,3.52-21.14,6.22-30.25-3.07-2.59-2.34-4.98-4.82-7.73-6.94,16.67,10.98,16.45,13.96,36.72,6.31,2.87-1.13,7.02-2.52,9.9-3.39,5.93-1.95,12.86-4.03,16.52-9.06,9.28-15.06-17.52-26.28-27.12-33.43-8.88-5.76-30.05-14.92-30.11-27.04h0Z"/>
          <path class="cls-6" d="M-55.41,226.23c3.32-.71,4.52-3.92,5.6-6.76,1.26-2.88,2.65-5.64,4.05-8.43,5.72-11.14,12.32-22.11,21.9-30.47,9.62-8.47,21.74-13.02,33.77-16.86,17.15-5.83,32.94-3.67,44.39,11.57,4.95,6.42,5.93,15.86.31,22.32-3.89,4.59-9.43,7.91-15.42,8.7-9.72,1.35-19.28-2.56-28.26-4.65-5.89-1.41-11.86-2.29-17.47-.99-11.72,2.83-23.08,8.32-31.15,17.48-8.29,9.14-12.62,21.19-14.76,33.26,1.06-12.33,4.92-24.83,12.89-34.85,8.01-10.02,19.83-16.37,32.07-19.68,6.4-1.71,13.12-.9,19.41.51,11.38,2.31,23.63,7.95,34.24,1.24,4.32-2.82,8.16-7.63,7.24-13.07-2.09-10.75-14.05-19.29-24.7-20.08-8.78-.69-17.88,2.45-26.32,5.24-8.65,2.82-17.06,6.64-24.15,12.38-9.53,7.67-16.59,18.12-22.84,28.6-1.55,2.67-3.12,5.38-4.53,8.11-1.27,2.73-2.93,6.05-6.28,6.45h0Z"/>
          <path class="cls-6" d="M21.48,174.35c6.48-.9,14.3,2.7,15.78,9.6.66,3.95-2.26,7.64-5.48,9.48-6.46,3.8-15.03,2.85-20.35-2.47-3.55-3.17-8.99-9.62-4.35-14.03,4.15-3.25,9.59-1.64,14.4-2.57h0ZM21.48,174.35c-4.39.86-10.1.03-13.32,3.63-.89,1.12-.87,2.37-.3,3.55,1.26,2.5,3.88,4.41,6.22,5.99,2.43,1.55,4.68,2.95,7.6,3.16,4.8.39,12.26-.89,13.1-6.58-.09-6.34-7.38-10.71-13.3-9.75h0Z"/>
        </g>
      </g>
      <g>
        <g class="cls-5">
          <path class="cls-4" d="M134.82,128.02c.17-.15.32-.32.47-.49,1.73-2.11,2.26-4.94,3.55-7.35,2.01-3.72,5.77-6.2,9.66-7.86,3.89-1.66,8.04-2.66,11.92-4.34,2.11-.91,4.4-2.4,4.57-4.7.21-2.74-2.65-4.6-5.17-5.69-5.12-2.21-10.61-3.92-14.88-7.52-2.79-2.36-4.95-5.8-5.37-9.47-.14-1.18-.32-4.3.85-5.09,1.54-1.04,2.69,1.51,3.55,2.36.94.93,2.03,1.71,3.15,2.41,3.88,2.42,7.86,4.8,12.46,5.49,4.53.68,9.05-.33,13.25-1.99,5.89-2.33,11.29-3.54,17.54-3.71,2.79-.08,6.7.22,8.64-2.5,1.99-2.8-.13-8.45-.86-11.52-.87-3.66-2.16-7.99-5.59-10.07-.85-.51-1.86-.92-3.05-1.19-5.34-1.2-10.32,2.13-14.44,5.08-3.66,2.62-7.57,4.86-11.39,7.24-3.23,2.02-5.97,4.23-9.74,5.24-2.8.75-5.7,1.03-8.59,1.31-1.22.12-2.56.27-3.77.15,1.54.15,4.07-3.5,5.01-4.51,1.24-1.34,2.58-2.6,3.96-3.79,2.72-2.35,5.65-4.45,8.57-6.55,5.75-4.14,11.68-8.36,15.77-14.27,1.31-1.9,2.44-4.26,1.68-6.44-.84-2.4-3.56-3.49-6.02-4.13-9.85-2.54-20.17-2.24-30.33-1.92-2.48.08-5.26.28-6.93,2.12-2.28,2.51-1.2,6.55.5,9.48,1.71,2.94,3.99,5.88,3.79,9.27-.19,3.15-2.52,5.75-3.27,8.81-.7,2.83.08,5.98,2,8.16-5.36-.25-9.27-5.48-10.49-10.71-1.22-5.23-.56-10.71-1.17-16.04-.41-3.56-1.48-7.22-4.04-9.72-2.56-2.5-6.92-3.41-9.78-1.25-2.84,2.14-3.22,6.33-2.39,9.8.83,3.46,2.6,6.67,3.19,10.18.65,3.93-.22,7.93-.31,11.91-.09,3.98.85,8.39,4.09,10.71,3.2,2.29,7.59,1.81,11.39.81,3.81-1.01,7.69-2.46,11.57-1.79-6.09,1.88-11.36,6.43-17.71,6.88-4.05.28-8.2-1.27-11.08-4.14-1.25-1.25-2.26-2.73-3.58-3.91-1.31-1.18-3.07-2.07-4.81-1.77-2.34.4-3.8,2.71-4.77,4.87-2.41,5.39-3.6,11.32-3.46,17.23.07,2.94.8,6.35,3.46,7.6,2.39,1.13,5.29-.09,7.2-1.91,1.91-1.82,3.22-4.2,5.06-6.09,3.76-3.84,9.25-5.27,14.2-7.35,5.76-2.43,11.06-5.96,15.54-10.33-3.33,4.98-2.04,12.05,1.78,16.65,3.83,4.61,9.64,7.11,15.46,8.51,1.62.39,3.69,1.27,3.47,2.92-.12.91-.94,1.54-1.74,1.99-5.06,2.87-11.37,2.58-16.62,5.08-5.43,2.58-9.26,8.25-9.64,14.26-.06.98-.02,2.02.46,2.88s1.53,1.47,2.46,1.17c.28-.09.53-.25.75-.45ZM144.71,57.12s.03-.07.05-.11c-.73-2.31-1.72-4.5-2.96-6.6-1.74-2.97-5.01-5.99-5.29-9.6-.18-2.28,1.69-4.8,4.09-3.71,2.06.93,3.64,4.2,4.3,6.18,1.23,3.69,1.45,10.06-.15,13.73.03.09.06.19.09.28l-.14-.18ZM144.92,67.29c.29-2.75,1.85-5.65,2.74-8.32,1.35-4.05,1.34-8.52,2.81-12.59,2.22-6.12,9.99-9.09,15.66-5.58,6.06,3.75-1.63,7.56-4.8,9.29-4.15,2.25-7.88,5.18-11.07,8.7-2.28,2.52-3.95,5.43-5.34,8.51ZM119.57,59.18c-.5-2.22-.41-4.52-.76-6.76-.37-2.36-1.08-4.65-1.47-7.01-.25-1.54-1.03-4.06-.37-5.57,1.04-2.38,3.13-.45,4.03.92,1.46,2.21,1.35,5.21,1.26,7.74-.11,3.1-.25,6.18-.05,9.29.25,3.85,1.59,9.48,5.43,11.39.13.02.25.04.38.06l.14.18c-.18-.07-.35-.15-.52-.23-4.49-.79-7.17-6.04-8.06-10.01ZM116.41,69.67c-.3-.27-.52-.59-.57-.95-.22-1.54,1.58-1.77,2.61-1.21,1.05.57,1.83,1.51,2.77,2.24.85.66,1.89,1.09,2.98.87-1.63.13-3.22.51-4.87.27-.76-.11-2.14-.52-2.92-1.22ZM192.61,73.03c-.71,1.53-3.28,2.22-4.75,2.66-2.83.85-5.78,1.17-8.72,1.37-2.72.18-6.08.79-8.72.35,3.28-1.43,6.64-2.67,10.03-3.82,3.03-1.03,6.38-2.86,9.62-3.11,1.64-.13,3.42.64,2.54,2.56ZM151.77,75.71c7.65,3.61,16.57-6.51,22.12-10.27,1.84-1.25,4.46-2.93,6.8-2.4,3.09.69,2.1,3.62.07,4.94-3.91,2.54-9.06,4.85-13.48,6.48-3.4,1.25-7,2.3-10.66,1.92-1.56-.16-3.3-1.14-4.85-.67ZM98.8,94.37c-2.29.06-1.78-1.92-.74-3.31,1.65-2.22,5.11-4.11,7.93-3.81l.51-.26c-1.19,2.71-4.4,7.29-7.69,7.38ZM112.94,82.66c-3.4.42-10.55,1.77-13.17-1.17-1.21-1.35-.8-3.11.73-4.09,1.83-1.18,4.07.12,5.59,1.26,1.23.92,2.32,2.01,3.55,2.93.72.53,1.54,1.02,2.44.98.31-.01.58-.04.87.09Z"/>
          <path class="cls-4" d="M337.72,139.79c-1.13-2.53-3.08-4.82-5.09-6.78-5.62-5.48-12.24-9.93-19.44-13.06-1.22-.53-2.57-1.04-3.86-.72-2.12.51-3.14,2.91-3.57,5.04-1.7,8.46.9,17.73-2.71,25.56-1.31,2.84-3.37,5.26-5.83,7.17-2.52,1.96-5.41,3.4-8.41,4.46-1.86.65-3.77,1.13-5.68,1.6-.34.08-.68.17-1.02.13-.03,0-.06,0-.08-.03-.02-.03,0-.07.01-.1.16-.33.39-.59.6-.88.25-.35.52-.68.79-1,.56-.65,1.17-1.26,1.79-1.85,1.22-1.15,2.53-2.21,3.76-3.34,1.54-1.41,3.03-2.92,4.14-4.71,3.34-5.42,2.67-12.26,2.86-18.62.2-6.78,1.4-14.03-1.89-19.96-2.79-5.04-8.25-7.95-13.58-10.15-5.52-2.28-11.48-4.12-17.39-3.27-5.91.84-11.7,5.04-12.68,10.93-1.19,7.21,4.7,13.42,9.78,18.68,2.5,2.59,4.92,5.28,7.18,8.09,2.27,2.82,4.38,5.76,6.26,8.86,1.86,3.06,3.48,6.27,4.75,9.62.46,1.22.88,2.45,1.25,3.71.19.64.36,1.28.52,1.92.13.51.3,1.03.31,1.56,0,.39-.09,1.3-.61,1.22-.38-.06-.74-.22-1.07-.42-.67-.41-1.24-.97-1.77-1.55-.89-.96-1.58-2.09-2.17-3.25-1.21-2.35-1.99-4.89-3.09-7.29-.01-.03-.03-.06-.04-.09-2.07-4.44-4.76-8.06-8.15-11.61-3.94-4.13-8.59-6.34-11.92-11.09-3.13-4.46-4.11-9.56-6.32-14.42-1.68-3.69-5.61-11.43-10.27-11.39-7.94.08-4.75,12.61-4.2,16.86.79,6.07,1.88,12.03,5.92,16.89,4.23,5.09,10.22,7.87,14.53,12.86,4.58,5.3,7.5,12.84,14.21,15.67,3.27,1.38,6.26,1.9,9.84,1.22.96-.18,1.86-.57,2.74-1,.21-.1.42-.21.63-.31.18-.09.48-.32.68-.34.07,0,.12-.01.16.05-.42.59-1.22,1.08-1.82,1.47-.65.43-1.34.79-2.06,1.09-1.45.61-3,.98-4.57,1.13-3.07.29-6.23-.21-9.09-1.34-5.82-2.3-10.49-6.73-14.98-11.09-4.49-4.36-9.08-8.85-14.82-11.33-5.01-2.17-10.11.81-12.05,5.59-.99,2.44-1.27,5.1-1.42,7.73-.53,8.85.39,19.54,8.14,25.25,2.02,1.49,4.89,1.15,7.15.07,2.26-1.08,4.17-2.78,6.35-4.01,4.33-2.45,9.73-2.91,14.4-1.22,4.26,1.53,8.1,4.76,12.62,4.64,3.93-.11,7.4-2.85,9.45-6.2,2.01-3.29,2.84-7.07,3.71-10.78.02-.1.05-.2.07-.31,1.17,1.22,1.88,3.01,2.31,4.62.46,1.7.65,3.47.66,5.22,0,.03,0,.07,0,.1,0,1.4-.11,2.8-.3,4.18-.68,4.89-2.19,9.67-2.3,14.6-.24,10.83,6.2,20.53,9.47,30.86.61,1.94,2.03,4.42,3.93,3.71,2.01-.75,1.22-3.77.05-5.58-5.34-8.26-11.4-16.91-11.34-26.74.04-5.7,2.17-11.16,3.09-16.78.32-1.95.45-3.94.21-5.91-.18-1.49-.58-2.95-1.13-4.34-.52-1.32-1.15-2.72-2.05-3.82-.35-.43-.72-.85-1.05-1.31.09.12.84-.06.97-.07.58-.08,1.15-.13,1.73-.17,1.47-.09,2.93.02,4.4.05,1.5.03,2.99,0,4.48,0,3.85-.06,7.7-.29,11.52-.76,3.79-.47,7.56-1.17,11.24-2.17,3.68-.99,7.28-2.28,10.72-3.91.38-.18.76-.36,1.14-.55,4.92-2.45,9.97-6.38,10.28-11.87.1-1.71-.28-3.34-.97-4.87ZM236.42,117.42c-.56-1.58-1.84-8.78,1.75-5.91,2.5,2,3.28,6.66,4.3,9.54,1.12,3.17,2.71,6.44,4.54,9.13h-.16c-4.37-3.21-8.57-7.47-10.43-12.75ZM261.04,151.77c-1.84-2.6-3.86-4.71-6.28-6.8-2.05-1.77-4.47-2.81-6.63-4.41-1.71-1.26-4.64-4.25-4.4-6.63.32-3.21,4.3.45,5.55,1.37,2.73,1.99,5.2,4.45,7.86,6.58,2.17,1.74,4.27,3.74,5.73,6.12,1.37,2.23,2.41,4.66,3.59,6.99,1.1,2.15,3.16,4.46,4.09,6.58-4.33-2.12-6.81-5.98-9.52-9.8ZM244.4,170.57c-1.75-1.09-5.92-.67-7.69.16-1.82.85-4.92,5.46-6.94,5.25-3.54-.38,0-5.65,1.11-6.59,4.75-3.99,9.65-1.18,14.18,1.51l-.65-.33ZM263.17,173.31c-5.63-1.31-10.36-3.52-15.25-6.51-4.52-2.76-13.65-5.95-14.58-12.11,2.5-1.82,7.01,2.34,8.77,3.7,5.18,4.01,10.95,8.73,16.9,11.47,2.3,1.06,5.01,1.64,7.45,2.19,2.13.48,3.36-.06,5.41,0-1.71,1.72-6.24,1.84-8.7,1.27ZM273.66,111.19c.96-.43,2.51,1.73,3,2.34,1.78,2.24,3.13,5.19,4.69,7.62,3.36,5.23,7.07,10.37,6.5,16.99-.4,4.63-2.1,9.13-3.73,13.45,1.23-4.65,1.43-10.86-.57-15.37-1.7-3.84-4.73-6.62-6.92-10.1-2.17-3.44-2.92-7.5-3.3-11.48-.07-.72-.62-3.02.32-3.44ZM281.19,152.91c1.49-4.39-2.55-10.2-4.82-13.66-4.53-6.88-11.03-12.16-15.05-19.47-.94-1.71-3.43-7.29-1.42-9.03,1.62-1.41,4.93,5.65,5.72,7.32,1.47,3.09,2.53,6.47,4.66,9.21,2.34,3.01,5.15,5.68,7.36,8.78,1.83,2.58,2.83,5.46,3.36,8.51.27,1.54,1.42,7.17.2,8.33ZM313.73,147.18c-1.86,2.58-3.66,5.37-6.21,7.37-1.6,1.25-3.39,2.02-5.14,2.92-.55.36-1.12.7-1.74,1l.49-.33c.41-.24.83-.46,1.24-.67,3.66-2.45,5.82-6.28,6.45-10.81.47-3.38.36-6.83.86-10.21.37-2.5.45-5.99,1.82-8.16,1.27-2.01,3.92-2.59,5.63-.77,1.64,1.74,1.79,4.53,1.68,6.75-.12,2.4-.07,4.53-.96,6.81-.93,2.39-2.65,4.03-4.13,6.08ZM330.95,145.55c-2.2,1.22-4.47,2.23-6.78,3.23-2.44,1.05-4.87,1.99-7.33,2.66,2.43-1.82,4.76-3.93,7.05-6.01,2.09-1.91,5.7-5.5,8.99-4.42,3.03,1-.46,3.74-1.93,4.55Z"/>
          <path class="cls-4" d="M488.49,413.09c-1.13-2.53-3.08-4.82-5.09-6.78-5.62-5.48-12.24-9.93-19.44-13.06-1.22-.53-2.57-1.04-3.86-.72-2.12.51-3.14,2.91-3.57,5.04-1.7,8.46.9,17.73-2.71,25.56-1.31,2.84-3.37,5.26-5.83,7.17-2.52,1.96-5.41,3.4-8.41,4.46-1.86.65-3.77,1.13-5.68,1.6-.34.08-.68.17-1.02.13-.03,0-.06,0-.08-.03-.02-.03,0-.07.01-.1.16-.33.39-.59.6-.88.25-.35.52-.68.79-1,.56-.65,1.17-1.26,1.79-1.85,1.22-1.15,2.53-2.21,3.76-3.34,1.54-1.41,3.03-2.92,4.14-4.71,3.34-5.42,2.67-12.26,2.86-18.62.2-6.78,1.4-14.03-1.89-19.96-2.79-5.04-8.25-7.95-13.58-10.15-5.52-2.28-11.48-4.12-17.39-3.27-5.91.84-11.7,5.04-12.68,10.93-1.19,7.21,4.7,13.42,9.78,18.68,2.5,2.59,4.92,5.28,7.18,8.09,2.27,2.82,4.38,5.76,6.26,8.86,1.86,3.06,3.48,6.27,4.75,9.62.46,1.22.88,2.45,1.25,3.71.19.64.36,1.28.52,1.92.13.51.3,1.03.31,1.56,0,.39-.09,1.3-.61,1.22-.38-.06-.74-.22-1.07-.42-.67-.41-1.24-.97-1.77-1.55-.89-.96-1.58-2.09-2.17-3.25-1.21-2.35-1.99-4.89-3.09-7.29-.01-.03-.03-.06-.04-.09-2.07-4.44-4.76-8.06-8.15-11.61-3.94-4.13-8.59-6.34-11.92-11.09-3.13-4.46-4.11-9.56-6.32-14.42-1.68-3.69-5.61-11.43-10.27-11.39-7.94.08-4.75,12.61-4.2,16.86.79,6.07,1.88,12.03,5.92,16.89,4.23,5.09,10.22,7.87,14.53,12.86,4.58,5.3,7.5,12.84,14.21,15.67,3.27,1.38,6.26,1.9,9.84,1.22.96-.18,1.86-.57,2.74-1,.21-.1.42-.21.63-.31.18-.09.48-.32.68-.34.07,0,.12-.01.16.05-.42.59-1.22,1.08-1.82,1.47-.65.43-1.34.79-2.06,1.09-1.45.61-3,.98-4.57,1.13-3.07.29-6.23-.21-9.09-1.34-5.82-2.3-10.49-6.73-14.98-11.09-4.49-4.36-9.08-8.85-14.82-11.33-5.01-2.17-10.11.81-12.05,5.59-.99,2.44-1.27,5.1-1.42,7.73-.53,8.85.39,19.54,8.14,25.25,2.02,1.49,4.89,1.15,7.15.07,2.26-1.08,4.17-2.78,6.35-4.01,4.33-2.45,9.73-2.91,14.4-1.22,4.26,1.53,8.1,4.76,12.62,4.64,3.93-.11,7.4-2.85,9.45-6.2,2.01-3.29,2.84-7.07,3.71-10.78.02-.1.05-.2.07-.31,1.17,1.22,1.88,3.01,2.31,4.62.46,1.7.65,3.47.66,5.22,0,.03,0,.07,0,.1,0,1.4-.11,2.8-.3,4.18-.68,4.89-2.19,9.67-2.3,14.6-.24,10.83,6.2,20.53,9.47,30.86.61,1.94,2.03,4.42,3.93,3.71,2.01-.75,1.22-3.77.05-5.58-5.34-8.26-11.4-16.91-11.34-26.74.04-5.7,2.17-11.16,3.09-16.78.32-1.95.45-3.94.21-5.91-.18-1.49-.58-2.95-1.13-4.34-.52-1.32-1.15-2.72-2.05-3.82-.35-.43-.72-.85-1.05-1.31.09.12.84-.06.97-.07.58-.08,1.15-.13,1.73-.17,1.47-.09,2.93.02,4.4.05,1.5.03,2.99,0,4.48,0,3.85-.06,7.7-.29,11.52-.76,3.79-.47,7.56-1.17,11.24-2.17,3.68-.99,7.28-2.28,10.72-3.91.38-.18.76-.36,1.14-.55,4.92-2.45,9.97-6.38,10.28-11.87.1-1.71-.28-3.34-.97-4.87ZM387.19,390.72c-.56-1.58-1.84-8.78,1.75-5.91,2.5,2,3.28,6.66,4.3,9.54,1.12,3.17,2.71,6.44,4.54,9.13h-.16c-4.37-3.21-8.57-7.47-10.43-12.75ZM411.81,425.07c-1.84-2.6-3.86-4.71-6.28-6.8-2.05-1.77-4.47-2.81-6.63-4.41-1.71-1.26-4.64-4.25-4.4-6.63.32-3.21,4.3.45,5.55,1.37,2.73,1.99,5.2,4.45,7.86,6.58,2.17,1.74,4.27,3.74,5.73,6.12,1.37,2.23,2.41,4.66,3.59,6.99,1.1,2.15,3.16,4.46,4.09,6.58-4.33-2.12-6.81-5.98-9.52-9.8ZM395.17,443.87c-1.75-1.09-5.92-.67-7.69.16-1.82.85-4.92,5.46-6.94,5.25-3.54-.38,0-5.65,1.11-6.59,4.75-3.99,9.65-1.18,14.18,1.51l-.65-.33ZM413.94,446.61c-5.63-1.31-10.36-3.52-15.25-6.51-4.52-2.76-13.65-5.95-14.58-12.11,2.5-1.82,7.01,2.34,8.77,3.7,5.18,4.01,10.95,8.73,16.9,11.47,2.3,1.06,5.01,1.64,7.45,2.19,2.13.48,3.36-.06,5.41,0-1.71,1.72-6.24,1.84-8.7,1.27ZM424.43,384.49c.96-.43,2.51,1.73,3,2.34,1.78,2.24,3.13,5.19,4.69,7.62,3.36,5.23,7.07,10.37,6.5,16.99-.4,4.63-2.1,9.13-3.73,13.45,1.23-4.65,1.43-10.86-.57-15.37-1.7-3.84-4.73-6.62-6.92-10.1-2.17-3.44-2.92-7.5-3.3-11.48-.07-.72-.62-3.02.32-3.44ZM431.96,426.21c1.49-4.39-2.55-10.2-4.82-13.66-4.53-6.88-11.03-12.16-15.05-19.47-.94-1.71-3.43-7.29-1.42-9.03,1.62-1.41,4.93,5.65,5.72,7.32,1.47,3.09,2.53,6.47,4.66,9.21,2.34,3.01,5.15,5.68,7.36,8.78,1.83,2.58,2.83,5.46,3.36,8.51.27,1.54,1.42,7.17.2,8.33ZM464.5,420.48c-1.86,2.58-3.66,5.37-6.21,7.37-1.6,1.25-3.39,2.02-5.14,2.92-.55.36-1.12.7-1.74,1l.49-.33c.41-.24.83-.46,1.24-.67,3.66-2.45,5.82-6.28,6.45-10.81.47-3.38.36-6.83.86-10.21.37-2.5.45-5.99,1.82-8.16,1.27-2.01,3.92-2.59,5.63-.77,1.64,1.74,1.79,4.53,1.68,6.75-.12,2.4-.07,4.53-.96,6.81-.93,2.39-2.65,4.03-4.13,6.08ZM481.72,418.85c-2.2,1.22-4.47,2.23-6.78,3.23-2.44,1.05-4.87,1.99-7.33,2.66,2.43-1.82,4.76-3.93,7.05-6.01,2.09-1.91,5.7-5.5,8.99-4.42,3.03,1-.46,3.74-1.93,4.55Z"/>
          <path class="cls-4" d="M265.86,479.1c.19-.17.36-.35.51-.54,1.92-2.33,2.49-5.46,3.92-8.12,2.22-4.12,6.38-6.85,10.68-8.69,4.3-1.84,8.89-2.94,13.18-4.8,2.34-1.01,4.86-2.66,5.06-5.19.23-3.02-2.93-5.09-5.72-6.29-5.66-2.44-11.73-4.33-16.44-8.31-3.09-2.61-5.47-6.41-5.94-10.47-.15-1.31-.35-4.76.94-5.63,1.7-1.15,2.97,1.67,3.93,2.61,1.04,1.03,2.24,1.89,3.48,2.66,4.29,2.67,8.69,5.31,13.77,6.07,5,.75,10-.37,14.65-2.2,6.52-2.57,12.48-3.91,19.39-4.11,3.08-.09,7.41.24,9.55-2.76,2.2-3.09-.15-9.34-.95-12.73-.96-4.05-2.39-8.83-6.18-11.13-.94-.57-2.05-1.01-3.38-1.31-5.9-1.32-11.4,2.36-15.96,5.62-4.05,2.9-8.37,5.37-12.59,8-3.58,2.23-6.59,4.68-10.77,5.79-3.1.82-6.31,1.14-9.5,1.45-1.35.13-2.83.3-4.17.17,1.71.17,4.5-3.87,5.54-4.99,1.37-1.48,2.85-2.87,4.38-4.19,3.01-2.6,6.25-4.92,9.47-7.24,6.36-4.58,12.92-9.24,17.43-15.78,1.45-2.1,2.7-4.71,1.86-7.12-.92-2.65-3.93-3.86-6.65-4.56-10.88-2.81-22.3-2.47-33.53-2.12-2.75.09-5.81.31-7.66,2.35-2.52,2.78-1.33,7.24.56,10.48,1.89,3.24,4.42,6.5,4.19,10.25-.21,3.48-2.78,6.36-3.62,9.74-.77,3.13.08,6.61,2.21,9.02-5.93-.28-10.25-6.06-11.6-11.84-1.35-5.78-.62-11.83-1.3-17.73-.45-3.93-1.63-7.98-4.46-10.75s-7.65-3.76-10.81-1.38c-3.14,2.37-3.56,7-2.64,10.83s2.88,7.37,3.52,11.26c.72,4.34-.24,8.76-.34,13.16-.1,4.4.94,9.28,4.52,11.84,3.54,2.53,8.39,2.01,12.59.89,4.21-1.11,8.5-2.72,12.79-1.98-6.73,2.08-12.56,7.11-19.58,7.6-4.48.31-9.07-1.4-12.25-4.58-1.38-1.38-2.5-3.02-3.96-4.32-1.45-1.31-3.39-2.29-5.31-1.96-2.58.44-4.2,2.99-5.27,5.39-2.67,5.96-3.98,12.52-3.82,19.05.08,3.25.89,7.02,3.82,8.41,2.64,1.25,5.84-.1,7.96-2.12,2.11-2.02,3.56-4.64,5.6-6.73,4.15-4.25,10.22-5.82,15.7-8.13,6.37-2.69,12.23-6.59,17.18-11.42-3.68,5.5-2.26,13.32,1.97,18.41,4.23,5.09,10.66,7.86,17.09,9.4,1.79.43,4.08,1.41,3.84,3.23-.13,1-1.04,1.7-1.92,2.2-5.59,3.17-12.57,2.85-18.37,5.61-6.01,2.86-10.24,9.12-10.65,15.76-.07,1.09-.03,2.23.51,3.18s1.69,1.62,2.72,1.29c.31-.1.59-.28.83-.5ZM276.8,400.72s.03-.08.05-.12c-.81-2.56-1.91-4.97-3.27-7.29-1.93-3.29-5.53-6.62-5.85-10.61-.2-2.52,1.86-5.3,4.53-4.11,2.28,1.02,4.02,4.64,4.75,6.83,1.36,4.08,1.61,11.12-.16,15.17.03.1.07.21.1.31l-.15-.19ZM277.03,411.96c.32-3.04,2.05-6.25,3.03-9.2,1.49-4.48,1.48-9.42,3.11-13.91,2.45-6.76,11.04-10.05,17.31-6.17,6.7,4.15-1.8,8.36-5.31,10.27-4.59,2.49-8.71,5.72-12.24,9.61-2.52,2.78-4.37,6-5.9,9.41ZM249,402.99c-.55-2.46-.46-4.99-.84-7.48-.41-2.61-1.19-5.14-1.62-7.75-.28-1.71-1.14-4.49-.41-6.16,1.15-2.63,3.46-.5,4.45,1.02,1.61,2.45,1.49,5.76,1.39,8.56-.12,3.42-.28,6.83-.06,10.28.27,4.26,1.75,10.48,6,12.6.14.02.28.05.42.06l.15.19c-.2-.08-.39-.16-.57-.26-4.97-.88-7.93-6.67-8.91-11.07ZM245.51,414.59c-.34-.3-.57-.65-.63-1.05-.25-1.7,1.75-1.96,2.89-1.34,1.16.63,2.02,1.67,3.06,2.48.94.73,2.09,1.21,3.29.97-1.8.14-3.56.57-5.38.3-.84-.12-2.36-.58-3.23-1.35ZM329.76,418.31c-.78,1.69-3.63,2.45-5.25,2.94-3.13.94-6.39,1.3-9.64,1.52-3,.2-6.72.87-9.64.38,3.62-1.58,7.34-2.96,11.09-4.23,3.35-1.14,7.05-3.16,10.63-3.44,1.81-.14,3.78.71,2.81,2.83ZM284.6,421.26c8.46,3.99,18.32-7.2,24.45-11.35,2.03-1.38,4.93-3.24,7.52-2.66,3.41.76,2.32,4,.08,5.46-4.32,2.81-10.02,5.36-14.9,7.16-3.75,1.39-7.74,2.54-11.79,2.13-1.73-.18-3.65-1.26-5.36-.74ZM226.05,441.89c-2.53.07-1.96-2.12-.82-3.66,1.83-2.45,5.65-4.54,8.76-4.21l.56-.28c-1.32,3-4.86,8.06-8.5,8.15ZM241.68,428.95c-3.76.46-11.66,1.96-14.56-1.29-1.33-1.49-.88-3.43.81-4.53,2.03-1.31,4.5.13,6.18,1.39,1.36,1.02,2.56,2.23,3.92,3.24.79.59,1.71,1.13,2.69,1.08.35-.02.64-.05.96.1Z"/>
          <path class="cls-4" d="M405.33,315.87s.05-.03.08-.05c2.38-1.61,2.58-6.14.93-8.28-2.3-3-6.55-1.78-9.81-1.47-8.84.84-17.89,1.82-26.93,1.09-9.18-.74-21.52-4.59-25.5-13.6-3.58-8.11-2.08-15.58.45-23.88,1.61-5.29,1.97-10.67-4.61-6.04-4.37,3.07-5.17,9.02-5.74,13.87-.49,4.21-.15,8.32.99,12.52.85,3.14,3.69,6.97,1.59,10.05-5.01,7.39-14.56-14.43-16.4-18.21-1.59-3.25-6.15-11.78-9.33-6.04-2.04,3.68,1.97,10.72,3.51,13.82,3.75,7.53,7.76,15.19,14.14,20.85.95.84,2.03,1.68,3.3,1.72.95.03,1.85-.39,2.7-.81,2.97-1.48,6.64-4.76,10.08-4.79,2.94-.03,5.81.84,8.62,1.7,4.89,1.5,9.79,3,14.68,4.49,1,.31,2.06.66,2.69,1.49,2.28,2.99-5.6,7.22-7.57,7.99-5.22,2.06-10.94,2.72-16.47,3.23-13.14,1.2-26.96,1.2-39.01,7.27-1.31.66-2.8,1.84-2.43,3.26.15.56.57,1.01,1.02,1.37,5.01,4,12.11-.03,17.33-1.46,5.85-1.6,11.63-2.27,17.68-2.37,12.02-.19,22.24-.58,31.79-8.66,6.36-5.39,13.82-10.55,22.54-10.15,2.74.12,7.17,2.67,9.69,1.08Z"/>
          <path class="cls-4" d="M151.97,161.73c.37-.32.72-.64,1.06-.97,3.48-3.38,6.87-10.75,11.7-4.32,6.28,8.36-5.02,11.1-11.03,13.38-7.09,2.69-15.17,6.51-20.05,12.56-3.69,4.57-7.64,20.29,2.58,12.57,4.5-3.39,5.62-9.66,11.58-11.28,4.3-1.17,9.13,1.41,8.74,6.73-.44,6.04-4.5,2.81-8.3,3.14-5.58.48-9.39,6.37-13.88,9.12-8.5,5.2-16.35,7.89-22.82,16.03-5.4,6.8-7.67,15.5-10.39,23.59-2.78,8.26-5.25,18.23-12,24.13-9.92,8.66-19.31,3.72-29.16-2.3-4.46-2.72-8.8-5.04-13.99-6.02-4.28-.81-8.29-.48-8.29-6.54,0-6.97,3.99-6.78,7.87-3.17,3.86,3.59,7.17,4.17,12.22,5.8,5.19,1.67,8.86,4.71,13.32,7.77,5.69,3.9,8.11,4.16,12.92-1.13,4.79-5.27,7.24-14.05,8.74-21.05,2.45-11.45-7.55-15.09-13.9-22.24-5.76-6.49-9.87-23.38,3.87-23.2,2.67.03,10.12,2.88,9.74,6.23-.58,5.08-8.72-2.13-11.88,1.62-3.35,3.97,2.56,9.32,5.13,11.92,4.25,4.3,8.55,6.35,14.36,3.4,5.03-2.57,11.53-8.09,15.14-12.23,3.98-4.57,6.6-11.28,9.29-16.51,3.36-6.54,3.08-9.63,8.97-13.94,3.2-2.34,6.45-4.62,9.69-6.9,2.82-1.99,6.09-3.88,8.76-6.17Z"/>
          <path class="cls-4" d="M254.19,296.31c-1.67-1.03-1.72-2.4-3.17.07-.65,1.11-.23,3.38-.7,4.68-1.2,3.33-3.9,5.59-5.7,8.53-1.92,3.11-3.05,6.42-4.1,9.9-1.26,4.19-5.41,16.7-11.96,14.16-5.56-2.16-1.45-13.84-.62-17.84.88-4.22.92-7.25-1.54-10.94-1.79-2.69-9.41-8.51-15.14-9.81,3.9-1.5,8.44-2.15,10.02-2.51,3.04-.68,6.41-.84,9.33-1.92,3.37-1.26,4.78-3.54,7.17-5.94,4.04-4.06,9.59-6.34,13.17-10.83,3.64-4.57,4.67-12.84.09-17.19-3.72-3.53-9.86-3.33-14.58-4.03-4.36-.65-8.75-4.61-13.08-4.31-11.49.8-7.98,18.83-7.98,26.13,0,4.88-.65,9.87-2.78,14.34-.92,1.94-1.86,3.11-3.49,5.3-.07-3.36.5-7.04.79-10.12.45-4.76,2.63-10.13.76-14.8-4.65-11.59-14.6-1.92-22.62-2.18-4.41-.14-8.63-4.94-13.22-2.77-3.53,1.67-4.52,7.13-3.52,10.53,2.34,8.01,14.79,12.78,22.12,13.88,3.58.54,8.35-.12,11.59,1.68,2.12,1.17,2.7,2.88,3.38,4.59,0,0,0,0,0,0-.02,0-.05,0-.07,0-1.61.03-4.19,1.38-5.69,2.01-2.24.94-4.48,1.95-6.92,2.23-4.55.53-9.42.05-13.84-1.2-5.78-1.64-10.36-4.58-15.05-8.1-4.22-3.16-8.37-6.6-14.06-5.37-7.07,1.52-6.79,7.72-6.2,13.4.82,7.82-3.97,13.52-6.61,20.3-3.51,9.01,3.81,11.6,11.36,9.35,4.76-1.42,8.54-4.89,12.58-7.61,4.23-2.85,9.15-4.32,14.16-5.04,7.88-1.14,13.23-1.57,19.98-6.06,2.7-1.79,5.54-3.41,7.91-5.65,1.22-1.15,1.47-2.17,2.05-3.78.2-.56.54-1.78.7-3.15.02-.01.04-.02.06-.03.68,3.13,1.25,6.37.6,9.61-1.87,9.45-10.78,13.22-18.41,17.03-9.05,4.51-18.77,9.27-17.68,20.77.85,8.93,11.46,11.54,18.72,6.82,4.58-2.98,4.61-7.79,6.86-12.07,2.92-5.57,8.07-8.08,12.06-12.64,3.61-4.12,4.49-9.39,3.42-14.54-.88-4.27-1.86-11.32-4.7-15.09,9.56,4.14,15.29,11.45,12.86,23.52-1.35,6.73-6.43,14.15.52,19.59,4.62,3.61,12.13,2.27,16.51-1.17,5.21-4.09,3.96-11.44,6.09-17.2,2.58-6.99,8.49-11.08,12.06-17.39,2.11-3.73-.33-5.14-3.5-7.09ZM229.2,281.44c2.19-2.9,3.51-4.53,4.49-8.04.83-2.97,1.25-6.11,2.46-8.97,1.4-3.3,4.14-5.27,7.67-3.98,10.15,3.7-1.29,12.78-5.76,15.28-1.81,1.01-3.52,2.17-5.3,3.25-1.33.82-2.83,2.66-4.2,3.12l.65-.67ZM216.2,287.76s.1-.07.15-.11c2.62-3.64,3.4-8.06,2.97-12.51-.44-4.51-2.25-13.42,2.02-16.62,1.35-1.01,3.09-1.45,4.56-.51,3.31,2.1,1.17,5.88.45,8.9-.98,4.11.9,8.31-1.22,12.18-1.77,3.23-5.8,6.36-8.78,8.56-.1.14-.19.27-.29.41l.15-.3ZM198.77,284.7s0-.02-.01-.03c-.49-.39-1.2-.52-1.81-.68-1.96-.51-3.91-1.03-5.89-1.53-2.79-.71-6.51-1.31-8.47-3.56-1.48-1.69-2.8-4.51-1.55-6.63,1.11-1.88,3.16-2.33,5.08-1.57,2.67,1.07,4.17,4.9,6.19,6.92,2.19,2.19,5.06,4.27,6.45,7.05.2.16.36.36.46.62l-.45-.6ZM205.46,278.23c-.29,1.92-.43,2.75-.28,4.68-.07.18-.36,1.84-.45,1.79-.62-3.25-1.79-4.68-3.49-7.37-1.07-1.7-1.77-4.19-.82-6.1.9-1.83,3.54-2.93,4.77-.85,1.24,2.09.62,5.52.27,7.85ZM166.19,313.32c-1.91,1.02-3.56,2.3-5.4,3.46-3.24,2.05-6.92,5.35-10.98,5.36-5.27.02-3.46-5.57-1.03-8.19,2.8-3.03,6.85-4.3,10.86-3.83,2.66.31,5.26.93,8.01,1.01,1.15.03,2.26-.33,3.32,0-1.43,1-3.22,1.37-4.76,2.2ZM182.89,307.71c-7.76,1.33-16.26.82-23.11-3.39-1.75-1.07-4.16-2.73-4.31-4.97-.19-2.83,3.34-5.2,5.75-5.62,4.21-.74,8.53,2.07,12.12,3.86,3.37,1.67,6.53,3.2,10.3,3.83,5.3.89,13.59,2.38,18.27-.56-5.44,4.25-12.25,5.69-19.03,6.85ZM195.76,336.19c-.69,1.65-6.17,13.46-8.63,9.19-1.11-1.93,1.66-5.19,2.84-6.41,2.43-2.52,5.98-4.92,7.59-8.03v-.15c.84.32-1.42,4.52-1.79,5.4ZM206.17,317.43s0,0,0,0c-.94,1.65-3.53,3.96-4.22,4.65-2.59,2.61-5.51,4.6-8.39,6.9-1.87,1.5-3.22,3.43-4.41,5.46-1.08,1.86-2.03,4.4-3.8,5.72-1.5,1.12-4.24,1.89-5.43-.07-1.03-1.7-.04-4.69.89-6.26,1.31-2.23,3.54-3.43,5.7-4.68,2.12-1.22,4.09-2.66,6.28-3.72,4.82-2.34,9.27-4.51,13.38-8.01,0,0,0,0,0,0h0Z"/>
          <path class="cls-4" d="M67.41,141.79s.05-.03.08-.05c2.38-1.61,2.58-6.14.93-8.28-2.3-3-6.55-1.78-9.81-1.47-8.84.84-17.89,1.82-26.93,1.09-9.18-.74-21.52-4.59-25.5-13.6-3.58-8.11-2.08-15.58.45-23.88,1.61-5.29,1.97-10.67-4.61-6.04-4.37,3.07-5.17,9.02-5.74,13.87-.49,4.21-.15,8.32.99,12.52.85,3.14,3.69,6.97,1.59,10.05-5.01,7.39-14.56-14.43-16.4-18.21-1.59-3.25-6.15-11.78-9.33-6.04-2.04,3.68,1.97,10.72,3.51,13.82,3.75,7.53,7.76,15.19,14.14,20.85.95.84,2.03,1.68,3.3,1.72.95.03,1.85-.39,2.7-.81,2.97-1.48,6.64-4.76,10.08-4.79,2.94-.03,5.81.84,8.62,1.7,4.89,1.5,9.79,3,14.68,4.49,1,.31,2.06.66,2.69,1.49,2.28,2.99-5.6,7.22-7.57,7.99-5.22,2.06-10.94,2.72-16.47,3.23-13.14,1.2-26.96,1.2-39.01,7.27-1.31.66-2.8,1.84-2.43,3.26.15.56.57,1.01,1.02,1.37,5.01,4,12.11-.03,17.33-1.46,5.85-1.6,11.63-2.27,17.68-2.37,12.02-.19,22.24-.58,31.79-8.66,6.36-5.39,13.82-10.55,22.54-10.15,2.74.12,7.17,2.67,9.69,1.08Z"/>
        </g>
        <path class="cls-2" d="M398.5,243.4c-.82-18.07-41.07-91.99-50.1-102.91-9.03-10.91-67.35-85.18-76.39-90.11-9.03-4.93-61.6-31.21-61.6-31.21l-6.64-3.33s-3.22.04-11.43,0c-8.21-.04-21.87-5.84-21.87-5.84-3.16,1.69-14.71,6.77-28.11,11.65-.54.2-1.09.39-1.63.59-12.74,4.58-26.88,8.85-36.96,9.83-8.14,1.21-11.27-.05-20.78-.06-8.79,1.61-13.37,6.08-13.37,6.08t0,0c-2.04,3.06-4.6,5.29-7.41,6.4h-9.72c-.33.49-.71,1.01-1.1,1.54l-8.73,12.1h0s-2.19,4.02-2.19,4.02l-6.86,12.61s-.04.1-.05.14c-.04.43-.72,7.98-2.61,11.9l-3.2,14.66s0,.02,0,.02l2.19-2.43.58-1.15c.34-.18.65-.38.98-.58l10.52-11.67s0,0,0,0h0c2.36-5.15,10.02,7.55,12.39,17.93.75,2.28,1.1,4.57.77,6.73-.06.36-.17.69-.26,1.03-.02.12-.04.26-.07.38-.03.13-.08.25-.12.37-.02.05-.03.11-.05.16-.15.41-.34.79-.54,1.16-1.83,3.59-5.6,5.92-9.46,8.36-4.52,3.32-9.19,7.07-10.99,12.11-.62,2.48-.7,4.89-.49,7.23.48,2.47.86,4.69,1.16,6.7,1.28,5.76,2.65,11.23-.54,16.7-1.55,2.66-4,4-6.75,4.75-2.83,1.66-6.54,1.24-9.81,1.38-2.42.33-4.51.88-5.82,2.18-.61.73-1.09,1.67-1.38,2.98,0,0,0,0,0,0,0,.03-.01.06-.01.09-.03.29-.05.6-.05.93,0,9.57,11.86,18.49,17.87,27.92.01.02.03.03.04.05,3.1,4.12,3.83,7.96,3.88,12.68.15,3.3-.12,6.56-.28,9.57-.17,6.12.87,9.35,2.39,11.94.67,1,1.54,2.26,2.57,3.72.16.22.32.45.48.68.03.04.06.08.09.12.09.13.21.3.35.48,4.03,5.43,25.82,31.44,30.68,36.34.16.16.31.3.43.42.07.06.13.12.19.18.17.16.34.33.52.49,2.23,2.1,4.43,4.02,6.57,5.7,3.26,2.32,7.31,4.33,11.85,4.39,4.94-.3,9.5-3.1,13.85-6.34,3.02-2.93,6.02-5.15,8.98-6.81,2.84-1.94,5.64-3.42,8.47-3.79,1.83-.23,3.8-.35,5.84-.37,2.23-.1,4.38.04,6.44.34,6.05.69,12.14,2.47,16.79,5.74.02,0,.04.02.06.03,5.78,2.68,8.25,8.5,8.19,15.26.18,4.96-1.35,9.53-3.12,13.86-1.08,2.76-1.9,4.87-2.53,6.67-.16.47-.32.92-.46,1.35-1.3,4.01-1.7,6.9-2.45,13.87-.03.24-.06.5-.08.74-.04.37-.08.73-.12,1.11-1.25,11.26-3.41,29.2,1.3,39.88.07.14.13.29.2.43.13.26.26.52.38.78.23.46.46.92.71,1.37,3.92,7.08,10.59,13.37,16.37,18.24,2.05,1.68,4.29,3.49,6.77,5.54,0,0,0,0,0,0,2.42,1.98,4.16,3.91,5.65,6.22,3.8,5.51,5.74,11.83,7.83,17.87,5.29,13.61,8.63,16.03,12.09,18.91h0c4.49,2.68,7.43-.17,12.6-.97,0,0,0,0,0,0,4.37-1.15,4.17-1.85,10.42,2.48.23.16.46.32.71.49.43.3.86.63,1.29.97.01,0,.03.02.04.03,7.26,5.79,13.66,15.6,13.66,15.6,0,0,7.12,0,15.27,1.78.01,0,.03,0,.04,0,9.22,1.43,8.79-.1,15.94,6.61.01.01.03.02.04.04.85.67,1.67,1.41,2.46,2.19,3.9,3.28,3.59,2.16,10.14,14.44.47.89.98,1.84,1.53,2.88,0,.02.02.03.03.05,9.52,17.92,11.53,20.2,15.98,23.73h0s0,0,0,0c2.84,1.61,5.56,2.11,7.68,2.16,2.39-.03,4.22-.48,4.22-.48,0,0,1.47-2.12,3.38-4.88.99-2,2.27-3.81,3.76-5.43.03-.03.06-.07.09-.1,1.21-1.74,2.36-3.38,3.23-4.63,3.32-4.73,10.99-19.47,10.99-19.48h0s17.38-10.02,17.38-10.02h1.28l19.68-10.02h0s8.94-15.86,8.94-15.86h0s1.79-5.84,7.43-10.09c5.64-4.25,20.53-64.07,23.82-76.39,3.29-12.32-11.5-96.1-12.32-114.17Z"/>
      </g>
    </g>
    <path class="cls-3" d="M506.41,462.6c-6.08-3.98-14.24-2.28-18.22,3.8-3.32,5.06-2.68,11.56,1.14,15.89l-52.65,80.38h-181.5v-39.17c5.57-1.53,9.66-6.62,9.66-12.67,0-7.27-5.89-13.16-13.16-13.16s-13.16,5.89-13.16,13.16c0,6.05,4.09,11.14,9.66,12.67v42.67c0,1.93,1.57,3.5,3.5,3.5h186.89c1.18,0,2.28-.59,2.93-1.58l53.68-81.97c5.5,1.77,11.71-.25,15.02-5.31,3.98-6.08,2.28-14.24-3.8-18.22Z"/>
  </g>
</svg>