<?xml version="1.0" encoding="UTF-8"?>
<svg id="Calque_2" data-name="Calque 2" xmlns="http://www.w3.org/2000/svg" xmlns:xlink="http://www.w3.org/1999/xlink" viewBox="0 0 651.51 869.27">
  <defs>
    <style>
      .cls-1 {
        fill: #9e2128;
      }

      .cls-2 {
        fill: #ffc69f;
      }

      .cls-3 {
        fill: none;
        stroke: #fff;
        stroke-linecap: round;
        stroke-linejoin: round;
        stroke-width: 20px;
      }

      .cls-4 {
        clip-path: url(#clippath);
      }
    </style>
    <clipPath id="clippath">
      <path class="cls-3" d="M171.27,38.41s-.04-.04-.06-.07c-1.96-2-3.55-4.32-4.91-6.58-3.67-5.02-7.34-10.19-7.34-10.19,0,0-.94,4.98-12.22,5.69-.49.04-.99.07-1.49.08-15.47.36-35.9-12.94-35.9-12.94l-14.47-4.42s1.01,16.08-4.42,21.58c0,0-34.37,33.35-33.66,47.83.71,14.48,11.01,30.5,6.62,44.88-4.39,14.38-47.18,73.27-47.18,73.27,0,0-7.24,10.81-6.12,21.62,1.12,10.81,32.02,29.58,38.7,32.18,6.68,2.6,48.6,14.23,55.07,22.85,6.48,8.62,37.11,75.68,45.93,88.28,8.82,12.6,40.23,43.5,55.17,55.39,14.94,11.88,67.61,31.22,68.27,50.34.66,19.12-8.37,29.27-9.54,44.01-1.17,14.74-4.34,18.1,14.07,32.23,18.41,14.13,45.94,46.46,54.45,61.81,8.51,15.35,19.22,40.24,31.41,43.45,12.19,3.21,35.64,9.54,42.22,25.6,6.58,16.06,17.13,29.78,23.35,36.52,6.22,6.73,47.93,36.93,41.4,53.86-6.53,16.93-13.72,35.64-28.46,42.83q-14.74,7.19-18.18,11.67s12.7,11.47,21.44,19.72c3.81,3.6,6.87,6.59,7.81,7.77,3.09,3.86,10.76,11.51,10.83,11.58,12.61-19.79,32.69-22.51,39.82-26.65,17.64-10.23,14.59-17.55,30.95-29.6,16.37-12.05,20.34-9.68,25.8-27.57,5.46-17.89,3.74-23.27,2.51-26.01-.8-1.78-4.09-1.96-6.31-1.87-1.2.05-2.08.18-2.08.18,0,0-2.69.55-6.59.02-3.76-.37-8.33-1.52-11.49-4.66-4.38-3.17-8.74-8.33-12.01-16.68-3.09-7.87-5.82-15.57-8.62-22.79-.62-1.59-1.24-3.16-1.87-4.7-3.79-9.28-7.87-17.53-13.18-24.03-.94-.99-2.06-2.2-3.42-3.8-1.85-1.82-3.84-3.45-6.02-4.86-5.45-3.53-11.67-6.18-17.59-8.17-13.95-3.77-23.28-5.37-23.28-5.37,0,0-9.07-17.07-18.41-26.43-.02-.02-.04-.03-.05-.05-.93-.93-1.88-1.8-2.84-2.6-3.11-2.62-6.35-4.54-9.55-5.17-2.23-.44-4.25-.54-6.1-.46-7.21,1.07-14.77,4.39-19.62-.66-2.04-1.54-4.22-3.95-6.69-7.63-4.67-6.95-6.82-15.14-8.74-23.67-3.7-13.93-5.68-22.26-9.01-28.92-1.99-3.71-4.45-7.27-7.67-10.59-2.63-2.68-5.96-5.98-9.51-9.72-10.36-10.61-17.02-18.16-22.14-30.98-.31-.74-.59-1.49-.86-2.24-.15-.42-.31-.84-.46-1.27-.06-.18-.13-.35-.19-.52-.02-.06-.03-.12-.05-.17-.29-.83-.57-1.65-.85-2.53-4.89-15.43-.11-32.58,2.98-47.89,2.32-11.5,5.1-22.96,9.27-33.94,4.38-11.52,11.94-21.51,13.44-34,.2-2.7.09-5.52-.43-8.47-1.19-6.75-4.76-12.2-9.68-16.55-5.95-3.62-14.49-9-24.95-11.75-3.32-.76-6.65-1.3-9.89-1.63-7.02-.47-14.66.52-22.8,3.96-4.88,2.6-9.9,5.97-15.04,8.98-8.36,6.49-15.9,8.24-22.47,7.41-5.42-.27-10.93-2.47-16.5-7.78-.35-.33-.7-.69-1.05-1.03-4.07-3.64-7.16-7.52-9.17-9.92-.24-.28-.48-.56-.71-.84-.05-.06-.11-.13-.16-.19-.03-.03-.07-.09-.11-.13-.17-.2-.37-.44-.59-.72-16.19-19.49-32.43-45.92-41.13-61.38-.18-.31-.33-.58-.46-.81-.04-.07-.07-.13-.11-.2-.22-.39-.42-.76-.63-1.13-1.2-2.12-2.38-4.05-3.34-6.19-.46-.89-.85-1.67-1.15-2.3-2.15-4.48-1.54-10.18-.48-16.57.78-5.63,1.64-10.39,2.07-14.71.33-4.91.08-9.95-1.58-14.94-.6-1.79-1.39-3.6-2.28-5.4-6.52-10.97-26.67-34.95-22.56-47.61.01-.05.03-.09.04-.15.48-1.97,1.4-3.36,2.65-4.36,2.42-2.33,5.73-2.62,9.35-2.37,4.79-.12,10.32.35,15.38-.45,8.55-3.82,16-2.42,14.94-31.88-.38-3.46-.71-6.98-.64-10.61-.34-4.22.45-7.84,2-11.02.11-.29.18-.58.3-.86,3.42-8.33,11.17-12.26,18.75-15.94,6.64-3.82,13.01-7.17,16.04-11.28.36-.55.73-1.1,1.03-1.71.04-.08.07-.17.11-.25.17-.35.28-.75.42-1.13.99-3.18,1.08-7.44.55-12.06-3.04-14.44-16.05-29.81-16.05-29.82-4.26,7.09-9.83,12.02-16.71,15.44-1.75,1.45-3.37,2.77-4.69,3.84l-20.64-20.37Z"/>
    </clipPath>
  </defs>
  <g id="Header">
    <path class="cls-1" d="M636.47,614.76c-6.92,0-12.73,4.68-14.48,11.04h-56.19l-70.18-156.64c-.64-1.44-2.07-2.36-3.65-2.36h-51.28c-1.75-6.36-7.57-11.04-14.48-11.04-8.3,0-15.04,6.73-15.04,15.04s6.73,15.04,15.04,15.04c6.92,0,12.73-4.68,14.48-11.04h48.69l70.18,156.64c.64,1.44,2.07,2.36,3.65,2.36h58.78c1.75,6.36,7.57,11.04,14.48,11.04,8.3,0,15.04-6.73,15.04-15.04s-6.73-15.04-15.04-15.04Z"/>
    <g id="EP9">
      <path class="cls-1" d="M171.27,38.41s-.04-.04-.06-.07c-1.96-2-3.55-4.32-4.91-6.58-3.67-5.02-7.34-10.19-7.34-10.19,0,0-.94,4.98-12.22,5.69-.49.04-.99.07-1.49.08-15.47.36-35.9-12.94-35.9-12.94l-14.47-4.42s1.01,16.08-4.42,21.58c0,0-34.37,33.35-33.66,47.83.71,14.48,11.01,30.5,6.62,44.88-4.39,14.38-47.18,73.27-47.18,73.27,0,0-7.24,10.81-6.12,21.62,1.12,10.81,32.02,29.58,38.7,32.18,6.68,2.6,48.6,14.23,55.07,22.85,6.48,8.62,37.11,75.68,45.93,88.28,8.82,12.6,40.23,43.5,55.17,55.39,14.94,11.88,67.61,31.22,68.27,50.34.66,19.12-8.37,29.27-9.54,44.01-1.17,14.74-4.34,18.1,14.07,32.23,18.41,14.13,45.94,46.46,54.45,61.81,8.51,15.35,19.22,40.24,31.41,43.45,12.19,3.21,35.64,9.54,42.22,25.6,6.58,16.06,17.13,29.78,23.35,36.52,6.22,6.73,47.93,36.93,41.4,53.86-6.53,16.93-13.72,35.64-28.46,42.83q-14.74,7.19-18.18,11.67s12.7,11.47,21.44,19.72c3.81,3.6,6.87,6.59,7.81,7.77,3.09,3.86,10.76,11.51,10.83,11.58,12.61-19.79,32.69-22.51,39.82-26.65,17.64-10.23,14.59-17.55,30.95-29.6,16.37-12.05,20.34-9.68,25.8-27.57,5.46-17.89,3.74-23.27,2.51-26.01-.8-1.78-4.09-1.96-6.31-1.87-1.2.05-2.08.18-2.08.18,0,0-2.69.55-6.59.02-3.76-.37-8.33-1.52-11.49-4.66-4.38-3.17-8.74-8.33-12.01-16.68-3.09-7.87-5.82-15.57-8.62-22.79-.62-1.59-1.24-3.16-1.87-4.7-3.79-9.28-7.87-17.53-13.18-24.03-.94-.99-2.06-2.2-3.42-3.8-1.85-1.82-3.84-3.45-6.02-4.86-5.45-3.53-11.67-6.18-17.59-8.17-13.95-3.77-23.28-5.37-23.28-5.37,0,0-9.07-17.07-18.41-26.43-.02-.02-.04-.03-.05-.05-.93-.93-1.88-1.8-2.84-2.6-3.11-2.62-6.35-4.54-9.55-5.17-2.23-.44-4.25-.54-6.1-.46-7.21,1.07-14.77,4.39-19.62-.66-2.04-1.54-4.22-3.95-6.69-7.63-4.67-6.95-6.82-15.14-8.74-23.67-3.7-13.93-5.68-22.26-9.01-28.92-1.99-3.71-4.45-7.27-7.67-10.59-2.63-2.68-5.96-5.98-9.51-9.72-10.36-10.61-17.02-18.16-22.14-30.98-.31-.74-.59-1.49-.86-2.24-.15-.42-.31-.84-.46-1.27-.06-.18-.13-.35-.19-.52-.02-.06-.03-.12-.05-.17-.29-.83-.57-1.65-.85-2.53-4.89-15.43-.11-32.58,2.98-47.89,2.32-11.5,5.1-22.96,9.27-33.94,4.38-11.52,11.94-21.51,13.44-34,.2-2.7.09-5.52-.43-8.47-1.19-6.75-4.76-12.2-9.68-16.55-5.95-3.62-14.49-9-24.95-11.75-3.32-.76-6.65-1.3-9.89-1.63-7.02-.47-14.66.52-22.8,3.96-4.88,2.6-9.9,5.97-15.04,8.98-8.36,6.49-15.9,8.24-22.47,7.41-5.42-.27-10.93-2.47-16.5-7.78-.35-.33-.7-.69-1.05-1.03-4.07-3.64-7.16-7.52-9.17-9.92-.24-.28-.48-.56-.71-.84-.05-.06-.11-.13-.16-.19-.03-.03-.07-.09-.11-.13-.17-.2-.37-.44-.59-.72-16.19-19.49-32.43-45.92-41.13-61.38-.18-.31-.33-.58-.46-.81-.04-.07-.07-.13-.11-.2-.22-.39-.42-.76-.63-1.13-1.2-2.12-2.38-4.05-3.34-6.19-.46-.89-.85-1.67-1.15-2.3-2.15-4.48-1.54-10.18-.48-16.57.78-5.63,1.64-10.39,2.07-14.71.33-4.91.08-9.95-1.58-14.94-.6-1.79-1.39-3.6-2.28-5.4-6.52-10.97-26.67-34.95-22.56-47.61.01-.05.03-.09.04-.15.48-1.97,1.4-3.36,2.65-4.36,2.42-2.33,5.73-2.62,9.35-2.37,4.79-.12,10.32.35,15.38-.45,8.55-3.82,16-2.42,14.94-31.88-.38-3.46-.71-6.98-.64-10.61-.34-4.22.45-7.84,2-11.02.11-.29.18-.58.3-.86,3.42-8.33,11.17-12.26,18.75-15.94,6.64-3.82,13.01-7.17,16.04-11.28.36-.55.73-1.1,1.03-1.71.04-.08.07-.17.11-.25.17-.35.28-.75.42-1.13.99-3.18,1.08-7.44.55-12.06-3.04-14.44-16.05-29.81-16.05-29.82-4.26,7.09-9.83,12.02-16.71,15.44-1.75,1.45-3.37,2.77-4.69,3.84l-20.64-20.37Z"/>
      <g>
        <g class="cls-4">
          <path class="cls-2" d="M280.49,510.05c-3.46-2.73-.31-9.17,3.47-9.41,4.39-.28,6.56,4.63,4.83,7.99-1.55,3-5.24,3.85-8.3,1.43Z"/>
          <path class="cls-2" d="M288.11,488.17c-3.46-2.73-.31-9.17,3.47-9.41,4.39-.28,6.56,4.63,4.83,7.99-1.55,3-5.24,3.85-8.3,1.43Z"/>
          <path class="cls-2" d="M314.02,501.46c-3.46-2.73-.31-9.17,3.47-9.41,4.39-.28,6.56,4.63,4.83,7.99-1.55,3-5.24,3.85-8.3,1.43Z"/>
          <path class="cls-2" d="M510.32,756.62c-3.46-2.73-.31-9.17,3.47-9.41,4.39-.28,6.56,4.63,4.83,7.99-1.55,3-5.24,3.85-8.3,1.43Z"/>
          <path class="cls-2" d="M517.94,734.74c-3.46-2.73-.31-9.17,3.47-9.41,4.39-.28,6.56,4.63,4.83,7.99-1.55,3-5.24,3.85-8.3,1.43Z"/>
          <path class="cls-2" d="M444.2,823.56c-3.46-2.73-.31-9.17,3.47-9.41,4.39-.28,6.56,4.63,4.83,7.99-1.55,3-5.24,3.85-8.3,1.43Z"/>
          <path class="cls-2" d="M470.11,836.85c-3.46-2.73-.31-9.17,3.47-9.41,4.39-.28,6.56,4.63,4.83,7.99-1.55,3-5.24,3.85-8.3,1.43Z"/>
          <path class="cls-2" d="M119.26,249.94c-3.46-2.73-.31-9.17,3.47-9.41,4.39-.28,6.56,4.63,4.83,7.99-1.55,3-5.24,3.85-8.3,1.43Z"/>
          <path class="cls-2" d="M126.88,228.06c-3.46-2.73-.31-9.17,3.47-9.41,4.39-.28,6.56,4.63,4.83,7.99-1.55,3-5.24,3.85-8.3,1.43Z"/>
          <path class="cls-2" d="M152.79,241.36c-3.46-2.73-.31-9.17,3.47-9.41,4.39-.28,6.56,4.63,4.83,7.99-1.55,3-5.24,3.85-8.3,1.43Z"/>
          <path class="cls-2" d="M110.95,169.64c-3.97,1.9-2.32,8.88,1.32,9.95,4.23,1.24,7.42-3.07,6.47-6.73-.85-3.27-4.27-4.9-7.79-3.22Z"/>
          <path class="cls-2" d="M113.58,192.66c-3.97,1.9-2.32,8.88,1.32,9.95,4.23,1.24,7.42-3.07,6.47-6.73-.85-3.27-4.27-4.9-7.79-3.22Z"/>
          <path class="cls-2" d="M141.78,185.39c-3.97,1.9-2.32,8.88,1.32,9.95,4.23,1.24,7.42-3.07,6.47-6.73-.85-3.27-4.27-4.9-7.79-3.22Z"/>
          <path class="cls-2" d="M165.11,69.92c-3.46-2.73-.31-9.17,3.47-9.41,4.39-.28,6.56,4.63,4.83,7.99-1.55,3-5.24,3.85-8.3,1.43Z"/>
          <path class="cls-2" d="M172.73,48.04c-3.46-2.73-.31-9.17,3.47-9.41,4.39-.28,6.56,4.63,4.83,7.99-1.55,3-5.24,3.85-8.3,1.43Z"/>
          <path class="cls-2" d="M200.19,73.92c-3.46-2.73-.31-9.17,3.47-9.41,4.39-.28,6.56,4.63,4.83,7.99-1.55,3-5.24,3.85-8.3,1.43Z"/>
          <path class="cls-2" d="M79.76,112.6c-3.46-2.73-.31-9.17,3.47-9.41,4.39-.28,6.56,4.63,4.83,7.99-1.55,3-5.24,3.85-8.3,1.43Z"/>
          <path class="cls-2" d="M94.39,137.41c-3.46-2.73-.31-9.17,3.47-9.41,4.39-.28,6.56,4.63,4.83,7.99-1.55,3-5.24,3.85-8.3,1.43Z"/>
          <path class="cls-2" d="M214.46,385.58c-3.46-2.73-.31-9.17,3.47-9.41,4.39-.28,6.56,4.63,4.83,7.99-1.55,3-5.24,3.85-8.3,1.43Z"/>
          <path class="cls-2" d="M228.28,401.73c-3.88,2.08-1.92,8.97,1.76,9.88,4.28,1.05,7.28-3.4,6.16-7.01-.99-3.23-4.48-4.71-7.92-2.87Z"/>
          <path class="cls-2" d="M251.34,389.57c-3.88,2.08-1.92,8.97,1.76,9.88,4.28,1.05,7.28-3.4,6.16-7.01-.99-3.23-4.48-4.71-7.92-2.87Z"/>
          <path class="cls-2" d="M194.43,341.1c-1.25-1.02-7.05-1.05-9.01-.12-1.27.6-.57,6.39-1.01,10.67-.62,6.08-1.4,12.38-2.62,18.36-1.67,8.21-6.04,15.73-8.47,23.78-2.67,8.84-6.31,17.31-9.29,26.12-2.87-.95-6.11-4.29-7.35-5.99-.23,2.2,2.06,6.1,3.01,7.99.87,1.73,1.37,3.58,2.07,5.38-.65,2.39-1.23,4.82-1.7,7.3-1.26,6.7-3.05,13.12-4.78,19.64-1.67,6.28-2.39,12.53-3.43,18.69,3.6.37,8.06-.31,11.28-.25,3.29.06,2.88,2.02,4.47-2.23.77-2.06.88-5.1,1.28-7.24.84-4.44.48-9.13,1.85-13.39,1.24-3.85,3.65-6.93,4.85-10.86,1.35-4.43,3.75-8.92,4.5-13.52.59-3.61-.36-7.58.21-11.24.98-6.23,4.55-16.79,8.59-21.52,1.92-2.25,4.86-3.64,6.85-5.88,3.03-3.41,2.23-7.12,4.3-10.73-3.49,1.09-3.45,6.96-7.28,7.76-.21-5.62,2.48-11.22,2.27-17.02-.24-6.7.2-13.18.79-19.8.25-2.79,1.01-3.93-1.39-5.89ZM162.17,447.52c-1.08,5.78-1.83,12.74-5.79,17.51,1.43-5.31,1.83-10.78,3.21-16.15,1.18-4.56,1.88-10.2,4.07-14.39l.09,1.04c.1,4.53-.74,7.43-1.59,12ZM173.64,432.54c-.66,1.78-1.32,3.5-2.2,5.22-.66,1.29-1.33,2.6-1.82,3.96-.36,1.01-.32,2.5-1.25,3.06-.05-1.28.69-2.59.94-3.87.31-1.59,1.4-5.33,1.94-6.87,2.29-6.57,3.53-10.3,4.48-14.41-.35,4.28-.52,8.72-2.08,12.91ZM173.88,407.19c-1.59,3.83-3.69,10.34-6.25,12.97-.01.03-.03.06-.04.1l-.15.09c.06-.06.13-.12.19-.19,2.51-5.7,4.49-11.24,6.62-16.96,1.04-2.8,1.29-6.92,3.14-9.18,1.04,3.98-1.98,9.48-3.51,13.16ZM187.96,380.02c-1.79,5.62-4.58,11.09-6.15,16.72-.52-2.06.36-4.4.98-6.4.03-.1.06-.19.09-.29.76-2.5,1.68-4.94,2.47-7.44.83-2.64,1.62-5.3,2.41-7.95.4-1.34.79-2.68,1.2-4.01.2-.68.41-1.35.61-2.02.11-.35.22-.71.33-1.06.04-.13.34-.8.28-.9,2.24,3.5-1.11,9.9-2.21,13.34ZM183.88,370.95c-.02.06-.04.11-.07.13.02-.04.04-.09.07-.13.11-.36.11-1.31.14-1.52.08-.52.17-1.04.27-1.55.22-1.13.49-2.26.81-3.36.1-.35.21-.69.34-1.03.36-1.01.79-1.98,1.11-3,.24-.79.38-1.6.49-2.42.05-.42.1-.83.14-1.25.02-.22.05-.44.07-.65.01-.1.11-.47.06-.55,1.97,3.13-.79,10.16-3.43,15.35Z"/>
          <path class="cls-2" d="M141.52,43.95c-.18-1.75-4.64-6.25-6.87-7.05-1.44-.52-5.37,4.49-9.02,7.46-5.17,4.22-10.64,8.47-16.2,12.15-7.63,5.05-16.81,7.48-24.9,11.82-8.88,4.77-18.24,8.49-27.34,12.99-1.48-2.95-1.41-8.02-1.05-10.3-1.88,1.52-3.12,6.3-3.84,8.5-.66,2.01-1.7,3.82-2.55,5.75-2.35,1.34-4.67,2.77-6.95,4.32-6.14,4.2-12.49,7.77-18.86,11.47-6.14,3.56-11.52,7.83-17.08,11.78,2.49,3.06,6.47,5.98,8.91,8.52,2.49,2.59.67,3.78,5.18,1.73,2.19-1,4.62-3.26,6.58-4.6,4.08-2.78,7.42-6.68,11.77-8.91,3.93-2.01,8.17-2.53,12.13-4.64,4.46-2.38,9.79-3.99,13.91-6.96,3.24-2.33,5.57-6.13,8.84-8.52,5.56-4.05,16.48-9.45,23.25-9.98,3.21-.25,6.56.94,9.83.75,4.98-.3,7.22-3.77,11.6-4.97-3.53-1.86-8.03,2.71-11.61.37,4.18-4.5,10.58-6.75,14.9-11.38,4.99-5.35,10.33-10.02,15.89-14.68,2.34-1.96,3.82-2.26,3.47-5.62ZM34.44,101.2c-5.3,3.63-11.25,8.42-17.98,9.05,5.2-2.99,9.73-6.91,14.95-9.99,4.43-2.61,9.32-6.43,14.26-7.97l-.73.87c-3.42,3.58-6.31,5.17-10.49,8.04ZM54.86,98.5c-1.89.86-3.72,1.68-5.73,2.33-1.5.48-3.03.98-4.46,1.65-1.06.5-2.18,1.69-3.33,1.4.94-1.03,2.53-1.46,3.71-2.26,1.47-.99,5.2-3.04,6.8-3.81,6.84-3.3,10.67-5.23,14.58-7.67-3.57,3.03-7.13,6.33-11.57,8.36ZM74.62,79.1c-4.19,1.73-10.83,5.13-14.84,5.19-.04.01-.07.03-.11.04l-.18-.04c.09,0,.19,0,.29,0,6.34-2.46,12.15-5.22,18.21-7.98,2.97-1.35,6.33-4.35,9.51-4.66-2.27,3.88-8.84,5.79-12.87,7.45ZM106.47,68.99c-5.72,2.95-12.1,5.02-17.66,8.16,1.19-1.99,3.68-3.12,5.69-4.18.1-.05.2-.1.29-.16,2.51-1.35,5.12-2.52,7.65-3.84,2.68-1.4,5.34-2.84,8-4.28,1.34-.73,2.68-1.45,4.02-2.17.68-.36,1.36-.73,2.04-1.09.36-.19.71-.38,1.07-.57.13-.07.88-.36.91-.48-.97,4.44-8.5,6.79-12.01,8.6ZM110.32,58.85c-.06.03-.12.05-.15.05.05-.02.1-.03.15-.05.36-.2,1.09-.93,1.29-1.07.46-.34.93-.67,1.41-.99,1.04-.71,2.12-1.36,3.22-1.98.35-.19.7-.37,1.05-.53,1.06-.5,2.14-.92,3.17-1.47.8-.42,1.53-.94,2.25-1.49.36-.28.72-.57,1.07-.85.19-.15.37-.3.56-.45.09-.07.45-.28.48-.38-.89,3.94-8.45,7.23-14.5,9.21Z"/>
          <path class="cls-2" d="M507.41,674.88c1.11-1.36,1.14-7.7.13-9.84-.65-1.39-6.97-.63-11.65-1.1-6.64-.67-13.52-1.53-20.05-2.86-8.96-1.82-17.18-6.6-25.96-9.25-9.65-2.91-18.9-6.89-28.52-10.14,1.04-3.13,4.68-6.67,6.54-8.03-2.4-.25-6.66,2.25-8.73,3.29-1.89.95-3.91,1.5-5.87,2.26-2.61-.71-5.26-1.35-7.97-1.86-7.31-1.38-14.33-3.33-21.45-5.22-6.86-1.82-13.69-2.61-20.4-3.75-.4,3.93.34,8.8.28,12.32-.07,3.6-2.2,3.15,2.44,4.88,2.25.84,5.57.96,7.91,1.4,4.85.92,9.97.52,14.62,2.03,4.2,1.36,7.57,3.99,11.85,5.3,4.83,1.47,9.74,4.09,14.76,4.92,3.94.65,8.27-.4,12.27.23,6.8,1.07,18.33,4.97,23.5,9.38,2.45,2.09,3.97,5.31,6.42,7.48,3.73,3.31,7.77,2.44,11.72,4.69-1.19-3.81-7.6-3.77-8.47-7.95,6.14-.23,12.26,2.71,18.58,2.48,7.31-.26,14.39.22,21.62.86,3.04.27,4.29,1.1,6.43-1.52ZM391.21,639.65c-6.31-1.18-13.91-2-19.11-6.32,5.79,1.57,11.77,1.99,17.63,3.51,4.98,1.29,11.14,2.05,15.71,4.45l-1.13.1c-4.95.11-8.12-.81-13.1-1.74ZM407.57,652.18c-1.94-.73-3.82-1.44-5.7-2.4-1.41-.72-2.83-1.45-4.32-1.98-1.1-.39-2.73-.35-3.35-1.37,1.39-.06,2.82.75,4.22,1.03,1.74.34,5.82,1.53,7.5,2.11,7.17,2.5,11.24,3.85,15.74,4.89-4.67-.38-9.52-.57-14.09-2.28ZM435.26,652.43c-4.19-1.74-11.29-4.03-14.17-6.83-.04-.02-.07-.03-.11-.05l-.1-.16c.07.07.14.14.21.21,6.22,2.74,12.28,4.9,18.51,7.23,3.05,1.14,7.55,1.41,10.02,3.43-4.35,1.14-10.35-2.16-14.37-3.83ZM464.92,667.8c-6.13-1.96-12.1-5-18.26-6.72,2.25-.57,4.81.39,6.98,1.07.11.03.21.07.32.1,2.73.83,5.4,1.84,8.12,2.69,2.88.91,5.78,1.77,8.68,2.63,1.46.43,2.92.87,4.38,1.31.74.22,1.47.45,2.21.67.39.12.77.24,1.16.36.14.04.88.37.98.31-3.83,2.45-10.81-1.21-14.57-2.41ZM474.82,663.35c-.07-.02-.12-.04-.14-.07.05.02.09.05.14.07.39.12,1.43.12,1.66.15.57.09,1.13.19,1.69.3,1.24.24,2.46.53,3.67.88.38.11.75.23,1.12.37,1.1.4,2.16.86,3.28,1.21.86.27,1.75.42,2.64.53.45.06.91.11,1.36.15.24.03.48.05.71.08.11.01.52.12.6.07-3.42,2.16-11.09-.86-16.76-3.74Z"/>
          <path class="cls-2" d="M606.61,752.98c.04-1.76-3.81-6.79-5.92-7.87-1.36-.7-5.9,3.77-9.89,6.26-5.67,3.53-11.63,7.06-17.61,10-8.2,4.04-17.62,5.29-26.2,8.57-9.42,3.6-19.16,6.11-28.76,9.43-1.09-3.11-.38-8.14.26-10.35-2.06,1.27-3.89,5.86-4.89,7.94-.91,1.91-2.17,3.57-3.26,5.38-2.5,1.03-4.98,2.15-7.44,3.41-6.63,3.38-13.37,6.13-20.16,8.99-6.54,2.76-12.42,6.31-18.43,9.52,2.08,3.35,5.66,6.75,7.76,9.58,2.15,2.88.18,3.84,4.92,2.37,2.29-.71,4.99-2.65,7.11-3.73,4.4-2.24,8.21-5.69,12.8-7.34,4.15-1.5,8.43-1.47,12.62-3.06,4.72-1.79,10.21-2.72,14.68-5.14,3.51-1.9,6.3-5.38,9.85-7.33,6.03-3.32,17.54-7.29,24.33-6.96,3.22.16,6.39,1.77,9.66,1.99,4.98.34,7.64-2.83,12.14-3.46-3.27-2.29-8.31,1.67-11.56-1.1,4.71-3.94,11.35-5.36,16.22-9.4,5.63-4.68,11.52-8.63,17.63-12.55,2.57-1.65,4.07-1.75,4.15-5.13ZM493.14,796.21c-5.71,2.93-12.23,6.93-18.99,6.7,5.54-2.31,10.53-5.63,16.09-8.01,4.72-2.03,10.06-5.19,15.15-6.1l-.83.77c-3.84,3.12-6.91,4.33-11.43,6.64ZM513.75,796.12c-1.98.61-3.91,1.2-5.98,1.59-1.55.29-3.13.59-4.63,1.07-1.11.36-2.38,1.4-3.48.97,1.07-.9,2.7-1.13,3.97-1.77,1.58-.79,5.54-2.35,7.22-2.92,7.2-2.41,11.25-3.83,15.44-5.76-3.92,2.56-7.88,5.38-12.54,6.82ZM535.8,779.38c-4.38,1.19-11.39,3.72-15.38,3.27-.04,0-.07.02-.11.03l-.18-.07c.09.01.19.03.29.04,6.6-1.64,12.71-3.64,19.07-5.61,3.11-.97,6.83-3.51,10.03-3.42-2.74,3.56-9.51,4.62-13.71,5.76ZM568.67,773.39c-6.05,2.21-12.63,3.45-18.55,5.86,1.43-1.82,4.04-2.63,6.18-3.43.1-.04.21-.08.31-.12,2.66-1.02,5.39-1.85,8.07-2.84,2.84-1.05,5.66-2.14,8.48-3.23,1.42-.55,2.84-1.1,4.27-1.65.72-.28,1.44-.55,2.16-.82.38-.14.75-.28,1.13-.43.14-.05.92-.24.96-.36-1.53,4.28-9.29,5.66-13,7.01ZM573.77,763.81c-.07.03-.12.04-.16.03.05,0,.1-.02.16-.03.38-.15,1.2-.78,1.41-.9.5-.28,1.01-.54,1.52-.8,1.12-.57,2.27-1.09,3.44-1.55.37-.15.74-.28,1.11-.4,1.11-.36,2.24-.64,3.33-1.05.84-.32,1.64-.74,2.42-1.2.39-.23.78-.47,1.17-.71.2-.13.41-.25.61-.38.1-.06.48-.22.52-.32-1.39,3.8-9.3,6.1-15.55,7.3Z"/>
          <g>
            <path class="cls-2" d="M99.67,181.12l-116.17-12.92c-.83-.09-1.59.51-1.68,1.34l-6.35,57.06c-.09.83.51,1.59,1.34,1.68l116.17,12.92c.83.09,1.59-.51,1.68-1.34l6.35-57.06c.09-.83-.51-1.59-1.34-1.68ZM-15.63,174.06L1.17,200.58l-22.21,22.17,5.42-48.69ZM8.53,174.04c0,.05,0,.1.01.15,0,0,0,.01,0,.02,0,0,0,.02,0,.03,0,0,0,0,0,.01,0,.01,0,.02,0,.03,0,0,0,0,0-.01,0,.07,0,.14,0,.21-.03.66-.13,1.31-.25,1.96-.12.65-.26,1.3-.4,1.94-.12.58-.21,1.14-.27,1.73-.23,2.33-.39,4.67-.65,7-.25,2.33-.39,4.67-.54,7.01-.03.54-.06,1.07-.06,1.62,0,.52.02,1.04.02,1.55,0,.54-.02,1.08-.08,1.61-.02.13-.04.25-.06.38,0,.05-.02.11-.03.16,0,.02,0,.04-.01.06,0,0,0,.01,0,.02-.01.05-.03.1-.05.14l-2.28-.25-2.55-4.03c.37-1.11.53-2.29.64-3.45.13-1.39.18-2.78.31-4.17.06-.67.13-1.33.25-1.99.14-.79.31-1.57.45-2.36.29-1.65.51-3.3.71-4.96.19-1.63.36-3.27.54-4.9l4.32.48ZM27.42,176.15c.02.15.03.3.03.45,0,.02,0,.17,0,.2,0,.09,0,.18-.01.28-.01.21-.03.41-.05.62-.09.8-.27,1.58-.45,2.37-.18.75-.37,1.5-.51,2.26-.17.91-.26,1.83-.38,2.75-.25,1.88-.52,3.76-.75,5.64-.23,1.82-.42,3.65-.6,5.48-.19,1.83-.37,3.66-.58,5.49l-4.84-.54c.16-.52.24-1.06.29-1.6.09-.87.1-1.75.15-2.63.06-1.06.21-2.12.31-3.17.11-1.2.22-2.4.34-3.6.24-2.38.56-4.74.97-7.1.2-1.18.41-2.36.56-3.55.08-.6.15-1.19.23-1.79.08-.63.17-1.26.2-1.9,0-.07,0-.15.01-.23l5.07.56ZM33.58,176.83c0,.08,0,.16.01.25,0,0,0,0,0,0,0,0,0,.02,0,.03,0,.07,0,.15,0,.22,0,.45-.03.89-.07,1.34-.08.92-.23,1.83-.4,2.74-.16.88-.33,1.76-.48,2.65-.16.96-.27,1.92-.36,2.89-.18,1.96-.3,3.93-.5,5.89-.17,1.64-.3,3.28-.48,4.92-.1.91-.22,1.82-.37,2.73-.07.43-.15.85-.24,1.27-.02.1-.04.2-.07.3,0,.03-.01.07-.02.1.05-.18,0,.04-.02.07-.01.05-.03.11-.04.16l-5.11-.57c.4-3.43.69-6.88,1.1-10.31.23-1.9.51-3.79.75-5.69.13-.96.24-1.93.38-2.89.11-.75.29-1.5.47-2.23.33-1.4.73-2.92.62-4.39l4.83.54ZM39.88,177.53s0,.04,0,.05c0,0,0,0,0,.01,0,.04,0,.09,0,.13,0,.1-.01.2-.02.29-.03.39-.1.78-.16,1.17-.14.92-.26,1.85-.4,2.78-.26,1.82-.47,3.64-.68,5.46-.4,3.42-.83,6.84-1.24,10.27-.21,1.71-.41,3.43-.6,5.14,0,.08,0,.16.02.24l-4.97-.55c.33-1.29.52-2.62.68-3.94.2-1.67.34-3.35.5-5.03.09-.89.19-1.78.26-2.68.08-1.02.15-2.05.24-3.07.08-1.01.19-2.02.33-3.03.13-.89.3-1.77.47-2.65.32-1.7.62-3.43.57-5.17l5,.56ZM51.95,178.87c.03.15.05.31.06.47,0,.05,0,.1,0,.15,0,0,0,0,0,0,0,.09,0,.19,0,.28,0,.19-.02.38-.04.57-.07.78-.2,1.55-.29,2.32-.22,1.88-.54,3.75-.82,5.63-.29,1.9-.49,3.8-.74,5.71-.24,1.88-.51,3.76-.74,5.64-.1.86-.17,1.73-.26,2.59-.04.4-.09.8-.17,1.2,0,.04-.02.09-.03.13,0,.01,0,.02,0,.03,0,0,0,.01,0,.02-.02.08-.05.16-.07.23-.03.09-.06.17-.1.26-.01.03-.02.05-.04.08-.02.04-.12.21-.02.04-.03.05-.05.1-.07.16l-5.07-.56c.13-.58.2-1.17.25-1.76.08-.88.15-1.75.27-2.63.25-1.83.59-3.64.9-5.46.61-3.63.98-7.31,1.72-10.93.32-1.55.76-3.09.95-4.67l4.31.48ZM57.83,179.53c-.12,2.69-.65,5.35-1.11,7.99-.31,1.8-.56,3.6-.71,5.42-.13,1.58-.26,3.16-.41,4.73-.16,1.69-.33,3.38-.59,5.06-.05.34-.11.67-.17,1-.03.15-.06.3-.09.45-.01.07-.03.13-.04.2,0,.03-.01.06-.02.09,0,0,0,0,0,0,0,.04-.02.09-.03.11-.02.06-.03.11-.05.17-.03.09-.06.18-.09.27,0,0,0,.01,0,.02l-4.54-.51c.51-1.21.47-2.62.61-3.9.22-1.93.49-3.86.74-5.78.25-1.91.45-3.84.73-5.75.28-1.92.62-3.84.86-5.77.11-.91.25-1.82.35-2.74.05-.52.08-1.06.03-1.59l4.55.51ZM63.34,180.14c0,.05,0,.1.01.15,0,0,0,.01,0,.02,0,0,0,.02,0,.03,0,0,0,.01,0,.02,0,0,0,.02,0,.02,0,0,0,0,0-.01,0,.07,0,.14,0,.21-.03.66-.14,1.32-.26,1.97-.23,1.17-.57,2.31-.79,3.48-.43,2.27-.46,4.59-.68,6.89-.22,2.31-.54,4.61-.82,6.92-.24,1.94-.44,3.89-.66,5.83l-4.31-.48c.15-.5.25-1.01.34-1.52.29-1.63.46-3.28.62-4.92.17-1.68.31-3.36.45-5.04.13-1.59.3-3.17.55-4.75.49-3.07,1.17-6.12,1.32-9.23,0-.02,0-.04,0-.06l4.22.47ZM69.13,180.79c.01.11.02.22.03.34,0,0,0,.02,0,.02,0,.04,0,.07,0,.11,0,.09,0,.18,0,.26,0,.2-.02.4-.04.6-.08.79-.24,1.57-.4,2.35-.16.74-.33,1.47-.45,2.22-.16.99-.34,1.98-.52,2.96-.34,1.91-.63,3.83-.91,5.74-.28,1.91-.55,3.82-.76,5.74-.19,1.72-.33,3.44-.39,5.17l-4.26-.47c.19-1.71.37-3.42.57-5.12.27-2.33.61-4.65.84-6.99.24-2.32.27-4.67.64-6.97.2-1.26.57-2.49.83-3.75.15-.73.29-1.48.32-2.23,0-.15.01-.32,0-.48l4.48.5ZM81.11,182.12v.05s0,0,0,0c0,.09,0,.19,0,.28,0,.38,0,.75-.02,1.13-.03.81-.1,1.63-.18,2.44-.17,1.6-.41,3.19-.74,4.77-.41,1.94-.79,3.88-1.05,5.84-.14,1.04-.19,2.07-.26,3.12-.04.53-.07,1.06-.13,1.59l-5.79,5.78-.75-.08c.14-1.03.39-2.04.61-3.05.29-1.32.49-2.65.71-3.98.46-2.71.95-5.42,1.49-8.11.25-1.24.52-2.47.76-3.71.28-1.44.54-2.88.68-4.34.07-.65.11-1.3.08-1.96,0-.09-.01-.17-.02-.26l4.6.51ZM96.28,183.8l-3.88,3.88c.04-.15.08-.31.12-.46.07-.27.12-.55.16-.83.08-.58.11-1.17.18-1.75.03-.29.07-.58.13-.86.01-.05.02-.1.03-.15,0,.02.04-.15.05-.17,0,0,0,0,0,0l3.22.36ZM92.29,230.22s-.02,0-.03,0c-.06-.02-.12-.03-.18-.05-.13-.03-.26-.07-.38-.11-.25-.07-.49-.14-.74-.2-.85-.23-1.7-.4-2.58-.39l-3.03-4.79c.88.09,1.76.19,2.64.29.7.09,1.4.18,2.1.28.58.08,1.14.18,1.72.21.3.02.61.03.91.07.05,0,.35.02.38.06,0,0-.14-.04-.04,0,.03.01.07.02.1.03,0,0,.02,0,.03.01l-.52,4.68c-.11-.02-.23-.05-.34-.08-.01,0-.03,0-.03,0ZM82.61,201.53c1.85.59,3.78.86,5.7,1.06,1.78.19,3.57.36,5.35.61.41.06.82.12,1.23.2.05.01.12.04.18.05.01,0,.04,0,.07,0,0,0,0,0,0,0,0,0,0,0,0,0,0,0,0,0,0,0,.05.01.09.03.14.04.06.02.13.04.19.07.02,0,.04.02.07.03.03.02.06.04.09.05l-.51,4.56c-.24.05-.48.08-.73.09,0,0-.01,0-.02,0-.02,0-.03,0-.04,0-.06,0-.12,0-.18,0-.14,0-.28-.02-.43-.03-.57-.06-1.14-.17-1.69-.31-.03,0-.25-.06-.11-.03-.07-.02-.13-.03-.2-.05-.15-.04-.3-.08-.45-.12-.27-.07-.54-.15-.81-.22-.56-.15-1.13-.29-1.7-.4-1.42-.27-2.84-.48-4.27-.67-1.29-.17-2.58-.31-3.86-.54-.69-.12-1.4-.25-2.12-.31l4.09-4.09ZM93.24,190.93c1.2.41,2.47.54,3.74.65l-.49,4.38c-.36-.13-.75-.19-1.13-.24-.55-.07-1.11-.1-1.66-.14-.59-.04-1.17-.13-1.75-.18-.73-.07-1.47-.12-2.2-.17-.25-.02-.51-.03-.76-.05l4.25-4.24ZM87.78,196.38c1.22.11,2.45.17,3.67.28.62.06,1.24.15,1.86.2.53.04,1.06.06,1.6.12.29.03.58.07.86.13.01,0,.04,0,.06,0,0,0,.01,0,.02,0,.06.02.13.04.19.06.11.04.21.08.31.13l-.56,5c-.16-.05-.32-.09-.49-.13-.35-.08-.71-.14-1.06-.2-.75-.12-1.51-.22-2.26-.31-1.99-.23-3.98-.37-5.96-.68-.54-.09-1.09-.19-1.62-.31-.11-.03-.22-.05-.33-.08-.03,0-.1-.02-.11-.03-.07-.02-.14-.04-.21-.06-.03,0-.06-.02-.08-.02l4.12-4.11ZM94.45,208.3s-.03,0-.06,0c.02,0,.06,0,.06,0ZM77.21,206.93c.13-.02.26-.03.39-.03.01,0,.02,0,.03,0,.01,0,.03,0,.04,0,.07,0,.13,0,.2,0,.15,0,.31.01.46.02.61.04,1.21.14,1.8.24.57.1,1.13.2,1.7.28.7.09,1.4.17,2.09.26,1.43.19,2.86.4,4.28.65.31.06.62.11.93.18.11.02.22.05.33.08.02,0,.07.02.1.03.07.02.14.04.21.05.56.15,1.11.3,1.67.44,1.13.29,2.35.58,3.53.42l-.44,3.98c-2.22-.26-4.42-.61-6.62-.97-2.38-.4-4.76-.82-7.15-1.18-1.33-.2-2.67-.39-4.01-.53-.05,0-.1,0-.15,0l-1.29-2.03,1.9-1.9ZM83.72,213.17c2.37.4,4.73.81,7.11,1.18,1.18.18,2.37.34,3.56.48l-.46,4.13c-1.48-.43-3.05-.41-4.57-.57-1.81-.19-3.6-.47-5.42-.64-1.02-.1-2.05-.16-3.08-.16l-3.39-5.34c2.09.25,4.17.58,6.24.93ZM86.13,219.31c.89.11,1.79.23,2.68.33.82.1,1.65.14,2.48.21.48.04.95.09,1.42.17.11.02.21.04.32.06.05.01.1.02.16.03.02,0,.11.03.14.03.16.04.31.09.46.14l-.45,4.04c-.31-.08-.64-.11-.96-.13-.56-.04-1.12-.08-1.67-.16-1.42-.22-2.85-.39-4.28-.55-.65-.07-1.3-.14-1.95-.2l-2.76-4.36c1.48.06,2.96.22,4.43.4ZM97.12,190.28c-.42-.04-.84-.08-1.26-.13-.45-.05-.89-.12-1.34-.21-.08-.02-.16-.04-.24-.05l3.24-3.23-.4,3.63ZM91.37,186.3c-.02.16-.05.31-.08.46-.01.06-.03.12-.04.18,0,.04-.02.07-.03.11,0,0,0,.01,0,.02-.08.32-.17.64-.23.96-.08.37-.11.75-.08,1.12l-3.65,3.65c.31-2.57.65-5.13.96-7.7.09-.73.17-1.46.26-2.19l3.28.37c-.24.98-.24,2-.38,3ZM86.03,192.03c-.09.76-.18,1.51-.27,2.27l-5.62,5.61c.04-.73.07-1.46.15-2.19.41-3.69,1.41-7.28,1.84-10.97.17-1.48.3-2.99.27-4.49l4.77.53c-.35,3.08-.77,6.16-1.14,9.24ZM75.17,181.46s0,0,0,0c0,.04.02.08.03.12.02.1.03.21.04.31,0,.06,0,.12.01.17,0,.02,0,.04,0,.06,0,.13,0,.27,0,.4,0,.31-.03.62-.06.93-.13,1.44-.38,2.87-.65,4.29-.21,1.1-.45,2.19-.67,3.29-.55,2.65-1.03,5.3-1.49,7.97-.23,1.32-.41,2.64-.67,3.95-.25,1.27-.6,2.53-.79,3.82,0,.04,0,.07-.01.11l-3.91-.43c.11-3.43.56-6.85,1.05-10.24.28-1.92.56-3.84.89-5.75.17-1,.36-1.99.53-2.99.13-.79.27-1.58.44-2.37.19-.88.39-1.77.49-2.67.06-.49.09-.99.06-1.49l4.71.52ZM54.64,205.05c.07-.03.15-.03.24-.03-.08,0-.17,0-.24.03ZM52.01,179.47s0-.06,0,0h0ZM45.52,182.3c-.39,1.75-.65,3.53-.92,5.31-.27,1.82-.51,3.65-.8,5.46-.3,1.82-.64,3.63-.92,5.46-.15.98-.27,1.96-.35,2.94-.04.49-.08.98-.15,1.46-.03.24-.07.48-.13.71,0,.02,0,.04-.01.05l-4.25-.47c.04-.07.06-.15.07-.23.36-3.24.77-6.48,1.16-9.71.21-1.74.42-3.48.63-5.22.21-1.81.41-3.61.66-5.42.15-1.08.29-2.15.46-3.23.09-.57.2-1.16.2-1.74l5.16.57c-.16,1.37-.52,2.71-.82,4.05ZM21.06,175.44c0,.1,0,.2-.01.3-.04.61-.12,1.21-.2,1.81-.23,1.68-.45,3.37-.74,5.04-.39,2.28-.73,4.55-.97,6.85-.23,2.27-.45,4.54-.67,6.81-.09.9-.08,1.81-.15,2.71-.03.46-.08.93-.17,1.38,0,.05-.02.09-.03.14,0,.04-.03.25-.01.06,0,.1-.06.21-.09.3-.02.06-.04.11-.06.17l-4.51-.5c.02-.16.03-.31.05-.47.05-.45.1-.89.16-1.34.11-.87.22-1.74.33-2.61.23-1.75.47-3.51.67-5.26.41-3.57.58-7.16.82-10.74.11-1.74.25-3.48.42-5.21l5.15.57ZM13.9,184.52c-.12,1.79-.25,3.58-.44,5.37-.18,1.73-.41,3.46-.64,5.18-.13.97-.26,1.94-.38,2.91-.06.49-.12.98-.18,1.47-.03.24-.05.47-.08.71,0,.03,0,.06,0,.09-.02.03-.04.05-.06.08l-4.65-.52c.16-.62.21-1.28.22-1.91.02-.95-.05-1.9,0-2.85.05-1.16.14-2.32.22-3.48.08-1.2.17-2.41.29-3.61.12-1.18.25-2.36.36-3.55.1-1.19.2-2.38.31-3.57.07-.7.13-1.39.27-2.08.13-.65.28-1.29.41-1.94.13-.67.25-1.35.29-2.03.01-.2.02-.41.02-.62l4.77.53c-.33,3.26-.49,6.53-.71,9.8ZM1.78,182.62c-.24,1.48-.6,2.94-.76,4.44-.15,1.38-.2,2.77-.31,4.16-.06.74-.14,1.49-.26,2.23-.03.15-.06.31-.09.46l-3.75-5.92c.24-2.11.51-4.21.79-6.32.28-2.11.58-4.21.85-6.32.1-.8.2-1.6.3-2.41l4.36.48c-.33,3.07-.63,6.15-1.13,9.2ZM-3.39,177.88c-.29,2.16-.59,4.31-.87,6.47-.08.62-.16,1.25-.23,1.87l-3.37-5.32c.26-1.01.16-2.13.2-3.14.03-.79.15-1.58.24-2.37.1-.91.19-1.81.22-2.73,0-.13,0-.26.02-.39l4.44.49c-.2,1.7-.43,3.4-.65,5.1ZM-8.48,172.15c0,.35-.02.7-.04,1.05-.05.81-.14,1.61-.23,2.41-.08.68-.18,1.36-.2,2.05-.02.49-.01.99-.03,1.48l-4.8-7.58,5.3.59ZM3.54,202.3l69.08,7.68,17.65,27.86-110.07-12.24,23.34-23.3ZM89.24,230.81s.04,0,.06,0c.25.04.51.08.76.14.05.01.09.02.14.03.01,0,.08.02.11.03.12.03.24.06.35.1.62.17,1.24.36,1.87.49l-.42,3.74-2.87-4.53Z"/>
            <path class="cls-2" d="M8.54,174.27s0-.01,0-.02c0-.01,0-.03,0-.04,0-.05-.02-.08,0,.06Z"/>
            <path class="cls-2" d="M63.35,180.38s0,0,0-.01c0-.02,0-.03,0-.05,0-.05-.03-.06,0,.06Z"/>
            <path class="cls-2" d="M95.15,203.47s0,0,0,0c-.02,0-.04,0-.07,0-.02,0,0,.01.07,0Z"/>
          </g>
          <path class="cls-2" d="M185.07,95.73s0-.05,0-.07c0-.03,0-.06,0-.09,0-.03,0-.05-.01-.08,0-.03,0-.05-.01-.08,0-.03-.01-.05-.02-.08,0-.03-.01-.05-.02-.08,0-.02-.02-.05-.02-.07,0-.03-.02-.05-.03-.08,0-.02-.02-.05-.03-.07-.01-.02-.02-.05-.03-.07-.01-.03-.03-.05-.05-.08-.01-.02-.02-.04-.03-.06-.06-.09-.13-.17-.2-.25-.02-.02-.03-.03-.05-.04-.02-.02-.04-.04-.07-.06-.02-.02-.04-.03-.06-.05-.02-.02-.04-.03-.06-.05-.02-.01-.04-.03-.07-.04-.02-.01-.05-.03-.07-.04-.02-.01-.04-.02-.07-.03-.03-.01-.05-.03-.08-.04-.02,0-.04-.02-.07-.03-.03-.01-.05-.02-.08-.03-.03,0-.05-.01-.08-.02-.03,0-.05-.01-.08-.02-.05,0-.09-.02-.14-.02,0,0-.01,0-.02,0l-57.73-6.42s-.01,0-.02,0c-.05,0-.09,0-.14,0-.03,0-.05,0-.08,0-.03,0-.05,0-.08,0-.03,0-.06,0-.09.01-.02,0-.05,0-.07,0-.03,0-.06.01-.08.02-.02,0-.05.01-.07.02-.03,0-.05.02-.08.03-.02,0-.05.02-.07.03-.03.01-.05.02-.07.03-.02.01-.05.02-.07.03-.03.01-.05.03-.08.05-.02.01-.04.02-.06.03-.09.06-.17.13-.25.2-.02.02-.03.03-.05.05-.02.02-.04.04-.06.07-.02.02-.03.04-.05.06-.02.02-.03.04-.05.06-.02.02-.03.05-.04.07-.01.02-.03.04-.04.07-.01.02-.02.05-.03.07-.01.02-.02.05-.04.07-.01.02-.02.05-.03.07,0,.03-.02.05-.03.08,0,.03-.02.06-.02.09,0,.02-.01.04-.02.07-.01.05-.02.11-.03.16l-6.42,57.73c0,.05,0,.11,0,.16,0,.02,0,.05,0,.07,0,.03,0,.06,0,.09,0,.03,0,.05.01.08,0,.03,0,.05.01.08,0,.03.01.05.02.08,0,.03.01.05.02.08,0,.02.02.05.02.07,0,.03.02.05.03.08,0,.02.02.05.03.07.01.02.02.05.03.07.01.03.03.05.05.08.01.02.02.04.03.06.06.09.13.17.2.25.02.02.03.03.05.04.02.02.04.04.07.06.02.02.04.03.06.05.02.02.04.03.06.05.02.01.04.03.07.04.02.01.04.03.07.04.02.01.04.02.07.03.02.01.05.03.08.04.02,0,.05.02.07.03.03,0,.05.02.08.03.03,0,.05.01.08.02.02,0,.05.01.07.02.05.01.1.02.16.03l57.73,6.42c.05,0,.11,0,.16,0,.02,0,.05,0,.07,0,.03,0,.06,0,.09,0,.03,0,.06,0,.08-.01.02,0,.05,0,.07-.01.03,0,.05-.01.08-.02.02,0,.05-.01.07-.02.03,0,.05-.02.08-.03.02,0,.05-.02.07-.03.02,0,.05-.02.07-.03.02-.01.05-.02.07-.03.03-.01.05-.03.08-.05.02-.01.04-.02.06-.03.09-.06.17-.13.25-.2.02-.02.03-.03.05-.05.02-.02.04-.04.06-.07.02-.02.03-.04.05-.06.02-.02.03-.04.05-.06.02-.02.03-.05.04-.07.01-.02.03-.04.04-.07.01-.02.02-.05.03-.07.01-.02.02-.05.04-.07.01-.02.02-.05.03-.07,0-.03.02-.05.03-.08,0-.03.02-.06.02-.09,0-.02.01-.04.02-.07.01-.05.02-.11.03-.16l6.42-57.73c0-.05,0-.11,0-.16ZM172.84,145.21s.02,0,0,0h0ZM172.81,145.2s-.05-.01-.06-.01c-.04-.01-.08-.03-.13-.04-.08-.03-.16-.06-.24-.1l-2.85-3.56s.05,0,.08,0c.29,0,.58,0,.87.02.57.02,1.14.06,1.71.1,1.15.09,2.29.23,3.44.37.34.04.69.08,1.03.12l-.39,3.51c-.59-.19-1.24-.23-1.85-.25-.38-.02-.77-.03-1.15-.07-.16-.02-.32-.05-.47-.08ZM137.18,101.03c.26-2.45.38-4.92.58-7.38.04-.46.08-.92.12-1.38l4.12.46s0,.04,0,.06c0,.05,0,.11,0,.16,0,.03,0,.07.01.11,0,0,0,.02,0,.04,0,.03,0,.06,0,.08,0,.06,0,.12,0,.19,0,.12,0,.24,0,.36,0,.24-.02.48-.03.72-.07.99-.2,1.97-.35,2.95-.15.97-.31,1.94-.44,2.92-.13,1-.17,2-.28,3.01-.07.69-.16,1.38-.25,2.07l-3.48-4.35ZM136.09,99.67l-3.11-3.89c.16-1.33.47-2.67.32-4.02l3.37.37c-.23,2.51-.35,5.03-.58,7.54ZM142.35,100.77c.24-1.97.65-3.92.81-5.9.05-.67.08-1.34.05-2.01l3.81.42c.01.13.02.27.03.4,0,.03,0,.07,0,.1,0,0,0-.02,0-.03,0,0,0,0,0,0,0,.06,0,.12,0,.18,0,.16,0,.31-.02.47-.02.28-.04.57-.08.85-.13,1.13-.38,2.24-.51,3.37-.08.67-.1,1.36-.13,2.03-.04.77-.09,1.54-.15,2.3-.06.78-.14,1.55-.25,2.33-.11.76-.22,1.52-.27,2.29-.09,1.25-.12,2.51-.21,3.76l-3.71-4.64c.11-.95.25-1.89.35-2.83.12-1.03.16-2.06.28-3.09ZM146.8,108.25c.05-.79.12-1.57.24-2.35.12-.77.21-1.54.28-2.31.07-.78.12-1.57.17-2.35.04-.73.07-1.47.13-2.2.1-1.11.34-2.21.49-3.31.09-.69.15-1.39.13-2.09,0-.07,0-.14,0-.21l3.46.38c.06.34.11.68.13,1.03,0,.08.01.16.01.24,0,.04,0,.09,0,.13,0,.01,0,.05,0,.08,0,.03,0,.07,0,.08,0,.04,0,.09,0,.13,0,.09,0,.18,0,.27,0,.37-.03.75-.05,1.12-.11,1.43-.34,2.85-.46,4.29-.07.86-.11,1.73-.16,2.6-.06.93-.12,1.86-.2,2.79-.16,1.87-.38,3.74-.55,5.61-.15,1.61-.29,3.22-.45,4.83l-3.46-4.33c.19-1.47.21-2.95.3-4.43ZM151.04,118.36c.19-1.79.35-3.58.51-5.37.09-.95.17-1.9.27-2.84.1-.94.21-1.88.29-2.82.17-1.87.27-3.74.39-5.62.09-1.43.33-2.84.46-4.26.07-.78.1-1.56.08-2.34-.01-.39-.04-.78-.1-1.17l3.97.44c0,.09,0,.18,0,.27,0,.05,0,.1,0,.15,0-.16,0,0,0,.03,0,.21,0,.42,0,.63,0,.81-.03,1.62-.08,2.42-.1,1.6-.27,3.2-.45,4.8-.18,1.61-.37,3.22-.5,4.84-.12,1.48-.21,2.95-.32,4.43-.1,1.43-.22,2.85-.36,4.28l-3.6,2.88-.59-.74ZM166.68,95.47s0,.04,0,.07c0,.12-.01.24-.02.36-.04.46-.12.92-.19,1.38-.07.47-.14.93-.17,1.4-.04.59-.05,1.17-.06,1.76-.01.58-.02,1.16-.07,1.73-.04.58-.13,1.15-.22,1.73-.09.58-.19,1.15-.28,1.73-.09.58-.15,1.16-.21,1.74l-.08.75-3.99,3.19c0-.14,0-.28.02-.42.04-.63.13-1.25.23-1.87.1-.62.22-1.24.32-1.87.1-.6.16-1.2.21-1.81.11-1.44.35-2.87.56-4.3.1-.67.2-1.35.26-2.03.05-.55.06-1.1.07-1.65.01-.64.02-1.28.05-1.92,0-.12.01-.24.02-.37l3.56.4ZM175.37,99.43c0,.24-.02.47-.03.71l-3.43,2.74c0-.06.01-.12.02-.18.07-.65.19-1.3.3-1.95.24-1.33.5-2.67.43-4.03-.01-.2-.03-.4-.07-.59l2.94.33c-.15.98-.13,2-.16,2.97ZM176.59,122.52c-1.2-.2-2.41-.32-3.6-.53-2.05-.35-4.11-.65-6.18-.92-2.06-.27-4.13-.51-6.2-.73-1.57-.17-3.14-.34-4.72-.51l4.67-3.73c2.32.24,4.63.62,6.93,1.02,1.37.24,2.73.49,4.09.73,1.31.23,2.63.47,3.95.62.71.08,1.41.15,2.12.25.35.05.7.12,1.04.2.01,0,.15.03.05.01-.1-.02.07.02.09.02.08.02.16.05.25.07.05.02.1.03.16.05l-.44,3.95c-.08-.03-.16-.05-.24-.08-.64-.19-1.3-.32-1.97-.43ZM172.39,106.63c.54.23,1.11.38,1.68.5.72.15,1.45.24,2.17.32.69.08,1.39.15,2.07.27.5.09,1.01.14,1.51.22.16.03.32.06.48.09.03,0,.06.01.09.02.02,0,.04.01.06.02l-.48,4.27c-.32-.08-.65-.15-.98-.21-.72-.12-1.44-.2-2.15-.35-2.29-.47-4.6-.78-6.91-1.11-.73-.11-1.45-.22-2.18-.33l4.64-3.71ZM166.48,111.36c2.08.37,4.17.64,6.26.95,1.15.17,2.29.36,3.43.58.39.08.78.16,1.18.22.37.06.74.11,1.11.17.22.03.43.07.65.11.1.02.2.04.3.06.05.01.1.02.15.03.03,0,.09.02.11.03.06.02.12.03.17.05l-.48,4.29c-1.02-.3-2.1-.41-3.16-.52-1.32-.14-2.63-.35-3.94-.58-2.76-.48-5.5-1.02-8.27-1.43-.7-.11-1.4-.2-2.11-.29l4.58-3.67ZM180.59,106.86c-.07-.01-.13-.03-.2-.04-.55-.12-1.1-.17-1.65-.25-.63-.09-1.26-.19-1.9-.26-.75-.09-1.5-.17-2.24-.3-.21-.04-.41-.08-.61-.12-.04,0-.08-.02-.12-.03,0,0,.01,0,.02,0-.01,0-.03,0-.04-.01,0,0,0,0,0,0,0,0-.02,0-.02,0,0,0,0,0,0,0-.09-.02-.19-.05-.28-.08-.01,0-.03,0-.04-.01l3.34-2.67c1.38.09,2.78.05,4.14.31l-.39,3.47ZM171.32,95.99s0,.02,0,.03c0,.02.01.04.01.04.07.29.11.58.12.87,0,.03,0,.06,0,.09,0,.08,0,.16,0,.25,0,.17-.01.34-.02.5-.03.35-.07.69-.12,1.04-.2,1.41-.55,2.8-.65,4.21-.02.28-.03.57-.02.85l-3.96,3.17c.03-.3.07-.6.11-.89.08-.58.17-1.16.27-1.73.09-.57.19-1.14.25-1.72.06-.58.08-1.17.09-1.76.02-1.09.03-2.17.19-3.25.08-.52.17-1.03.22-1.55.02-.18.03-.36.04-.54l3.44.38ZM161.91,95.11c-.03.57-.04,1.15-.05,1.72-.01.57-.02,1.13-.06,1.7-.04.63-.13,1.26-.21,1.89-.2,1.43-.45,2.86-.59,4.3-.06.64-.1,1.27-.19,1.9-.09.63-.21,1.25-.31,1.87-.21,1.23-.41,2.5-.29,3.75l-3.65,2.92c.21-2.33.35-4.67.53-7.01.24-3.23.73-6.43.95-9.65.09-1.32.13-2.65.09-3.98l3.79.42c0,.06,0,.11,0,.17ZM154.55,120.9c1.7.19,3.4.37,5.1.55,2.05.22,4.1.45,6.15.71,2.04.26,4.08.54,6.11.88.68.11,1.36.24,2.05.33.61.08,1.23.16,1.84.25.64.09,1.28.2,1.9.35.03,0,.06.02.1.02.07.02.13.03.2.05.13.04.26.07.38.12.09.03.17.06.26.1l-.57,5.16c-2.57-.31-5.13-.76-7.68-1.24-2.78-.53-5.56-1.1-8.35-1.59-1.58-.28-3.17-.53-4.76-.73-.08-.01-.16,0-.23.02l-3.41-4.26.9-.72ZM165.62,128.49c2.78.54,5.55,1.1,8.35,1.56,1.32.22,2.65.42,3.99.58l-.53,4.75c-1.69-.18-3.38-.35-5.07-.54-2.15-.24-4.29-.51-6.43-.87-.95-.16-1.89-.34-2.83-.54l-4.99-6.24c2.52.35,5.02.81,7.51,1.29ZM168.59,135.6c2.12.29,4.26.52,6.39.74.77.08,1.54.16,2.31.24l-.48,4.32c-2.01-.24-4.01-.5-6.03-.59-.7-.03-1.4-.03-2.1-.01-.02,0-.05,0-.07.01l-4.32-5.41c1.43.28,2.87.5,4.32.7ZM181.11,102.18c-.27-.05-.55-.09-.83-.12-.67-.08-1.34-.11-2.01-.13l3.15-2.52-.31,2.77ZM176.58,99.14c.02-.85.03-1.71.16-2.55l2.66.3-2.82,2.25ZM132.08,91.62c0,.05,0,.11,0,.16.02.17.04.33.05.5,0,0,0,.03,0,.05,0,.02,0,.07,0,.08,0,.09,0,.18,0,.27-.01.35-.04.7-.09,1.04-.03.25-.07.5-.11.75l-2.52-3.15,2.66.3ZM126.9,93.34l22.21,27.77-27.77,22.21,5.56-49.98ZM123.36,145.85l27.77-22.21,22.21,27.77-49.98-5.56ZM173.57,146.52c.22.01.44.02.65.03.39.02.78.04,1.16.09.1.01.2.03.3.05.04,0,.21.06.02,0,.03.01.07.02.11.03.12.03.23.08.34.12l-.28,2.54-2.29-2.87Z"/>
          <path class="cls-2" d="M338.92,371.91s0-.05,0-.07c0-.03,0-.06,0-.09,0-.03,0-.05-.01-.08,0-.03,0-.05-.01-.08,0-.03-.01-.05-.02-.08,0-.03-.01-.05-.02-.08,0-.02-.02-.05-.02-.07,0-.03-.02-.05-.03-.08,0-.02-.02-.05-.03-.07-.01-.02-.02-.05-.03-.07-.01-.03-.03-.05-.05-.08-.01-.02-.02-.04-.03-.06-.06-.09-.13-.17-.2-.25-.02-.02-.03-.03-.05-.04-.02-.02-.04-.04-.07-.06-.02-.02-.04-.03-.06-.05-.02-.02-.04-.03-.06-.05-.02-.01-.04-.03-.07-.04-.02-.01-.05-.03-.07-.04-.02-.01-.04-.02-.07-.03-.03-.01-.05-.03-.08-.04-.02,0-.04-.02-.07-.03-.03-.01-.05-.02-.08-.03-.03,0-.05-.01-.08-.02-.03,0-.05-.01-.08-.02-.05,0-.09-.02-.14-.02,0,0-.01,0-.02,0l-57.73-6.42s-.01,0-.02,0c-.05,0-.09,0-.14,0-.03,0-.05,0-.08,0-.03,0-.05,0-.08,0-.03,0-.06,0-.09.01-.02,0-.05,0-.07,0-.03,0-.06.01-.08.02-.02,0-.05.01-.07.02-.03,0-.05.02-.08.03-.02,0-.05.02-.07.03-.03.01-.05.02-.07.03-.02.01-.05.02-.07.03-.03.01-.05.03-.08.05-.02.01-.04.02-.06.03-.09.06-.17.13-.25.2-.02.02-.03.03-.05.05-.02.02-.04.04-.06.07-.02.02-.03.04-.05.06-.02.02-.03.04-.05.06-.02.02-.03.05-.04.07-.01.02-.03.04-.04.07-.01.02-.02.05-.03.07-.01.02-.02.05-.04.07-.01.02-.02.05-.03.07,0,.03-.02.05-.03.08,0,.03-.02.06-.02.09,0,.02-.01.04-.02.07-.01.05-.02.11-.03.16l-6.42,57.73c0,.05,0,.11,0,.16,0,.02,0,.05,0,.07,0,.03,0,.06,0,.09,0,.03,0,.05.01.08,0,.03,0,.05.01.08,0,.03.01.05.02.08,0,.03.01.05.02.08,0,.02.02.05.02.07,0,.03.02.05.03.08,0,.02.02.05.03.07.01.02.02.05.03.07.01.03.03.05.05.08.01.02.02.04.03.06.06.09.13.17.2.25.02.02.03.03.05.04.02.02.04.04.07.06.02.02.04.03.06.05.02.02.04.03.06.05.02.01.04.03.07.04.02.01.04.03.07.04.02.01.04.02.07.03.02.01.05.03.08.04.02,0,.05.02.07.03.03,0,.05.02.08.03.03,0,.05.01.08.02.02,0,.05.01.07.02.05.01.1.02.16.03l57.73,6.42c.05,0,.11,0,.16,0,.02,0,.05,0,.07,0,.03,0,.06,0,.09,0,.03,0,.06,0,.08-.01.02,0,.05,0,.07-.01.03,0,.05-.01.08-.02.02,0,.05-.01.07-.02.03,0,.05-.02.08-.03.02,0,.05-.02.07-.03.02,0,.05-.02.07-.03.02-.01.05-.02.07-.03.03-.01.05-.03.08-.05.02-.01.04-.02.06-.03.09-.06.17-.13.25-.2.02-.02.03-.03.05-.05.02-.02.04-.04.06-.07.02-.02.03-.04.05-.06.02-.02.03-.04.05-.06.02-.02.03-.05.04-.07.01-.02.03-.04.04-.07.01-.02.02-.05.03-.07.01-.02.02-.05.04-.07.01-.02.02-.05.03-.07,0-.03.02-.05.03-.08,0-.03.02-.06.02-.09,0-.02.01-.04.02-.07.01-.05.02-.11.03-.16l6.42-57.73c0-.05,0-.11,0-.16ZM326.68,421.38s.02,0,0,0h0ZM326.65,421.38s-.05-.01-.06-.01c-.04-.01-.08-.03-.13-.04-.08-.03-.16-.06-.24-.1l-2.85-3.56s.05,0,.08,0c.29,0,.58,0,.87.02.57.02,1.14.06,1.71.1,1.15.09,2.29.23,3.44.37.34.04.69.08,1.03.12l-.39,3.51c-.59-.19-1.24-.23-1.85-.25-.38-.02-.77-.03-1.15-.07-.16-.02-.32-.05-.47-.08ZM291.02,377.2c.26-2.45.38-4.92.58-7.38.04-.46.08-.92.12-1.38l4.12.46s0,.04,0,.06c0,.05,0,.11,0,.16,0,.03,0,.07.01.11,0,0,0,.02,0,.04,0,.03,0,.06,0,.08,0,.06,0,.12,0,.19,0,.12,0,.24,0,.36,0,.24-.02.48-.03.72-.07.99-.2,1.97-.35,2.95-.15.97-.31,1.94-.44,2.92-.13,1-.17,2-.28,3.01-.07.69-.16,1.38-.25,2.07l-3.48-4.35ZM289.94,375.84l-3.11-3.89c.16-1.33.47-2.67.32-4.02l3.37.37c-.23,2.51-.35,5.03-.58,7.54ZM296.19,376.95c.24-1.97.65-3.92.81-5.9.05-.67.08-1.34.05-2.01l3.81.42c.01.13.02.27.03.4,0,.03,0,.07,0,.1,0,0,0-.02,0-.03,0,0,0,0,0,0,0,.06,0,.12,0,.18,0,.16,0,.31-.02.47-.02.28-.04.57-.08.85-.13,1.13-.38,2.24-.51,3.37-.08.67-.1,1.36-.13,2.03-.04.77-.09,1.54-.15,2.3-.06.78-.14,1.55-.25,2.33-.11.76-.22,1.52-.27,2.29-.09,1.25-.12,2.51-.21,3.76l-3.71-4.64c.11-.95.25-1.89.35-2.83.12-1.03.16-2.06.28-3.09ZM300.65,384.43c.05-.79.12-1.57.24-2.35.12-.77.21-1.54.28-2.31.07-.78.12-1.57.17-2.35.04-.73.07-1.47.13-2.2.1-1.11.34-2.21.49-3.31.09-.69.15-1.39.13-2.09,0-.07,0-.14,0-.21l3.46.38c.06.34.11.68.13,1.03,0,.08.01.16.01.24,0,.04,0,.09,0,.13,0,.01,0,.05,0,.08,0,.03,0,.07,0,.08,0,.04,0,.09,0,.13,0,.09,0,.18,0,.27,0,.37-.03.75-.05,1.12-.11,1.43-.34,2.85-.46,4.29-.07.86-.11,1.73-.16,2.6-.06.93-.12,1.86-.2,2.79-.16,1.87-.38,3.74-.55,5.61-.15,1.61-.29,3.22-.45,4.83l-3.46-4.33c.19-1.47.21-2.95.3-4.43ZM304.88,394.53c.19-1.79.35-3.58.51-5.37.09-.95.17-1.9.27-2.84.1-.94.21-1.88.29-2.82.17-1.87.27-3.74.39-5.62.09-1.43.33-2.84.46-4.26.07-.78.1-1.56.08-2.34-.01-.39-.04-.78-.1-1.17l3.97.44c0,.09,0,.18,0,.27,0,.05,0,.1,0,.15,0-.16,0,0,0,.03,0,.21,0,.42,0,.63,0,.81-.03,1.62-.08,2.42-.1,1.6-.27,3.2-.45,4.8-.18,1.61-.37,3.22-.5,4.84-.12,1.48-.21,2.95-.32,4.43-.1,1.43-.22,2.85-.36,4.28l-3.6,2.88-.59-.74ZM320.52,371.65s0,.04,0,.07c0,.12-.01.24-.02.36-.04.46-.12.92-.19,1.38-.07.47-.14.93-.17,1.4-.04.59-.05,1.17-.06,1.76-.01.58-.02,1.16-.07,1.73-.04.58-.13,1.15-.22,1.73-.09.58-.19,1.15-.28,1.73-.09.58-.15,1.16-.21,1.74l-.08.75-3.99,3.19c0-.14,0-.28.02-.42.04-.63.13-1.25.23-1.87.1-.62.22-1.24.32-1.87.1-.6.16-1.2.21-1.81.11-1.44.35-2.87.56-4.3.1-.67.2-1.35.26-2.03.05-.55.06-1.1.07-1.65.01-.64.02-1.28.05-1.92,0-.12.01-.24.02-.37l3.56.4ZM329.21,375.61c0,.24-.02.47-.03.71l-3.43,2.74c0-.06.01-.12.02-.18.07-.65.19-1.3.3-1.95.24-1.33.5-2.67.43-4.03-.01-.2-.03-.4-.07-.59l2.94.33c-.15.98-.13,2-.16,2.97ZM330.43,398.7c-1.2-.2-2.41-.32-3.6-.53-2.05-.35-4.11-.65-6.18-.92-2.06-.27-4.13-.51-6.2-.73-1.57-.17-3.14-.34-4.72-.51l4.67-3.73c2.32.24,4.63.62,6.93,1.02,1.37.24,2.73.49,4.09.73,1.31.23,2.63.47,3.95.62.71.08,1.41.15,2.12.25.35.05.7.12,1.04.2.01,0,.15.03.05.01-.1-.02.07.02.09.02.08.02.16.05.25.07.05.02.1.03.16.05l-.44,3.95c-.08-.03-.16-.05-.24-.08-.64-.19-1.3-.32-1.97-.43ZM326.23,382.81c.54.23,1.11.38,1.68.5.72.15,1.45.24,2.17.32.69.08,1.39.15,2.07.27.5.09,1.01.14,1.51.22.16.03.32.06.48.09.03,0,.06.01.09.02.02,0,.04.01.06.02l-.48,4.27c-.32-.08-.65-.15-.98-.21-.72-.12-1.44-.2-2.15-.35-2.29-.47-4.6-.78-6.91-1.11-.73-.11-1.45-.22-2.18-.33l4.64-3.71ZM320.33,387.53c2.08.37,4.17.64,6.26.95,1.15.17,2.29.36,3.43.58.39.08.78.16,1.18.22.37.06.74.11,1.11.17.22.03.43.07.65.11.1.02.2.04.3.06.05.01.1.02.15.03.03,0,.09.02.11.03.06.02.12.03.17.05l-.48,4.29c-1.02-.3-2.1-.41-3.16-.52-1.32-.14-2.63-.35-3.94-.58-2.76-.48-5.5-1.02-8.27-1.43-.7-.11-1.4-.2-2.11-.29l4.58-3.67ZM334.44,383.04c-.07-.01-.13-.03-.2-.04-.55-.12-1.1-.17-1.65-.25-.63-.09-1.26-.19-1.9-.26-.75-.09-1.5-.17-2.24-.3-.21-.04-.41-.08-.61-.12-.04,0-.08-.02-.12-.03,0,0,.01,0,.02,0-.01,0-.03,0-.04-.01,0,0,0,0,0,0,0,0-.02,0-.02,0,0,0,0,0,0,0-.09-.02-.19-.05-.28-.08-.01,0-.03,0-.04-.01l3.34-2.67c1.38.09,2.78.05,4.14.31l-.39,3.47ZM325.16,372.16s0,.02,0,.03c0,.02.01.04.01.04.07.29.11.58.12.87,0,.03,0,.06,0,.09,0,.08,0,.16,0,.25,0,.17-.01.34-.02.5-.03.35-.07.69-.12,1.04-.2,1.41-.55,2.8-.65,4.21-.02.28-.03.57-.02.85l-3.96,3.17c.03-.3.07-.6.11-.89.08-.58.17-1.16.27-1.73.09-.57.19-1.14.25-1.72.06-.58.08-1.17.09-1.76.02-1.09.03-2.17.19-3.25.08-.52.17-1.03.22-1.55.02-.18.03-.36.04-.54l3.44.38ZM315.75,371.28c-.03.57-.04,1.15-.05,1.72-.01.57-.02,1.13-.06,1.7-.04.63-.13,1.26-.21,1.89-.2,1.43-.45,2.86-.59,4.3-.06.64-.1,1.27-.19,1.9-.09.63-.21,1.25-.31,1.87-.21,1.23-.41,2.5-.29,3.75l-3.65,2.92c.21-2.33.35-4.67.53-7.01.24-3.23.73-6.43.95-9.65.09-1.32.13-2.65.09-3.98l3.79.42c0,.06,0,.11,0,.17ZM308.4,397.07c1.7.19,3.4.37,5.1.55,2.05.22,4.1.45,6.15.71,2.04.26,4.08.54,6.11.88.68.11,1.36.24,2.05.33.61.08,1.23.16,1.84.25.64.09,1.28.2,1.9.35.03,0,.06.02.1.02.07.02.13.03.2.05.13.04.26.07.38.12.09.03.17.06.26.1l-.57,5.16c-2.57-.31-5.13-.76-7.68-1.24-2.78-.53-5.56-1.1-8.35-1.59-1.58-.28-3.17-.53-4.76-.73-.08-.01-.16,0-.23.02l-3.41-4.26.9-.72ZM319.46,404.66c2.78.54,5.55,1.1,8.35,1.56,1.32.22,2.65.42,3.99.58l-.53,4.75c-1.69-.18-3.38-.35-5.07-.54-2.15-.24-4.29-.51-6.43-.87-.95-.16-1.89-.34-2.83-.54l-4.99-6.24c2.52.35,5.02.81,7.51,1.29ZM322.44,411.77c2.12.29,4.26.52,6.39.74.77.08,1.54.16,2.31.24l-.48,4.32c-2.01-.24-4.01-.5-6.03-.59-.7-.03-1.4-.03-2.1-.01-.02,0-.05,0-.07.01l-4.32-5.41c1.43.28,2.87.5,4.32.7ZM334.96,378.36c-.27-.05-.55-.09-.83-.12-.67-.08-1.34-.11-2.01-.13l3.15-2.52-.31,2.77ZM330.43,375.32c.02-.85.03-1.71.16-2.55l2.66.3-2.82,2.25ZM285.93,367.8c0,.05,0,.11,0,.16.02.17.04.33.05.5,0,0,0,.03,0,.05,0,.02,0,.07,0,.08,0,.09,0,.18,0,.27-.01.35-.04.7-.09,1.04-.03.25-.07.5-.11.75l-2.52-3.15,2.66.3ZM280.74,369.52l22.21,27.77-27.77,22.21,5.56-49.98ZM277.2,422.03l27.77-22.21,22.21,27.77-49.98-5.56ZM327.41,422.7c.22.01.44.02.65.03.39.02.78.04,1.16.09.1.01.2.03.3.05.04,0,.21.06.02,0,.03.01.07.02.11.03.12.03.23.08.34.12l-.28,2.54-2.29-2.87Z"/>
          <path class="cls-2" d="M173.46,289.22s0-.05,0-.07c0-.03,0-.06,0-.09,0-.03,0-.05-.01-.08,0-.03,0-.05-.01-.08,0-.03-.01-.05-.02-.08,0-.03-.01-.05-.02-.08,0-.02-.02-.05-.02-.07,0-.03-.02-.05-.03-.08,0-.02-.02-.05-.03-.07-.01-.02-.02-.05-.03-.07-.01-.03-.03-.05-.05-.08-.01-.02-.02-.04-.03-.06-.06-.09-.13-.17-.2-.25-.02-.02-.03-.03-.05-.04-.02-.02-.04-.04-.07-.06-.02-.02-.04-.03-.06-.05-.02-.02-.04-.03-.06-.05-.02-.01-.04-.03-.07-.04-.02-.01-.05-.03-.07-.04-.02-.01-.04-.02-.07-.03-.03-.01-.05-.03-.08-.04-.02,0-.04-.02-.07-.03-.03-.01-.05-.02-.08-.03-.03,0-.05-.01-.08-.02-.03,0-.05-.01-.08-.02-.05,0-.09-.02-.14-.02,0,0-.01,0-.02,0l-57.73-6.42s-.01,0-.02,0c-.05,0-.09,0-.14,0-.03,0-.05,0-.08,0-.03,0-.05,0-.08,0-.03,0-.06,0-.09.01-.02,0-.05,0-.07,0-.03,0-.06.01-.08.02-.02,0-.05.01-.07.02-.03,0-.05.02-.08.03-.02,0-.05.02-.07.03-.03.01-.05.02-.07.03-.02.01-.05.02-.07.03-.03.01-.05.03-.08.05-.02.01-.04.02-.06.03-.09.06-.17.13-.25.2-.02.02-.03.03-.05.05-.02.02-.04.04-.06.07-.02.02-.03.04-.05.06-.02.02-.03.04-.05.06-.02.02-.03.05-.04.07-.01.02-.03.04-.04.07-.01.02-.02.05-.03.07-.01.02-.02.05-.04.07-.01.02-.02.05-.03.07,0,.03-.02.05-.03.08,0,.03-.02.06-.02.09,0,.02-.01.04-.02.07-.01.05-.02.11-.03.16l-6.42,57.73c0,.05,0,.11,0,.16,0,.02,0,.05,0,.07,0,.03,0,.06,0,.09,0,.03,0,.05.01.08,0,.03,0,.05.01.08,0,.03.01.05.02.08,0,.03.01.05.02.08,0,.02.02.05.02.07,0,.03.02.05.03.08,0,.02.02.05.03.07.01.02.02.05.03.07.01.03.03.05.05.08.01.02.02.04.03.06.06.09.13.17.2.25.02.02.03.03.05.04.02.02.04.04.07.06.02.02.04.03.06.05.02.02.04.03.06.05.02.01.04.03.07.04.02.01.04.03.07.04.02.01.04.02.07.03.02.01.05.03.08.04.02,0,.05.02.07.03.03,0,.05.02.08.03.03,0,.05.01.08.02.02,0,.05.01.07.02.05.01.1.02.16.03l57.73,6.42c.05,0,.11,0,.16,0,.02,0,.05,0,.07,0,.03,0,.06,0,.09,0,.03,0,.06,0,.08-.01.02,0,.05,0,.07-.01.03,0,.05-.01.08-.02.02,0,.05-.01.07-.02.03,0,.05-.02.08-.03.02,0,.05-.02.07-.03.02,0,.05-.02.07-.03.02-.01.05-.02.07-.03.03-.01.05-.03.08-.05.02-.01.04-.02.06-.03.09-.06.17-.13.25-.2.02-.02.03-.03.05-.05.02-.02.04-.04.06-.07.02-.02.03-.04.05-.06.02-.02.03-.04.05-.06.02-.02.03-.05.04-.07.01-.02.03-.04.04-.07.01-.02.02-.05.03-.07.01-.02.02-.05.04-.07.01-.02.02-.05.03-.07,0-.03.02-.05.03-.08,0-.03.02-.06.02-.09,0-.02.01-.04.02-.07.01-.05.02-.11.03-.16l6.42-57.73c0-.05,0-.11,0-.16ZM161.22,338.69s.02,0,0,0h0ZM161.19,338.69s-.05-.01-.06-.01c-.04-.01-.08-.03-.13-.04-.08-.03-.16-.06-.24-.1l-2.85-3.56s.05,0,.08,0c.29,0,.58,0,.87.02.57.02,1.14.06,1.71.1,1.15.09,2.29.23,3.44.37.34.04.69.08,1.03.12l-.39,3.51c-.59-.19-1.24-.23-1.85-.25-.38-.02-.77-.03-1.15-.07-.16-.02-.32-.05-.47-.08ZM125.56,294.52c.26-2.45.38-4.92.58-7.38.04-.46.08-.92.12-1.38l4.12.46s0,.04,0,.06c0,.05,0,.11,0,.16,0,.03,0,.07.01.11,0,0,0,.02,0,.04,0,.03,0,.06,0,.08,0,.06,0,.12,0,.19,0,.12,0,.24,0,.36,0,.24-.02.48-.03.72-.07.99-.2,1.97-.35,2.95-.15.97-.31,1.94-.44,2.92-.13,1-.17,2-.28,3.01-.07.69-.16,1.38-.25,2.07l-3.48-4.35ZM124.48,293.16l-3.11-3.89c.16-1.33.47-2.67.32-4.02l3.37.37c-.23,2.51-.35,5.03-.58,7.54ZM130.73,294.26c.24-1.97.65-3.92.81-5.9.05-.67.08-1.34.05-2.01l3.81.42c.01.13.02.27.03.4,0,.03,0,.07,0,.1,0,0,0-.02,0-.03,0,0,0,0,0,0,0,.06,0,.12,0,.18,0,.16,0,.31-.02.47-.02.28-.04.57-.08.85-.13,1.13-.38,2.24-.51,3.37-.08.67-.1,1.36-.13,2.03-.04.77-.09,1.54-.15,2.3-.06.78-.14,1.55-.25,2.33-.11.76-.22,1.52-.27,2.29-.09,1.25-.12,2.51-.21,3.76l-3.71-4.64c.11-.95.25-1.89.35-2.83.12-1.03.16-2.06.28-3.09ZM135.19,301.74c.05-.79.12-1.57.24-2.35.12-.77.21-1.54.28-2.31.07-.78.12-1.57.17-2.35.04-.73.07-1.47.13-2.2.1-1.11.34-2.21.49-3.31.09-.69.15-1.39.13-2.09,0-.07,0-.14,0-.21l3.46.38c.06.34.11.68.13,1.03,0,.08.01.16.01.24,0,.04,0,.09,0,.13,0,.01,0,.05,0,.08,0,.03,0,.07,0,.08,0,.04,0,.09,0,.13,0,.09,0,.18,0,.27,0,.37-.03.75-.05,1.12-.11,1.43-.34,2.85-.46,4.29-.07.86-.11,1.73-.16,2.6-.06.93-.12,1.86-.2,2.79-.16,1.87-.38,3.74-.55,5.61-.15,1.61-.29,3.22-.45,4.83l-3.46-4.33c.19-1.47.21-2.95.3-4.43ZM139.42,311.85c.19-1.79.35-3.58.51-5.37.09-.95.17-1.9.27-2.84.1-.94.21-1.88.29-2.82.17-1.87.27-3.74.39-5.62.09-1.43.33-2.84.46-4.26.07-.78.1-1.56.08-2.34-.01-.39-.04-.78-.1-1.17l3.97.44c0,.09,0,.18,0,.27,0,.05,0,.1,0,.15,0-.16,0,0,0,.03,0,.21,0,.42,0,.63,0,.81-.03,1.62-.08,2.42-.1,1.6-.27,3.2-.45,4.8-.18,1.61-.37,3.22-.5,4.84-.12,1.48-.21,2.95-.32,4.43-.1,1.43-.22,2.85-.36,4.28l-3.6,2.88-.59-.74ZM155.06,288.96s0,.04,0,.07c0,.12-.01.24-.02.36-.04.46-.12.92-.19,1.38-.07.47-.14.93-.17,1.4-.04.59-.05,1.17-.06,1.76-.01.58-.02,1.16-.07,1.73-.04.58-.13,1.15-.22,1.73-.09.58-.19,1.15-.28,1.73-.09.58-.15,1.16-.21,1.74l-.08.75-3.99,3.19c0-.14,0-.28.02-.42.04-.63.13-1.25.23-1.87.1-.62.22-1.24.32-1.87.1-.6.16-1.2.21-1.81.11-1.44.35-2.87.56-4.3.1-.67.2-1.35.26-2.03.05-.55.06-1.1.07-1.65.01-.64.02-1.28.05-1.92,0-.12.01-.24.02-.37l3.56.4ZM163.75,292.92c0,.24-.02.47-.03.71l-3.43,2.74c0-.06.01-.12.02-.18.07-.65.19-1.3.3-1.95.24-1.33.5-2.67.43-4.03-.01-.2-.03-.4-.07-.59l2.94.33c-.15.98-.13,2-.16,2.97ZM164.97,316.01c-1.2-.2-2.41-.32-3.6-.53-2.05-.35-4.11-.65-6.18-.92-2.06-.27-4.13-.51-6.2-.73-1.57-.17-3.14-.34-4.72-.51l4.67-3.73c2.32.24,4.63.62,6.93,1.02,1.37.24,2.73.49,4.09.73,1.31.23,2.63.47,3.95.62.71.08,1.41.15,2.12.25.35.05.7.12,1.04.2.01,0,.15.03.05.01-.1-.02.07.02.09.02.08.02.16.05.25.07.05.02.1.03.16.05l-.44,3.95c-.08-.03-.16-.05-.24-.08-.64-.19-1.3-.32-1.97-.43ZM160.77,300.12c.54.23,1.11.38,1.68.5.72.15,1.45.24,2.17.32.69.08,1.39.15,2.07.27.5.09,1.01.14,1.51.22.16.03.32.06.48.09.03,0,.06.01.09.02.02,0,.04.01.06.02l-.48,4.27c-.32-.08-.65-.15-.98-.21-.72-.12-1.44-.2-2.15-.35-2.29-.47-4.6-.78-6.91-1.11-.73-.11-1.45-.22-2.18-.33l4.64-3.71ZM154.87,304.84c2.08.37,4.17.64,6.26.95,1.15.17,2.29.36,3.43.58.39.08.78.16,1.18.22.37.06.74.11,1.11.17.22.03.43.07.65.11.1.02.2.04.3.06.05.01.1.02.15.03.03,0,.09.02.11.03.06.02.12.03.17.05l-.48,4.29c-1.02-.3-2.1-.41-3.16-.52-1.32-.14-2.63-.35-3.94-.58-2.76-.48-5.5-1.02-8.27-1.43-.7-.11-1.4-.2-2.11-.29l4.58-3.67ZM168.98,300.35c-.07-.01-.13-.03-.2-.04-.55-.12-1.1-.17-1.65-.25-.63-.09-1.26-.19-1.9-.26-.75-.09-1.5-.17-2.24-.3-.21-.04-.41-.08-.61-.12-.04,0-.08-.02-.12-.03,0,0,.01,0,.02,0-.01,0-.03,0-.04-.01,0,0,0,0,0,0,0,0-.02,0-.02,0,0,0,0,0,0,0-.09-.02-.19-.05-.28-.08-.01,0-.03,0-.04-.01l3.34-2.67c1.38.09,2.78.05,4.14.31l-.39,3.47ZM159.7,289.48s0,.02,0,.03c0,.02.01.04.01.04.07.29.11.58.12.87,0,.03,0,.06,0,.09,0,.08,0,.16,0,.25,0,.17-.01.34-.02.5-.03.35-.07.69-.12,1.04-.2,1.41-.55,2.8-.65,4.21-.02.28-.03.57-.02.85l-3.96,3.17c.03-.3.07-.6.11-.89.08-.58.17-1.16.27-1.73.09-.57.19-1.14.25-1.72.06-.58.08-1.17.09-1.76.02-1.09.03-2.17.19-3.25.08-.52.17-1.03.22-1.55.02-.18.03-.36.04-.54l3.44.38ZM150.29,288.6c-.03.57-.04,1.15-.05,1.72-.01.57-.02,1.13-.06,1.7-.04.63-.13,1.26-.21,1.89-.2,1.43-.45,2.86-.59,4.3-.06.64-.1,1.27-.19,1.9-.09.63-.21,1.25-.31,1.87-.21,1.23-.41,2.5-.29,3.75l-3.65,2.92c.21-2.33.35-4.67.53-7.01.24-3.23.73-6.43.95-9.65.09-1.32.13-2.65.09-3.98l3.79.42c0,.06,0,.11,0,.17ZM142.94,314.39c1.7.19,3.4.37,5.1.55,2.05.22,4.1.45,6.15.71,2.04.26,4.08.54,6.11.88.68.11,1.36.24,2.05.33.61.08,1.23.16,1.84.25.64.09,1.28.2,1.9.35.03,0,.06.02.1.02.07.02.13.03.2.05.13.04.26.07.38.12.09.03.17.06.26.1l-.57,5.16c-2.57-.31-5.13-.76-7.68-1.24-2.78-.53-5.56-1.1-8.35-1.59-1.58-.28-3.17-.53-4.76-.73-.08-.01-.16,0-.23.02l-3.41-4.26.9-.72ZM154,321.97c2.78.54,5.55,1.1,8.35,1.56,1.32.22,2.65.42,3.99.58l-.53,4.75c-1.69-.18-3.38-.35-5.07-.54-2.15-.24-4.29-.51-6.43-.87-.95-.16-1.89-.34-2.83-.54l-4.99-6.24c2.52.35,5.02.81,7.51,1.29ZM156.97,329.09c2.12.29,4.26.52,6.39.74.77.08,1.54.16,2.31.24l-.48,4.32c-2.01-.24-4.01-.5-6.03-.59-.7-.03-1.4-.03-2.1-.01-.02,0-.05,0-.07.01l-4.32-5.41c1.43.28,2.87.5,4.32.7ZM169.5,295.67c-.27-.05-.55-.09-.83-.12-.67-.08-1.34-.11-2.01-.13l3.15-2.52-.31,2.77ZM164.97,292.63c.02-.85.03-1.71.16-2.55l2.66.3-2.82,2.25ZM120.47,285.11c0,.05,0,.11,0,.16.02.17.04.33.05.5,0,0,0,.03,0,.05,0,.02,0,.07,0,.08,0,.09,0,.18,0,.27-.01.35-.04.7-.09,1.04-.03.25-.07.5-.11.75l-2.52-3.15,2.66.3ZM115.28,286.83l22.21,27.77-27.77,22.21,5.56-49.98ZM111.74,339.34l27.77-22.21,22.21,27.77-49.98-5.56ZM161.95,340.01c.22.01.44.02.65.03.39.02.78.04,1.16.09.1.01.2.03.3.05.04,0,.21.06.02,0,.03.01.07.02.11.03.12.03.23.08.34.12l-.28,2.54-2.29-2.87Z"/>
          <path class="cls-2" d="M503.11,692.74s0-.05,0-.07c0-.03,0-.06,0-.09,0-.03,0-.05-.01-.08,0-.03,0-.05-.01-.08,0-.03-.01-.05-.02-.08,0-.03-.01-.05-.02-.08,0-.02-.02-.05-.02-.07,0-.03-.02-.05-.03-.08,0-.02-.02-.05-.03-.07-.01-.02-.02-.05-.03-.07-.01-.03-.03-.05-.05-.08-.01-.02-.02-.04-.03-.06-.06-.09-.13-.17-.2-.25-.02-.02-.03-.03-.05-.04-.02-.02-.04-.04-.07-.06-.02-.02-.04-.03-.06-.05-.02-.02-.04-.03-.06-.05-.02-.01-.04-.03-.07-.04-.02-.01-.05-.03-.07-.04-.02-.01-.04-.02-.07-.03-.03-.01-.05-.03-.08-.04-.02,0-.04-.02-.07-.03-.03-.01-.05-.02-.08-.03-.03,0-.05-.01-.08-.02-.03,0-.05-.01-.08-.02-.05,0-.09-.02-.14-.02,0,0-.01,0-.02,0l-57.73-6.42s-.01,0-.02,0c-.05,0-.09,0-.14,0-.03,0-.05,0-.08,0-.03,0-.05,0-.08,0-.03,0-.06,0-.09.01-.02,0-.05,0-.07,0-.03,0-.06.01-.08.02-.02,0-.05.01-.07.02-.03,0-.05.02-.08.03-.02,0-.05.02-.07.03-.03.01-.05.02-.07.03-.02.01-.05.02-.07.03-.03.01-.05.03-.08.05-.02.01-.04.02-.06.03-.09.06-.17.13-.25.2-.02.02-.03.03-.05.05-.02.02-.04.04-.06.07-.02.02-.03.04-.05.06-.02.02-.03.04-.05.06-.02.02-.03.05-.04.07-.01.02-.03.04-.04.07-.01.02-.02.05-.03.07-.01.02-.02.05-.04.07-.01.02-.02.05-.03.07,0,.03-.02.05-.03.08,0,.03-.02.06-.02.09,0,.02-.01.04-.02.07-.01.05-.02.11-.03.16l-6.42,57.73c0,.05,0,.11,0,.16,0,.02,0,.05,0,.07,0,.03,0,.06,0,.09,0,.03,0,.05.01.08,0,.03,0,.05.01.08,0,.03.01.05.02.08,0,.03.01.05.02.08,0,.02.02.05.02.07,0,.03.02.05.03.08,0,.02.02.05.03.07.01.02.02.05.03.07.01.03.03.05.05.08.01.02.02.04.03.06.06.09.13.17.2.25.02.02.03.03.05.04.02.02.04.04.07.06.02.02.04.03.06.05.02.02.04.03.06.05.02.01.04.03.07.04.02.01.04.03.07.04.02.01.04.02.07.03.02.01.05.03.08.04.02,0,.05.02.07.03.03,0,.05.02.08.03.03,0,.05.01.08.02.02,0,.05.01.07.02.05.01.1.02.16.03l57.73,6.42c.05,0,.11,0,.16,0,.02,0,.05,0,.07,0,.03,0,.06,0,.09,0,.03,0,.06,0,.08-.01.02,0,.05,0,.07-.01.03,0,.05-.01.08-.02.02,0,.05-.01.07-.02.03,0,.05-.02.08-.03.02,0,.05-.02.07-.03.02,0,.05-.02.07-.03.02-.01.05-.02.07-.03.03-.01.05-.03.08-.05.02-.01.04-.02.06-.03.09-.06.17-.13.25-.2.02-.02.03-.03.05-.05.02-.02.04-.04.06-.07.02-.02.03-.04.05-.06.02-.02.03-.04.05-.06.02-.02.03-.05.04-.07.01-.02.03-.04.04-.07.01-.02.02-.05.03-.07.01-.02.02-.05.04-.07.01-.02.02-.05.03-.07,0-.03.02-.05.03-.08,0-.03.02-.06.02-.09,0-.02.01-.04.02-.07.01-.05.02-.11.03-.16l6.42-57.73c0-.05,0-.11,0-.16ZM490.87,742.21s.02,0,0,0h0ZM490.84,742.21s-.05-.01-.06-.01c-.04-.01-.08-.03-.13-.04-.08-.03-.16-.06-.24-.1l-2.85-3.56s.05,0,.08,0c.29,0,.58,0,.87.02.57.02,1.14.06,1.71.1,1.15.09,2.29.23,3.44.37.34.04.69.08,1.03.12l-.39,3.51c-.59-.19-1.24-.23-1.85-.25-.38-.02-.77-.03-1.15-.07-.16-.02-.32-.05-.47-.08ZM455.21,698.03c.26-2.45.38-4.92.58-7.38.04-.46.08-.92.12-1.38l4.12.46s0,.04,0,.06c0,.05,0,.11,0,.16,0,.03,0,.07.01.11,0,0,0,.02,0,.04,0,.03,0,.06,0,.08,0,.06,0,.12,0,.19,0,.12,0,.24,0,.36,0,.24-.02.48-.03.72-.07.99-.2,1.97-.35,2.95-.15.97-.31,1.94-.44,2.92-.13,1-.17,2-.28,3.01-.07.69-.16,1.38-.25,2.07l-3.48-4.35ZM454.13,696.67l-3.11-3.89c.16-1.33.47-2.67.32-4.02l3.37.37c-.23,2.51-.35,5.03-.58,7.54ZM460.38,697.77c.24-1.97.65-3.92.81-5.9.05-.67.08-1.34.05-2.01l3.81.42c.01.13.02.27.03.4,0,.03,0,.07,0,.1,0,0,0-.02,0-.03,0,0,0,0,0,0,0,.06,0,.12,0,.18,0,.16,0,.31-.02.47-.02.28-.04.57-.08.85-.13,1.13-.38,2.24-.51,3.37-.08.67-.1,1.36-.13,2.03-.04.77-.09,1.54-.15,2.3-.06.78-.14,1.55-.25,2.33-.11.76-.22,1.52-.27,2.29-.09,1.25-.12,2.51-.21,3.76l-3.71-4.64c.11-.95.25-1.89.35-2.83.12-1.03.16-2.06.28-3.09ZM464.84,705.26c.05-.79.12-1.57.24-2.35.12-.77.21-1.54.28-2.31.07-.78.12-1.57.17-2.35.04-.73.07-1.47.13-2.2.1-1.11.34-2.21.49-3.31.09-.69.15-1.39.13-2.09,0-.07,0-.14,0-.21l3.46.38c.06.34.11.68.13,1.03,0,.08.01.16.01.24,0,.04,0,.09,0,.13,0,.01,0,.05,0,.08,0,.03,0,.07,0,.08,0,.04,0,.09,0,.13,0,.09,0,.18,0,.27,0,.37-.03.75-.05,1.12-.11,1.43-.34,2.85-.46,4.29-.07.86-.11,1.73-.16,2.6-.06.93-.12,1.86-.2,2.79-.16,1.87-.38,3.74-.55,5.61-.15,1.61-.29,3.22-.45,4.83l-3.46-4.33c.19-1.47.21-2.95.3-4.43ZM469.07,715.36c.19-1.79.35-3.58.51-5.37.09-.95.17-1.9.27-2.84.1-.94.21-1.88.29-2.82.17-1.87.27-3.74.39-5.62.09-1.43.33-2.84.46-4.26.07-.78.1-1.56.08-2.34-.01-.39-.04-.78-.1-1.17l3.97.44c0,.09,0,.18,0,.27,0,.05,0,.1,0,.15,0-.16,0,0,0,.03,0,.21,0,.42,0,.63,0,.81-.03,1.62-.08,2.42-.1,1.6-.27,3.2-.45,4.8-.18,1.61-.37,3.22-.5,4.84-.12,1.48-.21,2.95-.32,4.43-.1,1.43-.22,2.85-.36,4.28l-3.6,2.88-.59-.74ZM484.71,692.48s0,.04,0,.07c0,.12-.01.24-.02.36-.04.46-.12.92-.19,1.38-.07.47-.14.93-.17,1.4-.04.59-.05,1.17-.06,1.76-.01.58-.02,1.16-.07,1.73-.04.58-.13,1.15-.22,1.73-.09.58-.19,1.15-.28,1.73-.09.58-.15,1.16-.21,1.74l-.08.75-3.99,3.19c0-.14,0-.28.02-.42.04-.63.13-1.25.23-1.87.1-.62.22-1.24.32-1.87.1-.6.16-1.2.21-1.81.11-1.44.35-2.87.56-4.3.1-.67.2-1.35.26-2.03.05-.55.06-1.1.07-1.65.01-.64.02-1.28.05-1.92,0-.12.01-.24.02-.37l3.56.4ZM493.4,696.43c0,.24-.02.47-.03.71l-3.43,2.74c0-.06.01-.12.02-.18.07-.65.19-1.3.3-1.95.24-1.33.5-2.67.43-4.03-.01-.2-.03-.4-.07-.59l2.94.33c-.15.98-.13,2-.16,2.97ZM494.62,719.53c-1.2-.2-2.41-.32-3.6-.53-2.05-.35-4.11-.65-6.18-.92-2.06-.27-4.13-.51-6.2-.73-1.57-.17-3.14-.34-4.72-.51l4.67-3.73c2.32.24,4.63.62,6.93,1.02,1.37.24,2.73.49,4.09.73,1.31.23,2.63.47,3.95.62.71.08,1.41.15,2.12.25.35.05.7.12,1.04.2.01,0,.15.03.05.01-.1-.02.07.02.09.02.08.02.16.05.25.07.05.02.1.03.16.05l-.44,3.95c-.08-.03-.16-.05-.24-.08-.64-.19-1.3-.32-1.97-.43ZM490.42,703.64c.54.23,1.11.38,1.68.5.72.15,1.45.24,2.17.32.69.08,1.39.15,2.07.27.5.09,1.01.14,1.51.22.16.03.32.06.48.09.03,0,.06.01.09.02.02,0,.04.01.06.02l-.48,4.27c-.32-.08-.65-.15-.98-.21-.72-.12-1.44-.2-2.15-.35-2.29-.47-4.6-.78-6.91-1.11-.73-.11-1.45-.22-2.18-.33l4.64-3.71ZM484.52,708.36c2.08.37,4.17.64,6.26.95,1.15.17,2.29.36,3.43.58.39.08.78.16,1.18.22.37.06.74.11,1.11.17.22.03.43.07.65.11.1.02.2.04.3.06.05.01.1.02.15.03.03,0,.09.02.11.03.06.02.12.03.17.05l-.48,4.29c-1.02-.3-2.1-.41-3.16-.52-1.32-.14-2.63-.35-3.94-.58-2.76-.48-5.5-1.02-8.27-1.43-.7-.11-1.4-.2-2.11-.29l4.58-3.67ZM498.63,703.86c-.07-.01-.13-.03-.2-.04-.55-.12-1.1-.17-1.65-.25-.63-.09-1.26-.19-1.9-.26-.75-.09-1.5-.17-2.24-.3-.21-.04-.41-.08-.61-.12-.04,0-.08-.02-.12-.03,0,0,.01,0,.02,0-.01,0-.03,0-.04-.01,0,0,0,0,0,0,0,0-.02,0-.02,0,0,0,0,0,0,0-.09-.02-.19-.05-.28-.08-.01,0-.03,0-.04-.01l3.34-2.67c1.38.09,2.78.05,4.14.31l-.39,3.47ZM489.36,692.99s0,.02,0,.03c0,.02.01.04.01.04.07.29.11.58.12.87,0,.03,0,.06,0,.09,0,.08,0,.16,0,.25,0,.17-.01.34-.02.5-.03.35-.07.69-.12,1.04-.2,1.41-.55,2.8-.65,4.21-.02.28-.03.57-.02.85l-3.96,3.17c.03-.3.07-.6.11-.89.08-.58.17-1.16.27-1.73.09-.57.19-1.14.25-1.72.06-.58.08-1.17.09-1.76.02-1.09.03-2.17.19-3.25.08-.52.17-1.03.22-1.55.02-.18.03-.36.04-.54l3.44.38ZM479.94,692.11c-.03.57-.04,1.15-.05,1.72-.01.57-.02,1.13-.06,1.7-.04.63-.13,1.26-.21,1.89-.2,1.43-.45,2.86-.59,4.3-.06.64-.1,1.27-.19,1.9-.09.63-.21,1.25-.31,1.87-.21,1.23-.41,2.5-.29,3.75l-3.65,2.92c.21-2.33.35-4.67.53-7.01.24-3.23.73-6.43.95-9.65.09-1.32.13-2.65.09-3.98l3.79.42c0,.06,0,.11,0,.17ZM472.59,717.9c1.7.19,3.4.37,5.1.55,2.05.22,4.1.45,6.15.71,2.04.26,4.08.54,6.11.88.68.11,1.36.24,2.05.33.61.08,1.23.16,1.84.25.64.09,1.28.2,1.9.35.03,0,.06.02.1.02.07.02.13.03.2.05.13.04.26.07.38.12.09.03.17.06.26.1l-.57,5.16c-2.57-.31-5.13-.76-7.68-1.24-2.78-.53-5.56-1.1-8.35-1.59-1.58-.28-3.17-.53-4.76-.73-.08-.01-.16,0-.23.02l-3.41-4.26.9-.72ZM483.65,725.49c2.78.54,5.55,1.1,8.35,1.56,1.32.22,2.65.42,3.99.58l-.53,4.75c-1.69-.18-3.38-.35-5.07-.54-2.15-.24-4.29-.51-6.43-.87-.95-.16-1.89-.34-2.83-.54l-4.99-6.24c2.52.35,5.02.81,7.51,1.29ZM486.63,732.6c2.12.29,4.26.52,6.39.74.77.08,1.54.16,2.31.24l-.48,4.32c-2.01-.24-4.01-.5-6.03-.59-.7-.03-1.4-.03-2.1-.01-.02,0-.05,0-.07.01l-4.32-5.41c1.43.28,2.87.5,4.32.7ZM499.15,699.19c-.27-.05-.55-.09-.83-.12-.67-.08-1.34-.11-2.01-.13l3.15-2.52-.31,2.77ZM494.62,696.15c.02-.85.03-1.71.16-2.55l2.66.3-2.82,2.25ZM450.12,688.63c0,.05,0,.11,0,.16.02.17.04.33.05.5,0,0,0,.03,0,.05,0,.02,0,.07,0,.08,0,.09,0,.18,0,.27-.01.35-.04.7-.09,1.04-.03.25-.07.5-.11.75l-2.52-3.15,2.66.3ZM444.93,690.35l22.21,27.77-27.77,22.21,5.56-49.98ZM441.39,742.85l27.77-22.21,22.21,27.77-49.98-5.56ZM491.6,743.53c.22.01.44.02.65.03.39.02.78.04,1.16.09.1.01.2.03.3.05.04,0,.21.06.02,0,.03.01.07.02.11.03.12.03.23.08.34.12l-.28,2.54-2.29-2.87Z"/>
          <path class="cls-2" d="M362.78,548.53s0-.05,0-.07c0-.03,0-.06,0-.09,0-.03,0-.05-.01-.08,0-.03,0-.05-.01-.08,0-.03-.01-.05-.02-.08,0-.03-.01-.05-.02-.08,0-.02-.02-.05-.02-.07,0-.03-.02-.05-.03-.08,0-.02-.02-.05-.03-.07-.01-.02-.02-.05-.03-.07-.01-.03-.03-.05-.05-.08-.01-.02-.02-.04-.03-.06-.06-.09-.13-.17-.2-.25-.02-.02-.03-.03-.05-.04-.02-.02-.04-.04-.07-.06-.02-.02-.04-.03-.06-.05-.02-.02-.04-.03-.06-.05-.02-.01-.04-.03-.07-.04-.02-.01-.05-.03-.07-.04-.02-.01-.04-.02-.07-.03-.03-.01-.05-.03-.08-.04-.02,0-.04-.02-.07-.03-.03-.01-.05-.02-.08-.03-.03,0-.05-.01-.08-.02-.03,0-.05-.01-.08-.02-.05,0-.09-.02-.14-.02,0,0-.01,0-.02,0l-57.73-6.42s-.01,0-.02,0c-.05,0-.09,0-.14,0-.03,0-.05,0-.08,0-.03,0-.05,0-.08,0-.03,0-.06,0-.09.01-.02,0-.05,0-.07,0-.03,0-.06.01-.08.02-.02,0-.05.01-.07.02-.03,0-.05.02-.08.03-.02,0-.05.02-.07.03-.03.01-.05.02-.07.03-.02.01-.05.02-.07.03-.03.01-.05.03-.08.05-.02.01-.04.02-.06.03-.09.06-.17.13-.25.2-.02.02-.03.03-.05.05-.02.02-.04.04-.06.07-.02.02-.03.04-.05.06-.02.02-.03.04-.05.06-.02.02-.03.05-.04.07-.01.02-.03.04-.04.07-.01.02-.02.05-.03.07-.01.02-.02.05-.04.07-.01.02-.02.05-.03.07,0,.03-.02.05-.03.08,0,.03-.02.06-.02.09,0,.02-.01.04-.02.07-.01.05-.02.11-.03.16l-6.42,57.73c0,.05,0,.11,0,.16,0,.02,0,.05,0,.07,0,.03,0,.06,0,.09,0,.03,0,.05.01.08,0,.03,0,.05.01.08,0,.03.01.05.02.08,0,.03.01.05.02.08,0,.02.02.05.02.07,0,.03.02.05.03.08,0,.02.02.05.03.07.01.02.02.05.03.07.01.03.03.05.05.08.01.02.02.04.03.06.06.09.13.17.2.25.02.02.03.03.05.04.02.02.04.04.07.06.02.02.04.03.06.05.02.02.04.03.06.05.02.01.04.03.07.04.02.01.04.03.07.04.02.01.04.02.07.03.02.01.05.03.08.04.02,0,.05.02.07.03.03,0,.05.02.08.03.03,0,.05.01.08.02.02,0,.05.01.07.02.05.01.1.02.16.03l57.73,6.42c.05,0,.11,0,.16,0,.02,0,.05,0,.07,0,.03,0,.06,0,.09,0,.03,0,.06,0,.08-.01.02,0,.05,0,.07-.01.03,0,.05-.01.08-.02.02,0,.05-.01.07-.02.03,0,.05-.02.08-.03.02,0,.05-.02.07-.03.02,0,.05-.02.07-.03.02-.01.05-.02.07-.03.03-.01.05-.03.08-.05.02-.01.04-.02.06-.03.09-.06.17-.13.25-.2.02-.02.03-.03.05-.05.02-.02.04-.04.06-.07.02-.02.03-.04.05-.06.02-.02.03-.04.05-.06.02-.02.03-.05.04-.07.01-.02.03-.04.04-.07.01-.02.02-.05.03-.07.01-.02.02-.05.04-.07.01-.02.02-.05.03-.07,0-.03.02-.05.03-.08,0-.03.02-.06.02-.09,0-.02.01-.04.02-.07.01-.05.02-.11.03-.16l6.42-57.73c0-.05,0-.11,0-.16ZM350.54,598s.02,0,0,0h0ZM350.51,598s-.05-.01-.06-.01c-.04-.01-.08-.03-.13-.04-.08-.03-.16-.06-.24-.1l-2.85-3.56s.05,0,.08,0c.29,0,.58,0,.87.02.57.02,1.14.06,1.71.1,1.15.09,2.29.23,3.44.37.34.04.69.08,1.03.12l-.39,3.51c-.59-.19-1.24-.23-1.85-.25-.38-.02-.77-.03-1.15-.07-.16-.02-.32-.05-.47-.08ZM314.89,553.83c.26-2.45.38-4.92.58-7.38.04-.46.08-.92.12-1.38l4.12.46s0,.04,0,.06c0,.05,0,.11,0,.16,0,.03,0,.07.01.11,0,0,0,.02,0,.04,0,.03,0,.06,0,.08,0,.06,0,.12,0,.19,0,.12,0,.24,0,.36,0,.24-.02.48-.03.72-.07.99-.2,1.97-.35,2.95-.15.97-.31,1.94-.44,2.92-.13,1-.17,2-.28,3.01-.07.69-.16,1.38-.25,2.07l-3.48-4.35ZM313.8,552.47l-3.11-3.89c.16-1.33.47-2.67.32-4.02l3.37.37c-.23,2.51-.35,5.03-.58,7.54ZM320.05,553.57c.24-1.97.65-3.92.81-5.9.05-.67.08-1.34.05-2.01l3.81.42c.01.13.02.27.03.4,0,.03,0,.07,0,.1,0,0,0-.02,0-.03,0,0,0,0,0,0,0,.06,0,.12,0,.18,0,.16,0,.31-.02.47-.02.28-.04.57-.08.85-.13,1.13-.38,2.24-.51,3.37-.08.67-.1,1.36-.13,2.03-.04.77-.09,1.54-.15,2.3-.06.78-.14,1.55-.25,2.33-.11.76-.22,1.52-.27,2.29-.09,1.25-.12,2.51-.21,3.76l-3.71-4.64c.11-.95.25-1.89.35-2.83.12-1.03.16-2.06.28-3.09ZM324.51,561.05c.05-.79.12-1.57.24-2.35.12-.77.21-1.54.28-2.31.07-.78.12-1.57.17-2.35.04-.73.07-1.47.13-2.2.1-1.11.34-2.21.49-3.31.09-.69.15-1.39.13-2.09,0-.07,0-.14,0-.21l3.46.38c.06.34.11.68.13,1.03,0,.08.01.16.01.24,0,.04,0,.09,0,.13,0,.01,0,.05,0,.08,0,.03,0,.07,0,.08,0,.04,0,.09,0,.13,0,.09,0,.18,0,.27,0,.37-.03.75-.05,1.12-.11,1.43-.34,2.85-.46,4.29-.07.86-.11,1.73-.16,2.6-.06.93-.12,1.86-.2,2.79-.16,1.87-.38,3.74-.55,5.61-.15,1.61-.29,3.22-.45,4.83l-3.46-4.33c.19-1.47.21-2.95.3-4.43ZM328.75,571.16c.19-1.79.35-3.58.51-5.37.09-.95.17-1.9.27-2.84.1-.94.21-1.88.29-2.82.17-1.87.27-3.74.39-5.62.09-1.43.33-2.84.46-4.26.07-.78.1-1.56.08-2.34-.01-.39-.04-.78-.1-1.17l3.97.44c0,.09,0,.18,0,.27,0,.05,0,.1,0,.15,0-.16,0,0,0,.03,0,.21,0,.42,0,.63,0,.81-.03,1.62-.08,2.42-.1,1.6-.27,3.2-.45,4.8-.18,1.61-.37,3.22-.5,4.84-.12,1.48-.21,2.95-.32,4.43-.1,1.43-.22,2.85-.36,4.28l-3.6,2.88-.59-.74ZM344.38,548.27s0,.04,0,.07c0,.12-.01.24-.02.36-.04.46-.12.92-.19,1.38-.07.47-.14.93-.17,1.4-.04.59-.05,1.17-.06,1.76-.01.58-.02,1.16-.07,1.73-.04.58-.13,1.15-.22,1.73-.09.58-.19,1.15-.28,1.73-.09.58-.15,1.16-.21,1.74l-.08.75-3.99,3.19c0-.14,0-.28.02-.42.04-.63.13-1.25.23-1.87.1-.62.22-1.24.32-1.87.1-.6.16-1.2.21-1.81.11-1.44.35-2.87.56-4.3.1-.67.2-1.35.26-2.03.05-.55.06-1.1.07-1.65.01-.64.02-1.28.05-1.92,0-.12.01-.24.02-.37l3.56.4ZM353.07,552.23c0,.24-.02.47-.03.71l-3.43,2.74c0-.06.01-.12.02-.18.07-.65.19-1.3.3-1.95.24-1.33.5-2.67.43-4.03-.01-.2-.03-.4-.07-.59l2.94.33c-.15.98-.13,2-.16,2.97ZM354.29,575.32c-1.2-.2-2.41-.32-3.6-.53-2.05-.35-4.11-.65-6.18-.92-2.06-.27-4.13-.51-6.2-.73-1.57-.17-3.14-.34-4.72-.51l4.67-3.73c2.32.24,4.63.62,6.93,1.02,1.37.24,2.73.49,4.09.73,1.31.23,2.63.47,3.95.62.71.08,1.41.15,2.12.25.35.05.7.12,1.04.2.01,0,.15.03.05.01-.1-.02.07.02.09.02.08.02.16.05.25.07.05.02.1.03.16.05l-.44,3.95c-.08-.03-.16-.05-.24-.08-.64-.19-1.3-.32-1.97-.43ZM350.09,559.43c.54.23,1.11.38,1.68.5.72.15,1.45.24,2.17.32.69.08,1.39.15,2.07.27.5.09,1.01.14,1.51.22.16.03.32.06.48.09.03,0,.06.01.09.02.02,0,.04.01.06.02l-.48,4.27c-.32-.08-.65-.15-.98-.21-.72-.12-1.44-.2-2.15-.35-2.29-.47-4.6-.78-6.91-1.11-.73-.11-1.45-.22-2.18-.33l4.64-3.71ZM344.19,564.15c2.08.37,4.17.64,6.26.95,1.15.17,2.29.36,3.43.58.39.08.78.16,1.18.22.37.06.74.11,1.11.17.22.03.43.07.65.11.1.02.2.04.3.06.05.01.1.02.15.03.03,0,.09.02.11.03.06.02.12.03.17.05l-.48,4.29c-1.02-.3-2.1-.41-3.16-.52-1.32-.14-2.63-.35-3.94-.58-2.76-.48-5.5-1.02-8.27-1.43-.7-.11-1.4-.2-2.11-.29l4.58-3.67ZM358.3,559.66c-.07-.01-.13-.03-.2-.04-.55-.12-1.1-.17-1.65-.25-.63-.09-1.26-.19-1.9-.26-.75-.09-1.5-.17-2.24-.3-.21-.04-.41-.08-.61-.12-.04,0-.08-.02-.12-.03,0,0,.01,0,.02,0-.01,0-.03,0-.04-.01,0,0,0,0,0,0,0,0-.02,0-.02,0,0,0,0,0,0,0-.09-.02-.19-.05-.28-.08-.01,0-.03,0-.04-.01l3.34-2.67c1.38.09,2.78.05,4.14.31l-.39,3.47ZM349.03,548.78s0,.02,0,.03c0,.02.01.04.01.04.07.29.11.58.12.87,0,.03,0,.06,0,.09,0,.08,0,.16,0,.25,0,.17-.01.34-.02.5-.03.35-.07.69-.12,1.04-.2,1.41-.55,2.8-.65,4.21-.02.28-.03.57-.02.85l-3.96,3.17c.03-.3.07-.6.11-.89.08-.58.17-1.16.27-1.73.09-.57.19-1.14.25-1.72.06-.58.08-1.17.09-1.76.02-1.09.03-2.17.19-3.25.08-.52.17-1.03.22-1.55.02-.18.03-.36.04-.54l3.44.38ZM339.61,547.9c-.03.57-.04,1.15-.05,1.72-.01.57-.02,1.13-.06,1.7-.04.63-.13,1.26-.21,1.89-.2,1.43-.45,2.86-.59,4.3-.06.64-.1,1.27-.19,1.9-.09.63-.21,1.25-.31,1.87-.21,1.23-.41,2.5-.29,3.75l-3.65,2.92c.21-2.33.35-4.67.53-7.01.24-3.23.73-6.43.95-9.65.09-1.32.13-2.65.09-3.98l3.79.42c0,.06,0,.11,0,.17ZM332.26,573.7c1.7.19,3.4.37,5.1.55,2.05.22,4.1.45,6.15.71,2.04.26,4.08.54,6.11.88.68.11,1.36.24,2.05.33.61.08,1.23.16,1.84.25.64.09,1.28.2,1.9.35.03,0,.06.02.1.02.07.02.13.03.2.05.13.04.26.07.38.12.09.03.17.06.26.1l-.57,5.16c-2.57-.31-5.13-.76-7.68-1.24-2.78-.53-5.56-1.1-8.35-1.59-1.58-.28-3.17-.53-4.76-.73-.08-.01-.16,0-.23.02l-3.41-4.26.9-.72ZM343.32,581.28c2.78.54,5.55,1.1,8.35,1.56,1.32.22,2.65.42,3.99.58l-.53,4.75c-1.69-.18-3.38-.35-5.07-.54-2.15-.24-4.29-.51-6.43-.87-.95-.16-1.89-.34-2.83-.54l-4.99-6.24c2.52.35,5.02.81,7.51,1.29ZM346.3,588.4c2.12.29,4.26.52,6.39.74.77.08,1.54.16,2.31.24l-.48,4.32c-2.01-.24-4.01-.5-6.03-.59-.7-.03-1.4-.03-2.1-.01-.02,0-.05,0-.07.01l-4.32-5.41c1.43.28,2.87.5,4.32.7ZM358.82,554.98c-.27-.05-.55-.09-.83-.12-.67-.08-1.34-.11-2.01-.13l3.15-2.52-.31,2.77ZM354.29,551.94c.02-.85.03-1.71.16-2.55l2.66.3-2.82,2.25ZM309.79,544.42c0,.05,0,.11,0,.16.02.17.04.33.05.5,0,0,0,.03,0,.05,0,.02,0,.07,0,.08,0,.09,0,.18,0,.27-.01.35-.04.7-.09,1.04-.03.25-.07.5-.11.75l-2.52-3.15,2.66.3ZM304.6,546.14l22.21,27.77-27.77,22.21,5.56-49.98ZM301.06,598.65l27.77-22.21,22.21,27.77-49.98-5.56ZM351.27,599.32c.22.01.44.02.65.03.39.02.78.04,1.16.09.1.01.2.03.3.05.04,0,.21.06.02,0,.03.01.07.02.11.03.12.03.23.08.34.12l-.28,2.54-2.29-2.87Z"/>
        </g>
        <path class="cls-3" d="M171.27,38.41s-.04-.04-.06-.07c-1.96-2-3.55-4.32-4.91-6.58-3.67-5.02-7.34-10.19-7.34-10.19,0,0-.94,4.98-12.22,5.69-.49.04-.99.07-1.49.08-15.47.36-35.9-12.94-35.9-12.94l-14.47-4.42s1.01,16.08-4.42,21.58c0,0-34.37,33.35-33.66,47.83.71,14.48,11.01,30.5,6.62,44.88-4.39,14.38-47.18,73.27-47.18,73.27,0,0-7.24,10.81-6.12,21.62,1.12,10.81,32.02,29.58,38.7,32.18,6.68,2.6,48.6,14.23,55.07,22.85,6.48,8.62,37.11,75.68,45.93,88.28,8.82,12.6,40.23,43.5,55.17,55.39,14.94,11.88,67.61,31.22,68.27,50.34.66,19.12-8.37,29.27-9.54,44.01-1.17,14.74-4.34,18.1,14.07,32.23,18.41,14.13,45.94,46.46,54.45,61.81,8.51,15.35,19.22,40.24,31.41,43.45,12.19,3.21,35.64,9.54,42.22,25.6,6.58,16.06,17.13,29.78,23.35,36.52,6.22,6.73,47.93,36.93,41.4,53.86-6.53,16.93-13.72,35.64-28.46,42.83q-14.74,7.19-18.18,11.67s12.7,11.47,21.44,19.72c3.81,3.6,6.87,6.59,7.81,7.77,3.09,3.86,10.76,11.51,10.83,11.58,12.61-19.79,32.69-22.51,39.82-26.65,17.64-10.23,14.59-17.55,30.95-29.6,16.37-12.05,20.34-9.68,25.8-27.57,5.46-17.89,3.74-23.27,2.51-26.01-.8-1.78-4.09-1.96-6.31-1.87-1.2.05-2.08.18-2.08.18,0,0-2.69.55-6.59.02-3.76-.37-8.33-1.52-11.49-4.66-4.38-3.17-8.74-8.33-12.01-16.68-3.09-7.87-5.82-15.57-8.62-22.79-.62-1.59-1.24-3.16-1.87-4.7-3.79-9.28-7.87-17.53-13.18-24.03-.94-.99-2.06-2.2-3.42-3.8-1.85-1.82-3.84-3.45-6.02-4.86-5.45-3.53-11.67-6.18-17.59-8.17-13.95-3.77-23.28-5.37-23.28-5.37,0,0-9.07-17.07-18.41-26.43-.02-.02-.04-.03-.05-.05-.93-.93-1.88-1.8-2.84-2.6-3.11-2.62-6.35-4.54-9.55-5.17-2.23-.44-4.25-.54-6.1-.46-7.21,1.07-14.77,4.39-19.62-.66-2.04-1.54-4.22-3.95-6.69-7.63-4.67-6.95-6.82-15.14-8.74-23.67-3.7-13.93-5.68-22.26-9.01-28.92-1.99-3.71-4.45-7.27-7.67-10.59-2.63-2.68-5.96-5.98-9.51-9.72-10.36-10.61-17.02-18.16-22.14-30.98-.31-.74-.59-1.49-.86-2.24-.15-.42-.31-.84-.46-1.27-.06-.18-.13-.35-.19-.52-.02-.06-.03-.12-.05-.17-.29-.83-.57-1.65-.85-2.53-4.89-15.43-.11-32.58,2.98-47.89,2.32-11.5,5.1-22.96,9.27-33.94,4.38-11.52,11.94-21.51,13.44-34,.2-2.7.09-5.52-.43-8.47-1.19-6.75-4.76-12.2-9.68-16.55-5.95-3.62-14.49-9-24.95-11.75-3.32-.76-6.65-1.3-9.89-1.63-7.02-.47-14.66.52-22.8,3.96-4.88,2.6-9.9,5.97-15.04,8.98-8.36,6.49-15.9,8.24-22.47,7.41-5.42-.27-10.93-2.47-16.5-7.78-.35-.33-.7-.69-1.05-1.03-4.07-3.64-7.16-7.52-9.17-9.92-.24-.28-.48-.56-.71-.84-.05-.06-.11-.13-.16-.19-.03-.03-.07-.09-.11-.13-.17-.2-.37-.44-.59-.72-16.19-19.49-32.43-45.92-41.13-61.38-.18-.31-.33-.58-.46-.81-.04-.07-.07-.13-.11-.2-.22-.39-.42-.76-.63-1.13-1.2-2.12-2.38-4.05-3.34-6.19-.46-.89-.85-1.67-1.15-2.3-2.15-4.48-1.54-10.18-.48-16.57.78-5.63,1.64-10.39,2.07-14.71.33-4.91.08-9.95-1.58-14.94-.6-1.79-1.39-3.6-2.28-5.4-6.52-10.97-26.67-34.95-22.56-47.61.01-.05.03-.09.04-.15.48-1.97,1.4-3.36,2.65-4.36,2.42-2.33,5.73-2.62,9.35-2.37,4.79-.12,10.32.35,15.38-.45,8.55-3.82,16-2.42,14.94-31.88-.38-3.46-.71-6.98-.64-10.61-.34-4.22.45-7.84,2-11.02.11-.29.18-.58.3-.86,3.42-8.33,11.17-12.26,18.75-15.94,6.64-3.82,13.01-7.17,16.04-11.28.36-.55.73-1.1,1.03-1.71.04-.08.07-.17.11-.25.17-.35.28-.75.42-1.13.99-3.18,1.08-7.44.55-12.06-3.04-14.44-16.05-29.81-16.05-29.82-4.26,7.09-9.83,12.02-16.71,15.44-1.75,1.45-3.37,2.77-4.69,3.84l-20.64-20.37Z"/>
      </g>
    </g>
  </g>
</svg>