<?xml version="1.0" encoding="UTF-8"?>
<svg id="Calque_2" data-name="Calque 2" xmlns="http://www.w3.org/2000/svg" xmlns:xlink="http://www.w3.org/1999/xlink" viewBox="0 0 685.97 688.14">
  <defs>
    <style>
      .cls-1 {
        fill: none;
        stroke: #fff;
        stroke-miterlimit: 10;
        stroke-width: 20px;
      }

      .cls-2 {
        fill: #567d55;
      }

      .cls-3 {
        fill: #a8be9b;
      }

      .cls-4 {
        clip-path: url(#clippath);
      }
    </style>
    <clipPath id="clippath">
      <path id="H-2" data-name="H" class="cls-1" d="M552,28.37c-11.24-6.64-17.1-16.07-17.11-16.08,0,0,0,0,0,0,0,0-12.72,4.94-20.62,11.52-7.89,6.58-13.16,22.37-30.26,34.95-17.1,12.58-30.26-3.37-55.26,0-25,3.37-44.74,21.63-60.52,46.63-15.79,25-48.68,36.84-48.68,36.84,0,0-38.16,22.37-57.89,32.89-19.74,10.53-51.31,13.16-76.31,11.84-25-1.32-38.16-14.47-55.26-19.74-17.1-5.26-65.79-11.84-82.89,2.63-17.1,14.47-48.68,27.63-32.89,69.47,15.79,41.84,59.21,56.84,98.68,76.57,39.47,19.74,35.53,6.58,56.58,43.42,21.05,36.84,36.84,46.05,72.37,46.05s35.52-17.1,55.26-30.26c19.74-13.16,23.68,27.63,52.63,40.79,28.95,13.16,51.31-38.16,67.1-26.31,33.9,25.42,9.21,39.47,17.1,75,7.89,35.52,46.05,28.95,67.1,22.14,21.05-6.81,34.21,14.7,51.31,6.81,17.1-7.89,5.26-25,10.53-38.16,5.26-13.16,19.74-11.84,35.53-31.58,15.79-19.74-6.58-39.47-6.58-54.24s14.47-49.7,28.95-90.94c14.47-41.24-23.68-62.7-31.11-75.86-7.43-13.16-12.31-21.05-3.1-27.63,9.21-6.58-3.95-31.58-15.67-42.1-11.72-10.53-48.81-18.42-61.96-22.37-13.16-3.95-13.16-19.74-5.26-33.39,7.89-13.65,59.49-42.24,59.49-42.24,0,0,0,0-.07-.04-3.86-1.97-7.61-4.17-11.17-6.61h0Z"/>
    </clipPath>
  </defs>
  <g id="Header">
    <path class="cls-2" d="M670.93,658.06c-6.92,0-12.73,4.68-14.48,11.04h-274.61v-125.79c6.36-1.75,11.04-7.57,11.04-14.48,0-8.3-6.73-15.04-15.04-15.04s-15.04,6.73-15.04,15.04c0,6.92,4.68,12.73,11.04,14.48v129.79c0,2.21,1.79,4,4,4h278.61c1.75,6.36,7.57,11.04,14.48,11.04,8.3,0,15.04-6.73,15.04-15.04s-6.73-15.04-15.04-15.04Z"/>
    <g>
      <path id="H" class="cls-3" d="M552,28.37c-11.24-6.64-17.1-16.07-17.11-16.08,0,0,0,0,0,0,0,0-12.72,4.94-20.62,11.52-7.89,6.58-13.16,22.37-30.26,34.95-17.1,12.58-30.26-3.37-55.26,0-25,3.37-44.74,21.63-60.52,46.63-15.79,25-48.68,36.84-48.68,36.84,0,0-38.16,22.37-57.89,32.89-19.74,10.53-51.31,13.16-76.31,11.84-25-1.32-38.16-14.47-55.26-19.74-17.1-5.26-65.79-11.84-82.89,2.63-17.1,14.47-48.68,27.63-32.89,69.47,15.79,41.84,59.21,56.84,98.68,76.57,39.47,19.74,35.53,6.58,56.58,43.42,21.05,36.84,36.84,46.05,72.37,46.05s35.52-17.1,55.26-30.26c19.74-13.16,23.68,27.63,52.63,40.79,28.95,13.16,51.31-38.16,67.1-26.31,33.9,25.42,9.21,39.47,17.1,75,7.89,35.52,46.05,28.95,67.1,22.14,21.05-6.81,34.21,14.7,51.31,6.81,17.1-7.89,5.26-25,10.53-38.16,5.26-13.16,19.74-11.84,35.53-31.58,15.79-19.74-6.58-39.47-6.58-54.24s14.47-49.7,28.95-90.94c14.47-41.24-23.68-62.7-31.11-75.86-7.43-13.16-12.31-21.05-3.1-27.63,9.21-6.58-3.95-31.58-15.67-42.1-11.72-10.53-48.81-18.42-61.96-22.37-13.16-3.95-13.16-19.74-5.26-33.39,7.89-13.65,59.49-42.24,59.49-42.24,0,0,0,0-.07-.04-3.86-1.97-7.61-4.17-11.17-6.61h0Z"/>
      <g>
        <g class="cls-4">
          <path class="cls-2" d="M65.74,269.14c5.43-1.08,10.94-1.42,16.46-1.57,5.51-.28,10.98.83,16.47,1.05,3.66.12,7.32-.08,10.98-.45,14.61-1.41,29.45-1.4,43.9,1.52,0,0-.01.39-.01.39-3.66.54-7.32.81-11,1.03-10.96.66-21.96.29-32.89-.8-3.65-.37-7.31-.57-10.97-.42-5.48.24-10.95,1.4-16.46,1.16-5.53-.11-10.99-.42-16.47-1.5v-.39h0Z"/>
          <path class="cls-2" d="M131.21,207.62c-.96-.96-1.11-4.51-2.69-2.98-2.9,2.81-6.62,10.81-7.45,11.71,3.94-30.41,3.31-27.03,5.75-40.04,2.44-13,5.43-33.55,4.15-47.15-3.96-1.19-4.38-.91-8.15-2.79-5.08,12.29-7.13,26.3-8.97,39.73-1.59,11.6-2.94,11.32-4.25,19.42.36-8.25-2.25-14.96-2.25-14.96,0,0-3.25-2.23-3.44-.37-.28,2.69,2.99,30,2.98,32.84-.04,22.15-4.77,49.5-8.8,66.19l12.3.65c2.03-13.92,23.32-61.02,20.81-62.25ZM110.01,230.52c.09,1.92-.14,3.77-.54,5.6-.48,2.24-1.09,4.36-1.49,6.64-.47,2.71-.68,7.3-2,9.5.05-4.31.4-8.46.88-12.73.25-2.24.69-4.39,1.15-6.56.36-1.71,1.1-3.61,1.21-5.38l.79-2.32c.12-.04-.07,3.54,0,5.25ZM117.85,161.41c.35-3.57.97-7,1.6-10.46.5-2.73,1.55-5.75,1.69-8.58l1.1-3.69c.17-.07-.1,5.65,0,8.37.12,3.07-.2,6.01-.75,8.92-.68,3.57-1.53,6.95-2.08,10.58-.66,4.33-.96,11.64-2.8,15.15.06-6.88.55-13.49,1.23-20.3ZM111.45,210.7c-.98-1.51-.4-4.84-.37-6.62.05-2.44.36-4.77.75-7.14.48-2.99.29-9.12,2.35-11.39l.2.06c-.69,2.61-.21,6.01-.48,8.76-.23,2.42-.43,4.88-.8,7.25-.46,2.97-1.42,6.2-1.66,9.07ZM119.41,198.54c.12,3.07-.2,6.01-.75,8.92-.68,3.57-1.53,6.95-2.08,10.58-.66,4.33-.96,11.64-2.8,15.15.06-6.88.55-13.49,1.23-20.3.35-3.57.97-7,1.6-10.46.5-2.73,1.55-5.75,1.69-8.58l1.1-3.69c.17-.07-.1,5.65,0,8.37Z"/>
          <path class="cls-2" d="M229.25,308.84c5.43-1.08,10.94-1.42,16.46-1.57,5.51-.28,10.98.83,16.47,1.05,3.66.12,7.32-.08,10.98-.45,14.61-1.41,29.45-1.4,43.9,1.52v.39c-3.67.54-7.34.81-11.01,1.03-10.96.66-21.96.29-32.89-.8-3.65-.37-7.31-.57-10.97-.42-5.48.24-10.95,1.4-16.46,1.16-5.53-.11-10.99-.42-16.47-1.5v-.39h0Z"/>
          <path class="cls-2" d="M294.72,247.32c-.96-.96-1.11-4.51-2.69-2.98-2.9,2.81-6.62,10.81-7.45,11.71,3.94-30.41,3.31-27.03,5.75-40.04,2.44-13,5.43-33.55,4.15-47.15-3.96-1.19-4.38-.91-8.15-2.79-5.08,12.29-7.13,26.3-8.97,39.73-1.59,11.6-2.94,11.32-4.25,19.42.36-8.25-2.25-14.96-2.25-14.96,0,0-3.25-2.23-3.44-.37-.28,2.69,2.99,30,2.98,32.84-.04,22.15-4.77,49.5-8.8,66.19l12.3.65c2.03-13.92,23.32-61.02,20.81-62.25ZM273.51,270.22c.09,1.92-.14,3.77-.54,5.6-.48,2.24-1.09,4.36-1.49,6.64-.47,2.71-.68,7.3-2,9.5.05-4.31.4-8.46.88-12.73.25-2.24.69-4.39,1.15-6.56.36-1.71,1.1-3.61,1.21-5.38l.79-2.32c.12-.04-.07,3.54,0,5.25ZM281.36,201.11c.35-3.57.97-7,1.6-10.46.5-2.73,1.55-5.75,1.69-8.58l1.1-3.69c.17-.07-.1,5.65,0,8.37.12,3.07-.2,6.01-.75,8.92-.68,3.57-1.53,6.95-2.08,10.58-.66,4.33-.96,11.64-2.8,15.15.06-6.88.55-13.49,1.23-20.3ZM274.96,250.4c-.98-1.51-.4-4.84-.37-6.62.05-2.44.36-4.77.75-7.14.48-2.99.29-9.12,2.35-11.39l.2.06c-.69,2.61-.21,6.01-.48,8.76-.23,2.42-.43,4.88-.8,7.25-.46,2.97-1.42,6.2-1.66,9.07ZM282.91,238.24c.12,3.07-.2,6.01-.75,8.92-.68,3.57-1.53,6.95-2.08,10.58-.66,4.33-.96,11.64-2.8,15.15.06-6.88.55-13.49,1.23-20.3.35-3.57.97-7,1.6-10.46.5-2.73,1.55-5.75,1.69-8.58l1.1-3.69c.17-.07-.1,5.65,0,8.37Z"/>
          <path class="cls-2" d="M356.47,187.72c5.43-1.08,10.94-1.42,16.46-1.57,5.51-.28,10.98.83,16.47,1.05,3.66.12,7.32-.08,10.98-.45,14.61-1.41,29.45-1.4,43.9,1.52v.39c-3.67.54-7.34.81-11.01,1.03-10.96.66-21.96.29-32.89-.8-3.65-.37-7.31-.57-10.97-.42-5.48.24-10.95,1.4-16.46,1.16-5.53-.11-10.99-.42-16.47-1.5v-.39h0Z"/>
          <path class="cls-2" d="M421.94,126.2c-.96-.96-1.11-4.51-2.69-2.98-2.9,2.81-6.62,10.81-7.45,11.71,3.94-30.41,3.31-27.03,5.75-40.04,2.44-13,5.43-33.55,4.15-47.15-3.96-1.19-4.38-.91-8.15-2.79-5.08,12.29-7.13,26.3-8.97,39.73-1.59,11.6-2.94,11.32-4.25,19.42.36-8.25-2.25-14.96-2.25-14.96,0,0-3.25-2.23-3.44-.37-.28,2.69,2.99,30,2.98,32.84-.04,22.15-4.77,49.5-8.8,66.19l12.3.65c2.03-13.92,23.32-61.02,20.81-62.25ZM400.73,149.1c.09,1.92-.14,3.77-.54,5.6-.48,2.24-1.09,4.36-1.49,6.64-.47,2.71-.68,7.3-2,9.5.05-4.31.4-8.46.88-12.73.25-2.24.69-4.39,1.15-6.56.36-1.71,1.1-3.61,1.21-5.38l.79-2.32c.12-.04-.07,3.54,0,5.25ZM408.58,79.99c.35-3.57.97-7,1.6-10.46.5-2.73,1.55-5.75,1.69-8.58l1.1-3.69c.17-.07-.1,5.65,0,8.37.12,3.07-.2,6.01-.75,8.92-.68,3.57-1.53,6.95-2.08,10.58-.66,4.33-.96,11.64-2.8,15.15.06-6.88.55-13.49,1.23-20.3ZM402.18,129.28c-.98-1.51-.4-4.84-.37-6.62.05-2.44.36-4.77.75-7.14.48-2.99.29-9.12,2.35-11.39l.2.06c-.69,2.61-.21,6.01-.48,8.76-.23,2.42-.43,4.88-.8,7.25-.46,2.97-1.42,6.2-1.66,9.07ZM410.14,117.12c.12,3.07-.2,6.01-.75,8.92-.68,3.57-1.53,6.95-2.08,10.58-.66,4.33-.96,11.64-2.8,15.15.06-6.88.55-13.49,1.23-20.3.35-3.57.97-7,1.6-10.46.5-2.73,1.55-5.75,1.69-8.58l1.1-3.69c.17-.07-.1,5.65,0,8.37Z"/>
          <path class="cls-2" d="M456.58,442.02c5.43-1.08,10.94-1.42,16.46-1.57,5.51-.28,10.98.83,16.47,1.05,3.66.12,7.32-.08,10.98-.45,14.61-1.41,29.45-1.4,43.9,1.52,0,0-.01.39-.01.39-3.66.54-7.32.81-11,1.03-10.96.66-21.96.29-32.89-.8-3.65-.37-7.31-.57-10.97-.42-5.48.24-10.95,1.4-16.46,1.16-5.53-.11-10.99-.42-16.47-1.5v-.39h0Z"/>
          <path class="cls-2" d="M522.05,380.51c-.96-.96-1.11-4.51-2.69-2.98-2.9,2.81-6.62,10.81-7.45,11.71,3.94-30.41,3.31-27.03,5.75-40.04,2.44-13,5.43-33.55,4.15-47.15-3.96-1.19-4.38-.91-8.15-2.79-5.08,12.29-7.13,26.3-8.97,39.73-1.59,11.6-2.94,11.32-4.25,19.42.36-8.25-2.25-14.96-2.25-14.96,0,0-3.25-2.23-3.44-.37-.28,2.69,2.99,30,2.98,32.84-.04,22.15-4.77,49.5-8.8,66.19l12.3.65c2.03-13.92,23.32-61.02,20.81-62.25ZM500.84,403.4c.09,1.92-.14,3.77-.54,5.6-.48,2.24-1.09,4.36-1.49,6.64-.47,2.71-.68,7.3-2,9.5.05-4.31.4-8.46.88-12.73.25-2.24.69-4.39,1.15-6.56.36-1.71,1.1-3.61,1.21-5.38l.79-2.32c.12-.04-.07,3.54,0,5.25ZM508.69,334.3c.35-3.57.97-7,1.6-10.46.5-2.73,1.55-5.75,1.69-8.58l1.1-3.69c.17-.07-.1,5.65,0,8.37.12,3.07-.2,6.01-.75,8.92-.68,3.57-1.53,6.95-2.08,10.58-.66,4.33-.96,11.64-2.8,15.15.06-6.88.55-13.49,1.23-20.3ZM502.29,383.58c-.98-1.51-.4-4.84-.37-6.62.05-2.44.36-4.77.75-7.14.48-2.99.29-9.12,2.35-11.39l.2.06c-.69,2.61-.21,6.01-.48,8.76-.23,2.42-.43,4.88-.8,7.25-.46,2.97-1.42,6.2-1.66,9.07ZM510.24,371.42c.12,3.07-.2,6.01-.75,8.92-.68,3.57-1.53,6.95-2.08,10.58-.66,4.33-.96,11.64-2.8,15.15.06-6.88.55-13.49,1.23-20.3.35-3.57.97-7,1.6-10.46.5-2.73,1.55-5.75,1.69-8.58l1.1-3.69c.17-.07-.1,5.65,0,8.37Z"/>
          <path class="cls-2" d="M356.47,371.35c5.43-1.08,10.94-1.42,16.46-1.57,5.51-.28,10.98.83,16.47,1.05,3.66.12,7.32-.08,10.98-.45,14.61-1.41,29.45-1.4,43.9,1.52,0,0-.01.39-.01.39-3.66.54-7.32.81-11,1.03-10.96.66-21.96.29-32.89-.8-3.65-.37-7.31-.57-10.97-.42-5.48.24-10.95,1.4-16.46,1.16-5.53-.11-10.99-.42-16.47-1.5v-.39h0Z"/>
          <path class="cls-2" d="M421.94,309.83c-.96-.96-1.11-4.51-2.69-2.98-2.9,2.81-6.62,10.81-7.45,11.71,3.94-30.41,3.31-27.03,5.75-40.04,2.44-13,5.43-33.55,4.15-47.15-3.96-1.19-4.38-.91-8.15-2.79-5.08,12.29-7.13,26.3-8.97,39.73-1.59,11.6-2.94,11.32-4.25,19.42.36-8.25-2.25-14.96-2.25-14.96,0,0-3.25-2.23-3.44-.37-.28,2.69,2.99,30,2.98,32.84-.04,22.15-4.77,49.5-8.8,66.19l12.3.65c2.03-13.92,23.32-61.02,20.81-62.25ZM400.73,332.73c.09,1.92-.14,3.77-.54,5.6-.48,2.24-1.09,4.36-1.49,6.64-.47,2.71-.68,7.3-2,9.5.05-4.31.4-8.46.88-12.73.25-2.24.69-4.39,1.15-6.56.36-1.71,1.1-3.61,1.21-5.38l.79-2.32c.12-.04-.07,3.54,0,5.25ZM408.58,263.62c.35-3.57.97-7,1.6-10.46.5-2.73,1.55-5.75,1.69-8.58l1.1-3.69c.17-.07-.1,5.65,0,8.37.12,3.07-.2,6.01-.75,8.92-.68,3.57-1.53,6.95-2.08,10.58-.66,4.33-.96,11.64-2.8,15.15.06-6.88.55-13.49,1.23-20.3ZM402.18,312.91c-.98-1.51-.4-4.84-.37-6.62.05-2.44.36-4.77.75-7.14.48-2.99.29-9.12,2.35-11.39l.2.06c-.69,2.61-.21,6.01-.48,8.76-.23,2.42-.43,4.88-.8,7.25-.46,2.97-1.42,6.2-1.66,9.07ZM410.14,300.75c.12,3.07-.2,6.01-.75,8.92-.68,3.57-1.53,6.95-2.08,10.58-.66,4.33-.96,11.64-2.8,15.15.06-6.88.55-13.49,1.23-20.3.35-3.57.97-7,1.6-10.46.5-2.73,1.55-5.75,1.69-8.58l1.1-3.69c.17-.07-.1,5.65,0,8.37Z"/>
          <path class="cls-2" d="M443.92,251.51c5.43-1.08,10.94-1.42,16.46-1.57,5.51-.28,10.98.83,16.47,1.05,3.66.12,7.32-.08,10.98-.45,14.61-1.41,29.45-1.4,43.9,1.52,0,0-.01.39-.01.39-3.66.54-7.32.81-11,1.03-10.96.66-21.96.29-32.89-.8-3.65-.37-7.31-.57-10.97-.42-5.48.24-10.95,1.4-16.46,1.16-5.53-.11-10.99-.42-16.47-1.5v-.39h0Z"/>
          <path class="cls-2" d="M509.39,189.99c-.96-.96-1.11-4.51-2.69-2.98-2.9,2.81-6.62,10.81-7.45,11.71,3.94-30.41,3.31-27.03,5.75-40.04,2.44-13,5.43-33.55,4.15-47.15-3.96-1.19-4.38-.91-8.15-2.79-5.08,12.29-7.13,26.3-8.97,39.73-1.59,11.6-2.94,11.32-4.25,19.42.36-8.25-2.25-14.96-2.25-14.96,0,0-3.25-2.23-3.44-.37-.28,2.69,2.99,30,2.98,32.84-.04,22.15-4.77,49.5-8.8,66.19l12.3.65c2.03-13.92,23.32-61.02,20.81-62.25ZM488.18,212.89c.09,1.92-.14,3.77-.54,5.6-.48,2.24-1.09,4.36-1.49,6.64-.47,2.71-.68,7.3-2,9.5.05-4.31.4-8.46.88-12.73.25-2.24.69-4.39,1.15-6.56.36-1.71,1.1-3.61,1.21-5.38l.79-2.32c.12-.04-.07,3.54,0,5.25ZM496.03,143.78c.35-3.57.97-7,1.6-10.46.5-2.73,1.55-5.75,1.69-8.58l1.1-3.69c.17-.07-.1,5.65,0,8.37.12,3.07-.2,6.01-.75,8.92-.68,3.57-1.53,6.95-2.08,10.58-.66,4.33-.96,11.64-2.8,15.15.06-6.88.55-13.49,1.23-20.3ZM489.62,193.07c-.98-1.51-.4-4.84-.37-6.62.05-2.44.36-4.77.75-7.14.48-2.99.29-9.12,2.35-11.39l.2.06c-.69,2.61-.21,6.01-.48,8.76-.23,2.42-.43,4.88-.8,7.25-.46,2.97-1.42,6.2-1.66,9.07ZM497.58,180.91c.12,3.07-.2,6.01-.75,8.92-.68,3.57-1.53,6.95-2.08,10.58-.66,4.33-.96,11.64-2.8,15.15.06-6.88.55-13.49,1.23-20.3.35-3.57.97-7,1.6-10.46.5-2.73,1.55-5.75,1.69-8.58l1.1-3.69c.17-.07-.1,5.65,0,8.37Z"/>
          <path class="cls-2" d="M551.72,317.35c19.86-5.95,41.04-3.79,61.41-3.53,2.69.03,5.99.05,8.7.02,9.47.05,18.75,1.83,28.14,2.31,4.63.22,9.3.34,13.79-1.06-1.01.62-2.1,1.09-3.22,1.52-7.92,2.65-16.54,2.28-24.74,2.14-4.68-.11-9.38-.39-13.85-.21-2.91.12-5.95.2-8.88.2-20.59-.11-40.78-3.08-61.36-1.38h0Z"/>
          <path class="cls-2" d="M581.15,234.73c7.74-1.95,15.73-2.69,23.68-3.02,7.96-.22,16.06-.06,23.85,1.89-13.7,3.38-33.84,4.5-47.54,1.13h0Z"/>
          <path class="cls-2" d="M332.15,227.94c7.74-2.38,15.56-5.41,23.86-4.53,2.81.36,5.83,1.29,7.83,3.4-2.74-.15-5.18.08-7.8.5-7.37,1.08-16.7,3.74-23.89.63h0Z"/>
          <path class="cls-2" d="M143.71,236.25c13.14,2.69,26.04-.56,39.3-1.22,3.38-.2,6.81-.28,10.2-.03,9.93.78,19.76,1.13,29.73,2.38-6.59,1.22-13.23,1.88-19.91,2.2-4.95.29-9.89,0-14.85.16-13.84.35-31.87,3.65-44.47-3.49h0Z"/>
          <path class="cls-2" d="M544.38,169.26c13.14,2.69,26.04-.56,39.3-1.22,3.38-.2,6.81-.28,10.2-.03,9.93.78,19.76,1.13,29.73,2.38-6.59,1.22-13.23,1.88-19.91,2.2-4.95.29-9.89,0-14.85.16-13.84.35-31.87,3.65-44.47-3.49h0Z"/>
          <path class="cls-2" d="M192.38,284.82c8.6-4.47,21.96-4.58,30.56,0-8.05,2.11-22.56,2.17-30.56,0h0Z"/>
          <path class="cls-2" d="M35.18,208.53c8.6-4.47,21.96-4.58,30.56,0-8.05,2.11-22.56,2.17-30.56,0h0Z"/>
          <path class="cls-2" d="M140.88,342.25c6.5-3.31,14.08-3.95,21.25-4.05,8.83-.18,17.58,1,26.37.21,10.43-.95,28.07-5.23,37.27.45-3.48-.96-6.99-.74-10.46-.35-3.47.41-6.92,1.08-10.38,1.79-5.24,1.07-10.51,2.28-15.88,2.98-3.65.46-7.41.4-11.06.22-12.4-.57-24.72-3.44-37.1-1.24h0Z"/>
          <path class="cls-2" d="M227.05,371.86c6.5-3.31,14.08-3.95,21.25-4.05,8.83-.18,17.58,1,26.37.21,10.43-.95,28.07-5.23,37.27.45-3.48-.96-6.99-.74-10.46-.35-3.47.41-6.92,1.08-10.38,1.79-5.24,1.07-10.51,2.28-15.88,2.98-3.65.46-7.41.4-11.06.22-12.4-.57-24.72-3.44-37.1-1.24h0Z"/>
          <path class="cls-2" d="M295.94,398.84c5.98-3.77,15.21-3.72,22.1-3.64,7.35.33,14.48.11,21.93.34,4.96.22,10.08.55,14.82,2.16-10.53,1.01-20.78,3.03-31.45,2.59-3.5-.12-9.33-.81-12.86-1.14-4.88-.44-9.63-1.03-14.54-.31h0Z"/>
        </g>
        <path id="H-3" data-name="H" class="cls-1" d="M552,28.37c-11.24-6.64-17.1-16.07-17.11-16.08,0,0,0,0,0,0,0,0-12.72,4.94-20.62,11.52-7.89,6.58-13.16,22.37-30.26,34.95-17.1,12.58-30.26-3.37-55.26,0-25,3.37-44.74,21.63-60.52,46.63-15.79,25-48.68,36.84-48.68,36.84,0,0-38.16,22.37-57.89,32.89-19.74,10.53-51.31,13.16-76.31,11.84-25-1.32-38.16-14.47-55.26-19.74-17.1-5.26-65.79-11.84-82.89,2.63-17.1,14.47-48.68,27.63-32.89,69.47,15.79,41.84,59.21,56.84,98.68,76.57,39.47,19.74,35.53,6.58,56.58,43.42,21.05,36.84,36.84,46.05,72.37,46.05s35.52-17.1,55.26-30.26c19.74-13.16,23.68,27.63,52.63,40.79,28.95,13.16,51.31-38.16,67.1-26.31,33.9,25.42,9.21,39.47,17.1,75,7.89,35.52,46.05,28.95,67.1,22.14,21.05-6.81,34.21,14.7,51.31,6.81,17.1-7.89,5.26-25,10.53-38.16,5.26-13.16,19.74-11.84,35.53-31.58,15.79-19.74-6.58-39.47-6.58-54.24s14.47-49.7,28.95-90.94c14.47-41.24-23.68-62.7-31.11-75.86-7.43-13.16-12.31-21.05-3.1-27.63,9.21-6.58-3.95-31.58-15.67-42.1-11.72-10.53-48.81-18.42-61.96-22.37-13.16-3.95-13.16-19.74-5.26-33.39,7.89-13.65,59.49-42.24,59.49-42.24,0,0,0,0-.07-.04-3.86-1.97-7.61-4.17-11.17-6.61h0Z"/>
      </g>
    </g>
  </g>
</svg>