<?xml version="1.0" encoding="UTF-8"?>
<svg id="Calque_2" data-name="Calque 2" xmlns="http://www.w3.org/2000/svg" xmlns:xlink="http://www.w3.org/1999/xlink" viewBox="0 0 533.92 384.35">
  <defs>
    <style>
      .cls-1 {
        fill: none;
      }

      .cls-2 {
        fill: #fff1d0;
      }

      .cls-3 {
        fill: #dd9341;
      }

      .cls-4 {
        clip-path: url(#clippath-1);
      }

      .cls-5 {
        fill: #fff;
      }

      .cls-6 {
        fill: #c7b677;
      }

      .cls-7 {
        fill: #e9d389;
      }

      .cls-8 {
        clip-path: url(#clippath);
      }
    </style>
    <clipPath id="clippath">
      <path class="cls-1" d="M474.97,128.59c-13.35-5.93-138.69-64.52-156.48-70.46-17.8-5.93-57.11-28.18-83.06-34.12-25.96-5.93-63.78-22.25-94.19-8.9-30.41,13.35-40.05,45.24-45.59,94.93-5.54,49.69-11.52,85.29-17.45,113.47-5.93,28.18-41.28,56.36-41.28,56.36l-26.92,24.06s32.63,23.88,52.31,41.81c8.15,7.42,14.09,13.83,14.56,17.09,0,0,9.49,13.45,24.29,11.25,14.81-2.2,11.89-14.86,18.57-22.98s17.8-.77,35.6-3.74c17.8-2.97,22.25-34.12,29.67-42.27,7.42-8.16,40.79,5.19,47.46,8.16,6.67,2.97,80.84,33.37,89.74,34.86,8.9,1.48,32.63,5.93,63.04,0,30.41-5.93,45.24-49.69,54.88-63.04,9.64-13.35,46.72-35.6,54.88-42.27.85-.69,1.66-1.64,2.45-2.78h0s3.58-8.52,7.82-23.75c1.28-4.61,2.63-9.82,3.95-15.62,0,0,0,0,0,0,.25-1.47.46-2.77.62-3.83.34-2.24,1.3-4.97,2.55-7.88,5.36-17.06,11.54-25.49,11.54-25.49,0-5.19-35.6-28.92-48.95-34.86Z"/>
    </clipPath>
    <clipPath id="clippath-1">
      <path class="cls-1" d="M474.97,128.59c-13.35-5.93-138.69-64.52-156.48-70.46-17.8-5.93-57.11-28.18-83.06-34.12-25.96-5.93-63.78-22.25-94.19-8.9-30.41,13.35-40.05,45.24-45.59,94.93-5.54,49.69-11.52,85.29-17.45,113.47-5.93,28.18-41.28,56.36-41.28,56.36l-26.92,24.06s32.63,23.88,52.31,41.81c8.15,7.42,14.09,13.83,14.56,17.09,0,0,9.49,13.45,24.29,11.25,14.81-2.2,11.89-14.86,18.57-22.98,6.67-8.13,17.8-.77,35.6-3.74,17.8-2.97,22.25-34.12,29.67-42.27,7.42-8.16,40.79,5.19,47.46,8.16,6.67,2.97,80.84,33.37,89.74,34.86,8.9,1.48,32.63,5.93,63.04,0,30.41-5.93,45.24-49.69,54.88-63.04,9.64-13.35,46.72-35.6,54.88-42.27.85-.69,1.66-1.64,2.45-2.78h0s3.58-8.52,7.82-23.75c1.28-4.61,2.63-9.82,3.95-15.62,0,0,0,0,0,0,.25-1.47.46-2.77.62-3.83.34-2.24,1.3-4.97,2.55-7.88,5.36-17.06,11.54-25.49,11.54-25.49,0-5.19-35.6-28.92-48.95-34.86Z"/>
    </clipPath>
  </defs>
  <g id="Header">
    <g id="B">
      <path class="cls-7" d="M474.97,128.59c-13.35-5.93-138.69-64.52-156.48-70.46-17.8-5.93-57.11-28.18-83.06-34.12-25.96-5.93-63.78-22.25-94.19-8.9-30.41,13.35-40.05,45.24-45.59,94.93-5.54,49.69-11.52,85.29-17.45,113.47-5.93,28.18-41.28,56.36-41.28,56.36l-26.92,24.06s32.63,23.88,52.31,41.81c8.15,7.42,14.09,13.83,14.56,17.09,0,0,9.49,13.45,24.29,11.25,14.81-2.2,11.89-14.86,18.57-22.98s17.8-.77,35.6-3.74c17.8-2.97,22.25-34.12,29.67-42.27,7.42-8.16,40.79,5.19,47.46,8.16,6.67,2.97,80.84,33.37,89.74,34.86,8.9,1.48,32.63,5.93,63.04,0,30.41-5.93,45.24-49.69,54.88-63.04,9.64-13.35,46.72-35.6,54.88-42.27.85-.69,1.66-1.64,2.45-2.78h0s3.58-8.52,7.82-23.75c1.28-4.61,2.63-9.82,3.95-15.62,0,0,0,0,0,0,.25-1.47.46-2.77.62-3.83.34-2.24,1.3-4.97,2.55-7.88,5.36-17.06,11.54-25.49,11.54-25.49,0-5.19-35.6-28.92-48.95-34.86Z"/>
    </g>
    <g class="cls-8">
      <g>
        <path class="cls-2" d="M159.6,120.46c9.34-9.61,18.16-20.48,30.02-27.25,12.57-7.39,28.13-7.92,40.94-.83,5.17,2.82,9.76,6.5,14.38,10.08,4.49,3.48,9.17,6.82,13.79,10.09,11.2,7.81,23.12,15.36,36.67,18.06,17.51,3.49,35.9-.32,51.67-8.3,4.89-2.52,9.61-5.48,13.86-8.98,15.42-12.84,34.93-24.32,55.76-21.38,1.98.29,4.12.77,6.05,1.34,0,0,1.46.47,1.46.47l.73.24c12.16,4.35,22.43,12.52,33.53,18.8,4.83,2.72,9.93,5.17,15.34,6.48,5.45,1.37,11.1,1.4,16.63.09l.2.62c-.79.28-1.66.62-2.39.86-.1.02-1.59.45-1.76.49-.75.23-2.08.44-2.87.61-1,.11-1.98.29-2.93.33,0,0-1.48.08-1.48.08-13.89.27-26.28-7.39-38.06-13.78-8.21-4.45-16.62-9.04-26-10.02-10.57-1.07-21.07,2.15-30.47,6.78-7.09,3.51-13.68,7.92-19.91,12.79-1.1.85-2.48,1.84-3.63,2.63-4.92,3.31-10.23,6.09-15.77,8.2-16.45,6.28-34.7,7.42-51.79,3.35-5.65-1.36-11.1-3.52-16.33-5.95-10.47-4.87-20.46-10.69-30.33-16.64-3.23-1.92-6.54-4.24-9.66-6.34-5.36-3.65-10.86-7.15-17.11-8.98,0,0-.32-.08-.32-.08l-.64-.16c-.43-.1-.85-.23-1.28-.32l-1.3-.24-.65-.12c-.22-.04-.44-.06-.66-.09l-1.32-.17c-.22-.03-.44-.05-.66-.07l-.66-.05c-2.43-.21-4.88-.11-7.3.16-6.51.79-12.71,3.42-18.26,6.85-9.69,5.93-17.85,14.13-27.02,20.85,0,0-.43-.49-.43-.49h0Z"/>
        <path class="cls-2" d="M31.41,184.09c.97-.03,1.95,0,2.87-.12.5-.05.95-.06,1.42-.14,4.22-.57,8.25-2.03,12.01-3.97,13.77-7.11,24.78-19.32,39.6-24.88,2.4-.92,5.02-1.53,7.57-1.95,26.32-3.89,46.71,17.14,70.12,24.91,10.79,3.68,22.52,5.3,33.77,2.95,1.3-.24,2.88-.62,4.14-.95.44-.13,1.58-.47,2-.59.76-.27,1.88-.65,2.62-.96,1.47-.59,3.07-1.3,4.49-2.01,8.35-4.14,16.13-9.69,25.2-12.25,20.35-5.72,38.16,5.91,55.33,15.1,5.83,3.11,11.64,5.87,17.98,7.58,18.7,5.32,38.83,1.95,56.11-6.49,3.9-1.87,7.68-3.98,11.39-6.26l.38.53c-8.19,6.9-17.75,12.56-27.95,16.12-14.26,5.04-29.9,5.77-44.48,1.6-5.82-1.6-11.34-4.14-16.68-6.89-9.96-5.11-19.34-11.23-30.04-14.65-.36-.11-1.58-.45-1.97-.57-.51-.13-1.5-.36-1.98-.48-2.38-.51-4.88-.87-7.32-.92-1.32-.05-2.68,0-4,.12-1.02.07-2.29.27-3.31.44-8.61,1.69-16.22,6.29-24.21,9.76-5.38,2.44-11.29,4.25-17.24,4.89-1.13.16-2.57.26-3.7.36-.5.03-1.72.08-2.23.11-.88.04-2.08.03-2.97.05-.84-.03-2.13-.04-2.96-.1-3.91-.19-7.86-.75-11.7-1.54-4.31-.9-8.55-2.14-12.72-3.52-8.78-2.95-17.16-7.11-25.56-10.79-13.5-5.83-28.08-12.05-43.02-9.55-3.56.61-6.96,1.85-10.24,3.41-12.19,5.84-22.44,15.1-35.25,20.11-3.25,1.26-6.67,2.2-10.15,2.5l-.74.06-.37.03h-.37s-1.49.03-1.49.03c-.25.01-.5-.02-.74-.03l-.74-.04-.74-.05c-.25-.02-.49-.07-.74-.1l-1.46-.22.07-.65h0Z"/>
        <path class="cls-2" d="M49.7,62.76l1.31.35.65.18c.37.08,1.58.35,1.98.43,0,0,1.33.23,1.33.23l.66.11c.39.05,1.58.2,1.99.25,6.61.66,13.3-.22,19.67-2.05,27.93-7.91,52.33-32.13,83.29-23.27,4.46,1.28,8.79,3.13,12.88,5.31,1.96,1.04,4.05,2.31,5.97,3.42,3.46,2.05,7.16,3.9,10.88,5.41,2.49,1,5.05,1.93,7.63,2.66,1.19.33,2.69.78,3.9,1.03,0,0,2.62.59,2.62.59l2.65.46,1.32.22,1.33.16c5.73.76,11.61.86,17.37.52,4.83-.27,9.83-.92,14.61-1.7,7.9-1.32,15.73-3.19,23.31-5.8,11.36-3.74,21.16-11.54,33.27-13.52,15.53-2.68,29.13,7.43,42.85,12.68,5.83,2.09,11.93,3.65,18.03,4.68,7.94,1.29,16.11,1.54,23.98-.45l.21.62c-8.56,3.66-18.21,4.12-27.39,3.2-5.56-.59-11.11-1.6-16.48-3.15-10.25-3.05-19.86-8.87-30.37-10.69-14.37-2.61-26.31,7.57-39.43,11.9-1.25.44-2.75.88-4.03,1.27-18.23,5.31-37.75,7.47-56.46,3.54-1.5-.27-3.9-.9-5.41-1.26-.99-.29-3.06-.87-3.99-1.16-.66-.22-1.97-.66-2.63-.88-1.32-.42-2.6-.96-3.89-1.43-1.25-.45-2.59-1.08-3.83-1.58-1.33-.54-3.38-1.57-4.7-2.17-1.29-.67-2.69-1.39-3.97-2.08-1.19-.67-3.58-2.03-4.77-2.7-3.49-1.97-7.21-3.66-11.03-4.87-3.76-1.2-7.74-1.95-11.69-2.11-3.9-.17-7.89.19-11.7,1.01-4.72.97-9.34,2.55-13.82,4.32-10.09,4-19.71,9.07-29.71,13.34-13.33,5.69-28.47,10.15-42.84,5.86,0,0-.66-.22-.66-.22-.44-.15-.88-.29-1.32-.44l-1.29-.51c-.22-.08-.43-.17-.64-.26l-.63-.29-1.25-.58.24-.61h0Z"/>
        <path class="cls-2" d="M108.95,251.02c2.33-5.98,6.01-11.68,10.81-16.05.3-.27,1.28-1.12,1.55-1.36.47-.35,1.17-.91,1.64-1.26.57-.45,1.78-1.22,2.39-1.65.66-.39,1.49-.88,2.15-1.26l.37-.19c.38-.2,1.51-.77,1.85-.94,4.37-2.05,9.07-3.41,13.82-4.21,10.72-1.77,21.7-1.03,32.4.3,4.38.52,8.81,1.15,12.98,2.63,12.74,4.22,22.79,13.87,35.27,18.48.81.29,1.72.57,2.54.85,0,0,.37.1.37.1l1.49.39c5.03,1.25,10.28,1.62,15.46,1.53,7.86-.11,15.8-1.29,23.58-2.43,0,0,1.54-.25,1.54-.25.48-.11,1.82-.38,2.29-.48.51-.12,1.76-.44,2.28-.56.45-.14,1.81-.52,2.25-.65.52-.17,1.71-.56,2.23-.73,1.88-.66,4.02-1.48,5.85-2.27,11.76-5.01,22.61-12.11,34.83-16.14,4.74-1.54,9.69-2.62,14.67-2.91,0,0,1.68-.07,1.68-.07l.42-.02c.77,0,1.76,0,2.53.02,6.82.22,13.67,1.91,19.95,4.37,13.68,5.27,25.87,14.09,40.17,17.69,15.67,3.8,33.92,1.86,49.16-3.07,13.73-4.66,25.4-13.88,38.82-19.34,0,0,.28.59.28.59-11.51,6.57-21.65,15.66-33.69,21.47-1.1.55-2.59,1.19-3.74,1.69-.9.34-2.18.86-3.08,1.19-17.4,6.11-38.06,8.43-55.81,2.32-16.01-5.34-29.45-16.69-46.07-20.12-.65-.14-1.54-.27-2.2-.39-1.25-.19-2.79-.34-4.07-.44-.69-.02-1.55-.05-2.23-.08-4.38-.04-8.79.56-13.06,1.56-13.07,3.16-24.92,9.71-37.56,14.23-4.26,1.55-8.71,2.87-13.17,3.77-.49.08-1.88.34-2.39.43-.55.08-1.88.26-2.4.34-8.68,1.05-17.45,2.4-26.22,2.59-2.67.07-5.42.01-8.09-.21-1.27-.07-2.79-.31-4.06-.46-.8-.13-2.04-.38-2.83-.52-1.46-.36-2.96-.7-4.38-1.16-12.21-3.73-22.41-11.8-34.47-15.76-3.86-1.3-7.88-1.88-11.89-2.42-5.71-.79-11.37-1.44-17.1-1.7-3.57-.16-7.24-.16-10.8.09-4.05.29-8.12.91-12.03,2.02l-1.45.44c-.49.14-.96.33-1.44.49l-.72.26-.36.13c-.12.05-.23.1-.35.15l-1.4.59-.35.15c-.62.31-1.43.69-2.05,1l-.33.18-1.33.74c-.11.06-.22.12-.33.19l-.32.2-.64.41-.64.41c-.11.07-.22.14-.32.21l-.31.22-1.24.89-.31.22-.3.24-.59.49-.59.49c-.2.16-.4.32-.58.5l-1.13,1.04c-.19.18-.39.34-.56.53l-.53.56c-2.88,2.96-5.36,6.36-7.5,10l-.59-.28h0Z"/>
        <path class="cls-2" d="M31.65,307.6c4.3,5.01,14.9.42,20-1.64,7.62-3.24,14.95-7.14,22.46-10.69,4.38-2.01,8.75-4.08,13.51-5.17.79-.17,1.65-.31,2.49-.36l.74-.02,1.48-.04c4.41-.02,8.84.56,13.09,1.74,15.12,4.06,27.29,14.33,41.22,20.92,2.89,1.33,5.86,2.55,8.92,3.45,7.87,2.34,16.24,2.86,24.39,2.12,17.39-1.62,33.76-8.42,49.67-15.22,4.65-2.01,9.42-4.23,14.15-6.05,13.82-5.4,27.01-7.46,41.48-2.92,5.56,1.7,10.74,4.11,15.82,6.82,12.16,6.38,24.47,12.53,37.49,16.9,6.05,2.03,12.24,3.62,18.57,4.51,3.62.5,7.28.73,10.98.67l.06.65c-3.68.64-7.44.88-11.2.83-21.25-.61-41.22-9.27-60.11-18.3-4.01-1.93-8.12-3.68-12.36-5.02-15.11-4.86-27.78-2.38-42.39,3.18-5.16,1.98-10.33,4.2-15.53,6.06-8.77,3.21-17.81,5.89-26.98,7.72-16.47,3.28-33.98,4.09-50.03-1.58-13.52-4.66-25.98-12.38-39.31-17.14-5.77-2.05-11.81-3.48-17.95-3.55l-1.3.02h-.64c-.55.04-1.07.1-1.64.21-4.19.87-8.49,2.72-12.52,4.36-9.45,3.88-18.84,8.3-28.84,10.69-5.13,1.13-13.06,2.4-16.26-2.78,0,0,.53-.38.53-.38h0Z"/>
        <path class="cls-6" d="M116.4,377.25c10.21,1.73,20.58.66,30.5-2.04,11.92-3.2,23.33-8.43,34.6-13.43,1.78-.79,4.06-1.83,5.82-2.52,6.14-2.55,12.97-3.68,19.63-3.16,19.46,1.56,34.97,14.73,52.97,20.75,13.73,4.59,28.53,5.66,42.86,3.76,14.31-1.81,28.41-6.09,42.25-10.11,2-.58,3.89-1.18,5.85-1.84,8.96-3.05,17.77-6.91,27.13-8.9.53-.13,1.08-.21,1.62-.31l.81-.15.41-.07.41-.06,1.65-.23.41-.06.42-.04.83-.08c11.89-1.07,23.67,1.75,35.13,4.52,22.47,5.96,47.72,22.97,71.16,19.96,4.02-.55,7.95-1.88,11.55-3.92l.36.54c-1.47,1.12-3.07,2.13-4.72,2.97-20.69,10.18-48.11-2.75-68.32-9.51-4.4-1.49-8.7-2.87-13.12-3.82-3.47-.74-7.18-1.52-10.64-2.17-8.3-1.53-16.83-2.59-25.2-1.18-7.59,1.24-14.7,3.82-22.04,6.25-5.98,2.06-12.12,3.75-18.28,5.22-17.37,4.27-35.29,7.21-53.23,6.17-13.7-.72-27.2-3.97-39.86-9.24-11.47-4.56-22.67-10.1-34.9-12.13-8.08-1.39-16.21-.56-23.71,2.51,0,0-.34.13-.34.13l-.36.15-1.44.61c-4.43,1.86-10.06,4.22-14.54,5.95-9.88,3.82-20.07,7.09-30.64,8.32-6.35.71-12.82.67-19.09-.58l-1.56-.32-1.54-.39-.77-.2-.76-.23-1.51-.47.16-.63h0Z"/>
      </g>
    </g>
    <g class="cls-4">
      <path class="cls-3" d="M477.33,188.99c-6.1-.75-13.45-1.35-20.34-.81-.8.63-2.04.87-2.87,1.54-.53.43-1.08.9-1.59,1.4-.01.02-.02.04-.03.05,0,0,0-.02,0-.02-.49.47-.97.97-1.39,1.47.23-1.46.86-2.73,1.69-3.94-2.45.39-4.79.97-6.94,1.79-.43.17-.86.34-1.28.52,5.01-5.42,9.45-11.37,11.46-18.32.85-2.95,1.52-6.15,1.98-9.43-1.63.54-3.85,1.06-5.25.44.68-.95,2.87-1.35,3.93-1.92.5-.26,1.07-.57,1.61-.92.58-5.41.56-10.93-.2-15.88-4.52,3.72-9.05,7.47-13.29,11.63-4.65,4.57-10.06,10.32-14,16.44-.03.78-.18,1.61-.03,2.35.26,1.33.64,2.76,1.15,4.02-1.2-.9-2.02-2.06-2.71-3.38-.03-.06-.06-.13-.09-.19-1.15,2.08-2.11,4.18-2.78,6.28-.14.44-.27.89-.39,1.33-1.12-7.3-2.99-14.48-7.18-20.38-1.78-2.51-3.87-5.04-6.15-7.45-.44,1.68-1.26,3.99-2.61,4.84-.41-1.09.47-3.13.59-4.33.07-.73.16-1.61.13-2.44-3.81-3.73-8.06-7.08-12.32-9.53.09,5.85.2,11.74.81,17.64.69,6.73,1.88,14.89,4.39,21.97.61.33,1.22.72,1.86.88,1.32.33,2.78.58,4.13.65-1.32.71-2.72.97-4.2,1.04-.28.01-.56,0-.82-.04.88,2.11,1.9,4.09,3.08,5.85.26.39.52.76.79,1.14-6.4-3.67-13.19-6.69-20.41-7.09-2.78-.16-5.72-.12-8.7.09.01.05.03.1.04.15.51,1.66,1.18,4.45.37,6.03-.91-.73-1.19-2.94-1.7-4.03-.07-.16-.15-.32-.23-.49-.32-.49-.65-.97-1.02-1.43-5.67.61-11.36,1.88-16.25,3.82,4.63,3.58,9.3,7.16,14.29,10.37,5.54,3.55,12.44,7.59,19.35,10.07.7-.16,1.45-.27,2.07-.58,1.21-.62,2.47-1.39,3.54-2.23-.53,1.4-1.41,2.52-2.48,3.55-.08.07-.15.14-.23.21,2.29.66,4.55,1.13,6.75,1.31.46.04.93.07,1.39.09-6.86,2.71-13.45,6.14-18.27,11.54-2.09,2.34-4.13,4.99-6,7.82,0,0,0,0,0,0,1.73.16,4.56.61,5.71,1.97-1.02.56-3.17-.03-4.37.02-.85.03-1.89.07-2.8.29-2.75,4.5-5.03,9.32-6.45,13.96,5.68-1.39,11.4-2.8,17.02-4.71,6.12-2.08,13.41-4.89,19.58-8.64.3-.81.82-1.62.97-2.47.23-1.34.37-2.81.34-4.17.8,1.26,1.17,2.64,1.35,4.11.03.27.04.53.02.78,2.03-1.41,3.88-2.95,5.45-4.61.32-.34.63-.68.93-1.03-2.16,7.06-3.58,14.34-2.37,21.48.49,2.91,1.24,5.96,2.19,8.99,1.09-1.37,2.86-3.28,4.51-3.5-.06.94-1.14,2.1-1.87,3.06.09-.03.18-.05.26-.07-.22.21-.44.42-.66.64-.02.03-.03.05-.05.08-.43.74-.96,1.66-1.26,2.56,1.82,5.08,4.22,10.02,7.03,14.12,2.46-5.31,4.92-10.66,6.93-16.24,2.17-6.03,4.5-13.41,5.43-20.52-.44-.81-.63-1.87-1.18-2.63-.79-1.1-1.73-2.24-2.72-3.18,1.46.32,2.7,1.03,3.87,1.94.13.1.26.21.37.32.14-2.4.09-4.73-.22-6.94-.07-.46-.14-.92-.22-1.37,4.17,6.09,8.98,11.74,15.31,15.25,2.83,1.57,5.97,3,9.24,4.22-.18-1.74-.24-4.31.78-5.62.76.88.63,3.1.93,4.27.17.67.37,1.46.66,2.19,4.97,1.66,10.14,2.8,14.95,3.15-2.62-5.23-5.27-10.49-8.38-15.54-3.36-5.46-7.69-11.9-12.68-17.07-.93-.2-1.89-.8-2.85-.9-.47-.05-.95-.09-1.43-.12-.07.01-.15.02-.22.03.02-.01.03-.03.05-.04-.87-.04-1.75-.04-2.58.03,1.21-.88,2.56-1.32,4.02-1.59.1-.02.19-.03.28-.04-1.73-1.54-3.52-2.89-5.37-3.99-.4-.24-.8-.46-1.21-.68,7.36.53,14.78.3,21.47-2.47,2.81-1.16,5.7-2.62,8.53-4.28,0,0-.01,0-.02-.01-1.52-.84-3.93-2.39-4.44-4.1,1.16-.1,2.89,1.3,4.01,1.74.84.33,1.89.74,2.86.89,4.49-2.88,8.69-6.27,12.02-9.88-5.72-1.22-11.49-2.42-17.38-3.14ZM407.77,168.06q-1.06-4.35-1.15-6.49c1.51,2.28,2.76,4.52,4.01,7.43,1.38,3.2,2.73,6.43,4.16,9.58,1.44,3.19,3.19,6.1,4.51,9.41,1.25,3.13,3,6.02,4.23,9.16.82,2.1,1.45,4.46,1.5,6.88-.24-.25-.48-.52-.72-.82-.04-.03-.08-.06-.13-.09-.01-.04-.03-.09-.04-.13-1.38-1.8-2.65-4.28-3.71-6.38-1.5-2.98-3.13-5.76-4.57-8.94-1.37-3.05-2.6-6.23-3.85-9.39-.38-.86-.74-1.73-1.09-2.6-1.11-2.45-2.58-5.29-3.15-7.63ZM394.75,200.82c-2.82-.85-6.95-1.5-9.65-2.74q-4.06-1.87-5.8-3.13c2.72.24,5.26.65,8.31,1.48,3.37.91,6.74,1.86,10.09,2.71,3.39.86,6.76,1.3,10.17,2.32,3.23.97,6.58,1.39,9.81,2.38,2.16.66,4.39,1.64,6.32,3.1-2.46.25-5.88-.43-8.67-1.01-3.27-.68-6.46-1.13-9.84-1.98-3.57-.9-7.17-2.05-10.74-3.12ZM419.52,215.49c-2.57,2.14-4.91,4.35-7.68,6.46-2.93,2.23-6.07,4.33-9.14,6.46-2.42,1.68-5.51,4.5-8.16,5.84q-3.99,2.01-6.06,2.58c1.88-1.98,3.79-3.71,6.34-5.58,2.81-2.07,5.65-4.11,8.4-6.2,2.78-2.12,5.23-4.48,8.15-6.51,2.77-1.92,5.19-4.28,7.97-6.19,1.86-1.28,4.02-2.42,6.36-3.01-1.33,2.08-4,4.33-6.19,6.15ZM430.64,195.03c1.39-3.04,2.54-6.05,4.12-9.15,1.68-3.28,3.59-6.53,5.43-9.78,1.45-2.56,3.01-6.44,4.82-8.8q2.73-3.55,4.34-4.96c-.84,2.6-1.8,4.98-3.29,7.78-1.64,3.08-3.31,6.15-4.88,9.23-1.59,3.12-2.77,6.3-4.53,9.4-1.67,2.93-2.82,6.11-4.5,9.03-1.12,1.96-2.57,3.92-4.43,5.47.3-2.45,1.73-5.63,2.91-8.22ZM429.8,228.33c-.07,3.68-.37,7.45-.61,11.17-.19,2.94.11,7.11-.49,10.02q-.9,4.38-1.74,6.36c-.38-2.71-.56-5.27-.44-8.43.12-3.49.29-6.98.35-10.44.07-3.5-.27-6.88-.04-10.43.22-3.37-.13-6.73.1-10.09.16-2.25.6-4.65,1.59-6.85.8,2.34.91,5.82.98,8.67.08,3.34.36,6.55.3,10.03ZM454.24,225.82c2.16,2,5.59,4.4,7.47,6.7q2.83,3.46,3.84,5.36c-2.34-1.41-4.44-2.89-6.82-4.97-2.63-2.3-5.24-4.63-7.88-6.86-2.67-2.26-5.51-4.13-8.12-6.55-2.48-2.29-5.3-4.14-7.77-6.44-1.65-1.54-3.23-3.4-4.31-5.56,2.32.85,5.09,2.97,7.34,4.71,2.64,2.04,5.31,3.85,7.97,6.1,2.81,2.38,5.54,4.99,8.28,7.52ZM475.04,196.18c-.37.12-.75.21-1.13.3-2.02.71-4.08,1.29-6.55,1.77-3.42.67-6.86,1.31-10.25,2.03-3.42.73-6.64,1.83-10.15,2.41-3.33.56-6.52,1.66-9.85,2.2-2.23.36-4.66.48-7.04,0,.4-.25.84-.48,1.31-.7.03-.03.06-.06.09-.09.04,0,.08,0,.13-.01,2-.89,4.53-1.57,6.69-2.12,3.23-.84,6.29-1.84,9.7-2.57,3.6-.77,7.34-1.33,11.02-1.95,2.9-.49,6.9-1.73,9.87-1.81q4.47-.12,6.59.25c-.21.08-.42.16-.62.24.07.01.13.02.2.04Z"/>
      <path class="cls-3" d="M318.11,296.99c-6.1-.75-13.45-1.35-20.34-.81-.8.63-2.04.87-2.87,1.54-.53.43-1.08.9-1.59,1.4-.01.02-.02.04-.03.05,0,0,0-.02,0-.02-.49.47-.97.97-1.39,1.47.23-1.46.86-2.73,1.69-3.94-2.45.39-4.79.97-6.94,1.79-.43.17-.86.34-1.28.52,5.01-5.42,9.45-11.37,11.46-18.32.85-2.95,1.52-6.15,1.98-9.43-1.63.54-3.85,1.06-5.25.44.68-.95,2.87-1.35,3.93-1.92.5-.26,1.07-.57,1.61-.92.58-5.41.56-10.93-.2-15.88-4.52,3.72-9.05,7.47-13.29,11.63-4.65,4.57-10.06,10.32-14,16.44-.03.78-.18,1.61-.03,2.35.26,1.33.64,2.76,1.15,4.02-1.2-.9-2.02-2.06-2.71-3.38-.03-.06-.06-.13-.09-.19-1.15,2.08-2.11,4.18-2.78,6.28-.14.44-.27.89-.39,1.33-1.12-7.3-2.99-14.48-7.18-20.38-1.78-2.51-3.87-5.04-6.15-7.45-.44,1.68-1.26,3.99-2.61,4.84-.41-1.09.47-3.13.59-4.33.07-.73.16-1.61.13-2.44-3.81-3.73-8.06-7.08-12.32-9.53.09,5.85.2,11.74.81,17.64.69,6.73,1.88,14.89,4.39,21.97.61.33,1.22.72,1.86.88,1.32.33,2.78.58,4.13.65-1.32.71-2.72.97-4.2,1.04-.28.01-.56,0-.82-.04.88,2.11,1.9,4.09,3.08,5.85.26.39.52.76.79,1.14-6.4-3.67-13.19-6.69-20.41-7.09-2.78-.16-5.72-.12-8.7.09.01.05.03.1.04.15.51,1.66,1.18,4.45.37,6.03-.91-.73-1.19-2.94-1.7-4.03-.07-.16-.15-.32-.23-.49-.32-.49-.65-.97-1.02-1.43-5.67.61-11.36,1.88-16.25,3.82,4.63,3.58,9.3,7.16,14.29,10.37,5.54,3.55,12.44,7.59,19.35,10.07.7-.16,1.45-.27,2.07-.58,1.21-.62,2.47-1.39,3.54-2.23-.53,1.4-1.41,2.52-2.48,3.55-.08.07-.15.14-.23.21,2.29.66,4.55,1.13,6.75,1.31.46.04.93.07,1.39.09-6.86,2.71-13.45,6.14-18.27,11.54-2.09,2.34-4.13,4.99-6,7.82,0,0,0,0,0,0,1.73.16,4.56.61,5.71,1.97-1.02.56-3.17-.03-4.37.02-.85.03-1.89.07-2.8.29-2.75,4.5-5.03,9.32-6.45,13.96,5.68-1.39,11.4-2.8,17.02-4.71,6.12-2.08,13.41-4.89,19.58-8.64.3-.81.82-1.62.97-2.47.23-1.34.37-2.81.34-4.17.8,1.26,1.17,2.64,1.35,4.11.03.27.04.53.02.78,2.03-1.41,3.88-2.95,5.45-4.61.32-.34.63-.68.93-1.03-2.16,7.06-3.58,14.34-2.37,21.48.49,2.91,1.24,5.96,2.19,8.99,1.09-1.37,2.86-3.28,4.51-3.5-.06.94-1.14,2.1-1.87,3.06.09-.03.18-.05.26-.07-.22.21-.44.42-.66.64-.02.03-.03.05-.05.08-.43.74-.96,1.66-1.26,2.56,1.82,5.08,4.22,10.02,7.03,14.12,2.46-5.31,4.92-10.66,6.93-16.24,2.17-6.03,4.5-13.41,5.43-20.52-.44-.81-.63-1.87-1.18-2.63-.79-1.1-1.73-2.24-2.72-3.18,1.46.32,2.7,1.03,3.87,1.94.13.1.26.21.37.32.14-2.4.09-4.73-.22-6.94-.07-.46-.14-.92-.22-1.37,4.17,6.09,8.98,11.74,15.31,15.25,2.83,1.57,5.97,3,9.24,4.22-.18-1.74-.24-4.31.78-5.62.76.88.63,3.1.93,4.27.17.67.37,1.46.66,2.19,4.97,1.66,10.14,2.8,14.95,3.15-2.62-5.23-5.27-10.49-8.38-15.54-3.36-5.46-7.69-11.9-12.68-17.07-.93-.2-1.89-.8-2.85-.9-.47-.05-.95-.09-1.43-.12-.07.01-.15.02-.22.03.02-.01.03-.03.05-.04-.87-.04-1.75-.04-2.58.03,1.21-.88,2.56-1.32,4.02-1.59.1-.02.19-.03.28-.04-1.73-1.54-3.52-2.89-5.37-3.99-.4-.24-.8-.46-1.21-.68,7.36.53,14.78.3,21.47-2.47,2.81-1.16,5.7-2.62,8.53-4.28,0,0-.01,0-.02-.01-1.52-.84-3.93-2.39-4.44-4.1,1.16-.1,2.89,1.3,4.01,1.74.84.33,1.89.74,2.86.89,4.49-2.88,8.69-6.27,12.02-9.88-5.72-1.22-11.49-2.42-17.38-3.14ZM248.55,276.05q-1.06-4.35-1.15-6.49c1.51,2.28,2.76,4.52,4.01,7.43,1.38,3.2,2.73,6.43,4.16,9.58,1.44,3.19,3.19,6.1,4.51,9.41,1.25,3.13,3,6.02,4.23,9.16.82,2.1,1.45,4.46,1.5,6.88-.24-.25-.48-.52-.72-.82-.04-.03-.08-.06-.13-.09-.01-.04-.03-.09-.04-.13-1.38-1.8-2.65-4.28-3.71-6.38-1.5-2.98-3.13-5.76-4.57-8.94-1.37-3.05-2.6-6.23-3.85-9.39-.38-.86-.74-1.73-1.09-2.6-1.11-2.45-2.58-5.29-3.15-7.63ZM235.54,308.81c-2.82-.85-6.95-1.5-9.65-2.74q-4.06-1.87-5.8-3.13c2.72.24,5.26.65,8.31,1.48,3.37.91,6.74,1.86,10.09,2.71,3.39.86,6.76,1.3,10.17,2.32,3.23.97,6.58,1.39,9.81,2.38,2.16.66,4.39,1.64,6.32,3.1-2.46.25-5.88-.43-8.67-1.01-3.27-.68-6.46-1.13-9.84-1.98-3.57-.9-7.17-2.05-10.74-3.12ZM260.3,323.48c-2.57,2.14-4.91,4.35-7.68,6.46-2.93,2.23-6.07,4.33-9.14,6.46-2.42,1.68-5.51,4.5-8.16,5.84q-3.99,2.01-6.06,2.58c1.88-1.98,3.79-3.71,6.34-5.58,2.81-2.07,5.65-4.11,8.4-6.2,2.78-2.12,5.23-4.48,8.15-6.51,2.77-1.92,5.19-4.28,7.97-6.19,1.86-1.28,4.02-2.42,6.36-3.01-1.33,2.08-4,4.33-6.19,6.15ZM271.42,303.03c1.39-3.04,2.54-6.05,4.12-9.15,1.68-3.28,3.59-6.53,5.43-9.78,1.45-2.56,3.01-6.44,4.82-8.8q2.73-3.55,4.34-4.96c-.84,2.6-1.8,4.98-3.29,7.78-1.64,3.08-3.31,6.15-4.88,9.23-1.59,3.12-2.77,6.3-4.53,9.4-1.67,2.93-2.82,6.11-4.5,9.03-1.12,1.96-2.57,3.92-4.43,5.47.3-2.45,1.73-5.63,2.91-8.22ZM270.59,336.33c-.07,3.68-.37,7.45-.61,11.17-.19,2.94.11,7.11-.49,10.02q-.9,4.38-1.74,6.36c-.38-2.71-.56-5.27-.44-8.43.12-3.49.29-6.98.35-10.44.07-3.5-.27-6.88-.04-10.43.22-3.37-.13-6.73.1-10.09.16-2.25.6-4.65,1.59-6.85.8,2.34.91,5.82.98,8.67.08,3.34.36,6.55.3,10.03ZM295.02,333.81c2.16,2,5.59,4.4,7.47,6.7q2.83,3.46,3.84,5.36c-2.34-1.41-4.44-2.89-6.82-4.97-2.63-2.3-5.24-4.63-7.88-6.86-2.67-2.26-5.51-4.13-8.12-6.55-2.48-2.29-5.3-4.14-7.77-6.44-1.65-1.54-3.23-3.4-4.31-5.56,2.32.85,5.09,2.97,7.34,4.71,2.64,2.04,5.31,3.85,7.97,6.1,2.81,2.38,5.54,4.99,8.28,7.52ZM315.82,304.17c-.37.12-.75.21-1.13.3-2.02.71-4.08,1.29-6.55,1.77-3.42.67-6.86,1.31-10.25,2.03-3.42.73-6.64,1.83-10.15,2.41-3.33.56-6.52,1.66-9.85,2.2-2.23.36-4.66.48-7.04,0,.4-.25.84-.48,1.31-.7.03-.03.06-.06.09-.09.04,0,.08,0,.13-.01,2-.89,4.53-1.57,6.69-2.12,3.23-.84,6.29-1.84,9.7-2.57,3.6-.77,7.34-1.33,11.02-1.95,2.9-.49,6.9-1.73,9.87-1.81q4.47-.12,6.59.25c-.21.08-.42.16-.62.24.07.01.13.02.2.04Z"/>
      <path class="cls-3" d="M138.62,243.45c-6.1-.75-13.45-1.35-20.34-.81-.8.63-2.04.87-2.87,1.54-.53.43-1.08.9-1.59,1.4-.01.02-.02.04-.03.05,0,0,0-.02,0-.02-.49.47-.97.97-1.39,1.47.23-1.46.86-2.73,1.69-3.94-2.45.39-4.79.97-6.94,1.79-.43.17-.86.34-1.28.52,5.01-5.42,9.45-11.37,11.46-18.32.85-2.95,1.52-6.15,1.98-9.43-1.63.54-3.85,1.06-5.25.44.68-.95,2.87-1.35,3.93-1.92.5-.26,1.07-.57,1.61-.92.58-5.41.56-10.93-.2-15.88-4.52,3.72-9.05,7.47-13.29,11.63-4.65,4.57-10.06,10.32-14,16.44-.03.78-.18,1.61-.03,2.35.26,1.33.64,2.76,1.15,4.02-1.2-.9-2.02-2.06-2.71-3.38-.03-.06-.06-.13-.09-.19-1.15,2.08-2.11,4.18-2.78,6.28-.14.44-.27.89-.39,1.33-1.12-7.3-2.99-14.48-7.18-20.38-1.78-2.51-3.87-5.04-6.15-7.45-.44,1.68-1.26,3.99-2.61,4.84-.41-1.09.47-3.13.59-4.33.07-.73.16-1.61.13-2.44-3.81-3.73-8.06-7.08-12.32-9.53.09,5.85.2,11.74.81,17.64.69,6.73,1.88,14.89,4.39,21.97.61.33,1.22.72,1.86.88,1.32.33,2.78.58,4.13.65-1.32.71-2.72.97-4.2,1.04-.28.01-.56,0-.82-.04.88,2.11,1.9,4.09,3.08,5.85.26.39.52.76.79,1.14-6.4-3.67-13.19-6.69-20.41-7.09-2.78-.16-5.72-.12-8.7.09.01.05.03.1.04.15.51,1.66,1.18,4.45.37,6.03-.91-.73-1.19-2.94-1.7-4.03-.07-.16-.15-.32-.23-.49-.32-.49-.65-.97-1.02-1.43-5.67.61-11.36,1.88-16.25,3.82,4.63,3.58,9.3,7.16,14.29,10.37,5.54,3.55,12.44,7.59,19.35,10.07.7-.16,1.45-.27,2.07-.58,1.21-.62,2.47-1.39,3.54-2.23-.53,1.4-1.41,2.52-2.48,3.55-.08.07-.15.14-.23.21,2.29.66,4.55,1.13,6.75,1.31.46.04.93.07,1.39.09-6.86,2.71-13.45,6.14-18.27,11.54-2.09,2.34-4.13,4.99-6,7.82,0,0,0,0,0,0,1.73.16,4.56.61,5.71,1.97-1.02.56-3.17-.03-4.37.02-.85.03-1.89.07-2.8.29-2.75,4.5-5.03,9.32-6.45,13.96,5.68-1.39,11.4-2.8,17.02-4.71,6.12-2.08,13.41-4.89,19.58-8.64.3-.81.82-1.62.97-2.47.23-1.34.37-2.81.34-4.17.8,1.26,1.17,2.64,1.35,4.11.03.27.04.53.02.78,2.03-1.41,3.88-2.95,5.45-4.61.32-.34.63-.68.93-1.03-2.16,7.06-3.58,14.34-2.37,21.48.49,2.91,1.24,5.96,2.19,8.99,1.09-1.37,2.86-3.28,4.51-3.5-.06.94-1.14,2.1-1.87,3.06.09-.03.18-.05.26-.07-.22.21-.44.42-.66.64-.02.03-.03.05-.05.08-.43.74-.96,1.66-1.26,2.56,1.82,5.08,4.22,10.02,7.03,14.12,2.46-5.31,4.92-10.66,6.93-16.24,2.17-6.03,4.5-13.41,5.43-20.52-.44-.81-.63-1.87-1.18-2.63-.79-1.1-1.73-2.24-2.72-3.18,1.46.32,2.7,1.03,3.87,1.94.13.1.26.21.37.32.14-2.4.09-4.73-.22-6.94-.07-.46-.14-.92-.22-1.37,4.17,6.09,8.98,11.74,15.31,15.25,2.83,1.57,5.97,3,9.24,4.22-.18-1.74-.24-4.31.78-5.62.76.88.63,3.1.93,4.27.17.67.37,1.46.66,2.19,4.97,1.66,10.14,2.8,14.95,3.15-2.62-5.23-5.27-10.49-8.38-15.54-3.36-5.46-7.69-11.9-12.68-17.07-.93-.2-1.89-.8-2.85-.9-.47-.05-.95-.09-1.43-.12-.07.01-.15.02-.22.03.02-.01.03-.03.05-.04-.87-.04-1.75-.04-2.58.03,1.21-.88,2.56-1.32,4.02-1.59.1-.02.19-.03.28-.04-1.73-1.54-3.52-2.89-5.37-3.99-.4-.24-.8-.46-1.21-.68,7.36.53,14.78.3,21.47-2.47,2.81-1.16,5.7-2.62,8.53-4.28,0,0-.01,0-.02-.01-1.52-.84-3.93-2.39-4.44-4.1,1.16-.1,2.89,1.3,4.01,1.74.84.33,1.89.74,2.86.89,4.49-2.88,8.69-6.27,12.02-9.88-5.72-1.22-11.49-2.42-17.38-3.14ZM69.06,222.52q-1.06-4.35-1.15-6.49c1.51,2.28,2.76,4.52,4.01,7.43,1.38,3.2,2.73,6.43,4.16,9.58,1.44,3.19,3.19,6.1,4.51,9.41,1.25,3.13,3,6.02,4.23,9.16.82,2.1,1.45,4.46,1.5,6.88-.24-.25-.48-.52-.72-.82-.04-.03-.08-.06-.13-.09-.01-.04-.03-.09-.04-.13-1.38-1.8-2.65-4.28-3.71-6.38-1.5-2.98-3.13-5.76-4.57-8.94-1.37-3.05-2.6-6.23-3.85-9.39-.38-.86-.74-1.73-1.09-2.6-1.11-2.45-2.58-5.29-3.15-7.63ZM56.04,255.28c-2.82-.85-6.95-1.5-9.65-2.74q-4.06-1.87-5.8-3.13c2.72.24,5.26.65,8.31,1.48,3.37.91,6.74,1.86,10.09,2.71,3.39.86,6.76,1.3,10.17,2.32,3.23.97,6.58,1.39,9.81,2.38,2.16.66,4.39,1.64,6.32,3.1-2.46.25-5.88-.43-8.67-1.01-3.27-.68-6.46-1.13-9.84-1.98-3.57-.9-7.17-2.05-10.74-3.12ZM80.81,269.95c-2.57,2.14-4.91,4.35-7.68,6.46-2.93,2.23-6.07,4.33-9.14,6.46-2.42,1.68-5.51,4.5-8.16,5.84q-3.99,2.01-6.06,2.58c1.88-1.98,3.79-3.71,6.34-5.58,2.81-2.07,5.65-4.11,8.4-6.2,2.78-2.12,5.23-4.48,8.15-6.51,2.77-1.92,5.19-4.28,7.97-6.19,1.86-1.28,4.02-2.42,6.36-3.01-1.33,2.08-4,4.33-6.19,6.15ZM91.93,249.49c1.39-3.04,2.54-6.05,4.12-9.15,1.68-3.28,3.59-6.53,5.43-9.78,1.45-2.56,3.01-6.44,4.82-8.8q2.73-3.55,4.34-4.96c-.84,2.6-1.8,4.98-3.29,7.78-1.64,3.08-3.31,6.15-4.88,9.23-1.59,3.12-2.77,6.3-4.53,9.4-1.67,2.93-2.82,6.11-4.5,9.03-1.12,1.96-2.57,3.92-4.43,5.47.3-2.45,1.73-5.63,2.91-8.22ZM91.09,282.79c-.07,3.68-.37,7.45-.61,11.17-.19,2.94.11,7.11-.49,10.02q-.9,4.38-1.74,6.36c-.38-2.71-.56-5.27-.44-8.43.12-3.49.29-6.98.35-10.44.07-3.5-.27-6.88-.04-10.43.22-3.37-.13-6.73.1-10.09.16-2.25.6-4.65,1.59-6.85.8,2.34.91,5.82.98,8.67.08,3.34.36,6.55.3,10.03ZM115.53,280.28c2.16,2,5.59,4.4,7.47,6.7q2.83,3.46,3.84,5.36c-2.34-1.41-4.44-2.89-6.82-4.97-2.63-2.3-5.24-4.63-7.88-6.86-2.67-2.26-5.51-4.13-8.12-6.55-2.48-2.29-5.3-4.14-7.77-6.44-1.65-1.54-3.23-3.4-4.31-5.56,2.32.85,5.09,2.97,7.34,4.71,2.64,2.04,5.31,3.85,7.97,6.1,2.81,2.38,5.54,4.99,8.28,7.52ZM136.33,250.64c-.37.12-.75.21-1.13.3-2.02.71-4.08,1.29-6.55,1.77-3.42.67-6.86,1.31-10.25,2.03-3.42.73-6.64,1.83-10.15,2.41-3.33.56-6.52,1.66-9.85,2.2-2.23.36-4.66.48-7.04,0,.4-.25.84-.48,1.31-.7.03-.03.06-.06.09-.09.04,0,.08,0,.13-.01,2-.89,4.53-1.57,6.69-2.12,3.23-.84,6.29-1.84,9.7-2.57,3.6-.77,7.34-1.33,11.02-1.95,2.9-.49,6.9-1.73,9.87-1.81q4.47-.12,6.59.25c-.21.08-.42.16-.62.24.07.01.13.02.2.04Z"/>
      <path class="cls-3" d="M242.07,45.54c-6.1-.75-13.45-1.35-20.34-.81-.8.63-2.04.87-2.87,1.54-.53.43-1.08.9-1.59,1.4-.01.02-.02.04-.03.05,0,0,0-.02,0-.02-.49.47-.97.97-1.39,1.47.23-1.46.86-2.73,1.69-3.94-2.45.39-4.79.97-6.94,1.79-.43.17-.86.34-1.28.52,5.01-5.42,9.45-11.37,11.46-18.32.85-2.95,1.52-6.15,1.98-9.43-1.63.54-3.85,1.06-5.25.44.68-.95,2.87-1.35,3.93-1.92.5-.26,1.07-.57,1.61-.92.58-5.41.56-10.93-.2-15.88-4.52,3.72-9.05,7.47-13.29,11.63-4.65,4.57-10.06,10.32-14,16.44-.03.78-.18,1.61-.03,2.35.26,1.33.64,2.76,1.15,4.02-1.2-.9-2.02-2.06-2.71-3.38-.03-.06-.06-.13-.09-.19-1.15,2.08-2.11,4.18-2.78,6.28-.14.44-.27.89-.39,1.33-1.12-7.3-2.99-14.48-7.18-20.38-1.78-2.51-3.87-5.04-6.15-7.45-.44,1.68-1.26,3.99-2.61,4.84-.41-1.09.47-3.13.59-4.33.07-.73.16-1.61.13-2.44-3.81-3.73-8.06-7.08-12.32-9.53.09,5.85.2,11.74.81,17.64.69,6.73,1.88,14.89,4.39,21.97.61.33,1.22.72,1.86.88,1.32.33,2.78.58,4.13.65-1.32.71-2.72.97-4.2,1.04-.28.01-.56,0-.82-.04.88,2.11,1.9,4.09,3.08,5.85.26.39.52.76.79,1.14-6.4-3.67-13.19-6.69-20.41-7.09-2.78-.16-5.72-.12-8.7.09.01.05.03.1.04.15.51,1.66,1.18,4.45.37,6.03-.91-.73-1.19-2.94-1.7-4.03-.07-.16-.15-.32-.23-.49-.32-.49-.65-.97-1.02-1.43-5.67.61-11.36,1.88-16.25,3.82,4.63,3.58,9.3,7.16,14.29,10.37,5.54,3.55,12.44,7.59,19.35,10.07.7-.16,1.45-.27,2.07-.58,1.21-.62,2.47-1.39,3.54-2.23-.53,1.4-1.41,2.52-2.48,3.55-.08.07-.15.14-.23.21,2.29.66,4.55,1.13,6.75,1.31.46.04.93.07,1.39.09-6.86,2.71-13.45,6.14-18.27,11.54-2.09,2.34-4.13,4.99-6,7.82,0,0,0,0,0,0,1.73.16,4.56.61,5.71,1.97-1.02.56-3.17-.03-4.37.02-.85.03-1.89.07-2.8.29-2.75,4.5-5.03,9.32-6.45,13.96,5.68-1.39,11.4-2.8,17.02-4.71,6.12-2.08,13.41-4.89,19.58-8.64.3-.81.82-1.62.97-2.47.23-1.34.37-2.81.34-4.17.8,1.26,1.17,2.64,1.35,4.11.03.27.04.53.02.78,2.03-1.41,3.88-2.95,5.45-4.61.32-.34.63-.68.93-1.03-2.16,7.06-3.58,14.34-2.37,21.48.49,2.91,1.24,5.96,2.19,8.99,1.09-1.37,2.86-3.28,4.51-3.5-.06.94-1.14,2.1-1.87,3.06.09-.03.18-.05.26-.07-.22.21-.44.42-.66.64-.02.03-.03.05-.05.08-.43.74-.96,1.66-1.26,2.56,1.82,5.08,4.22,10.02,7.03,14.12,2.46-5.31,4.92-10.66,6.93-16.24,2.17-6.03,4.5-13.41,5.43-20.52-.44-.81-.63-1.87-1.18-2.63-.79-1.1-1.73-2.24-2.72-3.18,1.46.32,2.7,1.03,3.87,1.94.13.1.26.21.37.32.14-2.4.09-4.73-.22-6.94-.07-.46-.14-.92-.22-1.37,4.17,6.09,8.98,11.74,15.31,15.25,2.83,1.57,5.97,3,9.24,4.22-.18-1.74-.24-4.31.78-5.62.76.88.63,3.1.93,4.27.17.67.37,1.46.66,2.19,4.97,1.66,10.14,2.8,14.95,3.15-2.62-5.23-5.27-10.49-8.38-15.54-3.36-5.46-7.69-11.9-12.68-17.07-.93-.2-1.89-.8-2.85-.9-.47-.05-.95-.09-1.43-.12-.07.01-.15.02-.22.03.02-.01.03-.03.05-.04-.87-.04-1.75-.04-2.58.03,1.21-.88,2.56-1.32,4.02-1.59.1-.02.19-.03.28-.04-1.73-1.54-3.52-2.89-5.37-3.99-.4-.24-.8-.46-1.21-.68,7.36.53,14.78.3,21.47-2.47,2.81-1.16,5.7-2.62,8.53-4.28,0,0-.01,0-.02-.01-1.52-.84-3.93-2.39-4.44-4.1,1.16-.1,2.89,1.3,4.01,1.74.84.33,1.89.74,2.86.89,4.49-2.88,8.69-6.27,12.02-9.88-5.72-1.22-11.49-2.42-17.38-3.14ZM172.51,24.61q-1.06-4.35-1.15-6.49c1.51,2.28,2.76,4.52,4.01,7.43,1.38,3.2,2.73,6.43,4.16,9.58,1.44,3.19,3.19,6.1,4.51,9.41,1.25,3.13,3,6.02,4.23,9.16.82,2.1,1.45,4.46,1.5,6.88-.24-.25-.48-.52-.72-.82-.04-.03-.08-.06-.13-.09-.01-.04-.03-.09-.04-.13-1.38-1.8-2.65-4.28-3.71-6.38-1.5-2.98-3.13-5.76-4.57-8.94-1.37-3.05-2.6-6.23-3.85-9.39-.38-.86-.74-1.73-1.09-2.6-1.11-2.45-2.58-5.29-3.15-7.63ZM159.5,57.37c-2.82-.85-6.95-1.5-9.65-2.74q-4.06-1.87-5.8-3.13c2.72.24,5.26.65,8.31,1.48,3.37.91,6.74,1.86,10.09,2.71,3.39.86,6.76,1.3,10.17,2.32,3.23.97,6.58,1.39,9.81,2.38,2.16.66,4.39,1.64,6.32,3.1-2.46.25-5.88-.43-8.67-1.01-3.27-.68-6.46-1.13-9.84-1.98-3.57-.9-7.17-2.05-10.74-3.12ZM184.26,72.04c-2.57,2.14-4.91,4.35-7.68,6.46-2.93,2.23-6.07,4.33-9.14,6.46-2.42,1.68-5.51,4.5-8.16,5.84q-3.99,2.01-6.06,2.58c1.88-1.98,3.79-3.71,6.34-5.58,2.81-2.07,5.65-4.11,8.4-6.2,2.78-2.12,5.23-4.48,8.15-6.51,2.77-1.92,5.19-4.28,7.97-6.19,1.86-1.28,4.02-2.42,6.36-3.01-1.33,2.08-4,4.33-6.19,6.15ZM195.39,51.58c1.39-3.04,2.54-6.05,4.12-9.15,1.68-3.28,3.59-6.53,5.43-9.78,1.45-2.56,3.01-6.44,4.82-8.8q2.73-3.55,4.34-4.96c-.84,2.6-1.8,4.98-3.29,7.78-1.64,3.08-3.31,6.15-4.88,9.23-1.59,3.12-2.77,6.3-4.53,9.4-1.67,2.93-2.82,6.11-4.5,9.03-1.12,1.96-2.57,3.92-4.43,5.47.3-2.45,1.73-5.63,2.91-8.22ZM194.55,84.88c-.07,3.68-.37,7.45-.61,11.17-.19,2.94.11,7.11-.49,10.02q-.9,4.38-1.74,6.36c-.38-2.71-.56-5.27-.44-8.43.12-3.49.29-6.98.35-10.44.07-3.5-.27-6.88-.04-10.43.22-3.37-.13-6.73.1-10.09.16-2.25.6-4.65,1.59-6.85.8,2.34.91,5.82.98,8.67.08,3.34.36,6.55.3,10.03ZM218.99,82.37c2.16,2,5.59,4.4,7.47,6.7q2.83,3.46,3.84,5.36c-2.34-1.41-4.44-2.89-6.82-4.97-2.63-2.3-5.24-4.63-7.88-6.86-2.67-2.26-5.51-4.13-8.12-6.55-2.48-2.29-5.3-4.14-7.77-6.44-1.65-1.54-3.23-3.4-4.31-5.56,2.32.85,5.09,2.97,7.34,4.71,2.64,2.04,5.31,3.85,7.97,6.1,2.81,2.38,5.54,4.99,8.28,7.52ZM239.78,52.73c-.37.12-.75.21-1.13.3-2.02.71-4.08,1.29-6.55,1.77-3.42.67-6.86,1.31-10.25,2.03-3.42.73-6.64,1.83-10.15,2.41-3.33.56-6.52,1.66-9.85,2.2-2.23.36-4.66.48-7.04,0,.4-.25.84-.48,1.31-.7.03-.03.06-.06.09-.09.04,0,.08,0,.13-.01,2-.89,4.53-1.57,6.69-2.12,3.23-.84,6.29-1.84,9.7-2.57,3.6-.77,7.34-1.33,11.02-1.95,2.9-.49,6.9-1.73,9.87-1.81q4.47-.12,6.59.25c-.21.08-.42.16-.62.24.07.01.13.02.2.04Z"/>
      <path class="cls-3" d="M142.21,137.9c-14.63-5.64-35.87,9.91-28.98,27.19,7.29,18.27,37.68,18.12,42.14-2.45,2.09-9.64-3.48-21.01-13.17-24.74ZM134.78,151.88c-3.06-1.51-2.01-5.55.66-5.5,5.3.1,3.16,7.37-.66,5.5ZM143.21,159.07c-3.11-1.72-.86-5.61,2.04-3.7,3.79,2.51,2.21,6.05-2.04,3.7ZM145.71,150.18c-2.44-.94-1.61-5.03.93-4.33,3.53.96,2.77,5.77-.93,4.33Z"/>
      <path class="cls-3" d="M146.96,323.75c-14.63-5.64-35.87,9.91-28.98,27.19,7.29,18.27,37.68,18.12,42.14-2.45,2.09-9.64-3.48-21.01-13.17-24.74ZM139.54,337.73c-3.06-1.51-2.01-5.55.66-5.5,5.3.1,3.16,7.37-.66,5.5ZM147.96,344.92c-3.11-1.72-.86-5.61,2.04-3.7,3.79,2.51,2.21,6.05-2.04,3.7ZM150.47,336.03c-2.44-.94-1.61-5.03.93-4.33,3.53.96,2.77,5.77-.93,4.33Z"/>
      <path class="cls-3" d="M208.79,186.18c-14.77,5.27-20.72,30.91-4.23,39.51,17.44,9.09,40.38-10.84,30.35-29.35-4.7-8.67-16.34-13.65-26.12-10.16ZM212.28,201.62c-3.3.86-5.14-2.89-3.09-4.6,4.08-3.38,7.21,3.52,3.09,4.6ZM223.36,201.57c-3.48.72-4.31-3.7-.86-4.13,4.51-.57,5.62,3.14.86,4.13ZM219.46,193.2c-2.46.87-4.5-2.76-2.12-3.89,3.31-1.57,5.87,2.56,2.12,3.89Z"/>
      <path class="cls-3" d="M379.61,324.14c15.68.47,30.56-21.23,18.33-35.25-12.93-14.83-41.55-4.61-38.95,16.27,1.22,9.79,10.24,18.67,20.62,18.98ZM381.99,308.49c3.39.4,3.73,4.57,1.2,5.4-5.03,1.66-5.43-5.91-1.2-5.4ZM371.66,304.5c3.51.59,2.67,5.01-.7,4.16-4.4-1.11-4.09-4.97.7-4.16ZM372.23,313.72c2.61.08,3.19,4.21.56,4.4-3.65.26-4.53-4.52-.56-4.4Z"/>
      <path class="cls-3" d="M338.74,102.13c15.68.47,30.56-21.23,18.33-35.25-12.93-14.83-41.55-4.61-38.95,16.27,1.22,9.79,10.24,18.67,20.62,18.98ZM341.12,86.48c3.39.4,3.73,4.57,1.2,5.4-5.03,1.66-5.43-5.91-1.2-5.4ZM330.78,82.49c3.51.59,2.67,5.01-.7,4.16-4.4-1.11-4.09-4.97.7-4.16ZM331.36,91.7c2.61.08,3.19,4.21.56,4.4-3.65.26-4.53-4.52-.56-4.4Z"/>
      <path class="cls-3" d="M293.57,158.46c-5.45,14.71,10.38,35.74,27.56,28.62,18.18-7.53,17.63-37.91-3-42.11-9.67-1.97-20.96,3.75-24.57,13.49ZM307.64,165.7c-1.47,3.08-5.52,2.08-5.5-.59.03-5.3,7.33-3.26,5.5.59ZM314.72,157.18c-1.68,3.13-5.6.93-3.72-1.99,2.46-3.82,6.02-2.29,3.72,1.99ZM305.8,154.79c-.91,2.45-5.01,1.68-4.35-.87.92-3.55,5.73-2.85,4.35.87Z"/>
    </g>
    <path class="cls-5" d="M97.92,384.35c-14.17,0-24.85-9.53-29.22-15.73-.7-1-1.22-2.11-1.52-3.29-.55-.92-2.9-4.25-11.6-12.18-19.05-17.36-51.16-40.9-51.48-41.13-2.43-1.78-3.93-4.57-4.08-7.58-.15-3.01,1.08-5.93,3.33-7.94l26.92-24.06c.14-.12.28-.25.43-.36,9.05-7.24,33.48-30.45,37.73-50.61,6.8-32.29,12.45-69.09,17.3-112.52,5.82-52.17,16.46-87.59,51.51-102.98,27.53-12.08,58.74-3.24,83.82,3.87,5.96,1.69,11.59,3.29,16.61,4.43,17.05,3.9,38.33,13.85,57.11,22.64,10.6,4.96,20.62,9.65,26.89,11.74,12.95,4.32,74.64,32.66,131.44,58.88,12.74,5.88,22.8,10.52,25.95,11.92,8.16,3.63,21.51,11.97,31.11,18.63,22.02,15.26,23.77,20.33,23.77,25.37,0,2.13-.68,4.2-1.94,5.92-.02.02-5.37,7.61-10.06,22.57-.1.32-.21.63-.34.93-1.39,3.24-1.76,4.82-1.86,5.48-.17,1.08-.38,2.4-.63,3.9-.03.21-.08.42-.12.63-1.24,5.42-2.6,10.83-4.07,16.08-3.95,14.19-7.38,22.84-8.1,24.61-.28.74-.65,1.44-1.1,2.11-1.37,1.99-2.79,3.58-4.36,4.87-2.74,2.24-7.65,5.56-13.86,9.76-12.51,8.46-33.46,22.61-39.24,30.63-1.86,2.57-4.38,7.33-7.05,12.37-10.38,19.58-26.07,49.17-54.02,54.62-31.01,6.05-55.19,1.97-65.52.23l-1.08-.18c-11.16-1.86-89.01-34.19-92.16-35.58-13.81-6.14-31.25-10.79-36.54-9.84-1.3,2.05-3.18,6.67-4.61,10.17-5.44,13.34-12.88,31.62-30.28,34.52-8.75,1.46-15.89.81-21.63.28-2.85-.26-6.74-.62-7.78-.18,0,0-.04.05-.11.12-1.16,1.42-1.96,3.69-2.88,6.31-2.34,6.69-6.25,17.88-21.95,20.21-1.61.24-3.18.35-4.71.35ZM85.87,358.08c1.97,2.18,7.23,7.11,13.82,6.14,3.5-.52,3.89-.98,6.01-7.03,1.28-3.68,2.88-8.25,6.3-12.42,7.23-8.8,17.17-7.89,25.17-7.16,5.07.46,10.31.94,16.52-.09,6.38-1.06,11.39-13.36,15.05-22.34,2.79-6.86,5.21-12.78,8.86-16.8,7.92-8.71,23.19-5.9,33.98-3.03,12.8,3.41,24.46,8.56,24.94,8.78,10.3,4.58,79.44,32.58,87.37,34.14l1.07.18c9.25,1.56,30.92,5.22,58.36-.14,18.58-3.63,31.58-28.14,40.18-44.36,3.14-5.91,5.84-11.02,8.51-14.72,7.27-10.07,24.35-22.03,44.26-35.49,5.32-3.59,10.34-6.99,12.38-8.65,1.03-2.64,3.82-10.13,6.98-21.49,1.35-4.86,2.62-9.87,3.77-14.88.22-1.31.41-2.46.55-3.41.43-2.78,1.4-5.92,3.04-9.83,3.02-9.51,6.28-16.54,8.77-21.19-8.55-7.32-30.1-21.78-40.84-26.55-3.28-1.46-12.9-5.9-26.21-12.04-37.78-17.44-116.39-53.74-129.38-58.06-7.37-2.46-17.41-7.16-29.04-12.6-16.98-7.95-38.12-17.83-53.09-21.26-5.52-1.26-11.39-2.93-17.61-4.69-23.15-6.56-49.38-14-70.33-4.8-26.37,11.58-34.51,40.62-39.67,86.88-4.92,44.07-10.67,81.5-17.6,114.42-6.4,30.39-41.08,59.09-44.59,61.93l-17.6,15.73c11.33,8.56,29.99,23.03,43.26,35.12,10.81,9.85,15.12,15.4,16.83,19.71ZM66.97,364.26s0,0,0,.01c0,0,0,0,0-.01ZM514.98,167.48h0,0Z"/>
  </g>
</svg>