<?xml version="1.0" encoding="UTF-8"?>
<svg id="Calque_2" data-name="Calque 2" xmlns="http://www.w3.org/2000/svg" xmlns:xlink="http://www.w3.org/1999/xlink" viewBox="0 0 505.3 513.53">
  <defs>
    <style>
      .cls-1 {
        fill: none;
        stroke: #fff;
        stroke-miterlimit: 10;
        stroke-width: 20px;
      }

      .cls-2 {
        fill: #567d55;
      }

      .cls-3 {
        fill: #a8be9b;
      }

      .cls-4 {
        clip-path: url(#clippath);
      }
    </style>
    <clipPath id="clippath">
      <path id="H-2" data-name="H" class="cls-1" d="M436.54,24.94c-8.84-5.23-13.46-12.65-13.46-12.65,0,0,0,0,0,0,0,0-10.01,3.89-16.23,9.06-6.21,5.18-10.35,17.6-23.82,27.5-13.46,9.9-23.82-2.65-43.49,0-19.67,2.65-35.21,17.02-47.63,36.7-12.43,19.67-38.31,28.99-38.31,28.99,0,0-30.03,17.6-45.56,25.89-15.53,8.28-40.38,10.35-60.06,9.32-19.67-1.04-30.03-11.39-43.49-15.53-13.46-4.14-51.77-9.32-65.23,2.07-13.46,11.39-38.31,21.74-25.89,54.67,12.43,32.93,46.6,44.73,77.66,60.26,31.06,15.53,27.96,5.18,44.52,34.17,16.57,28.99,28.99,36.24,56.95,36.24s27.96-13.46,43.49-23.82c15.53-10.35,18.64,21.74,41.42,32.1,22.78,10.35,40.38-30.03,52.81-20.71,26.68,20.01,7.25,31.06,13.46,59.02,6.21,27.96,36.24,22.78,52.81,17.42,16.57-5.36,26.92,11.57,40.38,5.36,13.46-6.21,4.14-19.67,8.28-30.03,4.14-10.35,15.53-9.32,27.96-24.85,12.43-15.53-5.18-31.06-5.18-42.69s11.39-39.11,22.78-71.57c11.39-32.46-18.64-49.34-24.48-59.7-5.85-10.35-9.68-16.57-2.44-21.74,7.25-5.18-3.11-24.85-12.33-33.13-9.22-8.28-38.41-14.5-48.76-17.6-10.35-3.11-10.35-15.53-4.14-26.28,6.21-10.74,46.82-33.24,46.82-33.24,0,0,0,0-.05-.03-3.04-1.55-5.99-3.28-8.79-5.2h0Z"/>
    </clipPath>
  </defs>
  <g id="Header">
    <g>
      <path id="H" class="cls-3" d="M436.54,24.94c-8.84-5.23-13.46-12.65-13.46-12.65,0,0,0,0,0,0,0,0-10.01,3.89-16.23,9.06-6.21,5.18-10.35,17.6-23.82,27.5-13.46,9.9-23.82-2.65-43.49,0-19.67,2.65-35.21,17.02-47.63,36.7-12.43,19.67-38.31,28.99-38.31,28.99,0,0-30.03,17.6-45.56,25.89-15.53,8.28-40.38,10.35-60.06,9.32-19.67-1.04-30.03-11.39-43.49-15.53-13.46-4.14-51.77-9.32-65.23,2.07-13.46,11.39-38.31,21.74-25.89,54.67,12.43,32.93,46.6,44.73,77.66,60.26,31.06,15.53,27.96,5.18,44.52,34.17,16.57,28.99,28.99,36.24,56.95,36.24s27.96-13.46,43.49-23.82c15.53-10.35,18.64,21.74,41.42,32.1,22.78,10.35,40.38-30.03,52.81-20.71,26.68,20.01,7.25,31.06,13.46,59.02,6.21,27.96,36.24,22.78,52.81,17.42,16.57-5.36,26.92,11.57,40.38,5.36,13.46-6.21,4.14-19.67,8.28-30.03,4.14-10.35,15.53-9.32,27.96-24.85,12.43-15.53-5.18-31.06-5.18-42.69s11.39-39.11,22.78-71.57c11.39-32.46-18.64-49.34-24.48-59.7-5.85-10.35-9.68-16.57-2.44-21.74,7.25-5.18-3.11-24.85-12.33-33.13-9.22-8.28-38.41-14.5-48.76-17.6-10.35-3.11-10.35-15.53-4.14-26.28,6.21-10.74,46.82-33.24,46.82-33.24,0,0,0,0-.05-.03-3.04-1.55-5.99-3.28-8.79-5.2h0Z"/>
      <g>
        <g class="cls-4">
          <path class="cls-2" d="M53.87,214.42c4.28-.85,8.61-1.12,12.95-1.24,4.34-.22,8.64.66,12.96.82,2.88.1,5.76-.06,8.64-.36,11.5-1.11,23.18-1.1,34.55,1.19,0,0-.01.31-.01.31-2.88.42-5.76.64-8.66.81-8.63.52-17.29.23-25.88-.63-2.87-.29-5.75-.45-8.64-.33-4.31.19-8.61,1.1-12.95.91-4.35-.09-8.65-.33-12.96-1.18v-.31h0Z"/>
          <path class="cls-2" d="M105.39,166.01c-.75-.75-.87-3.55-2.11-2.35-2.28,2.21-5.21,8.51-5.87,9.22,3.1-23.93,2.6-21.27,4.52-31.51,1.92-10.23,4.27-26.4,3.27-37.11-3.12-.94-3.45-.72-6.41-2.2-4,9.67-5.61,20.7-7.06,31.27-1.25,9.13-2.31,8.9-3.35,15.28.28-6.49-1.77-11.77-1.77-11.77,0,0-2.56-1.76-2.71-.29-.22,2.12,2.35,23.61,2.35,25.84-.04,17.43-3.75,38.96-6.93,52.09l9.68.51c1.59-10.95,18.35-48.02,16.38-48.99ZM88.7,184.03c.07,1.51-.11,2.97-.42,4.4-.38,1.76-.86,3.43-1.17,5.22-.37,2.14-.54,5.74-1.57,7.48.04-3.4.31-6.66.69-10.02.2-1.76.55-3.46.9-5.16.28-1.35.87-2.84.95-4.23l.62-1.82c.1-.03-.06,2.79,0,4.13ZM94.87,129.64c.28-2.81.77-5.51,1.26-8.23.39-2.15,1.22-4.53,1.33-6.75l.86-2.91c.14-.06-.08,4.44,0,6.59.09,2.41-.15,4.73-.59,7.02-.53,2.81-1.2,5.47-1.64,8.33-.52,3.41-.75,9.16-2.2,11.92.05-5.41.44-10.62.97-15.98ZM89.84,168.43c-.77-1.19-.32-3.81-.29-5.21.04-1.92.29-3.76.59-5.62.38-2.35.23-7.18,1.85-8.96l.16.05c-.54,2.06-.17,4.73-.37,6.89-.18,1.91-.34,3.84-.63,5.71-.36,2.33-1.12,4.88-1.3,7.14ZM96.1,158.86c.09,2.41-.15,4.73-.59,7.02-.53,2.81-1.2,5.47-1.64,8.33-.52,3.41-.75,9.16-2.2,11.92.05-5.41.44-10.62.97-15.98.28-2.81.77-5.51,1.26-8.23.39-2.15,1.22-4.53,1.33-6.75l.86-2.91c.14-.06-.08,4.44,0,6.59Z"/>
          <path class="cls-2" d="M182.54,245.66c4.28-.85,8.61-1.12,12.95-1.24,4.34-.22,8.64.66,12.96.82,2.88.1,5.76-.06,8.64-.36,11.5-1.11,23.18-1.1,34.55,1.19v.31c-2.89.42-5.77.64-8.67.81-8.63.52-17.29.23-25.88-.63-2.87-.29-5.75-.45-8.64-.33-4.31.19-8.61,1.1-12.95.91-4.35-.09-8.65-.33-12.96-1.18v-.31h0Z"/>
          <path class="cls-2" d="M234.06,197.25c-.75-.75-.87-3.55-2.11-2.35-2.28,2.21-5.21,8.51-5.87,9.22,3.1-23.93,2.6-21.27,4.52-31.51,1.92-10.23,4.27-26.4,3.27-37.11-3.12-.94-3.45-.72-6.41-2.2-4,9.67-5.61,20.7-7.06,31.27-1.25,9.13-2.31,8.9-3.35,15.28.28-6.49-1.77-11.77-1.77-11.77,0,0-2.56-1.76-2.71-.29-.22,2.12,2.35,23.61,2.35,25.84-.04,17.43-3.75,38.96-6.93,52.09l9.68.51c1.59-10.95,18.35-48.02,16.38-48.99ZM217.38,215.27c.07,1.51-.11,2.97-.42,4.4-.38,1.76-.86,3.43-1.17,5.22-.37,2.14-.54,5.74-1.57,7.48.04-3.4.31-6.66.69-10.02.2-1.76.55-3.46.9-5.16.28-1.35.87-2.84.95-4.23l.62-1.82c.1-.03-.06,2.79,0,4.13ZM223.55,160.89c.28-2.81.77-5.51,1.26-8.23.39-2.15,1.22-4.53,1.33-6.75l.86-2.91c.14-.06-.08,4.44,0,6.59.09,2.41-.15,4.73-.59,7.02-.53,2.81-1.2,5.47-1.64,8.33-.52,3.41-.75,9.16-2.2,11.92.05-5.41.44-10.62.97-15.98ZM218.51,199.67c-.77-1.19-.32-3.81-.29-5.21.04-1.92.29-3.76.59-5.62.38-2.35.23-7.18,1.85-8.96l.16.05c-.54,2.06-.17,4.73-.37,6.89-.18,1.91-.34,3.84-.63,5.71-.36,2.33-1.12,4.88-1.3,7.14ZM224.77,190.1c.09,2.41-.15,4.73-.59,7.02-.53,2.81-1.2,5.47-1.64,8.33-.52,3.41-.75,9.16-2.2,11.92.05-5.41.44-10.62.97-15.98.28-2.81.77-5.51,1.26-8.23.39-2.15,1.22-4.53,1.33-6.75l.86-2.91c.14-.06-.08,4.44,0,6.59Z"/>
          <path class="cls-2" d="M282.66,150.35c4.28-.85,8.61-1.12,12.95-1.24,4.34-.22,8.64.66,12.96.82,2.88.1,5.76-.06,8.64-.36,11.5-1.11,23.18-1.1,34.55,1.19v.31c-2.89.42-5.77.64-8.67.81-8.63.52-17.29.23-25.88-.63-2.87-.29-5.75-.45-8.64-.33-4.31.19-8.61,1.1-12.95.91-4.35-.09-8.65-.33-12.96-1.18v-.31h0Z"/>
          <path class="cls-2" d="M334.18,101.94c-.75-.75-.87-3.55-2.11-2.35-2.28,2.21-5.21,8.51-5.87,9.22,3.1-23.93,2.6-21.27,4.52-31.51,1.92-10.23,4.27-26.4,3.27-37.11-3.12-.94-3.45-.72-6.41-2.2-4,9.67-5.61,20.7-7.06,31.27-1.25,9.13-2.31,8.9-3.35,15.28.28-6.49-1.77-11.77-1.77-11.77,0,0-2.56-1.76-2.71-.29-.22,2.12,2.35,23.61,2.35,25.84-.04,17.43-3.75,38.96-6.93,52.09l9.68.51c1.59-10.95,18.35-48.02,16.38-48.99ZM317.5,119.95c.07,1.51-.11,2.97-.42,4.4-.38,1.76-.86,3.43-1.17,5.22-.37,2.14-.54,5.74-1.57,7.48.04-3.4.31-6.66.69-10.02.2-1.76.55-3.46.9-5.16.28-1.35.87-2.84.95-4.23l.62-1.82c.1-.03-.06,2.79,0,4.13ZM323.67,65.57c.28-2.81.77-5.51,1.26-8.23.39-2.15,1.22-4.53,1.33-6.75l.86-2.91c.14-.06-.08,4.44,0,6.59.09,2.41-.15,4.73-.59,7.02-.53,2.81-1.2,5.47-1.64,8.33-.52,3.41-.75,9.16-2.2,11.92.05-5.41.44-10.62.97-15.98ZM318.63,104.36c-.77-1.19-.32-3.81-.29-5.21.04-1.92.29-3.76.59-5.62.38-2.35.23-7.18,1.85-8.96l.16.05c-.54,2.06-.17,4.73-.37,6.89-.18,1.91-.34,3.84-.63,5.71-.36,2.33-1.12,4.88-1.3,7.14ZM324.89,94.79c.09,2.41-.15,4.73-.59,7.02-.53,2.81-1.2,5.47-1.64,8.33-.52,3.41-.75,9.16-2.2,11.92.05-5.41.44-10.62.97-15.98.28-2.81.77-5.51,1.26-8.23.39-2.15,1.22-4.53,1.33-6.75l.86-2.91c.14-.06-.08,4.44,0,6.59Z"/>
          <path class="cls-2" d="M361.44,350.47c4.28-.85,8.61-1.12,12.95-1.24,4.34-.22,8.64.66,12.96.82,2.88.1,5.76-.06,8.64-.36,11.5-1.11,23.18-1.1,34.55,1.19,0,0-.01.31-.01.31-2.88.42-5.76.64-8.66.81-8.63.52-17.29.23-25.88-.63-2.87-.29-5.75-.45-8.64-.33-4.31.19-8.61,1.1-12.95.91-4.35-.09-8.65-.33-12.96-1.18v-.31h0Z"/>
          <path class="cls-2" d="M412.96,302.06c-.75-.75-.87-3.55-2.11-2.35-2.28,2.21-5.21,8.51-5.87,9.22,3.1-23.93,2.6-21.27,4.52-31.51,1.92-10.23,4.27-26.4,3.27-37.11-3.12-.94-3.45-.72-6.41-2.2-4,9.67-5.61,20.7-7.06,31.27-1.25,9.13-2.31,8.9-3.35,15.28.28-6.49-1.77-11.77-1.77-11.77,0,0-2.56-1.76-2.71-.29-.22,2.12,2.35,23.61,2.35,25.84-.04,17.43-3.75,38.96-6.93,52.09l9.68.51c1.59-10.95,18.35-48.02,16.38-48.99ZM396.28,320.08c.07,1.51-.11,2.97-.42,4.4-.38,1.76-.86,3.43-1.17,5.22-.37,2.14-.54,5.74-1.57,7.48.04-3.4.31-6.66.69-10.02.2-1.76.55-3.46.9-5.16.28-1.35.87-2.84.95-4.23l.62-1.82c.1-.03-.06,2.79,0,4.13ZM402.45,265.7c.28-2.81.77-5.51,1.26-8.23.39-2.15,1.22-4.53,1.33-6.75l.86-2.91c.14-.06-.08,4.44,0,6.59.09,2.41-.15,4.73-.59,7.02-.53,2.81-1.2,5.47-1.64,8.33-.52,3.41-.75,9.16-2.2,11.92.05-5.41.44-10.62.97-15.98ZM397.41,304.48c-.77-1.19-.32-3.81-.29-5.21.04-1.92.29-3.76.59-5.62.38-2.35.23-7.18,1.85-8.96l.16.05c-.54,2.06-.17,4.73-.37,6.89-.18,1.91-.34,3.84-.63,5.71-.36,2.33-1.12,4.88-1.3,7.14ZM403.68,294.92c.09,2.41-.15,4.73-.59,7.02-.53,2.81-1.2,5.47-1.64,8.33-.52,3.41-.75,9.16-2.2,11.92.05-5.41.44-10.62.97-15.98.28-2.81.77-5.51,1.26-8.23.39-2.15,1.22-4.53,1.33-6.75l.86-2.91c.14-.06-.08,4.44,0,6.59Z"/>
          <path class="cls-2" d="M282.66,294.86c4.28-.85,8.61-1.12,12.95-1.24,4.34-.22,8.64.66,12.96.82,2.88.1,5.76-.06,8.64-.36,11.5-1.11,23.18-1.1,34.55,1.19,0,0-.01.31-.01.31-2.88.42-5.76.64-8.66.81-8.63.52-17.29.23-25.88-.63-2.87-.29-5.75-.45-8.64-.33-4.31.19-8.61,1.1-12.95.91-4.35-.09-8.65-.33-12.96-1.18v-.31h0Z"/>
          <path class="cls-2" d="M334.18,246.45c-.75-.75-.87-3.55-2.11-2.35-2.28,2.21-5.21,8.51-5.87,9.22,3.1-23.93,2.6-21.27,4.52-31.51,1.92-10.23,4.27-26.4,3.27-37.11-3.12-.94-3.45-.72-6.41-2.2-4,9.67-5.61,20.7-7.06,31.27-1.25,9.13-2.31,8.9-3.35,15.28.28-6.49-1.77-11.77-1.77-11.77,0,0-2.56-1.76-2.71-.29-.22,2.12,2.35,23.61,2.35,25.84-.04,17.43-3.75,38.96-6.93,52.09l9.68.51c1.59-10.95,18.35-48.02,16.38-48.99ZM317.5,264.46c.07,1.51-.11,2.97-.42,4.4-.38,1.76-.86,3.43-1.17,5.22-.37,2.14-.54,5.74-1.57,7.48.04-3.4.31-6.66.69-10.02.2-1.76.55-3.46.9-5.16.28-1.35.87-2.84.95-4.23l.62-1.82c.1-.03-.06,2.79,0,4.13ZM323.67,210.08c.28-2.81.77-5.51,1.26-8.23.39-2.15,1.22-4.53,1.33-6.75l.86-2.91c.14-.06-.08,4.44,0,6.59.09,2.41-.15,4.73-.59,7.02-.53,2.81-1.2,5.47-1.64,8.33-.52,3.41-.75,9.16-2.2,11.92.05-5.41.44-10.62.97-15.98ZM318.63,248.87c-.77-1.19-.32-3.81-.29-5.21.04-1.92.29-3.76.59-5.62.38-2.35.23-7.18,1.85-8.96l.16.05c-.54,2.06-.17,4.73-.37,6.89-.18,1.91-.34,3.84-.63,5.71-.36,2.33-1.12,4.88-1.3,7.14ZM324.89,239.3c.09,2.41-.15,4.73-.59,7.02-.53,2.81-1.2,5.47-1.64,8.33-.52,3.41-.75,9.16-2.2,11.92.05-5.41.44-10.62.97-15.98.28-2.81.77-5.51,1.26-8.23.39-2.15,1.22-4.53,1.33-6.75l.86-2.91c.14-.06-.08,4.44,0,6.59Z"/>
          <path class="cls-2" d="M351.48,200.55c4.28-.85,8.61-1.12,12.95-1.24,4.34-.22,8.64.66,12.96.82,2.88.1,5.76-.06,8.64-.36,11.5-1.11,23.18-1.1,34.55,1.19v.31c-2.89.42-5.77.64-8.67.81-8.63.52-17.29.23-25.88-.63-2.87-.29-5.75-.45-8.64-.33-4.31.19-8.61,1.1-12.95.91-4.35-.09-8.65-.33-12.96-1.18v-.31h0Z"/>
          <path class="cls-2" d="M403,152.14c-.75-.75-.87-3.55-2.11-2.35-2.28,2.21-5.21,8.51-5.87,9.22,3.1-23.93,2.6-21.27,4.52-31.51,1.92-10.23,4.27-26.4,3.27-37.11-3.12-.94-3.45-.72-6.41-2.2-4,9.67-5.61,20.7-7.06,31.27-1.25,9.13-2.31,8.9-3.35,15.28.28-6.49-1.77-11.77-1.77-11.77,0,0-2.56-1.76-2.71-.29-.22,2.12,2.35,23.61,2.35,25.84-.04,17.43-3.75,38.96-6.93,52.09l9.68.51c1.59-10.95,18.35-48.02,16.38-48.99ZM386.31,170.15c.07,1.51-.11,2.97-.42,4.4-.38,1.76-.86,3.43-1.17,5.22-.37,2.14-.54,5.74-1.57,7.48.04-3.4.31-6.66.69-10.02.2-1.76.55-3.46.9-5.16.28-1.35.87-2.84.95-4.23l.62-1.82c.1-.03-.06,2.79,0,4.13ZM392.49,115.77c.28-2.81.77-5.51,1.26-8.23.39-2.15,1.22-4.53,1.33-6.75l.86-2.91c.14-.06-.08,4.44,0,6.59.09,2.41-.15,4.73-.59,7.02-.53,2.81-1.2,5.47-1.64,8.33-.52,3.41-.75,9.16-2.2,11.92.05-5.41.44-10.62.97-15.98ZM387.45,154.56c-.77-1.19-.32-3.81-.29-5.21.04-1.92.29-3.76.59-5.62.38-2.35.23-7.18,1.85-8.96l.16.05c-.54,2.06-.17,4.73-.37,6.89-.18,1.91-.34,3.84-.63,5.71-.36,2.33-1.12,4.88-1.3,7.14ZM393.71,144.99c.09,2.41-.15,4.73-.59,7.02-.53,2.81-1.2,5.47-1.64,8.33-.52,3.41-.75,9.16-2.2,11.92.05-5.41.44-10.62.97-15.98.28-2.81.77-5.51,1.26-8.23.39-2.15,1.22-4.53,1.33-6.75l.86-2.91c.14-.06-.08,4.44,0,6.59Z"/>
          <path class="cls-2" d="M436.32,252.36c15.63-4.68,32.3-2.98,48.33-2.78,2.12.02,4.72.04,6.85.01,7.45.04,14.76,1.44,22.15,1.82,3.64.17,7.32.27,10.86-.84-.79.49-1.66.86-2.54,1.19-6.23,2.08-13.01,1.79-19.47,1.69-3.69-.09-7.38-.31-10.9-.16-2.29.1-4.68.16-6.98.15-16.2-.09-32.09-2.42-48.29-1.09h0Z"/>
          <path class="cls-2" d="M459.48,187.34c6.09-1.54,12.38-2.11,18.64-2.38,6.27-.17,12.64-.05,18.77,1.49-10.78,2.66-26.63,3.54-37.41.89h0Z"/>
          <path class="cls-2" d="M263.53,182c6.09-1.87,12.25-4.26,18.78-3.57,2.21.28,4.59,1.01,6.16,2.68-2.16-.12-4.08.07-6.14.4-5.8.85-13.14,2.94-18.8.5h0Z"/>
          <path class="cls-2" d="M115.23,188.54c10.34,2.12,20.49-.44,30.93-.96,2.66-.15,5.36-.22,8.03-.02,7.81.61,15.55.89,23.39,1.87-5.19.96-10.41,1.48-15.67,1.73-3.89.23-7.78,0-11.68.12-10.89.28-25.08,2.87-34.99-2.74h0Z"/>
          <path class="cls-2" d="M430.54,135.82c10.34,2.12,20.49-.44,30.93-.96,2.66-.15,5.36-.22,8.03-.02,7.81.61,15.55.89,23.39,1.87-5.19.96-10.41,1.48-15.67,1.73-3.89.23-7.78,0-11.68.12-10.89.28-25.08,2.87-34.99-2.74h0Z"/>
          <path class="cls-2" d="M153.53,226.76c6.77-3.52,17.28-3.6,24.05,0-6.33,1.66-17.75,1.71-24.05,0h0Z"/>
          <path class="cls-2" d="M29.82,166.72c6.77-3.52,17.28-3.6,24.05,0-6.33,1.66-17.75,1.71-24.05,0h0Z"/>
          <path class="cls-2" d="M113,271.96c5.12-2.6,11.08-3.11,16.72-3.19,6.95-.14,13.84.78,20.75.17,8.21-.75,22.09-4.12,29.33.35-2.74-.75-5.5-.58-8.23-.28-2.73.32-5.45.85-8.17,1.41-4.12.84-8.27,1.8-12.49,2.35-2.88.37-5.83.31-8.71.17-9.76-.45-19.45-2.71-29.2-.98h0Z"/>
          <path class="cls-2" d="M180.81,295.26c5.12-2.6,11.08-3.11,16.72-3.19,6.95-.14,13.84.78,20.75.17,8.21-.75,22.09-4.12,29.33.35-2.74-.75-5.5-.58-8.23-.28-2.73.32-5.45.85-8.17,1.41-4.12.84-8.27,1.8-12.49,2.35-2.88.37-5.83.31-8.71.17-9.76-.45-19.45-2.71-29.2-.98h0Z"/>
          <path class="cls-2" d="M235.02,316.49c4.7-2.97,11.97-2.93,17.39-2.86,5.78.26,11.4.09,17.26.27,3.9.17,7.93.43,11.67,1.7-8.29.79-16.35,2.39-24.75,2.04-2.75-.09-7.34-.64-10.12-.9-3.84-.34-7.58-.81-11.45-.25h0Z"/>
        </g>
        <path id="H-3" data-name="H" class="cls-1" d="M436.54,24.94c-8.84-5.23-13.46-12.65-13.46-12.65,0,0,0,0,0,0,0,0-10.01,3.89-16.23,9.06-6.21,5.18-10.35,17.6-23.82,27.5-13.46,9.9-23.82-2.65-43.49,0-19.67,2.65-35.21,17.02-47.63,36.7-12.43,19.67-38.31,28.99-38.31,28.99,0,0-30.03,17.6-45.56,25.89-15.53,8.28-40.38,10.35-60.06,9.32-19.67-1.04-30.03-11.39-43.49-15.53-13.46-4.14-51.77-9.32-65.23,2.07-13.46,11.39-38.31,21.74-25.89,54.67,12.43,32.93,46.6,44.73,77.66,60.26,31.06,15.53,27.96,5.18,44.52,34.17,16.57,28.99,28.99,36.24,56.95,36.24s27.96-13.46,43.49-23.82c15.53-10.35,18.64,21.74,41.42,32.1,22.78,10.35,40.38-30.03,52.81-20.71,26.68,20.01,7.25,31.06,13.46,59.02,6.21,27.96,36.24,22.78,52.81,17.42,16.57-5.36,26.92,11.57,40.38,5.36,13.46-6.21,4.14-19.67,8.28-30.03,4.14-10.35,15.53-9.32,27.96-24.85,12.43-15.53-5.18-31.06-5.18-42.69s11.39-39.11,22.78-71.57c11.39-32.46-18.64-49.34-24.48-59.7-5.85-10.35-9.68-16.57-2.44-21.74,7.25-5.18-3.11-24.85-12.33-33.13-9.22-8.28-38.41-14.5-48.76-17.6-10.35-3.11-10.35-15.53-4.14-26.28,6.21-10.74,46.82-33.24,46.82-33.24,0,0,0,0-.05-.03-3.04-1.55-5.99-3.28-8.79-5.2h0Z"/>
      </g>
    </g>
    <path class="cls-2" d="M494.02,490.97c-5.19,0-9.55,3.51-10.86,8.28h-194.33v-90.6c4.77-1.32,8.28-5.68,8.28-10.86,0-6.23-5.05-11.28-11.28-11.28s-11.28,5.05-11.28,11.28c0,5.19,3.51,9.55,8.28,10.86v93.6c0,1.66,1.34,3,3,3h197.33c1.32,4.77,5.68,8.28,10.86,8.28,6.23,0,11.28-5.05,11.28-11.28s-5.05-11.28-11.28-11.28Z"/>
  </g>
</svg>